<?xml version="1.0" encoding="UTF-8"?><svg id="a" xmlns="http://www.w3.org/2000/svg" viewBox="0 0 728.92 850.71"><defs><style>.o,.p{fill:#fff;}.q{fill:#223a8f;}.r{fill:rgba(33,58,143,.3);}.s{stroke:#213a8f;stroke-width:10px;}.s,.t,.u{fill:none;}.t{stroke:#fff;stroke-width:9px;}.v{fill:#213a8f;fill-rule:evenodd;}.u,.p{stroke:#333d84;stroke-width:12px;}.p{stroke-miterlimit:10;}</style></defs><rect id="b" class="r" x="119.97" y="94.22" width="608.95" height="756.49"/><g id="c"><rect id="d" class="p" x="77.33" y="51.58" width="608.95" height="756.49"/><rect class="u" x="89.27" y="63.52" width="585.07" height="732.61"/></g><polyline id="e" class="s" points="485.85 240.92 509.73 264.8 554.08 220.45"/><path id="f" class="v" d="M278.61,273.32v-7.67h7.67v-29.85l-9.38,5.12-.85-9.39,15.35-9.38h6.82v43.5h7.68v7.67h-27.29Zm76.75-25.58c0,18.76-6,26.44-18.76,26.44-13.65,0-18.76-7.68-18.76-26.44s5.11-26.44,18.76-26.44c12.79,0,18.76,7.7,18.76,26.44Zm-11.08,0c0-13.65-2.56-16.21-7.68-16.21-6,0-8.53,2.56-8.53,16.21,0,14.5,2.56,17.06,8.53,17.06,5.12-.86,7.68-3.42,7.68-17.06Zm60.55,0c0,18.76-6,26.44-18.76,26.44-13.65,0-18.77-7.68-18.77-26.44s5.12-26.44,18.77-26.44c12.79,0,18.76,7.7,18.76,26.44Zm-11.09,0c0-13.65-2.56-16.21-7.67-16.21-6,0-8.53,2.56-8.53,16.21,0,14.5,2.56,17.06,8.53,17.06,5.11-.86,7.67-3.42,7.67-17.06Zm28.15,25.58v-7.67h7.67v-29.85l-9.38,5.12-.85-9.39,15.35-9.38h6.82v43.5h7.68v7.67h-27.29Z"/><polyline id="g" class="s" points="485.85 343.26 509.73 367.14 554.08 322.79"/><path id="h" class="v" d="M278.61,375.67v-7.67h7.67v-29.86l-9.38,5.12-.85-9.38,15.35-9.38h6.82v43.5h7.68v7.68h-27.29Zm44.34,0v-7.67h7.68v-29.86l-9.38,5.12-.85-9.38,15.35-9.38h6.82v43.5h6.82v7.68h-26.44Zm76.76-25.6c0,18.77-6,26.44-18.76,26.44-13.65,0-18.76-7.67-18.76-26.44s5.11-26.44,18.76-26.44c12.79,0,18.76,7.68,18.76,26.44h0Zm-11.09,0c0-13.64-2.55-16.2-7.67-16.2-6,0-8.53,2.56-8.53,16.2,0,14.5,2.56,17.06,8.53,17.06,5.12-.85,7.67-3.41,7.67-17.06h0Zm27.3,25.59v-7.67h7.67v-29.86l-9.38,5.12-.85-9.38,15.35-9.38h6.82v43.5h7.68v7.68h-27.29Z"/><polyline id="i" class="s" points="485.85 445.6 509.73 469.48 554.08 425.13"/><path id="j" class="v" d="M278.61,478v-7.67h7.67v-29.84l-9.38,5.11-.85-9.38,15.35-9.38h6.82v43.5h7.68v7.66h-27.29Zm44.39,0v-7.67h7.68v-29.84l-9.38,5.11-.85-9.38,15.35-9.38h6.82v43.5h6.82v7.66h-26.44Zm43.5,0v-7.67h7.68v-29.84l-9.39,5.11-.85-9.38,15.35-9.38h6.83v43.5h7.67v7.66h-27.29Zm44.35,0v-7.67h7.67v-29.84l-9.38,5.11-.85-9.38,15.35-9.38h6.83v43.5h7.67v7.66h-27.29Z"/><polyline id="k" class="s" points="485.85 547.95 509.73 571.83 554.08 527.48"/><path id="l" class="v" d="M278.61,580.36v-7.68h7.67v-29.85l-9.38,5.17-.85-9.38,15.35-9.39h6.82v43.5h7.68v7.68l-27.29-.05Zm76.75-25.59c0,18.76-6,26.44-18.76,26.44-13.65,0-18.76-7.68-18.76-26.44s5.11-26.44,18.76-26.44c12.79,0,18.76,7.67,18.76,26.44h0Zm-11.08,0c0-13.65-2.56-16.2-7.68-16.2-6,0-8.53,2.55-8.53,16.2,0,14.5,2.56,17.06,8.53,17.06,5.12-.83,7.68-3.41,7.68-17.06h0Zm28.14,25.59v-7.68h7.68v-29.85l-9.39,5.17-.85-9.38,15.35-9.39h6.79v43.5h7.67v7.68l-27.25-.05Zm43.5,0v-7.68h7.67v-29.85l-9.38,5.17-.85-9.38,15.35-9.39h6.82v43.5h7.68v7.68l-27.29-.05Z"/><polyline id="m" class="s" points="485.85 650.29 509.73 674.17 554.08 629.82"/><path id="n" class="v" d="M308.46,657.11c0,18.77-6,26.44-18.77,26.44-13.64,0-18.76-7.67-18.76-26.44s5.12-26.43,18.76-26.43c12.8,0,18.77,7.67,18.77,26.43Zm-11.09,0c0-13.64-2.56-16.2-7.68-16.2-6,0-8.53,2.56-8.53,16.2,0,14.5,2.56,17.06,8.53,17.06,5.12-.85,7.68-3.41,7.68-17.06Zm28.14,25.59v-7.7h6.83v-29.83l-8.53,5.12-.86-9.38,15.36-9.38h6.82v43.47h7.67v7.68l-27.29,.02Zm75.91-25.59c0,18.77-6,26.44-18.77,26.44-13.64,0-18.76-7.67-18.76-26.44s5.12-26.43,18.76-26.43,18.77,7.67,18.77,26.43Zm-10.24,0c0-13.64-2.56-16.2-7.67-16.2-6,0-8.53,2.56-8.53,16.2,0,14.5,2.56,17.06,8.53,17.06,5.11-.85,7.67-3.41,7.67-17.06h0Zm27.29,25.59v-7.7h7.68v-29.83l-9.38,5.12-.85-9.38,15.35-9.38h6.82v43.47h7.68v7.68l-27.3,.02Z"/><polygon class="q" points="17.91 66.83 17.91 200.49 133.66 267.32 249.42 200.49 249.42 66.83 133.66 0 17.91 66.83"/><polygon class="q" points="66.83 17.91 0 133.66 66.83 249.42 200.49 249.42 267.32 133.66 200.49 17.91 66.83 17.91"/><polygon class="q" points="67.36 338.74 90.89 429.83 134.04 161.32 59.62 149.36 16.48 417.87 67.36 338.74"/><polygon class="q" points="199.96 338.74 176.43 429.83 133.29 161.32 207.7 149.36 250.84 417.87 199.96 338.74"/><circle class="t" cx="133.72" cy="133.57" r="91.71"/><polygon class="o" points="196.54 107.4 116.02 187.93 77.33 149.24 91.97 134.6 117.48 160.11 183.36 94.22 196.54 107.4"/></svg>