<?xml version="1.0" encoding="utf-8"?>
<!-- Generator: Adobe Illustrator 24.3.0, SVG Export Plug-In . SVG Version: 6.00 Build 0)  -->
<svg version="1.1" id="Ebene_1" xmlns="http://www.w3.org/2000/svg" xmlns:xlink="http://www.w3.org/1999/xlink" x="0px" y="0px"
	 viewBox="0 0 90 112" style="enable-background:new 0 0 90 112;" xml:space="preserve">
<style type="text/css">
	.st0{fill-rule:evenodd;clip-rule:evenodd;fill:#213A8F;fill-opacity:0.3;}
	.st1{fill-rule:evenodd;clip-rule:evenodd;fill:#FFFFFF;}
	.st2{fill:none;stroke:#213A8F;stroke-width:2.8;}
	.st3{fill:none;stroke:#213A8F;stroke-width:1.5;}
	.st4{fill-rule:evenodd;clip-rule:evenodd;fill:#213A8F;}
	.st5{fill:none;stroke:#213A8F;stroke-width:4;}
	.st6{fill:#213A8F;}
	.st7{fill:#FFFFFF;stroke:#213A8F;stroke-width:4;}
	.st8{fill:#FFFFFF;}
</style>
<desc>Created with Sketch.</desc>
<rect id="Rectangle-12-Copy-10" x="5.1" y="5.4" class="st0" width="71.4" height="88.7"/>
<g id="Rectangle-12-Copy-12">
	<g>
		<rect id="path-1" x="0.1" y="0.4" class="st1" width="71.4" height="88.7"/>
	</g>
	<rect x="1.5" y="1.8" class="st2" width="68.6" height="85.9"/>
</g>
<polyline id="Path-2-Copy-12" class="st3" points="46,20.6 48.8,23.4 54,18.2 "/>
<path id="_x31_001-copy-6" class="st4" d="M19.7,24.4v-0.9h0.9V20l-1.1,0.6l-0.1-1.1l1.8-1.1h0.8v5.1h0.9v0.9H19.7z M28.7,21.4
	c0,2.2-0.7,3.1-2.2,3.1c-1.6,0-2.2-0.9-2.2-3.1c0-2.3,0.6-3.1,2.2-3.1C28,18.3,28.7,19.2,28.7,21.4z M27.4,21.4
	c0-1.6-0.3-1.9-0.9-1.9c-0.7,0-1,0.3-1,1.9c0,1.7,0.3,2,1,2C27.1,23.3,27.4,23,27.4,21.4z M34.5,21.4c0,2.2-0.7,3.1-2.2,3.1
	c-1.6,0-2.2-0.9-2.2-3.1c0-2.3,0.6-3.1,2.2-3.1C33.8,18.3,34.5,19.2,34.5,21.4z M33.2,21.4c0-1.6-0.3-1.9-0.9-1.9
	c-0.7,0-1,0.3-1,1.9c0,1.7,0.3,2,1,2C32.9,23.3,33.2,23,33.2,21.4z M36.5,24.4v-0.9h0.9V20l-1.1,0.6l-0.1-1.1l1.8-1.1h0.8v5.1h0.9
	v0.9H36.5z"/>
<polyline id="Path-2-Copy-14" class="st3" points="46,32.6 48.8,35.4 54,30.2 "/>
<path id="_x31_101-copy-6" class="st4" d="M19.7,36.4v-0.9h0.9V32l-1.1,0.6l-0.1-1.1l1.8-1.1h0.8v5.1h0.9v0.9H19.7z M24.9,36.4v-0.9
	h0.9V32l-1.1,0.6l-0.1-1.1l1.8-1.1h0.8v5.1H28v0.9H24.9z M33.9,33.4c0,2.2-0.7,3.1-2.2,3.1c-1.6,0-2.2-0.9-2.2-3.1
	c0-2.3,0.6-3.1,2.2-3.1C33.2,30.3,33.9,31.2,33.9,33.4z M32.6,33.4c0-1.6-0.3-1.9-0.9-1.9c-0.7,0-1,0.3-1,1.9c0,1.7,0.3,2,1,2
	C32.3,35.3,32.6,35,32.6,33.4z M35.8,36.4v-0.9h0.9V32l-1.1,0.6l-0.1-1.1l1.8-1.1h0.8v5.1h0.9v0.9H35.8z"/>
<polyline id="Path-2-Copy-16" class="st3" points="46,44.6 48.8,47.4 54,42.2 "/>
<path id="_x31_111-copy-4" class="st4" d="M19.7,48.4v-0.9h0.9V44l-1.1,0.6l-0.1-1.1l1.8-1.1h0.8v5.1h0.9v0.9H19.7z M24.9,48.4v-0.9
	h0.9V44l-1.1,0.6l-0.1-1.1l1.8-1.1h0.8v5.1H28v0.9H24.9z M30,48.4v-0.9h0.9V44l-1.1,0.6l-0.1-1.1l1.8-1.1h0.8v5.1h0.9v0.9H30z
	 M35.2,48.4v-0.9h0.9V44L35,44.6l-0.1-1.1l1.8-1.1h0.8v5.1h0.9v0.9H35.2z"/>
<polyline id="Path-2-Copy-18" class="st3" points="46,56.6 48.8,59.4 54,54.2 "/>
<path id="_x31_011-copy-4" class="st4" d="M19.7,60.4v-0.9h0.9V56l-1.1,0.6l-0.1-1.1l1.8-1.1h0.8v5.1h0.9v0.9H19.7z M28.7,57.4
	c0,2.2-0.7,3.1-2.2,3.1c-1.6,0-2.2-0.9-2.2-3.1c0-2.3,0.6-3.1,2.2-3.1C28,54.3,28.7,55.2,28.7,57.4z M27.4,57.4
	c0-1.6-0.3-1.9-0.9-1.9c-0.7,0-1,0.3-1,1.9c0,1.7,0.3,2,1,2C27.1,59.3,27.4,59,27.4,57.4z M30.7,60.4v-0.9h0.9V56l-1.1,0.6l-0.1-1.1
	l1.8-1.1h0.8v5.1h0.9v0.9H30.7z M35.8,60.4v-0.9h0.9V56l-1.1,0.6l-0.1-1.1l1.8-1.1h0.8v5.1h0.9v0.9H35.8z"/>
<polyline id="Path-2-Copy-20" class="st3" points="46,68.6 48.8,71.4 54,66.2 "/>
<path id="_x30_101-copy-5" class="st4" d="M23.2,69.4c0,2.2-0.7,3.1-2.2,3.1c-1.6,0-2.2-0.9-2.2-3.1c0-2.3,0.6-3.1,2.2-3.1
	C22.5,66.3,23.2,67.2,23.2,69.4z M21.9,69.4c0-1.6-0.3-1.9-0.9-1.9c-0.7,0-1,0.3-1,1.9c0,1.7,0.3,2,1,2C21.6,71.3,21.9,71,21.9,69.4
	z M25.2,72.4v-0.9H26V68L25,68.6l-0.1-1.1l1.8-1.1h0.8v5.1h0.9v0.9H25.2z M34.1,69.4c0,2.2-0.7,3.1-2.2,3.1c-1.6,0-2.2-0.9-2.2-3.1
	c0-2.3,0.6-3.1,2.2-3.1C33.5,66.3,34.1,67.2,34.1,69.4z M32.9,69.4c0-1.6-0.3-1.9-0.9-1.9c-0.7,0-1,0.3-1,1.9c0,1.7,0.3,2,1,2
	C32.6,71.3,32.9,71,32.9,69.4z M36.1,72.4v-0.9H37V68l-1.1,0.6l-0.1-1.1l1.8-1.1h0.8v5.1h0.9v0.9H36.1z"/>
<path class="st5" d="M59.1,67.4c-0.8-10.8,1.3-16,11.5-15.8c6.8,0.1,11.5,0,11.3,16.4"/>
<rect x="53.4" y="66.8" class="st6" width="34.1" height="25.3"/>
<circle class="st7" cx="70.3" cy="77.1" r="5.5"/>
<polyline class="st8" points="67.1,85.7 73.5,85.7 70.3,75.1 "/>
</svg>
