<?xml version="1.0" encoding="UTF-8"?>
<svg width="96px" height="116px" viewBox="0 0 96 116" version="1.1" xmlns="http://www.w3.org/2000/svg" xmlns:xlink="http://www.w3.org/1999/xlink">
    <!-- Generator: Sketch 49.3 (51167) - http://www.bohemiancoding.com/sketch -->
    <title>Group 9</title>
    <desc>Created with Sketch.</desc>
    <defs>
        <rect id="path-1" x="2.2154727" y="0.4453125" width="89.9248716" height="88.659375"></rect>
    </defs>
    <g id="Page-1" stroke="none" stroke-width="1" fill="none" fill-rule="evenodd">
        <g id="Artboard" transform="translate(-1064.000000, -1348.000000)">
            <g id="Group-9" transform="translate(1062.000000, 1348.000000)">
                <rect id="Rectangle-12-Copy-14" fill-opacity="0.3" fill="#213A8F" x="7.2154727" y="5.4453125" width="89.9248716" height="88.659375"></rect>
                <g id="Rectangle-12-Copy-15">
                    <use fill="#FFFFFF" fill-rule="evenodd" xlink:href="#path-1"></use>
                    <rect stroke="#213A8F" stroke-width="2.8" x="3.6154727" y="1.8453125" width="87.1248716" height="85.859375"></rect>
                </g>
                <path d="M73.4409292,12.1841505 L73.4409292,22.0836455" id="Line-2-Copy-2" stroke="#213A8F" stroke-width="2.1"></path>
                <path d="M73.4409292,12.1841505 L73.4409292,22.0836455" id="Line-2-Copy-3" stroke="#213A8F" stroke-width="2.1" transform="translate(73.440929, 17.084151) rotate(-90.000000) translate(-73.440929, -17.084151) "></path>
                <path d="M73.4409292,12.1841505 L73.4409292,22.0836455" id="Line-2-Copy-4" stroke="#213A8F" stroke-width="2.1" transform="translate(73.440929, 17.084151) rotate(-45.000000) translate(-73.440929, -17.084151) "></path>
                <path d="M73.4409292,12.1841505 L73.4409292,22.0836455" id="Line-2-Copy-5" stroke="#213A8F" stroke-width="2.1" transform="translate(73.440929, 17.084151) rotate(-135.000000) translate(-73.440929, -17.084151) "></path>
                <g id="Group-Copy" transform="translate(8.677909, 86.445312)" stroke="#213A8F" stroke-width="2.8">
                    <path d="M1.19632068,1.40122084 L12.4906566,28.7012208" id="Line-4-Copy" transform="translate(6.796321, 14.701221) scale(-1, 1) translate(-6.796321, -14.701221) "></path>
                    <path d="M64.8019847,1.40122084 L76.0963207,28.7012208" id="Line-4-Copy-2"></path>
                    <path d="M38.2019847,1.40122084 L38.2019847,22.7785646" id="Line-4"></path>
                    <polyline id="Path-11" points="6.871516 16.2215333 37.5594066 10.0035646 70.3801097 16.2215333"></polyline>
                </g>
                <circle id="Oval-2-Copy-2" stroke="#213A8F" stroke-width="2" cx="18.2888068" cy="73.5465333" r="4.48875795"></circle>
                <path d="M35.0059847,24.3884514 L35.0059847,23.4444514 L35.8939847,23.4444514 L35.8939847,19.9804514 L34.7979847,20.6124514 L34.6619847,19.5244514 L36.4459847,18.3884514 L37.2379847,18.3884514 L37.2379847,23.4444514 L38.1099847,23.4444514 L38.1099847,24.3884514 L35.0059847,24.3884514 Z M43.9879847,21.4124514 C43.9879847,23.5644514 43.3079847,24.4684514 41.7479847,24.4684514 C40.1799847,24.4684514 39.5319847,23.5644514 39.5319847,21.4124514 C39.5319847,19.1564514 40.1799847,18.3164514 41.7639847,18.3164514 C43.3159847,18.3164514 43.9879847,19.1564514 43.9879847,21.4124514 Z M42.6999847,21.3964514 C42.6999847,19.7564514 42.4039847,19.4684514 41.7639847,19.4684514 C41.1079847,19.4684514 40.8119847,19.7804514 40.8119847,21.3964514 C40.8119847,23.0764514 41.1079847,23.3484514 41.7639847,23.3484514 C42.4039847,23.3484514 42.6999847,23.0444514 42.6999847,21.3964514 Z M49.8259847,21.4124514 C49.8259847,23.5644514 49.1459847,24.4684514 47.5859847,24.4684514 C46.0179847,24.4684514 45.3699847,23.5644514 45.3699847,21.4124514 C45.3699847,19.1564514 46.0179847,18.3164514 47.6019847,18.3164514 C49.1539847,18.3164514 49.8259847,19.1564514 49.8259847,21.4124514 Z M48.5379847,21.3964514 C48.5379847,19.7564514 48.2419847,19.4684514 47.6019847,19.4684514 C46.9459847,19.4684514 46.6499847,19.7804514 46.6499847,21.3964514 C46.6499847,23.0764514 46.9459847,23.3484514 47.6019847,23.3484514 C48.2419847,23.3484514 48.5379847,23.0444514 48.5379847,21.3964514 Z M51.7999847,24.3884514 L51.7999847,23.4444514 L52.6879847,23.4444514 L52.6879847,19.9804514 L51.5919847,20.6124514 L51.4559847,19.5244514 L53.2399847,18.3884514 L54.0319847,18.3884514 L54.0319847,23.4444514 L54.9039847,23.4444514 L54.9039847,24.3884514 L51.7999847,24.3884514 Z" id="1001-copy-7" fill="#213A8F"></path>
                <path d="M35.0059847,36.3884514 L35.0059847,35.4444514 L35.8939847,35.4444514 L35.8939847,31.9804514 L34.7979847,32.6124514 L34.6619847,31.5244514 L36.4459847,30.3884514 L37.2379847,30.3884514 L37.2379847,35.4444514 L38.1099847,35.4444514 L38.1099847,36.3884514 L35.0059847,36.3884514 Z M40.1799847,36.3884514 L40.1799847,35.4444514 L41.0679847,35.4444514 L41.0679847,31.9804514 L39.9719847,32.6124514 L39.8359847,31.5244514 L41.6199847,30.3884514 L42.4119847,30.3884514 L42.4119847,35.4444514 L43.2839847,35.4444514 L43.2839847,36.3884514 L40.1799847,36.3884514 Z M49.1619847,33.4124514 C49.1619847,35.5644514 48.4819847,36.4684514 46.9219847,36.4684514 C45.3539847,36.4684514 44.7059847,35.5644514 44.7059847,33.4124514 C44.7059847,31.1564514 45.3539847,30.3164514 46.9379847,30.3164514 C48.4899847,30.3164514 49.1619847,31.1564514 49.1619847,33.4124514 Z M47.8739847,33.3964514 C47.8739847,31.7564514 47.5779847,31.4684514 46.9379847,31.4684514 C46.2819847,31.4684514 45.9859847,31.7804514 45.9859847,33.3964514 C45.9859847,35.0764514 46.2819847,35.3484514 46.9379847,35.3484514 C47.5779847,35.3484514 47.8739847,35.0444514 47.8739847,33.3964514 Z M51.1359847,36.3884514 L51.1359847,35.4444514 L52.0239847,35.4444514 L52.0239847,31.9804514 L50.9279847,32.6124514 L50.7919847,31.5244514 L52.5759847,30.3884514 L53.3679847,30.3884514 L53.3679847,35.4444514 L54.2399847,35.4444514 L54.2399847,36.3884514 L51.1359847,36.3884514 Z" id="1101-copy-7" fill="#213A8F"></path>
                <path d="M38.4939847,69.4124514 C38.4939847,71.5644514 37.8139847,72.4684514 36.2539847,72.4684514 C34.6859847,72.4684514 34.0379847,71.5644514 34.0379847,69.4124514 C34.0379847,67.1564514 34.6859847,66.3164514 36.2699847,66.3164514 C37.8219847,66.3164514 38.4939847,67.1564514 38.4939847,69.4124514 Z M37.2059847,69.3964514 C37.2059847,67.7564514 36.9099847,67.4684514 36.2699847,67.4684514 C35.6139847,67.4684514 35.3179847,67.7804514 35.3179847,69.3964514 C35.3179847,71.0764514 35.6139847,71.3484514 36.2699847,71.3484514 C36.9099847,71.3484514 37.2059847,71.0444514 37.2059847,69.3964514 Z M40.4679847,72.3884514 L40.4679847,71.4444514 L41.3559847,71.4444514 L41.3559847,67.9804514 L40.2599847,68.6124514 L40.1239847,67.5244514 L41.9079847,66.3884514 L42.6999847,66.3884514 L42.6999847,71.4444514 L43.5719847,71.4444514 L43.5719847,72.3884514 L40.4679847,72.3884514 Z M49.4499847,69.4124514 C49.4499847,71.5644514 48.7699847,72.4684514 47.2099847,72.4684514 C45.6419847,72.4684514 44.9939847,71.5644514 44.9939847,69.4124514 C44.9939847,67.1564514 45.6419847,66.3164514 47.2259847,66.3164514 C48.7779847,66.3164514 49.4499847,67.1564514 49.4499847,69.4124514 Z M48.1619847,69.3964514 C48.1619847,67.7564514 47.8659847,67.4684514 47.2259847,67.4684514 C46.5699847,67.4684514 46.2739847,67.7804514 46.2739847,69.3964514 C46.2739847,71.0764514 46.5699847,71.3484514 47.2259847,71.3484514 C47.8659847,71.3484514 48.1619847,71.0444514 48.1619847,69.3964514 Z M51.4239847,72.3884514 L51.4239847,71.4444514 L52.3119847,71.4444514 L52.3119847,67.9804514 L51.2159847,68.6124514 L51.0799847,67.5244514 L52.8639847,66.3884514 L53.6559847,66.3884514 L53.6559847,71.4444514 L54.5279847,71.4444514 L54.5279847,72.3884514 L51.4239847,72.3884514 Z" id="0101-copy-6" fill="#213A8F"></path>
                <polyline id="Path-7-Copy" stroke="#213A8F" stroke-width="2" points="73.8769531 26.1894531 73.8769531 38.8023764 18.2382812 60.7714844 18.2382812 66.01702"></polyline>
            </g>
        </g>
    </g>
</svg>