<svg width="100" height="100" viewBox="0 0 100 100" fill="none" xmlns="http://www.w3.org/2000/svg">
<path d="M45.0754 91.6867L14.8567 61.4679C13.4455 60.0568 12.6694 58.1215 12.7299 56.1257L13.123 41.7522C13.1834 39.7161 14.8163 38.0731 16.8625 38.0126L31.2361 37.6195C33.2318 37.5691 35.1671 38.3352 36.5783 39.7463L66.797 69.9651C68.2988 71.4669 68.2988 73.8961 66.797 75.398L50.5083 91.6867C49.0064 93.1885 46.5772 93.1885 45.0754 91.6867ZM25.7427 50.6323C26.8716 49.5034 26.8716 47.6689 25.7427 46.54C24.6137 45.4111 22.7792 45.4111 21.6503 46.54C20.5214 47.6689 20.5214 49.5034 21.6503 50.6323C22.7792 51.7612 24.6137 51.7612 25.7427 50.6323Z" fill="#1E3791" stroke="#1E3791" stroke-width="0.57"/>
<path d="M48.8332 81.4445L18.6145 51.2257C17.2033 49.8146 16.4272 47.8793 16.4877 45.8835L16.8808 31.51C16.9412 29.4739 18.5741 27.8309 20.6203 27.7704L34.9939 27.3773C36.9896 27.3269 38.9249 28.093 40.3361 29.5041L70.5548 59.7229C72.0567 61.2247 72.0567 63.6539 70.5548 65.1558L54.2661 81.4445C52.7642 82.9463 50.3351 82.9463 48.8332 81.4445ZM29.5005 40.3901C30.6294 39.2612 30.6294 37.4267 29.5005 36.2978C28.3715 35.1689 26.5371 35.1689 25.4081 36.2978C24.2792 37.4267 24.2792 39.2612 25.4081 40.3901C26.5371 41.5191 28.3715 41.5191 29.5005 40.3901Z" fill="white" stroke="#1E3791" stroke-width="0.57" stroke-linecap="round" stroke-linejoin="round"/>
<path d="M59.9426 83.9288L29.7238 53.7101C28.3127 52.299 27.5366 50.3637 27.597 48.3679L27.9901 33.9944C28.0506 31.9583 29.6835 30.3153 31.7297 30.2548L46.1032 29.8617C48.099 29.8113 50.0343 30.5774 51.4454 31.9885L81.6642 62.2072C83.166 63.7091 83.166 66.1383 81.6642 67.6402L65.3755 83.9288C63.8736 85.4307 61.4444 85.4307 59.9426 83.9288ZM40.6098 42.8745C41.7388 41.7456 41.7388 39.9111 40.6098 38.7822C39.4809 37.6533 37.6464 37.6533 36.5175 38.7822C35.3886 39.9111 35.3886 41.7456 36.5175 42.8745C37.6464 44.0034 39.4809 44.0034 40.6098 42.8745Z" fill="white" stroke="#1E3791" stroke-width="0.57" stroke-linecap="round" stroke-linejoin="round"/>
<path d="M83.6208 40.3941L58.0488 65.9661C57.6355 66.3794 57.3432 66.8934 57.2121 67.4579L55.418 74.7455L62.7055 72.9513C63.27 72.8102 63.7841 72.5179 64.1973 72.1147L89.7693 46.5427C90.4749 45.8371 90.4749 44.6981 89.7693 43.9925L86.181 40.4042C85.4754 39.6986 84.3364 39.6986 83.6309 40.4042L83.6208 40.3941Z" fill="#E1E1E1"/>
<mask id="mask0_1050_9425" style="mask-type:luminance" maskUnits="userSpaceOnUse" x="55" y="39" width="36" height="36">
<path d="M83.6208 40.3941L58.0488 65.9661C57.6355 66.3794 57.3432 66.8934 57.2121 67.4579L55.418 74.7455L62.7055 72.9513C63.27 72.8102 63.7841 72.5179 64.1973 72.1147L89.7693 46.5427C90.4749 45.8371 90.4749 44.6981 89.7693 43.9925L86.181 40.4042C85.4754 39.6986 84.3364 39.6986 83.6309 40.4042L83.6208 40.3941Z" fill="white"/>
</mask>
<g mask="url(#mask0_1050_9425)">
<path d="M61.3447 76.0673L53.918 68.6406L48.6081 73.9505L56.0348 81.3772L61.3447 76.0673Z" fill="#1E3791" stroke="#1E3791" stroke-width="0.99" stroke-linecap="round" stroke-linejoin="round"/>
<path d="M79.1837 43.2695L57.6875 64.7656L66.3473 73.4254L87.8434 51.9292L79.1837 43.2695Z" fill="#B6E6FA" stroke="#1E3791" stroke-width="0.57" stroke-linecap="round" stroke-linejoin="round"/>
<path d="M81.4805 45.5663L59.9844 67.0625L63.3057 70.3839L84.8019 48.8877L81.4805 45.5663Z" stroke="#1E3791" stroke-width="0.57" stroke-linecap="round" stroke-linejoin="round"/>
<path d="M85.4036 37.4909L79.4023 43.4922L87.3993 51.4891L93.4005 45.4879L85.4036 37.4909Z" fill="#E60032" stroke="#1E3791" stroke-width="0.71" stroke-linecap="round" stroke-linejoin="round"/>
<path d="M81.0607 41.9432L79.457 43.5469L87.5609 51.6507L89.1645 50.047L81.0607 41.9432Z" fill="white" stroke="#1E3791" stroke-width="0.57" stroke-linecap="round" stroke-linejoin="round"/>
</g>
<path d="M83.6208 40.3941L58.0488 65.9661C57.6355 66.3794 57.3432 66.8934 57.2121 67.4579L55.418 74.7455L62.7055 72.9513C63.27 72.8102 63.7841 72.5179 64.1973 72.1147L89.7693 46.5427C90.4749 45.8371 90.4749 44.6981 89.7693 43.9925L86.181 40.4042C85.4754 39.6986 84.3364 39.6986 83.6309 40.4042L83.6208 40.3941Z" stroke="#1E3791" stroke-width="0.57" stroke-linecap="round" stroke-linejoin="round"/>
<path d="M45.0754 92.8273L14.8567 62.6086C13.4455 61.1974 12.6694 59.2621 12.7299 57.2664L13.123 42.8928C13.1834 40.8567 14.8163 39.2137 16.8625 39.1533L31.2361 38.7602C33.2318 38.7098 35.1671 39.4758 36.5783 40.887L66.797 71.1057C68.2988 72.6075 68.2988 75.0367 66.797 76.5386L50.5083 92.8273C49.0064 94.3291 46.5772 94.3291 45.0754 92.8273ZM25.7427 51.773C26.8716 50.644 26.8716 48.8095 25.7427 47.6806C24.6137 46.5517 22.7792 46.5517 21.6503 47.6806C20.5214 48.8095 20.5214 50.644 21.6503 51.773C22.7792 52.9019 24.6137 52.9019 25.7427 51.773Z" fill="#1E3791" stroke="#1E3791" stroke-width="0.57"/>
<path d="M48.8332 81.4445L18.6145 51.2257C17.2033 49.8146 16.4272 47.8793 16.4877 45.8835L16.8808 31.51C16.9412 29.4739 18.5741 27.8309 20.6203 27.7704L34.9939 27.3773C36.9896 27.3269 38.9249 28.093 40.3361 29.5041L70.5548 59.7229C72.0567 61.2247 72.0567 63.6539 70.5548 65.1558L54.2661 81.4445C52.7642 82.9463 50.3351 82.9463 48.8332 81.4445ZM29.5005 40.3901C30.6294 39.2612 30.6294 37.4267 29.5005 36.2978C28.3715 35.1689 26.5371 35.1689 25.4081 36.2978C24.2792 37.4267 24.2792 39.2612 25.4081 40.3901C26.5371 41.5191 28.3715 41.5191 29.5005 40.3901Z" fill="#E60032" stroke="#1E3791" stroke-width="0.57" stroke-linecap="round" stroke-linejoin="round"/>
<path d="M59.9426 83.9288L29.7238 53.7101C28.3127 52.299 27.5366 50.3637 27.597 48.3679L27.9901 33.9944C28.0506 31.9583 29.6835 30.3153 31.7297 30.2548L46.1032 29.8617C48.099 29.8113 50.0343 30.5774 51.4454 31.9885L81.6642 62.2072C83.166 63.7091 83.166 66.1383 81.6642 67.6402L65.3755 83.9288C63.8736 85.4307 61.4444 85.4307 59.9426 83.9288ZM40.6098 42.8745C41.7388 41.7456 41.7388 39.9111 40.6098 38.7822C39.4809 37.6533 37.6464 37.6533 36.5175 38.7822C35.3886 39.9111 35.3886 41.7456 36.5175 42.8745C37.6464 44.0034 39.4809 44.0034 40.6098 42.8745Z" fill="white" stroke="#1E3791" stroke-width="0.57" stroke-linecap="round" stroke-linejoin="round"/>
<path d="M83.6208 40.3941L58.0488 65.9661C57.6355 66.3794 57.3432 66.8934 57.2121 67.4579L55.418 74.7455L62.7055 72.9513C63.27 72.8102 63.7841 72.5179 64.1973 72.1147L89.7693 46.5427C90.4749 45.8371 90.4749 44.6981 89.7693 43.9925L86.181 40.4042C85.4754 39.6986 84.3364 39.6986 83.6309 40.4042L83.6208 40.3941Z" fill="#E1E1E1"/>
<mask id="mask1_1050_9425" style="mask-type:luminance" maskUnits="userSpaceOnUse" x="55" y="39" width="36" height="36">
<path d="M83.6208 40.3941L58.0488 65.9661C57.6355 66.3794 57.3432 66.8934 57.2121 67.4579L55.418 74.7455L62.7055 72.9513C63.27 72.8102 63.7841 72.5179 64.1973 72.1147L89.7693 46.5427C90.4749 45.8371 90.4749 44.6981 89.7693 43.9925L86.181 40.4042C85.4754 39.6986 84.3364 39.6986 83.6309 40.4042L83.6208 40.3941Z" fill="white"/>
</mask>
<g mask="url(#mask1_1050_9425)">
<path d="M61.3447 76.0673L53.918 68.6406L48.6081 73.9505L56.0348 81.3772L61.3447 76.0673Z" fill="#1E3791" stroke="#1E3791" stroke-width="0.99" stroke-linecap="round" stroke-linejoin="round"/>
<path d="M79.1837 43.2695L57.6875 64.7656L66.3473 73.4254L87.8434 51.9292L79.1837 43.2695Z" fill="#B6E6FA" stroke="#1E3791" stroke-width="0.57" stroke-linecap="round" stroke-linejoin="round"/>
<path d="M81.4805 45.5663L59.9844 67.0625L63.3057 70.3839L84.8019 48.8877L81.4805 45.5663Z" stroke="#1E3791" stroke-width="0.57" stroke-linecap="round" stroke-linejoin="round"/>
<path d="M85.4036 37.4909L79.4023 43.4922L87.3993 51.4891L93.4005 45.4879L85.4036 37.4909Z" fill="#E60032" stroke="#1E3791" stroke-width="0.71" stroke-linecap="round" stroke-linejoin="round"/>
<path d="M81.0607 41.9432L79.457 43.5469L87.5609 51.6507L89.1645 50.047L81.0607 41.9432Z" fill="white" stroke="#1E3791" stroke-width="0.57" stroke-linecap="round" stroke-linejoin="round"/>
</g>
<path d="M83.6208 40.3941L58.0488 65.9661C57.6355 66.3794 57.3432 66.8934 57.2121 67.4579L55.418 74.7455L62.7055 72.9513C63.27 72.8102 63.7841 72.5179 64.1973 72.1147L89.7693 46.5427C90.4749 45.8371 90.4749 44.6981 89.7693 43.9925L86.181 40.4042C85.4754 39.6986 84.3364 39.6986 83.6309 40.4042L83.6208 40.3941Z" stroke="#1E3791" stroke-width="0.57" stroke-linecap="round" stroke-linejoin="round"/>
<path d="M77.108 15.9609H49.9031C45.0951 15.9609 41.1641 19.892 41.1641 24.7C41.1641 29.508 45.0548 33.3987 49.8325 33.439L50.8103 38.6199L53.9854 33.4491H77.1282C81.9362 33.4491 85.8672 29.518 85.8672 24.7101C85.8672 19.9021 81.9362 15.971 77.1282 15.971L77.108 15.9609Z" fill="#B6E6FA"/>
<path d="M77.108 15.9609H49.9031C45.0951 15.9609 41.1641 19.892 41.1641 24.7C41.1641 29.508 45.0548 33.3987 49.8325 33.439L50.8103 38.6199L53.9854 33.4491H77.1282C81.9362 33.4491 85.8672 29.518 85.8672 24.7101C85.8672 19.9021 81.9362 15.971 77.1282 15.971L77.108 15.9609Z" stroke="#1E3791" stroke-width="0.57" stroke-linecap="round" stroke-linejoin="round"/>
<path d="M56.414 23.109L53.7328 25.3165L54.6097 28.673L51.6866 26.8083L48.7636 28.673L49.6304 25.3165L46.9492 23.109L50.4166 22.9074L51.6866 19.6719L52.9466 22.9074L56.414 23.109Z" fill="#E60032" stroke="#1E3791" stroke-width="0.57" stroke-linecap="round" stroke-linejoin="round"/>
<path d="M68.3398 23.109L65.6586 25.3165L66.5355 28.673L63.6124 26.8083L60.6893 28.673L61.5562 25.3165L58.875 23.109L62.3424 22.9074L63.6124 19.6719L64.8724 22.9074L68.3398 23.109Z" fill="#E60032" stroke="#1E3791" stroke-width="0.57" stroke-linecap="round" stroke-linejoin="round"/>
<path d="M80.2616 23.109L77.5805 25.3165L78.4574 28.673L75.5343 26.8083L72.6112 28.673L73.4781 25.3165L70.7969 23.109L74.2643 22.9074L75.5343 19.6719L76.8043 22.9074L80.2616 23.109Z" stroke="#1E3791" stroke-width="0.57" stroke-linejoin="round"/>
<path d="M43.2423 19.2658C46.9832 19.2658 50.0158 16.2332 50.0158 12.4923C50.0158 8.75135 46.9832 5.71875 43.2423 5.71875C39.5014 5.71875 36.4688 8.75135 36.4688 12.4923C36.4688 16.2332 39.5014 19.2658 43.2423 19.2658Z" fill="white" stroke="#1E3791" stroke-width="0.57" stroke-linecap="round" stroke-linejoin="round"/>
<path d="M40.1289 12.9933L42.8 15.5435L45.4409 9.44531" fill="white"/>
<path d="M40.1289 12.9933L42.8 15.5435L45.4409 9.44531" stroke="#1E3791" stroke-width="0.57" stroke-linecap="round" stroke-linejoin="round"/>
<path d="M39.1094 50.2188L53.7148 64.8241" stroke="#1E3791" stroke-width="0.57" stroke-linecap="round"/>
<path d="M42.9688 46.3594L54.5099 57.9005" stroke="#1E3791" stroke-width="0.57" stroke-linecap="round"/>
<path d="M46.8398 42.5L64.1768 59.837" stroke="#1E3791" stroke-width="0.57" stroke-linecap="round"/>
<path d="M77.108 15.9609H49.9031C45.0951 15.9609 41.1641 19.892 41.1641 24.7C41.1641 29.508 45.0548 33.3987 49.8325 33.439L50.8103 38.6199L53.9854 33.4491H77.1282C81.9362 33.4491 85.8672 29.518 85.8672 24.7101C85.8672 19.9021 81.9362 15.971 77.1282 15.971L77.108 15.9609Z" fill="#B6E6FA"/>
<path d="M77.108 15.9609H49.9031C45.0951 15.9609 41.1641 19.892 41.1641 24.7C41.1641 29.508 45.0548 33.3987 49.8325 33.439L50.8103 38.6199L53.9854 33.4491H77.1282C81.9362 33.4491 85.8672 29.518 85.8672 24.7101C85.8672 19.9021 81.9362 15.971 77.1282 15.971L77.108 15.9609Z" stroke="#1E3791" stroke-width="0.57" stroke-linecap="round" stroke-linejoin="round"/>
<path d="M56.414 23.109L53.7328 25.3165L54.6097 28.673L51.6866 26.8083L48.7636 28.673L49.6304 25.3165L46.9492 23.109L50.4166 22.9074L51.6866 19.6719L52.9466 22.9074L56.414 23.109Z" fill="white" stroke="#1E3791" stroke-width="0.57" stroke-linecap="round" stroke-linejoin="round"/>
<path d="M68.3398 23.109L65.6586 25.3165L66.5355 28.673L63.6124 26.8083L60.6893 28.673L61.5562 25.3165L58.875 23.109L62.3424 22.9074L63.6124 19.6719L64.8724 22.9074L68.3398 23.109Z" fill="white" stroke="#1E3791" stroke-width="0.57" stroke-linecap="round" stroke-linejoin="round"/>
<path d="M80.2616 23.109L77.5805 25.3165L78.4574 28.673L75.5343 26.8083L72.6112 28.673L73.4781 25.3165L70.7969 23.109L74.2643 22.9074L75.5343 19.6719L76.8043 22.9074L80.2616 23.109Z" stroke="#1E3791" stroke-width="0.57" stroke-linejoin="round"/>
<path d="M43.2423 19.2658C46.9832 19.2658 50.0158 16.2332 50.0158 12.4923C50.0158 8.75135 46.9832 5.71875 43.2423 5.71875C39.5014 5.71875 36.4688 8.75135 36.4688 12.4923C36.4688 16.2332 39.5014 19.2658 43.2423 19.2658Z" fill="white" stroke="#1E3791" stroke-width="0.57" stroke-linecap="round" stroke-linejoin="round"/>
<path d="M40.1289 12.9933L42.8 15.5435L45.4409 9.44531" fill="white"/>
<path d="M40.1289 12.9933L42.8 15.5435L45.4409 9.44531" stroke="#1E3791" stroke-width="0.57" stroke-linecap="round" stroke-linejoin="round"/>
<path d="M39.1094 50.2188L53.7148 64.8241" stroke="#1E3791" stroke-width="0.57" stroke-linecap="round"/>
<path d="M42.9688 46.3594L54.5099 57.9005" stroke="#1E3791" stroke-width="0.57" stroke-linecap="round"/>
<path d="M46.8398 42.5L64.1768 59.837" stroke="#1E3791" stroke-width="0.57" stroke-linecap="round"/>
</svg>
