<svg width="100" height="100" viewBox="0 0 100 100" fill="none" xmlns="http://www.w3.org/2000/svg">
<path d="M14.1514 16.8359H86.2207C90.1518 16.8359 93.3369 20.0211 93.3369 23.9522V53.9693H7.03516V23.9522C7.03516 20.0211 10.2203 16.8359 14.1514 16.8359Z" fill="#1E3791" stroke="#1E3791" stroke-width="0.57"/>
<path d="M93.338 37.3415C90.7072 34.5797 87.7135 31.5759 83.8732 31.5759C80.2848 31.5759 78.4907 33.1484 75.7087 31.5759C72.5739 29.8019 69.1368 13.9769 62.0911 13.9769C57.011 13.9769 55.4083 20.5287 51.6385 20.5287C47.4152 20.5287 46.6189 7.44531 40.7828 7.44531C34.4225 7.44531 30.683 31.5759 26.9938 31.5759C24.7461 31.5759 23.2341 29.5197 20.3312 29.5197C13.9609 29.5197 13.3763 40.8089 7.06641 44.2763V58.8615H93.3279V37.3516L93.338 37.3415Z" fill="#E60032"/>
<path d="M93.338 37.3415C90.7072 34.5797 87.7135 31.5759 83.8732 31.5759C80.2848 31.5759 78.4907 33.1484 75.7087 31.5759C72.5739 29.8019 69.1368 13.9769 62.0911 13.9769C57.011 13.9769 55.4083 20.5287 51.6385 20.5287C47.4152 20.5287 46.6189 7.44531 40.7828 7.44531C34.4225 7.44531 30.683 31.5759 26.9938 31.5759C24.7461 31.5759 23.2341 29.5197 20.3312 29.5197C13.9609 29.5197 13.3763 40.8089 7.06641 44.2763V58.8615H93.3279V37.3516L93.338 37.3415Z" stroke="#1E3791" stroke-width="0.57"/>
<path d="M80.8191 34.8425C77.2005 34.8425 77.0593 37.1608 73.6827 36.5459C70.306 35.9311 66.758 22.0312 60.8412 22.0312C55.3982 22.0312 53.4932 28.1496 49.5924 28.6435C45.5404 29.1676 43.3228 27.2525 39.795 27.827C33.3238 28.8854 32.5175 38.0679 28.3243 38.0679C24.9779 38.0679 24.0707 34.0462 20.7243 34.0462C14.6866 34.0462 12.5195 50.5969 7.06641 53.5099V59.1344C9.19321 61.241 11.9349 63.4988 13.6686 64.8798H17.0049L30.5015 54.1046H62.9076L92.0478 64.8798H93.3279V51.7863C88.7517 48.0165 86.8668 34.8122 80.8191 34.8122V34.8425Z" fill="#B6E6FA"/>
<path d="M80.8191 34.8425C77.2005 34.8425 77.0593 37.1608 73.6827 36.5459C70.306 35.9311 66.758 22.0312 60.8412 22.0312C55.3982 22.0312 53.4932 28.1496 49.5924 28.6435C45.5404 29.1676 43.3228 27.2525 39.795 27.827C33.3238 28.8854 32.5175 38.0679 28.3243 38.0679C24.9779 38.0679 24.0707 34.0462 20.7243 34.0462C14.6866 34.0462 12.5195 50.5969 7.06641 53.5099V59.1344C9.19321 61.241 11.9349 63.4988 13.6686 64.8798H17.0049L30.5015 54.1046H62.9076L92.0478 64.8798H93.3279V51.7863C88.7517 48.0165 86.8668 34.8122 80.8191 34.8122V34.8425Z" stroke="#1E3791" stroke-width="0.57"/>
<path d="M81.6147 49.3485C78.3993 49.3485 78.1675 53.7231 74.9521 53.7231C70.1743 53.7231 68.5918 39.3394 62.2921 39.3394C58.1493 39.3394 54.9239 48.4514 51.5573 48.4514C47.7774 48.4514 45.9731 34.1484 40.7519 34.1484C35.067 34.1484 34.3614 51.6164 28.4144 51.6164C25.1184 51.6164 23.8584 47.1814 20.381 47.1814C15.704 47.1814 13.043 57.7348 7.08594 57.7348V74.1948C7.08594 78.1259 10.2711 81.3211 14.2122 81.3211H86.2211C90.1522 81.3211 93.3474 78.1359 93.3474 74.1948V58.521C87.3803 58.521 84.8402 49.3586 81.6248 49.3586L81.6147 49.3485Z" fill="white" stroke="#1E3791" stroke-width="0.57"/>
<path d="M45.0958 57.4688H29.6236C27.5361 57.4688 25.8438 59.1611 25.8438 61.2486V61.2587C25.8438 63.3462 27.5361 65.0385 29.6236 65.0385H45.0958C47.1834 65.0385 48.8757 63.3462 48.8757 61.2587V61.2486C48.8757 59.1611 47.1834 57.4688 45.0958 57.4688Z" fill="#B6E6FA" stroke="#1E3791" stroke-width="0.57" stroke-linejoin="round"/>
<path d="M45.0868 63.908C46.5564 63.908 47.7478 62.7166 47.7478 61.247C47.7478 59.7773 46.5564 58.5859 45.0868 58.5859C43.6172 58.5859 42.4258 59.7773 42.4258 61.247C42.4258 62.7166 43.6172 63.908 45.0868 63.908Z" fill="white" stroke="#1E3791" stroke-width="0.57" stroke-linejoin="round"/>
<path d="M29.6112 75.1719H45.0834C47.171 75.1719 48.8633 73.4796 48.8633 71.392V71.3819C48.8633 69.2944 47.171 67.6021 45.0834 67.6021H29.6112C27.5236 67.6021 25.8313 69.2944 25.8313 71.3819V71.392C25.8313 73.4796 27.5236 75.1719 29.6112 75.1719Z" fill="white" stroke="#1E3791" stroke-width="0.57" stroke-linejoin="round"/>
<path d="M29.622 74.0408C31.0916 74.0408 32.283 72.8494 32.283 71.3798C32.283 69.9101 31.0916 68.7188 29.622 68.7188C28.1523 68.7188 26.9609 69.9101 26.9609 71.3798C26.9609 72.8494 28.1523 74.0408 29.622 74.0408Z" fill="white" stroke="#1E3791" stroke-width="0.57" stroke-linejoin="round"/>
<path d="M65.9297 86.0946L69.4172 76.9523L66.9477 68.2839L62.8453 62.9719C61.4039 61.1172 62.0289 58.0429 63.8734 56.6016C63.8734 56.6016 69.8507 64.1613 72.3202 67.296C73.4088 68.677 74.5377 70.582 74.5982 72.2351L74.8502 74.1502C75.0618 75.7831 76.0799 77.1942 77.5616 77.92L84.1234 80.9136L80.6963 92.7774L65.9297 86.1046V86.0946Z" fill="white" stroke="#1E3791" stroke-width="0.57" stroke-linecap="round" stroke-linejoin="round"/>
<path d="M55.9525 68.0078C55.0353 68.0884 54.2692 68.5521 53.866 69.4492C53.5435 70.1649 53.5233 70.7192 53.866 71.576C54.1583 72.3118 54.5716 72.2715 54.874 73.0779C55.1058 73.7129 54.9949 74.4386 54.5313 74.9728C54.4103 75.1039 54.3095 75.2551 54.2188 75.4264C53.8156 76.1723 53.7854 77.0593 54.1382 77.8153C54.4708 78.5309 54.37 79.3776 53.8761 79.9824C53.7854 80.1034 53.7048 80.2344 53.6241 80.3654C52.7169 81.7161 53.8257 83.5002 55.1159 84.1957L63.8247 88.1671L71.0014 88.7819" fill="white"/>
<path d="M55.9525 68.0078C55.0353 68.0884 54.2692 68.5521 53.866 69.4492C53.5435 70.1649 53.5233 70.7192 53.866 71.576C54.1583 72.3118 54.5716 72.2715 54.874 73.0779C55.1058 73.7129 54.9949 74.4386 54.5313 74.9728C54.4103 75.1039 54.3095 75.2551 54.2188 75.4264C53.8156 76.1723 53.7854 77.0593 54.1382 77.8153C54.4708 78.5309 54.37 79.3776 53.8761 79.9824C53.7854 80.1034 53.7048 80.2344 53.6241 80.3654C52.7169 81.7161 53.8257 83.5002 55.1159 84.1957L63.8247 88.1671L71.0014 88.7819" stroke="#4C64CD" stroke-width="0.57" stroke-linecap="round" stroke-linejoin="round"/>
<path d="M69.4471 68.9065L58.6418 64.0078L55.0938 71.5575L74.8095 88.2896L74.5374 83.6329L72.844 72.011L69.4471 68.9065Z" fill="white"/>
<path d="M55.9525 68.0078C55.0353 68.0884 54.2692 68.5521 53.866 69.4492C53.5435 70.1649 53.5233 70.7192 53.866 71.576C54.1583 72.3118 54.5716 72.2715 54.874 73.0779C55.1058 73.7129 54.9949 74.4386 54.5313 74.9728C54.4103 75.1039 54.3095 75.2551 54.2188 75.4264C53.8156 76.1723 53.7854 77.0593 54.1382 77.8153C54.4708 78.5309 54.37 79.3776 53.8761 79.9824C53.7854 80.1034 53.7048 80.2344 53.6241 80.3654C52.7169 81.7161 53.8257 83.5002 55.1159 84.1957L64.8427 88.6307C67.282 89.7395 70.6486 88.6106 72.8762 89.6286L80.2545 92.9952L81.8874 90.1225" fill="white"/>
<path d="M55.9525 68.0078C55.0353 68.0884 54.2692 68.5521 53.866 69.4492C53.5435 70.1649 53.5233 70.7192 53.866 71.576C54.1583 72.3118 54.5716 72.2715 54.874 73.0779C55.1058 73.7129 54.9949 74.4386 54.5313 74.9728C54.4103 75.1039 54.3095 75.2551 54.2188 75.4264C53.8156 76.1723 53.7854 77.0593 54.1382 77.8153C54.4708 78.5309 54.37 79.3776 53.8761 79.9824C53.7854 80.1034 53.7048 80.2344 53.6241 80.3654C52.7169 81.7161 53.8257 83.5002 55.1159 84.1957L64.8427 88.6307C67.282 89.7395 70.6486 88.6106 72.8762 89.6286L80.2545 92.9952L81.8874 90.1225" stroke="#1E3791" stroke-width="0.57" stroke-linecap="round" stroke-linejoin="round"/>
<path d="M68.4909 68.483L49.0876 59.633C47.8277 59.0686 46.3459 59.633 45.7815 60.893C45.217 62.153 45.7815 63.6347 47.0414 64.1991L61.042 70.5291" fill="white"/>
<path d="M68.4909 68.483L49.0876 59.633C47.8277 59.0686 46.3459 59.633 45.7815 60.893C45.217 62.153 45.7815 63.6347 47.0414 64.1991L61.042 70.5291" stroke="#1E3791" stroke-width="0.57" stroke-linecap="round" stroke-linejoin="round"/>
<path d="M80.6069 77.7157L74.0703 92.0391L81.0761 95.2362L87.6127 80.9129L80.6069 77.7157Z" fill="white" stroke="#1E3791" stroke-width="0.57" stroke-linecap="round" stroke-linejoin="round"/>
</svg>
