<svg width="301" height="236" viewBox="0 0 301 236" fill="none" xmlns="http://www.w3.org/2000/svg">
<mask id="mask0_112_33981" style="mask-type:luminance" maskUnits="userSpaceOnUse" x="0" y="0" width="301" height="236">
<path d="M301 0.419922H0V235.593H301V0.419922Z" fill="white"/>
</mask>
<g mask="url(#mask0_112_33981)">
<path d="M291.635 213.801C297.261 208.175 300.413 200.56 300.413 192.606V118.742C300.413 110.788 297.261 103.174 291.635 97.5469L279.218 85.1309C273.592 79.5039 265.977 76.3519 258.024 76.3519H196.301C188.368 76.3519 180.775 73.2219 175.169 67.6369L153.298 45.8925C147.671 40.3083 140.077 37.1777 132.166 37.1777H48.9951C41.0411 37.1777 33.4261 40.3294 27.8001 45.956L9.3761 64.3799C3.7491 70.0059 0.598145 77.6209 0.598145 85.5749V181.078C0.598145 191.02 8.65715 199.058 18.5771 199.058H129.903C136.333 199.058 142.277 202.485 145.471 208.048L155.857 226.027C159.072 231.59 165.016 235.017 171.425 235.017H257.981C265.935 235.017 273.549 231.865 279.176 226.239L291.593 213.822L291.635 213.801Z" fill="#20378B" stroke="#20378B" stroke-width="1.20569" stroke-miterlimit="10"/>
<path d="M291.635 189.807C297.261 184.18 300.413 176.565 300.413 168.612V94.7469C300.413 86.7939 297.261 79.1789 291.635 73.5529L279.218 61.1359C273.592 55.5089 265.977 52.3579 258.024 52.3579H193.128C186.697 52.3579 180.753 48.931 177.559 43.3678L165.312 22.1519C162.097 16.5888 156.153 13.1621 149.744 13.1621H48.9951C41.0411 13.1621 33.4261 16.3138 27.8001 21.9404L9.3761 40.3642C3.7711 45.9696 0.598145 53.5849 0.598145 61.5379V157.041C0.598145 166.983 8.65715 175.021 18.5771 175.021H129.903C136.333 175.021 142.277 178.448 145.471 184.011L155.857 201.991C159.072 207.554 165.016 210.98 171.425 210.98H257.981C265.935 210.98 273.549 207.829 279.176 202.202L291.593 189.786L291.635 189.807Z" fill="#BEE4F8" stroke="#20378B" stroke-width="1.20569" stroke-miterlimit="10"/>
<path d="M124.359 30.9021C124.549 29.358 124.211 27.8139 123.407 26.5024C122.391 24.8525 121.82 22.9276 121.82 20.8547C121.82 16.0319 124.993 11.9706 129.351 10.5746C130.662 10.1515 131.572 9.09387 131.91 7.76127C132.862 3.99617 136.31 1.01367 140.604 1.01367C144.898 1.01367 148.324 3.84807 149.297 7.78237C149.615 9.09387 150.545 10.1515 151.836 10.5534C156.214 11.9495 159.387 16.0108 159.387 20.8335C159.387 22.9065 158.795 24.8314 157.801 26.4813C156.997 27.7927 156.658 29.3157 156.849 30.8387C156.891 31.156 156.912 31.5155 156.912 31.8963C156.912 37.4171 152.428 41.9014 146.907 41.9014C146.082 41.9014 145.278 41.7957 144.496 41.6053C141.957 40.9496 139.292 40.9496 136.733 41.6053C135.971 41.7957 135.146 41.9014 134.321 41.9014C128.801 41.9014 124.316 37.4171 124.316 31.8963C124.316 31.6848 124.316 31.3463 124.38 30.881L124.359 30.9021Z" fill="#BEE4F8" stroke="#20378B" stroke-width="1.20569" stroke-linejoin="round"/>
<path d="M140.793 48.2701V11.9512" stroke="#20378B" stroke-width="1.20569" stroke-miterlimit="10" stroke-linecap="round"/>
<path d="M140.793 28.8359L149.973 20.248" stroke="#20378B" stroke-width="1.20569" stroke-miterlimit="10" stroke-linecap="round"/>
<path d="M140.789 33.8374L131.461 28.084" stroke="#20378B" stroke-width="1.20569" stroke-miterlimit="10" stroke-linecap="round"/>
<path d="M34.332 35.9003C34.332 33.362 35.136 31.014 36.511 29.068C37.336 27.9046 37.4201 26.4028 36.7861 25.1125C36.1511 23.8222 35.834 22.3838 35.834 20.8608C35.834 15.6785 39.9161 11.2787 45.0991 10.9615C46.5581 10.8769 47.954 10.0942 48.483 8.74039C49.816 5.39839 53.073 3.0293 56.881 3.0293C60.688 3.0293 63.9031 5.356 65.2361 8.6558C65.7861 10.0096 67.1181 10.898 68.5781 10.898C74.3101 10.898 78.308 15.9534 78.308 20.8397C78.308 22.3627 77.9701 23.801 77.3561 25.0913C76.7431 26.3816 76.806 27.8835 77.631 29.0468C79.006 30.9717 79.8101 33.3196 79.8101 35.8791C79.8101 40.5538 77.1021 44.5939 73.1891 46.5188C71.7721 47.2168 70.672 48.5071 70.566 50.0724C70.249 54.6629 66.0821 57.6239 62.3171 57.6239C61.3861 57.6239 60.477 57.4759 59.652 57.1799C57.981 56.6089 56.1831 56.6089 54.5121 57.1799C53.6651 57.4759 52.7771 57.6239 51.8461 57.6239C47.9331 57.6239 43.893 54.5149 43.597 50.009C43.491 48.486 42.4331 47.2168 41.0591 46.5611C37.0821 44.6362 34.3531 40.575 34.3531 35.8791L34.332 35.9003Z" fill="#BEE4F8" stroke="#20378B" stroke-width="1.20569" stroke-miterlimit="10" stroke-linecap="round"/>
<path d="M57.1372 65.4889V15.3574" stroke="#20378B" stroke-width="1.20569" stroke-miterlimit="10" stroke-linecap="round"/>
<path d="M57.1364 41.0198L48.5273 30.084" stroke="#20378B" stroke-width="1.20569" stroke-miterlimit="10" stroke-linecap="round"/>
<path d="M57.1372 49.3479L67.4172 38.4121" stroke="#20378B" stroke-width="1.20569" stroke-miterlimit="10" stroke-linecap="round"/>
<path d="M57.1372 30.0233L63.5882 23.1699" stroke="#20378B" stroke-width="1.20569" stroke-miterlimit="10" stroke-linecap="round"/>
<path d="M87.2361 73.709C64.7511 73.709 46.4961 91.943 46.4961 114.449C46.4961 136.934 64.7301 155.188 87.2361 155.188H132.481C139.757 155.188 146.78 157.938 152.132 162.888L167.192 176.87C172.544 181.819 179.545 184.569 186.843 184.569H225.594C256.202 184.569 281.014 159.757 281.014 129.15C281.014 98.542 256.202 73.73 225.594 73.73H87.2361V73.709Z" fill="white"/>
<mask id="mask1_112_33981" style="mask-type:luminance" maskUnits="userSpaceOnUse" x="46" y="73" width="236" height="112">
<path d="M87.2322 73.7009C64.7472 73.7009 46.4922 91.9349 46.4922 114.441C46.4922 136.926 64.7262 155.181 87.2322 155.181H132.477C139.754 155.181 146.776 157.93 152.128 162.88L167.188 176.862C172.54 181.812 179.541 184.561 186.839 184.561H225.59C256.198 184.561 281.01 159.75 281.01 129.142C281.01 98.5339 256.198 73.7219 225.59 73.7219H87.2322V73.7009Z" fill="white"/>
</mask>
<g mask="url(#mask1_112_33981)">
<path d="M281.014 131.554C278.01 111.65 264.388 95.2141 246.112 88.1711C241.649 86.4571 236.72 86.203 232.151 87.578C230.523 88.086 228.767 88.509 226.229 88.509C220.327 88.509 220.327 86.119 214.426 86.119C208.524 86.119 208.524 88.509 202.622 88.509C196.721 88.509 196.721 86.119 190.819 86.119C184.918 86.119 184.918 88.509 179.016 88.509C173.115 88.509 173.115 86.119 167.213 86.119C161.312 86.119 161.312 88.509 155.41 88.509C149.509 88.509 149.509 86.119 143.607 86.119C137.705 86.119 137.705 88.509 131.804 88.509C125.902 88.509 125.902 86.119 120.001 86.119C114.099 86.119 114.099 88.509 108.198 88.509C102.296 88.509 102.296 86.119 96.3953 86.119C90.4933 86.119 90.4933 88.509 84.5923 88.509C78.6903 88.509 75.2003 85.569 68.4523 89.101C57.8123 94.664 49.9233 104.796 47.4273 116.896L20.9653 95.024L75.6233 55.342L232.173 67.018L293.599 75.479L294.995 112.623L289.242 133.754L281.077 131.533L281.014 131.554Z" fill="#20378B" stroke="#20378B" stroke-width="1.20569" stroke-miterlimit="10"/>
</g>
<path d="M87.2361 73.709C64.7511 73.709 46.4961 91.943 46.4961 114.449C46.4961 136.934 64.7301 155.188 87.2361 155.188H132.481C139.757 155.188 146.78 157.938 152.132 162.888L167.192 176.87C172.544 181.819 179.545 184.569 186.843 184.569H225.594C256.202 184.569 281.014 159.757 281.014 129.15C281.014 98.542 256.202 73.73 225.594 73.73H87.2361V73.709Z" stroke="#20378B" stroke-width="1.20569" stroke-miterlimit="10"/>
<path d="M190.82 123.318C196.722 123.318 196.722 125.709 202.623 125.709C208.525 125.709 208.525 123.318 214.427 123.318C220.328 123.318 220.328 125.709 226.23 125.709C232.131 125.709 232.131 123.318 238.033 123.318" stroke="#20378B" stroke-width="1.20569" stroke-miterlimit="10" stroke-linecap="round"/>
<path d="M119.961 128.084C125.862 128.084 125.862 130.474 131.764 130.474C137.666 130.474 137.666 128.084 143.567 128.084C149.469 128.084 149.469 130.474 155.37 130.474C161.272 130.474 161.272 128.084 167.173 128.084C173.075 128.084 173.075 130.474 178.976 130.474C184.878 130.474 184.878 128.084 190.779 128.084C196.681 128.084 196.681 130.474 202.583 130.474C208.484 130.474 208.484 128.084 214.386 128.084" stroke="#20378B" stroke-width="1.20569" stroke-miterlimit="10" stroke-linecap="round"/>
<path d="M151.566 148.107C157.468 148.107 157.468 145.717 163.37 145.717C169.271 145.717 169.271 148.107 175.173 148.107C181.074 148.107 181.074 145.717 186.976 145.717C192.877 145.717 192.877 148.107 198.779 148.107C204.68 148.107 204.68 145.717 210.582 145.717C216.483 145.717 216.483 148.107 222.385 148.107" stroke="#20378B" stroke-width="1.20569" stroke-miterlimit="10" stroke-linecap="round"/>
<path d="M175.172 152.631C181.073 152.631 181.073 150.24 186.975 150.24C192.877 150.24 192.877 152.631 198.778 152.631C204.68 152.631 204.68 150.24 210.581 150.24C216.483 150.24 216.483 152.631 222.384 152.631C228.286 152.631 228.286 150.24 234.187 150.24C240.089 150.24 240.089 152.631 245.99 152.631" stroke="#20378B" stroke-width="1.20569" stroke-miterlimit="10" stroke-linecap="round"/>
<path d="M96.3359 132.561C102.237 132.561 102.237 134.951 108.139 134.951C114.041 134.951 114.041 132.561 119.942 132.561C125.844 132.561 125.844 134.951 131.745 134.951C137.647 134.951 137.647 132.561 143.548 132.561C149.45 132.561 149.45 134.951 155.351 134.951C161.253 134.951 161.253 132.561 167.154 132.561C173.056 132.561 173.056 134.951 178.958 134.951C184.859 134.951 184.859 132.561 190.761 132.561" stroke="#20378B" stroke-width="1.20569" stroke-miterlimit="10" stroke-linecap="round"/>
<path d="M59.5903 94.0409C57.9193 91.4179 57.8983 88.0969 59.4632 85.4109C60.5212 83.5919 61.1342 81.4759 61.1342 79.2129C61.1342 75.0459 59.0402 71.3439 55.8462 69.1229C53.4562 67.4519 52.0393 64.6809 52.2933 61.7619C52.3143 61.4449 52.3353 61.1279 52.3353 60.7889C52.3353 56.5589 49.9452 52.8569 46.4122 50.9959C44.0642 49.7687 42.6052 47.3361 42.6262 44.6921C42.6262 44.6921 42.6262 44.6498 42.6262 44.6286C42.6262 39.9539 39.3052 36.1465 35.2012 36.1465C31.0982 36.1465 27.7772 39.9539 27.7772 44.6286C27.7772 44.8401 27.7772 45.0517 27.7772 45.2632C27.9462 47.7592 26.6142 50.0648 24.4982 51.3759C21.3472 53.3219 19.2313 56.8129 19.2313 60.7889C19.2313 60.9159 19.2313 61.0429 19.2313 61.1489C19.3373 64.2369 17.7302 67.1559 15.1072 68.8059C11.6382 71.0059 9.37426 74.8769 9.37426 79.2129C9.37426 81.4759 9.98822 83.5919 11.0452 85.4109C12.6112 88.0969 12.5893 91.4179 10.9183 94.0409C9.62827 96.0719 8.93025 98.5039 9.01525 101.106C9.18425 105.336 11.5322 109.059 14.9592 111.132C15.0222 111.174 15.0642 111.196 15.1282 111.238C17.3702 112.549 18.9992 114.643 19.8452 117.097C22.0232 123.506 28.0943 127.145 35.2443 127.145C42.3933 127.145 48.4642 123.528 50.6432 117.097C51.4892 114.622 53.1602 112.528 55.4022 111.196C55.5292 111.132 55.6563 111.048 55.7623 110.963C59.0623 108.848 61.2833 105.231 61.4523 101.085C61.5573 98.4829 60.8382 96.0499 59.5482 94.0199L59.5903 94.0409Z" fill="#D1DBE0" stroke="#20378B" stroke-width="1.20569" stroke-miterlimit="10" stroke-linecap="round"/>
<path d="M35.2812 144.379V58.2249" stroke="#20378B" stroke-width="1.20569" stroke-miterlimit="10" stroke-linecap="round"/>
<path d="M35.2812 113.702L45.8152 100.334" stroke="#20378B" stroke-width="1.20569" stroke-miterlimit="10" stroke-linecap="round"/>
<path d="M35.2812 77.8779L43.2772 67.7249" stroke="#20378B" stroke-width="1.20569" stroke-miterlimit="10" stroke-linecap="round"/>
<path d="M35.2864 97.5789L23.6094 85.1619" stroke="#20378B" stroke-width="1.20569" stroke-miterlimit="10" stroke-linecap="round"/>
<path d="M134.349 39.9803C134.158 38.4361 134.497 36.892 135.301 35.5805C136.316 33.9306 136.887 32.0058 136.887 29.9328C136.887 25.11 133.714 21.0488 129.357 19.6527C128.045 19.2297 127.136 18.172 126.797 16.8394C125.846 13.0743 122.398 10.0918 118.104 10.0918C113.81 10.0918 110.383 12.9262 109.41 16.8606C109.093 18.172 108.162 19.2297 106.872 19.6315C102.493 21.0276 99.3203 25.0889 99.3203 29.9117C99.3203 31.9846 99.9133 33.9095 100.907 35.5594C101.711 36.8708 102.049 38.3938 101.859 39.9168C101.816 40.2341 101.795 40.5937 101.795 40.9744C101.795 46.4952 106.279 50.9799 111.8 50.9799C112.625 50.9799 113.429 50.8739 114.212 50.6839C116.75 50.0277 119.415 50.0277 121.975 50.6839C122.736 50.8739 123.561 50.9799 124.386 50.9799C129.907 50.9799 134.391 46.4952 134.391 40.9744C134.391 40.7629 134.391 40.4245 134.328 39.9591L134.349 39.9803Z" fill="#D1DBE0" stroke="#20378B" stroke-width="1.20569" stroke-linejoin="round"/>
<path d="M117.895 59.7599V21.0293" stroke="#20378B" stroke-width="1.20569" stroke-miterlimit="10" stroke-linecap="round"/>
<path d="M117.895 37.9297L108.715 29.3418" stroke="#20378B" stroke-width="1.20569" stroke-miterlimit="10" stroke-linecap="round"/>
<path d="M117.895 42.9156L127.244 37.1621" stroke="#20378B" stroke-width="1.20569" stroke-miterlimit="10" stroke-linecap="round"/>
<path d="M218.792 42.8965H199.332V46.9154H218.792V42.8965Z" fill="#E60032" stroke="#20378B" stroke-width="1.20569" stroke-linejoin="round"/>
<path d="M191.63 27.2244L188.605 46.8963H206.924L211.514 48.2077V26.7168L191.63 27.2244Z" fill="#E60032" stroke="#20378B" stroke-width="1.20569"/>
<path d="M222.645 30.4805C222.645 21.6811 215.516 14.5527 206.717 14.5527C197.917 14.5527 190.789 21.6811 190.789 30.4805C190.789 37.482 195.337 43.3624 201.619 45.4988V51.7809H213.232V44.97C218.774 42.474 222.645 36.9532 222.645 30.5017V30.4805Z" fill="white"/>
<path d="M222.645 30.4805C222.645 21.6811 215.516 14.5527 206.717 14.5527C197.917 14.5527 190.789 21.6811 190.789 30.4805C190.789 37.482 195.337 43.3624 201.619 45.4988V51.7809H213.232V44.97C218.774 42.474 222.645 36.9532 222.645 30.5017V30.4805Z" stroke="#20378B" stroke-width="1.20569"/>
<path d="M205.617 28.8106C206.236 28.8106 206.738 28.3087 206.738 27.6895C206.738 27.0704 206.236 26.5684 205.617 26.5684C204.998 26.5684 204.496 27.0704 204.496 27.6895C204.496 28.3087 204.998 28.8106 205.617 28.8106Z" fill="#20378B"/>
<path d="M198.402 27.7324C199.021 27.7324 199.523 27.2305 199.523 26.6113C199.523 25.9921 199.021 25.4902 198.402 25.4902C197.783 25.4902 197.281 25.9921 197.281 26.6113C197.281 27.2305 197.783 27.7324 198.402 27.7324Z" fill="#20378B"/>
<path d="M200.812 32.8116C199.861 32.6423 199.205 31.7327 199.353 30.7597C199.522 29.8078 200.432 29.1522 201.405 29.3002H201.595" stroke="#20378B" stroke-width="1.20569" stroke-miterlimit="10" stroke-linecap="round"/>
<path d="M203.283 35.5059C202.501 36.1828 201.443 36.2886 200.555 35.8867" stroke="#20378B" stroke-width="1.20569" stroke-linecap="round" stroke-linejoin="round"/>
<path d="M201.717 46.0527V48.4852C201.717 49.7121 200.787 50.7279 199.56 50.8329C195.901 51.1509 190.972 51.6159 187.503 52.2079C179 53.6679 164.299 57.5169 149.386 62.3829C144.31 64.0539 143.273 70.1029 147.102 73.0859L171.194 91.9109L176.398 85.5019L161.972 71.8379L180.396 67.8189C182.913 67.2689 185.113 69.1719 184.944 71.6679L183.442 96.2689L231.881 94.7039L230.168 72.7259C229.893 69.7009 231.712 67.0999 235.223 67.8399L248.422 70.6319L231.5 78.3099L234.081 86.1579L265.365 76.5759C272.367 74.4389 273.044 66.0419 266.444 63.8209C266.444 63.8209 251.595 58.5329 241.125 55.4019C234.271 53.0539 222.405 51.6369 215.34 50.9599C214.134 50.8329 213.224 49.8179 213.224 48.6122V46.0739" fill="white"/>
<path d="M201.717 46.0527V48.4852C201.717 49.7121 200.787 50.7279 199.56 50.8329C195.901 51.1509 190.972 51.6159 187.503 52.2079C179 53.6679 164.299 57.5169 149.386 62.3829C144.31 64.0539 143.273 70.1029 147.102 73.0859L171.194 91.9109L176.398 85.5019L161.972 71.8379L180.396 67.8189C182.913 67.2689 185.113 69.1719 184.944 71.6679L183.442 96.2689L231.881 94.7039L230.168 72.7259C229.893 69.7009 231.712 67.0999 235.223 67.8399L248.422 70.6319L231.5 78.3099L234.081 86.1579L265.365 76.5759C272.367 74.4389 273.044 66.0419 266.444 63.8209C266.444 63.8209 251.595 58.5329 241.125 55.4019C234.271 53.0539 222.405 51.6369 215.34 50.9599C214.134 50.8329 213.224 49.8179 213.224 48.6122V46.0739" stroke="#20378B" stroke-width="1.20569" stroke-linejoin="round"/>
<path d="M194.842 59.5059L185.578 72.4509L184.922 76.8299C192.748 79.1569 199.179 79.5369 207.872 76.8299L194.842 59.5059Z" fill="#E60032" stroke="#20378B" stroke-width="1.22684" stroke-linejoin="round"/>
<path d="M220.964 59.5059L207.934 76.8299C215.612 78.7119 222.127 79.1349 230.228 76.8299L229.573 71.7319L220.964 59.5269V59.5059Z" fill="#E60032" stroke="#20378B" stroke-width="1.22684" stroke-linejoin="round"/>
<path d="M220.961 59.5129V51.4749" stroke="#20378B" stroke-width="1.20569" stroke-linejoin="round"/>
<path d="M194.926 61.5238V50.8418" stroke="#20378B" stroke-width="1.20569" stroke-linejoin="round"/>
<path d="M252.587 68.7249L247.066 71.2209" stroke="#20378B" stroke-width="1.20569" stroke-linecap="round"/>
<path d="M158.992 69.0369L162.863 72.6969" stroke="#20378B" stroke-width="1.20569" stroke-linecap="round"/>
<path fill-rule="evenodd" clip-rule="evenodd" d="M198.777 44.2637C201.104 45.5963 203.812 46.3577 206.688 46.3577L198.777 44.2637Z" fill="white"/>
<path d="M198.777 44.2637C201.104 45.5963 203.812 46.3577 206.688 46.3577" stroke="#20378B" stroke-width="1.20569" stroke-linecap="round"/>
<path d="M171.193 80.5918L178.068 87.0648C178.639 87.5928 179.02 88.3128 179.147 89.0738L181.05 100.116L169.12 100.243L165.313 88.4178C165.059 87.6138 164.573 86.8948 163.917 86.3668L160.363 83.4468" fill="white"/>
<path d="M171.193 80.5918L178.068 87.0648C178.639 87.5928 179.02 88.3128 179.147 89.0738L181.05 100.116L169.12 100.243L165.313 88.4178C165.059 87.6138 164.573 86.8948 163.917 86.3668L160.363 83.4468" stroke="#20378B" stroke-width="1.20569" stroke-linecap="square" stroke-linejoin="round"/>
<path d="M176.27 90.803L177.877 99.75" stroke="#20378B" stroke-width="1.20569" stroke-linecap="round" stroke-linejoin="round"/>
<path d="M173.219 92.3579L174.594 99.7819" stroke="#20378B" stroke-width="1.20569" stroke-linecap="round" stroke-linejoin="round"/>
<path d="M170.113 93.4119L171.552 100.033" stroke="#20378B" stroke-width="1.20569" stroke-linecap="round" stroke-linejoin="round"/>
<path d="M181.937 93.4988C185.152 92.8858 186.082 91.3418 190.799 91.3418C196.701 91.3418 196.701 93.7318 202.603 93.7318C208.504 93.7318 208.504 91.3418 214.406 91.3418C220.307 91.3418 220.307 93.7318 226.209 93.7318C232.11 93.7318 232.11 91.3418 238.012 91.3418C241.65 91.3418 243.046 92.2508 244.95 92.9488V101.707H182.656C182.656 101.707 181.112 93.6478 181.915 93.4778L181.937 93.4988Z" fill="white"/>
<path d="M180.246 93.7108C184.942 93.3938 185.365 91.3418 190.822 91.3418C196.724 91.3418 196.724 93.7318 202.625 93.7318C208.527 93.7318 208.527 91.3418 214.429 91.3418C220.33 91.3418 220.33 93.7318 226.232 93.7318C232.133 93.7318 232.133 91.3418 238.035 91.3418C241.673 91.3418 243.069 92.2508 244.973 92.9488" stroke="#20378B" stroke-width="1.20569" stroke-miterlimit="10" stroke-linecap="round"/>
<path d="M230.085 85.9429L228.879 91.5909" stroke="#20378B" stroke-width="1.20569" stroke-linecap="round" stroke-linejoin="round"/>
<path d="M232.64 87.5449L231.582 91.8179" stroke="#20378B" stroke-width="1.20569" stroke-linecap="round" stroke-linejoin="round"/>
<path d="M137.662 98.1489C139.142 97.5569 140.623 96.9429 143.563 96.9429C149.465 96.9429 149.465 99.3339 155.366 99.3339C161.268 99.3339 161.268 96.9429 167.17 96.9429C173.071 96.9429 173.071 99.3339 178.973 99.3339C184.874 99.3339 184.874 96.9429 190.776 96.9429C196.677 96.9429 196.677 99.3339 202.579 99.3339V103.585H138.466L137.641 98.1279L137.662 98.1489Z" fill="white"/>
<path d="M137.664 98.1489C139.145 97.5569 140.625 96.9429 143.566 96.9429C149.467 96.9429 149.467 99.3339 155.369 99.3339C161.27 99.3339 161.27 96.9429 167.172 96.9429C173.073 96.9429 173.073 99.3339 178.975 99.3339C184.876 99.3339 184.876 96.9429 190.778 96.9429C196.68 96.9429 196.68 99.3339 202.581 99.3339" stroke="#20378B" stroke-width="1.20569" stroke-miterlimit="10" stroke-linecap="round"/>
<path d="M225.958 85.24L221.199 86.446C219.908 86.763 218.555 86.34 217.708 85.325L217.18 84.69L232.833 77.647" fill="white"/>
<path d="M225.958 85.24L221.199 86.446C219.908 86.763 218.555 86.34 217.708 85.325L217.18 84.69L232.833 77.647" stroke="#20378B" stroke-width="1.20569" stroke-linejoin="round"/>
<path d="M235.749 76.3579L227.14 80.1859C225.976 80.7149 225.151 81.7729 224.919 83.0419L223.227 92.8779L235.326 93.0049L238.351 84.7969L243.491 83.1899" fill="white"/>
<path d="M235.749 76.3579L227.14 80.1859C225.976 80.7149 225.151 81.7729 224.919 83.0419L223.227 92.8779L235.326 93.0049L238.351 84.7969L243.491 83.1899" stroke="#20378B" stroke-width="1.20569" stroke-linecap="square" stroke-linejoin="round"/>
<path d="M224.769 83.9119L222.866 95.0379C222.802 95.4609 222.908 95.8839 223.183 96.2019C223.458 96.5189 223.86 96.7089 224.283 96.7089C225.023 96.7089 225.658 96.1809 225.785 95.4399L227.731 84.6309" fill="white"/>
<path d="M224.769 83.9119L222.866 95.0379C222.802 95.4609 222.908 95.8839 223.183 96.2019C223.458 96.5189 223.86 96.7089 224.283 96.7089C225.023 96.7089 225.658 96.1809 225.785 95.4399L227.731 84.6309" stroke="#20378B" stroke-width="1.20569" stroke-linecap="round" stroke-linejoin="round"/>
<path d="M230.824 86.3148L228.645 97.5468C228.497 98.2878 227.863 98.8158 227.101 98.8158C226.636 98.8158 226.192 98.6048 225.874 98.2448C225.557 97.8858 225.451 97.3988 225.536 96.9338L227.757 84.6228" fill="white"/>
<path d="M230.824 86.3148L228.645 97.5468C228.497 98.2878 227.863 98.8158 227.101 98.8158C226.636 98.8158 226.192 98.6048 225.874 98.2448C225.557 97.8858 225.451 97.3988 225.536 96.9338L227.757 84.6228" stroke="#20378B" stroke-width="1.20569" stroke-linecap="round" stroke-linejoin="round"/>
<path d="M233.62 88.0978L231.737 96.0088C231.589 96.6848 230.976 97.1508 230.299 97.1508C229.918 97.1508 229.537 96.9818 229.283 96.6848C229.03 96.3888 228.945 95.9868 229.008 95.6068L230.806 86.3418" fill="white"/>
<path d="M233.62 88.0978L231.737 96.0088C231.589 96.6848 230.976 97.1508 230.299 97.1508C229.918 97.1508 229.537 96.9818 229.283 96.6848C229.03 96.3888 228.945 95.9868 229.008 95.6068L230.806 86.3418" stroke="#20378B" stroke-width="1.20569" stroke-linecap="round" stroke-linejoin="round"/>
<path d="M238.162 85.334L234.841 94.387C234.629 95.001 234.037 95.382 233.381 95.36C233.022 95.36 232.683 95.17 232.45 94.874C232.218 94.578 232.154 94.197 232.239 93.859L233.593 88.105" fill="white"/>
<path d="M238.162 85.334L234.841 94.387C234.629 95.001 234.037 95.382 233.381 95.36C233.022 95.36 232.683 95.17 232.45 94.874C232.218 94.578 232.154 94.197 232.239 93.859L233.593 88.105" stroke="#20378B" stroke-width="1.20569" stroke-linecap="round" stroke-linejoin="round"/>
<path d="M143.566 101.74C149.468 101.74 149.468 104.131 155.369 104.131C161.271 104.131 161.271 101.74 167.173 101.74C173.074 101.74 173.074 104.131 178.976 104.131C184.877 104.131 184.877 101.74 190.779 101.74C196.68 101.74 196.68 104.131 202.582 104.131C208.483 104.131 208.483 101.74 214.385 101.74C220.286 101.74 220.286 104.131 226.188 104.131" stroke="#20378B" stroke-width="1.20569" stroke-miterlimit="10" stroke-linecap="round"/>
<path d="M118.65 149.84C118.459 148.296 118.798 146.751 119.601 145.44C120.617 143.79 121.188 141.865 121.188 139.792C121.188 134.97 118.015 130.908 113.658 129.512C112.346 129.089 111.437 128.032 111.098 126.699C110.146 122.934 106.698 119.951 102.405 119.951C98.1112 119.951 94.6841 122.786 93.7111 126.72C93.3941 128.032 92.4631 129.089 91.1731 129.491C86.7941 130.887 83.6211 134.948 83.6211 139.771C83.6211 141.844 84.2131 143.769 85.2081 145.419C86.0111 146.73 86.3501 148.253 86.1591 149.776C86.1171 150.094 86.0961 150.453 86.0961 150.834C86.0961 156.355 90.5801 160.839 96.1011 160.839C96.9261 160.839 97.7301 160.733 98.5121 160.543C101.051 159.887 103.716 159.887 106.275 160.543C107.037 160.733 107.862 160.839 108.687 160.839C114.208 160.839 118.692 156.355 118.692 150.834C118.692 150.622 118.692 150.284 118.628 149.819L118.65 149.84Z" fill="white" stroke="#20378B" stroke-width="1.20569" stroke-linejoin="round"/>
<path d="M102.195 169.619V130.889" stroke="#20378B" stroke-width="1.20569" stroke-miterlimit="10" stroke-linecap="round"/>
<path d="M102.196 147.774L93.0161 139.186" stroke="#20378B" stroke-width="1.20569" stroke-miterlimit="10" stroke-linecap="round"/>
<path d="M102.195 152.781L111.545 147.006" stroke="#20378B" stroke-width="1.20569" stroke-miterlimit="10" stroke-linecap="round"/>
<path d="M275.708 178.308C275.518 176.764 275.856 175.22 276.66 173.909C277.675 172.259 278.247 170.334 278.247 168.261C278.247 163.438 275.074 159.377 270.716 157.981C269.405 157.558 268.495 156.5 268.157 155.168C267.205 151.403 263.757 148.42 259.463 148.42C255.169 148.42 251.742 151.254 250.769 155.189C250.452 156.5 249.521 157.558 248.231 157.96C243.853 159.356 240.68 163.417 240.68 168.24C240.68 170.313 241.272 172.238 242.266 173.888C243.07 175.199 243.408 176.722 243.218 178.245C243.176 178.562 243.155 178.922 243.155 179.303C243.155 184.823 247.639 189.308 253.16 189.308C253.985 189.308 254.788 189.202 255.571 189.012C258.109 188.356 260.775 188.356 263.334 189.012C264.095 189.202 264.92 189.308 265.745 189.308C271.266 189.308 275.751 184.823 275.751 179.303C275.751 179.091 275.751 178.753 275.687 178.287L275.708 178.308Z" fill="#D1DBE0" stroke="#20378B" stroke-width="1.20569" stroke-linejoin="round"/>
<path d="M259.254 198.088V159.358" stroke="#20378B" stroke-width="1.20569" stroke-miterlimit="10" stroke-linecap="round"/>
<path d="M259.254 176.242L250.074 167.654" stroke="#20378B" stroke-width="1.20569" stroke-miterlimit="10" stroke-linecap="round"/>
<path d="M259.254 181.244L268.603 175.49" stroke="#20378B" stroke-width="1.20569" stroke-miterlimit="10" stroke-linecap="round"/>
<path d="M222.108 26.4404H222.087C220.31 19.6082 214.112 14.5527 206.709 14.5527C199.708 14.5527 193.785 19.0582 191.648 25.3405C196.535 25.1078 200.892 22.8656 203.917 19.4178C205.673 23.606 209.036 26.9269 213.203 28.7037L211.511 48.2909H227.608L222.108 26.4827V26.4404Z" fill="#E60032" stroke="#20378B" stroke-width="1.20569" stroke-linejoin="round"/>
<path d="M217.328 35.0527C218.745 35.2854 220.078 34.3336 220.311 32.9375C220.543 31.5415 219.591 30.1877 218.195 29.955C217.984 29.9127 217.793 29.9127 217.603 29.9339L217.349 35.0739L217.328 35.0527Z" fill="white" stroke="#20378B" stroke-width="1.20569" stroke-linecap="round"/>
<path d="M203.918 19.3965C206.287 25.023 211.533 29.1055 217.794 29.9304L203.918 19.3965Z" fill="#E60032"/>
<path d="M203.918 19.3965C206.287 25.023 211.533 29.1055 217.794 29.9304" stroke="#20378B" stroke-width="1.20569" stroke-linecap="round" stroke-linejoin="round"/>
<path d="M245.484 177.321C243.961 175.629 243.136 173.429 243.136 171.144C243.136 166.935 239.731 163.529 235.521 163.529C231.312 163.529 227.906 166.935 227.906 171.144C227.906 173.429 227.06 175.607 225.559 177.3C223.464 179.648 222.195 182.715 222.195 186.099C222.195 193.46 228.16 199.446 235.543 199.446C242.925 199.446 248.89 193.481 248.89 186.099C248.89 182.715 247.621 179.648 245.527 177.3L245.484 177.321Z" fill="white" stroke="#20378B" stroke-width="1.20569" stroke-linejoin="round"/>
<path d="M235.505 206.864V190.45L231.062 178.139" stroke="#20378B" stroke-width="1.20569" stroke-miterlimit="10" stroke-linecap="round"/>
<path d="M235.5 190.458L241.761 182.568" stroke="#20378B" stroke-width="1.20569" stroke-miterlimit="10" stroke-linecap="round"/>
<path d="M64.644 124.704C63.121 123.011 62.296 120.812 62.296 118.527C62.296 114.318 58.891 110.912 54.682 110.912C50.472 110.912 47.067 114.318 47.067 118.527C47.067 120.812 46.221 122.99 44.719 124.704C42.625 127.052 41.355 130.119 41.355 133.503C41.355 140.864 47.32 146.85 54.703 146.85C62.085 146.85 68.05 140.885 68.05 133.503C68.05 130.119 66.781 127.052 64.687 124.704H64.644Z" fill="white" stroke="#20378B" stroke-width="1.20569" stroke-linejoin="round"/>
<path d="M54.6651 154.231V137.817L50.2231 125.506" stroke="#20378B" stroke-width="1.20569" stroke-miterlimit="10" stroke-linecap="round"/>
<path d="M54.6602 137.825L60.9212 129.936" stroke="#20378B" stroke-width="1.20569" stroke-miterlimit="10" stroke-linecap="round"/>
<path d="M109.13 59.4409C106.105 59.4409 103.651 61.8949 103.651 64.9199V70.6729H107.057V64.9199C107.057 63.7769 107.988 62.8469 109.13 62.8469C110.272 62.8469 111.203 63.7769 111.203 64.9199V76.2789H93.2661V64.9199C93.2661 61.8949 90.812 59.4409 87.787 59.4409C84.762 59.4409 82.3091 61.8949 82.3091 64.9199V70.6729H85.7141V64.9199C85.7141 63.7769 86.645 62.8469 87.787 62.8469C88.929 62.8469 89.86 63.7769 89.86 64.9199V95.2949C89.86 96.2459 90.6221 94.0039 91.5731 94.0039C92.5251 94.0039 93.287 94.4489 93.287 93.4969V89.1389H111.224V94.8499C111.224 95.8019 111.986 95.3579 112.937 95.3579C113.889 95.3579 114.651 94.5969 114.651 93.6449V64.8979C114.651 61.8739 112.197 59.4199 109.172 59.4199L109.13 59.4409ZM111.203 85.7339H93.2661V79.6839H111.203V85.7339Z" fill="white" stroke="#20378B" stroke-width="1.20569" stroke-linejoin="round"/>
<path d="M79.2472 95.2989C80.0512 95.4469 80.9812 95.5519 82.1452 95.5519C88.0462 95.5519 88.0462 93.1619 93.9482 93.1619C99.8502 93.1619 99.8502 95.5519 105.751 95.5519C111.653 95.5519 111.653 93.1619 117.554 93.1619C123.456 93.1619 123.456 95.5519 129.357 95.5519V99.9519L78.9302 98.7459L79.2472 95.3199V95.2989Z" fill="white"/>
<path d="M79.2422 95.2989C80.0462 95.4469 80.9772 95.5519 82.1402 95.5519C88.0422 95.5519 88.0422 93.1619 93.9432 93.1619C99.8452 93.1619 99.8452 95.5519 105.746 95.5519C111.648 95.5519 111.648 93.1619 117.549 93.1619C123.451 93.1619 123.451 95.5519 129.352 95.5519" stroke="#20378B" stroke-width="1.20569" stroke-miterlimit="10" stroke-linecap="round"/>
</g>
</svg>
