<svg width="48" height="49" viewBox="0 0 48 49" fill="none" xmlns="http://www.w3.org/2000/svg">
<path d="M33.2369 36.0336H10.0582L13.8475 5.17578H37.0261L33.2369 36.0336Z" fill="#20378B" stroke="#20378B" stroke-width="0.57" stroke-linejoin="round"/>
<path d="M32.9246 38.5632L32.1687 44.7106" stroke="#20378B" stroke-width="0.57" stroke-linecap="round" stroke-linejoin="round"/>
<path d="M10.0583 36.0337L9.00019 44.7106" stroke="#20378B" stroke-width="0.57" stroke-linecap="round" stroke-linejoin="round"/>
<path d="M17.949 38.5631H41.1277L37.0261 5.17578H13.8474L17.949 38.5631Z" fill="#BEE4F8" stroke="#20378B" stroke-width="0.57" stroke-linejoin="round"/>
<path d="M17.949 38.5632L18.7048 44.7106" stroke="#20378B" stroke-width="0.57" stroke-linecap="round" stroke-linejoin="round"/>
<path d="M41.1277 38.5632L41.8835 44.7106" stroke="#20378B" stroke-width="0.57" stroke-linecap="round" stroke-linejoin="round"/>
<path d="M33.2033 18C30.8046 18 28.9181 19.4015 27.867 20.4121C26.762 19.4284 24.7946 18 22.6115 18C20.4285 18 18.5554 19.8192 18.5554 22.0561C18.5554 24.293 20.3746 26.1122 22.6115 26.1122C25.0102 26.1122 26.8967 24.7108 27.9478 23.7001C29.0528 24.6973 31.0202 26.1122 33.2033 26.1122C35.3863 26.1122 37.2594 24.293 37.2594 22.0561C37.2594 19.8192 35.4402 18 33.2033 18ZM20.7654 22.0561C20.7654 21.0455 21.5874 20.21 22.6115 20.21C24.0265 20.21 25.5222 21.2611 26.4386 22.0831C25.6705 22.8242 24.269 23.8888 22.6115 23.8888C21.6009 23.8888 20.7654 23.0668 20.7654 22.0426M33.2033 23.8888C31.7883 23.8888 30.2926 22.8377 29.3762 22.0157C30.1443 21.2745 31.5458 20.21 33.2033 20.21C34.2139 20.21 35.0494 21.032 35.0494 22.0561C35.0494 23.0803 34.2274 23.9023 33.2033 23.9023" fill="white"/>
<path d="M33.2033 18C30.8046 18 28.9181 19.4015 27.867 20.4121C26.762 19.4284 24.7946 18 22.6115 18C20.4285 18 18.5554 19.8192 18.5554 22.0561C18.5554 24.2931 20.3746 26.1122 22.6115 26.1122C25.0102 26.1122 26.8967 24.7108 27.9478 23.7001C29.0528 24.6973 31.0202 26.1122 33.2033 26.1122C35.3863 26.1122 37.2594 24.2931 37.2594 22.0561C37.2594 19.8192 35.4402 18 33.2033 18ZM20.7654 22.0561C20.7654 21.0455 21.5874 20.21 22.6115 20.21C24.0265 20.21 25.5222 21.2611 26.4386 22.0831C25.6705 22.8242 24.269 23.8888 22.6115 23.8888C21.6009 23.8888 20.7654 23.0668 20.7654 22.0426V22.0561ZM33.2033 23.9023C31.7883 23.9023 30.2926 22.8512 29.3762 22.0292C30.1443 21.288 31.5458 20.2235 33.2033 20.2235C34.2139 20.2235 35.0494 21.0455 35.0494 22.0696C35.0494 23.0937 34.2274 23.9157 33.2033 23.9157V23.9023Z" stroke="#20378B" stroke-width="0.57" stroke-linejoin="round"/>
<path d="M28.8109 19.5996C27.4229 20.6372 26.9782 21.4592 26.3583 22.106C26.1427 22.3351 25.8597 22.5777 25.5498 22.8202C25.7789 23.5749 26.3449 24.1813 27.0725 24.4643C28.4066 23.4536 28.8648 22.6451 29.4577 22.0117C29.7137 21.7422 30.0506 21.4458 30.4414 21.1762C30.1719 20.4351 29.5655 19.8556 28.8109 19.6131" fill="white"/>
<path d="M33.2037 20.2212C31.4924 20.2212 30.1852 21.2723 29.4576 22.0134C28.8242 22.6737 28.3795 23.5227 26.8972 24.6007" stroke="#20378B" stroke-width="0.57" stroke-miterlimit="10" stroke-linecap="round"/>
<path d="M22.5981 23.9005C24.3095 23.9005 25.6167 22.8629 26.3443 22.1083C26.9777 21.448 27.4224 20.599 28.9047 19.521" stroke="#20378B" stroke-width="0.57" stroke-miterlimit="10" stroke-linecap="round"/>
</svg>
