<?xml version="1.0" encoding="UTF-8"?>
<svg id="SPORT" xmlns="http://www.w3.org/2000/svg" xmlns:xlink="http://www.w3.org/1999/xlink" viewBox="0 0 82.92 46.46">
  <defs>
    <style>
      .cls-1, .cls-2, .cls-3, .cls-4, .cls-5, .cls-6, .cls-7 {
        stroke: #1e3791;
        stroke-width: .57px;
      }

      .cls-1, .cls-2, .cls-5, .cls-6 {
        stroke-miterlimit: 10;
      }

      .cls-1, .cls-8, .cls-5 {
        fill: #e1e1e1;
      }

      .cls-2 {
        fill: #1e3791;
      }

      .cls-9 {
        clip-path: url(#clippath);
      }

      .cls-3, .cls-4, .cls-5, .cls-6, .cls-7 {
        stroke-linecap: round;
      }

      .cls-3, .cls-4, .cls-6, .cls-7 {
        fill: none;
      }

      .cls-3, .cls-4, .cls-7 {
        stroke-linejoin: round;
      }

      .cls-10 {
        clip-path: url(#clippath-1);
      }

      .cls-4 {
        stroke-dasharray: 0 0 0 1.15;
      }

      .cls-7 {
        stroke-dasharray: 0 0 0 1.11;
      }
    </style>
    <clipPath id="clippath">
      <circle class="cls-5" cx="32.78" cy="18.3" r="12.34"/>
    </clipPath>
    <clipPath id="clippath-1">
      <circle class="cls-5" cx="47.41" cy="21.22" r="5.33"/>
    </clipPath>
    <symbol id="Neues_Symbol_10" data-name="Neues Symbol 10" viewBox="0 0 82.92 46.46">
      <g>
        <rect class="cls-2" x=".28" y="16.41" width="82.36" height="11.34"/>
        <path class="cls-2" d="m82.07,29.87c.76-1.32.76-2.94,0-4.25s-2.16-2.13-3.68-2.13H4.54c-1.52,0-2.92.81-3.68,2.13s-.76,2.94,0,4.25l6.96,12.05c1.52,2.63,4.33,4.25,7.36,4.25h52.58c3.04,0,5.85-1.62,7.36-4.25l6.96-12.05Z"/>
        <path class="cls-1" d="m82.07,18.53c.76-1.32.76-2.94,0-4.25s-2.16-2.13-3.68-2.13H4.54c-1.52,0-2.92.81-3.68,2.13s-.76,2.94,0,4.25l6.96,12.05c1.52,2.63,4.33,4.25,7.36,4.25h52.58c3.04,0,5.85-1.62,7.36-4.25l6.96-12.05Z"/>
        <g>
          <circle class="cls-8" cx="32.78" cy="18.3" r="12.34"/>
          <g class="cls-9">
            <circle class="cls-6" cx="17.17" cy="12.62" r="12.34"/>
            <circle class="cls-6" cx="48.38" cy="23.98" r="12.34"/>
            <line class="cls-5" x1="28.56" y1="29.9" x2="37" y2="6.71"/>
            <line class="cls-5" x1="21.18" y1="14.08" x2="44.37" y2="22.52"/>
          </g>
          <circle class="cls-6" cx="32.78" cy="18.3" r="12.34"/>
        </g>
        <g>
          <path class="cls-5" d="m24.75,25.04c.56-3.94-2.17-7.59-6.11-8.15-3.94-.56-7.59,2.18-8.15,6.12-.56,3.94,2.18,7.59,6.12,8.15,3.94.57,7.59-2.17,8.15-6.11Z"/>
          <path class="cls-5" d="m24.75,25.04c.56-3.94-2.17-7.59-6.11-8.15-3.94-.56-7.59,2.18-8.15,6.12-.56,3.94,2.18,7.59,6.12,8.15,3.94.57,7.59-2.17,8.15-6.11Z"/>
          <path class="cls-6" d="m24.49,21.85c-.66-2.08-4.27-2.8-8.06-1.6-3.79,1.2-6.33,3.87-5.68,5.96"/>
          <path class="cls-6" d="m17.62,16.82c-2.01,0-3.63,3.23-3.63,7.21s1.62,7.21,3.63,7.21"/>
          <path class="cls-6" d="m24.11,27.15c.32-.66-2.33-2.6-5.92-4.33-3.59-1.72-6.75-2.58-7.07-1.92"/>
          <path class="cls-5" d="m12.94,22.46c-.49-.52-.28-1.5.45-2.18.73-.69,1.72-.82,2.21-.31.48.52.28,1.5-.45,2.18-.73.69-1.72.82-2.21.31Z"/>
        </g>
        <g>
          <circle class="cls-8" cx="47.41" cy="21.22" r="5.33"/>
          <g class="cls-10">
            <path class="cls-5" d="m52.88,23.24c.64.14,1.33.13,2.01-.07,2.09-.62,3.31-2.83,2.71-4.93s-2.86-3.38-5-2.74c-.68.21-1.27.58-1.73,1.06-.76.79-1.83,1.19-2.92,1.12-.44-.03-.89.02-1.34.17-1.7.57-2.7,2.37-2.27,4.11.47,1.95,2.48,3.08,4.38,2.51.42-.13.79-.32,1.12-.57.86-.66,1.99-.9,3.05-.66Z"/>
          </g>
          <circle class="cls-6" cx="47.41" cy="21.22" r="5.33"/>
        </g>
        <g>
          <line class="cls-3" x1="75.56" y1="15.79" x2="75.56" y2="15.79"/>
          <path class="cls-7" d="m74.45,15.66c-2.99-.22-5.97.68-8.34,2.54-2.52,1.98-4.15,4.88-4.53,8.05"/>
          <line class="cls-3" x1="61.53" y1="26.81" x2="61.53" y2="26.81"/>
          <path class="cls-4" d="m61.07,25.75c-1.03-2.04-2.77-3.66-4.9-4.54-1.29-.53-2.67-.77-4.04-.72"/>
          <line class="cls-3" x1="51.56" y1="20.53" x2="51.56" y2="20.53"/>
        </g>
      </g>
    </symbol>
  </defs>
  <use width="82.92" height="46.46" xlink:href="#Neues_Symbol_10"/>
</svg>