<?xml version="1.0" encoding="UTF-8"?>
<svg id="VERKEHR_Kopie_Kopie" data-name="VERKEHR Kopie Kopie" xmlns="http://www.w3.org/2000/svg" xmlns:xlink="http://www.w3.org/1999/xlink" viewBox="0 0 144.72 136.83">
  <defs>
    <style>
      .cls-1, .cls-2, .cls-3, .cls-4, .cls-5, .cls-6, .cls-7 {
        fill: none;
      }

      .cls-8, .cls-9, .cls-10, .cls-11, .cls-12, .cls-13, .cls-14, .cls-15, .cls-16, .cls-17, .cls-18, .cls-19, .cls-20, .cls-21, .cls-22, .cls-2, .cls-3, .cls-5, .cls-6, .cls-7, .cls-23, .cls-24, .cls-25, .cls-26 {
        stroke: #1e3791;
      }

      .cls-8, .cls-9, .cls-11, .cls-13, .cls-14, .cls-20, .cls-21, .cls-22, .cls-3, .cls-6, .cls-7, .cls-25, .cls-26 {
        stroke-miterlimit: 10;
      }

      .cls-8, .cls-9, .cls-3, .cls-25, .cls-26 {
        stroke-width: .62px;
      }

      .cls-8, .cls-12, .cls-14, .cls-19, .cls-21 {
        fill: #1e3791;
      }

      .cls-9, .cls-10, .cls-27, .cls-24 {
        fill: #e1e1e1;
      }

      .cls-10, .cls-11, .cls-12, .cls-13, .cls-14, .cls-15, .cls-16, .cls-17, .cls-18, .cls-19, .cls-2, .cls-4, .cls-5, .cls-7, .cls-23, .cls-24 {
        stroke-width: .57px;
      }

      .cls-10, .cls-12, .cls-15, .cls-16, .cls-17, .cls-18, .cls-19, .cls-2, .cls-4, .cls-5 {
        stroke-linejoin: round;
      }

      .cls-10, .cls-12, .cls-15, .cls-16, .cls-2 {
        stroke-linecap: round;
      }

      .cls-11, .cls-16, .cls-18, .cls-20, .cls-23, .cls-25 {
        fill: #fff;
      }

      .cls-13, .cls-15, .cls-17, .cls-28, .cls-22 {
        fill: #b6e6fa;
      }

      .cls-29 {
        clip-path: url(#clippath);
      }

      .cls-20, .cls-21, .cls-22, .cls-6 {
        stroke-width: .51px;
      }

      .cls-30, .cls-26 {
        fill: #e60032;
      }

      .cls-31 {
        clip-path: url(#clippath-1);
      }

      .cls-32 {
        clip-path: url(#clippath-4);
      }

      .cls-33 {
        clip-path: url(#clippath-2);
      }

      .cls-34 {
        clip-path: url(#clippath-6);
      }

      .cls-35 {
        clip-path: url(#clippath-5);
      }

      .cls-4 {
        stroke: #b6e6fa;
      }
    </style>
    <clipPath id="clippath">
      <path class="cls-17" d="m113.62,21.46c0-3.03-2.46-5.5-5.49-5.5s-5.49,2.46-5.49,5.5,2.46,5.49,5.49,5.49,5.49-2.46,5.49-5.49Z"/>
    </clipPath>
    <clipPath id="clippath-1">
      <path class="cls-22" d="m116.85,71.39h-29.61c-1.52,0-2.75-1.23-2.75-2.75v-15.31c0-3.82,3.09-6.91,6.91-6.91h18.55c3.82,0,7.05,2.82,7.57,6.61l2.06,15.24c.22,1.65-1.06,3.12-2.73,3.12Z"/>
    </clipPath>
    <clipPath id="clippath-2">
      <path class="cls-22" d="m110.08,71.39h-29.61c-1.52,0-2.75-1.23-2.75-2.75v-15.31c0-3.82,3.09-6.91,6.91-6.91h18.55c3.82,0,7.05,2.82,7.57,6.61l2.06,15.24c.22,1.65-1.06,3.12-2.73,3.12Z"/>
    </clipPath>
    <clipPath id="clippath-4">
      <path class="cls-26" d="m104.25,79.45l-16.89-2.35-7.2-18.26c-1.19-3.02-4.11-5.01-7.36-5.01h-32.11l-7.81,26.88v12.74h60.92-.09,9.35c2.6,0,4.71-2.11,4.71-4.71v-5.24c0-2.04-1.5-3.76-3.52-4.05Z"/>
    </clipPath>
    <clipPath id="clippath-5">
      <rect class="cls-9" x="51.21" y="57.98" width="36.71" height="19.04"/>
    </clipPath>
    <clipPath id="clippath-6">
      <path class="cls-26" d="m81.85,79.45l-16.89-2.35-7.2-18.26c-1.19-3.02-1.65-5.01-4.9-5.01h-25.91c-3.73,0-7.07,2.3-8.4,5.78l-6.83,17.88c-.81,2.11-1.06,4.39-.75,6.62l1.31,9.33h59.13l-.09-.24h9.35c2.6,0,4.71-2.11,4.71-4.71v-5c0-2.04-1.5-3.76-3.52-4.05Z"/>
    </clipPath>
    <symbol id="Neues_Symbol" data-name="Neues Symbol" viewBox="0 0 144.72 136.83">
      <g>
        <path class="cls-14" d="m144.44,71.35c0-2.49-.65-4.93-1.9-7.09l-8.18-14.17c-2.53-4.39-7.21-7.09-12.27-7.09H36.92c-3.76,0-7.36,1.49-10.02,4.15l-20.04,20.04c-2.66,2.66-4.15,6.26-4.15,10.02v33.81c0,4.7,3.81,8.5,8.5,8.5h43.54c2.49,0,4.93.65,7.09,1.9l22.88,13.21c2.15,1.24,4.6,1.9,7.09,1.9h44.13c4.7,0,8.5-3.81,8.5-8.5v-56.69Z"/>
        <path class="cls-13" d="m144.44,60.01c0-2.49-.65-4.93-1.9-7.09l-9.82-17.01c-1.52-2.63-4.33-4.25-7.36-4.25H36.92c-3.76,0-7.36,1.49-10.02,4.15L6.85,55.86c-2.66,2.66-4.15,6.26-4.15,10.02v33.81c0,4.7,3.81,8.5,8.5,8.5h43.54c2.49,0,4.93.65,7.09,1.9l22.88,13.21c2.15,1.24,4.6,1.9,7.09,1.9h44.13c4.7,0,8.5-3.81,8.5-8.5v-56.69Z"/>
        <g>
          <line class="cls-16" x1="108.12" y1=".28" x2="108.12" y2="14.35"/>
          <g>
            <path class="cls-28" d="m113.62,21.46c0-3.03-2.46-5.5-5.49-5.5s-5.49,2.46-5.49,5.5,2.46,5.49,5.49,5.49,5.49-2.46,5.49-5.49Z"/>
            <g class="cls-29">
              <rect class="cls-19" x="100.04" y="22.16" width="17.71" height="2.87"/>
              <line class="cls-4" x1="101.83" y1="23.59" x2="115.96" y2="23.59"/>
            </g>
            <path class="cls-5" d="m113.62,21.46c0-3.03-2.46-5.5-5.49-5.5s-5.49,2.46-5.49,5.5,2.46,5.49,5.49,5.49,5.49-2.46,5.49-5.49Z"/>
          </g>
          <polygon class="cls-17" points="110.18 61.23 106.07 61.23 106.85 26.76 109.39 26.76 110.18 61.23"/>
          <rect class="cls-17" x="106.15" y="28.68" width="3.94" height="1.34"/>
          <rect class="cls-17" x="107.03" y="12.01" width="2.19" height="4.01"/>
        </g>
        <line class="cls-2" x1="78.52" y1="66.11" x2="143.78" y2="66.11"/>
        <g>
          <circle class="cls-21" cx="114" cy="69.37" r="3.89"/>
          <circle class="cls-21" cx="88.59" cy="69.37" r="3.89"/>
          <g>
            <path class="cls-28" d="m116.85,71.39h-29.61c-1.52,0-2.75-1.23-2.75-2.75v-15.31c0-3.82,3.09-6.91,6.91-6.91h18.55c3.82,0,7.05,2.82,7.57,6.61l2.06,15.24c.22,1.65-1.06,3.12-2.73,3.12Z"/>
            <g class="cls-31">
              <path class="cls-21" d="m94.63,72.34h-12.26l.87-4.92c.17-.97,1.02-1.68,2.01-1.68h6.5c.99,0,1.84.71,2.01,1.68l.87,4.92Z"/>
              <rect class="cls-20" x="75.71" y="36.32" width="43.89" height="7.4"/>
              <path class="cls-6" d="m122.27,68.86h-2.72c-.66,0-1.27-.53-1.38-1.19l-.12-.74c-.1-.66.35-1.19,1-1.19h2.72c.66,0,1.27.53,1.38,1.19l.12.74c.1.66-.35,1.19-1,1.19Z"/>
              <path class="cls-6" d="m113.33,68.86h-2.72c-.66,0-1.27-.53-1.38-1.19l-.12-.74c-.1-.66.35-1.19,1-1.19h2.72c.66,0,1.27.53,1.38,1.19l.12.74c.1.66-.35,1.19-1,1.19Z"/>
              <rect class="cls-24" x="74.17" y="43.46" width="46.79" height="18.3"/>
            </g>
            <path class="cls-6" d="m116.85,71.39h-29.61c-1.52,0-2.75-1.23-2.75-2.75v-15.31c0-3.82,3.09-6.91,6.91-6.91h18.55c3.82,0,7.05,2.82,7.57,6.61l2.06,15.24c.22,1.65-1.06,3.12-2.73,3.12Z"/>
          </g>
          <g>
            <path class="cls-28" d="m110.08,71.39h-29.61c-1.52,0-2.75-1.23-2.75-2.75v-15.31c0-3.82,3.09-6.91,6.91-6.91h18.55c3.82,0,7.05,2.82,7.57,6.61l2.06,15.24c.22,1.65-1.06,3.12-2.73,3.12Z"/>
            <g class="cls-33">
              <rect class="cls-23" x="74.17" y="43.46" width="46.79" height="18.3"/>
              <path class="cls-21" d="m87.85,72.34h-12.26l.87-4.92c.17-.97,1.02-1.68,2.01-1.68h6.5c.99,0,1.84.71,2.01,1.68l.87,4.92Z"/>
              <path class="cls-21" d="m114.59,72.34h-12.26l.87-4.92c.17-.97,1.02-1.68,2.01-1.68h7.55c.99,0,.79.71.96,1.68l.87,4.92Z"/>
              <rect class="cls-20" x="68.94" y="36.32" width="43.89" height="7.4"/>
            </g>
            <path class="cls-6" d="m110.08,71.39h-29.61c-1.52,0-2.75-1.23-2.75-2.75v-15.31c0-3.82,3.09-6.91,6.91-6.91h18.55c3.82,0,7.05,2.82,7.57,6.61l2.06,15.24c.22,1.65-1.06,3.12-2.73,3.12Z"/>
          </g>
          <circle class="cls-22" cx="107.65" cy="70.14" r="3.89"/>
          <circle class="cls-21" cx="107.65" cy="70.14" r="1.94"/>
          <rect class="cls-6" x="89.23" y="46.44" width="11.79" height="24.95"/>
          <circle class="cls-22" cx="82.24" cy="70.14" r="3.89"/>
          <circle class="cls-20" cx="82.24" cy="70.14" r="1.94"/>
        </g>
        <path class="cls-7" d="m144.44,91.82v-11.13H2.7v19.63h70.57c3.7,0,7.33,1.02,10.48,2.95l12.26,7.5c3.16,1.93,6.78,2.95,10.48,2.95h37.94v-9.06h-18.86c-2.22,0-4.39-.59-6.31-1.71l-9.39-5.51c-2.66-1.56-1.55-5.63,1.53-5.63h33.03"/>
        <g>
          <g>
            <g>
              <path class="cls-13" d="m36.87,59.12V21.25c0-.39-.32-.71-.71-.71s-.71.32-.71.71v37.87h1.42Z"/>
              <path class="cls-13" d="m57.18,69.12V21.25c0-.39-.32-.71-.71-.71s-.71.32-.71.71v47.87h1.42Z"/>
            </g>
            <path class="cls-13" d="m29.41,23.03h34.56c1.35,0,2.45,1.1,2.45,2.45v21c0,1.35-1.1,2.45-2.45,2.45H29.41c-1.35,0-2.45-1.1-2.45-2.45v-21c0-1.35,1.1-2.45,2.45-2.45Z"/>
            <path class="cls-11" d="m45.82,23.03"/>
          </g>
          <g>
            <path class="cls-18" d="m41.21,25.83l-3.39,5.87h2.54v5.36c-.9-.94-2.1-1.6-3.44-1.82v-2.63l-5.87,3.39,5.87,3.39v-2.42c1.96.45,3.44,2.21,3.44,4.31v3.68h1.7v-13.27h2.54l-3.39-5.87Z"/>
            <polygon class="cls-18" points="56.04 31.7 52.65 25.83 49.26 31.7 51.8 31.7 51.8 44.97 53.5 44.97 53.5 31.7 56.04 31.7"/>
          </g>
        </g>
        <g>
          <path class="cls-13" d="m72.26,32.9h0c-.39,0-.71.32-.71.71v56.18h1.42v-56.18c0-.39-.32-.71-.71-.71Z"/>
          <path class="cls-15" d="m73.45,48.7l6.72-11.63c.53-.92-.13-2.07-1.19-2.07h-13.43c-1.06,0-1.72,1.15-1.19,2.07l6.72,11.63c.53.92,1.86.92,2.39,0Z"/>
        </g>
        <g>
          <circle class="cls-8" cx="44.62" cy="90.28" r="6.86"/>
          <circle class="cls-8" cx="89.94" cy="90.28" r="6.86"/>
          <g>
            <path class="cls-30" d="m104.25,79.45l-16.89-2.35-7.2-18.26c-1.19-3.02-4.11-5.01-7.36-5.01h-32.11l-7.81,26.88v12.74h60.92-.09,9.35c2.6,0,4.71-2.11,4.71-4.71v-5.24c0-2.04-1.5-3.76-3.52-4.05Z"/>
            <g class="cls-32">
              <g>
                <rect class="cls-27" x="51.21" y="57.98" width="36.71" height="19.04"/>
                <g class="cls-35">
                  <polygon class="cls-1" points="60.26 71.91 51.52 67.21 63.02 45.8 71.77 50.5 60.26 71.91"/>
                  <polygon class="cls-1" points="63.74 79.59 59.69 77.42 73.65 51.44 77.7 53.62 63.74 79.59"/>
                </g>
                <rect class="cls-3" x="51.21" y="57.98" width="36.71" height="19.04"/>
              </g>
            </g>
            <path class="cls-3" d="m104.25,79.45l-16.89-2.35-7.2-18.26c-1.19-3.02-4.11-5.01-7.36-5.01h-32.11l-7.81,26.88v12.74h60.92-.09,9.35c2.6,0,4.71-2.11,4.71-4.71v-5.24c0-2.04-1.5-3.76-3.52-4.05Z"/>
          </g>
          <g>
            <path class="cls-30" d="m81.85,79.45l-16.89-2.35-7.2-18.26c-1.19-3.02-1.65-5.01-4.9-5.01h-25.91c-3.73,0-7.07,2.3-8.4,5.78l-6.83,17.88c-.81,2.11-1.06,4.39-.75,6.62l1.31,9.33h59.13l-.09-.24h9.35c2.6,0,4.71-2.11,4.71-4.71v-5c0-2.04-1.5-3.76-3.52-4.05Z"/>
            <g class="cls-34">
              <rect class="cls-25" x=".31" y="57.98" width="87.62" height="19.04"/>
            </g>
            <path class="cls-3" d="m81.85,79.45l-16.89-2.35-7.2-18.26c-1.19-3.02-1.65-5.01-4.9-5.01h-25.91c-3.73,0-7.07,2.3-8.4,5.78l-6.83,17.88c-.81,2.11-1.06,4.39-.75,6.62l1.31,9.33h59.13l-.09-.24h9.35c2.6,0,4.71-2.11,4.71-4.71v-5c0-2.04-1.5-3.76-3.52-4.05Z"/>
          </g>
          <line class="cls-3" x1="41.31" y1="57.98" x2="41.31" y2="77.02"/>
          <line class="cls-3" x1="27.9" y1="57.98" x2="25.13" y2="77.02"/>
          <line class="cls-3" x1="87.36" y1="77.02" x2="64.59" y2="77.02"/>
          <path class="cls-8" d="m76.54,93.44h-18l1.28-7.23c.25-1.43,1.5-2.47,2.95-2.47h9.55c1.45,0,2.7,1.04,2.95,2.47l1.28,7.23Z"/>
          <path class="cls-8" d="m33.68,93.44H15.68l1.28-7.23c.25-1.43,1.5-2.47,2.95-2.47h9.55c1.45,0,2.7,1.04,2.95,2.47l1.28,7.23Z"/>
          <circle class="cls-25" cx="67.54" cy="91.51" r="6.86"/>
          <circle class="cls-25" cx="24.68" cy="91.51" r="6.86"/>
          <circle class="cls-8" cx="67.54" cy="91.51" r="3.43"/>
          <circle class="cls-8" cx="24.68" cy="91.51" r="3.43"/>
          <rect class="cls-25" x="85.38" y="83.43" width="22.4" height="5.3"/>
          <rect class="cls-25" x="85.38" y="83.43" width="3.82" height="5.3"/>
          <rect class="cls-25" x="103.95" y="83.43" width="3.82" height="5.3"/>
          <g>
            <line class="cls-3" x1="103.95" y1="83.43" x2="89.2" y2="83.43"/>
            <line class="cls-3" x1="103.95" y1="84.75" x2="89.2" y2="84.75"/>
            <line class="cls-3" x1="103.95" y1="86.08" x2="89.2" y2="86.08"/>
            <line class="cls-3" x1="103.95" y1="87.4" x2="89.2" y2="87.4"/>
            <line class="cls-3" x1="103.95" y1="88.73" x2="89.2" y2="88.73"/>
          </g>
        </g>
        <g>
          <path class="cls-16" d="m129.78,99.57h1.42v-51.08c0-.39-.32-.71-.71-.71h0c-.39,0-.71.32-.71.71v51.08Z"/>
          <g>
            <polygon class="cls-16" points="125.23 76.44 132.59 76.44 132.59 50.14 125.23 50.14 125.23 76.44"/>
            <rect class="cls-10" x="132.59" y="50.14" width="3.15" height="26.3"/>
            <g>
              <ellipse class="cls-12" cx="128.63" cy="55.14" rx="2.29" ry="3.41"/>
              <path class="cls-16" d="m125.63,51.74h3c1.27,0,2.29,1.53,2.29,3.41h-3c0-1.88-1.03-3.41-2.29-3.41Z"/>
              <path class="cls-16" d="m125.63,51.74c.58,0,1.1.33,1.5.85-.48.62-.79,1.53-.79,2.56h-3c0-1.88,1.03-3.41,2.29-3.41Z"/>
            </g>
            <g>
              <ellipse class="cls-12" cx="128.63" cy="63.28" rx="2.29" ry="3.41"/>
              <path class="cls-16" d="m125.63,59.87h3c1.27,0,2.29,1.53,2.29,3.41h-3c0-1.88-1.03-3.41-2.29-3.41Z"/>
              <path class="cls-16" d="m125.63,59.87c.58,0,1.1.33,1.5.85-.48.62-.79,1.53-.79,2.56h-3c0-1.88,1.03-3.41,2.29-3.41Z"/>
            </g>
            <g>
              <ellipse class="cls-12" cx="128.63" cy="71.41" rx="2.29" ry="3.41"/>
              <path class="cls-16" d="m125.63,68h3c1.27,0,2.29,1.53,2.29,3.41h-3c0-1.88-1.03-3.41-2.29-3.41Z"/>
              <path class="cls-16" d="m125.63,68c.58,0,1.1.33,1.5.85-.48.62-.79,1.53-.79,2.56h-3c0-1.88,1.03-3.41,2.29-3.41Z"/>
            </g>
          </g>
        </g>
        <g>
          <path class="cls-11" d="m126.16,102.23v-17.55c0-.37-.32-.67-.71-.67s-.71.3-.71.67v17.55h1.42Z"/>
          <path class="cls-11" d="m115.16,86.11h18.15c.54,0,1.3.27,1.71.6l3.65,2.97c.41.33.41.87,0,1.2l-3.65,2.97c-.41.33-1.17.6-1.71.6h-18.15c-.54,0-.97-.41-.97-.92v-6.5c0-.51.43-.93.97-.93Z"/>
        </g>
      </g>
    </symbol>
  </defs>
  <use width="144.72" height="136.83" xlink:href="#Neues_Symbol"/>
</svg>