<?xml version="1.0" encoding="UTF-8"?>
<svg id="SOLAR" xmlns="http://www.w3.org/2000/svg" xmlns:xlink="http://www.w3.org/1999/xlink" viewBox="0 0 68.57 47.56">
  <defs>
    <style>
      .cls-1, .cls-2 {
        stroke-miterlimit: 10;
      }

      .cls-1, .cls-2, .cls-3, .cls-4, .cls-5, .cls-6, .cls-7, .cls-8 {
        stroke: #1e3791;
        stroke-width: .57px;
      }

      .cls-1, .cls-3 {
        fill: #b6e6fa;
      }

      .cls-2 {
        fill: #1e3791;
      }

      .cls-3, .cls-4, .cls-5, .cls-6, .cls-8 {
        stroke-linejoin: round;
      }

      .cls-3, .cls-4, .cls-6, .cls-7 {
        stroke-linecap: round;
      }

      .cls-9 {
        clip-path: url(#clippath);
      }

      .cls-4 {
        fill: #fff;
      }

      .cls-5, .cls-10 {
        fill: #e1e1e1;
      }

      .cls-6, .cls-7, .cls-8 {
        fill: none;
      }
    </style>
    <clipPath id="clippath">
      <polygon class="cls-5" points="52.09 4.72 37.46 4.72 22.83 4.72 18.41 11.68 13.98 18.65 9.56 25.62 24.19 25.62 38.82 25.62 53.45 25.62 57.87 18.65 62.29 11.68 66.72 4.72 52.09 4.72"/>
    </clipPath>
    <symbol id="Neues_Symbol_6" data-name="Neues Symbol 6" viewBox="0 0 68.57 47.56">
      <g>
        <path class="cls-2" d="m.28,29.45v12.16c0,3.13,2.54,5.67,5.67,5.67h56.67c3.13,0,5.67-2.54,5.67-5.67v-12.66c0-1.99-68.01-1.49-68.01.5Z"/>
        <path class="cls-1" d="m58.55,3.12c-1.01-1.75-2.88-2.83-4.91-2.83H14.9c-2.03,0-3.9,1.08-4.91,2.83L1.42,17.95c-.75,1.29-1.14,2.76-1.14,4.25v8.07c0,3.13,2.54,5.67,5.67,5.67h56.67c3.13,0,5.67-2.54,5.67-5.67v-8.01c0-1.49-.39-2.96-1.14-4.25l-8.6-14.89Z"/>
        <path class="cls-7" d="m16.84,21.98h-3.83c-1.08,0-2.13.31-3.03.9h0c-.9.59-1.96.9-3.03.9h-.17c-1.82,0-3.3-1.48-3.3-3.3h0c0-1.82,1.48-3.3,3.3-3.3h8.31c1.7,0,3.08-1.38,3.08-3.08h0c0-1.7-1.38-3.08-3.08-3.08h-2.58"/>
        <path class="cls-3" d="m10.73,9.43h1.6c.88,0,1.6.72,1.6,1.6h0c0,.88-.72,1.6-1.6,1.6h-1.6v-3.19h0Z"/>
        <g>
          <line class="cls-6" x1="10.73" y1="10.28" x2="9.03" y2="10.28"/>
          <line class="cls-6" x1="10.73" y1="11.78" x2="9.03" y2="11.78"/>
        </g>
        <g>
          <line class="cls-6" x1="13.61" y1="21.3" x2="62.79" y2="21.3"/>
          <line class="cls-6" x1="55.4" y1="30.4" x2="41.47" y2="21.3"/>
          <line class="cls-6" x1="27.54" y1="30.4" x2="13.61" y2="21.3"/>
          <line class="cls-6" x1="27.54" y1="30.4" x2="41.47" y2="21.3"/>
          <line class="cls-4" x1="62.79" y1="9.11" x2="62.79" y2="32.02"/>
          <line class="cls-4" x1="55.4" y1="9.11" x2="55.4" y2="32.02"/>
          <line class="cls-4" x1="41.47" y1="9.11" x2="41.47" y2="32.02"/>
          <line class="cls-4" x1="27.54" y1="9.11" x2="27.54" y2="32.02"/>
          <line class="cls-4" x1="13.61" y1="21.95" x2="13.61" y2="32.02"/>
          <g>
            <polygon class="cls-10" points="52.09 4.72 37.46 4.72 22.83 4.72 18.41 11.68 13.98 18.65 9.56 25.62 24.19 25.62 38.82 25.62 53.45 25.62 57.87 18.65 62.29 11.68 66.72 4.72 52.09 4.72"/>
            <g class="cls-9">
              <g>
                <line class="cls-6" x1="62.29" y1="11.68" x2="15.64" y2="11.68"/>
                <line class="cls-6" x1="57.87" y1="18.65" x2="11.22" y2="18.65"/>
                <line class="cls-6" x1="52.09" y1="4.72" x2="38.82" y2="25.62"/>
                <line class="cls-6" x1="37.46" y1="4.72" x2="24.19" y2="25.62"/>
              </g>
            </g>
            <polygon class="cls-8" points="52.09 4.72 37.46 4.72 22.83 4.72 18.41 11.68 13.98 18.65 9.56 25.62 24.19 25.62 38.82 25.62 53.45 25.62 57.87 18.65 62.29 11.68 66.72 4.72 52.09 4.72"/>
          </g>
          <line class="cls-6" x1="13.61" y1="30.4" x2="62.79" y2="30.4"/>
        </g>
      </g>
    </symbol>
  </defs>
  <use width="68.57" height="47.56" xlink:href="#Neues_Symbol_6"/>
</svg>