<?xml version="1.0" encoding="UTF-8"?>
<svg id="BIKE" xmlns="http://www.w3.org/2000/svg" xmlns:xlink="http://www.w3.org/1999/xlink" viewBox="0 0 142.3 100.07">
  <defs>
    <style>
      .cls-1 {
        stroke-width: 2.83px;
      }

      .cls-1, .cls-2, .cls-3, .cls-4, .cls-5, .cls-6, .cls-7, .cls-8, .cls-9, .cls-10, .cls-11, .cls-12, .cls-13, .cls-14, .cls-15, .cls-16, .cls-17, .cls-18, .cls-19, .cls-20, .cls-21 {
        stroke: #1e3791;
      }

      .cls-1, .cls-5, .cls-11, .cls-22, .cls-16, .cls-20, .cls-21 {
        fill: none;
      }

      .cls-23 {
        clip-path: url(#clippath);
      }

      .cls-2, .cls-3, .cls-4, .cls-5, .cls-6, .cls-7, .cls-8, .cls-9, .cls-10, .cls-11, .cls-22, .cls-12, .cls-13, .cls-14, .cls-15, .cls-16, .cls-17, .cls-18, .cls-19, .cls-21 {
        stroke-width: .57px;
      }

      .cls-2, .cls-3, .cls-4, .cls-5, .cls-22 {
        stroke-linejoin: round;
      }

      .cls-2, .cls-3, .cls-5, .cls-6, .cls-7, .cls-8, .cls-9, .cls-10, .cls-11, .cls-12, .cls-13, .cls-14, .cls-15, .cls-20, .cls-21 {
        stroke-linecap: round;
      }

      .cls-2, .cls-24, .cls-8, .cls-14, .cls-18 {
        fill: #fff;
      }

      .cls-3, .cls-9, .cls-15, .cls-17 {
        fill: #e60032;
      }

      .cls-4, .cls-25, .cls-7, .cls-12, .cls-19 {
        fill: #b6e6fa;
      }

      .cls-26, .cls-10 {
        fill: #e1e1e1;
      }

      .cls-27, .cls-6, .cls-13 {
        fill: #1e3791;
      }

      .cls-28 {
        clip-path: url(#clippath-1);
      }

      .cls-29 {
        clip-path: url(#clippath-3);
      }

      .cls-30 {
        clip-path: url(#clippath-2);
      }

      .cls-31 {
        clip-path: url(#clippath-6);
      }

      .cls-32 {
        clip-path: url(#clippath-5);
      }

      .cls-22 {
        stroke: #b6e6fa;
      }

      .cls-12, .cls-13, .cls-14, .cls-15, .cls-21 {
        stroke-miterlimit: 10;
      }

      .cls-20 {
        stroke-width: .54px;
      }
    </style>
    <clipPath id="clippath">
      <path class="cls-18" d="m79.81,21.48c6.86,2.6,14.21,3.41,20.96,3.44l.15,6.5c-6.81.33-11.42.15-16.57-.39-2.09-.22-4.19-1.65-6.64-1.98"/>
    </clipPath>
    <clipPath id="clippath-1">
      <path class="cls-18" d="m84.58,15.76c-2.14,2.79-1.53,6.74,1.33,8.81,2.86,2.09,6.92,1.52,9.04-1.29,2.14-2.8,1.55-6.74-1.31-8.82-2.88-2.08-6.92-1.51-9.06,1.3Z"/>
    </clipPath>
    <clipPath id="clippath-2">
      <circle class="cls-13" cx="96.05" cy="20.5" r="1.34"/>
    </clipPath>
    <clipPath id="clippath-3">
      <circle class="cls-13" cx="92.53" cy="19.52" r="1.34"/>
    </clipPath>
    <clipPath id="clippath-5">
      <path class="cls-18" d="m85.49,20.57l-1.21,6.7c-11.71,5.53-9.13,12.7-22.02,11.77l-14.92-5c-1.41-13.17,13.09-23.26,27.75-20.55,4.63.86,8.2,3.1,10.4,7.08Z"/>
    </clipPath>
    <clipPath id="clippath-6">
      <path class="cls-18" d="m85.34,20.3c3.43,5.86,7.86,11.75,12.56,15.59l-4.03,5.35c-7.72-4.52-11.39-8.54-14.66-12.85-.51-.67-1-1.34-1.5-2.03"/>
    </clipPath>
    <symbol id="Neues_Symbol_5" data-name="Neues Symbol 5" viewBox="0 0 142.3 100.07">
      <g>
        <path class="cls-13" d="m137.87,27.6c2.66,2.66,4.15,6.26,4.15,10.02v26.42c0,3.76-1.49,7.36-4.15,10.02l-21.54,21.54c-2.66,2.66-6.26,4.15-10.02,4.15l-83.14.02c-3.76,0-7.36-1.49-10.02-4.15l-8.71-8.71c-2.66-2.66-4.15-6.26-4.15-10.02v-23.65c0-4.7,3.81-8.5,8.5-8.5h48.46c3.04,0,5.85-1.62,7.36-4.25l10.78-18.67c1.52-2.63,4.33-4.25,7.36-4.25h39.22c3.76,0,7.36,1.49,10.02,4.15l5.87,5.87Z"/>
        <path class="cls-12" d="m137.87,13.43c2.66,2.66,4.15,6.26,4.15,10.02v26.42c0,3.76-1.49,7.36-4.15,10.02l-21.54,21.54c-2.66,2.66-6.26,4.15-10.02,4.15l-83.14.02c-3.76,0-7.36-1.49-10.02-4.15l-8.71-8.71c-2.66-2.66-4.15-6.26-4.15-10.02v-23.65c0-4.7,3.81-8.5,8.5-8.5h48.46c3.04,0,5.85-1.62,7.36-4.25l10.78-18.67c1.52-2.63,4.33-4.25,7.36-4.25h39.22c3.76,0,7.36,1.49,10.02,4.15l5.87,5.87Z"/>
        <g>
          <path class="cls-12" d="m121.15,20.28c.87-1.1,1.18-2.51.91-3.89-.08-.4-.12-.81-.12-1.23,0-1.43.46-2.75,1.24-3.82s1.07-2.45.73-3.73c-.15-.55-.2-1.13-.13-1.74.23-2.19,2-3.97,4.19-4.21,2.86-.31,5.28,1.92,5.28,4.72,0,.37-.04.74-.13,1.09-.31,1.32-.15,2.72.65,3.81s1.27,2.42,1.27,3.88c0,.42-.04.83-.12,1.23-.27,1.39.05,2.8.93,3.91,1.27,1.61,2.03,3.64,2,5.87-.07,4.86-3.97,8.95-8.83,9.22-5.41.3-9.9-4-9.9-9.35,0-2.18.76-4.18,2.02-5.76Z"/>
          <line class="cls-14" x1="128.5" y1="43.62" x2="128.5" y2="6.11"/>
          <line class="cls-14" x1="128.5" y1="30.91" x2="134.12" y2="25.28"/>
          <line class="cls-14" x1="128.5" y1="19.58" x2="132.73" y2="15.35"/>
          <line class="cls-14" x1="128.5" y1="26.95" x2="123.76" y2="22.21"/>
          <line class="cls-14" x1="128.5" y1="15.92" x2="125.36" y2="12.78"/>
        </g>
        <g>
          <path class="cls-4" d="m129.22,43.55c-.08-.62.06-1.23.38-1.76.4-.66.64-1.43.64-2.26,0-1.93-1.27-3.56-3.02-4.12-.52-.17-.89-.59-1.02-1.12-.38-1.51-1.77-2.7-3.48-2.7s-3.09,1.13-3.48,2.72c-.13.53-.5.95-1.02,1.11-1.75.56-3.02,2.18-3.02,4.12,0,.83.23,1.6.64,2.26.32.52.46,1.14.39,1.75-.02.13-.02.27-.02.42,0,2.21,1.79,4.01,4.01,4.01.33,0,.66-.04.96-.12,1.02-.26,2.09-.26,3.11,0,.31.08.63.12.97.12,2.21,0,4.01-1.79,4.01-4.01,0-.09,0-.22-.02-.41Z"/>
          <line class="cls-21" x1="122.63" y1="52.99" x2="122.63" y2="35.96"/>
          <line class="cls-21" x1="122.63" y1="42.72" x2="118.95" y2="39.28"/>
          <line class="cls-21" x1="122.63" y1="44.73" x2="126.37" y2="42.42"/>
        </g>
        <g>
          <path class="cls-4" d="m127.26,45.07c.72-.8,1.11-1.84,1.11-2.92,0,0,0,0,0,0,0-1.99,1.61-3.6,3.6-3.6s3.6,1.61,3.6,3.6c0,1.08.4,2.11,1.11,2.92.99,1.11,1.59,2.56,1.59,4.16,0,3.48-2.82,6.31-6.31,6.31s-6.31-2.82-6.31-6.31c0-1.6.6-3.05,1.59-4.16Z"/>
          <polyline class="cls-21" points="131.98 59.04 131.98 51.28 134.08 45.46"/>
          <line class="cls-21" x1="131.98" y1="51.28" x2="129.03" y2="47.55"/>
        </g>
        <g>
          <path class="cls-4" d="m118.68,46.28c-.72-.8-1.11-1.84-1.11-2.92,0,0,0,0,0,0,0-1.99-1.61-3.6-3.6-3.6s-3.6,1.61-3.6,3.6c0,1.08-.4,2.11-1.11,2.92-.99,1.11-1.59,2.56-1.59,4.16,0,3.48,2.82,6.31,6.31,6.31s6.31-2.82,6.31-6.31c0-1.6-.6-3.05-1.59-4.16Z"/>
          <polyline class="cls-21" points="113.96 60.24 113.96 52.48 111.86 46.66"/>
          <line class="cls-21" x1="113.96" y1="52.48" x2="116.92" y2="48.75"/>
        </g>
        <path class="cls-14" d="m89.29,24.21c5.15,1.1,10.98,1.4,18.19,1.2l1.58,3.31c.12.52-.25.99-.77,1.1-7.55,1.63-15.13,1.74-22.79-.02-.29-.02,3.52-5.61,3.79-5.59Z"/>
        <g>
          <path class="cls-24" d="m79.81,21.48c6.86,2.6,14.21,3.41,20.96,3.44l.15,6.5c-6.81.33-11.42.15-16.57-.39-2.09-.22-4.19-1.65-6.64-1.98"/>
          <g class="cls-23">
            <g>
              <line class="cls-1" x1="81.29" y1="18.46" x2="78.47" y2="31.94"/>
              <line class="cls-1" x1="86.56" y1="19.15" x2="84.69" y2="32.1"/>
              <line class="cls-1" x1="91.84" y1="19.83" x2="90.91" y2="32.27"/>
              <line class="cls-1" x1="97.12" y1="20.51" x2="97.13" y2="32.43"/>
              <line class="cls-1" x1="102.39" y1="21.2" x2="103.35" y2="32.59"/>
            </g>
          </g>
          <path class="cls-16" d="m79.81,21.48c6.86,2.6,14.21,3.41,20.96,3.44l.15,6.5c-6.81.33-11.42.15-16.57-.39-2.09-.22-4.19-1.65-6.64-1.98"/>
        </g>
        <g>
          <g>
            <path class="cls-2" d="m118.72,11.17l-2.07,3.86-1.11-.1.68-5.46,1.4-3.7c1.53.76,2.19,3.36,1.1,5.4Z"/>
            <path class="cls-3" d="m114.22,28.39l1.06-11.57-.94-.71c-.2-.15-.31-.39-.28-.64.03-.36.36-.63.72-.6l.97.09,1.24.11-1.23,13.46-1.54-.14Z"/>
            <path class="cls-3" d="m113.89,28.11l-.62,6.75c-.06.62.4,1.16,1.01,1.22.58.05,1.09-.37,1.14-.95l.62-6.82-2.16-.2Z"/>
          </g>
          <g>
            <path class="cls-2" d="m112.1,9.98l.59,4.34,1.08.29,1.27-5.35-.02-3.96c-1.7.17-3.23,2.38-2.92,4.67Z"/>
            <path class="cls-3" d="m110.29,27.68l3.05-11.21,1.12-.34c.24-.07.42-.26.49-.5.1-.35-.11-.72-.46-.81l-.94-.26-1.2-.33-3.55,13.04,1.49.41Z"/>
            <path class="cls-3" d="m110.71,27.53l-1.78,6.54c-.16.6-.78.95-1.37.79-.56-.15-.89-.73-.74-1.29l1.8-6.6,2.09.57Z"/>
          </g>
          <path class="cls-2" d="m112.07,9.53l6.87,1.24c.23-.55.34-1.13.35-1.71l-6.95-1.25c-.2.54-.29,1.13-.27,1.72Z"/>
          <circle class="cls-27" cx="118.22" cy="9.76" r=".38"/>
          <circle class="cls-27" cx="113.3" cy="8.87" r=".38"/>
        </g>
        <path class="cls-14" d="m107.85,27.43l.12-.06c.5-.26.9-.67,1.16-1.18.25-.5.33-1.05.24-1.6l1.13-1.6c.36-.51.24-1.22-.27-1.59l-.28-.2-1,1.42c-.44.62-1.03,1.12-1.73,1.44l-.47.22-.87,1.17"/>
        <g>
          <path class="cls-14" d="m111.47,25.82l1,.08c.36.03.68-.25.71-.61h0c.03-.36-.25-.68-.61-.71l-1-.08c-.36-.03-.68.25-.71.61h0c-.03.36.25.68.61.71Z"/>
          <path class="cls-14" d="m110.24,27.07l1.88.13c.36.03.68-.25.71-.61h0c.03-.36-.25-.68-.61-.71l-1.88-.13c-.36-.03-.68.25-.71.61h0c-.03.36.25.68.61.71Z"/>
          <path class="cls-14" d="m109.22,28.32l2.28.16c.36.03.68-.25.71-.61h0c.03-.36-.25-.68-.61-.71l-2.28-.16c-.36-.03-.68.25-.71.61h0c-.03.36.25.68.61.71Z"/>
          <path class="cls-14" d="m109.31,29.65l1.84.13c.36.03.68-.25.71-.61h0c.03-.36-.25-.68-.61-.71l-1.84-.13c-.36-.03-.68.25-.71.61h0c-.03.36.25.68.61.71Z"/>
        </g>
        <g>
          <g>
            <path class="cls-6" d="m70.89,58.97c.06-.65-.29-1.16-.9-1.38l-2.61-.94c-1.13-.49-.66-2.66.2-3.94l.46-.69-3.47-2.01-1.08,1.63c-1.04,1.57-1.2,1.19-2.17,2.03-.55.48-1.42,1.86-1.59,2.44l3.75,2.76.16.71,4.04.4.02.24h3.08l.12-1.24Z"/>
            <path class="cls-10" d="m58.56,57.15l2.75,1.62.96-.15,1.6,1.52c.23.25.73.42,1.11.42h6.15l.02-1.04h-6.19c-.2,0-.38-.09-.51-.22l-.82-.82c-.14-.13-.3-.26-.48-.36l-3.72-2.18-.86,1.22Z"/>
          </g>
          <path class="cls-14" d="m103.71,38.52c.59.14,1.24-.33,1.38-.92,0,0-2.5-.68-3.73-1-.32-.08-.56-.07-.83.1l-.59.38c-.35.22-.85.18-1.2-.03l-1.82-1.13c-.34.26-5.17,1.29-5.17,1.29"/>
          <path class="cls-17" d="m55.14,33.1c-1.95-.59-4.55.69-5.14,2.56-.6,1.91,2.55,3.86,4.49,4.34l17.46,2.26-6.29,7.63,2.85,2.29,11.03-11.41c1.02-1.05.46-2.82-.98-3.1l-23.44-4.57Z"/>
          <g>
            <path class="cls-10" d="m65.18,64.29c0,8.86-7.18,16.05-16.05,16.05-8.86,0-16.04-7.19-16.04-16.05,0-8.86,7.19-16.05,16.04-16.05s16.05,7.19,16.05,16.05Zm-16.05-14.23c-7.85,0-14.23,6.37-14.23,14.23,0,7.86,6.37,14.23,14.23,14.23s14.23-6.37,14.23-14.23c0-7.86-6.37-14.23-14.23-14.23Z"/>
            <path class="cls-10" d="m117.9,64.29c0,8.86-7.18,16.05-16.05,16.05s-16.04-7.19-16.04-16.05,7.19-16.05,16.04-16.05,16.05,7.19,16.05,16.05Zm-16.05-14.23c-7.85,0-14.23,6.37-14.23,14.23s6.37,14.23,14.23,14.23,14.23-6.37,14.23-14.23-6.37-14.23-14.23-14.23Z"/>
            <circle class="cls-19" cx="101.53" cy="64.89" r="1.32"/>
            <g>
              <path class="cls-25" d="m49.13,67.06c-1.52,0-2.76-1.24-2.76-2.77s1.24-2.77,2.76-2.77,2.77,1.24,2.77,2.77-1.24,2.77-2.77,2.77Z"/>
              <path class="cls-27" d="m49.13,61.81c1.37,0,2.49,1.11,2.49,2.48s-1.11,2.48-2.49,2.48-2.48-1.11-2.48-2.48,1.11-2.48,2.48-2.48m0-.57c-1.68,0-3.05,1.37-3.05,3.05s1.37,3.05,3.05,3.05,3.05-1.37,3.05-3.05-1.37-3.05-3.05-3.05h0Z"/>
            </g>
            <path class="cls-5" d="m92.2,40.72l4.67,14.49c.89,2.75,2.08,5.39,3.57,7.86l1.09,1.82"/>
            <line class="cls-5" x1="62.13" y1="43.32" x2="93.04" y2="43.32"/>
            <polyline class="cls-5" points="93.74 45.48 73.22 67.13 71.58 66.51 60.82 40.72 61.29 40.72"/>
            <polyline class="cls-5" points="61.87 43.23 48.52 64.45 69.29 66.51"/>
            <path class="cls-5" d="m95.84,35.33h3.87c2.18,0,3.95,1.77,3.95,3.95h0c0,2.18-1.77,3.94-3.95,3.94h-1.96"/>
            <polyline class="cls-5" points="93.2 43.8 90.72 36.12 97.19 36.12"/>
            <circle class="cls-7" cx="71.58" cy="66.51" r="4.32"/>
          </g>
          <g>
            <polygon class="cls-8" points="73.07 68.47 71.91 62.35 68.67 62.35 70.41 70.08 73.07 68.47"/>
            <path class="cls-14" d="m101.42,37.81l3.43.96c.31.09.47.41.34.71v.02c-.05.08-.76,1.38-1.38,2.51-.54.98-1.69,1.44-2.75,1.1-2.94-.93-5.42-2.04-7.3-3.28l1.77-2.83"/>
            <g>
              <g>
                <path class="cls-24" d="m84.58,15.76c-2.14,2.79-1.53,6.74,1.33,8.81,2.86,2.09,6.92,1.52,9.04-1.29,2.14-2.8,1.55-6.74-1.31-8.82-2.88-2.08-6.92-1.51-9.06,1.3Z"/>
                <g class="cls-28">
                  <polygon class="cls-15" points="86.66 19.92 83.96 23.16 81.56 18.56 83.02 15.6 87.34 15.9 90.59 17.14 87.53 18.61 86.7 19.02 86.66 19.92"/>
                  <path class="cls-26" d="m94.71,23.57c-.36-.72-.97-1.34-1.72-1.92s-1.62-.96-2.55-1.12l-1.54-.31-.97,1.57c-.54.87-.69,1.93-.42,2.92l.5,1.83,7.5-.51-.81-2.45Z"/>
                </g>
                <path class="cls-16" d="m84.58,15.76c-2.14,2.79-1.53,6.74,1.33,8.81,2.86,2.09,6.92,1.52,9.04-1.29,2.14-2.8,1.55-6.74-1.31-8.82-2.88-2.08-6.92-1.51-9.06,1.3Z"/>
              </g>
              <g>
                <circle class="cls-27" cx="96.05" cy="20.5" r="1.34"/>
                <g class="cls-30">
                  <line class="cls-22" x1="96.94" y1="19.36" x2="95.17" y2="20.79"/>
                </g>
                <circle class="cls-21" cx="96.05" cy="20.5" r="1.34"/>
              </g>
              <path class="cls-27" d="m92.91,19.52c-.12.19-.37.25-.55.13-.19-.12-.25-.37-.13-.55.12-.19.37-.25.55-.13s.25.37.13.55Z"/>
              <path class="cls-27" d="m95.42,20.13c-.12.19-.37.25-.55.13-.19-.12-.25-.37-.13-.55.12-.19.37-.25.55-.13.19.12.25.37.13.55Z"/>
              <path class="cls-14" d="m87.47,20.57c-.58-.24-.95-.88-.77-1.55.13-.5.58-.9,1.09-.96.22-.03.43,0,.62.07"/>
              <path class="cls-15" d="m88.13,16.46l2.07.57v2.95c0,.49-.4.89-.89.89h0c-.49,0-.89-.4-.89-.89v-1.85"/>
              <path class="cls-15" d="m88.41,18.13"/>
              <path class="cls-2" d="m93.98,19.16l.82.85c.46.48.9.96.65,1.57h0c-.25.61-.96.9-1.57.65l-.48-.22"/>
              <g>
                <circle class="cls-27" cx="92.53" cy="19.52" r="1.34"/>
                <g class="cls-29">
                  <line class="cls-22" x1="93.35" y1="18.37" x2="91.05" y2="20.23"/>
                </g>
                <circle class="cls-21" cx="92.53" cy="19.52" r="1.34"/>
              </g>
              <path class="cls-5" d="m92.83,23.05c-.35.05-.71-.02-1.03-.23-.51-.35-.72-.96-.57-1.52"/>
              <g>
                <path class="cls-27" d="m84.34,15.52l13.76,4.34c.48.15.99-.01,1.3-.41h0c.28-.36.36-.87.13-1.26-5.87-9.81-14.04-9.1-15.19-2.67Z"/>
                <path class="cls-5" d="m84.34,15.52l13.76,4.34c.48.15.99-.01,1.3-.41h0c.28-.36.36-.87.13-1.26-5.87-9.81-14.04-9.1-15.19-2.67Z"/>
              </g>
            </g>
            <g>
              <path class="cls-24" d="m85.49,20.57l-1.21,6.7c-11.71,5.53-9.13,12.7-22.02,11.77l-14.92-5c-1.41-13.17,13.09-23.26,27.75-20.55,4.63.86,8.2,3.1,10.4,7.08Z"/>
              <g class="cls-32">
                <g>
                  <line class="cls-1" x1="71.15" y1=".54" x2="83.86" y2="31.44"/>
                  <line class="cls-1" x1="63.09" y1="5.95" x2="81.92" y2="33.4"/>
                  <line class="cls-1" x1="55.04" y1="11.36" x2="79.98" y2="35.36"/>
                  <line class="cls-1" x1="46.98" y1="16.77" x2="78.04" y2="37.32"/>
                  <line class="cls-1" x1="38.93" y1="22.18" x2="76.09" y2="39.28"/>
                  <line class="cls-1" x1="30.88" y1="27.6" x2="74.15" y2="41.24"/>
                </g>
              </g>
              <path class="cls-16" d="m85.49,20.57l-1.21,6.7c-11.71,5.53-9.13,12.7-22.02,11.77l-14.92-5c-1.41-13.17,13.09-23.26,27.75-20.55,4.63.86,8.2,3.1,10.4,7.08Z"/>
            </g>
            <path class="cls-9" d="m70.55,51.75c-.1-.52-.3-1.03-.59-1.48l-4.85-7.5c-.45-.58-.69-1.28-.71-2l-.03-1.62-17.03-5.12c.94,5.64,5.88,5.96,7.69,8.04l9.88,9.97c.53.54.91,1.2,1.09,1.92l2.47,9.73h4.34l-2.26-11.94Z"/>
            <g>
              <path class="cls-24" d="m85.34,20.3c3.43,5.86,7.86,11.75,12.56,15.59l-4.03,5.35c-7.72-4.52-11.39-8.54-14.66-12.85-.51-.67-1-1.34-1.5-2.03"/>
              <g class="cls-31">
                <g>
                  <line class="cls-1" x1="86.91" y1="20.59" x2="77.28" y2="28.24"/>
                  <line class="cls-1" x1="90.46" y1="23.95" x2="81.55" y2="32.07"/>
                  <line class="cls-1" x1="94.01" y1="27.32" x2="85.81" y2="35.91"/>
                  <line class="cls-1" x1="97.56" y1="30.68" x2="90.07" y2="39.74"/>
                  <line class="cls-1" x1="101.11" y1="34.04" x2="94.34" y2="43.57"/>
                </g>
              </g>
              <path class="cls-16" d="m85.34,20.3c3.43,5.86,7.86,11.75,12.56,15.59l-4.03,5.35c-7.72-4.52-11.39-8.54-14.66-12.85-.51-.67-1-1.34-1.5-2.03"/>
            </g>
            <g>
              <path id="SVGID" class="cls-6" d="m79.62,72.19l-3.07-.96c-1.66-.52-2.77-1.75-2.85-3.3l-.04-.82h-4.32l.1,1.95c.1,1.88-.29,1.63-.6,2.85-.17.69-.05,2.32.18,2.91h12.01s-.14-1.24-.14-1.24c-.07-.65-.56-1.16-1.27-1.38Z"/>
              <path class="cls-10" d="m68.61,75.45h3.48l.62-.61,1.51.46c.38.1.78.14,1.18.14h6.06l-.03-1.04h-5.86c-.21,0-.42-.02-.62-.07l-1.3-.3c-.21-.05-.44-.07-.66-.07h-4.4l.02,1.49Z"/>
            </g>
          </g>
          <line class="cls-11" x1="72.99" y1="41.83" x2="71.95" y2="42.26"/>
        </g>
        <g>
          <path class="cls-11" d="m29.31,52.04c1.04-.05,2.09.22,2.93.7"/>
          <path class="cls-11" d="m24.95,54.47c.48-.68,1.13-1.27,2.04-1.75"/>
          <path class="cls-11" d="m23.46,59.08c.14-.82.28-1.62.49-2.38"/>
          <path class="cls-11" d="m21.73,64.21c.58-.81.94-1.7,1.2-2.61"/>
          <path class="cls-11" d="m16.73,67.43c.17-.05.34-.1.52-.16,1.03-.35,1.88-.77,2.58-1.24"/>
          <path class="cls-11" d="m11.4,67.11c.9.4,1.89.63,2.94.64"/>
          <path class="cls-11" d="m7.61,63.85c.52.76,1.12,1.44,1.8,2.01"/>
          <path class="cls-11" d="m5.73,59c.14.88.37,1.74.68,2.56"/>
          <path class="cls-11" d="m6.21,53.53c-.3.86-.5,1.76-.58,2.71"/>
          <path class="cls-11" d="m9.07,49.08c-.65.65-1.23,1.36-1.72,2.13"/>
          <path class="cls-11" d="m13.41,46.12c-.84.38-1.65.83-2.4,1.35"/>
          <path class="cls-11" d="m19.27,44.71c-.7.05-1.44.14-2.23.29-.39.07-.78.16-1.16.26"/>
          <path class="cls-11" d="m24.22,44.81c-.83-.09-1.69-.17-2.61-.21"/>
          <path class="cls-11" d="m29.55,44.96c-.38.06-.78.1-1.21.11-.57.01-1.12,0-1.68-.04"/>
          <path class="cls-11" d="m34.29,43.21c-.82.38-1.57.81-2.4,1.17"/>
          <path class="cls-11" d="m39.76,42.43c-.52-.11-1.06-.16-1.57-.15-.65.02-1.23.09-1.75.2"/>
          <path class="cls-11" d="m43.61,45.99c-.34-1.28-1.05-2.17-1.94-2.76"/>
          <g>
            <path class="cls-11" d="m32.77,54.71l-.1-.06c-.2-.13-.4-.27-.57-.43l-.45-.41c-.52-.48-.55-1.3-.07-1.82h0c.48-.52,1.3-.55,1.82-.07l.47.44"/>
            <path class="cls-16" d="m30.08,51.54h0c.24.67-.11,1.41-.77,1.65l-1.51.54c-.67.24-1.41-.11-1.65-.77h0c-.24-.67.11-1.41.77-1.65l1.51-.54c.67-.24,1.41.11,1.65.77Z"/>
            <path class="cls-16" d="m23.42,54.36c.25-.66,1-1,1.66-.74h0c.66.25,1,1,.74,1.66l-.57,1.5c-.25.66-1,1-1.66.74h0c-.66-.25-1-1-.74-1.66l.57-1.5Z"/>
            <path class="cls-16" d="m23.51,58.39h0c.69.15,1.14.83.99,1.52l-.33,1.57c-.15.69-.83,1.14-1.52.99h0c-.69-.15-1.14-.83-.99-1.52l.33-1.57c.15-.69.83-1.14,1.52-.99Z"/>
            <path class="cls-16" d="m22.19,63.75h0c.49.51.47,1.33-.05,1.82l-1.16,1.11c-.51.49-1.33.47-1.82-.05h0c-.49-.51-.47-1.33.05-1.82l1.16-1.11c.51-.49,1.33-.47,1.82.05Z"/>
            <path class="cls-16" d="m17.52,67.34h0c.12.7-.35,1.37-1.05,1.48l-1.58.27c-.7.12-1.37-.35-1.48-1.05h0c-.12-.7.35-1.37,1.05-1.48l1.58-.27c.7-.12,1.37.35,1.48,1.05Z"/>
            <path class="cls-16" d="m12.28,67.63h0c-.34.62-1.13.84-1.75.5l-1.4-.78c-.62-.34-.84-1.13-.5-1.75h0c.34-.62,1.13-.84,1.75-.5l1.4.78c.62.34.84,1.13.5,1.75Z"/>
            <path class="cls-16" d="m8.04,64.61h0c-.61.36-1.4.15-1.76-.46l-.81-1.38c-.36-.61-.15-1.4.46-1.76h0c.61-.36,1.4-.15,1.76.46l.81,1.38c.36.61.15,1.4-.46,1.76Z"/>
            <path class="cls-16" d="m5.75,59.61h0c-.71.05-1.33-.48-1.38-1.19l-.12-1.6c-.05-.71.48-1.33,1.19-1.38h0c.71-.05,1.33.48,1.38,1.19l.12,1.6c.05.71-.48,1.33-1.19,1.38Z"/>
            <path class="cls-16" d="m5.88,54.22h0c-.65-.29-.94-1.05-.66-1.7l.65-1.47c.29-.65,1.05-.94,1.7-.66h0c.65.29.94,1.05.66,1.7l-.65,1.47c-.29.65-1.05.94-1.7.66Z"/>
            <path class="cls-16" d="m8.45,49.63h0c-.47-.52-.43-1.34.09-1.82l1.19-1.08c.52-.47,1.34-.43,1.82.09h0c.47.52.43,1.34-.09,1.82l-1.19,1.08c-.52.47-1.34.43-1.82-.09Z"/>
            <path class="cls-16" d="m12.75,46.38h0c-.26-.66.06-1.41.72-1.67l1.49-.59c.66-.26,1.41.06,1.67.72h0c.26.66-.06,1.41-.72,1.67l-1.49.59c-.66.26-1.41-.06-1.67-.72Z"/>
            <path class="cls-16" d="m18.15,44.78h0c-.04-.71.5-1.32,1.21-1.36l1.6-.09c.71-.04,1.32.5,1.36,1.21h0c.04.71-.5,1.32-1.21,1.36l-1.6.09c-.71.04-1.32-.5-1.36-1.21Z"/>
            <path class="cls-16" d="m23.36,44.82h0c.04-.71.65-1.25,1.35-1.22l1.6.09c.71.04,1.25.65,1.22,1.35h0c-.04.71-.65,1.25-1.35,1.22l-1.6-.09c-.71-.04-1.25-.65-1.22-1.35Z"/>
            <path class="cls-16" d="m28.67,45.4h0c-.23-.67.12-1.41.79-1.64l1.52-.53c.67-.23,1.41.12,1.64.79h0c.23.67-.12,1.41-.79,1.64l-1.52.53c-.67.23-1.41-.12-1.64-.79Z"/>
            <path class="cls-16" d="m33.43,43.56h0c-.26-.66.06-1.41.72-1.67l1.49-.59c.66-.26,1.41.06,1.67.72h0c.26.66-.06,1.41-.72,1.67l-1.49.59c-.66.26-1.41-.06-1.67-.72Z"/>
            <path class="cls-16" d="m38.69,42.03h0c.23-.67.96-1.03,1.63-.8l1.52.52c.67.23,1.03.96.8,1.63h0c-.23.67-.96,1.03-1.63.8l-1.52-.52c-.67-.23-1.03-.96-.8-1.63Z"/>
            <path class="cls-11" d="m42.33,47.72l.07-.24c.07-.25.09-.51.05-.76l-.05-.35c-.1-.7.39-1.36,1.09-1.45h0c.7-.1,1.36.39,1.45,1.09l.08.59"/>
          </g>
        </g>
        <line class="cls-20" x1="42.82" y1="35.65" x2="25.87" y2="35.65"/>
        <line class="cls-20" x1="45.7" y1="38.69" x2="32.14" y2="38.69"/>
        <line class="cls-20" x1="44.18" y1="33.62" x2="37.48" y2="33.62"/>
        <path class="cls-11" d="m38.21,78.31c-2.05-.7-4.14-1.26-6.27-1.69"/>
        <path class="cls-11" d="m33.81,75.21c-2.95-1.74-6.06-2.42-9.1-2.47"/>
        <circle class="cls-27" cx="22.84" cy="71.87" r=".57"/>
        <circle class="cls-27" cx="29.26" cy="75.45" r=".57"/>
        <circle class="cls-27" cx="26.64" cy="76.59" r=".57"/>
      </g>
    </symbol>
  </defs>
  <use width="142.3" height="100.07" xlink:href="#Neues_Symbol_5"/>
</svg>