<?xml version="1.0" encoding="UTF-8"?>
<svg id="BARRIEREFREI" xmlns="http://www.w3.org/2000/svg" xmlns:xlink="http://www.w3.org/1999/xlink" viewBox="0 0 142.32 114.56">
  <defs>
    <style>
      .cls-1, .cls-2, .cls-3, .cls-4, .cls-5, .cls-6, .cls-7, .cls-8, .cls-9, .cls-10, .cls-11, .cls-12, .cls-13, .cls-14, .cls-15, .cls-16, .cls-17, .cls-18, .cls-19, .cls-20, .cls-21, .cls-22 {
        stroke-width: .57px;
      }

      .cls-1, .cls-2, .cls-3, .cls-4, .cls-5, .cls-6, .cls-7, .cls-8, .cls-9, .cls-10, .cls-11, .cls-13, .cls-14, .cls-15, .cls-16, .cls-17, .cls-18, .cls-19, .cls-20, .cls-21, .cls-22 {
        stroke: #1e3791;
      }

      .cls-1, .cls-4, .cls-5, .cls-6, .cls-7, .cls-8, .cls-9, .cls-10, .cls-14 {
        stroke-linejoin: round;
      }

      .cls-1, .cls-4, .cls-10, .cls-11, .cls-12, .cls-13, .cls-15, .cls-16, .cls-22 {
        stroke-linecap: round;
      }

      .cls-1, .cls-9, .cls-23, .cls-11, .cls-15, .cls-21 {
        fill: #e1e1e1;
      }

      .cls-2, .cls-3, .cls-15, .cls-16, .cls-22 {
        stroke-miterlimit: 10;
      }

      .cls-2, .cls-5, .cls-16 {
        fill: #b6e6fa;
      }

      .cls-3, .cls-8, .cls-20 {
        fill: #1e3791;
      }

      .cls-4, .cls-7, .cls-24, .cls-19 {
        fill: #fff;
      }

      .cls-6, .cls-18 {
        fill: #e60032;
      }

      .cls-10, .cls-12, .cls-13, .cls-14, .cls-17, .cls-22 {
        fill: none;
      }

      .cls-12 {
        stroke: #fff;
      }
    </style>
    <symbol id="Neues_Symbol_3" data-name="Neues Symbol 3" viewBox="0 0 142.32 114.56">
      <g>
        <path class="cls-3" d="m142.02,66.71s0,0,0,0v-26.12c0-4.7-3.81-8.5-8.5-8.5h-44.95c-2.49,0-4.93-.65-7.09-1.9l-22.88-13.21c-2.15-1.24-4.6-1.9-7.09-1.9L8.79,33.19c-4.7,0-8.5,4.75-8.5,9.45v33.7c0,2.26.9,4.42,2.49,6.01l9.59,9.59c1.59,1.59,3.76,2.49,6.01,2.49h35.68c3.04,0,5.85,1.62,7.36,4.25l6.55,11.34c1.52,2.63,4.33,4.25,7.36,4.25h58.2c4.7,0,8.5-3.81,8.5-8.5v-39.06s0,0,0,0Z"/>
        <path class="cls-2" d="m142.02,55.37s0,0,0,0v-26.12c0-4.7-3.81-8.5-8.5-8.5h-44.95c-2.49,0-4.93-.65-7.09-1.9l-22.88-13.21c-2.15-1.24-4.6-1.9-7.09-1.9h-29.97c-3.04,0-5.85,1.62-7.36,4.25L2.18,28.75c-1.24,2.15-1.9,4.6-1.9,7.09v29.17c0,2.26.9,4.42,2.49,6.01l9.59,9.59c1.59,1.59,3.76,2.49,6.01,2.49h35.68c3.04,0,5.85,1.62,7.36,4.25l6.55,11.34c1.52,2.63,4.33,4.25,7.36,4.25h58.2c4.7,0,8.5-3.81,8.5-8.5v-39.06s0,0,0,0Z"/>
        <g>
          <path class="cls-5" d="m74.68,22.9c-.09-.73.07-1.46.45-2.08.48-.78.75-1.69.75-2.67,0-2.28-1.5-4.2-3.56-4.86-.62-.2-1.05-.7-1.21-1.33-.45-1.78-2.08-3.19-4.11-3.19s-3.65,1.34-4.11,3.2c-.15.62-.59,1.12-1.2,1.31-2.07.66-3.57,2.58-3.57,4.86,0,.98.28,1.89.75,2.67.38.62.54,1.34.45,2.06-.02.15-.03.32-.03.5,0,2.61,2.12,4.73,4.73,4.73.39,0,.77-.05,1.14-.14,1.2-.31,2.46-.31,3.67,0,.36.09.75.14,1.14.14,2.61,0,4.73-2.12,4.73-4.73,0-.1,0-.26-.03-.48Z"/>
          <line class="cls-22" x1="66.91" y1="32.25" x2="66.91" y2="13.94"/>
          <line class="cls-22" x1="66.91" y1="21.92" x2="62.57" y2="17.86"/>
          <line class="cls-22" x1="66.91" y1="24.29" x2="71.32" y2="21.57"/>
        </g>
        <g>
          <path class="cls-5" d="m71.43,27.96c.72-.8,1.11-1.84,1.11-2.92,0,0,0,0,0,0,0-1.99,1.61-3.6,3.6-3.6s3.6,1.61,3.6,3.6c0,1.08.4,2.11,1.11,2.92.99,1.11,1.59,2.56,1.59,4.16,0,3.48-2.82,6.31-6.31,6.31s-6.31-2.82-6.31-6.31c0-1.6.6-3.05,1.59-4.16Z"/>
          <polyline class="cls-22" points="76.14 41.92 76.14 34.17 78.24 28.35"/>
          <line class="cls-22" x1="76.14" y1="34.17" x2="73.19" y2="30.43"/>
        </g>
        <g>
          <g>
            <path class="cls-5" d="m5.75,22.44c0,2.16,1.11,4.04,2.78,5.12.75.49,1.19,1.33,1.16,2.23,0,.13,0,.26,0,.39.11,2.04,1.51,3.89,3.49,4.42,3.25.88,6.18-1.54,6.2-4.64,0-.89.45-1.76,1.23-2.2,1.83-1.05,3.08-3.03,3.08-5.31,0-1.47-.51-2.81-1.37-3.86-.7-.87-1-1.99-.82-3.09.04-.26.06-.52.06-.79,0-1.67-.85-3.13-2.13-4-.58-.39-.93-1.01-1.02-1.7-.25-1.86-1.86-3.27-3.77-3.27s-3.54,1.44-3.77,3.31c-.09.71-.43,1.33-1,1.75-1.21.88-1.99,2.3-1.99,3.91,0,.26.02.52.06.77.19,1.12-.1,2.23-.82,3.11-.85,1.05-1.37,2.39-1.37,3.86Z"/>
            <line class="cls-22" x1="14.72" y1="38.83" x2="14.72" y2="13.06"/>
          </g>
          <line class="cls-22" x1="14.72" y1="21.05" x2="18.39" y2="16.39"/>
          <line class="cls-22" x1="14.72" y1="25.72" x2="11.68" y2="22.45"/>
        </g>
        <g>
          <path class="cls-16" d="m58.6,18.2c-.84-1.05-1.13-2.41-.88-3.73.07-.38.11-.78.11-1.18,0-1.37-.44-2.64-1.19-3.67s-1.03-2.36-.7-3.58c.14-.52.19-1.09.13-1.67-.22-2.1-1.93-3.81-4.02-4.04-2.75-.3-5.07,1.85-5.07,4.54,0,.36.04.71.12,1.05.3,1.27.14,2.62-.63,3.66-.77,1.04-1.22,2.33-1.22,3.72,0,.4.04.8.11,1.18.26,1.33-.05,2.69-.89,3.76-1.22,1.55-1.95,3.5-1.92,5.63.06,4.67,3.81,8.59,8.48,8.85,5.2.29,9.5-3.84,9.5-8.98,0-2.1-.73-4.01-1.94-5.53Z"/>
          <line class="cls-15" x1="51.55" y1="40.61" x2="51.55" y2="4.59"/>
          <line class="cls-15" x1="51.55" y1="17.52" x2="47.49" y2="13.46"/>
          <line class="cls-15" x1="51.55" y1="24.6" x2="56.1" y2="20.04"/>
          <line class="cls-15" x1="51.55" y1="14.01" x2="54.56" y2="10.99"/>
        </g>
        <g>
          <polygon class="cls-21" points="73.52 73.76 20.82 73.76 20.82 22.9 41.57 22.9 73.52 73.76"/>
          <g>
            <rect class="cls-19" x="59.68" y="59.23" width="18.3" height="7.27"/>
            <rect class="cls-19" x="29.63" y="22.9" width="18.3" height="7.27"/>
            <rect class="cls-19" x="35.64" y="30.17" width="18.3" height="7.27"/>
            <rect class="cls-19" x="41.65" y="37.43" width="18.3" height="7.27"/>
            <rect class="cls-19" x="47.66" y="44.7" width="18.3" height="7.27"/>
            <rect class="cls-19" x="53.67" y="51.96" width="18.3" height="7.27"/>
            <rect class="cls-19" x="65.69" y="66.5" width="18.3" height="7.27"/>
          </g>
          <g>
            <line class="cls-10" x1="20.82" y1="37.27" x2="31.46" y2="37.27"/>
            <line class="cls-10" x1="23.78" y1="37.27" x2="23.78" y2="34.15"/>
            <line class="cls-10" x1="27.57" y1="37.25" x2="27.57" y2="40.61"/>
          </g>
          <g>
            <line class="cls-10" x1="44.49" y1="70.37" x2="57.48" y2="70.37"/>
            <line class="cls-10" x1="49.55" y1="70.37" x2="49.55" y2="67.24"/>
            <line class="cls-10" x1="53.58" y1="70.34" x2="53.58" y2="73.7"/>
          </g>
        </g>
        <g>
          <g>
            <path class="cls-19" d="m13.3,76v-31.22c0-.39.32-.71.71-.71s.71.32.71.71v31.22h-1.42Z"/>
            <path class="cls-19" d="m34.35,76v-31.22c0-.39.32-.71.71-.71s.71.32.71.71v31.22h-1.42Z"/>
          </g>
          <path class="cls-19" d="m10.31,46.76h30.18c.64,0,1.16.52,1.16,1.16v16.22c0,.64-.52,1.16-1.16,1.16H10.31c-.64,0-1.16-.52-1.16-1.16v-16.22c0-.64.52-1.16,1.16-1.16Z"/>
          <polyline class="cls-19" points="12.74 50.2 16.03 50.2 16.03 53.18 19.01 53.18 19.01 56.16 21.99 56.16 21.99 59.14 24.97 59.14 24.97 62.13 27.72 62.13"/>
          <polygon class="cls-6" points="30.19 51.53 24.76 50.07 26.21 55.5 27.7 54.01 35.47 61.78 36.46 60.78 28.7 53.02 30.19 51.53"/>
        </g>
        <g>
          <g>
            <g>
              <polygon id="SVGID" class="cls-23" points="82.35 80.9 84.53 88.8 88.58 88.36 86.41 80.47 82.35 80.9"/>
              <polygon id="SVGID-2" data-name="SVGID" class="cls-14" points="82.35 80.9 84.53 88.8 88.58 88.36 86.41 80.47 82.35 80.9"/>
            </g>
            <g>
              <path class="cls-7" d="m83.56,85.29l.26-.92c.09-.31.08-.63,0-.93l-.02-.06c-.1-.34-.4-.58-.75-.62h0c-.32-.03-.62.16-.72.47-.38,1.18-.73,2.05-1.56,3.43"/>
              <path class="cls-6" d="m71.08,90c.1-.55.61-.74,1.24-.85,4.68-.8,8.09-2.81,10.37-4.13,1.1-.51,1.03,2.56,3.01,2.23s1.49-2.44,2.61-2.27c0,0,1.7,2.32,1.63,4.63l-1.26,1.44-15.67.55-1.93-1.6Z"/>
              <line class="cls-10" x1="81.34" y1="85.06" x2="82.74" y2="86.51"/>
              <line class="cls-10" x1="80.33" y1="86.09" x2="81.19" y2="87.23"/>
              <line class="cls-10" x1="79.25" y1="86.66" x2="79.93" y2="87.77"/>
              <g>
                <path id="SVGID-3" data-name="SVGID" class="cls-24" d="m88.14,92.89h-10.59c-.08.03-.32,0-.4,0-3.61-.02-6-1.36-6.07-2.89,0,0,2.88,1.49,5.04,1.27,1.49-.15,2.58-.34,3.11-.45.25-.05.5-.05.75,0l1.64.32c.35.07.72-.02,1-.25l1.23-1.01c.35-.28.82-.35,1.24-.18l1.33.56c.4.17.86.11,1.21-.16l.51-.39c.27-.21.62-.29.96-.23l1.06.19,1.23,1.67c-.57.83-1.94,1.55-3.23,1.56Z"/>
                <path id="SVGID-4" data-name="SVGID" class="cls-14" d="m88.14,92.89h-10.59c-.08.03-.32,0-.4,0-3.61-.02-6-1.36-6.07-2.89,0,0,2.88,1.49,5.04,1.27,1.49-.15,2.58-.34,3.11-.45.25-.05.5-.05.75,0l1.64.32c.35.07.72-.02,1-.25l1.23-1.01c.35-.28.82-.35,1.24-.18l1.33.56c.4.17.86.11,1.21-.16l.51-.39c.27-.21.62-.29.96-.23l1.06.19,1.23,1.67c-.57.83-1.94,1.55-3.23,1.56Z"/>
              </g>
            </g>
            <polygon class="cls-9" points="87.14 81.89 82.35 82.67 81.72 80.57 86.51 79.78 87.14 81.89"/>
            <path class="cls-4" d="m77.86,59.94c-.08-.5-.16-1.01-.26-1.52-.54-2.88,1.85-5.47,4.77-5.15l30.27,3.32-4.52,11.23-20.39-3.72"/>
            <path class="cls-1" d="m84.56,65.12c1,4.79,3.14,8.34,3.54,10.47.37,1.97-.77,3.87-1.6,4.19l-4.79.78c-1.02.03-3.44-.91-4.11-3.41-.43-1.61-.27-6.82-1.38-12.97"/>
          </g>
          <g>
            <rect class="cls-21" x="72.2" y="92.89" width="13.64" height="1.21" rx=".61" ry=".61"/>
            <circle class="cls-21" cx="119.04" cy="79.64" r="20.01"/>
            <circle class="cls-19" cx="119.04" cy="79.64" r="17.5"/>
            <circle class="cls-21" cx="87.02" cy="96.11" r="3.54"/>
            <circle class="cls-20" cx="87.02" cy="96.11" r=".64"/>
            <path class="cls-13" d="m84.91,85.65v3.98c0,.83.16,1.64.47,2.41l1.64,4.07"/>
          </g>
          <g>
            <g>
              <rect class="cls-4" x="107.34" y="30.28" width="4.91" height="2.34"/>
              <g>
                <g>
                  <polygon id="SVGID-5" data-name="SVGID" class="cls-23" points="78.13 81.08 81.48 88.55 85.42 87.51 82.07 80.04 78.13 81.08"/>
                  <polygon id="SVGID-6" data-name="SVGID" class="cls-14" points="78.13 81.08 81.48 88.55 85.42 87.51 82.07 80.04 78.13 81.08"/>
                </g>
                <g>
                  <path class="cls-6" d="m79.98,85.3l.27-.92c.09-.3.09-.63,0-.93l-.02-.06c-.1-.34-.4-.58-.75-.62h0c-.32-.04-.62.16-.72.46-.39,1.18-.74,2.05-1.57,3.43"/>
                  <path class="cls-6" d="m67.47,89.95c.11-.55.61-.74,1.25-.85,4.68-.78,8.1-2.77,10.39-4.08,1.1-.51,1.02,2.56,3,2.24s1.5-2.43,2.62-2.26c0,0,1.69,2.33,1.61,4.63l-1.27,1.44-15.68.49-1.93-1.61Z"/>
                  <line class="cls-10" x1="77.76" y1="85.06" x2="79.15" y2="86.52"/>
                  <line class="cls-10" x1="76.74" y1="86.08" x2="77.6" y2="87.23"/>
                  <line class="cls-10" x1="75.66" y1="86.65" x2="76.34" y2="87.76"/>
                  <g>
                    <path id="SVGID-7" data-name="SVGID" class="cls-24" d="m84.52,92.91l-10.59-.04c-.08.03-.32,0-.4,0-3.61-.03-6-1.39-6.06-2.92,0,0,2.88,1.5,5.03,1.29,1.49-.15,2.58-.33,3.11-.43.25-.05.5-.05.75,0l1.64.32c.35.07.72-.02,1-.25l1.23-1c.35-.28.83-.35,1.24-.17l1.32.56c.4.17.86.11,1.21-.15l.51-.39c.27-.21.62-.29.96-.23l1.06.2,1.23,1.67c-.57.83-1.95,1.54-3.24,1.54Z"/>
                    <path id="SVGID-8" data-name="SVGID" class="cls-14" d="m84.52,92.91l-10.59-.04c-.08.03-.32,0-.4,0-3.61-.03-6-1.39-6.06-2.92,0,0,2.88,1.5,5.03,1.29,1.49-.15,2.58-.33,3.11-.43.25-.05.5-.05.75,0l1.64.32c.35.07.72-.02,1-.25l1.23-1c.35-.28.83-.35,1.24-.17l1.32.56c.4.17.86.11,1.21-.15l.51-.39c.27-.21.62-.29.96-.23l1.06.2,1.23,1.67c-.57.83-1.95,1.54-3.24,1.54Z"/>
                  </g>
                </g>
                <polygon class="cls-7" points="83.01 81.33 78.39 82.83 77.45 80.85 82.06 79.35 83.01 81.33"/>
                <path class="cls-4" d="m78.75,65.02c1.51,4.04,3.4,7.52,4.26,9.94.67,1.89-.17,3.94-.94,4.39l-4.62,1.5c-1.01.19-3.54-.37-4.58-2.74-.73-1.65-1.41-7.57-3.86-14.06-1.04-2.74.86-5.71,3.79-5.91l30.38-2.06-2.48,11.85-20.73-.08"/>
              </g>
              <path class="cls-4" d="m121.45,66.52c-9.2,1.17-9.75.78-13.4-1.75-4.25-2.95-9.25-8.3-12.87-8.13.47-6.55,3.67-10.61,4.99-14.15,0-1.5-.02-2.12-.02-4.51,0-2.57,2.42-5.31,5.11-5.76,3.91-.65,5.34-1.48,9.04.12,9.38,4.07,7.6,25.4,7.15,34.18Z"/>
              <polyline class="cls-4" points="109.07 41.64 109.07 47.92 100.17 47.92 100.17 39.42"/>
              <g>
                <path class="cls-11" d="m99.65,25.16c-.06.45.26.87.71.93l2.57.34c.45.06.87-.26.93-.71h0c.06-.45-.26-.87-.71-.93l-2.57-.34c-.45-.06-.87.26-.93.71h0Z"/>
                <path class="cls-11" d="m111.68,29.98c-1.92,2.65-5.62,3.25-8.27,1.33-2.65-1.92-3.25-5.62-1.33-8.27,1.92-2.65,5.62-3.25,8.27-1.33s3.25,5.62,1.33,8.27Z"/>
                <circle class="cls-8" cx="111.6" cy="22.59" r="1.3"/>
                <circle class="cls-8" cx="105.7" cy="24.16" r="2.35"/>
                <circle class="cls-8" cx="112.47" cy="24.63" r="1.44"/>
                <circle class="cls-8" cx="109.98" cy="21.39" r="1.26"/>
                <circle class="cls-8" cx="105.82" cy="22.25" r="2.27"/>
                <circle class="cls-8" cx="109.07" cy="24.68" r="3.89"/>
                <circle class="cls-8" cx="107.63" cy="19.42" r="1.44"/>
                <circle class="cls-8" cx="113.91" cy="27.51" r="1.44"/>
                <circle class="cls-8" cx="107.32" cy="29.27" r="1.44"/>
                <circle class="cls-8" cx="113.62" cy="33.69" r="1.64"/>
                <circle class="cls-8" cx="115.91" cy="29.63" r="1.8"/>
                <circle class="cls-8" cx="109.88" cy="20.63" r="1.65"/>
                <circle class="cls-8" cx="107.4" cy="32.09" r="2.18"/>
                <path class="cls-8" d="m105.34,28.47c.54.8.36,2.07.01,2.85-.45,1.01,2.75.35,2.75.35l-.37-2.4-2.39-.8Z"/>
                <circle class="cls-8" cx="110.31" cy="33.3" r="1.99"/>
                <circle class="cls-8" cx="111.75" cy="29.63" r="3.56"/>
                <circle class="cls-8" cx="115.71" cy="32.09" r="1.8"/>
                <path class="cls-11" d="m104.16,26.28c.22-.17.49-.28.79-.28.7,0,1.27.57,1.27,1.27s-.57,1.27-1.27,1.27"/>
                <g>
                  <path class="cls-6" d="m105.84,20.58s-4.3-1.84-6.5-1.88-3.41,2.12-1.48,3.03c2.21,1.04,4.69,2.02,10.89,3.02"/>
                  <path class="cls-6" d="m111.76,18.73l-2.37-.83c-2.66-.93-5.62.6-6.61,3.42l-.14.41c-.13.36.03.75.35.91l.35.17c3.09,1.45,6.46,2.48,10.15,3.06l.54.08c.34.05.67-.17.77-.52,1.36-4.85-2.51-6.51-3.04-6.69Z"/>
                </g>
              </g>
            </g>
            <line class="cls-12" x1="107.84" y1="16.63" x2="107.86" y2="14.86"/>
            <line class="cls-12" x1="104" y1="17.39" x2="102.64" y2="15.2"/>
            <line class="cls-12" x1="112.87" y1="17.57" x2="114.55" y2="14.86"/>
            <line class="cls-12" x1="116.09" y1="19.08" x2="118.45" y2="18.13"/>
          </g>
          <g>
            <rect class="cls-18" x="112.02" y="54.3" width="11.01" height="18.27"/>
            <path class="cls-13" d="m112.02,57.73v-5.99c0-1.16.94-2.09,2.09-2.09h3.14"/>
            <path class="cls-13" d="m123.03,57.73v-5.99c0-1.16.94-2.09,2.09-2.09h2.78"/>
            <path class="cls-18" d="m86.91,67.88h21.29c1.29,0,2.34,1.05,2.34,2.34v1.99h-25.97v-1.99c0-1.29,1.05-2.34,2.34-2.34Z"/>
            <path class="cls-18" d="m110.52,54.3h1.5v18.27h-3.11v-16.65c0-.89.72-1.62,1.62-1.62Z"/>
            <circle class="cls-21" cx="107.96" cy="79.64" r="20.01"/>
            <circle class="cls-19" cx="107.96" cy="79.64" r="17.5"/>
            <circle class="cls-17" cx="107.96" cy="79.64" r="2.17"/>
          </g>
          <g>
            <path class="cls-15" d="m99.44,79.35l-.78,4.93c.68.11,1.33-.36,1.43-1.04l.13-.81,3.69-.94.81-4.81-.5-1.94"/>
            <path class="cls-15" d="m100.72,81.04l2.53,5.62c.15.32.52.47.85.32h0c.32-.15.47-.52.32-.85l-2.53-5.62"/>
            <path class="cls-15" d="m101.04,80.19"/>
            <path class="cls-1" d="m100.4,80.33l2.46,5.46c.15.32,0,.7-.32.85h0c-.32.15-.7,0-.85-.32l-2.75-6.1c-.13-.28-.17-.59-.12-.9,1.16-7.35,2.72-13.89,2.72-31.4h6.1c0,7.72-1.28,15.69-3.01,23.38l-.62,2.66.54,1.75c.23.64.3,1.33.19,2.01l-.25,1.58c-.05.35,0,.71.14,1.03l1.49,3.3c.15.32,0,.7-.32.85h0c-.32.15-.7,0-.85-.32l-1.88-4.17"/>
            <path class="cls-15" d="m101.71,80.08l2.33,5.17c.15.32.52.47.85.32h0c.32-.15.47-.52.32-.85l-2.23-4.94"/>
          </g>
        </g>
      </g>
    </symbol>
  </defs>
  <use width="142.32" height="114.56" xlink:href="#Neues_Symbol_3"/>
</svg>