<?xml version="1.0" encoding="UTF-8"?>
<svg id="WARTEZEIT" xmlns="http://www.w3.org/2000/svg" xmlns:xlink="http://www.w3.org/1999/xlink" viewBox="0 0 142.3 109.53">
  <defs>
    <style>
      .cls-1, .cls-2, .cls-3, .cls-4 {
        fill: none;
      }

      .cls-5, .cls-6, .cls-7, .cls-8, .cls-9, .cls-10, .cls-11, .cls-12, .cls-3, .cls-4 {
        stroke: #1e3791;
      }

      .cls-5, .cls-6, .cls-7, .cls-8, .cls-3, .cls-4 {
        stroke-width: .57px;
      }

      .cls-5, .cls-6, .cls-9, .cls-10, .cls-11, .cls-12, .cls-4 {
        stroke-miterlimit: 10;
      }

      .cls-5, .cls-8, .cls-13, .cls-10, .cls-11, .cls-12 {
        fill: #e1e1e1;
      }

      .cls-6, .cls-7, .cls-9 {
        fill: #1e3791;
      }

      .cls-2 {
        stroke: #e1e1e1;
        stroke-width: 1.7px;
      }

      .cls-2, .cls-7, .cls-8, .cls-3 {
        stroke-linejoin: round;
      }

      .cls-9, .cls-10, .cls-11 {
        stroke-width: .51px;
      }

      .cls-14 {
        clip-path: url(#clippath-1);
      }

      .cls-15 {
        clip-path: url(#clippath-2);
      }

      .cls-11, .cls-12, .cls-4 {
        stroke-linecap: round;
      }

      .cls-12 {
        stroke-width: .51px;
      }
    </style>
    <clipPath id="clippath-1">
      <path class="cls-1" d="m68.71,25.75c-12.07,0-21.87,9.44-22.34,21.51h2.87c.46-10.46,8.99-18.65,19.47-18.65,9.13,0,16.06,4.89,18.54,13.08.39,1.29-.18,4.95-.71,5.56h2.41c1.31-1.51,1.66-4.37,1.04-6.39-2.87-9.47-10.83-15.12-21.29-15.12Z"/>
    </clipPath>
    <clipPath id="clippath-2">
      <path class="cls-3" d="m41.84,47.26c-1.53,0-3.02.63-4.05,1.77-1.92,2.15-2.85,4.66-2.68,7.3.25,3.95,2.87,7.96,7.57,11.6,2.24,1.73,3.18,3.56,2.81,5.43-.54,2.7-3.78,4.76-10.19,6.51-9.35,2.54-3.23,5.26,4.1,5.56.93.04,1.87.06,2.79.06h0c9.1,0,16.47-1.8,18.78-4.59.58-.7.77-1.41.62-2.24-.21-1.09.13-1.88.46-2.36,1-1.46,3.07-1.84,5.69-2.33,4.59-.84,10.3-1.9,12.75-8.06.92-2.32.47-5.28.02-8.14-.55-3.58-1.21-7.86,1.61-10.51h-40.28Z"/>
    </clipPath>
    <symbol id="Neues_Symbol_14" data-name="Neues Symbol 14" viewBox="0 0 142.3 109.53">
      <g>
        <path class="cls-6" d="m142.02,38.58c0-3.76-1.49-7.36-4.15-10.02l-8.71-8.71c-2.66-2.66-6.26-4.15-10.02-4.15h-36.65c-4.7,0-8.5,3.81-8.5,8.5v5.78c0,4.7-3.81,8.5-8.5,8.5H8.79c-4.7,0-8.5,3.81-8.5,8.5v53.75c0,4.7,3.81,8.5,8.5,8.5h54.51c3.76,0,7.36-1.49,10.02-4.15l8.71-8.71c2.66-2.66,6.26-4.15,10.02-4.15h41.46c4.7,0,8.5-3.81,8.5-8.5v-45.15Z"/>
        <path class="cls-5" d="m142.02,27.24c0-3.76-1.49-7.36-4.15-10.02l-8.71-8.71c-2.66-2.66-6.26-4.15-10.02-4.15h-36.65c-4.7,0-8.5,3.81-8.5,8.5v5.78c0,4.7-3.81,8.5-8.5,8.5H8.79c-4.7,0-8.5,3.81-8.5,8.5v53.75c0,4.7,3.81,8.5,8.5,8.5h54.51c3.76,0,7.36-1.49,10.02-4.15l8.71-8.71c2.66-2.66,6.26-4.15,10.02-4.15h41.46c4.7,0,8.5-3.81,8.5-8.5V27.24Z"/>
        <g>
          <path class="cls-8" d="m94.47,9.72c-.72-.8-1.11-1.84-1.11-2.92,0,0,0,0,0,0,0-1.99-1.61-3.6-3.6-3.6s-3.6,1.61-3.6,3.6c0,1.08-.4,2.11-1.11,2.92-.99,1.11-1.59,2.56-1.59,4.16,0,3.48,2.82,6.31,6.31,6.31s6.31-2.82,6.31-6.31c0-1.6-.6-3.05-1.59-4.16Z"/>
          <polyline class="cls-4" points="89.75 23.69 89.75 15.93 87.65 10.11"/>
          <line class="cls-4" x1="89.75" y1="15.93" x2="92.7" y2="12.2"/>
        </g>
        <g>
          <path class="cls-8" d="m115.2,14.41c-.09-.73.07-1.46.45-2.08.48-.78.75-1.69.75-2.67,0-2.28-1.5-4.2-3.56-4.86-.62-.2-1.05-.7-1.21-1.33-.45-1.78-2.08-3.19-4.11-3.19s-3.65,1.34-4.11,3.2c-.15.62-.59,1.12-1.2,1.31-2.07.66-3.57,2.58-3.57,4.86,0,.98.28,1.89.75,2.67.38.62.54,1.34.45,2.06-.02.15-.03.32-.03.5,0,2.61,2.12,4.73,4.73,4.73.39,0,.77-.05,1.14-.14,1.2-.31,2.46-.31,3.67,0,.36.09.75.14,1.14.14,2.61,0,4.73-2.12,4.73-4.73,0-.1,0-.26-.03-.48Z"/>
          <line class="cls-4" x1="107.42" y1="23.76" x2="107.42" y2="5.45"/>
          <line class="cls-4" x1="107.42" y1="13.43" x2="103.08" y2="9.37"/>
          <line class="cls-4" x1="107.42" y1="15.8" x2="111.84" y2="13.08"/>
        </g>
        <g>
          <g>
            <path class="cls-8" d="m112.14,18.35c0,2.16,1.11,4.04,2.78,5.12.75.49,1.19,1.33,1.16,2.23,0,.13,0,.26,0,.39.11,2.04,1.51,3.89,3.49,4.42,3.25.88,6.18-1.54,6.2-4.64,0-.89.45-1.76,1.23-2.2,1.83-1.05,3.08-3.03,3.08-5.31,0-1.47-.51-2.81-1.37-3.86-.7-.87-1-1.99-.82-3.09.04-.26.06-.52.06-.79,0-1.67-.85-3.13-2.13-4-.58-.39-.93-1.01-1.02-1.7-.25-1.86-1.86-3.27-3.77-3.27s-3.54,1.44-3.77,3.31c-.09.71-.43,1.33-1,1.75-1.21.88-1.99,2.3-1.99,3.91,0,.26.02.52.06.77.19,1.12-.1,2.23-.82,3.11-.85,1.05-1.37,2.39-1.37,3.86Z"/>
            <line class="cls-4" x1="121.1" y1="34.74" x2="121.1" y2="8.97"/>
          </g>
          <line class="cls-4" x1="121.1" y1="18.66" x2="124.78" y2="14"/>
          <line class="cls-4" x1="121.1" y1="23.33" x2="117.5" y2="19.49"/>
        </g>
        <g>
          <path class="cls-8" d="m16.02,51.91c-.59,0-1.07-.48-1.07-1.07s.48-1.07,1.07-1.07h13.66c1.42,0,2.66-1.04,2.82-2.45l1.41-12.79c.06-.59.62-.99,1.21-.91.59.08.98.62.91,1.21l-1.41,12.79c-.27,2.47-2.46,4.29-4.94,4.29h-1.28c-.95,0-1.72.77-1.72,1.72v10.25c0,.83.59,1.54,1.41,1.69l6.42,1.53v1h-18.45v-1l6.42-1.53c.82-.15,1.41-.86,1.41-1.69v-10.25c0-.95-.77-1.72-1.72-1.72h-6.15Z"/>
          <g>
            <path class="cls-13" d="m52.69,30.52l-1.7,15.4c-.1.92-.83,1.67-1.75,1.78-5.1.59-9.77.59-14.02.03-.86-.11-1.47-.91-1.37-1.78l1.7-15.43c.09-.86.82-1.51,1.68-1.51h17.14c-.86,0-1.59.65-1.68,1.51Zm21.11-1.51h-17.14c-.86,0-1.59.65-1.68,1.51l-1.7,15.43c-.1.87.51,1.67,1.37,1.78,4.25.56,8.92.56,14.02-.03.92-.11,1.65-.85,1.75-1.78l1.7-15.4c.09-.86.82-1.51,1.68-1.51Zm19.49,0h-17.14c-.86,0-1.59.65-1.68,1.51l-1.7,15.43c-.1.87.51,1.67,1.37,1.78,4.25.56,8.92.56,14.02-.03.92-.11,1.65-.85,1.75-1.78l1.7-15.4c.09-.86.82-1.51,1.68-1.51Zm19.49,0h-17.14c-.86,0-1.59.65-1.68,1.51l-1.7,15.43c-.1.87.51,1.67,1.37,1.78,4.25.56,8.92.56,14.02-.03.92-.11,1.65-.85,1.75-1.78l1.7-15.4c.09-.86.82-1.51,1.68-1.51Zm19.49,0h-17.14c-.86,0-1.59.65-1.68,1.51l-1.7,15.42c-.1.87.51,1.67,1.38,1.79,4.69.61,9.87.56,15.59-.23l1.87-16.98c.09-.86.82-1.51,1.68-1.51Z"/>
            <path class="cls-3" d="m52.69,30.52l-1.7,15.4c-.1.92-.83,1.67-1.75,1.78-5.1.59-9.77.59-14.02.03-.86-.11-1.47-.91-1.37-1.78l1.7-15.43c.09-.86.82-1.51,1.68-1.51h17.14c-.86,0-1.59.65-1.68,1.51Zm21.11-1.51h-17.14c-.86,0-1.59.65-1.68,1.51l-1.7,15.43c-.1.87.51,1.67,1.37,1.78,4.25.56,8.92.56,14.02-.03.92-.11,1.65-.85,1.75-1.78l1.7-15.4c.09-.86.82-1.51,1.68-1.51Zm19.49,0h-17.14c-.86,0-1.59.65-1.68,1.51l-1.7,15.43c-.1.87.51,1.67,1.37,1.78,4.25.56,8.92.56,14.02-.03.92-.11,1.65-.85,1.75-1.78l1.7-15.4c.09-.86.82-1.51,1.68-1.51Zm19.49,0h-17.14c-.86,0-1.59.65-1.68,1.51l-1.7,15.43c-.1.87.51,1.67,1.37,1.78,4.25.56,8.92.56,14.02-.03.92-.11,1.65-.85,1.75-1.78l1.7-15.4c.09-.86.82-1.51,1.68-1.51Zm19.49,0h-17.14c-.86,0-1.59.65-1.68,1.51l-1.7,15.42c-.1.87.51,1.67,1.38,1.79,4.69.61,9.87.56,15.59-.23l1.87-16.98c.09-.86.82-1.51,1.68-1.51Z"/>
          </g>
          <rect class="cls-8" x="31.55" y="49.77" width="89.08" height="1.86"/>
          <path class="cls-8" d="m34.46,49.77h-16.05c-1.12,0-2.02.85-2.18,1.95l-.04.29c-.04.29.05.58.24.8s.47.35.76.35h13.58c.76,0,1.4-.56,1.5-1.3l.02-.13c.16-1.11,1.06-1.95,2.18-1.95Z"/>
          <path class="cls-8" d="m46.94,49.77c1.42,0,2.66-1.04,2.82-2.45l1.41-12.79c.06-.59.62-.99,1.21-.91.59.08.98.62.91,1.21l-1.41,12.79c-.27,2.47-2.46,4.29-4.94,4.29h-1.28c-.95,0,1.28-2.15,1.28-2.15Z"/>
          <line class="cls-3" x1="53.89" y1="49.77" x2="121.48" y2="49.77"/>
          <rect class="cls-8" x="25.32" y="55.85" width="95.31" height="3.74"/>
          <path class="cls-8" d="m53.89,49.77h-16.05c-1.12,0-2.02.85-2.18,1.95l-.04.29c-.04.29.05.58.24.8s.47.35.76.35h13.58c.76,0,1.4-.56,1.5-1.3l.02-.13c.16-1.11,1.06-1.95,2.18-1.95Z"/>
          <path class="cls-8" d="m66.37,49.77c1.42,0,2.66-1.04,2.82-2.45l1.41-12.79c.06-.59.62-.99,1.21-.91.59.08.98.62.91,1.21l-1.41,12.79c-.27,2.47-2.46,4.29-4.94,4.29h-1.28c-.95,0,1.28-2.15,1.28-2.15Z"/>
          <path class="cls-8" d="m73.38,49.77h-16.05c-1.12,0-2.02.85-2.18,1.95l-.04.29c-.04.29.05.58.24.8s.47.35.76.35h13.58c.76,0,1.4-.56,1.5-1.3l.02-.13c.16-1.11,1.06-1.95,2.18-1.95Z"/>
          <path class="cls-8" d="m85.96,49.77c1.42,0,2.66-1.04,2.82-2.45l1.41-12.79c.06-.59.62-.99,1.21-.91.59.08.98.62.91,1.21l-1.41,12.79c-.27,2.47-2.46,4.29-4.94,4.29h-1.28c-.95,0,1.28-2.15,1.28-2.15Z"/>
          <path class="cls-8" d="m92.88,49.77h-16.05c-1.12,0-2.02.85-2.18,1.95l-.04.29c-.04.29.05.58.24.8s.47.35.76.35h13.58c.76,0,1.4-.56,1.5-1.3l.02-.13c.16-1.11,1.06-1.95,2.18-1.95Z"/>
          <path class="cls-8" d="m105.56,49.77c1.42,0,2.66-1.04,2.82-2.45l1.41-12.79c.06-.59.62-.99,1.21-.91.59.08.98.62.91,1.21l-1.41,12.79c-.27,2.47-2.46,4.29-4.94,4.29h-1.28c-.95,0,1.28-2.15,1.28-2.15Z"/>
          <path class="cls-8" d="m112.37,49.77h-16.05c-1.12,0-2.02.85-2.18,1.95l-.04.29c-.04.29.05.58.24.8s.47.35.76.35h13.58c.76,0,1.4-.56,1.5-1.3l.02-.13c.16-1.11,1.06-1.95,2.18-1.95Z"/>
          <path class="cls-8" d="m111.85,51.91c-.59,0-1.07-.48-1.07-1.07s.48-1.07,1.07-1.07h13.08c1.42,0,2.66-1.04,2.82-2.45l1.41-12.79c.06-.59.62-.99,1.21-.91.59.08.98.62.91,1.21l-1.41,12.79c-.27,2.47-2.46,4.29-4.94,4.29h-13.08Z"/>
          <path class="cls-8" d="m111.26,51.91c-.59,0-1.07-.48-1.07-1.07s.48-1.07,1.07-1.07h13.66c1.42,0,2.66-1.04,2.82-2.45l1.41-12.79c.06-.59.62-.99,1.21-.91.59.08.98.62.91,1.21l-1.41,12.79c-.27,2.47-2.46,4.29-4.94,4.29h-1.28c-.95,0-1.72.77-1.72,1.72v10.25c0,.83.59,1.54,1.41,1.69l6.42,1.53v1h-18.45v-1l6.42-1.53c.82-.15,1.41-.86,1.41-1.69v-10.25c0-.95-.77-1.72-1.72-1.72h-6.15Z"/>
        </g>
        <g>
          <path class="cls-8" d="m94.58,40.35c-2.89-9.53-11.08-16.39-23-16.39-13.06,0-23.67,10.36-24.13,23.3h2.72l-13.99,2.37c-5.72,5.73,3.55,14.61,13.4,22.25,4.46,3.45-4.13,6.36-12.97,8.76-2.02.55-3.72,1.35-4.91,2.24l-.89-.41-2.3,1.78,1.79,2.51h0c1.06,1.48,4.33,2.69,10.81,2.95,12.81.52,25.23-3.1,24.66-8.97-.42-4.31,12.74-.4,18.17-11.67,4.14-8.6-2.78-16.38,2.49-18.89.56-.27,1.18-.42,1.81-.42h1.24c1.04,0,3.12-.45,4.42-2.51,1.21-1.91,1.23-5.1.68-6.91Z"/>
          <path class="cls-8" d="m68.71,23.96c-13.06,0-23.67,10.36-24.13,23.3h45.14c.89,0,1.7-.57,1.97-1.42.56-1.82.45-4.08.02-5.5-2.89-9.53-11.08-16.39-23-16.39Z"/>
          <path class="cls-13" d="m46.38,47.26c.46-12.07,10.26-21.51,22.34-21.51,10.46,0,18.42,5.65,21.29,15.12.45,1.49.38,3.45-.22,4.98-.34.87-1.19,1.42-2.12,1.42h-4.34"/>
          <g class="cls-14">
            <g>
              <line class="cls-3" x1="30.66" y1="66.18" x2="100.89" y2="35.93"/>
              <line class="cls-3" x1="28.57" y1="59.85" x2="102.98" y2="42.26"/>
              <line class="cls-3" x1="27.61" y1="53.26" x2="103.95" y2="48.85"/>
              <line class="cls-3" x1="27.8" y1="46.6" x2="103.75" y2="55.52"/>
              <line class="cls-3" x1="29.15" y1="40.07" x2="102.4" y2="62.04"/>
              <line class="cls-3" x1="31.62" y1="33.88" x2="99.93" y2="68.23"/>
              <line class="cls-3" x1="35.12" y1="28.21" x2="96.43" y2="73.91"/>
              <line class="cls-3" x1="39.55" y1="23.23" x2="92" y2="78.88"/>
              <line class="cls-3" x1="44.78" y1="19.1" x2="86.77" y2="83.01"/>
              <line class="cls-3" x1="50.65" y1="15.94" x2="80.9" y2="86.17"/>
              <line class="cls-3" x1="56.98" y1="13.85" x2="74.57" y2="88.26"/>
              <line class="cls-3" x1="63.57" y1="12.89" x2="67.98" y2="89.23"/>
              <line class="cls-3" x1="70.24" y1="13.08" x2="61.32" y2="89.03"/>
              <line class="cls-3" x1="76.76" y1="14.43" x2="54.79" y2="87.68"/>
              <line class="cls-3" x1="82.96" y1="16.9" x2="48.6" y2="85.21"/>
              <line class="cls-3" x1="88.63" y1="20.4" x2="42.93" y2="81.71"/>
              <line class="cls-3" x1="93.6" y1="24.83" x2="37.95" y2="77.28"/>
              <line class="cls-3" x1="97.73" y1="30.06" x2="33.82" y2="72.05"/>
              <line class="cls-3" x1="100.89" y1="35.93" x2="30.66" y2="66.18"/>
              <line class="cls-3" x1="102.98" y1="42.26" x2="28.57" y2="59.85"/>
              <line class="cls-3" x1="103.95" y1="48.85" x2="27.61" y2="53.26"/>
              <line class="cls-3" x1="103.75" y1="55.52" x2="27.8" y2="46.6"/>
              <line class="cls-3" x1="102.4" y1="62.04" x2="29.15" y2="40.07"/>
              <line class="cls-3" x1="99.93" y1="68.23" x2="31.62" y2="33.88"/>
              <line class="cls-3" x1="96.43" y1="73.91" x2="35.12" y2="28.21"/>
              <line class="cls-3" x1="92" y1="78.88" x2="39.55" y2="23.23"/>
              <line class="cls-3" x1="86.77" y1="83.01" x2="44.78" y2="19.1"/>
              <line class="cls-3" x1="80.9" y1="86.17" x2="50.65" y2="15.94"/>
              <line class="cls-3" x1="74.57" y1="88.26" x2="56.98" y2="13.85"/>
              <line class="cls-3" x1="67.98" y1="89.23" x2="63.57" y2="12.89"/>
              <line class="cls-3" x1="61.32" y1="89.03" x2="70.24" y2="13.08"/>
            </g>
            <path class="cls-2" d="m46.38,47.26c.46-12.07,10.26-21.51,22.34-21.51,10.46,0,18.42,5.65,21.29,15.12.61,2.02.26,4.89-1.04,6.39"/>
          </g>
          <path class="cls-3" d="m46.38,47.26c.46-12.07,10.26-21.51,22.34-21.51,10.46,0,18.42,5.65,21.29,15.12.45,1.49.38,3.45-.22,4.98-.34.87-1.19,1.42-2.12,1.42h-4.34"/>
          <path class="cls-8" d="m39.32,87.21c12.81.52,25.25-2.44,24.02-8.89-.81-4.26,14.18-.13,18.8-11.75,2.74-6.88-4.39-16.65,3.51-19.31h-46.71c-1.39,0-2.68.68-3.48,1.81-4,5.66-2.75,13.4,6.11,20.27,4.46,3.45,2.08,6.39-6.76,8.8-8.1,2.2-11.27,8.43,4.5,9.07Z"/>
          <path class="cls-13" d="m41.84,47.26c-1.53,0-3.02.63-4.05,1.77-1.92,2.15-2.85,4.66-2.68,7.3.25,3.95,2.87,7.96,7.57,11.6,2.24,1.73,3.18,3.56,2.81,5.43-.54,2.7-3.78,4.76-10.19,6.51-9.35,2.54-3.23,5.26,4.1,5.56.93.04,1.87.06,2.79.06h0c9.1,0,16.47-1.8,18.78-4.59.58-.7.77-1.41.62-2.24-.21-1.09.13-1.88.46-2.36,1-1.46,3.07-1.84,5.69-2.33,4.59-.84,10.3-1.9,12.75-8.06.92-2.32.47-5.28.02-8.14-.55-3.58-1.21-7.86,1.61-10.51h-40.28Z"/>
          <path class="cls-3" d="m58.49,54.06c-3.17,5.66-5.57,7.79-3.22,11.29,2.45,3.66,3.22,6.99.16,8.71s-1.62,4.48-7.2,5.94"/>
          <line class="cls-3" x1="65.29" y1="47.26" x2="59.97" y2="34.37"/>
          <path class="cls-7" d="m50.64,77.62l2.12,1.93s-4.54,1.1-6.36,1.2c2.66-1.56,4.24-3.13,4.24-3.13Z"/>
          <polygon class="cls-7" points="59.97 34.37 60.35 39.18 63.1 38.05 59.97 34.37"/>
          <g>
            <g class="cls-15">
              <g>
                <line class="cls-3" x1="37.99" y1="85.48" x2="43.83" y2="82.38"/>
                <line class="cls-3" x1="50.62" y1="85.45" x2="52.08" y2="81.78"/>
                <line class="cls-3" x1="58.24" y1="82.97" x2="57.94" y2="79.18"/>
                <line class="cls-3" x1="61.84" y1="77.36" x2="60.28" y2="73.5"/>
                <line class="cls-3" x1="65.91" y1="74.32" x2="64.79" y2="71.33"/>
                <line class="cls-3" x1="70.3" y1="73.5" x2="69.16" y2="70.44"/>
                <line class="cls-3" x1="74.83" y1="71.82" x2="73.01" y2="69.65"/>
                <line class="cls-3" x1="77.95" y1="69.44" x2="75.81" y2="67.43"/>
                <line class="cls-3" x1="80.51" y1="65.57" x2="77.27" y2="63.87"/>
                <line class="cls-3" x1="81.05" y1="60.34" x2="77.27" y2="59.36"/>
                <line class="cls-3" x1="80.44" y1="55.76" x2="76.66" y2="54.97"/>
                <line class="cls-3" x1="80.03" y1="50.84" x2="76.65" y2="50.84"/>
                <g>
                  <line class="cls-3" x1="44.07" y1="75.81" x2="48.75" y2="73.5"/>
                  <line class="cls-3" x1="42.44" y1="68.49" x2="46.1" y2="66.47"/>
                  <line class="cls-3" x1="38.93" y1="64.98" x2="42.24" y2="62.99"/>
                  <line class="cls-3" x1="36.8" y1="61.32" x2="40.07" y2="59.79"/>
                  <line class="cls-3" x1="34.91" y1="57.15" x2="39.21" y2="56.3"/>
                  <line class="cls-3" x1="35.02" y1="52.53" x2="39.32" y2="52.27"/>
                  <line class="cls-3" x1="37.06" y1="48.94" x2="41.36" y2="49.35"/>
                  <line class="cls-3" x1="31.24" y1="82.73" x2="38.45" y2="81.63"/>
                </g>
              </g>
              <path class="cls-2" d="m39.71,47.26c-3.21,2.48-4.82,5.66-4.6,9.06.25,3.95,2.87,7.96,7.57,11.6,2.24,1.73,3.18,3.56,2.81,5.43-.54,2.7-3.78,4.76-10.19,6.51-9.35,2.54-3.23,5.26,4.1,5.56.93.04,1.87.06,2.79.06h0c9.1,0,16.47-1.8,18.78-4.59.58-.7.77-1.41.62-2.24-.21-1.09.13-1.88.46-2.36,1-1.46,3.07-1.84,5.69-2.33,4.59-.84,10.3-1.9,12.75-8.06.92-2.32.47-5.28.02-8.14-.55-3.58-1.21-7.86,1.61-10.51h-42.41Z"/>
            </g>
            <path class="cls-3" d="m41.84,47.26c-1.53,0-3.02.63-4.05,1.77-1.92,2.15-2.85,4.66-2.68,7.3.25,3.95,2.87,7.96,7.57,11.6,2.24,1.73,3.18,3.56,2.81,5.43-.54,2.7-3.78,4.76-10.19,6.51-9.35,2.54-3.23,5.26,4.1,5.56.93.04,1.87.06,2.79.06h0c9.1,0,16.47-1.8,18.78-4.59.58-.7.77-1.41.62-2.24-.21-1.09.13-1.88.46-2.36,1-1.46,3.07-1.84,5.69-2.33,4.59-.84,10.3-1.9,12.75-8.06.92-2.32.47-5.28.02-8.14-.55-3.58-1.21-7.86,1.61-10.51h-40.28Z"/>
          </g>
          <path class="cls-3" d="m58.24,53.26c-3.6-2.03-3.21-4.75-1.02-6"/>
          <ellipse class="cls-8" cx="58.49" cy="54.06" rx="3.06" ry="2.11" transform="translate(-10.07 94.6) rotate(-73.34)"/>
          <ellipse class="cls-8" cx="58.49" cy="54.06" rx="1.18" ry=".81" transform="translate(-10.07 94.6) rotate(-73.34)"/>
        </g>
        <g>
          <line class="cls-12" x1="3.99" y1="76.14" x2="3.25" y2="83.66"/>
          <line class="cls-11" x1="7.03" y1="75.16" x2="7.77" y2="83.66"/>
          <line class="cls-11" x1="20.13" y1="76.14" x2="19.38" y2="83.66"/>
          <line class="cls-11" x1="23.16" y1="75.16" x2="23.9" y2="83.66"/>
          <polygon class="cls-9" points="3.7 79.1 19.27 79.1 21.02 60.03 5.45 60.03 3.7 79.1"/>
          <polygon class="cls-10" points="7.45 80.08 23.59 80.08 21.84 60.03 5.7 60.03 7.45 80.08"/>
        </g>
        <g>
          <path class="cls-8" d="m18.68,66.89c-1.78,0-3.18,1.04-3.96,1.79-.82-.73-2.28-1.79-3.9-1.79s-3.01,1.35-3.01,3.01,1.35,3.01,3.01,3.01c1.78,0,3.18-1.04,3.96-1.79h0c.82.73,2.28,1.79,3.9,1.79s3.01-1.35,3.01-3.01-1.35-3.01-3.01-3.01Zm-9.23,3.01c0-.75.61-1.37,1.37-1.37,1.05,0,2.16.78,2.84,1.39-.57.55-1.61,1.34-2.84,1.34-.75,0-1.37-.61-1.37-1.37Zm9.23,1.37c-1.05,0-2.16-.78-2.84-1.39.57-.55,1.61-1.34,2.84-1.34.75,0,1.37.61,1.37,1.37s-.61,1.37-1.37,1.37Z"/>
          <path class="cls-13" d="m15.41,68.09c-1.03.77-1.36,1.38-1.82,1.86-.16.17-.36.35-.6.53.17.56.59,1.01,1.13,1.22.99-.75,1.33-1.36,1.78-1.82.19-.2.44-.42.73-.63-.2-.55-.65-.98-1.21-1.16Z"/>
          <path class="cls-4" d="m18.68,68.54c-1.27,0-2.24.78-2.78,1.33-.47.48-.8,1.12-1.9,1.92"/>
          <path class="cls-4" d="m10.81,71.28c1.27,0,2.24-.78,2.78-1.33.47-.48.8-1.12,1.9-1.92"/>
        </g>
      </g>
    </symbol>
  </defs>
  <use width="142.3" height="109.53" xlink:href="#Neues_Symbol_14"/>
</svg>