<svg id="Ebene_1" data-name="Ebene 1" xmlns="http://www.w3.org/2000/svg" width="500mm" height="100mm" viewBox="0 0 1417.32 283.46"><defs><style>.cls-1{fill:#1d1d1b;}</style></defs><path class="cls-1" d="M0,0V283.46H1417.32V0ZM566.93,277.8H5.67V5.67H566.93Zm566.93,0H572.6V5.67h561.26Zm277.79,0H1139.53V5.67h272.12Z"/><path class="cls-1" d="M1052.48,96v62.44c0,.81-.54,1.08-1,.27L1015.9,95.47a2.38,2.38,0,0,0-2-1.08H998.63A1.56,1.56,0,0,0,997,96v91.16a1.56,1.56,0,0,0,1.62,1.62h13.22a1.56,1.56,0,0,0,1.62-1.62v-62.3c0-.81.54-1.08.95-.27l35.63,63.11a2.38,2.38,0,0,0,2,1.08h15.25a1.57,1.57,0,0,0,1.63-1.62V96a1.57,1.57,0,0,0-1.63-1.62H1054.1a1.56,1.56,0,0,0-1.62,1.62m-95.36,92.78h13.36a1.56,1.56,0,0,0,1.62-1.62V96a1.56,1.56,0,0,0-1.62-1.62H957.12A1.57,1.57,0,0,0,955.5,96v91.16a1.57,1.57,0,0,0,1.62,1.62m-53.28-16.45V96a1.57,1.57,0,0,0-1.62-1.62H888.86A1.56,1.56,0,0,0,887.24,96v91.16a1.56,1.56,0,0,0,1.62,1.62h46a1.56,1.56,0,0,0,1.62-1.62V174.76a1.56,1.56,0,0,0-1.62-1.62H904.65a.77.77,0,0,1-.81-.8M816.54,110h12.29c10.93,0,19.7,5.8,19.7,17.8s-8.77,17.8-19.84,17.8H816.54a.77.77,0,0,1-.8-.81v-34a.71.71,0,0,1,.8-.8m31.32,78.75h17c1.35,0,1.75-.95.95-2l-20.25-27.37a.78.78,0,0,1,.27-1.21c12-4.86,20-15.51,20-30.34,0-21-15.93-33.45-36.18-33.45H800.75A1.57,1.57,0,0,0,799.13,96v91.16a1.57,1.57,0,0,0,1.62,1.62h13.36a1.57,1.57,0,0,0,1.63-1.62V162.09a.77.77,0,0,1,.8-.81H826.8a1.66,1.66,0,0,1,1.08.54L846,187.71a2.16,2.16,0,0,0,1.89,1.08M774.6,108.42V96A1.57,1.57,0,0,0,773,94.39H723.85A1.57,1.57,0,0,0,722.23,96v91.16a1.57,1.57,0,0,0,1.62,1.62H773a1.57,1.57,0,0,0,1.62-1.62V174.76a1.57,1.57,0,0,0-1.62-1.62H739.51a.77.77,0,0,1-.81-.8V149.68a.78.78,0,0,1,.81-.81H773a1.56,1.56,0,0,0,1.62-1.62V135a1.57,1.57,0,0,0-1.62-1.62H739.51a.71.71,0,0,1-.81-.8V110.84a.77.77,0,0,1,.81-.8H773a1.57,1.57,0,0,0,1.62-1.62M669.38,173.14H655.07a.77.77,0,0,1-.81-.8V149.68a.72.72,0,0,1,.81-.81h14.31c8.77,0,13.63,5,13.63,12.14s-4.86,12.13-13.63,12.13M668,110c8.5,0,13.22,4.58,13.22,11.59s-4.72,11.73-13.22,11.73h-13a.71.71,0,0,1-.81-.8V110.84a.71.71,0,0,1,.81-.8Zm19.7,29.66a22.57,22.57,0,0,0,10.8-19.82c0-14.43-10-25.49-28.34-25.49H639.41A1.56,1.56,0,0,0,637.8,96v91.16a1.56,1.56,0,0,0,1.61,1.62h32c18.9,0,28.88-11.47,28.88-26.57,0-9.84-4.72-17.26-12.55-21.44-.54-.4-.54-.81,0-1.08"/><path class="cls-1" d="M1317.24,222.16s-5-32.87-7.3-46.73l1-.21a3.05,3.05,0,0,0,2-4.53c-5.61-9.66-7.62-21.69-7.62-33.65a64.34,64.34,0,0,1,3.51-21c.13-.38.26-.75.4-1.13l.28-.81a62,62,0,0,0,5-18.43,52.39,52.39,0,0,0-4.1-25.28c-.15-.27-.3-.54-.46-.8a6.56,6.56,0,0,0,.86-8c-1.83-3.16-5.59-4.42-8.4-2.8-.29.17-1,.66-1.3.89-.51-.38-.81-.57-.81-.57s-.79-.52-1.47-.87c0,0-.26-.13-.26-.14a22.88,22.88,0,0,0-9.37-1.95,23.68,23.68,0,0,0-4.8.49,23.27,23.27,0,0,0-9.1,4.08,13.57,13.57,0,0,1-2.88.55l-3.8.18c-1.79.07-3.83,0-3.83,0a1.62,1.62,0,0,0-1.62,1.62c0,.08.59,5.3.59,5.32a4.27,4.27,0,0,0,1.79,3.25l.13.09a1.42,1.42,0,0,1,.6.62,5.87,5.87,0,0,0,1.84,2.62c.26.16.67.08.74-.21.73-2.85,2.43.22,5.66-1.53.83-.45,1.27,1.57.92,2.45l-.3.76a5.1,5.1,0,0,1-4,3.18c-1.43.21-2.25.35-2.23.55.17,1.61,0,3,1.62,4a3.94,3.94,0,0,0,.71.31c2.51.66,9.84,3.47.53,14.46a23.43,23.43,0,0,0-1.57,2,5.25,5.25,0,0,0-.51.89l-.2.39-28-10.47a6.38,6.38,0,0,1-2.44-2l-2.76-4.74a7.27,7.27,0,0,0-6.18-3.51,24.92,24.92,0,0,0-3.9,0c-.83,0-1.31.24-1.49.73a5.07,5.07,0,0,0,.61,3.51l2.4,4.41c.21.31,3.24,7.09,3.24,7.09a5.05,5.05,0,0,0,1.51,2.14L1261.29,121,1231,136.11a3.72,3.72,0,0,1-2.85.29l-2.71-.82c-5-2.21-8.69-.67-10.88,1.16l-.85.81a1.44,1.44,0,0,0,.41,2.4s4.78,2.81,5.84,3.53l7.44,4.41a5.45,5.45,0,0,0,3.83.62l29.41-5.93a101.78,101.78,0,0,0,3.54,20.62,53,53,0,0,0-15,28.19c-1.42,7.94-1,15.13,1.21,23.59-4.11.23-8.07.83-11.36,3.12-3.14,2.18-3.78,6.06-3.8,8l23,.05h1.94a3.29,3.29,0,0,0,3-2.44,15.48,15.48,0,0,0,.43-2.38,51.59,51.59,0,0,1,5.39-17.6,58.19,58.19,0,0,1,9.15-12.65,91.22,91.22,0,0,0,26,24.1,25.58,25.58,0,0,0-9.56,2.57,9.83,9.83,0,0,0-4.76,8.46h23.79a3.68,3.68,0,0,0,3.49-2.49,3.9,3.9,0,0,0,.12-.46c0-.11,0-.23,0-.34A3.14,3.14,0,0,0,1317.24,222.16Z"/><path class="cls-1" d="M74.07,91.08a11.22,11.22,0,0,1-4.27-5.81l0-.2a.48.48,0,0,1,.35-.45l2.55-1.05a.58.58,0,0,1,.25,0,.37.37,0,0,1,.25.1.87.87,0,0,1,.15.25,7.66,7.66,0,0,0,2.87,4.2,8.2,8.2,0,0,0,4.93,1.51,7.71,7.71,0,0,0,5.47-1.81,6.69,6.69,0,0,0,.2-9.19,9,9,0,0,0-4.72-2.31l-2.55-.5a11.23,11.23,0,0,1-6.33-3.22,8.93,8.93,0,0,1-2.32-6.38A9.21,9.21,0,0,1,72.2,61.3a9.72,9.72,0,0,1,3.72-3.53,11.21,11.21,0,0,1,5.43-1.3,10.76,10.76,0,0,1,10.5,7.2.34.34,0,0,1,.05.21.48.48,0,0,1-.35.44L89,65.42a.49.49,0,0,1-.25,0,.32.32,0,0,1-.25-.1.48.48,0,0,1-.15-.25,8,8,0,0,0-2.78-3.7,7,7,0,0,0-4.17-1.35,6.71,6.71,0,0,0-4.83,1.7,5.77,5.77,0,0,0-1.77,4.35,5.56,5.56,0,0,0,1.4,3.9,7,7,0,0,0,4.15,2l2.55.5A13.8,13.8,0,0,1,89.7,76a9,9,0,0,1,2.7,6.9A10.17,10.17,0,0,1,91,88.12a9.49,9.49,0,0,1-4,3.7,12.76,12.76,0,0,1-6,1.35A12,12,0,0,1,74.07,91.08Z"/><path class="cls-1" d="M102.77,91.37A10.52,10.52,0,0,1,98.6,87.1a14.36,14.36,0,0,1,0-12.72,10.58,10.58,0,0,1,4.05-4.25,11.3,11.3,0,0,1,5.78-1.5,11.13,11.13,0,0,1,5.72,1.5,10.57,10.57,0,0,1,4,4.12,12,12,0,0,1,1.45,5.92,10.68,10.68,0,0,1,0,1.15.48.48,0,0,1-.5.4H101.4c-.4,0-.55.22-.45.65a8.23,8.23,0,0,0,2.52,5.25,7.74,7.74,0,0,0,5.43,2,8.84,8.84,0,0,0,6.55-2.9c.37-.37.65-.44.85-.21l1.65,1.8a.39.39,0,0,1,0,.65,12.63,12.63,0,0,1-4.13,2.93,12.11,12.11,0,0,1-4.92,1A12.34,12.34,0,0,1,102.77,91.37ZM115.7,78.23a7.61,7.61,0,0,0-2.48-4.58,7.06,7.06,0,0,0-4.82-1.73,7.18,7.18,0,0,0-4.88,1.78,7.45,7.45,0,0,0-2.47,4.57l0,.25c0,.2.16.3.5.3h13.75C115.65,78.82,115.8,78.62,115.7,78.23Z"/><path class="cls-1" d="M128.5,92.32h-2.65a.44.44,0,0,1-.5-.5V69.63a.44.44,0,0,1,.5-.5h2.4a.44.44,0,0,1,.5.5v1.64c0,.14,0,.22.12.25s.18,0,.28-.15a8.65,8.65,0,0,1,2.65-2.05,7.82,7.82,0,0,1,3.4-.69A7.59,7.59,0,0,1,141,70.77a7.67,7.67,0,0,1,2.05,5.5V91.82a.44.44,0,0,1-.5.5h-2.65a.44.44,0,0,1-.5-.5V76.88a5.12,5.12,0,0,0-1.25-3.73,4.82,4.82,0,0,0-3.6-1.28,5.57,5.57,0,0,0-3,.85,6.77,6.77,0,0,0-2.25,2.45,2.33,2.33,0,0,0-.25,1.06V91.82A.44.44,0,0,1,128.5,92.32Z"/><path class="cls-1" d="M154.3,91.3A10.94,10.94,0,0,1,150.2,87a14,14,0,0,1,0-12.61,10.94,10.94,0,0,1,4.1-4.27,11.21,11.21,0,0,1,5.8-1.52c3.27,0,5.78,1,7.55,3.09a.15.15,0,0,0,.2,0c.07,0,.1-.1.1-.2V69.63a.44.44,0,0,1,.5-.5h2.45a.44.44,0,0,1,.5.5V91.82a.44.44,0,0,1-.5.5h-2.45a.44.44,0,0,1-.5-.5V89.87a.2.2,0,0,0-.1-.2.17.17,0,0,0-.2.06,10.31,10.31,0,0,1-7.55,3.09A11.21,11.21,0,0,1,154.3,91.3Zm10.55-2.78a6.18,6.18,0,0,0,2.7-2.7,2,2,0,0,0,.2-.9v-8.4a2,2,0,0,0-.2-.9,6.89,6.89,0,0,0-2.78-2.7,8.51,8.51,0,0,0-4.12-1,7.81,7.81,0,0,0-6,2.43,10.09,10.09,0,0,0,0,12.75,7.84,7.84,0,0,0,6,2.42A8.66,8.66,0,0,0,164.85,88.52Z"/><path class="cls-1" d="M180.55,60.07l2.7-1.45a.58.58,0,0,1,.25,0c.23,0,.35.14.35.41v9.89c0,.17.08.26.25.26h2.75a.44.44,0,0,1,.5.5v2.14a.44.44,0,0,1-.5.5H184.1a.22.22,0,0,0-.25.25v19.3a.44.44,0,0,1-.5.5H180.7a.44.44,0,0,1-.5-.5V72.52a.22.22,0,0,0-.25-.25H177.2a.44.44,0,0,1-.5-.5V69.63a.44.44,0,0,1,.5-.5H180a.23.23,0,0,0,.25-.26V60.68A.59.59,0,0,1,180.55,60.07Z"/><path class="cls-1" d="M193.62,91.37a7.77,7.77,0,0,1-2.82-4l-.05-.21c0-.2.11-.33.35-.4l2.4-.85.2,0c.2,0,.35.14.45.4a4.4,4.4,0,0,0,1.72,2.5,5.05,5.05,0,0,0,5.93-.12A3.43,3.43,0,0,0,202.9,86a3.09,3.09,0,0,0-1.08-2.51,6.26,6.26,0,0,0-3-1.25l-2-.4a6.83,6.83,0,0,1-4-2.27,6.42,6.42,0,0,1-1.5-4.28,6.35,6.35,0,0,1,.95-3.4,6.47,6.47,0,0,1,2.67-2.42,8.36,8.36,0,0,1,3.88-.87,7.62,7.62,0,0,1,4.67,1.42,7.32,7.32,0,0,1,2.68,4.07l0,.2c0,.21-.14.35-.4.45l-2.35.61-.2,0c-.2,0-.34-.13-.4-.39a4.4,4.4,0,0,0-1.43-2.35,3.93,3.93,0,0,0-2.62-.85,4.13,4.13,0,0,0-2.83.94,3.1,3.1,0,0,0-1.07,2.4,3,3,0,0,0,.85,2.3,5.09,5.09,0,0,0,2.55,1.15l1.95.4a8.43,8.43,0,0,1,4.52,2.33A6.42,6.42,0,0,1,206.5,86,6.33,6.33,0,0,1,204.37,91a8.27,8.27,0,0,1-5.77,1.92A8.13,8.13,0,0,1,193.62,91.37Z"/><path class="cls-1" d="M226.35,69.13h2.8c.36,0,.5.18.39.54l-7.35,22.26a.6.6,0,0,1-.64.39H217.7a.64.64,0,0,1-.66-.39l-7.35-22.26,0-.19c0-.24.15-.35.45-.35h2.8a.56.56,0,0,1,.59.39l6,18.45a.18.18,0,0,0,.17.15q.12,0,.18-.15l5.94-18.45A.6.6,0,0,1,226.35,69.13Z"/><path class="cls-1" d="M238.42,91.37a10.52,10.52,0,0,1-4.17-4.27,14.36,14.36,0,0,1,0-12.72,10.45,10.45,0,0,1,4.05-4.25,11.27,11.27,0,0,1,5.78-1.5,11.16,11.16,0,0,1,5.72,1.5,10.57,10.57,0,0,1,4,4.12,12.1,12.1,0,0,1,1.45,5.92,10.68,10.68,0,0,1-.05,1.15.48.48,0,0,1-.5.4H237.05c-.41,0-.55.22-.45.65a8.13,8.13,0,0,0,2.52,5.25,7.74,7.74,0,0,0,5.43,2,8.84,8.84,0,0,0,6.55-2.9c.36-.37.65-.44.85-.21l1.65,1.8a.39.39,0,0,1,0,.65,12.63,12.63,0,0,1-4.13,2.93,12.11,12.11,0,0,1-4.92,1A12.32,12.32,0,0,1,238.42,91.37Zm12.93-13.14a7.61,7.61,0,0,0-2.48-4.58,7.07,7.07,0,0,0-4.82-1.73,7.18,7.18,0,0,0-4.88,1.78,7.45,7.45,0,0,0-2.47,4.57l-.06.25c0,.2.17.3.5.3H250.9C251.3,78.82,251.45,78.62,251.35,78.23Z"/><path class="cls-1" d="M271.8,68.67c.3,0,.45.17.45.5v2.66c0,.29-.12.44-.35.44a3.68,3.68,0,0,1-.73-.07,3.47,3.47,0,0,0-.67-.08,6.3,6.3,0,0,0-5.5,2.95,2.07,2.07,0,0,0-.35,1.25v15.5a.44.44,0,0,1-.5.5H261.5a.44.44,0,0,1-.5-.5V69.63a.44.44,0,0,1,.5-.5h2.4a.44.44,0,0,1,.5.5v1.79c0,.14,0,.22.1.25s.15,0,.25-.1a7.82,7.82,0,0,1,6.3-2.94A4.77,4.77,0,0,1,271.8,68.67Z"/><path class="cls-1" d="M300.65,69.13h2.7a.43.43,0,0,1,.37.15.45.45,0,0,1,.08.39l-5.6,22.2a.48.48,0,0,1-.55.45h-3.5a.63.63,0,0,1-.65-.54l-4.1-16c0-.09-.1-.15-.18-.15a.19.19,0,0,0-.17.15l-4.1,16a.64.64,0,0,1-.65.54h-3.5a.51.51,0,0,1-.55-.45l-5.6-22.2,0-.15c0-.26.16-.39.5-.39h2.7c.36,0,.56.15.6.44l4.15,17.55c0,.14.08.2.15.2s.11-.06.15-.2l4.5-17.55a.56.56,0,0,1,.55-.44h2.65a.57.57,0,0,1,.55.44l4.5,17.55c0,.14.08.2.15.2s.11-.06.15-.2l4.15-17.55A.54.54,0,0,1,300.65,69.13Z"/><path class="cls-1" d="M313.15,91.3a10.94,10.94,0,0,1-4.1-4.27,14,14,0,0,1,0-12.61,10.94,10.94,0,0,1,4.1-4.27,11.19,11.19,0,0,1,5.8-1.52c3.26,0,5.78,1,7.55,3.09a.15.15,0,0,0,.2,0,.21.21,0,0,0,.1-.2V69.63a.44.44,0,0,1,.5-.5h2.45a.44.44,0,0,1,.5.5V91.82a.44.44,0,0,1-.5.5H327.3a.44.44,0,0,1-.5-.5V89.87a.22.22,0,0,0-.1-.2.17.17,0,0,0-.2.06A10.31,10.31,0,0,1,319,92.82,11.19,11.19,0,0,1,313.15,91.3Zm10.55-2.78a6.18,6.18,0,0,0,2.7-2.7,2,2,0,0,0,.2-.9v-8.4a2,2,0,0,0-.2-.9,7,7,0,0,0-2.78-2.7,8.51,8.51,0,0,0-4.12-1,7.81,7.81,0,0,0-6,2.43,10.09,10.09,0,0,0,0,12.75,7.84,7.84,0,0,0,6,2.42A8.69,8.69,0,0,0,323.7,88.52Z"/><path class="cls-1" d="M344.1,89.77V92a.44.44,0,0,1-.5.5h-.9a5.38,5.38,0,0,1-3.65-1.12,4.35,4.35,0,0,1-1.3-3.48V56.63a.44.44,0,0,1,.5-.5h2.65a.44.44,0,0,1,.5.5V87.47q0,1.8,1.5,1.8h.7A.44.44,0,0,1,344.1,89.77Z"/><path class="cls-1" d="M351.2,60.07l2.7-1.45a.58.58,0,0,1,.25,0c.23,0,.35.14.35.41v9.89c0,.17.08.26.25.26h2.75a.44.44,0,0,1,.5.5v2.14a.44.44,0,0,1-.5.5h-2.75a.22.22,0,0,0-.25.25v19.3a.44.44,0,0,1-.5.5h-2.65a.44.44,0,0,1-.5-.5V72.52a.22.22,0,0,0-.25-.25h-2.75a.44.44,0,0,1-.5-.5V69.63a.44.44,0,0,1,.5-.5h2.75a.23.23,0,0,0,.25-.26V60.68A.59.59,0,0,1,351.2,60.07Z"/><path class="cls-1" d="M377.5,69.13h2.65a.44.44,0,0,1,.5.5V91.82a.44.44,0,0,1-.5.5h-2.4a.44.44,0,0,1-.5-.5V90.17a.25.25,0,0,0-.13-.25c-.08,0-.19,0-.32.16a7.61,7.61,0,0,1-6.05,2.74A7.47,7.47,0,0,1,365,90.67a7.69,7.69,0,0,1-2-5.49V69.63a.44.44,0,0,1,.5-.5h2.65a.44.44,0,0,1,.5.5V84.57a5.08,5.08,0,0,0,1.25,3.73,4.81,4.81,0,0,0,3.6,1.28,5.57,5.57,0,0,0,3-.85,6.73,6.73,0,0,0,2.25-2.46,2.39,2.39,0,0,0,.25-1V69.63A.44.44,0,0,1,377.5,69.13Z"/><path class="cls-1" d="M391.4,92.32h-2.66a.44.44,0,0,1-.5-.5V69.63a.44.44,0,0,1,.5-.5h2.41a.44.44,0,0,1,.5.5v1.64c0,.14,0,.22.12.25s.17,0,.27-.15a8.81,8.81,0,0,1,2.66-2.05,7.8,7.8,0,0,1,3.39-.69,7.22,7.22,0,0,1,7.8,7.64V91.82a.44.44,0,0,1-.5.5h-2.65a.44.44,0,0,1-.5-.5V76.88A5.08,5.08,0,0,0,401,73.15a4.8,4.8,0,0,0-3.59-1.28,5.63,5.63,0,0,0-3,.85,6.84,6.84,0,0,0-2.24,2.45,2.33,2.33,0,0,0-.25,1.06V91.82A.44.44,0,0,1,391.4,92.32Z"/><path class="cls-1" d="M417.75,101.6a11.41,11.41,0,0,1-3.9-2.78c-.21-.27-.21-.5,0-.7l1.7-1.85a.56.56,0,0,1,.35-.2.56.56,0,0,1,.34.2,9.52,9.52,0,0,0,12.25,1.38,6.05,6.05,0,0,0,1.95-4.93V89.27a.24.24,0,0,0-.15-.25c-.1,0-.21,0-.35.15a9.91,9.91,0,0,1-7.19,2.65,11.22,11.22,0,0,1-5.66-1.45,10.23,10.23,0,0,1-4-4.1,12.42,12.42,0,0,1-1.46-6.1,11.93,11.93,0,0,1,1.5-6,10.66,10.66,0,0,1,4.08-4.08,11.52,11.52,0,0,1,5.72-1.44,9.51,9.51,0,0,1,7.25,2.79q.21.21.33.15t.12-.3V69.63a.45.45,0,0,1,.15-.35.45.45,0,0,1,.35-.15h2.45a.44.44,0,0,1,.5.5V93A8.64,8.64,0,0,1,431,100.1a12.26,12.26,0,0,1-8,2.52A12.81,12.81,0,0,1,417.75,101.6Zm9.74-14.07A7.33,7.33,0,0,0,430.25,85a1.71,1.71,0,0,0,.25-.9V76.32a1.59,1.59,0,0,0-.25-.9,7.39,7.39,0,0,0-2.76-2.55,8.36,8.36,0,0,0-4.05-1,7.75,7.75,0,0,0-5.82,2.3,8.21,8.21,0,0,0-2.22,6,8.31,8.31,0,0,0,2.22,6,7.74,7.74,0,0,0,5.82,2.29A8.35,8.35,0,0,0,427.49,87.53Z"/><path class="cls-1" d="M72.2,156.53v-19.3A.22.22,0,0,0,72,137H70a.49.49,0,0,1-.35-.13.39.39,0,0,1-.15-.32v-2.2a.44.44,0,0,1,.5-.5h2a.22.22,0,0,0,.25-.25v-7.4a6.28,6.28,0,0,1,1.4-4.33,5.05,5.05,0,0,1,4-1.57,7.05,7.05,0,0,1,2.75.65c.3.17.41.37.35.6l-.7,2.35c-.1.3-.32.36-.65.2a3.25,3.25,0,0,0-1.45-.4,1.78,1.78,0,0,0-1.5.7,3.15,3.15,0,0,0-.55,2v7.2a.22.22,0,0,0,.25.25h3.1a.44.44,0,0,1,.5.5v2.2a.39.39,0,0,1-.15.32.51.51,0,0,1-.35.13H76.1a.22.22,0,0,0-.25.25v19.3a.51.51,0,0,1-.13.35.39.39,0,0,1-.32.15H72.7A.44.44,0,0,1,72.2,156.53Z"/><path class="cls-1" d="M99,133.83h2.65a.44.44,0,0,1,.5.5v22.2a.44.44,0,0,1-.5.5H99.2a.44.44,0,0,1-.5-.5v-1.65a.24.24,0,0,0-.13-.25c-.08,0-.19,0-.32.15a7.62,7.62,0,0,1-6,2.75,7.47,7.47,0,0,1-5.73-2.15,7.7,7.7,0,0,1-2-5.5V134.33a.44.44,0,0,1,.5-.5H87.6a.44.44,0,0,1,.5.5v14.95A5.08,5.08,0,0,0,89.35,153a4.8,4.8,0,0,0,3.6,1.27,5.57,5.57,0,0,0,3-.85A6.69,6.69,0,0,0,98.2,151a2.39,2.39,0,0,0,.25-1v-15.6A.44.44,0,0,1,99,133.83ZM86.5,127.6a2.63,2.63,0,0,1-.8-1.92,2.73,2.73,0,0,1,2.7-2.7,2.73,2.73,0,0,1,2.7,2.7,2.67,2.67,0,0,1-.8,1.92,2.54,2.54,0,0,1-1.9.83A2.51,2.51,0,0,1,86.5,127.6Zm9.85,0a2.63,2.63,0,0,1-.8-1.92,2.73,2.73,0,0,1,2.7-2.7,2.73,2.73,0,0,1,2.7,2.7,2.67,2.67,0,0,1-.8,1.92,2.54,2.54,0,0,1-1.9.83A2.51,2.51,0,0,1,96.35,127.6Z"/><path class="cls-1" d="M120.49,133.38c.31,0,.46.16.46.5v2.65q0,.45-.36.45a3.05,3.05,0,0,1-.72-.08,3.47,3.47,0,0,0-.67-.07,6.28,6.28,0,0,0-5.5,2.95,2.07,2.07,0,0,0-.35,1.25v15.5a.44.44,0,0,1-.5.5h-2.66a.44.44,0,0,1-.5-.5v-22.2a.44.44,0,0,1,.5-.5h2.41a.44.44,0,0,1,.5.5v1.8c0,.13,0,.22.1.25s.15,0,.25-.1a7.79,7.79,0,0,1,6.29-2.95A4.36,4.36,0,0,1,120.49,133.38Z"/><path class="cls-1" d="M154.17,123.23a8.21,8.21,0,0,1,3.45,3.3,9.59,9.59,0,0,1,1.18,4.75,8.48,8.48,0,0,1-1.16,4.37,8,8,0,0,1-3.1,3.08c-.33.2-.33.38,0,.55a8.93,8.93,0,0,1,5,8.15,9.16,9.16,0,0,1-2.81,6.9c-1.86,1.8-4.5,2.7-7.9,2.7h-10.1a.44.44,0,0,1-.5-.5v-34a.44.44,0,0,1,.5-.5h10A11.47,11.47,0,0,1,154.17,123.23Zm-12.23,2.6v11.35a.22.22,0,0,0,.25.25h6.1a7.11,7.11,0,0,0,5-1.55,5.56,5.56,0,0,0,1.7-4.35,5.62,5.62,0,0,0-1.7-4.37,7,7,0,0,0-5-1.58h-6.1A.22.22,0,0,0,141.94,125.83Zm0,15.4v12a.22.22,0,0,0,.25.25h6.31a7.77,7.77,0,0,0,5.37-1.65,6.72,6.72,0,0,0,0-9.2A7.77,7.77,0,0,0,148.5,141h-6.31A.22.22,0,0,0,141.94,141.23Z"/><path class="cls-1" d="M166.07,127.6a2.62,2.62,0,0,1-.83-1.92,2.55,2.55,0,0,1,.83-1.9A2.65,2.65,0,0,1,168,123a2.54,2.54,0,0,1,1.85.8,2.58,2.58,0,0,1,.79,1.9,2.66,2.66,0,0,1-.79,1.92,2.5,2.5,0,0,1-1.85.83A2.61,2.61,0,0,1,166.07,127.6Zm0,28.93v-22.2a.44.44,0,0,1,.5-.5h2.65a.44.44,0,0,1,.5.5v22.2a.44.44,0,0,1-.5.5h-2.65A.44.44,0,0,1,166.09,156.53Z"/><path class="cls-1" d="M183.55,154.48v2.25a.44.44,0,0,1-.5.5h-.91a5.37,5.37,0,0,1-3.65-1.13,4.34,4.34,0,0,1-1.29-3.47v-31.3a.44.44,0,0,1,.5-.5h2.64a.45.45,0,0,1,.51.5v30.85q0,1.8,1.5,1.8h.7A.44.44,0,0,1,183.55,154.48Z"/><path class="cls-1" d="M207,120.83h2.65a.44.44,0,0,1,.5.5v35.2a.44.44,0,0,1-.5.5h-2.45a.44.44,0,0,1-.5-.5v-1.75c0-.16-.05-.26-.13-.27s-.19,0-.32.17q-2.55,2.85-7.4,2.85A11.29,11.29,0,0,1,193,156a10.9,10.9,0,0,1-4.1-4.28,14,14,0,0,1,0-12.6,10.9,10.9,0,0,1,4.1-4.28,11.29,11.29,0,0,1,5.8-1.52A10,10,0,0,1,206,136c.13.13.24.18.32.15s.13-.13.13-.3v-14.5A.44.44,0,0,1,207,120.83Zm-3.5,32.4a7.34,7.34,0,0,0,2.8-2.7,1.82,1.82,0,0,0,.2-.8v-8.6a1.82,1.82,0,0,0-.2-.8,7.34,7.34,0,0,0-2.8-2.7,8.27,8.27,0,0,0-4.1-1,7.84,7.84,0,0,0-6,2.42,10.1,10.1,0,0,0,0,12.76,7.84,7.84,0,0,0,6,2.42A8.27,8.27,0,0,0,203.45,153.23Z"/><path class="cls-1" d="M231.9,133.83h2.65a.44.44,0,0,1,.5.5v22.2a.44.44,0,0,1-.5.5h-2.4a.44.44,0,0,1-.5-.5v-1.65a.24.24,0,0,0-.13-.25c-.08,0-.19,0-.32.15a7.62,7.62,0,0,1-6,2.75,7.47,7.47,0,0,1-5.73-2.15,7.7,7.7,0,0,1-2-5.5V134.33a.44.44,0,0,1,.5-.5h2.65a.44.44,0,0,1,.5.5v14.95A5.08,5.08,0,0,0,222.3,153a4.8,4.8,0,0,0,3.6,1.27,5.57,5.57,0,0,0,3-.85,6.69,6.69,0,0,0,2.25-2.45,2.39,2.39,0,0,0,.25-1v-15.6A.44.44,0,0,1,231.9,133.83Z"/><path class="cls-1" d="M245.8,157h-2.66a.44.44,0,0,1-.49-.5v-22.2a.44.44,0,0,1,.49-.5h2.41a.44.44,0,0,1,.5.5V136c0,.13,0,.22.12.25s.17,0,.28-.15A8.5,8.5,0,0,1,249.1,134a7.66,7.66,0,0,1,3.39-.7,7.53,7.53,0,0,1,5.75,2.15,7.63,7.63,0,0,1,2.05,5.5v15.55a.44.44,0,0,1-.49.5h-2.66a.44.44,0,0,1-.5-.5V141.58a5.08,5.08,0,0,0-1.25-3.73,4.8,4.8,0,0,0-3.59-1.27,5.55,5.55,0,0,0-3,.85,6.76,6.76,0,0,0-2.24,2.45,2.26,2.26,0,0,0-.25,1.05v15.6A.44.44,0,0,1,245.8,157Z"/><path class="cls-1" d="M272.15,166.31a11.54,11.54,0,0,1-3.9-2.78c-.21-.27-.21-.5,0-.7L270,161a.56.56,0,0,1,.35-.2.56.56,0,0,1,.34.2,9.5,9.5,0,0,0,12.25,1.37,6,6,0,0,0,1.95-4.92V154a.23.23,0,0,0-.15-.25c-.1,0-.21,0-.35.15a9.91,9.91,0,0,1-7.19,2.65,11.22,11.22,0,0,1-5.66-1.45,10.23,10.23,0,0,1-4-4.1,12.45,12.45,0,0,1-1.45-6.1,11.93,11.93,0,0,1,1.49-6,10.64,10.64,0,0,1,4.08-4.07,11.45,11.45,0,0,1,5.72-1.45,9.48,9.48,0,0,1,7.25,2.8q.21.19.33.15c.08,0,.13-.13.13-.3v-1.65a.47.47,0,0,1,.14-.35.49.49,0,0,1,.35-.15H288a.44.44,0,0,1,.5.5v23.4a8.66,8.66,0,0,1-3.07,7.08,12.26,12.26,0,0,1-8,2.52A12.81,12.81,0,0,1,272.15,166.31Zm9.74-14.08a7.23,7.23,0,0,0,2.76-2.55,1.74,1.74,0,0,0,.25-.9V141a1.55,1.55,0,0,0-.25-.9,7.23,7.23,0,0,0-2.76-2.55,8.36,8.36,0,0,0-4.05-1,7.75,7.75,0,0,0-5.82,2.3,9.15,9.15,0,0,0,0,11.95,7.71,7.71,0,0,0,5.82,2.3A8.36,8.36,0,0,0,281.89,152.23Z"/><path class="cls-1" d="M300.92,152.13a3.5,3.5,0,0,1,.92,2.55,7,7,0,0,1-.42,2.47,16.08,16.08,0,0,1-1.32,2.63l-3.76,6.45c-.16.33-.39.4-.69.2l-1.7-1.1a.41.41,0,0,1-.15-.65l3.85-6.6a.68.68,0,0,0,.1-.35c0-.1-.1-.2-.31-.3a2.81,2.81,0,0,1-1.52-1.13,3.3,3.3,0,0,1-.58-1.92,3.06,3.06,0,0,1,1-2.25,3.28,3.28,0,0,1,4.62,0Z"/><path class="cls-1" d="M318.5,156.33a8,8,0,0,1-3.26-4.4l0-.2a.48.48,0,0,1,.35-.45l2.29-1a.51.51,0,0,1,.25-.05.32.32,0,0,1,.25.1.72.72,0,0,1,.16.25,5.33,5.33,0,0,0,2.09,2.75,5.94,5.94,0,0,0,3.31.95,5.25,5.25,0,0,0,4.12-1.77c1.05-1.19,1.57-3,1.57-5.48v-24.5a.44.44,0,0,1,.5-.5h2.7a.44.44,0,0,1,.5.5v24.85A12.5,12.5,0,0,1,332.1,153a8.61,8.61,0,0,1-3.33,3.62,9.4,9.4,0,0,1-4.83,1.25A9.66,9.66,0,0,1,318.5,156.33Z"/><path class="cls-1" d="M355.14,133.83h2.65a.44.44,0,0,1,.5.5v22.2a.44.44,0,0,1-.5.5h-2.4a.44.44,0,0,1-.5-.5v-1.65c0-.13,0-.22-.12-.25s-.2,0-.33.15a7.59,7.59,0,0,1-6.05,2.75,7.46,7.46,0,0,1-5.72-2.15,7.7,7.7,0,0,1-2-5.5V134.33a.44.44,0,0,1,.5-.5h2.65a.44.44,0,0,1,.5.5v14.95a5.12,5.12,0,0,0,1.25,3.73,4.8,4.8,0,0,0,3.6,1.27,5.57,5.57,0,0,0,3-.85,6.69,6.69,0,0,0,2.25-2.45,2.26,2.26,0,0,0,.25-1v-15.6A.44.44,0,0,1,355.14,133.83Z"/><path class="cls-1" d="M370.39,166.31a11.74,11.74,0,0,1-3.9-2.78.48.48,0,0,1,0-.7l1.7-1.85a.41.41,0,0,1,.7,0,9.5,9.5,0,0,0,12.25,1.37,6,6,0,0,0,1.95-4.92V154a.24.24,0,0,0-.15-.25c-.1,0-.22,0-.35.15a9.92,9.92,0,0,1-7.2,2.65,11.19,11.19,0,0,1-5.65-1.45,10.25,10.25,0,0,1-4-4.1,12.45,12.45,0,0,1-1.45-6.1,11.94,11.94,0,0,1,1.5-6,10.64,10.64,0,0,1,4.08-4.07,11.39,11.39,0,0,1,5.72-1.45,9.49,9.49,0,0,1,7.25,2.8c.13.13.24.18.32.15s.13-.13.13-.3v-1.65a.51.51,0,0,1,.5-.5h2.45a.44.44,0,0,1,.5.5v23.4a8.69,8.69,0,0,1-3.07,7.08,12.27,12.27,0,0,1-8,2.52A12.81,12.81,0,0,1,370.39,166.31Zm9.75-14.08a7.2,7.2,0,0,0,2.75-2.55,1.65,1.65,0,0,0,.25-.9V141a1.48,1.48,0,0,0-.25-.9,7.2,7.2,0,0,0-2.75-2.55,8.41,8.41,0,0,0-4.05-1,7.77,7.77,0,0,0-5.83,2.3,9.15,9.15,0,0,0,0,11.95,7.74,7.74,0,0,0,5.83,2.3A8.41,8.41,0,0,0,380.14,152.23Z"/><path class="cls-1" d="M398.31,156.08a10.52,10.52,0,0,1-4.17-4.27,14.34,14.34,0,0,1,0-12.73,10.51,10.51,0,0,1,4.05-4.25,11.77,11.77,0,0,1,11.5,0,10.64,10.64,0,0,1,4,4.13,12,12,0,0,1,1.45,5.92,10.81,10.81,0,0,1-.05,1.15.47.47,0,0,1-.5.4H396.94c-.4,0-.55.22-.45.65a8.19,8.19,0,0,0,2.53,5.25,7.69,7.69,0,0,0,5.42,1.95,8.84,8.84,0,0,0,6.55-2.9c.37-.37.65-.44.85-.2l1.65,1.8a.39.39,0,0,1,0,.65,12.74,12.74,0,0,1-4.12,2.93,12.89,12.89,0,0,1-11.06-.48Zm12.93-13.15a7.63,7.63,0,0,0-2.47-4.58,7.09,7.09,0,0,0-4.83-1.72,7.17,7.17,0,0,0-4.88,1.77,7.5,7.5,0,0,0-2.47,4.58l0,.25c0,.2.17.3.5.3h13.75Q411.39,143.53,411.24,142.93Z"/><path class="cls-1" d="M424,157h-2.65a.44.44,0,0,1-.5-.5v-22.2a.44.44,0,0,1,.5-.5h2.4a.44.44,0,0,1,.5.5V136c0,.13,0,.22.12.25s.18,0,.28-.15a8.5,8.5,0,0,1,2.65-2.05,7.7,7.7,0,0,1,3.4-.7,7.54,7.54,0,0,1,5.75,2.15,7.63,7.63,0,0,1,2.05,5.5v15.55a.44.44,0,0,1-.5.5h-2.65a.44.44,0,0,1-.5-.5V141.58a5.12,5.12,0,0,0-1.25-3.73,4.8,4.8,0,0,0-3.6-1.27,5.49,5.49,0,0,0-3,.85,6.69,6.69,0,0,0-2.25,2.45,2.26,2.26,0,0,0-.25,1.05v15.6A.44.44,0,0,1,424,157Z"/><path class="cls-1" d="M463.79,120.83h2.65a.44.44,0,0,1,.5.5v35.2a.44.44,0,0,1-.5.5H464a.44.44,0,0,1-.5-.5v-1.75c0-.16,0-.26-.12-.27s-.2,0-.33.17q-2.55,2.85-7.4,2.85a11.31,11.31,0,0,1-5.8-1.52,11,11,0,0,1-4.1-4.28,14,14,0,0,1,0-12.6,11,11,0,0,1,4.1-4.28,11.31,11.31,0,0,1,5.8-1.52,9.92,9.92,0,0,1,7.2,2.65c.13.13.24.18.32.15s.13-.13.13-.3v-14.5A.44.44,0,0,1,463.79,120.83Zm-3.5,32.4a7.34,7.34,0,0,0,2.8-2.7,1.82,1.82,0,0,0,.2-.8v-8.6a1.82,1.82,0,0,0-.2-.8,7.34,7.34,0,0,0-2.8-2.7,8.27,8.27,0,0,0-4.1-1,7.81,7.81,0,0,0-6,2.42,10.07,10.07,0,0,0,0,12.76,7.81,7.81,0,0,0,6,2.42A8.27,8.27,0,0,0,460.29,153.23Z"/><path class="cls-1" d="M85.55,198.54H88.2a.44.44,0,0,1,.5.5v22.19a.44.44,0,0,1-.5.5H85.8a.44.44,0,0,1-.5-.5v-1.64a.26.26,0,0,0-.13-.26c-.08,0-.19,0-.32.16a7.6,7.6,0,0,1-6,2.74,7.5,7.5,0,0,1-5.73-2.14,7.71,7.71,0,0,1-2-5.5V199a.44.44,0,0,1,.5-.5H74.2a.44.44,0,0,1,.5.5V214A5.08,5.08,0,0,0,76,217.71a4.81,4.81,0,0,0,3.6,1.28,5.57,5.57,0,0,0,3-.85,6.73,6.73,0,0,0,2.25-2.46,2.39,2.39,0,0,0,.25-1.05V199A.44.44,0,0,1,85.55,198.54Z"/><path class="cls-1" d="M99.45,221.73H96.8a.44.44,0,0,1-.5-.5V199a.44.44,0,0,1,.5-.5h2.4a.44.44,0,0,1,.5.5v1.65q0,.19.12.24c.08,0,.18,0,.28-.15a8.65,8.65,0,0,1,2.65-2.05,7.8,7.8,0,0,1,3.39-.69,7.53,7.53,0,0,1,5.75,2.15,7.61,7.61,0,0,1,2.06,5.49v15.55a.44.44,0,0,1-.5.5h-2.66a.44.44,0,0,1-.5-.5V206.29a5.12,5.12,0,0,0-1.24-3.73,4.84,4.84,0,0,0-3.6-1.28,5.57,5.57,0,0,0-3,.85,6.73,6.73,0,0,0-2.25,2.46,2.26,2.26,0,0,0-.25,1v15.59A.44.44,0,0,1,99.45,221.73Z"/><path class="cls-1" d="M139.2,185.54h2.65a.44.44,0,0,1,.5.5v35.19a.44.44,0,0,1-.5.5H139.4a.44.44,0,0,1-.5-.5v-1.74c0-.17-.05-.26-.13-.28s-.19,0-.32.17c-1.7,1.91-4.17,2.85-7.4,2.85a11.19,11.19,0,0,1-5.8-1.52,10.87,10.87,0,0,1-4.1-4.27,14,14,0,0,1,0-12.61,10.87,10.87,0,0,1,4.1-4.27,11.19,11.19,0,0,1,5.8-1.52,9.91,9.91,0,0,1,7.19,2.65q.21.19.33.15c.08,0,.13-.14.13-.3V186A.44.44,0,0,1,139.2,185.54Zm-3.5,32.4a7.32,7.32,0,0,0,2.79-2.7,1.75,1.75,0,0,0,.21-.81v-8.6a1.74,1.74,0,0,0-.21-.8,7.32,7.32,0,0,0-2.79-2.7,8.38,8.38,0,0,0-4.1-1,7.84,7.84,0,0,0-6,2.42,10.09,10.09,0,0,0,0,12.75,7.81,7.81,0,0,0,6,2.43A8.38,8.38,0,0,0,135.7,217.94Z"/><path class="cls-1" d="M181.35,187.23v2.55a.44.44,0,0,1-.5.5H167.79a.23.23,0,0,0-.25.26v12.05a.22.22,0,0,0,.25.24h13.06a.44.44,0,0,1,.5.5v2.55a.44.44,0,0,1-.5.5H167.79a.23.23,0,0,0-.25.26v14.59a.44.44,0,0,1-.5.5h-2.7c-.33,0-.49-.16-.49-.5v-34a.44.44,0,0,1,.49-.5h16.51A.44.44,0,0,1,181.35,187.23Z"/><path class="cls-1" d="M191.19,220.71a10.92,10.92,0,0,1-4.09-4.27,14,14,0,0,1,0-12.61,10.92,10.92,0,0,1,4.09-4.27A11.25,11.25,0,0,1,197,198a9.38,9.38,0,0,1,7.54,3.09.18.18,0,0,0,.21.06.24.24,0,0,0,.1-.21V199a.44.44,0,0,1,.5-.5h2.45a.44.44,0,0,1,.5.5v22.19a.44.44,0,0,1-.5.5h-2.45a.44.44,0,0,1-.5-.5v-1.94a.2.2,0,0,0-.1-.2.16.16,0,0,0-.21,0,10.27,10.27,0,0,1-7.54,3.09A11.25,11.25,0,0,1,191.19,220.71Zm10.55-2.77a6.17,6.17,0,0,0,2.7-2.7,1.94,1.94,0,0,0,.21-.91v-8.39a1.94,1.94,0,0,0-.21-.91,6.87,6.87,0,0,0-2.77-2.7,8.51,8.51,0,0,0-4.12-1,7.84,7.84,0,0,0-6,2.42,10.09,10.09,0,0,0,0,12.75,7.81,7.81,0,0,0,6,2.43A8.74,8.74,0,0,0,201.74,217.94Z"/><path class="cls-1" d="M219.1,221.73h-2.66a.44.44,0,0,1-.5-.5V199a.44.44,0,0,1,.5-.5h2.41a.44.44,0,0,1,.5.5v1.65q0,.19.12.24t.27-.15a7.61,7.61,0,0,1,6-2.74,8.38,8.38,0,0,1,4.13,1,7,7,0,0,1,2.72,2.6c.14.23.31.23.5,0a11.67,11.67,0,0,1,3-2.63,7.19,7.19,0,0,1,3.75-.92,7.47,7.47,0,0,1,5.73,2.15,7.67,7.67,0,0,1,2,5.49v15.55a.44.44,0,0,1-.5.5h-2.64a.44.44,0,0,1-.51-.5V206.29a5,5,0,0,0-1.27-3.73,4.9,4.9,0,0,0-3.62-1.28,5.73,5.73,0,0,0-5.16,3.2,2.43,2.43,0,0,0-.3,1.2v15.55a.44.44,0,0,1-.5.5h-2.65a.44.44,0,0,1-.5-.5V206.29a5.08,5.08,0,0,0-1.25-3.73,4.8,4.8,0,0,0-3.59-1.28,5.63,5.63,0,0,0-3,.85,6.79,6.79,0,0,0-2.24,2.46,2.36,2.36,0,0,0-.25,1.09v15.55A.44.44,0,0,1,219.1,221.73Z"/><path class="cls-1" d="M254.87,192.31a2.64,2.64,0,0,1-.83-1.92,2.58,2.58,0,0,1,.83-1.91,2.68,2.68,0,0,1,1.93-.79,2.57,2.57,0,0,1,1.85.79,2.62,2.62,0,0,1,.79,1.91,2.68,2.68,0,0,1-.79,1.92,2.54,2.54,0,0,1-1.85.83A2.64,2.64,0,0,1,254.87,192.31Zm0,28.92V199c0-.34.16-.5.49-.5h2.66a.44.44,0,0,1,.5.5v22.19a.44.44,0,0,1-.5.5h-2.66C255.06,221.73,254.9,221.57,254.9,221.23Z"/><path class="cls-1" d="M272.35,219.18v2.26a.44.44,0,0,1-.5.49H271a5.43,5.43,0,0,1-3.66-1.12,4.38,4.38,0,0,1-1.29-3.48V186a.44.44,0,0,1,.5-.5h2.64a.44.44,0,0,1,.51.5v30.85c0,1.2.5,1.79,1.5,1.79h.7A.44.44,0,0,1,272.35,219.18Z"/><path class="cls-1" d="M278,192.31a2.63,2.63,0,0,1-.82-1.92,2.57,2.57,0,0,1,.82-1.91,2.68,2.68,0,0,1,1.93-.79,2.57,2.57,0,0,1,1.85.79,2.63,2.63,0,0,1,.8,1.91,2.69,2.69,0,0,1-.8,1.92,2.54,2.54,0,0,1-1.85.83A2.64,2.64,0,0,1,278,192.31Zm0,28.92V199a.44.44,0,0,1,.5-.5h2.65a.44.44,0,0,1,.5.5v22.19a.44.44,0,0,1-.5.5h-2.65A.44.44,0,0,1,278.05,221.23Z"/><path class="cls-1" d="M293.32,220.79a10.55,10.55,0,0,1-4.17-4.28,14.36,14.36,0,0,1,0-12.72,10.51,10.51,0,0,1,4.05-4.25A11.27,11.27,0,0,1,299,198a11.16,11.16,0,0,1,5.72,1.5,10.64,10.64,0,0,1,4,4.12,12.1,12.1,0,0,1,1.45,5.92,10.68,10.68,0,0,1,0,1.15.48.48,0,0,1-.5.41H292c-.41,0-.55.21-.45.64A8.11,8.11,0,0,0,294,217a7.74,7.74,0,0,0,5.43,2,8.84,8.84,0,0,0,6.55-2.9c.36-.37.65-.44.85-.2l1.65,1.79a.39.39,0,0,1,0,.65,12.63,12.63,0,0,1-4.13,2.93,12.12,12.12,0,0,1-4.92,1A12.32,12.32,0,0,1,293.32,220.79Zm12.93-13.15a7.64,7.64,0,0,0-2.48-4.58,7.07,7.07,0,0,0-4.82-1.72,7.17,7.17,0,0,0-4.88,1.77,7.45,7.45,0,0,0-2.47,4.57l-.06.26c0,.2.17.29.5.29H305.8C306.2,208.23,306.35,208,306.25,207.64Z"/></svg>