<?xml version="1.0" encoding="utf-8"?>
<!-- Generator: Adobe Illustrator 26.2.0, SVG Export Plug-In . SVG Version: 6.00 Build 0)  -->
<svg version="1.1" id="BIKE" xmlns="http://www.w3.org/2000/svg" xmlns:xlink="http://www.w3.org/1999/xlink" x="0px" y="0px"
	 viewBox="0 0 47.6 47.6" style="enable-background:new 0 0 47.6 47.6;" xml:space="preserve">
<style type="text/css">
	.st0{display:none;}
	.st1{display:inline;fill:none;stroke:#1E3791;stroke-width:0.57;stroke-linecap:round;stroke-linejoin:round;}
	.st2{display:inline;}
	.st3{fill:#E1E1E1;stroke:#1E3791;stroke-width:0.57;}
	.st4{fill:#B6E6FA;stroke:#1E3791;stroke-width:0.57;}
	.st5{fill:#FFFFFF;stroke:#1E3791;stroke-width:0.57;}
	.st6{fill:none;stroke:#1E3791;stroke-width:1.7;stroke-linecap:round;stroke-linejoin:round;}
	.st7{fill:#1E3791;stroke:#FFFFFF;stroke-width:0.57;stroke-linecap:round;stroke-linejoin:round;}
	.st8{fill:#FFFFFF;}
	.st9{fill:none;stroke:#1E3791;stroke-width:0.57;stroke-linecap:round;stroke-linejoin:round;}
	.st10{fill:#213A8F;}
	.st11{fill-rule:evenodd;clip-rule:evenodd;fill:#213A8F;fill-opacity:0.2;}
</style>
<g class="st0">
	<path class="st1" d="M7.2,17.2h34.4v23.9c0,1-0.8,1.8-1.8,1.8H9c-1,0-1.8-0.8-1.8-1.8V17.2L7.2,17.2z"/>
	<path class="st1" d="M9.1,13h30.5c1.1,0,1.9,0.9,1.9,1.9v2.3H7.2V15C7.2,13.9,8.1,13,9.1,13z"/>
</g>
<g class="st0">
	<g class="st2">
		<rect x="11.1" y="27.2" class="st3" width="7.7" height="12.2"/>
		<rect x="11.1" y="36" class="st4" width="7.7" height="3.4"/>
	</g>
	<g class="st2">
		<rect x="20.5" y="22.9" class="st3" width="7.7" height="16.4"/>
		<rect x="20.5" y="19.9" class="st5" width="7.7" height="3"/>
		<rect x="20.5" y="29.2" class="st4" width="7.7" height="10.1"/>
	</g>
	<g class="st2">
		<rect x="29.9" y="27.5" class="st3" width="7.7" height="11.9"/>
		<rect x="29.9" y="25.1" class="st5" width="7.7" height="2.4"/>
		<rect x="29.9" y="33.3" class="st4" width="7.7" height="6.1"/>
	</g>
</g>
<g>
	<path class="st6" d="M42.4,11.2h-9.1V6.7c0-2.5,2-4.6,4.6-4.6l0,0c2.5,0,4.6,2,4.6,4.6V11.2z"/>
	<rect x="29.6" y="8.4" class="st7" width="16.5" height="14.1"/>
	<g>
		<path class="st8" d="M40.1,14.2c0-1.2-1-2.2-2.2-2.2s-2.2,1-2.2,2.2c0,0.8,0.5,1.6,1.1,1.9V19h2.2v-2.8
			C39.6,15.8,40.1,15,40.1,14.2L40.1,14.2z"/>
		<path class="st9" d="M40.1,14.2c0-1.2-1-2.2-2.2-2.2s-2.2,1-2.2,2.2c0,0.8,0.5,1.6,1.1,1.9V19h2.2v-2.8
			C39.6,15.8,40.1,15,40.1,14.2L40.1,14.2z"/>
	</g>
</g>
<g class="st0">
	<g class="st2">
		<path d="M27.5,20.7H10c-0.8,0-1.5-0.7-1.5-1.5v-8.7c0-5.6,4.6-10.2,10.2-10.2s10.2,4.6,10.2,10.2v8.7
			C28.9,20.1,28.3,20.7,27.5,20.7z M11.5,17.8H26v-7.3c0-4-3.3-7.3-7.3-7.3s-7.3,3.3-7.3,7.3V17.8z"/>
	</g>
	<g class="st2">
		<path d="M27.2,46.9h-20c-3.3,0-5.9-2.6-5.9-5.9c0-9.6,7.8-17.4,17.4-17.4c3.3,0,6.5,0.9,9.3,2.7c0.7,0.4,0.9,1.3,0.5,2
			c-0.4,0.7-1.3,0.9-2,0.5c-2.3-1.5-5-2.2-7.7-2.2c-8,0-14.5,6.5-14.5,14.5c0,1.6,1.3,3,3,3h20c0.8,0,1.5,0.6,1.5,1.5
			S28,46.9,27.2,46.9z"/>
	</g>
</g>
<g>
	<path id="Rectangle-13-Copy" class="st10" d="M2.6,46.6H1.2V36.2c0-4.1,4.2-7.7,8.6-7.7v1.4c-3.7,0-7.2,3-7.2,6.3V46.6z M19.9,29.9
		v-1.4c4.4,0,8.6,3.6,8.6,7.7v10.5h-1.4V36.2C27.1,32.9,23.6,29.9,19.9,29.9z"/>
	<path id="Path-6-Copy" class="st10" d="M19.4,29.8l-0.8,1.1c-0.8-0.6-1.2-2-1.2-4h1.4C18.8,28.5,19,29.5,19.4,29.8z"/>
	<path id="Oval-4-Copy" class="st10" d="M14.9,28.7c-4.3,0-8.4-7.2-8.4-12.6c0-4.6,3.7-8.4,8.4-8.4s8.4,3.7,8.4,8.4
		C23.2,21.5,19.1,28.7,14.9,28.7z M14.9,27.3c3.3,0,7-6.5,7-11.2c0-3.9-3.1-7-7-7s-7,3.1-7,7C7.9,20.8,11.6,27.3,14.9,27.3z"/>
	<path id="Path-8-Copy" class="st11" d="M11.1,28.4c1.2,1.1,2.5,1.7,4,1.7s2.9-0.6,4.1-1.8L18,26.6l-1.7,1.1l-2.1,0.2l-1.8-0.7
		L11.1,28.4z"/>
</g>
</svg>
