<svg width="73" height="73" viewBox="0 0 73 73" fill="none" xmlns="http://www.w3.org/2000/svg">
<path d="M64.851 5.18359H8.14893C6.53765 5.18359 5.23145 6.4898 5.23145 8.10108V64.8032C5.23145 66.4144 6.53765 67.7206 8.14893 67.7206H64.851C66.4623 67.7206 67.7685 66.4144 67.7685 64.8032V8.10108C67.7685 6.4898 66.4623 5.18359 64.851 5.18359Z" fill="white" stroke="#20378B" stroke-width="0.57" stroke-linecap="round" stroke-linejoin="round"/>
<path d="M50.2183 5.18359H64.8511C66.4685 5.18359 67.7685 6.49873 67.7685 8.10108V64.788C67.7685 66.4055 66.4534 67.7055 64.8511 67.7055H50.2183V5.18359Z" fill="#20378B" stroke="#20378B" stroke-width="0.57" stroke-linecap="round" stroke-linejoin="round"/>
<path d="M16.7957 21.9165V13.5117" stroke="#20378B" stroke-width="0.57" stroke-linecap="round" stroke-linejoin="round"/>
<path d="M39.7425 37.1699V27.9941H32.4564" stroke="#20378B" stroke-width="0.57" stroke-linecap="round" stroke-linejoin="round"/>
<path d="M16.7956 15.6591C18.6323 15.6591 20.1212 14.1701 20.1212 12.3334C20.1212 10.4968 18.6323 9.00781 16.7956 9.00781C14.9589 9.00781 13.47 10.4968 13.47 12.3334C13.47 14.1701 14.9589 15.6591 16.7956 15.6591Z" fill="white" stroke="#20378B" stroke-width="0.57" stroke-linecap="round"/>
<path d="M31.7005 31.3192C33.5372 31.3192 35.0261 29.8303 35.0261 27.9936C35.0261 26.1569 33.5372 24.668 31.7005 24.668C29.8638 24.668 28.3749 26.1569 28.3749 27.9936C28.3749 29.8303 29.8638 31.3192 31.7005 31.3192Z" fill="white" stroke="#20378B" stroke-width="0.57" stroke-linecap="round"/>
<path d="M16.7957 42.6426V50.9416" stroke="#20378B" stroke-width="0.57" stroke-linecap="round" stroke-linejoin="round"/>
<path d="M16.7956 45.9677C18.6323 45.9677 20.1212 44.4787 20.1212 42.642C20.1212 40.8053 18.6323 39.3164 16.7956 39.3164C14.9589 39.3164 13.47 40.8053 13.47 42.642C13.47 44.4787 14.9589 45.9677 16.7956 45.9677Z" fill="white" stroke="#20378B" stroke-width="0.57" stroke-linecap="round"/>
<path d="M26.0923 27.9941H16.7957V37.5478" stroke="#20378B" stroke-width="0.57" stroke-linecap="round" stroke-linejoin="round"/>
<path d="M12.9168 28.0047L16.7969 31.8848L20.677 28.0047L16.7969 24.1246L12.9168 28.0047Z" fill="#D1DBE0" stroke="#20378B" stroke-width="0.57" stroke-linecap="round" stroke-linejoin="round"/>
<path d="M22.8876 52.9219H10.9758C10.191 52.9219 9.55481 53.5581 9.55481 54.3428V63.186C9.55481 63.9708 10.191 64.6069 10.9758 64.6069H22.8876C23.6724 64.6069 24.3085 63.9708 24.3085 63.186V54.3428C24.3085 53.5581 23.6724 52.9219 22.8876 52.9219Z" fill="#BEE4F8" stroke="#20378B" stroke-width="0.57" stroke-linecap="round" stroke-linejoin="round"/>
<path d="M45.6077 39.3008H33.6959C32.9111 39.3008 32.275 39.937 32.275 40.7217V49.5649C32.275 50.3497 32.9111 50.9859 33.6959 50.9859H45.6077C46.3925 50.9859 47.0287 50.3497 47.0287 49.5649V40.7217C47.0287 39.937 46.3925 39.3008 45.6077 39.3008Z" fill="#BEE4F8" stroke="#20378B" stroke-width="0.57" stroke-linecap="round" stroke-linejoin="round"/>
<path d="M53.6346 12.59C54.4194 12.59 55.0555 11.9538 55.0555 11.169C55.0555 10.3842 54.4194 9.74805 53.6346 9.74805C52.8498 9.74805 52.2136 10.3842 52.2136 11.169C52.2136 11.9538 52.8498 12.59 53.6346 12.59Z" fill="#20378B" stroke="white" stroke-width="0.57" stroke-linecap="round" stroke-linejoin="round"/>
<path d="M53.6346 19.0743C54.4194 19.0743 55.0555 18.4381 55.0555 17.6534C55.0555 16.8686 54.4194 16.2324 53.6346 16.2324C52.8498 16.2324 52.2136 16.8686 52.2136 17.6534C52.2136 18.4381 52.8498 19.0743 53.6346 19.0743Z" fill="#20378B" stroke="white" stroke-width="0.57" stroke-linecap="round" stroke-linejoin="round"/>
<path d="M53.6346 25.545C54.4194 25.545 55.0555 24.9088 55.0555 24.1241C55.0555 23.3393 54.4194 22.7031 53.6346 22.7031C52.8498 22.7031 52.2136 23.3393 52.2136 24.1241C52.2136 24.9088 52.8498 25.545 53.6346 25.545Z" fill="white" stroke="white" stroke-width="0.57" stroke-linecap="round" stroke-linejoin="round"/>
<path d="M53.6346 32.0138C54.4194 32.0138 55.0555 31.3776 55.0555 30.5928C55.0555 29.8081 54.4194 29.1719 53.6346 29.1719C52.8498 29.1719 52.2136 29.8081 52.2136 30.5928C52.2136 31.3776 52.8498 32.0138 53.6346 32.0138Z" fill="#20378B" stroke="white" stroke-width="0.57" stroke-linecap="round" stroke-linejoin="round"/>
<path d="M53.6346 38.5001C54.4194 38.5001 55.0555 37.8639 55.0555 37.0792C55.0555 36.2944 54.4194 35.6582 53.6346 35.6582C52.8498 35.6582 52.2136 36.2944 52.2136 37.0792C52.2136 37.8639 52.8498 38.5001 53.6346 38.5001Z" fill="white" stroke="white" stroke-width="0.57" stroke-linecap="round" stroke-linejoin="round"/>
<path d="M57.1416 11.1699H63.8836" stroke="white" stroke-width="0.57" stroke-linecap="round" stroke-linejoin="round"/>
<path d="M57.1416 17.6543H62.1603" stroke="white" stroke-width="0.57" stroke-linecap="round" stroke-linejoin="round"/>
<path d="M57.1416 24.123H63.4452" stroke="white" stroke-width="0.57" stroke-linecap="round" stroke-linejoin="round"/>
<path d="M57.1416 30.5938H63.8836" stroke="white" stroke-width="0.57" stroke-linecap="round" stroke-linejoin="round"/>
<path d="M57.1416 37.0781H61.3138" stroke="white" stroke-width="0.57" stroke-linecap="round" stroke-linejoin="round"/>
<path d="M16.7956 23.1267L19.1689 19.2871H14.4223L16.7956 23.1267Z" fill="#20378B"/>
<path d="M16.7956 38.3044L19.1689 34.4648H14.4223L16.7956 38.3044Z" fill="#20378B"/>
<path d="M27.3621 27.9949L23.5225 25.6367V30.3682L27.3621 27.9949Z" fill="#20378B"/>
<path d="M16.7956 51.9085L19.1689 48.084H14.4223L16.7956 51.9085Z" fill="#20378B"/>
<path d="M39.7727 38.3044L42.146 34.4648H37.3994L39.7727 38.3044Z" fill="#20378B"/>
</svg>
