<svg width="73" height="73" viewBox="0 0 73 73" fill="none" xmlns="http://www.w3.org/2000/svg">
<path d="M13.3945 19.5293H29.8564" stroke="#20378B" stroke-width="0.57" stroke-linecap="round"/>
<path d="M13.3945 22.6895H21.6179" stroke="#20378B" stroke-width="0.57" stroke-linecap="round"/>
<path d="M13.3945 25.8477H26.5156" stroke="#20378B" stroke-width="0.57" stroke-linecap="round"/>
<path d="M13.3945 29.0078H24.8377" stroke="#20378B" stroke-width="0.57" stroke-linecap="round"/>
<path d="M13.3945 10.0508H21.6179" stroke="#20378B" stroke-width="0.57" stroke-linecap="round"/>
<path d="M13.3945 13.2109H26.5156" stroke="#20378B" stroke-width="0.57" stroke-linecap="round"/>
<path d="M13.3945 16.3691H24.8377" stroke="#20378B" stroke-width="0.57" stroke-linecap="round"/>
<path d="M40.8612 10.0508H53.4986" stroke="#20378B" stroke-width="0.57" stroke-linecap="round"/>
<path d="M40.8612 13.2109H58.3813" stroke="#20378B" stroke-width="0.57" stroke-linecap="round"/>
<path d="M40.8612 16.3691H58.3813" stroke="#20378B" stroke-width="0.57" stroke-linecap="round"/>
<path d="M40.8612 19.5293H55.6754" stroke="#20378B" stroke-width="0.57" stroke-linecap="round"/>
<path d="M13.3945 54.4023H24.8377" stroke="#20378B" stroke-width="0.57" stroke-linecap="round"/>
<path d="M13.3945 57.5625H29.8564" stroke="#20378B" stroke-width="0.57" stroke-linecap="round"/>
<path d="M13.3945 60.7227H26.5156" stroke="#20378B" stroke-width="0.57" stroke-linecap="round"/>
<path d="M13.3945 63.8809H24.8377" stroke="#20378B" stroke-width="0.57" stroke-linecap="round"/>
<path d="M13.3945 38.5762H29.8564" stroke="#20378B" stroke-width="0.57" stroke-linecap="round"/>
<path d="M13.3945 41.7363H21.6179" stroke="#20378B" stroke-width="0.57" stroke-linecap="round"/>
<path d="M13.3945 44.8945H26.5156" stroke="#20378B" stroke-width="0.57" stroke-linecap="round"/>
<path d="M13.3945 48.0547H24.8377" stroke="#20378B" stroke-width="0.57" stroke-linecap="round"/>
<path d="M11.7165 38.5767L7.0304 35.6895V41.464L11.7165 38.5767Z" fill="#20378B"/>
<path d="M11.7165 10.0513L7.0304 7.16406V12.9386L11.7165 10.0513Z" fill="#20378B"/>
<path d="M11.7165 54.4029L7.0304 51.5156V57.2901L11.7165 54.4029Z" fill="#20378B"/>
<path d="M38.4728 10.0513L33.8018 7.16406V12.9386L38.4728 10.0513Z" fill="#20378B"/>
<path d="M54.6182 43.9768L43.9719 54.623L46.9969 57.648L57.6432 47.0018L54.6182 43.9768Z" fill="#D1DBE0" stroke="#20378B" stroke-width="0.57" stroke-linecap="round" stroke-linejoin="round"/>
<path d="M49.2066 55.4503L55.4597 49.1972L66.1166 59.8541C67.8482 61.5857 67.8482 64.3862 66.1166 66.1179C64.385 67.8495 61.5845 67.8495 59.8529 66.1179L49.1959 55.4609L49.2066 55.4503Z" fill="#D1DBE0" stroke="#20378B" stroke-width="0.57" stroke-linecap="round" stroke-linejoin="round"/>
<path d="M38.503 55.5375C47.9119 55.5375 55.5393 47.9101 55.5393 38.5012C55.5393 29.0923 47.9119 21.4648 38.503 21.4648C29.0941 21.4648 21.4667 29.0923 21.4667 38.5012C21.4667 47.9101 29.0941 55.5375 38.503 55.5375Z" fill="#D1DBE0" stroke="#20378B" stroke-width="0.57" stroke-linecap="round" stroke-linejoin="round"/>
<path d="M38.503 51.8647C45.8832 51.8647 51.866 45.8819 51.866 38.5017C51.866 31.1215 45.8832 25.1387 38.503 25.1387C31.1228 25.1387 25.14 31.1215 25.14 38.5017C25.14 45.8819 31.1228 51.8647 38.503 51.8647Z" fill="white"/>
<mask id="mask0_170_16131" style="mask-type:luminance" maskUnits="userSpaceOnUse" x="25" y="25" width="27" height="27">
<path d="M38.503 51.8647C45.8832 51.8647 51.866 45.8819 51.866 38.5017C51.866 31.1215 45.8832 25.1387 38.503 25.1387C31.1228 25.1387 25.14 31.1215 25.14 38.5017C25.14 45.8819 31.1228 51.8647 38.503 51.8647Z" fill="white"/>
</mask>
<g mask="url(#mask0_170_16131)">
<path d="M45.7136 29.6582H40.4984V35.4025H45.7136V29.6582Z" fill="#20378B"/>
<path d="M41.1031 43.6406H38.5031V49.4H41.1031V43.6406Z" fill="#20378B"/>
<path d="M40.4984 29.6582H30.4913V35.4025H40.4984V29.6582Z" fill="#20378B"/>
<path d="M38.503 43.6406H33.1669V49.4H38.503V43.6406Z" fill="#20378B"/>
<path d="M37.3542 36.6426H34.7995V42.402H37.3542V36.6426Z" fill="#20378B"/>
<path d="M34.7995 36.6426H21.7237V42.402H34.7995V36.6426Z" fill="#20378B"/>
<path d="M33.1669 43.6406H21.7237V49.4H33.1669V43.6406Z" fill="#20378B"/>
<path d="M30.4913 29.6582H21.7237V35.4025H30.4913V29.6582Z" fill="#20378B"/>
<path d="M30.4913 29.6582H21.7237V35.4025H30.4913V29.6582Z" fill="#20378B"/>
<path d="M45.7136 29.6582H40.4984V35.4025H45.7136V29.6582Z" fill="#20378B"/>
<path d="M34.7995 42.402H21.7237V36.6426H34.7995" fill="#20378B"/>
<path d="M37.3542 36.6426H34.7995V42.402H37.3542V36.6426Z" fill="#20378B"/>
<path d="M38.5031 43.6406H41.1031V49.3849H38.5031" fill="#20378B"/>
<path d="M38.503 43.6406H33.1669V49.4H38.503V43.6406Z" fill="#20378B"/>
</g>
<path d="M38.503 51.8647C45.8832 51.8647 51.866 45.8819 51.866 38.5017C51.866 31.1215 45.8832 25.1387 38.503 25.1387C31.1228 25.1387 25.14 31.1215 25.14 38.5017C25.14 45.8819 31.1228 51.8647 38.503 51.8647Z" stroke="#20378B" stroke-width="0.57" stroke-linecap="round" stroke-linejoin="round"/>
<path d="M56.794 41.0085C61.2939 41.0085 64.9418 37.3606 64.9418 32.8607C64.9418 28.3608 61.2939 24.7129 56.794 24.7129C52.2941 24.7129 48.6462 28.3608 48.6462 32.8607C48.6462 37.3606 52.2941 41.0085 56.794 41.0085Z" fill="#BEE4F8" stroke="#20378B" stroke-width="0.57" stroke-linecap="round" stroke-linejoin="round"/>
<path d="M52.9998 33.3286L56.2498 37.0926L60.5883 29.2773" stroke="#20378B" stroke-width="0.57" stroke-linecap="round" stroke-linejoin="round"/>
</svg>
