<svg width="73" height="73" viewBox="0 0 73 73" fill="none" xmlns="http://www.w3.org/2000/svg">
<path d="M29.3877 34.0703C20.4387 34.0703 13.1828 40.3739 13.1828 48.1589C13.1828 51.5148 14.5282 54.5834 16.7805 57.0021L14.4375 62.4138L20.6504 60.0103C23.1748 61.4161 26.1679 62.2475 29.3877 62.2475C38.3367 62.2475 45.5926 55.9439 45.5926 48.1589C45.5926 40.3739 38.3367 34.0703 29.3877 34.0703Z" fill="#20378B" stroke="#20378B" stroke-width="0.57" stroke-linejoin="round"/>
<path d="M43.0682 22.2051C53.8765 22.2051 62.6441 29.8389 62.6441 39.2414C62.6441 43.2926 61.0115 47.0113 58.2905 49.9439L62.7197 57.7138L53.6195 53.587C50.566 55.2951 46.9532 56.2928 43.0682 56.2928C32.2599 56.2928 23.4923 48.659 23.4923 39.2565C23.4923 29.854 32.2599 22.2202 43.0682 22.2202V22.2051Z" fill="#D1DBE0" stroke="#20378B" stroke-width="0.57" stroke-linejoin="round"/>
<path d="M26.7877 6.60352C16.9619 6.60352 8.99553 13.542 8.99553 22.0828C8.99553 25.7713 10.4769 29.1423 12.9561 31.8028L8.79901 38.9982L17.2038 35.1133C19.9701 36.6552 23.2655 37.5622 26.7877 37.5622C36.6134 37.5622 44.5798 30.6237 44.5798 22.0828C44.5798 13.542 36.6134 6.60352 26.7877 6.60352Z" fill="white" stroke="#20378B" stroke-width="0.57" stroke-linejoin="round"/>
<path d="M26.697 31.2593C31.8481 31.2593 36.0239 27.0835 36.0239 21.9324C36.0239 16.7813 31.8481 12.6055 26.697 12.6055C21.5459 12.6055 17.3701 16.7813 17.3701 21.9324C17.3701 27.0835 21.5459 31.2593 26.697 31.2593Z" fill="#BEE4F8" stroke="#20378B" stroke-width="0.57" stroke-miterlimit="10" stroke-linecap="round"/>
<path d="M33.0308 23.8828C31.882 26.4375 29.4784 28.2061 26.6819 28.2061C23.8853 28.2061 21.4818 26.4375 20.3329 23.8828H33.0308Z" fill="#20378B"/>
<mask id="mask0_170_16028" style="mask-type:luminance" maskUnits="userSpaceOnUse" x="20" y="23" width="14" height="6">
<path d="M33.0308 23.8828C31.882 26.4375 29.4784 28.2061 26.6819 28.2061C23.8853 28.2061 21.4818 26.4375 20.3329 23.8828H33.0308Z" fill="white"/>
</mask>
<g mask="url(#mask0_170_16028)">
<path d="M36.7041 22.5215H18.7608V25.7111H36.7041V22.5215Z" fill="white"/>
</g>
<path d="M33.0308 23.8828C31.882 26.4375 29.4784 28.2061 26.6819 28.2061C23.8853 28.2061 21.4818 26.4375 20.3329 23.8828H33.0308Z" stroke="#20378B" stroke-width="0.57" stroke-linecap="round" stroke-linejoin="round"/>
<path d="M29.7052 19.9677C30.1143 19.9677 30.4459 19.6361 30.4459 19.227C30.4459 18.818 30.1143 18.4863 29.7052 18.4863C29.2961 18.4863 28.9645 18.818 28.9645 19.227C28.9645 19.6361 29.2961 19.9677 29.7052 19.9677Z" fill="#20378B" stroke="#20378B" stroke-width="0.57" stroke-linecap="round" stroke-linejoin="round"/>
<path d="M23.6737 19.9677C24.0828 19.9677 24.4144 19.6361 24.4144 19.227C24.4144 18.818 24.0828 18.4863 23.6737 18.4863C23.2646 18.4863 22.933 18.818 22.933 19.227C22.933 19.6361 23.2646 19.9677 23.6737 19.9677Z" fill="#20378B" stroke="#20378B" stroke-width="0.57" stroke-linecap="round" stroke-linejoin="round"/>
<path d="M40.71 69.0515C45.8027 69.0515 49.9311 64.9231 49.9311 59.8305C49.9311 54.7378 45.8027 50.6094 40.71 50.6094C35.6174 50.6094 31.489 54.7378 31.489 59.8305C31.489 64.9231 35.6174 69.0515 40.71 69.0515Z" fill="#BEE4F8" stroke="#20378B" stroke-width="0.57" stroke-linecap="round" stroke-linejoin="round"/>
<path d="M36.4169 60.3747L40.0902 64.6376L44.988 55.7793" stroke="#20378B" stroke-width="0.57" stroke-linecap="round" stroke-linejoin="round"/>
</svg>
