<svg width="199" height="199" viewBox="0 0 199 199" fill="none" xmlns="http://www.w3.org/2000/svg">
<path d="M66.2798 36.8201H77.0198" stroke="white" stroke-width="7"/>
<path d="M77.0198 24.3L66.2798 36.8201" stroke="white" stroke-width="7"/>
<path d="M77.0198 49.3401L66.2798 36.8201" stroke="white" stroke-width="7"/>
<path d="M77.0198 49.3401H66.2798" stroke="white" stroke-width="7"/>
<path d="M66.2798 61.8601H77.0198" stroke="white" stroke-width="7"/>
<path d="M77.0198 49.3401L66.2798 61.8601" stroke="white" stroke-width="7"/>
<path d="M77.0198 74.3801L66.2798 61.8601" stroke="white" stroke-width="7"/>
<path d="M77.0198 74.3801H66.2798" stroke="white" stroke-width="7"/>
<path d="M66.2798 86.9001H77.0198" stroke="white" stroke-width="7"/>
<path d="M77.0198 74.3801L66.2798 86.9001" stroke="white" stroke-width="7"/>
<path d="M77.0198 99.4201L66.2798 86.9001" stroke="white" stroke-width="7"/>
<path d="M77.0198 99.4202H66.2798" stroke="white" stroke-width="7"/>
<path d="M66.2798 111.94H77.0198" stroke="white" stroke-width="7"/>
<path d="M77.0198 99.4202L66.2798 111.94" stroke="white" stroke-width="7"/>
<path d="M77.0198 124.46L66.2798 111.94" stroke="white" stroke-width="7"/>
<path d="M77.0198 124.46H66.2798" stroke="white" stroke-width="7"/>
<path d="M66.2798 136.98H77.0198" stroke="white" stroke-width="7"/>
<path d="M77.0198 124.46L66.2798 136.98" stroke="white" stroke-width="7"/>
<path d="M77.0198 149.5L66.2798 136.98" stroke="white" stroke-width="7"/>
<path d="M66.2798 24.6401V155.62" stroke="white" stroke-width="7"/>
<path d="M77.0198 24.6401V154.3" stroke="white" stroke-width="7"/>
<path d="M24.8799 24.6399H152.76L142.02 15.4399H44.8199L31.5199 24.6399" stroke="white" stroke-width="7" stroke-linejoin="round"/>
<path d="M44.8198 15.4399V24.6399" stroke="white" stroke-width="7"/>
<path d="M55.5598 24.6399V15.4399" stroke="white" stroke-width="7"/>
<path d="M44.8198 15.4399L55.5598 24.6399" stroke="white" stroke-width="7"/>
<path d="M66.2798 15.4399L55.5598 24.6399" stroke="white" stroke-width="7"/>
<path d="M66.2798 15.4399V24.6399" stroke="white" stroke-width="7"/>
<path d="M77.0198 24.6399V15.4399" stroke="white" stroke-width="7"/>
<path d="M87.7598 24.6399V15.4399" stroke="white" stroke-width="7"/>
<path d="M66.2798 15.4399L77.0198 24.6399" stroke="white" stroke-width="7"/>
<path d="M87.7598 15.4399L77.0198 24.6399" stroke="white" stroke-width="7"/>
<path d="M98.4797 24.6399V15.4399" stroke="white" stroke-width="7"/>
<path d="M87.7598 15.4399L98.4798 24.6399" stroke="white" stroke-width="7"/>
<path d="M109.22 15.4399L98.4797 24.6399" stroke="white" stroke-width="7"/>
<path d="M109.22 15.4399V24.6399" stroke="white" stroke-width="7"/>
<path d="M119.96 24.6399V15.4399" stroke="white" stroke-width="7"/>
<path d="M130.68 24.6399V15.4399" stroke="white" stroke-width="7"/>
<path d="M141.42 24.6399V15.4399" stroke="white" stroke-width="7"/>
<path d="M109.22 15.4399L119.96 24.6399" stroke="white" stroke-width="7"/>
<path d="M130.68 15.4399L119.96 24.6399" stroke="white" stroke-width="7"/>
<path d="M31.5199 19.0999H24.8799V29.1999H31.5199V19.0999Z" fill="#D1DBE0" stroke="white" stroke-width="7"/>
<path d="M38.16 19.0999H31.52V29.1999H38.16V19.0999Z" fill="#D1DBE0" stroke="white" stroke-width="7"/>
<path d="M44.8199 19.0999H38.1799V29.1999H44.8199V19.0999Z" fill="#D1DBE0" stroke="white" stroke-width="7"/>
<path d="M130.68 15.4399L141.42 24.6399" stroke="white" stroke-width="7"/>
<path d="M66.2798 36.8201H77.0198" stroke="#20378B" stroke-width="1.14"/>
<path d="M77.0198 24.3L66.2798 36.8201" stroke="#20378B" stroke-width="1.14"/>
<path d="M77.0198 49.3401L66.2798 36.8201" stroke="#20378B" stroke-width="1.14"/>
<path d="M77.0198 49.3401H66.2798" stroke="#20378B" stroke-width="1.14"/>
<path d="M66.2798 61.8601H77.0198" stroke="#20378B" stroke-width="1.14"/>
<path d="M77.0198 49.3401L66.2798 61.8601" stroke="#20378B" stroke-width="1.14"/>
<path d="M77.0198 74.3801L66.2798 61.8601" stroke="#20378B" stroke-width="1.14"/>
<path d="M77.0198 74.3801H66.2798" stroke="#20378B" stroke-width="1.14"/>
<path d="M66.2798 86.9001H77.0198" stroke="#20378B" stroke-width="1.14"/>
<path d="M77.0198 74.3801L66.2798 86.9001" stroke="#20378B" stroke-width="1.14"/>
<path d="M77.0198 99.4201L66.2798 86.9001" stroke="#20378B" stroke-width="1.14"/>
<path d="M77.0198 99.4202H66.2798" stroke="#20378B" stroke-width="1.14"/>
<path d="M66.2798 111.94H77.0198" stroke="#20378B" stroke-width="1.14"/>
<path d="M77.0198 99.4202L66.2798 111.94" stroke="#20378B" stroke-width="1.14"/>
<path d="M77.0198 124.46L66.2798 111.94" stroke="#20378B" stroke-width="1.14"/>
<path d="M77.0198 124.46H66.2798" stroke="#20378B" stroke-width="1.14"/>
<path d="M66.2798 136.98H77.0198" stroke="#20378B" stroke-width="1.14"/>
<path d="M77.0198 124.46L66.2798 136.98" stroke="#20378B" stroke-width="1.14"/>
<path d="M77.0198 149.5L66.2798 136.98" stroke="#20378B" stroke-width="1.14"/>
<path d="M66.2798 24.6401V155.62" stroke="#20378B" stroke-width="1.14"/>
<path d="M77.0198 24.6401V154.3" stroke="#20378B" stroke-width="1.14"/>
<path d="M24.8799 24.6399H152.76L142.02 15.4399H44.8199L31.5199 24.6399" stroke="#20378B" stroke-width="1.14" stroke-linejoin="round"/>
<path d="M44.8198 15.4399V24.6399" stroke="#20378B" stroke-width="1.14"/>
<path d="M55.5598 24.6399V15.4399" stroke="#20378B" stroke-width="1.14"/>
<path d="M44.8198 15.4399L55.5598 24.6399" stroke="#20378B" stroke-width="1.14"/>
<path d="M66.2798 15.4399L55.5598 24.6399" stroke="#20378B" stroke-width="1.14"/>
<path d="M66.2798 15.4399V24.6399" stroke="#20378B" stroke-width="1.14"/>
<path d="M77.0198 24.6399V15.4399" stroke="#20378B" stroke-width="1.14"/>
<path d="M87.7598 24.6399V15.4399" stroke="#20378B" stroke-width="1.14"/>
<path d="M66.2798 15.4399L77.0198 24.6399" stroke="#20378B" stroke-width="1.14"/>
<path d="M87.7598 15.4399L77.0198 24.6399" stroke="#20378B" stroke-width="1.14"/>
<path d="M98.4797 24.6399V15.4399" stroke="#20378B" stroke-width="1.14"/>
<path d="M87.7598 15.4399L98.4798 24.6399" stroke="#20378B" stroke-width="1.14"/>
<path d="M109.22 15.4399L98.4797 24.6399" stroke="#20378B" stroke-width="1.14"/>
<path d="M109.22 15.4399V24.6399" stroke="#20378B" stroke-width="1.14"/>
<path d="M119.96 24.6399V15.4399" stroke="#20378B" stroke-width="1.14"/>
<path d="M130.68 24.6399V15.4399" stroke="#20378B" stroke-width="1.14"/>
<path d="M141.42 24.6399V15.4399" stroke="#20378B" stroke-width="1.14"/>
<path d="M109.22 15.4399L119.96 24.6399" stroke="#20378B" stroke-width="1.14"/>
<path d="M130.68 15.4399L119.96 24.6399" stroke="#20378B" stroke-width="1.14"/>
<path d="M31.5199 19.0999H24.8799V29.1999H31.5199V19.0999Z" fill="#D1DBE0" stroke="#20378B" stroke-width="1.14"/>
<path d="M38.16 19.0999H31.52V29.1999H38.16V19.0999Z" fill="#D1DBE0" stroke="#20378B" stroke-width="1.14"/>
<path d="M44.8199 19.0999H38.1799V29.1999H44.8199V19.0999Z" fill="#D1DBE0" stroke="#20378B" stroke-width="1.14"/>
<path d="M130.68 15.4399L141.42 24.6399" stroke="#20378B" stroke-width="1.14"/>
<path d="M142.948 68.2422L102.742 64.7246L101.126 83.1941L141.332 86.7117L142.948 68.2422Z" fill="white" stroke="white" stroke-width="7"/>
<path d="M122.6 28.5398V56.3198L110.9 84.3598" stroke="white" stroke-width="7" stroke-linejoin="round"/>
<path d="M125.28 27.5199C125.28 26.0599 126.48 24.8599 127.94 24.8599C129.4 24.8599 130.6 26.0599 130.6 27.5199C130.6 28.9799 129.4 30.1999 127.94 30.1999C126.48 30.1999 125.28 28.9999 125.28 27.5199Z" fill="white"/>
<path d="M114.6 27.5199C114.6 26.0599 115.8 24.8599 117.26 24.8599C118.72 24.8599 119.92 26.0599 119.92 27.5199C119.92 28.9799 118.72 30.1999 117.26 30.1999C115.8 30.1999 114.6 28.9999 114.6 27.5199Z" fill="white"/>
<path d="M127.68 26.3398H115.4V28.7398H127.68V26.3398Z" fill="white"/>
<path d="M122.6 56.3201L129.32 85.6601" stroke="white" stroke-width="7" stroke-linejoin="round"/>
<path d="M142.948 68.2422L102.742 64.7246L101.126 83.1941L141.332 86.7117L142.948 68.2422Z" fill="#E60032" stroke="#20378B" stroke-width="1.14"/>
<path d="M122.6 28.5398V56.3198L110.9 84.3598" stroke="#20378B" stroke-width="1.14" stroke-linejoin="round"/>
<path d="M125.28 27.5199C125.28 26.0599 126.48 24.8599 127.94 24.8599C129.4 24.8599 130.6 26.0599 130.6 27.5199C130.6 28.9799 129.4 30.1999 127.94 30.1999C126.48 30.1999 125.28 28.9999 125.28 27.5199Z" fill="#20378B"/>
<path d="M114.6 27.5199C114.6 26.0599 115.8 24.8599 117.26 24.8599C118.72 24.8599 119.92 26.0599 119.92 27.5199C119.92 28.9799 118.72 30.1999 117.26 30.1999C115.8 30.1999 114.6 28.9999 114.6 27.5199Z" fill="#20378B"/>
<path d="M127.68 26.3398H115.4V28.7398H127.68V26.3398Z" fill="#20378B"/>
<path d="M122.6 56.3201L129.32 85.6601" stroke="#20378B" stroke-width="1.14" stroke-linejoin="round"/>
<path d="M185.82 118.7H146.26V179.7H185.82V118.7Z" fill="white" stroke="#20378B" stroke-width="1.14"/>
<path d="M185.82 106.62H146.26V118.7H185.82V106.62Z" fill="#E60032" stroke="#20378B" stroke-width="1.14"/>
<path d="M185.82 148.62H146.26V179.7H185.82V148.62Z" fill="#BEE4F8" stroke="#20378B" stroke-width="1.14"/>
<path d="M185.82 166.94H146.26V181.98H185.82V166.94Z" fill="#20378B" stroke="#20378B" stroke-width="1.14"/>
<path d="M60.6801 117.18H21.1201V179.7H60.6801V117.18Z" fill="white" stroke="#20378B" stroke-width="1.14"/>
<path d="M60.6801 150.72H21.1201V179.72H60.6801V150.72Z" fill="#BEE4F8" stroke="#20378B" stroke-width="1.14"/>
<path d="M60.6801 175.32H21.1201V181.96H60.6801V175.32Z" fill="#20378B" stroke="#20378B" stroke-width="1.14"/>
<path d="M140.92 97.9399H101.36V179.7H140.92V97.9399Z" fill="white" stroke="#20378B" stroke-width="1.14"/>
<path d="M140.92 138.1H101.36V179.7H140.92V138.1Z" fill="#BEE4F8" stroke="#20378B" stroke-width="1.14"/>
<path d="M140.92 160.36H101.36V181.98H140.92V160.36Z" fill="#20378B" stroke="#20378B" stroke-width="1.14"/>
<path d="M92.2802 145.18H52.7202V186.18H92.2802V145.18Z" fill="white" stroke="#20378B" stroke-width="1.14"/>
<path d="M92.2802 161.14H52.7202V186.18H92.2802V161.14Z" fill="#BEE4F8" stroke="#20378B" stroke-width="1.14"/>
<path d="M169.6 109.1C177.023 109.1 183.04 103.083 183.04 95.66C183.04 88.2373 177.023 82.22 169.6 82.22C162.177 82.22 156.16 88.2373 156.16 95.66C156.16 103.083 162.177 109.1 169.6 109.1Z" fill="white" stroke="#20378B" stroke-width="1.14" stroke-linecap="round" stroke-linejoin="round"/>
<path d="M163.4 96.6599L168.7 101.72L173.96 89.6199" fill="white"/>
<path d="M163.4 96.6599L168.7 101.72L173.96 89.6199" stroke="#20378B" stroke-width="1.14" stroke-linecap="round" stroke-linejoin="round"/>
</svg>
