<svg width="73" height="73" viewBox="0 0 73 73" fill="none" xmlns="http://www.w3.org/2000/svg">
<path d="M35.6308 68.0081C49.6899 68.0081 61.087 56.611 61.087 42.5519C61.087 28.4928 49.6899 17.0957 35.6308 17.0957C21.5717 17.0957 10.1746 28.4928 10.1746 42.5519C10.1746 56.611 21.5717 68.0081 35.6308 68.0081Z" fill="#BEE4F8" stroke="#20378B" stroke-width="0.57" stroke-miterlimit="10" stroke-linecap="round"/>
<path d="M42.5391 45.6501C43.1986 45.6501 43.7333 45.1155 43.7333 44.4559C43.7333 43.7964 43.1986 43.2617 42.5391 43.2617C41.8795 43.2617 41.3448 43.7964 41.3448 44.4559C41.3448 45.1155 41.8795 45.6501 42.5391 45.6501Z" fill="#20378B" stroke="#20378B" stroke-width="0.57" stroke-miterlimit="10" stroke-linecap="round"/>
<path d="M28.1783 49.5661C28.8379 49.5661 29.3725 49.0315 29.3725 48.3719C29.3725 47.7124 28.8379 47.1777 28.1783 47.1777C27.5188 47.1777 26.9841 47.7124 26.9841 48.3719C26.9841 49.0315 27.5188 49.5661 28.1783 49.5661Z" fill="#20378B" stroke="#20378B" stroke-width="0.57" stroke-miterlimit="10" stroke-linecap="round"/>
<path d="M52.5915 33.6775C53.2511 33.6775 53.7858 33.1428 53.7858 32.4833C53.7858 31.8237 53.2511 31.2891 52.5915 31.2891C51.932 31.2891 51.3973 31.8237 51.3973 32.4833C51.3973 33.1428 51.932 33.6775 52.5915 33.6775Z" fill="#20378B" stroke="#20378B" stroke-width="0.57" stroke-miterlimit="10" stroke-linecap="round"/>
<path d="M40.2867 28.5383C41.2551 28.5383 42.0402 27.7532 42.0402 26.7848C42.0402 25.8163 41.2551 25.0312 40.2867 25.0312C39.3182 25.0312 38.5331 25.8163 38.5331 26.7848C38.5331 27.7532 39.3182 28.5383 40.2867 28.5383Z" fill="#20378B" stroke="#20378B" stroke-width="0.57" stroke-miterlimit="10" stroke-linecap="round"/>
<path d="M40.2867 26.7852L52.5916 32.4841L42.5391 44.4564L33.454 33.8899L40.2867 26.7852Z" stroke="#20378B" stroke-width="0.57" stroke-miterlimit="10" stroke-linecap="round"/>
<path d="M22.3131 24.7441L33.454 33.8896L18.3979 45.8922L28.1783 48.3713L52.5915 32.4838L33.454 33.8896" stroke="#20378B" stroke-width="0.57" stroke-miterlimit="10" stroke-linecap="round"/>
<path d="M60.437 36.7918L52.6671 32.2266L51.2613 51.3036L60.6184 47.4489" stroke="#20378B" stroke-width="0.57" stroke-miterlimit="10" stroke-linecap="round"/>
<path d="M19.5317 22.8555L22.3132 24.745L28.3447 48.614L51.2613 51.3048" stroke="#20378B" stroke-width="0.57" stroke-miterlimit="10" stroke-linecap="round"/>
<path d="M28.3447 48.6133L23.4922 62.8379" stroke="#20378B" stroke-width="0.57" stroke-miterlimit="10" stroke-linecap="round"/>
<path d="M42.539 44.457L40.2867 59.9061" stroke="#20378B" stroke-width="0.57" stroke-miterlimit="10" stroke-linecap="round"/>
<path d="M22.3132 24.7446L40.2867 26.7853L27.5586 18.4863" stroke="#20378B" stroke-width="0.57" stroke-miterlimit="10" stroke-linecap="round"/>
<path d="M52.6671 32.2273L54.8439 25.8633" stroke="#20378B" stroke-width="0.57" stroke-miterlimit="10" stroke-linecap="round"/>
<path d="M33.454 35.6438C34.4225 35.6438 35.2075 34.8587 35.2075 33.8902C35.2075 32.9218 34.4225 32.1367 33.454 32.1367C32.4856 32.1367 31.7005 32.9218 31.7005 33.8902C31.7005 34.8587 32.4856 35.6438 33.454 35.6438Z" fill="#20378B" stroke="#20378B" stroke-width="0.57" stroke-miterlimit="10" stroke-linecap="round"/>
<path d="M22.3131 26.4973C23.2816 26.4973 24.0667 25.7122 24.0667 24.7438C24.0667 23.7753 23.2816 22.9902 22.3131 22.9902C21.3447 22.9902 20.5596 23.7753 20.5596 24.7438C20.5596 25.7122 21.3447 26.4973 22.3131 26.4973Z" fill="#20378B" stroke="#20378B" stroke-width="0.57" stroke-miterlimit="10" stroke-linecap="round"/>
<path d="M28.1784 50.1242C29.1468 50.1242 29.9319 49.3391 29.9319 48.3707C29.9319 47.4023 29.1468 46.6172 28.1784 46.6172C27.2099 46.6172 26.4249 47.4023 26.4249 48.3707C26.4249 49.3391 27.2099 50.1242 28.1784 50.1242Z" fill="#20378B" stroke="#20378B" stroke-width="0.57" stroke-miterlimit="10" stroke-linecap="round"/>
<path d="M40.2867 61.6594C41.2551 61.6594 42.0402 60.8743 42.0402 59.9059C42.0402 58.9374 41.2551 58.1523 40.2867 58.1523C39.3182 58.1523 38.5331 58.9374 38.5331 59.9059C38.5331 60.8743 39.3182 61.6594 40.2867 61.6594Z" fill="#20378B" stroke="#20378B" stroke-width="0.57" stroke-miterlimit="10" stroke-linecap="round"/>
<path d="M23.4922 64.591C24.4607 64.591 25.2457 63.8059 25.2457 62.8375C25.2457 61.8691 24.4607 61.084 23.4922 61.084C22.5238 61.084 21.7387 61.8691 21.7387 62.8375C21.7387 63.8059 22.5238 64.591 23.4922 64.591Z" fill="#20378B" stroke="#20378B" stroke-width="0.57" stroke-miterlimit="10" stroke-linecap="round"/>
<path d="M18.398 47.6457C19.3664 47.6457 20.1515 46.8606 20.1515 45.8922C20.1515 44.9237 19.3664 44.1387 18.398 44.1387C17.4295 44.1387 16.6445 44.9237 16.6445 45.8922C16.6445 46.8606 17.4295 47.6457 18.398 47.6457Z" fill="#20378B" stroke="#20378B" stroke-width="0.57" stroke-miterlimit="10" stroke-linecap="round"/>
<path d="M42.539 46.2102C43.5075 46.2102 44.2926 45.4251 44.2926 44.4566C44.2926 43.4882 43.5075 42.7031 42.539 42.7031C41.5706 42.7031 40.7855 43.4882 40.7855 44.4566C40.7855 45.4251 41.5706 46.2102 42.539 46.2102Z" fill="#20378B" stroke="#20378B" stroke-width="0.57" stroke-miterlimit="10" stroke-linecap="round"/>
<path d="M50.9741 52.966C51.9425 52.966 52.7276 52.1809 52.7276 51.2125C52.7276 50.2441 51.9425 49.459 50.9741 49.459C50.0057 49.459 49.2206 50.2441 49.2206 51.2125C49.2206 52.1809 50.0057 52.966 50.9741 52.966Z" fill="#20378B" stroke="#20378B" stroke-width="0.57" stroke-miterlimit="10" stroke-linecap="round"/>
<path d="M52.5915 34.2375C53.56 34.2375 54.345 33.4524 54.345 32.484C54.345 31.5155 53.56 30.7305 52.5915 30.7305C51.6231 30.7305 50.838 31.5155 50.838 32.484C50.838 33.4524 51.6231 34.2375 52.5915 34.2375Z" fill="#20378B" stroke="#20378B" stroke-width="0.57" stroke-miterlimit="10" stroke-linecap="round"/>
<path d="M62.115 5.38086H38.3216C34.4668 5.38086 31.3528 8.50998 31.3528 12.3496C31.3528 16.1892 34.482 19.3183 38.3216 19.3183H38.4425L40.2867 23.687L42.1309 19.3183H62.0999C65.9546 19.3183 69.0686 16.1892 69.0686 12.3496C69.0686 8.50998 65.9394 5.38086 62.0999 5.38086H62.115Z" fill="white"/>
<path d="M62.115 5.38086H38.3216C34.4668 5.38086 31.3528 8.50998 31.3528 12.3496C31.3528 16.1892 34.482 19.3183 38.3216 19.3183H38.4425L40.2867 23.687L42.1309 19.3183H62.0999C65.9546 19.3183 69.0686 16.1892 69.0686 12.3496C69.0686 8.50998 65.9394 5.38086 62.0999 5.38086H62.115Z" stroke="#20378B" stroke-width="0.55" stroke-linejoin="round"/>
<path d="M39.8937 9.23633H60.9812" stroke="#20378B" stroke-width="0.57" stroke-miterlimit="10" stroke-linecap="round"/>
<path d="M39.8937 12.334H53.5137" stroke="#20378B" stroke-width="0.57" stroke-miterlimit="10" stroke-linecap="round"/>
<path d="M39.8937 15.4336H56.5067" stroke="#20378B" stroke-width="0.57" stroke-miterlimit="10" stroke-linecap="round"/>
<path d="M40.2867 59.9056L23.4922 62.8382L18.3979 45.8926L10.8548 48.3717" stroke="#20378B" stroke-width="0.57" stroke-miterlimit="10" stroke-linecap="round"/>
<path d="M28.3446 48.3711L35.2075 68.0075" stroke="#20378B" stroke-width="0.57" stroke-miterlimit="10" stroke-linecap="round"/>
<path d="M46.7414 65.4689L40.2867 59.906L51.2613 51.3047L52.5915 61.5083" stroke="#20378B" stroke-width="0.57" stroke-miterlimit="10" stroke-linecap="round"/>
<path d="M20.6503 29.5656C19.1991 25.8016 14.9665 23.9423 11.2025 25.3934C7.43848 26.8446 5.57915 31.0772 7.03034 34.8413C8.17919 37.8192 11.0664 39.5727 14.0898 39.4669L17.4003 42.8833L17.5363 38.4692C20.5596 36.6855 21.9503 32.9517 20.6503 29.5656Z" fill="white"/>
<path d="M20.6503 29.5656C19.1991 25.8016 14.9665 23.9423 11.2025 25.3934C7.43848 26.8446 5.57915 31.0772 7.03034 34.8413C8.17919 37.8192 11.0664 39.5727 14.0898 39.4669L17.4003 42.8833L17.5363 38.4692C20.5596 36.6855 21.9503 32.9517 20.6503 29.5656Z" stroke="#20378B" stroke-width="0.55" stroke-linejoin="round"/>
</svg>
