<?xml version="1.0" encoding="utf-8"?>
<!-- Generator: Adobe Illustrator 26.0.3, SVG Export Plug-In . SVG Version: 6.00 Build 0)  -->
<svg version="1.1" id="Ebene_1" xmlns="http://www.w3.org/2000/svg" xmlns:xlink="http://www.w3.org/1999/xlink" x="0px" y="0px"
	 viewBox="0 0 90 94.7" style="enable-background:new 0 0 90 94.7;" xml:space="preserve">
<style type="text/css">
	.st0{clip-path:url(#SVGID_00000034768248321961701190000009858940692672008355_);}
	.st1{opacity:0.35;clip-path:url(#SVGID_00000010303409743682917270000015744758548104244898_);}
	.st2{clip-path:url(#SVGID_00000178185225587236375960000016722916350501103765_);fill:#213A8F;}
	.st3{clip-path:url(#SVGID_00000034768248321961701190000009858940692672008355_);fill:#FFFFFF;}
	.st4{clip-path:url(#SVGID_00000176761161007397908300000015294870907750393733_);fill:none;stroke:#333D85;stroke-width:2;}
	.st5{clip-path:url(#SVGID_00000176761161007397908300000015294870907750393733_);fill:#333D85;}
	.st6{clip-path:url(#SVGID_00000176761161007397908300000015294870907750393733_);fill:none;stroke:#213A8F;stroke-width:2;}
	.st7{clip-path:url(#SVGID_00000034768248321961701190000009858940692672008355_);fill:none;stroke:#213A8F;stroke-width:14;}
	.st8{clip-path:url(#SVGID_00000103264897904005196880000008534813463897133503_);fill:none;stroke:#213A8F;stroke-width:14;}
	.st9{opacity:0.24;clip-path:url(#SVGID_00000103264897904005196880000008534813463897133503_);}
	.st10{clip-path:url(#SVGID_00000070801683446266715030000008623715153969789102_);fill:none;stroke:#213A8F;stroke-width:11.2;}
</style>
<desc>Created with Sketch.</desc>
<g>
	<defs>
		<rect id="SVGID_1_" x="1.6" y="1.5" width="86.7" height="92.2"/>
	</defs>
	<clipPath id="SVGID_00000034774972295449347110000007022690486367548846_">
		<use xlink:href="#SVGID_1_"  style="overflow:visible;"/>
	</clipPath>
	<g style="clip-path:url(#SVGID_00000034774972295449347110000007022690486367548846_);">
		<defs>
			<rect id="SVGID_00000002352373033209347530000000817578347682691499_" x="1.6" y="1.5" width="86.7" height="92.2"/>
		</defs>
		<clipPath id="SVGID_00000022557040227193215020000017047159347754242442_">
			<use xlink:href="#SVGID_00000002352373033209347530000000817578347682691499_"  style="overflow:visible;"/>
		</clipPath>
		<g style="opacity:0.35;clip-path:url(#SVGID_00000022557040227193215020000017047159347754242442_);">
			<g>
				<defs>
					<rect id="SVGID_00000076576511218271400080000000225074011053678474_" x="-4.1" y="38.9" width="104" height="55.8"/>
				</defs>
				<clipPath id="SVGID_00000071561094232355065240000003903618972923840181_">
					<use xlink:href="#SVGID_00000076576511218271400080000000225074011053678474_"  style="overflow:visible;"/>
				</clipPath>
				<polygon style="clip-path:url(#SVGID_00000071561094232355065240000003903618972923840181_);fill:#213A8F;" points="5.3,93.7 
					71,93.7 88.4,45.9 22.7,45.9 				"/>
			</g>
		</g>
	</g>
	<polygon style="clip-path:url(#SVGID_00000034774972295449347110000007022690486367548846_);fill:#FFFFFF;" points="19.9,45.5 
		86.6,45.5 69.7,92 3,92 	"/>
	<g style="clip-path:url(#SVGID_00000034774972295449347110000007022690486367548846_);">
		<defs>
			<rect id="SVGID_00000138565619083835981650000009627224901677501832_" x="1.6" y="1.5" width="86.7" height="92.2"/>
		</defs>
		<clipPath id="SVGID_00000039121786204315690860000005161086558768047013_">
			<use xlink:href="#SVGID_00000138565619083835981650000009627224901677501832_"  style="overflow:visible;"/>
		</clipPath>
		
			<polygon style="clip-path:url(#SVGID_00000039121786204315690860000005161086558768047013_);fill:none;stroke:#333D85;stroke-width:2;" points="
			3,92 69.7,92 86.6,45.5 19.9,45.5 		"/>
		<path style="clip-path:url(#SVGID_00000039121786204315690860000005161086558768047013_);fill:#333D85;" d="M44.1,79.1
			c1.9,0,3.5-1.6,3.5-3.5s-1.6-3.5-3.5-3.5c-1.9,0-3.5,1.6-3.5,3.5S42.1,79.1,44.1,79.1"/>
		
			<ellipse style="clip-path:url(#SVGID_00000039121786204315690860000005161086558768047013_);fill:none;stroke:#213A8F;stroke-width:2;" cx="44.1" cy="75.6" rx="3.5" ry="3.5"/>
		<path style="clip-path:url(#SVGID_00000039121786204315690860000005161086558768047013_);fill:#333D85;" d="M24.4,62.6
			c1.9,0,3.5-1.6,3.5-3.5c0-1.9-1.6-3.5-3.5-3.5s-3.5,1.6-3.5,3.5C20.9,61.1,22.5,62.6,24.4,62.6"/>
		
			<ellipse style="clip-path:url(#SVGID_00000039121786204315690860000005161086558768047013_);fill:none;stroke:#213A8F;stroke-width:2;" cx="24.4" cy="59.1" rx="3.5" ry="3.5"/>
		<path style="clip-path:url(#SVGID_00000039121786204315690860000005161086558768047013_);fill:#333D85;" d="M70.8,65.3
			c1.9,0,3.5-1.6,3.5-3.5c0-1.9-1.6-3.5-3.5-3.5c-1.9,0-3.5,1.6-3.5,3.5C67.4,63.7,68.9,65.3,70.8,65.3"/>
		
			<ellipse style="clip-path:url(#SVGID_00000039121786204315690860000005161086558768047013_);fill:none;stroke:#213A8F;stroke-width:2;" cx="70.8" cy="61.8" rx="3.5" ry="3.5"/>
	</g>
	
		<polygon style="clip-path:url(#SVGID_00000034774972295449347110000007022690486367548846_);fill:none;stroke:#213A8F;stroke-width:14;" points="
		50.7,45.1 44.4,46.2 35.4,43.1 35,43.4 44.9,58.2 53.5,46.5 	"/>
	<g style="clip-path:url(#SVGID_00000034774972295449347110000007022690486367548846_);">
		<defs>
			<rect id="SVGID_00000011005173253271924160000015206406629992373684_" x="1.6" y="1.5" width="86.7" height="92.2"/>
		</defs>
		<clipPath id="SVGID_00000181068251680377312020000011475050521941113774_">
			<use xlink:href="#SVGID_00000011005173253271924160000015206406629992373684_"  style="overflow:visible;"/>
		</clipPath>
		
			<path style="clip-path:url(#SVGID_00000181068251680377312020000011475050521941113774_);fill:none;stroke:#213A8F;stroke-width:14;" d="
			M45.9,45.2c10.2,0,18-9.1,18-18.9S55.6,8.5,45.4,8.5s-18.5,8-18.5,17.8S35.7,45.2,45.9,45.2z"/>
		<g style="opacity:0.24;clip-path:url(#SVGID_00000181068251680377312020000011475050521941113774_);">
			<g>
				<defs>
					<rect id="SVGID_00000173876340177743691520000003569052168915715221_" x="4.7" y="2.3" width="102.1" height="70.7"/>
				</defs>
				<clipPath id="SVGID_00000060016249532782060010000010120242334869553536_">
					<use xlink:href="#SVGID_00000173876340177743691520000003569052168915715221_"  style="overflow:visible;"/>
				</clipPath>
				
					<polygon style="clip-path:url(#SVGID_00000060016249532782060010000010120242334869553536_);fill:none;stroke:#213A8F;stroke-width:11.2;" points="
					56.3,50.1 50.9,51 44.7,48.5 44.3,48.8 47.8,60.6 58.1,51.3 				"/>
				
					<path style="clip-path:url(#SVGID_00000060016249532782060010000010120242334869553536_);fill:none;stroke:#213A8F;stroke-width:11.2;" d="
					M52.4,50.2c8.2,0,17-7.2,19.9-15.1c2.9-7.8-1.4-14.2-9.6-14.2s-17.1,6.4-19.9,14.2C39.9,43,44.2,50.2,52.4,50.2z"/>
			</g>
		</g>
	</g>
</g>
</svg>
