<?xml version="1.0" encoding="utf-8"?>
<!-- Generator: Adobe Illustrator 25.2.0, SVG Export Plug-In . SVG Version: 6.00 Build 0)  -->
<svg version="1.1" id="Ebene_1" xmlns="http://www.w3.org/2000/svg" xmlns:xlink="http://www.w3.org/1999/xlink" x="0px" y="0px"
	 viewBox="0 0 90 79.2" style="enable-background:new 0 0 90 79.2;" xml:space="preserve">
<style type="text/css">
	.st0{fill:none;stroke:#213A8F;stroke-width:2.24;}
	.st1{fill:none;stroke:#FFFFFF;stroke-width:3.36;}
	.st2{fill-rule:evenodd;clip-rule:evenodd;fill:#213A8F;}
	.st3{fill:none;stroke:#213A8F;}
	.st4{fill:none;stroke:#213A8F;stroke-width:2;}
	.st5{fill-rule:evenodd;clip-rule:evenodd;fill:none;}
	.st6{fill-rule:evenodd;clip-rule:evenodd;fill:#FFFFFF;}
</style>
<line class="st0" x1="16.1" y1="26.3" x2="41.6" y2="43.2"/>
<ellipse class="st1" cx="42.5" cy="42.8" rx="11" ry="11.2"/>
<g>
	<ellipse id="path-2_1_" class="st0" cx="42.5" cy="43.3" rx="12" ry="11.7"/>
</g>
<g>
	
		<ellipse id="path-2_2_" transform="matrix(0.9905 -0.1378 0.1378 0.9905 -3.3777 2.302)" class="st2" cx="14.9" cy="25.5" rx="6.4" ry="6.3"/>
</g>
<g>
	<ellipse id="path-2_3_" class="st2" cx="75.9" cy="26.3" rx="8.1" ry="8"/>
</g>
<g>
	<circle id="path-2_4_" class="st2" cx="27.2" cy="6.9" r="4.3"/>
</g>
<line class="st3" x1="48.2" y1="70.2" x2="67.5" y2="59.2"/>
<line class="st4" x1="42.5" y1="42.8" x2="78" y2="24.9"/>
<line class="st3" x1="14.6" y1="26.1" x2="27.2" y2="6.9"/>
<g>
	<circle id="path-2_7_" class="st2" cx="23.7" cy="65.3" r="6.1"/>
</g>
<line class="st4" x1="23.7" y1="65.3" x2="42.5" y2="43.7"/>
<g>
	<circle id="path-2_5_" class="st2" cx="68" cy="59.3" r="5.4"/>
</g>
<g>
	<circle id="path-2_6_" class="st2" cx="47.9" cy="70.7" r="7.4"/>
</g>
<g>
	<circle id="path-2_8_" class="st2" cx="50.8" cy="10.6" r="8.5"/>
</g>
<line class="st3" x1="42.5" y1="42.8" x2="50.8" y2="10.6"/>
<line class="st3" x1="27.2" y1="6.9" x2="49.3" y2="10.6"/>
<rect x="10.5" y="43.7" class="st5" width="20.8" height="5.9"/>
<rect x="12.9" y="52.5" class="st5" width="11.8" height="6.9"/>
<g>
	<ellipse id="path-2" class="st2" cx="42.1" cy="43.3" rx="11.7" ry="12.1"/>
</g>
<g>
	<ellipse id="path-2_10_" class="st6" cx="42.5" cy="43.3" rx="10.2" ry="10.1"/>
</g>
<g>
	<ellipse id="path-2_11_" class="st6" cx="47.8" cy="70.7" rx="5.6" ry="5.7"/>
</g>
</svg>
