<?xml version="1.0" encoding="UTF-8"?>
<svg width="72px" height="100px" viewBox="0 0 72 100" version="1.1" xmlns="http://www.w3.org/2000/svg" xmlns:xlink="http://www.w3.org/1999/xlink">
    <!-- Generator: Sketch 49.2 (51160) - http://www.bohemiancoding.com/sketch -->
    <title>Group 7</title>
    <desc>Created with Sketch.</desc>
    <defs>
        <rect id="path-1" x="0.825652883" y="11.2987792" width="71.4" height="88.659375" rx="5.6"></rect>
    </defs>
    <g id="Page-1" stroke="none" stroke-width="1" fill="none" fill-rule="evenodd">
        <g id="Open-Data" transform="translate(-504.000000, -2970.000000)">
            <g id="Group-7" transform="translate(503.570575, 2969.758082)">
                <g id="Rectangle-12-Copy-2">
                    <use fill="#FFFFFF" fill-rule="evenodd" xlink:href="#path-1"></use>
                    <rect stroke="#213A8F" stroke-width="2.8" x="2.22565288" y="12.6987792" width="68.6" height="85.859375" rx="5.6"></rect>
                </g>
                <g id="Group-3" transform="translate(18.325653, 26.019229)">
                    <path d="M2.2176,7.4836 L2.2176,3.2164 L2.0664,3.2164 L1.512,5.2324 L0.4536,5.2324 L0.4536,5.1316 L1.1592,2.662 L3.3264,2.662 L3.3264,7.4836 L4.788,7.4836 L4.788,8.542 L0.5544,8.542 L0.5544,7.4836 L2.2176,7.4836 Z M7.1456,5.602 C7.1456,5.41159905 7.2155993,5.2464007 7.3556,5.1064 C7.4956007,4.9663993 7.66079905,4.8964 7.8512,4.8964 C8.04160095,4.8964 8.2067993,4.9663993 8.3468,5.1064 C8.4868007,5.2464007 8.5568,5.41159905 8.5568,5.602 C8.5568,5.79240095 8.4868007,5.9575993 8.3468,6.0976 C8.2067993,6.2376007 8.04160095,6.3076 7.8512,6.3076 C7.66079905,6.3076 7.4956007,6.2376007 7.3556,6.0976 C7.2155993,5.9575993 7.1456,5.79240095 7.1456,5.602 Z M5.684,4.9468 C5.684,4.18519619 5.87579808,3.5944021 6.2594,3.1744 C6.64300192,2.7543979 7.17359661,2.5444 7.8512,2.5444 C8.52880339,2.5444 9.05939808,2.7543979 9.443,3.1744 C9.82660192,3.5944021 10.0184,4.18519619 10.0184,4.9468 L10.0184,6.2572 C10.0184,7.04120392 9.82660192,7.63759796 9.443,8.0464 C9.05939808,8.45520204 8.52880339,8.6596 7.8512,8.6596 C7.17359661,8.6596 6.64300192,8.45520204 6.2594,8.0464 C5.87579808,7.63759796 5.684,7.04120392 5.684,6.2572 L5.684,4.9468 Z M7.8512,7.6516 C8.05280101,7.6516 8.22079933,7.61940032 8.3552,7.555 C8.48960067,7.49059968 8.59879958,7.39960059 8.6828,7.282 C8.76680042,7.16439941 8.82559983,7.02440081 8.8592,6.862 C8.89280017,6.69959919 8.9096,6.52040098 8.9096,6.3244 L8.9096,4.8796 C8.9096,4.69479908 8.8900002,4.52120081 8.8508,4.3588 C8.81159981,4.19639919 8.75000042,4.05640059 8.666,3.9388 C8.58199958,3.82119941 8.47280067,3.72740035 8.3384,3.6574 C8.20399933,3.58739965 8.04160095,3.5524 7.8512,3.5524 C7.66079905,3.5524 7.49840067,3.58739965 7.364,3.6574 C7.22959933,3.72740035 7.12040042,3.82119941 7.0364,3.9388 C6.95239958,4.05640059 6.8908002,4.19639919 6.8516,4.3588 C6.81239981,4.52120081 6.7928,4.69479908 6.7928,4.8796 L6.7928,6.3244 C6.7928,6.52040098 6.80959983,6.69959919 6.8432,6.862 C6.87680017,7.02440081 6.93559958,7.16439941 7.0196,7.282 C7.10360042,7.39960059 7.21279933,7.49059968 7.3472,7.555 C7.48160067,7.61940032 7.64959899,7.6516 7.8512,7.6516 Z M12.7792,7.4836 L12.7792,3.2164 L12.628,3.2164 L12.0736,5.2324 L11.0152,5.2324 L11.0152,5.1316 L11.7208,2.662 L13.888,2.662 L13.888,7.4836 L15.3496,7.4836 L15.3496,8.542 L11.116,8.542 L11.116,7.4836 L12.7792,7.4836 Z M18.06,7.4836 L18.06,3.2164 L17.9088,3.2164 L17.3544,5.2324 L16.296,5.2324 L16.296,5.1316 L17.0016,2.662 L19.1688,2.662 L19.1688,7.4836 L20.6304,7.4836 L20.6304,8.542 L16.3968,8.542 L16.3968,7.4836 L18.06,7.4836 Z M1.8648,22.402 C1.8648,22.211599 1.9347993,22.0464007 2.0748,21.9064 C2.2148007,21.7663993 2.37999905,21.6964 2.5704,21.6964 C2.76080095,21.6964 2.9259993,21.7663993 3.066,21.9064 C3.2060007,22.0464007 3.276,22.211599 3.276,22.402 C3.276,22.592401 3.2060007,22.7575993 3.066,22.8976 C2.9259993,23.0376007 2.76080095,23.1076 2.5704,23.1076 C2.37999905,23.1076 2.2148007,23.0376007 2.0748,22.8976 C1.9347993,22.7575993 1.8648,22.592401 1.8648,22.402 Z M0.4032,21.7468 C0.4032,20.9851962 0.594998082,20.3944021 0.9786,19.9744 C1.36220192,19.5543979 1.89279661,19.3444 2.5704,19.3444 C3.24800339,19.3444 3.77859808,19.5543979 4.1622,19.9744 C4.54580192,20.3944021 4.7376,20.9851962 4.7376,21.7468 L4.7376,23.0572 C4.7376,23.8412039 4.54580192,24.437598 4.1622,24.8464 C3.77859808,25.255202 3.24800339,25.4596 2.5704,25.4596 C1.89279661,25.4596 1.36220192,25.255202 0.9786,24.8464 C0.594998082,24.437598 0.4032,23.8412039 0.4032,23.0572 L0.4032,21.7468 Z M2.5704,24.4516 C2.77200101,24.4516 2.93999933,24.4194003 3.0744,24.355 C3.20880067,24.2905997 3.31799958,24.1996006 3.402,24.082 C3.48600042,23.9643994 3.54479983,23.8244008 3.5784,23.662 C3.61200017,23.4995992 3.6288,23.320401 3.6288,23.1244 L3.6288,21.6796 C3.6288,21.4947991 3.6092002,21.3212008 3.57,21.1588 C3.5307998,20.9963992 3.46920042,20.8564006 3.3852,20.7388 C3.30119958,20.6211994 3.19200067,20.5274003 3.0576,20.4574 C2.92319933,20.3873996 2.76080095,20.3524 2.5704,20.3524 C2.37999905,20.3524 2.21760067,20.3873996 2.0832,20.4574 C1.94879933,20.5274003 1.83960042,20.6211994 1.7556,20.7388 C1.67159958,20.8564006 1.6100002,20.9963992 1.5708,21.1588 C1.5315998,21.3212008 1.512,21.4947991 1.512,21.6796 L1.512,23.1244 C1.512,23.320401 1.52879983,23.4995992 1.5624,23.662 C1.59600017,23.8244008 1.65479958,23.9643994 1.7388,24.082 C1.82280042,24.1996006 1.93199933,24.2905997 2.0664,24.355 C2.20080067,24.4194003 2.36879899,24.4516 2.5704,24.4516 Z M7.1456,22.402 C7.1456,22.211599 7.2155993,22.0464007 7.3556,21.9064 C7.4956007,21.7663993 7.66079905,21.6964 7.8512,21.6964 C8.04160095,21.6964 8.2067993,21.7663993 8.3468,21.9064 C8.4868007,22.0464007 8.5568,22.211599 8.5568,22.402 C8.5568,22.592401 8.4868007,22.7575993 8.3468,22.8976 C8.2067993,23.0376007 8.04160095,23.1076 7.8512,23.1076 C7.66079905,23.1076 7.4956007,23.0376007 7.3556,22.8976 C7.2155993,22.7575993 7.1456,22.592401 7.1456,22.402 Z M5.684,21.7468 C5.684,20.9851962 5.87579808,20.3944021 6.2594,19.9744 C6.64300192,19.5543979 7.17359661,19.3444 7.8512,19.3444 C8.52880339,19.3444 9.05939808,19.5543979 9.443,19.9744 C9.82660192,20.3944021 10.0184,20.9851962 10.0184,21.7468 L10.0184,23.0572 C10.0184,23.8412039 9.82660192,24.437598 9.443,24.8464 C9.05939808,25.255202 8.52880339,25.4596 7.8512,25.4596 C7.17359661,25.4596 6.64300192,25.255202 6.2594,24.8464 C5.87579808,24.437598 5.684,23.8412039 5.684,23.0572 L5.684,21.7468 Z M7.8512,24.4516 C8.05280101,24.4516 8.22079933,24.4194003 8.3552,24.355 C8.48960067,24.2905997 8.59879958,24.1996006 8.6828,24.082 C8.76680042,23.9643994 8.82559983,23.8244008 8.8592,23.662 C8.89280017,23.4995992 8.9096,23.320401 8.9096,23.1244 L8.9096,21.6796 C8.9096,21.4947991 8.8900002,21.3212008 8.8508,21.1588 C8.81159981,20.9963992 8.75000042,20.8564006 8.666,20.7388 C8.58199958,20.6211994 8.47280067,20.5274003 8.3384,20.4574 C8.20399933,20.3873996 8.04160095,20.3524 7.8512,20.3524 C7.66079905,20.3524 7.49840067,20.3873996 7.364,20.4574 C7.22959933,20.5274003 7.12040042,20.6211994 7.0364,20.7388 C6.95239958,20.8564006 6.8908002,20.9963992 6.8516,21.1588 C6.81239981,21.3212008 6.7928,21.4947991 6.7928,21.6796 L6.7928,23.1244 C6.7928,23.320401 6.80959983,23.4995992 6.8432,23.662 C6.87680017,23.8244008 6.93559958,23.9643994 7.0196,24.082 C7.10360042,24.1996006 7.21279933,24.2905997 7.3472,24.355 C7.48160067,24.4194003 7.64959899,24.4516 7.8512,24.4516 Z M12.7792,24.2836 L12.7792,20.0164 L12.628,20.0164 L12.0736,22.0324 L11.0152,22.0324 L11.0152,21.9316 L11.7208,19.462 L13.888,19.462 L13.888,24.2836 L15.3496,24.2836 L15.3496,25.342 L11.116,25.342 L11.116,24.2836 L12.7792,24.2836 Z M17.7072,22.402 C17.7072,22.211599 17.7771993,22.0464007 17.9172,21.9064 C18.0572007,21.7663993 18.2223991,21.6964 18.4128,21.6964 C18.603201,21.6964 18.7683993,21.7663993 18.9084,21.9064 C19.0484007,22.0464007 19.1184,22.211599 19.1184,22.402 C19.1184,22.592401 19.0484007,22.7575993 18.9084,22.8976 C18.7683993,23.0376007 18.603201,23.1076 18.4128,23.1076 C18.2223991,23.1076 18.0572007,23.0376007 17.9172,22.8976 C17.7771993,22.7575993 17.7072,22.592401 17.7072,22.402 Z M16.2456,21.7468 C16.2456,20.9851962 16.4373981,20.3944021 16.821,19.9744 C17.2046019,19.5543979 17.7351966,19.3444 18.4128,19.3444 C19.0904034,19.3444 19.6209981,19.5543979 20.0046,19.9744 C20.3882019,20.3944021 20.58,20.9851962 20.58,21.7468 L20.58,23.0572 C20.58,23.8412039 20.3882019,24.437598 20.0046,24.8464 C19.6209981,25.255202 19.0904034,25.4596 18.4128,25.4596 C17.7351966,25.4596 17.2046019,25.255202 16.821,24.8464 C16.4373981,24.437598 16.2456,23.8412039 16.2456,23.0572 L16.2456,21.7468 Z M18.4128,24.4516 C18.614401,24.4516 18.7823993,24.4194003 18.9168,24.355 C19.0512007,24.2905997 19.1603996,24.1996006 19.2444,24.082 C19.3284004,23.9643994 19.3871998,23.8244008 19.4208,23.662 C19.4544002,23.4995992 19.4712,23.320401 19.4712,23.1244 L19.4712,21.6796 C19.4712,21.4947991 19.4516002,21.3212008 19.4124,21.1588 C19.3731998,20.9963992 19.3116004,20.8564006 19.2276,20.7388 C19.1435996,20.6211994 19.0344007,20.5274003 18.9,20.4574 C18.7655993,20.3873996 18.603201,20.3524 18.4128,20.3524 C18.2223991,20.3524 18.0600007,20.3873996 17.9256,20.4574 C17.7911993,20.5274003 17.6820004,20.6211994 17.598,20.7388 C17.5139996,20.8564006 17.4524002,20.9963992 17.4132,21.1588 C17.3739998,21.3212008 17.3544,21.4947991 17.3544,21.6796 L17.3544,23.1244 C17.3544,23.320401 17.3711998,23.4995992 17.4048,23.662 C17.4384002,23.8244008 17.4971996,23.9643994 17.5812,24.082 C17.6652004,24.1996006 17.7743993,24.2905997 17.9088,24.355 C18.0432007,24.4194003 18.211199,24.4516 18.4128,24.4516 Z M2.2176,41.0836 L2.2176,36.8164 L2.0664,36.8164 L1.512,38.8324 L0.4536,38.8324 L0.4536,38.7316 L1.1592,36.262 L3.3264,36.262 L3.3264,41.0836 L4.788,41.0836 L4.788,42.142 L0.5544,42.142 L0.5544,41.0836 L2.2176,41.0836 Z M7.1456,39.202 C7.1456,39.011599 7.2155993,38.8464007 7.3556,38.7064 C7.4956007,38.5663993 7.66079905,38.4964 7.8512,38.4964 C8.04160095,38.4964 8.2067993,38.5663993 8.3468,38.7064 C8.4868007,38.8464007 8.5568,39.011599 8.5568,39.202 C8.5568,39.392401 8.4868007,39.5575993 8.3468,39.6976 C8.2067993,39.8376007 8.04160095,39.9076 7.8512,39.9076 C7.66079905,39.9076 7.4956007,39.8376007 7.3556,39.6976 C7.2155993,39.5575993 7.1456,39.392401 7.1456,39.202 Z M5.684,38.5468 C5.684,37.7851962 5.87579808,37.1944021 6.2594,36.7744 C6.64300192,36.3543979 7.17359661,36.1444 7.8512,36.1444 C8.52880339,36.1444 9.05939808,36.3543979 9.443,36.7744 C9.82660192,37.1944021 10.0184,37.7851962 10.0184,38.5468 L10.0184,39.8572 C10.0184,40.6412039 9.82660192,41.237598 9.443,41.6464 C9.05939808,42.055202 8.52880339,42.2596 7.8512,42.2596 C7.17359661,42.2596 6.64300192,42.055202 6.2594,41.6464 C5.87579808,41.237598 5.684,40.6412039 5.684,39.8572 L5.684,38.5468 Z M7.8512,41.2516 C8.05280101,41.2516 8.22079933,41.2194003 8.3552,41.155 C8.48960067,41.0905997 8.59879958,40.9996006 8.6828,40.882 C8.76680042,40.7643994 8.82559983,40.6244008 8.8592,40.462 C8.89280017,40.2995992 8.9096,40.120401 8.9096,39.9244 L8.9096,38.4796 C8.9096,38.2947991 8.8900002,38.1212008 8.8508,37.9588 C8.81159981,37.7963992 8.75000042,37.6564006 8.666,37.5388 C8.58199958,37.4211994 8.47280067,37.3274003 8.3384,37.2574 C8.20399933,37.1873996 8.04160095,37.1524 7.8512,37.1524 C7.66079905,37.1524 7.49840067,37.1873996 7.364,37.2574 C7.22959933,37.3274003 7.12040042,37.4211994 7.0364,37.5388 C6.95239958,37.6564006 6.8908002,37.7963992 6.8516,37.9588 C6.81239981,38.1212008 6.7928,38.2947991 6.7928,38.4796 L6.7928,39.9244 C6.7928,40.120401 6.80959983,40.2995992 6.8432,40.462 C6.87680017,40.6244008 6.93559958,40.7643994 7.0196,40.882 C7.10360042,40.9996006 7.21279933,41.0905997 7.3472,41.155 C7.48160067,41.2194003 7.64959899,41.2516 7.8512,41.2516 Z M12.4264,39.202 C12.4264,39.011599 12.4963993,38.8464007 12.6364,38.7064 C12.7764007,38.5663993 12.9415991,38.4964 13.132,38.4964 C13.322401,38.4964 13.4875993,38.5663993 13.6276,38.7064 C13.7676007,38.8464007 13.8376,39.011599 13.8376,39.202 C13.8376,39.392401 13.7676007,39.5575993 13.6276,39.6976 C13.4875993,39.8376007 13.322401,39.9076 13.132,39.9076 C12.9415991,39.9076 12.7764007,39.8376007 12.6364,39.6976 C12.4963993,39.5575993 12.4264,39.392401 12.4264,39.202 Z M10.9648,38.5468 C10.9648,37.7851962 11.1565981,37.1944021 11.5402,36.7744 C11.9238019,36.3543979 12.4543966,36.1444 13.132,36.1444 C13.8096034,36.1444 14.3401981,36.3543979 14.7238,36.7744 C15.1074019,37.1944021 15.2992,37.7851962 15.2992,38.5468 L15.2992,39.8572 C15.2992,40.6412039 15.1074019,41.237598 14.7238,41.6464 C14.3401981,42.055202 13.8096034,42.2596 13.132,42.2596 C12.4543966,42.2596 11.9238019,42.055202 11.5402,41.6464 C11.1565981,41.237598 10.9648,40.6412039 10.9648,39.8572 L10.9648,38.5468 Z M13.132,41.2516 C13.333601,41.2516 13.5015993,41.2194003 13.636,41.155 C13.7704007,41.0905997 13.8795996,40.9996006 13.9636,40.882 C14.0476004,40.7643994 14.1063998,40.6244008 14.14,40.462 C14.1736002,40.2995992 14.1904,40.120401 14.1904,39.9244 L14.1904,38.4796 C14.1904,38.2947991 14.1708002,38.1212008 14.1316,37.9588 C14.0923998,37.7963992 14.0308004,37.6564006 13.9468,37.5388 C13.8627996,37.4211994 13.7536007,37.3274003 13.6192,37.2574 C13.4847993,37.1873996 13.322401,37.1524 13.132,37.1524 C12.9415991,37.1524 12.7792007,37.1873996 12.6448,37.2574 C12.5103993,37.3274003 12.4012004,37.4211994 12.3172,37.5388 C12.2331996,37.6564006 12.1716002,37.7963992 12.1324,37.9588 C12.0931998,38.1212008 12.0736,38.2947991 12.0736,38.4796 L12.0736,39.9244 C12.0736,40.120401 12.0903998,40.2995992 12.124,40.462 C12.1576002,40.6244008 12.2163996,40.7643994 12.3004,40.882 C12.3844004,40.9996006 12.4935993,41.0905997 12.628,41.155 C12.7624007,41.2194003 12.930399,41.2516 13.132,41.2516 Z M18.06,41.0836 L18.06,36.8164 L17.9088,36.8164 L17.3544,38.8324 L16.296,38.8324 L16.296,38.7316 L17.0016,36.262 L19.1688,36.262 L19.1688,41.0836 L20.6304,41.0836 L20.6304,42.142 L16.3968,42.142 L16.3968,41.0836 L18.06,41.0836 Z M2.2176,57.8836 L2.2176,53.6164 L2.0664,53.6164 L1.512,55.6324 L0.4536,55.6324 L0.4536,55.5316 L1.1592,53.062 L3.3264,53.062 L3.3264,57.8836 L4.788,57.8836 L4.788,58.942 L0.5544,58.942 L0.5544,57.8836 L2.2176,57.8836 Z M7.1456,56.002 C7.1456,55.811599 7.2155993,55.6464007 7.3556,55.5064 C7.4956007,55.3663993 7.66079905,55.2964 7.8512,55.2964 C8.04160095,55.2964 8.2067993,55.3663993 8.3468,55.5064 C8.4868007,55.6464007 8.5568,55.811599 8.5568,56.002 C8.5568,56.192401 8.4868007,56.3575993 8.3468,56.4976 C8.2067993,56.6376007 8.04160095,56.7076 7.8512,56.7076 C7.66079905,56.7076 7.4956007,56.6376007 7.3556,56.4976 C7.2155993,56.3575993 7.1456,56.192401 7.1456,56.002 Z M5.684,55.3468 C5.684,54.5851962 5.87579808,53.9944021 6.2594,53.5744 C6.64300192,53.1543979 7.17359661,52.9444 7.8512,52.9444 C8.52880339,52.9444 9.05939808,53.1543979 9.443,53.5744 C9.82660192,53.9944021 10.0184,54.5851962 10.0184,55.3468 L10.0184,56.6572 C10.0184,57.4412039 9.82660192,58.037598 9.443,58.4464 C9.05939808,58.855202 8.52880339,59.0596 7.8512,59.0596 C7.17359661,59.0596 6.64300192,58.855202 6.2594,58.4464 C5.87579808,58.037598 5.684,57.4412039 5.684,56.6572 L5.684,55.3468 Z M7.8512,58.0516 C8.05280101,58.0516 8.22079933,58.0194003 8.3552,57.955 C8.48960067,57.8905997 8.59879958,57.7996006 8.6828,57.682 C8.76680042,57.5643994 8.82559983,57.4244008 8.8592,57.262 C8.89280017,57.0995992 8.9096,56.920401 8.9096,56.7244 L8.9096,55.2796 C8.9096,55.0947991 8.8900002,54.9212008 8.8508,54.7588 C8.81159981,54.5963992 8.75000042,54.4564006 8.666,54.3388 C8.58199958,54.2211994 8.47280067,54.1274003 8.3384,54.0574 C8.20399933,53.9873996 8.04160095,53.9524 7.8512,53.9524 C7.66079905,53.9524 7.49840067,53.9873996 7.364,54.0574 C7.22959933,54.1274003 7.12040042,54.2211994 7.0364,54.3388 C6.95239958,54.4564006 6.8908002,54.5963992 6.8516,54.7588 C6.81239981,54.9212008 6.7928,55.0947991 6.7928,55.2796 L6.7928,56.7244 C6.7928,56.920401 6.80959983,57.0995992 6.8432,57.262 C6.87680017,57.4244008 6.93559958,57.5643994 7.0196,57.682 C7.10360042,57.7996006 7.21279933,57.8905997 7.3472,57.955 C7.48160067,58.0194003 7.64959899,58.0516 7.8512,58.0516 Z M12.7792,57.8836 L12.7792,53.6164 L12.628,53.6164 L12.0736,55.6324 L11.0152,55.6324 L11.0152,55.5316 L11.7208,53.062 L13.888,53.062 L13.888,57.8836 L15.3496,57.8836 L15.3496,58.942 L11.116,58.942 L11.116,57.8836 L12.7792,57.8836 Z M18.06,57.8836 L18.06,53.6164 L17.9088,53.6164 L17.3544,55.6324 L16.296,55.6324 L16.296,55.5316 L17.0016,53.062 L19.1688,53.062 L19.1688,57.8836 L20.6304,57.8836 L20.6304,58.942 L16.3968,58.942 L16.3968,57.8836 L18.06,57.8836 Z" id="1011-0010-1001-1011" fill="#213A8F"></path>
                    <polyline id="Path-2" stroke="#213A8F" stroke-width="1.4" stroke-linecap="round" transform="translate(31.295713, 4.119665) rotate(-315.000000) translate(-31.295713, -4.119665) " points="29.2850268 7.81922564 33.3063985 7.81922564 33.3063985 0.42010533"></polyline>
                    <polyline id="Path-2-Copy-3" stroke="#213A8F" stroke-width="1.4" stroke-linecap="round" transform="translate(31.295713, 20.241370) rotate(-315.000000) translate(-31.295713, -20.241370) " points="29.2850268 23.9409304 33.3063985 23.9409304 33.3063985 16.54181"></polyline>
                    <polyline id="Path-2-Copy-4" stroke="#213A8F" stroke-width="1.4" stroke-linecap="round" transform="translate(31.295713, 37.041370) rotate(-315.000000) translate(-31.295713, -37.041370) " points="29.2850268 40.7409304 33.3063985 40.7409304 33.3063985 33.34181"></polyline>
                    <polyline id="Path-2-Copy-5" stroke="#213A8F" stroke-width="1.4" stroke-linecap="round" transform="translate(31.295713, 52.441370) rotate(-315.000000) translate(-31.295713, -52.441370) " points="29.2850268 56.1409304 33.3063985 56.1409304 33.3063985 48.74181"></polyline>
                </g>
                <path d="M47.0256529,6.61922874 L53.3817076,6.61922874 C54.1549062,6.61922874 54.7817076,7.24603009 54.7817076,8.01922874 L54.7817076,17.1192287 C54.7817076,17.8924274 54.1549062,18.5192287 53.3817076,18.5192287 L19.6695982,18.5192287 C18.8963995,18.5192287 18.2695982,17.8924274 18.2695982,17.1192287 L18.2695982,8.01922874 C18.2695982,7.24603009 18.8963995,6.61922874 19.6695982,6.61922874 L26.0256529,6.61922874 L26.0256529,1.71922874 C26.0256529,0.946030091 26.6524542,0.319228741 27.4256529,0.319228741 L45.6256529,0.319228741 C46.3988515,0.319228741 47.0256529,0.946030091 47.0256529,1.71922874 L47.0256529,6.61922874 Z" id="Combined-Shape" fill="#122BE1"></path>
                <path d="M47.0256529,6.61922874 L53.3817076,6.61922874 C54.1549062,6.61922874 54.7817076,7.24603009 54.7817076,8.01922874 L54.7817076,17.1192287 C54.7817076,17.8924274 54.1549062,18.5192287 53.3817076,18.5192287 L19.6695982,18.5192287 C18.8963995,18.5192287 18.2695982,17.8924274 18.2695982,17.1192287 L18.2695982,8.01922874 C18.2695982,7.24603009 18.8963995,6.61922874 19.6695982,6.61922874 L26.0256529,6.61922874 L26.0256529,1.71922874 C26.0256529,0.946030091 26.6524542,0.319228741 27.4256529,0.319228741 L45.6256529,0.319228741 C46.3988515,0.319228741 47.0256529,0.946030091 47.0256529,1.71922874 L47.0256529,6.61922874 Z" id="Combined-Shape" fill="#213A8F"></path>
                <path d="M47.0214233,8.71922874 L53.377478,8.71922874 C54.1506767,8.71922874 54.777478,9.34603009 54.777478,10.1192287 L54.777478,19.2192287 C54.777478,19.9924274 54.1506767,20.6192287 53.377478,20.6192287 L19.6653687,20.6192287 C18.89217,20.6192287 18.2653687,19.9924274 18.2653687,19.2192287 L18.2653687,10.1192287 C18.2653687,9.34603009 18.89217,8.71922874 19.6653687,8.71922874 L26.0214233,8.71922874 L26.0214233,3.81922874 C26.0214233,3.04603009 26.6482247,2.41922874 27.4214233,2.41922874 L45.6214233,2.41922874 C46.394622,2.41922874 47.0214233,3.04603009 47.0214233,3.81922874 L47.0214233,8.71922874 Z" id="Combined-Shape-Copy" fill-opacity="0.2" fill="#213A8F"></path>
                <circle id="Oval-6" fill="#FFFFFF" cx="36.5256529" cy="7.28278495" r="2.1436999"></circle>
            </g>
        </g>
    </g>
</svg>