<?xml version="1.0" encoding="UTF-8"?>
<svg width="129px" height="90px" viewBox="0 0 129 90" version="1.1" xmlns="http://www.w3.org/2000/svg" xmlns:xlink="http://www.w3.org/1999/xlink">
    <!-- Generator: Sketch 49.3 (51167) - http://www.bohemiancoding.com/sketch -->
    <title>Group 7</title>
    <desc>Created with Sketch.</desc>
    <defs></defs>
    <g id="Page-1" stroke="none" stroke-width="1" fill="none" fill-rule="evenodd">
        <g id="Artboard" transform="translate(-754.000000, -1347.000000)">
            <g id="Group-7" transform="translate(754.000000, 1347.000000)">
                <path d="M41.5696319,78.1174584 L38.7696319,78.1174584 L38.7696319,57.1174584 C38.7696319,48.84579 47.1915286,41.6793132 55.9897296,41.6793132 L55.9897296,44.4793132 C48.6467149,44.4793132 41.5696319,50.5014425 41.5696319,57.1174584 L41.5696319,78.1174584 Z M76.4833234,44.5174584 L76.4833234,41.7174584 C85.2942279,41.7174584 93.7333037,48.8537854 93.7333037,57.1174584 L93.7333037,78.1174584 L90.9333037,78.1174584 L90.9333037,57.1174584 C90.9333037,50.5139557 83.8421355,44.5174584 76.4833234,44.5174584 Z" id="Rectangle-13-Copy" fill="#213A8F" fill-rule="nonzero"></path>
                <rect id="Rectangle-9-Copy-4" fill="#213A8F" x="0.603015613" y="19.1071599" width="33.6" height="22.8267743"></rect>
                <rect id="Rectangle-9-Copy-5" fill="#213A8F" x="95.4" y="19.1071599" width="33.6" height="22.8267743"></rect>
                <rect id="Rectangle-9-Copy-6" fill="#213A8F" x="72.7216477" y="66.7040712" width="33.6" height="22.8267743"></rect>
                <path d="M58.4693725,41.5463953 C60.7599542,43.7591924 63.4101708,44.865591 66.4200224,44.865591 C69.429874,44.865591 72.1520176,43.6812495 74.5864532,41.3125666 L72.1793002,37.9637664 L68.7625836,40.1524471 L64.5364113,40.5528213 L60.8656019,39.1843615 L58.4693725,41.5463953 Z" id="Path-8-Copy" fill-opacity="0.2" fill="#213A8F" style="mix-blend-mode: multiply;"></path>
                <path d="M75.3697151,44.25526 L73.6936556,46.49821 C72.0181382,45.2461684 71.3216477,42.5625816 71.3216477,38.4026362 L74.1216477,38.4026362 C74.1216477,41.7380723 74.6318491,43.7038847 75.3697151,44.25526 Z" id="Path-6-Copy" fill="#213A8F" fill-rule="nonzero"></path>
                <path d="M7.70701561,32.9965471 L7.70701561,32.0525471 L8.59501561,32.0525471 L8.59501561,28.5885471 L7.49901561,29.2205471 L7.36301561,28.1325471 L9.14701561,26.9965471 L9.93901561,26.9965471 L9.93901561,32.0525471 L10.8110156,32.0525471 L10.8110156,32.9965471 L7.70701561,32.9965471 Z M16.6890156,30.0205471 C16.6890156,32.1725471 16.0090156,33.0765471 14.4490156,33.0765471 C12.8810156,33.0765471 12.2330156,32.1725471 12.2330156,30.0205471 C12.2330156,27.7645471 12.8810156,26.9245471 14.4650156,26.9245471 C16.0170156,26.9245471 16.6890156,27.7645471 16.6890156,30.0205471 Z M15.4010156,30.0045471 C15.4010156,28.3645471 15.1050156,28.0765471 14.4650156,28.0765471 C13.8090156,28.0765471 13.5130156,28.3885471 13.5130156,30.0045471 C13.5130156,31.6845471 13.8090156,31.9565471 14.4650156,31.9565471 C15.1050156,31.9565471 15.4010156,31.6525471 15.4010156,30.0045471 Z M18.6630156,32.9965471 L18.6630156,32.0525471 L19.5510156,32.0525471 L19.5510156,28.5885471 L18.4550156,29.2205471 L18.3190156,28.1325471 L20.1030156,26.9965471 L20.8950156,26.9965471 L20.8950156,32.0525471 L21.7670156,32.0525471 L21.7670156,32.9965471 L18.6630156,32.9965471 Z M27.9890155,30.0205471 C27.9890155,32.1725471 27.3090155,33.0765471 25.7490155,33.0765471 C24.1810155,33.0765471 23.5330155,32.1725471 23.5330155,30.0205471 C23.5330155,27.7645471 24.1810155,26.9245471 25.7650155,26.9245471 C27.3170155,26.9245471 27.9890155,27.7645471 27.9890155,30.0205471 Z M26.7010155,30.0045471 C26.7010155,28.3645471 26.4050155,28.0765471 25.7650155,28.0765471 C25.1090155,28.0765471 24.8130155,28.3885471 24.8130155,30.0045471 C24.8130155,31.6845471 25.1090155,31.9565471 25.7650155,31.9565471 C26.4050155,31.9565471 26.7010155,31.6525471 26.7010155,30.0045471 Z" id="1010-copy" fill="#FFFFFF"></path>
                <path d="M102.504,32.9965471 L102.504,32.0525471 L103.392,32.0525471 L103.392,28.5885471 L102.296,29.2205471 L102.16,28.1325471 L103.944,26.9965471 L104.736,26.9965471 L104.736,32.0525471 L105.608,32.0525471 L105.608,32.9965471 L102.504,32.9965471 Z M111.486,30.0205471 C111.486,32.1725471 110.806,33.0765471 109.246,33.0765471 C107.678,33.0765471 107.03,32.1725471 107.03,30.0205471 C107.03,27.7645471 107.678,26.9245471 109.262,26.9245471 C110.814,26.9245471 111.486,27.7645471 111.486,30.0205471 Z M110.198,30.0045471 C110.198,28.3645471 109.902,28.0765471 109.262,28.0765471 C108.606,28.0765471 108.31,28.3885471 108.31,30.0045471 C108.31,31.6845471 108.606,31.9565471 109.262,31.9565471 C109.902,31.9565471 110.198,31.6525471 110.198,30.0045471 Z M117.324,30.0205471 C117.324,32.1725471 116.644,33.0765471 115.084,33.0765471 C113.516,33.0765471 112.868,32.1725471 112.868,30.0205471 C112.868,27.7645471 113.516,26.9245471 115.1,26.9245471 C116.652,26.9245471 117.324,27.7645471 117.324,30.0205471 Z M116.036,30.0045471 C116.036,28.3645471 115.74,28.0765471 115.1,28.0765471 C114.444,28.0765471 114.148,28.3885471 114.148,30.0045471 C114.148,31.6845471 114.444,31.9565471 115.1,31.9565471 C115.74,31.9565471 116.036,31.6525471 116.036,30.0045471 Z M119.298,32.9965471 L119.298,32.0525471 L120.186,32.0525471 L120.186,28.5885471 L119.09,29.2205471 L118.954,28.1325471 L120.738,26.9965471 L121.53,26.9965471 L121.53,32.0525471 L122.402,32.0525471 L122.402,32.9965471 L119.298,32.9965471 Z" id="1001-copy-4" fill="#FFFFFF"></path>
                <path d="M79.8256477,80.5934584 L79.8256477,79.6494584 L80.7136477,79.6494584 L80.7136477,76.1854584 L79.6176477,76.8174584 L79.4816477,75.7294584 L81.2656477,74.5934584 L82.0576477,74.5934584 L82.0576477,79.6494584 L82.9296477,79.6494584 L82.9296477,80.5934584 L79.8256477,80.5934584 Z M84.9996477,80.5934584 L84.9996477,79.6494584 L85.8876477,79.6494584 L85.8876477,76.1854584 L84.7916477,76.8174584 L84.6556477,75.7294584 L86.4396477,74.5934584 L87.2316477,74.5934584 L87.2316477,79.6494584 L88.1036477,79.6494584 L88.1036477,80.5934584 L84.9996477,80.5934584 Z M93.9816477,77.6174584 C93.9816477,79.7694584 93.3016477,80.6734584 91.7416477,80.6734584 C90.1736477,80.6734584 89.5256477,79.7694584 89.5256477,77.6174584 C89.5256477,75.3614584 90.1736477,74.5214584 91.7576477,74.5214584 C93.3096477,74.5214584 93.9816477,75.3614584 93.9816477,77.6174584 Z M92.6936477,77.6014584 C92.6936477,75.9614584 92.3976477,75.6734584 91.7576477,75.6734584 C91.1016477,75.6734584 90.8056477,75.9854584 90.8056477,77.6014584 C90.8056477,79.2814584 91.1016477,79.5534584 91.7576477,79.5534584 C92.3976477,79.5534584 92.6936477,79.2494584 92.6936477,77.6014584 Z M95.9556477,80.5934584 L95.9556477,79.6494584 L96.8436477,79.6494584 L96.8436477,76.1854584 L95.7476477,76.8174584 L95.6116477,75.7294584 L97.3956477,74.5934584 L98.1876477,74.5934584 L98.1876477,79.6494584 L99.0596477,79.6494584 L99.0596477,80.5934584 L95.9556477,80.5934584 Z" id="1101-copy-4" fill="#FFFFFF"></path>
                <polygon id="Path-13" fill="#FFFFFF" points="64.3012315 1.21802839 56.8980253 4.39456664 52.8146085 10.0764848 50.700706 18.937594 52.8146085 27.2192559 59.3166207 36.929261 64.3012315 39.8124754 69.0713445 39.8124754 75.6419505 34.5466678 79.8852933 26.5390022 81.5626207 18.937594 80.7182724 10.4899426 76.3851134 5.19684908 69.8895437 1.80732891"></polygon>
                <path d="M66.2516387,42.0453125 C57.6760902,42.0453125 49.4516387,27.6234207 49.4516387,16.8453125 C49.4516387,7.5669287 56.9732549,0.0453125 66.2516387,0.0453125 C75.5300225,0.0453125 83.0516387,7.5669287 83.0516387,16.8453125 C83.0516387,27.6234207 74.8271872,42.0453125 66.2516387,42.0453125 Z M66.2516387,39.2453125 C72.8590172,39.2453125 80.2516387,26.2820666 80.2516387,16.8453125 C80.2516387,9.113326 73.9836252,2.8453125 66.2516387,2.8453125 C58.5196522,2.8453125 52.2516387,9.113326 52.2516387,16.8453125 C52.2516387,26.2820666 59.6442602,39.2453125 66.2516387,39.2453125 Z" id="Oval-4-Copy" fill="#213A8F" fill-rule="nonzero"></path>
                <path d="M51.0411651,17.8902532 L51.0411651,15.0902532 C55.2879999,15.0902532 58.3159682,14.3633455 60.1280309,12.9900444 C62.7112567,11.032317 66.3006291,11.1040417 68.8035782,13.1634071 C70.369812,14.452066 72.1914658,15.0902532 74.3243682,15.0902532 L74.3243682,17.8902532 C71.5495091,17.8902532 69.0976333,17.0312778 67.0245694,15.3256114 C65.5228001,14.0899924 63.369175,14.0469575 61.8192409,15.2215929 C59.4363061,17.0275387 55.8426283,17.8902532 51.0411651,17.8902532 Z" id="Path-5-Copy" fill="#213A8F" fill-rule="nonzero"></path>
            </g>
        </g>
    </g>
</svg>