<?xml version="1.0" encoding="UTF-8"?>
<svg width="77px" height="106px" viewBox="0 0 77 106" version="1.1" xmlns="http://www.w3.org/2000/svg" xmlns:xlink="http://www.w3.org/1999/xlink">
    <!-- Generator: Sketch 49.3 (51167) - http://www.bohemiancoding.com/sketch -->
    <title>Group 8</title>
    <desc>Created with Sketch.</desc>
    <defs>
        <rect id="path-1" x="0.105890995" y="11.9069486" width="71.4" height="88.659375"></rect>
    </defs>
    <g id="Page-1" stroke="none" stroke-width="1" fill="none" fill-rule="evenodd">
        <g id="Artboard" transform="translate(-936.000000, -1336.000000)">
            <g id="Group-8" transform="translate(936.000000, 1336.000000)">
                <rect id="Rectangle-12-Copy-9" fill-opacity="0.39" fill="#213A8F" x="5.105891" y="16.9069486" width="71.4" height="88.659375"></rect>
                <g id="Rectangle-12-Copy-11">
                    <use fill="#FFFFFF" fill-rule="evenodd" xlink:href="#path-1"></use>
                    <rect stroke="#213A8F" stroke-width="2.8" x="1.505891" y="13.3069486" width="68.6" height="85.859375"></rect>
                </g>
                <path d="M46.305891,7.2273982 L52.6619457,7.2273982 C53.4351443,7.2273982 54.0619457,7.85419955 54.0619457,8.6273982 L54.0619457,17.7273982 C54.0619457,18.5005969 53.4351443,19.1273982 52.6619457,19.1273982 L18.9498363,19.1273982 C18.1766377,19.1273982 17.5498363,18.5005969 17.5498363,17.7273982 L17.5498363,8.6273982 C17.5498363,7.85419955 18.1766377,7.2273982 18.9498363,7.2273982 L25.305891,7.2273982 L25.305891,2.3273982 C25.305891,1.55419955 25.9326923,0.927398201 26.705891,0.927398201 L44.905891,0.927398201 C45.6790896,0.927398201 46.305891,1.55419955 46.305891,2.3273982 L46.305891,7.2273982 Z" id="Combined-Shape-Copy-2" fill="#122BE1"></path>
                <path d="M46.305891,7.2273982 L54.0619457,7.2273982 L54.0619457,19.1273982 L17.5498363,19.1273982 L17.5498363,7.2273982 L25.305891,7.2273982 L25.305891,0.927398201 L46.305891,0.927398201 L46.305891,7.2273982 Z" id="Combined-Shape-Copy-3" fill="#213A8F"></path>
                <path d="M46.3016615,9.3273982 L52.6577161,9.3273982 C53.4309148,9.3273982 54.0577161,9.95419955 54.0577161,10.7273982 L54.0577161,19.8273982 C54.0577161,20.6005969 53.4309148,21.2273982 52.6577161,21.2273982 L18.9456068,21.2273982 C18.1724081,21.2273982 17.5456068,20.6005969 17.5456068,19.8273982 L17.5456068,10.7273982 C17.5456068,9.95419955 18.1724081,9.3273982 18.9456068,9.3273982 L25.3016615,9.3273982 L25.3016615,4.4273982 C25.3016615,3.65419955 25.9284628,3.0273982 26.7016615,3.0273982 L44.9016615,3.0273982 C45.6748601,3.0273982 46.3016615,3.65419955 46.3016615,4.4273982 L46.3016615,9.3273982 Z" id="Combined-Shape-Copy-4" fill-opacity="0.2" fill="#213A8F"></path>
                <circle id="Oval-6-Copy" fill="#FFFFFF" cx="35.805891" cy="7.89095441" r="2.1436999"></circle>
                <polyline id="Path-2-Copy-11" stroke="#213A8F" stroke-width="1.5" transform="translate(50.021678, 30.846251) rotate(-315.000000) translate(-50.021678, -30.846251) " points="48.0109925 34.5458109 52.0323642 34.5458109 52.0323642 27.1466906"></polyline>
                <path d="M19.710233,35.8500875 L19.710233,34.9060875 L20.598233,34.9060875 L20.598233,31.4420875 L19.502233,32.0740875 L19.366233,30.9860875 L21.150233,29.8500875 L21.942233,29.8500875 L21.942233,34.9060875 L22.814233,34.9060875 L22.814233,35.8500875 L19.710233,35.8500875 Z M28.692233,32.8740875 C28.692233,35.0260875 28.012233,35.9300875 26.452233,35.9300875 C24.884233,35.9300875 24.236233,35.0260875 24.236233,32.8740875 C24.236233,30.6180875 24.884233,29.7780875 26.468233,29.7780875 C28.020233,29.7780875 28.692233,30.6180875 28.692233,32.8740875 Z M27.404233,32.8580875 C27.404233,31.2180875 27.108233,30.9300875 26.468233,30.9300875 C25.812233,30.9300875 25.516233,31.2420875 25.516233,32.8580875 C25.516233,34.5380875 25.812233,34.8100875 26.468233,34.8100875 C27.108233,34.8100875 27.404233,34.5060875 27.404233,32.8580875 Z M34.5302329,32.8740875 C34.5302329,35.0260875 33.8502329,35.9300875 32.2902329,35.9300875 C30.7222329,35.9300875 30.0742329,35.0260875 30.0742329,32.8740875 C30.0742329,30.6180875 30.7222329,29.7780875 32.3062329,29.7780875 C33.8582329,29.7780875 34.5302329,30.6180875 34.5302329,32.8740875 Z M33.2422329,32.8580875 C33.2422329,31.2180875 32.9462329,30.9300875 32.3062329,30.9300875 C31.6502329,30.9300875 31.3542329,31.2420875 31.3542329,32.8580875 C31.3542329,34.5380875 31.6502329,34.8100875 32.3062329,34.8100875 C32.9462329,34.8100875 33.2422329,34.5060875 33.2422329,32.8580875 Z M36.5042329,35.8500875 L36.5042329,34.9060875 L37.3922329,34.9060875 L37.3922329,31.4420875 L36.2962329,32.0740875 L36.1602329,30.9860875 L37.9442329,29.8500875 L38.7362329,29.8500875 L38.7362329,34.9060875 L39.6082329,34.9060875 L39.6082329,35.8500875 L36.5042329,35.8500875 Z" id="1001-copy-5" fill="#213A8F"></path>
                <polyline id="Path-2-Copy-13" stroke="#213A8F" stroke-width="1.5" transform="translate(50.021678, 42.846251) rotate(-315.000000) translate(-50.021678, -42.846251) " points="48.0109925 46.5458109 52.0323642 46.5458109 52.0323642 39.1466906"></polyline>
                <path d="M19.710233,47.8500875 L19.710233,46.9060875 L20.598233,46.9060875 L20.598233,43.4420875 L19.502233,44.0740875 L19.366233,42.9860875 L21.150233,41.8500875 L21.942233,41.8500875 L21.942233,46.9060875 L22.814233,46.9060875 L22.814233,47.8500875 L19.710233,47.8500875 Z M24.884233,47.8500875 L24.884233,46.9060875 L25.772233,46.9060875 L25.772233,43.4420875 L24.676233,44.0740875 L24.540233,42.9860875 L26.324233,41.8500875 L27.116233,41.8500875 L27.116233,46.9060875 L27.988233,46.9060875 L27.988233,47.8500875 L24.884233,47.8500875 Z M33.8662329,44.8740875 C33.8662329,47.0260875 33.1862329,47.9300875 31.6262329,47.9300875 C30.0582329,47.9300875 29.4102329,47.0260875 29.4102329,44.8740875 C29.4102329,42.6180875 30.0582329,41.7780875 31.6422329,41.7780875 C33.1942329,41.7780875 33.8662329,42.6180875 33.8662329,44.8740875 Z M32.5782329,44.8580875 C32.5782329,43.2180875 32.2822329,42.9300875 31.6422329,42.9300875 C30.9862329,42.9300875 30.6902329,43.2420875 30.6902329,44.8580875 C30.6902329,46.5380875 30.9862329,46.8100875 31.6422329,46.8100875 C32.2822329,46.8100875 32.5782329,46.5060875 32.5782329,44.8580875 Z M35.8402329,47.8500875 L35.8402329,46.9060875 L36.7282329,46.9060875 L36.7282329,43.4420875 L35.6322329,44.0740875 L35.4962329,42.9860875 L37.2802329,41.8500875 L38.0722329,41.8500875 L38.0722329,46.9060875 L38.9442329,46.9060875 L38.9442329,47.8500875 L35.8402329,47.8500875 Z" id="1101-copy-5" fill="#213A8F"></path>
                <polyline id="Path-2-Copy-15" stroke="#213A8F" stroke-width="1.5" transform="translate(50.021678, 54.846251) rotate(-315.000000) translate(-50.021678, -54.846251) " points="48.0109925 58.5458109 52.0323642 58.5458109 52.0323642 51.1466906"></polyline>
                <path d="M19.710233,59.8500875 L19.710233,58.9060875 L20.598233,58.9060875 L20.598233,55.4420875 L19.502233,56.0740875 L19.366233,54.9860875 L21.150233,53.8500875 L21.942233,53.8500875 L21.942233,58.9060875 L22.814233,58.9060875 L22.814233,59.8500875 L19.710233,59.8500875 Z M24.884233,59.8500875 L24.884233,58.9060875 L25.772233,58.9060875 L25.772233,55.4420875 L24.676233,56.0740875 L24.540233,54.9860875 L26.324233,53.8500875 L27.116233,53.8500875 L27.116233,58.9060875 L27.988233,58.9060875 L27.988233,59.8500875 L24.884233,59.8500875 Z M30.0582329,59.8500875 L30.0582329,58.9060875 L30.9462329,58.9060875 L30.9462329,55.4420875 L29.8502329,56.0740875 L29.7142329,54.9860875 L31.4982329,53.8500875 L32.2902329,53.8500875 L32.2902329,58.9060875 L33.1622329,58.9060875 L33.1622329,59.8500875 L30.0582329,59.8500875 Z M35.2322329,59.8500875 L35.2322329,58.9060875 L36.1202329,58.9060875 L36.1202329,55.4420875 L35.0242329,56.0740875 L34.8882329,54.9860875 L36.6722329,53.8500875 L37.4642329,53.8500875 L37.4642329,58.9060875 L38.3362329,58.9060875 L38.3362329,59.8500875 L35.2322329,59.8500875 Z" id="1111-copy-3" fill="#213A8F"></path>
                <polyline id="Path-2-Copy-17" stroke="#213A8F" stroke-width="1.5" transform="translate(50.021678, 66.846251) rotate(-315.000000) translate(-50.021678, -66.846251) " points="48.0109925 70.5458109 52.0323642 70.5458109 52.0323642 63.1466906"></polyline>
                <path d="M19.710233,71.8500875 L19.710233,70.9060875 L20.598233,70.9060875 L20.598233,67.4420875 L19.502233,68.0740875 L19.366233,66.9860875 L21.150233,65.8500875 L21.942233,65.8500875 L21.942233,70.9060875 L22.814233,70.9060875 L22.814233,71.8500875 L19.710233,71.8500875 Z M28.692233,68.8740875 C28.692233,71.0260875 28.012233,71.9300875 26.452233,71.9300875 C24.884233,71.9300875 24.236233,71.0260875 24.236233,68.8740875 C24.236233,66.6180875 24.884233,65.7780875 26.468233,65.7780875 C28.020233,65.7780875 28.692233,66.6180875 28.692233,68.8740875 Z M27.404233,68.8580875 C27.404233,67.2180875 27.108233,66.9300875 26.468233,66.9300875 C25.812233,66.9300875 25.516233,67.2420875 25.516233,68.8580875 C25.516233,70.5380875 25.812233,70.8100875 26.468233,70.8100875 C27.108233,70.8100875 27.404233,70.5060875 27.404233,68.8580875 Z M30.6662329,71.8500875 L30.6662329,70.9060875 L31.5542329,70.9060875 L31.5542329,67.4420875 L30.4582329,68.0740875 L30.3222329,66.9860875 L32.1062329,65.8500875 L32.8982329,65.8500875 L32.8982329,70.9060875 L33.7702329,70.9060875 L33.7702329,71.8500875 L30.6662329,71.8500875 Z M35.8402329,71.8500875 L35.8402329,70.9060875 L36.7282329,70.9060875 L36.7282329,67.4420875 L35.6322329,68.0740875 L35.4962329,66.9860875 L37.2802329,65.8500875 L38.0722329,65.8500875 L38.0722329,70.9060875 L38.9442329,70.9060875 L38.9442329,71.8500875 L35.8402329,71.8500875 Z" id="1011-copy-3" fill="#213A8F"></path>
                <polyline id="Path-2-Copy-19" stroke="#213A8F" stroke-width="1.5" transform="translate(50.021678, 78.846251) rotate(-315.000000) translate(-50.021678, -78.846251) " points="48.0109925 82.5458109 52.0323642 82.5458109 52.0323642 75.1466906"></polyline>
                <path d="M23.198233,80.8740875 C23.198233,83.0260875 22.518233,83.9300875 20.958233,83.9300875 C19.390233,83.9300875 18.742233,83.0260875 18.742233,80.8740875 C18.742233,78.6180875 19.390233,77.7780875 20.974233,77.7780875 C22.526233,77.7780875 23.198233,78.6180875 23.198233,80.8740875 Z M21.910233,80.8580875 C21.910233,79.2180875 21.614233,78.9300875 20.974233,78.9300875 C20.318233,78.9300875 20.022233,79.2420875 20.022233,80.8580875 C20.022233,82.5380875 20.318233,82.8100875 20.974233,82.8100875 C21.614233,82.8100875 21.910233,82.5060875 21.910233,80.8580875 Z M25.172233,83.8500875 L25.172233,82.9060875 L26.060233,82.9060875 L26.060233,79.4420875 L24.964233,80.0740875 L24.828233,78.9860875 L26.612233,77.8500875 L27.404233,77.8500875 L27.404233,82.9060875 L28.276233,82.9060875 L28.276233,83.8500875 L25.172233,83.8500875 Z M34.1542329,80.8740875 C34.1542329,83.0260875 33.4742329,83.9300875 31.9142329,83.9300875 C30.3462329,83.9300875 29.6982329,83.0260875 29.6982329,80.8740875 C29.6982329,78.6180875 30.3462329,77.7780875 31.9302329,77.7780875 C33.4822329,77.7780875 34.1542329,78.6180875 34.1542329,80.8740875 Z M32.8662329,80.8580875 C32.8662329,79.2180875 32.5702329,78.9300875 31.9302329,78.9300875 C31.2742329,78.9300875 30.9782329,79.2420875 30.9782329,80.8580875 C30.9782329,82.5380875 31.2742329,82.8100875 31.9302329,82.8100875 C32.5702329,82.8100875 32.8662329,82.5060875 32.8662329,80.8580875 Z M36.1282329,83.8500875 L36.1282329,82.9060875 L37.0162329,82.9060875 L37.0162329,79.4420875 L35.9202329,80.0740875 L35.7842329,78.9860875 L37.5682329,77.8500875 L38.3602329,77.8500875 L38.3602329,82.9060875 L39.2322329,82.9060875 L39.2322329,83.8500875 L36.1282329,83.8500875 Z" id="0101-copy-4" fill="#213A8F"></path>
            </g>
        </g>
    </g>
</svg>