<?xml version="1.0" encoding="UTF-8"?>
<svg width="90px" height="112px" viewBox="0 0 90 112" version="1.1" xmlns="http://www.w3.org/2000/svg" xmlns:xlink="http://www.w3.org/1999/xlink">
    <!-- Generator: Sketch 49.3 (51167) - http://www.bohemiancoding.com/sketch -->
    <title>Group 10</title>
    <desc>Created with Sketch.</desc>
    <defs>
        <rect id="path-1" x="0.091937034" y="0.4453125" width="71.4" height="88.659375"></rect>
        <circle id="path-2" cx="20.8738232" cy="21.2218807" r="20.440236"></circle>
    </defs>
    <g id="Page-1" stroke="none" stroke-width="1" fill="none" fill-rule="evenodd">
        <g id="Artboard" transform="translate(-1235.000000, -1348.000000)">
            <g id="Group-10" transform="translate(1235.000000, 1348.000000)">
                <rect id="Rectangle-12-Copy-10" fill-opacity="0.3" fill="#213A8F" x="5.09193703" y="5.4453125" width="71.4" height="88.659375"></rect>
                <g id="Rectangle-12-Copy-12">
                    <use fill="#FFFFFF" fill-rule="evenodd" xlink:href="#path-1"></use>
                    <rect stroke="#213A8F" stroke-width="2.8" x="1.49193703" y="1.8453125" width="68.6" height="85.859375"></rect>
                </g>
                <polyline id="Path-2-Copy-12" stroke="#213A8F" stroke-width="1.5" transform="translate(50.007724, 19.384615) rotate(-315.000000) translate(-50.007724, -19.384615) " points="47.9970385 23.0841748 52.0184103 23.0841748 52.0184103 15.6850544"></polyline>
                <path d="M19.696279,24.3884514 L19.696279,23.4444514 L20.584279,23.4444514 L20.584279,19.9804514 L19.488279,20.6124514 L19.352279,19.5244514 L21.136279,18.3884514 L21.928279,18.3884514 L21.928279,23.4444514 L22.800279,23.4444514 L22.800279,24.3884514 L19.696279,24.3884514 Z M28.678279,21.4124514 C28.678279,23.5644514 27.998279,24.4684514 26.438279,24.4684514 C24.870279,24.4684514 24.222279,23.5644514 24.222279,21.4124514 C24.222279,19.1564514 24.870279,18.3164514 26.454279,18.3164514 C28.006279,18.3164514 28.678279,19.1564514 28.678279,21.4124514 Z M27.390279,21.3964514 C27.390279,19.7564514 27.094279,19.4684514 26.454279,19.4684514 C25.798279,19.4684514 25.502279,19.7804514 25.502279,21.3964514 C25.502279,23.0764514 25.798279,23.3484514 26.454279,23.3484514 C27.094279,23.3484514 27.390279,23.0444514 27.390279,21.3964514 Z M34.516279,21.4124514 C34.516279,23.5644514 33.836279,24.4684514 32.276279,24.4684514 C30.708279,24.4684514 30.060279,23.5644514 30.060279,21.4124514 C30.060279,19.1564514 30.708279,18.3164514 32.292279,18.3164514 C33.844279,18.3164514 34.516279,19.1564514 34.516279,21.4124514 Z M33.228279,21.3964514 C33.228279,19.7564514 32.932279,19.4684514 32.292279,19.4684514 C31.636279,19.4684514 31.340279,19.7804514 31.340279,21.3964514 C31.340279,23.0764514 31.636279,23.3484514 32.292279,23.3484514 C32.932279,23.3484514 33.228279,23.0444514 33.228279,21.3964514 Z M36.490279,24.3884514 L36.490279,23.4444514 L37.378279,23.4444514 L37.378279,19.9804514 L36.282279,20.6124514 L36.146279,19.5244514 L37.930279,18.3884514 L38.722279,18.3884514 L38.722279,23.4444514 L39.594279,23.4444514 L39.594279,24.3884514 L36.490279,24.3884514 Z" id="1001-copy-6" fill="#213A8F"></path>
                <polyline id="Path-2-Copy-14" stroke="#213A8F" stroke-width="1.5" transform="translate(50.007724, 31.384615) rotate(-315.000000) translate(-50.007724, -31.384615) " points="47.9970385 35.0841748 52.0184103 35.0841748 52.0184103 27.6850544"></polyline>
                <path d="M19.696279,36.3884514 L19.696279,35.4444514 L20.584279,35.4444514 L20.584279,31.9804514 L19.488279,32.6124514 L19.352279,31.5244514 L21.136279,30.3884514 L21.928279,30.3884514 L21.928279,35.4444514 L22.800279,35.4444514 L22.800279,36.3884514 L19.696279,36.3884514 Z M24.870279,36.3884514 L24.870279,35.4444514 L25.758279,35.4444514 L25.758279,31.9804514 L24.662279,32.6124514 L24.526279,31.5244514 L26.310279,30.3884514 L27.102279,30.3884514 L27.102279,35.4444514 L27.974279,35.4444514 L27.974279,36.3884514 L24.870279,36.3884514 Z M33.852279,33.4124514 C33.852279,35.5644514 33.172279,36.4684514 31.612279,36.4684514 C30.044279,36.4684514 29.396279,35.5644514 29.396279,33.4124514 C29.396279,31.1564514 30.044279,30.3164514 31.628279,30.3164514 C33.180279,30.3164514 33.852279,31.1564514 33.852279,33.4124514 Z M32.564279,33.3964514 C32.564279,31.7564514 32.268279,31.4684514 31.628279,31.4684514 C30.972279,31.4684514 30.676279,31.7804514 30.676279,33.3964514 C30.676279,35.0764514 30.972279,35.3484514 31.628279,35.3484514 C32.268279,35.3484514 32.564279,35.0444514 32.564279,33.3964514 Z M35.826279,36.3884514 L35.826279,35.4444514 L36.714279,35.4444514 L36.714279,31.9804514 L35.618279,32.6124514 L35.482279,31.5244514 L37.266279,30.3884514 L38.058279,30.3884514 L38.058279,35.4444514 L38.930279,35.4444514 L38.930279,36.3884514 L35.826279,36.3884514 Z" id="1101-copy-6" fill="#213A8F"></path>
                <polyline id="Path-2-Copy-16" stroke="#213A8F" stroke-width="1.5" transform="translate(50.007724, 43.384615) rotate(-315.000000) translate(-50.007724, -43.384615) " points="47.9970385 47.0841748 52.0184103 47.0841748 52.0184103 39.6850544"></polyline>
                <path d="M19.696279,48.3884514 L19.696279,47.4444514 L20.584279,47.4444514 L20.584279,43.9804514 L19.488279,44.6124514 L19.352279,43.5244514 L21.136279,42.3884514 L21.928279,42.3884514 L21.928279,47.4444514 L22.800279,47.4444514 L22.800279,48.3884514 L19.696279,48.3884514 Z M24.870279,48.3884514 L24.870279,47.4444514 L25.758279,47.4444514 L25.758279,43.9804514 L24.662279,44.6124514 L24.526279,43.5244514 L26.310279,42.3884514 L27.102279,42.3884514 L27.102279,47.4444514 L27.974279,47.4444514 L27.974279,48.3884514 L24.870279,48.3884514 Z M30.044279,48.3884514 L30.044279,47.4444514 L30.932279,47.4444514 L30.932279,43.9804514 L29.836279,44.6124514 L29.700279,43.5244514 L31.484279,42.3884514 L32.276279,42.3884514 L32.276279,47.4444514 L33.148279,47.4444514 L33.148279,48.3884514 L30.044279,48.3884514 Z M35.218279,48.3884514 L35.218279,47.4444514 L36.106279,47.4444514 L36.106279,43.9804514 L35.010279,44.6124514 L34.874279,43.5244514 L36.658279,42.3884514 L37.450279,42.3884514 L37.450279,47.4444514 L38.322279,47.4444514 L38.322279,48.3884514 L35.218279,48.3884514 Z" id="1111-copy-4" fill="#213A8F"></path>
                <polyline id="Path-2-Copy-18" stroke="#213A8F" stroke-width="1.5" transform="translate(50.007724, 55.384615) rotate(-315.000000) translate(-50.007724, -55.384615) " points="47.9970385 59.0841748 52.0184103 59.0841748 52.0184103 51.6850544"></polyline>
                <path d="M19.696279,60.3884514 L19.696279,59.4444514 L20.584279,59.4444514 L20.584279,55.9804514 L19.488279,56.6124514 L19.352279,55.5244514 L21.136279,54.3884514 L21.928279,54.3884514 L21.928279,59.4444514 L22.800279,59.4444514 L22.800279,60.3884514 L19.696279,60.3884514 Z M28.678279,57.4124514 C28.678279,59.5644514 27.998279,60.4684514 26.438279,60.4684514 C24.870279,60.4684514 24.222279,59.5644514 24.222279,57.4124514 C24.222279,55.1564514 24.870279,54.3164514 26.454279,54.3164514 C28.006279,54.3164514 28.678279,55.1564514 28.678279,57.4124514 Z M27.390279,57.3964514 C27.390279,55.7564514 27.094279,55.4684514 26.454279,55.4684514 C25.798279,55.4684514 25.502279,55.7804514 25.502279,57.3964514 C25.502279,59.0764514 25.798279,59.3484514 26.454279,59.3484514 C27.094279,59.3484514 27.390279,59.0444514 27.390279,57.3964514 Z M30.652279,60.3884514 L30.652279,59.4444514 L31.540279,59.4444514 L31.540279,55.9804514 L30.444279,56.6124514 L30.308279,55.5244514 L32.092279,54.3884514 L32.884279,54.3884514 L32.884279,59.4444514 L33.756279,59.4444514 L33.756279,60.3884514 L30.652279,60.3884514 Z M35.826279,60.3884514 L35.826279,59.4444514 L36.714279,59.4444514 L36.714279,55.9804514 L35.618279,56.6124514 L35.482279,55.5244514 L37.266279,54.3884514 L38.058279,54.3884514 L38.058279,59.4444514 L38.930279,59.4444514 L38.930279,60.3884514 L35.826279,60.3884514 Z" id="1011-copy-4" fill="#213A8F"></path>
                <polyline id="Path-2-Copy-20" stroke="#213A8F" stroke-width="1.5" transform="translate(50.007724, 67.384615) rotate(-315.000000) translate(-50.007724, -67.384615) " points="47.9970385 71.0841748 52.0184103 71.0841748 52.0184103 63.6850544"></polyline>
                <path d="M23.184279,69.4124514 C23.184279,71.5644514 22.504279,72.4684514 20.944279,72.4684514 C19.376279,72.4684514 18.728279,71.5644514 18.728279,69.4124514 C18.728279,67.1564514 19.376279,66.3164514 20.960279,66.3164514 C22.512279,66.3164514 23.184279,67.1564514 23.184279,69.4124514 Z M21.896279,69.3964514 C21.896279,67.7564514 21.600279,67.4684514 20.960279,67.4684514 C20.304279,67.4684514 20.008279,67.7804514 20.008279,69.3964514 C20.008279,71.0764514 20.304279,71.3484514 20.960279,71.3484514 C21.600279,71.3484514 21.896279,71.0444514 21.896279,69.3964514 Z M25.158279,72.3884514 L25.158279,71.4444514 L26.046279,71.4444514 L26.046279,67.9804514 L24.950279,68.6124514 L24.814279,67.5244514 L26.598279,66.3884514 L27.390279,66.3884514 L27.390279,71.4444514 L28.262279,71.4444514 L28.262279,72.3884514 L25.158279,72.3884514 Z M34.140279,69.4124514 C34.140279,71.5644514 33.460279,72.4684514 31.900279,72.4684514 C30.332279,72.4684514 29.684279,71.5644514 29.684279,69.4124514 C29.684279,67.1564514 30.332279,66.3164514 31.916279,66.3164514 C33.468279,66.3164514 34.140279,67.1564514 34.140279,69.4124514 Z M32.852279,69.3964514 C32.852279,67.7564514 32.556279,67.4684514 31.916279,67.4684514 C31.260279,67.4684514 30.964279,67.7804514 30.964279,69.3964514 C30.964279,71.0764514 31.260279,71.3484514 31.916279,71.3484514 C32.556279,71.3484514 32.852279,71.0444514 32.852279,69.3964514 Z M36.114279,72.3884514 L36.114279,71.4444514 L37.002279,71.4444514 L37.002279,67.9804514 L35.906279,68.6124514 L35.770279,67.5244514 L37.554279,66.3884514 L38.346279,66.3884514 L38.346279,71.4444514 L39.218279,71.4444514 L39.218279,72.3884514 L36.114279,72.3884514 Z" id="0101-copy-5" fill="#213A8F"></path>
                <g id="Group-3-Copy" transform="translate(47.200000, 44.545312)">
                    <g id="Group-2" transform="translate(5.473198, 37.457228)">
                        <polyline id="Path-3" stroke="#213A8F" stroke-width="2.24" fill="#FFFFFF" points="24.553125 1.2978125 29.671875 27.169375 14.0421875 17.0335937 0.131875 27.169375 3.6275 1.2978125"></polyline>
                        <path d="M2.79677248,3.52627749 C2.79677248,4.38949215 5.34079701,7.65750316 14.3008704,7.65750316 C18.7322759,7.65750316 22.5386227,6.73533544 25.7199106,4.891 L24.4590356,1.92241667 L17.7037439,4.38949215 L10.3823272,3.52627749 L5.98982725,1.92241667 L4.04907725,0.476041667 C3.21420741,-0.359555536 2.79677248,0.657189738 2.79677248,3.52627749 Z" id="Path-4" fill-opacity="0.3" fill="#213A8F"></path>
                    </g>
                    <g id="Oval-2-Copy">
                        <use fill="#213A8F" fill-rule="evenodd" xlink:href="#path-2"></use>
                        <circle stroke="#FFFFFF" stroke-width="3.36" cx="20.8738232" cy="21.2218807" r="18.760236"></circle>
                        <use stroke="#213A8F" stroke-width="2.24" xlink:href="#path-2"></use>
                    </g>
                    <polyline id="Path-2" stroke="#FFFFFF" stroke-width="3.36" transform="translate(20.873823, 18.981881) rotate(-315.000000) translate(-20.873823, -18.981881) " points="17.4370684 25.3053355 24.3105781 25.3053355 24.3105781 12.6584258"></polyline>
                </g>
            </g>
        </g>
    </g>
</svg>