<?xml version="1.0" encoding="UTF-8"?>
<svg width="66px" height="21px" viewBox="0 0 66 21" version="1.1" xmlns="http://www.w3.org/2000/svg" xmlns:xlink="http://www.w3.org/1999/xlink">
    <!-- Generator: Sketch 49.2 (51160) - http://www.bohemiancoding.com/sketch -->
    <title>Group 301</title>
    <desc>Created with Sketch.</desc>
    <defs></defs>
    <g id="Page-1" stroke="none" stroke-width="1" fill="none" fill-rule="evenodd">
        <g id="Group-301" transform="translate(0.071684, 0.118741)" fill="#FFFFFF">
            <path d="M59.4909,3.4987 C59.3899,3.5277 59.2749,3.5367 59.1499,3.5367 C58.5989,3.5367 58.4069,3.3027 58.4069,2.3677 C58.4069,1.4457 58.6039,1.1967 59.2459,1.1967 C59.5149,1.1967 59.8069,1.2547 60.0319,1.3457 L60.1079,0.6757 C59.8599,0.5747 59.5149,0.5117 59.2029,0.5117 C58.0959,0.5117 57.6159,1.0917 57.6159,2.3767 C57.6159,3.6327 58.0429,4.2367 59.1699,4.2367 C59.5339,4.2367 59.9219,4.1557 60.1659,4.0397 L60.1659,2.2227 L59.4909,2.2227 L59.4909,3.4987 Z M56.5909,2.3717 C56.5909,3.7287 56.1699,4.2317 55.1489,4.2317 C54.1469,4.2317 53.7049,3.6997 53.7049,2.3717 C53.7049,1.0437 54.1279,0.5167 55.1489,0.5167 C56.1699,0.5167 56.5909,1.0437 56.5909,2.3717 Z M55.8009,2.3717 C55.8009,1.4177 55.6379,1.2157 55.1489,1.2157 C54.6639,1.2157 54.4959,1.4227 54.4959,2.3717 C54.4959,3.3257 54.6639,3.5377 55.1529,3.5377 C55.6379,3.5377 55.8009,3.3207 55.8009,2.3717 Z M37.0279,4.2317 C37.3119,4.2317 37.6229,4.1597 37.8339,4.0547 L37.7579,3.4167 C37.5799,3.4987 37.3739,3.5517 37.1399,3.5517 C36.5489,3.5517 36.3429,3.2877 36.3429,2.3477 C36.3429,1.4657 36.5389,1.2107 37.1249,1.2107 C37.3599,1.2107 37.5839,1.2597 37.7469,1.3217 L37.8249,0.6547 C37.6419,0.5747 37.3259,0.5117 37.0719,0.5117 C36.0219,0.5117 35.5529,1.1147 35.5529,2.3477 C35.5529,3.6577 36.0269,4.2317 37.0279,4.2317 Z M61.4449,4.1687 L62.2159,4.1687 L62.2159,0.5747 L61.8309,0.5747 L61.4449,0.5747 L61.4449,4.1687 Z M48.1859,4.2317 C47.1839,4.2317 46.7439,3.6997 46.7439,2.3717 C46.7439,1.0437 47.1659,0.5167 48.1859,0.5167 C49.2069,0.5167 49.6289,1.0437 49.6289,2.3717 C49.6289,3.7287 49.2069,4.2317 48.1859,4.2317 Z M48.8389,2.3717 C48.8389,1.4177 48.6759,1.2157 48.1859,1.2157 C47.7019,1.2157 47.5339,1.4227 47.5339,2.3717 C47.5339,3.3257 47.7019,3.5367 48.1909,3.5367 C48.6759,3.5367 48.8389,3.3207 48.8389,2.3717 Z M34.5289,3.4887 L33.0469,3.4887 L33.0469,2.6357 L34.2319,2.6357 L34.2319,2.0037 L33.0469,2.0037 L33.0469,1.2637 L34.4569,1.2637 L34.4429,0.5747 L32.2959,0.5747 L32.2959,4.1687 L34.5099,4.1687 L34.5289,3.4887 Z M39.7149,2.6787 L40.8279,2.6787 L40.8279,4.1687 L41.5799,4.1687 L41.5799,0.5747 L40.8279,0.5747 L40.8279,1.9787 L39.7149,1.9787 L39.7149,0.5747 L38.9629,0.5747 L38.9629,4.1687 L39.7149,4.1687 L39.7149,2.6787 Z M52.9199,3.4697 L51.5969,3.4697 L51.5969,0.5737 L50.8409,0.5737 L50.8409,4.1687 L52.9009,4.1687 L52.9199,3.4697 Z M64.3209,3.4887 L64.3209,2.6357 L65.5049,2.6357 L65.5049,2.0037 L64.3209,2.0037 L64.3209,1.2637 L65.7299,1.2637 L65.7149,0.5747 L63.5679,0.5747 L63.5679,4.1687 L65.7829,4.1687 L65.8019,3.4887 L64.3209,3.4887 Z M29.5899,4.1687 L30.3509,4.1687 L30.3509,1.2787 L31.2229,1.2787 L31.2099,0.5747 L28.7349,0.5747 L28.7159,1.2787 L29.5899,1.2787 L29.5899,4.1687 Z M45.5659,4.1687 L45.5659,0.5747 L44.9049,0.5747 L44.9049,2.3667 L44.9139,2.7497 L44.9049,2.7547 L43.5719,0.5747 L42.9249,0.5747 L42.9249,4.1687 L43.5899,4.1687 L43.5899,2.2807 L43.5859,1.8927 L43.5949,1.8877 L43.7959,2.2227 L45.0289,4.1687 L45.5659,4.1687 Z M43.2349,7.3787 L40.7619,7.3787 L40.7419,8.0827 L41.6149,8.0827 L41.6149,10.9737 L42.3769,10.9737 L42.3769,8.0827 L43.2499,8.0827 L43.2349,7.3787 Z M46.8539,9.7527 L46.8539,7.3787 L46.1019,7.3787 L46.1019,9.7427 C46.1019,10.1597 45.9379,10.3317 45.5349,10.3317 C45.1319,10.3317 44.9639,10.1547 44.9639,9.7427 L44.9639,7.3787 L44.2079,7.3787 L44.2079,9.7527 C44.2079,10.6147 44.6619,11.0357 45.5349,11.0357 C46.4079,11.0357 46.8539,10.6147 46.8539,9.7527 Z M39.7169,8.8847 L38.5429,8.8847 L38.5429,8.0827 L39.9479,8.0827 L39.9379,7.3787 L37.7909,7.3787 L37.7909,10.9737 L38.5429,10.9737 L38.5429,9.5507 L39.7079,9.5507 L39.7169,8.8847 Z M50.1229,9.1717 L50.1329,9.5547 L50.1229,9.5597 L48.7899,7.3787 L48.1429,7.3787 L48.1429,10.9737 L48.8089,10.9737 L48.8089,9.0857 L48.8039,8.6967 L48.8139,8.6927 L49.0159,9.0277 L50.2479,10.9737 L50.7839,10.9737 L50.7839,7.3787 L50.1229,7.3787 L50.1229,9.1717 Z M30.0309,10.3607 C29.7089,10.3607 29.4169,10.2697 29.1389,10.1217 L29.0379,10.7827 C29.3159,10.9457 29.6709,11.0357 30.0449,11.0357 C30.8219,11.0357 31.2719,10.6147 31.2719,9.9097 C31.2719,8.7307 29.7769,8.9417 29.7769,8.3667 C29.7769,8.1647 29.8919,8.0117 30.2989,8.0117 C30.5439,8.0117 30.8029,8.0587 31.0709,8.1497 L31.1569,7.4997 C30.9079,7.3837 30.5779,7.3217 30.2509,7.3217 C29.4209,7.3217 29.0519,7.7907 29.0519,8.3997 C29.0519,9.5747 30.5489,9.3687 30.5489,9.9587 C30.5489,10.2217 30.3899,10.3607 30.0309,10.3607 Z M32.9629,10.9737 L33.7249,10.9737 L33.7249,8.0827 L34.5979,8.0827 L34.5839,7.3787 L32.1099,7.3787 L32.0909,8.0827 L32.9629,8.0827 L32.9629,10.9737 Z M36.4179,7.3787 L36.0329,7.3787 L35.6469,7.3787 L35.6469,10.9737 L36.4179,10.9737 L36.4179,7.3787 Z M53.8629,10.3037 C53.7619,10.3327 53.6479,10.3417 53.5229,10.3417 C52.9709,10.3417 52.7789,10.1067 52.7789,9.1717 C52.7789,8.2507 52.9759,8.0017 53.6189,8.0017 C53.8879,8.0017 54.1789,8.0587 54.4039,8.1497 L54.4809,7.4797 C54.2319,7.3787 53.8879,7.3167 53.5749,7.3167 C52.4679,7.3167 51.9889,7.8967 51.9889,9.1817 C51.9889,10.4377 52.4139,11.0407 53.5419,11.0407 C53.9069,11.0407 54.2939,10.9587 54.5379,10.8447 L54.5379,9.0277 L53.8629,9.0277 L53.8629,10.3037 Z M47.0959,13.9837 L47.0959,16.3267 L47.1049,16.7107 L47.0959,16.7157 L46.8989,16.3807 L45.4739,13.9837 L45.0589,13.9837 L45.0589,17.5787 L45.4649,17.5787 L45.4649,15.1627 L45.4599,14.7747 L45.4709,14.7697 L45.6619,15.1057 L47.1619,17.5787 L47.4919,17.5787 L47.4919,13.9837 L47.0959,13.9837 Z M42.9999,17.5787 L43.4639,17.5787 L43.4639,13.9837 L43.2319,13.9837 L42.9999,13.9837 L42.9999,17.5787 Z M30.8779,15.6757 C31.2569,15.7707 31.4819,16.0447 31.4819,16.5577 C31.4819,17.2047 31.1759,17.5787 30.4079,17.5787 L29.1899,17.5787 L29.1899,13.9837 L30.3649,13.9837 C31.0219,13.9837 31.3529,14.2757 31.3529,14.8757 C31.3529,15.3157 31.1609,15.5647 30.8779,15.6657 L30.8779,15.6757 Z M29.6309,15.5317 L30.3699,15.5317 C30.7439,15.5317 30.9119,15.3497 30.9119,14.9557 C30.9119,14.5387 30.7399,14.3947 30.3509,14.3947 L29.6309,14.3947 L29.6309,15.5317 Z M30.4139,17.1767 C30.8069,17.1767 31.0269,17.0127 31.0269,16.5237 C31.0269,16.0827 30.8259,15.9007 30.3929,15.9007 L29.6309,15.9007 L29.6309,17.1767 L30.4139,17.1767 Z M37.7579,15.9527 L38.6159,17.5787 L38.0789,17.5787 L37.3399,16.0387 L36.7119,16.0387 L36.7119,17.5787 L36.2569,17.5787 L36.2569,13.9837 L37.3359,13.9837 C38.0599,13.9837 38.3999,14.2947 38.3999,14.9997 C38.3999,15.5647 38.1739,15.8767 37.7579,15.9527 Z M37.9299,15.0177 C37.9299,14.5477 37.7479,14.3907 37.3399,14.3907 L36.7119,14.3907 L36.7119,15.6657 L37.3219,15.6657 C37.7429,15.6657 37.9299,15.5027 37.9299,15.0177 Z M32.8699,13.9837 L32.8699,17.5787 L34.9269,17.5787 L34.9409,17.1527 L33.3259,17.1527 L33.3259,15.9047 L34.6429,15.9047 L34.6429,15.5077 L33.3259,15.5077 L33.3259,14.4147 L34.8639,14.4147 L34.8549,13.9837 L32.8699,13.9837 Z M40.2909,13.9837 L40.2909,17.1427 L41.7769,17.1427 L41.7619,17.5787 L39.8319,17.5787 L39.8319,13.9837 L40.2909,13.9837 Z" id="Fill-298"></path>
            <path d="M3.0882,19.5238 L19.0242,3.1258 L1.2702,14.0778 L3.0882,19.5238 Z M25.1472,12.4998 L22.7612,17.7528 L8.3352,15.2948 L8.7212,14.8958 L22.2972,17.2088 L19.7462,3.0408 L2.8922,20.3828 L0.7262,13.8968 L5.5332,3.8578 L11.8032,6.6198 L11.3302,6.9118 L5.7542,4.4548 L1.4622,13.4218 L20.0202,1.9738 L22.6892,16.8038 L24.5382,12.7328 L22.1312,11.6718 L22.0332,11.1278 L25.1472,12.4998 Z M13.0412,7.2398 L12.8052,7.3858 L13.9102,7.8728 L14.0802,7.6978 L13.0412,7.2398 Z M15.2292,8.2038 L15.0592,8.3788 L20.7972,10.9068 L20.7482,10.6358 L15.2292,8.2038 Z M1.7842,14.1828 L2.0842,13.9978 L7.1852,14.7898 L6.9912,14.9908 L1.7842,14.1828 Z" id="Fill-300"></path>
        </g>
    </g>
</svg>