<?xml version="1.0" encoding="utf-8"?>
<!-- Generator: Adobe Illustrator 24.1.0, SVG Export Plug-In . SVG Version: 6.00 Build 0)  -->
<svg version="1.1" id="Ebene_2_1_" xmlns="http://www.w3.org/2000/svg" xmlns:xlink="http://www.w3.org/1999/xlink" x="0px" y="0px"
	 viewBox="0 0 221.1 68.3" style="enable-background:new 0 0 221.1 68.3;" xml:space="preserve">
<style type="text/css">
	.st0{fill:#0072B8;}
	.st1{fill:#89B740;}
	.st2{fill-rule:evenodd;clip-rule:evenodd;fill:#0072B8;}
</style>
<g>
	<path class="st0" d="M51.8,32.9c-15.5-3.6-17.9,4.9-33,0.2L16.5,46L0,23.6L25,0l-2.3,11.9c15.1,4.7,17.2-2.9,32.8,0.6L51.8,32.9z"
		/>
	<path class="st1" d="M20.6,35.5c15.5,3.6,17.8-4.9,32.9-0.2l2.4-12.9l16.4,22.4L47.1,68.3l2.3-11.8c-15.1-4.7-17.1,3.7-32.6,0.1
		L20.6,35.5z"/>
	<path class="st0" d="M100.1,30.7h-2.5l-4.1,8.9c-0.4,0.8-0.7,1.6-1,2.5h0c0-0.9,0-1.9,0-2.7l-0.8-8.8H89l-4.2,8.8
		c-0.4,0.9-0.8,1.8-1.1,2.7h0c0-0.9,0.1-1.8,0-2.8l-0.6-8.7h-2.4L81.7,45h2.8l4.2-8.9c0.4-0.9,0.8-1.8,1.1-2.7h0c0,0.9,0,1.8,0,2.7
		l0.7,8.8h2.9L100.1,30.7z"/>
	<path class="st2" d="M106.4,36.2l-0.2,0.8c-0.5,2.4-2.6,6.3-4.4,6.3c-0.6,0-1-0.5-1-1.7c0-2.4,1.2-5.5,4.2-5.5
		C105.5,36,106,36.1,106.4,36.2z M109,34.6c-1.1-0.2-2.4-0.3-3.6-0.3c-4.8,0-6.9,3.8-6.9,7.7c0,2.2,0.9,3.3,2.5,3.3
		c2.5,0,4.1-2.5,4.9-4.1l0,0c-0.6,1.7-1,3-1.2,3.9h2.3C107.5,42.4,107.9,39.9,109,34.6z"/>
	<path class="st0" d="M117.5,34.4c-0.6-0.1-1.1-0.2-1.9-0.2c-3,0-4.5,1.5-4.5,3.3c0,2.5,3.1,2.8,3.1,4.4c0,1-0.9,1.4-2.2,1.4
		c-0.6,0-1.2-0.1-1.7-0.3l-0.4,2c0.5,0.1,1.1,0.2,1.9,0.2c3.2,0,4.8-1.8,4.8-3.5c0-2.3-3.1-2.9-3.1-4.4c0-0.8,0.7-1.4,2-1.4
		c0.5,0,1.1,0.1,1.6,0.2L117.5,34.4z"/>
	<path class="st0" d="M125.8,34.4c-0.6-0.1-1.1-0.2-1.9-0.2c-3,0-4.5,1.5-4.5,3.3c0,2.5,3.1,2.8,3.1,4.4c0,1-0.9,1.4-2.2,1.4
		c-0.6,0-1.2-0.1-1.7-0.3l-0.4,2c0.6,0.1,1.1,0.2,1.9,0.2c3.2,0,4.8-1.8,4.8-3.5c0-2.3-3.1-2.9-3.1-4.4c0-0.8,0.7-1.4,2-1.4
		c0.5,0,1.1,0.1,1.6,0.2L125.8,34.4z"/>
	<path class="st2" d="M134.2,37c0,1.2-1.4,1.8-4.4,1.9c0.4-1.6,1.5-3,3.1-3C133.7,35.9,134.2,36.3,134.2,37z M136.5,36.7
		c0-1.3-0.9-2.5-3.4-2.5c-3.5,0-6.1,3.2-6.1,7.5c0,2.4,1.1,3.5,3.8,3.5c1.4,0,2.8-0.3,3.9-0.7v-1.8c-1,0.4-2.1,0.6-3.1,0.6
		c-1.7,0-2.2-0.4-2.2-1.8c0-0.3,0-0.8,0.1-1.1C134,40.3,136.5,39.1,136.5,36.7z"/>
	<path class="st0" d="M145.3,34.2c-2-0.3-3.3,1.4-4.5,3.8l0,0c0.6-1.7,0.9-2.7,1-3.6h-2.2c-0.3,1.6-0.7,3.5-0.9,5l-1.1,5.5h2.3
		l0.5-2.3c0.6-3.2,2.7-6.7,4.5-6.2L145.3,34.2z"/>
	<path class="st2" d="M153.5,37.9c0,2.4-1.2,5.5-4.2,5.5c-0.6,0-1-0.1-1.4-0.2l0.2-0.8c0.5-2.4,2.6-6.2,4.4-6.2
		C153.1,36.1,153.5,36.7,153.5,37.9z M155.9,37.5c0-2.2-0.9-3.3-2.5-3.3c-2.1,0-3.7,1.8-4.8,4.1l0,0c0.8-2.1,1-3.1,1.2-3.9l0.9-4.8
		h-2.3l-3,15.3c1.1,0.2,2.3,0.4,3.6,0.4C153.7,45.1,155.9,41.4,155.9,37.5z"/>
	<path class="st2" d="M164.3,37c0,1.2-1.4,1.8-4.4,1.9c0.4-1.6,1.5-3,3.1-3C163.8,35.9,164.3,36.3,164.3,37z M166.7,36.7
		c0-1.3-0.9-2.5-3.4-2.5c-3.5,0-6.1,3.2-6.1,7.5c0,2.4,1.1,3.5,3.8,3.5c1.4,0,2.8-0.3,3.9-0.7v-1.8c-1,0.4-2.1,0.6-3.1,0.6
		c-1.7,0-2.2-0.4-2.2-1.8c0-0.3,0-0.8,0.1-1.1C164.2,40.3,166.7,39.1,166.7,36.7z"/>
	<path class="st0" d="M175.4,34.4h-2.8l0.8-3.8l-2.4,0.5l-0.7,3.4h-2l-0.4,1.8h2.1l-1.1,5.5c-0.5,2.5,0.1,3.5,2.4,3.5
		c0.6,0,1.5-0.1,2.1-0.2l0.2-1.8c-0.4,0.1-0.9,0.1-1.5,0.1c-1,0-1.2-0.4-0.9-1.9l1-5.2h2.8L175.4,34.4z"/>
	<path class="st0" d="M183.5,34.2c-2-0.3-3.3,1.4-4.5,3.8l0,0c0.6-1.7,0.9-2.7,1-3.6h-2.2c-0.3,1.6-0.7,3.5-0.9,5l-1.1,5.5h2.3
		l0.5-2.3c0.6-3.2,2.7-6.7,4.5-6.2L183.5,34.2z"/>
	<path class="st2" d="M187.9,34.4h-2.3L183.5,45h2.3L187.9,34.4z M188.8,31.4c0-0.7-0.6-1.3-1.4-1.3c-0.8,0-1.6,0.6-1.6,1.5
		c0,0.7,0.6,1.4,1.4,1.4C188,32.9,188.8,32.2,188.8,31.4z"/>
	<path class="st2" d="M196.3,37c0,1.2-1.4,1.8-4.4,1.9c0.4-1.6,1.5-3,3.1-3C195.8,35.9,196.3,36.3,196.3,37z M198.7,36.7
		c0-1.3-0.9-2.5-3.4-2.5c-3.5,0-6.1,3.2-6.1,7.5c0,2.4,1.1,3.5,3.8,3.5c1.4,0,2.8-0.3,3.9-0.7v-1.8c-1,0.4-2.1,0.6-3.1,0.6
		c-1.7,0-2.2-0.4-2.2-1.8c0-0.3,0-0.8,0.1-1.1C196.2,40.3,198.7,39.1,198.7,36.7z"/>
	<path class="st2" d="M207.9,37.9c0,2.4-1.2,5.5-4.2,5.5c-0.6,0-1-0.1-1.4-0.2l0.2-0.8c0.5-2.4,2.6-6.2,4.4-6.2
		C207.6,36.1,207.9,36.7,207.9,37.9z M210.3,37.5c0-2.2-0.9-3.3-2.5-3.3c-2.1,0-3.7,1.8-4.8,4.1l0,0c0.7-2.1,1-3.1,1.2-3.9l0.9-4.8
		h-2.3l-3,15.3c1.1,0.2,2.3,0.4,3.6,0.4C208.2,45.1,210.3,41.4,210.3,37.5z"/>
	<path class="st2" d="M218.8,37c0,1.2-1.4,1.8-4.4,1.9c0.4-1.6,1.5-3,3.1-3C218.3,35.9,218.8,36.3,218.8,37z M221.1,36.7
		c0-1.3-0.9-2.5-3.4-2.5c-3.5,0-6.1,3.2-6.1,7.5c0,2.4,1.1,3.5,3.8,3.5c1.4,0,2.8-0.3,3.9-0.7v-1.8c-1,0.4-2.1,0.6-3.1,0.6
		c-1.6,0-2.2-0.4-2.2-1.8c0-0.3,0-0.8,0.1-1.1C218.6,40.3,221.1,39.1,221.1,36.7z"/>
	<path class="st2" d="M75.1,21.3c0,1.6-1.3,2.9-3.7,2.9c-0.7,0-1.3,0-1.6-0.1l0.9-4.6c0.3,0,1.1,0,1.6,0
		C74.2,19.5,75.1,20.2,75.1,21.3z M76,15c0,1.8-1.7,2.8-3.9,2.8c-0.4,0-0.8,0-1.2,0l0.9-4.2c0.6,0,1.2,0,1.9,0
		C75.5,13.5,76,14.1,76,15z M78.6,14.5c0-1.8-1.4-2.8-4.3-2.8c-1.7,0-3.3,0-4.5,0.1L67,26.1c1.6,0,3.1,0.1,4,0.1
		c4.2,0,6.6-2.3,6.6-5c0-1.2-0.8-2.3-2.1-2.6v0C77.1,17.9,78.6,16.6,78.6,14.5z"/>
	<path class="st2" d="M86.5,18.1c0,1.2-1.4,1.8-4.4,1.9c0.4-1.6,1.5-3,3.1-3C86,17,86.5,17.4,86.5,18.1z M88.8,17.8
		c0-1.3-0.9-2.5-3.4-2.5c-3.5,0-6.1,3.2-6.1,7.5c0,2.4,1.1,3.5,3.8,3.5c1.4,0,2.8-0.3,3.9-0.7v-1.8c-1,0.4-2.1,0.6-3.1,0.6
		c-1.7,0-2.2-0.4-2.2-1.8c0-0.3,0-0.8,0.1-1.1C86.3,21.4,88.8,20.2,88.8,17.8z"/>
	<path class="st0" d="M97.7,15.3c-2-0.3-3.3,1.4-4.5,3.8l0,0c0.6-1.7,0.9-2.7,1-3.6h-2.2c-0.3,1.6-0.7,3.5-0.9,5l-1.1,5.5h2.3
		l0.5-2.3c0.6-3.2,2.7-6.7,4.5-6.2L97.7,15.3z"/>
	<polygon class="st0" points="102.9,10.6 100.6,10.6 97.6,26.1 99.9,26.1 	"/>
	<path class="st2" d="M107.6,15.5h-2.3l-2.1,10.5h2.3L107.6,15.5z M108.6,12.4c0-0.7-0.6-1.3-1.4-1.3c-0.8,0-1.6,0.6-1.6,1.5
		c0,0.7,0.6,1.4,1.4,1.4C107.8,13.9,108.5,13.3,108.6,12.4z"/>
	<path class="st0" d="M119.3,18.8c0.4-2.1-0.2-3.6-2.3-3.6c-2.2,0-3.8,1.9-4.9,4l0,0c0.7-2,1-3.1,1.1-3.8H111
		c-0.2,1.4-0.6,3.3-0.9,5l-1.1,5.5h2.3l0.5-2.5c0.5-2.5,2.6-6.3,4.4-6.3c0.9,0,1.1,0.6,0.8,2.1l-1.3,6.7h2.3L119.3,18.8z"/>
	<path class="st2" d="M128.4,18.1c0,1.2-1.4,1.8-4.4,1.9c0.4-1.6,1.5-3,3.1-3C127.9,17,128.4,17.4,128.4,18.1z M130.8,17.8
		c0-1.3-0.9-2.5-3.4-2.5c-3.5,0-6.1,3.2-6.1,7.5c0,2.4,1.1,3.5,3.8,3.5c1.4,0,2.8-0.3,3.9-0.7v-1.8c-1,0.4-2.1,0.6-3.1,0.6
		c-1.7,0-2.2-0.4-2.2-1.8c0-0.3,0-0.8,0.1-1.1C128.3,21.4,130.8,20.2,130.8,17.8z"/>
	<path class="st0" d="M139.6,15.3c-2-0.3-3.3,1.4-4.5,3.8l0,0c0.6-1.7,0.9-2.7,1-3.6h-2.2c-0.3,1.6-0.7,3.5-0.9,5l-1.1,5.5h2.3
		l0.5-2.3c0.6-3.2,2.7-6.7,4.5-6.2L139.6,15.3z"/>
</g>
</svg>
