<?xml version="1.0" standalone="no"?>
<!DOCTYPE svg PUBLIC "-//W3C//DTD SVG 20010904//EN"
 "http://www.w3.org/TR/2001/REC-SVG-20010904/DTD/svg10.dtd">
<svg version="1.0" xmlns="http://www.w3.org/2000/svg"
 width="520.000000pt" height="520.000000pt" viewBox="0 0 520.000000 520.000000"
 preserveAspectRatio="xMidYMid meet">
<metadata>
Created by potrace 1.14, written by Peter Selinger 2001-2017
</metadata>
<g transform="translate(0.000000,520.000000) scale(0.100000,-0.100000)"
fill="#000000" stroke="none">
<path d="M4500 5177 c-3 -3 -21 -8 -40 -11 -100 -15 -222 -80 -304 -160 -60
-60 -77 -82 -114 -148 -25 -44 -62 -154 -68 -198 -5 -48 -5 -170 0 -195 35
-145 83 -237 176 -336 45 -48 153 -114 235 -144 80 -29 238 -39 328 -20 127
26 279 121 354 220 29 37 104 168 103 180 0 3 0 6 1 8 0 1 2 9 4 17 2 8 8 35
13 60 14 60 13 176 -3 249 -13 63 -73 201 -87 201 -4 0 -8 5 -8 10 0 6 -6 17
-12 25 -139 162 -273 231 -468 242 -58 3 -107 3 -110 0z m222 -183 c127 -41
243 -150 284 -267 93 -263 -53 -534 -320 -597 -290 -69 -568 160 -553 455 10
200 154 375 347 420 63 15 180 10 242 -11z"/>
<path d="M2059 4426 c-2 -2 -38 -7 -79 -10 -171 -16 -309 -47 -535 -120 -5 -2
-14 -5 -20 -6 -37 -11 -251 -115 -320 -155 -93 -54 -245 -159 -290 -200 -7 -5
-33 -28 -59 -50 -154 -128 -311 -317 -458 -550 -69 -110 -187 -388 -213 -501
-2 -10 -11 -44 -19 -74 -16 -54 -30 -127 -41 -205 -4 -22 -9 -51 -12 -65 -10
-44 -11 -423 -2 -490 5 -36 12 -83 14 -105 8 -55 43 -222 57 -265 22 -72 50
-156 58 -175 5 -11 23 -54 40 -95 96 -231 259 -474 447 -665 98 -101 155 -151
248 -220 22 -16 42 -32 45 -35 11 -11 70 -50 75 -50 4 0 21 -11 38 -24 47 -35
250 -140 337 -174 141 -55 301 -104 387 -119 13 -2 33 -5 45 -7 13 -3 41 -7
63 -10 22 -4 56 -9 75 -12 81 -15 363 -20 460 -10 252 27 412 66 632 152 113
44 352 166 378 194 3 3 34 25 70 49 295 201 549 499 715 836 51 106 117 269
129 320 1 6 10 35 19 65 9 30 19 71 22 90 3 19 10 51 15 70 42 159 47 552 11
770 -13 78 -35 180 -51 234 -6 21 -13 46 -15 55 -9 42 -79 221 -117 299 -144
298 -353 564 -608 772 -227 186 -616 378 -860 425 -8 2 -33 8 -55 13 -40 11
-84 18 -160 29 -22 2 -51 7 -65 9 -32 6 -396 15 -401 10z m361 -170 c145 -14
372 -69 540 -131 140 -51 343 -167 497 -281 83 -62 299 -272 348 -339 17 -22
38 -49 48 -59 9 -11 17 -25 17 -32 0 -7 4 -14 9 -16 27 -10 187 -291 226 -398
29 -78 87 -254 91 -273 2 -10 5 -26 8 -35 3 -9 7 -33 10 -52 3 -19 8 -48 12
-65 36 -182 36 -498 -1 -705 -15 -89 -71 -292 -94 -345 -5 -11 -24 -56 -42
-100 -139 -335 -403 -658 -712 -870 -67 -47 -61 -43 -157 -98 -105 -60 -282
-140 -360 -163 -109 -31 -201 -55 -225 -59 -16 -3 -54 -10 -82 -16 -29 -6 -72
-12 -97 -13 -24 -2 -47 -6 -52 -8 -13 -8 -389 -2 -449 7 -508 71 -935 296
-1275 672 -278 306 -463 722 -506 1139 -14 135 -9 357 11 514 31 230 144 541
272 750 124 201 308 408 483 544 47 37 90 70 96 75 6 5 55 35 110 68 87 53
146 83 286 147 67 30 251 86 348 106 135 27 144 29 234 36 45 3 82 7 83 8 5 5
255 -2 323 -8z"/>
</g>
</svg>
