<svg width="48" height="48" viewBox="0 0 48 48" fill="none" xmlns="http://www.w3.org/2000/svg">
<rect x="4" y="4" width="40" height="40" rx="20" fill="#1E398F"/>
<path d="M23.9997 12.8077C27.6437 12.8077 28.0758 12.8197 29.5158 12.8877C30.8478 12.9477 31.5717 13.1717 32.0517 13.3597C32.6877 13.6077 33.1438 13.9037 33.6198 14.3797C34.0958 14.8557 34.3918 15.3117 34.6398 15.9477C34.8278 16.4277 35.0477 17.1517 35.1117 18.4837C35.1757 19.9237 35.1917 20.3557 35.1917 23.9997C35.1917 27.6437 35.1797 28.0757 35.1117 29.5157C35.0517 30.8477 34.8278 31.5717 34.6398 32.0517C34.3918 32.6877 34.0958 33.1437 33.6198 33.6197C33.1438 34.0957 32.6877 34.3917 32.0517 34.6397C31.5717 34.8277 30.8478 35.0477 29.5158 35.1117C28.0758 35.1757 27.6437 35.1917 23.9997 35.1917C20.3557 35.1917 19.9237 35.1797 18.4837 35.1117C17.1517 35.0517 16.4278 34.8277 15.9478 34.6397C15.3118 34.3917 14.8557 34.0957 14.3797 33.6197C13.9037 33.1437 13.6077 32.6877 13.3597 32.0517C13.1717 31.5717 12.9517 30.8477 12.8877 29.5157C12.8237 28.0757 12.8077 27.6437 12.8077 23.9997C12.8077 20.3557 12.8197 19.9237 12.8877 18.4837C12.9477 17.1517 13.1717 16.4277 13.3597 15.9477C13.6077 15.3117 13.9037 14.8557 14.3797 14.3797C14.8557 13.9037 15.3118 13.6077 15.9478 13.3597C16.4278 13.1717 17.1517 12.9517 18.4837 12.8877C19.9237 12.8197 20.3557 12.8077 23.9997 12.8077ZM23.9997 10.3477C20.2917 10.3477 19.8277 10.3637 18.3717 10.4317C16.9197 10.4997 15.9277 10.7277 15.0557 11.0677C14.1597 11.4117 13.3957 11.8797 12.6397 12.6397C11.8797 13.3997 11.4157 14.1597 11.0637 15.0597C10.7278 15.9277 10.4957 16.9197 10.4277 18.3757C10.3597 19.8317 10.3438 20.2957 10.3438 24.0037C10.3438 27.7117 10.3597 28.1757 10.4277 29.6317C10.4957 31.0837 10.7237 32.0757 11.0637 32.9477C11.4117 33.8397 11.8797 34.6037 12.6397 35.3597C13.3997 36.1197 14.1597 36.5837 15.0597 36.9357C15.9277 37.2717 16.9197 37.5037 18.3757 37.5717C19.8317 37.6397 20.2957 37.6557 24.0037 37.6557C27.7117 37.6557 28.1757 37.6397 29.6317 37.5717C31.0837 37.5037 32.0757 37.2757 32.9477 36.9357C33.8397 36.5877 34.6038 36.1197 35.3598 35.3597C36.1198 34.5997 36.5838 33.8397 36.9358 32.9397C37.2718 32.0717 37.5037 31.0797 37.5717 29.6237C37.6397 28.1677 37.6558 27.7037 37.6558 23.9957C37.6558 20.2877 37.6397 19.8237 37.5717 18.3677C37.5037 16.9157 37.2758 15.9237 36.9358 15.0517C36.5878 14.1597 36.1198 13.3957 35.3598 12.6397C34.5998 11.8797 33.8398 11.4157 32.9398 11.0637C32.0718 10.7277 31.0797 10.4957 29.6237 10.4277C28.1717 10.3637 27.7077 10.3477 23.9997 10.3477Z" fill="white"/>
<path d="M24.0003 16.9883C20.1283 16.9883 16.9883 20.1283 16.9883 24.0003C16.9883 27.8723 20.1283 31.0123 24.0003 31.0123C27.8723 31.0123 31.0123 27.8723 31.0123 24.0003C31.0123 20.1283 27.8723 16.9883 24.0003 16.9883ZM24.0003 28.5523C21.4883 28.5523 19.4483 26.5163 19.4483 24.0003C19.4483 21.4843 21.4883 19.4483 24.0003 19.4483C26.5123 19.4483 28.5523 21.4843 28.5523 24.0003C28.5523 26.5163 26.5123 28.5523 24.0003 28.5523Z" fill="white"/>
<path d="M31.2884 18.3503C32.1942 18.3503 32.9284 17.6161 32.9284 16.7103C32.9284 15.8046 32.1942 15.0703 31.2884 15.0703C30.3827 15.0703 29.6484 15.8046 29.6484 16.7103C29.6484 17.6161 30.3827 18.3503 31.2884 18.3503Z" fill="white"/>
</svg>
