<svg width="402" height="98" viewBox="0 0 402 98" fill="none"
  xmlns="http://www.w3.org/2000/svg">
  <path d="M143.771 17.6359C143.771 23.4825 141.737 25.9975 136.706 25.9975C131.761 25.9975 129.621 23.3751 129.621 17.6359C129.621 11.8967 131.697 9.31726 136.706 9.31726C141.737 9.31726 143.771 11.8967 143.771 17.6359ZM140.003 17.6359C140.003 13.5518 139.168 12.563 136.706 12.563C134.266 12.563 133.41 13.5518 133.41 17.6359C133.41 21.7199 134.287 22.7517 136.728 22.7517C139.147 22.7517 140.003 21.6985 140.003 17.6359ZM160.166 15.0994C160.166 18.4957 158.368 20.4517 153.894 20.4517H151.753V25.6965H148.135V9.5752H153.894C158.346 9.5752 160.166 11.3378 160.166 15.0994ZM156.441 15.078C156.441 13.1434 155.756 12.606 153.894 12.606H151.753V17.5499H153.894C155.671 17.5499 156.441 17.0985 156.441 15.078ZM167.87 22.5368H175.256L175.17 25.6965H164.252V9.5752H174.849L174.913 12.778H167.87V15.9807H173.8V18.8611H167.87V22.5368ZM192.357 25.6965H189.831L183.602 16.905L182.639 15.4649L182.596 15.4864L182.617 17.2275V25.6965H179.406V9.5752H182.489L188.205 17.8938L189.168 19.334L189.211 19.3125L189.168 17.5929V9.5752H192.357V25.6965ZM223.136 17.5714C223.136 23.3966 220.717 25.6965 215.965 25.6965H209.906V9.5752H215.922C221.017 9.5752 223.136 12.0042 223.136 17.5714ZM219.347 17.5499C219.347 13.7238 218.426 12.821 215.879 12.821H213.524V22.4723H215.9C218.362 22.4723 219.347 21.677 219.347 17.5499ZM236.984 25.6965L236.085 22.5583H230.262L229.363 25.6965H225.553L231.097 9.5752H235.4L241.009 25.6965H236.984ZM233.195 12.3051L232.745 14.0032L231.14 19.5274H235.229L233.687 14.0032L233.259 12.3051H233.195ZM254.129 12.8425H249.804V25.6965H246.165V12.8425H241.862L241.948 9.5752H254.043L254.129 12.8425ZM266.414 25.6965L265.515 22.5583H259.692L258.793 25.6965H254.983L260.527 9.5752H264.83L270.438 25.6965H266.414ZM262.625 12.3051L262.175 14.0032L260.57 19.5274H264.659L263.117 14.0032L262.689 12.3051H262.625ZM130.455 55.5509V39.4295H134.137V55.5509H130.455ZM152.267 55.5509H149.741L143.511 46.7594L142.548 45.3192L142.505 45.3407L142.527 47.0818V55.5509H139.316V39.4295H142.398L148.114 47.7482L149.077 49.1883L149.12 49.1668L149.077 47.4472V39.4295H152.267V55.5509ZM167.87 42.6968H160.827V46.179H166.693L166.65 49.2743H160.827V55.5509H157.231V39.4295H167.806L167.87 42.6968ZM185.143 47.4902C185.143 53.3369 183.11 55.8518 178.079 55.8518C173.134 55.8518 170.993 53.2294 170.993 47.4902C170.993 41.751 173.07 39.1716 178.079 39.1716C183.11 39.1716 185.143 41.751 185.143 47.4902ZM181.376 47.4902C181.376 43.4061 180.541 42.4174 178.079 42.4174C175.639 42.4174 174.782 43.4061 174.782 47.4902C174.782 51.5743 175.66 52.6061 178.1 52.6061C180.519 52.6061 181.376 51.5528 181.376 47.4902ZM201.367 44.4379C201.367 46.6949 200.404 48.2855 198.67 48.8229L202.416 55.5509H198.199L195.395 49.5323H193.126V55.5509H189.508V39.4295H195.395C199.377 39.4295 201.367 40.9987 201.367 44.4379ZM197.6 44.5884C197.6 42.9547 197 42.4389 195.416 42.4389H193.126V46.8239H195.352C196.958 46.8239 197.6 46.3295 197.6 44.5884ZM205.968 39.4295H209.949L213.674 48.8444L214.274 50.4565H214.338L214.937 48.8444L218.683 39.4295H222.665V55.5509H219.368V47.3397L219.411 45.5986L219.347 45.5771L218.748 47.2108L215.451 55.5509H213.053L209.778 47.2323L209.179 45.5986L209.136 45.6201L209.157 47.3612V55.5509H205.968V39.4295ZM237.648 55.5509L236.749 52.4126H230.926L230.027 55.5509H226.216L231.761 39.4295H236.063L241.672 55.5509H237.648ZM233.859 42.1594L233.409 43.8575L231.803 49.3818H235.892L234.351 43.8575L233.923 42.1594H233.859ZM254.792 42.6968H250.468V55.5509H246.829V42.6968H242.526L242.612 39.4295H254.707L254.792 42.6968ZM258.707 55.5509V39.4295H262.389V55.5509H258.707ZM281.118 47.4902C281.118 53.3369 279.084 55.8518 274.054 55.8518C269.109 55.8518 266.968 53.2294 266.968 47.4902C266.968 41.751 269.045 39.1716 274.054 39.1716C279.084 39.1716 281.118 41.751 281.118 47.4902ZM277.351 47.4902C277.351 43.4061 276.516 42.4174 274.054 42.4174C271.613 42.4174 270.757 43.4061 270.757 47.4902C270.757 51.5743 271.635 52.6061 274.075 52.6061C276.494 52.6061 277.351 51.5528 277.351 47.4902ZM298.434 55.5509H295.908L289.679 46.7594L288.715 45.3192L288.672 45.3407L288.694 47.0818V55.5509H285.483V39.4295H288.565L294.281 47.7482L295.244 49.1883L295.287 49.1668L295.244 47.4472V39.4295H298.434V55.5509ZM313.609 50.7145C313.609 53.8958 311.404 55.8518 307.658 55.8518C305.796 55.8518 304.083 55.4004 302.692 54.6481L303.163 51.5313C304.575 52.2836 306.031 52.7135 307.615 52.7135C309.371 52.7135 310.141 52.0687 310.141 50.9509C310.141 48.4145 302.756 49.4893 302.756 44.094C302.756 41.3641 304.511 39.1501 308.579 39.1501C310.141 39.1501 311.832 39.4725 313.074 39.9884L312.625 43.0407C311.297 42.6108 309.97 42.3529 308.75 42.3529C306.759 42.3529 306.224 43.0407 306.224 43.9005C306.224 46.4155 313.609 45.2547 313.609 50.7145ZM327.885 50.7145C327.885 53.8958 325.68 55.8518 321.934 55.8518C320.072 55.8518 318.359 55.4004 316.968 54.6481L317.439 51.5313C318.852 52.2836 320.307 52.7135 321.891 52.7135C323.647 52.7135 324.417 52.0687 324.417 50.9509C324.417 48.4145 317.032 49.4893 317.032 44.094C317.032 41.3641 318.787 39.1501 322.855 39.1501C324.417 39.1501 326.109 39.4725 327.35 39.9884L326.901 43.0407C325.573 42.6108 324.246 42.3529 323.026 42.3529C321.035 42.3529 320.5 43.0407 320.5 43.9005C320.5 46.4155 327.885 45.2547 327.885 50.7145ZM343.103 42.6968H338.779V55.5509H335.14V42.6968H330.837L330.923 39.4295H343.018L343.103 42.6968ZM350.401 52.3911H357.786L357.701 55.5509H346.783V39.4295H357.379L357.444 42.6323H350.401V45.8351H356.331V48.7154H350.401V52.3911ZM365.576 52.2836H372.191L372.105 55.5509H361.937V39.4295H365.576V52.2836ZM379.638 52.2836H386.253L386.167 55.5509H375.999V39.4295H379.638V52.2836ZM393.679 52.3911H401.064L400.978 55.5509H390.061V39.4295H400.657L400.722 42.6323H393.679V45.8351H399.608V48.7154H393.679V52.3911ZM141.801 80.8912C141.801 83.7501 140.474 85.4052 136.963 85.4052H131.076V69.2839H136.642C139.618 69.2839 141.116 70.5521 141.116 73.239C141.116 75.3455 140.11 76.4633 138.761 76.8502V76.8932C140.645 77.2801 141.801 78.5053 141.801 80.8912ZM140.41 80.7838C140.41 78.5913 139.254 77.581 136.899 77.581H132.425V84.1585H136.985C139.125 84.1585 140.41 83.2772 140.41 80.7838ZM139.768 73.4754C139.768 71.3904 138.761 70.5521 136.599 70.5521H132.446V76.4203H136.771C138.783 76.4203 139.768 75.4315 139.768 73.4754ZM149.013 84.0725H157.533L157.469 85.4052H147.622V69.2839H157.083L157.148 70.6166H149.013V76.3558H156.056V77.5595H149.013V84.0725ZM172.837 73.6474C172.837 76.2698 171.638 77.6455 169.412 77.9034L173.886 85.4052H172.173L168.063 78.1614H164.338V85.4052H162.925V69.2839H168.127C171.36 69.2839 172.837 70.7026 172.837 73.6474ZM171.381 73.7119C171.381 71.4549 170.375 70.5521 168.127 70.5521H164.338V77.0006H167.999C170.332 77.0006 171.381 76.0548 171.381 73.7119ZM180.198 84.0295H188.162L188.097 85.4052H178.785V69.2839H180.198V84.0295ZM193.318 85.4052V69.2839H194.731V85.4052H193.318ZM213.289 85.4052H212.24L203.934 72.9381L202.992 71.4764L202.949 71.4979L202.971 73.239V85.4052H201.686V69.2839H203.078L211.105 81.4501L212.047 82.9118L212.09 82.8903L212.047 81.1707L212.026 69.2839H213.289V85.4052Z" fill="#ffffff"/>
  <path fill-rule="evenodd" clip-rule="evenodd" d="M87.6246 20.8338C82.3025 20.8338 77.9926 16.5376 77.9926 11.2437C77.9926 5.94971 82.3025 1.65356 87.6246 1.65356C92.9467 1.65356 97.2566 5.94971 97.2566 11.2437C97.2566 16.5376 92.9467 20.8338 87.6246 20.8338ZM76.6856 11.2437C76.6856 17.2645 81.5857 22.1408 87.6246 22.1408C93.6635 22.1408 98.5636 17.2645 98.5636 11.2437C98.5636 5.22285 93.6635 0.346558 87.6246 0.346558C81.5857 0.346558 76.6856 5.22285 76.6856 11.2437ZM41.9455 96.3466C19.6904 96.3466 1.65368 78.3798 1.65368 56.2222C1.65368 34.0647 19.6904 16.0979 41.9455 16.0979C64.2005 16.0979 82.2373 34.0647 82.2373 56.2222C82.2373 78.3798 64.2005 96.3466 41.9455 96.3466ZM0.34668 56.2222C0.34668 79.1066 18.9736 97.6536 41.9455 97.6536C64.9173 97.6536 83.5443 79.1066 83.5443 56.2222C83.5443 33.3378 64.9173 14.7909 41.9455 14.7909C18.9736 14.7909 0.34668 33.3378 0.34668 56.2222Z" fill="#ffffff"/>
</svg>
