<svg xmlns="http://www.w3.org/2000/svg"
	xmlns:xlink="http://www.w3.org/1999/xlink" id="Ebene_1" width="180" height="55" version="1.1" viewBox="0 0 695 200">
	<style>.st0{clip-path:url(#SVGID_00000031194289239513091740000013760617653247826313_)}.st1{clip-path:url(#SVGID_00000075155034090748774200000004742811840161176762_);fill:#1e3791}</style>
	<g fill="none" fill-rule="evenodd">
		<clipPath id="SVGID_00000180350344070960057360000004736117697836153483_">
			<use xlink:href="#SVGID_1_" style="overflow:visible"/>
		</clipPath>
		<path fill="#20378b" fill-rule="nonzero" d="M0 0zm0 0zm0 0zm0 0zM0 0zm0 0zm0 0zm0 0zm0 0zm0 0zm0 0zm0 0zm0 0zm0 0zm0 0zm0 0zm0 0zm0 0zM0 0zm0 0zm0 0zm0 0zm0 0zm0 0zm0 0zM0 0"/>
		<path d="M0 0"/>
	</g>
	<defs>
		<path id="SVGID_00000062172197092703925640000000483567720992842668_" d="M0 0h721.9v200H0z"/>
	</defs>
	<clipPath id="SVGID_00000161603853037087748190000003367882276276967810_">
		<use xlink:href="#SVGID_00000062172197092703925640000000483567720992842668_" style="overflow:visible"/>
	</clipPath>
	<path fill="#20378b" d="M357.3 162.7v-27.5h-2.2v20.2l.1 2.9h-.1l-1.6-2.5-13.7-20.7h-2.4v27.5h2.2V139h.1l1.6 2.5 14.2 21.2h1.8zm-35.3 0h2.4v-27.5H322v27.5zm-23.6-2.3v-25.1H296v27.5h16l.1-2.3h-13.7zm-16.2-17.6c0 4-1.8 5.6-5.8 5.6h-6.3v-11h6.5c3.9 0 5.6 1.6 5.6 5.4m2.5-.1c0-5-2.5-7.4-8.1-7.4h-8.9v27.5h2.4v-12.3h6.4l7 12.3h2.9l-7.7-12.8c4-.5 6-2.8 6-7.3m-41.9 17.8v-11.1h12v-2.1h-12v-9.8h13.9l-.1-2.3h-16.2v27.5h16.8l.1-2.3h-14.5zm-16.9-18.1c0 3.3-1.7 5-5.1 5h-7.4v-10h7.1c3.6 0 5.4 1.5 5.4 5m1.1 12.5c0 4.2-2.2 5.7-5.9 5.7h-7.8v-11.2h7.7c4 0 6 1.7 6 5.5m2.3.1c0-4.1-2-6.2-5.2-6.8v-.1c2.3-.7 4-2.6 4-6.2 0-4.6-2.6-6.7-7.7-6.7H211v27.5h10.1c6 0 8.2-2.8 8.2-7.7M680.6 107.2V101h10.1v-4.9h-10.1v-5.5h12l-.1-5.5h-18.1v27.5h18.7l.1-5.4h-12.6zm-23.1-.1V85.2h-6.2v27.5h17.4l.1-5.6h-11.3zm-24.2 0V85.2H627v27.5h17.4l.1-5.6h-11.2zm-28.1.1V101h10.1v-4.9h-10.1v-5.5h12l-.1-5.5H599v27.5h18.7l.1-5.4h-12.6zm-14.7-16.5-.1-5.6h-20.7l-.1 5.6h7.4v21.9h6.2V90.7h7.3zm-26.1 13.7c0-9.3-12.6-7.3-12.6-11.6 0-1.5.9-2.6 4.3-2.6 2.1 0 4.4.4 6.6 1.2l.8-5.2c-2.1-.9-5-1.4-7.7-1.4-7 0-10 3.8-10 8.4 0 9.2 12.6 7.4 12.6 11.7 0 1.9-1.3 3-4.3 3-2.7 0-5.2-.7-7.6-2l-.8 5.3c2.4 1.3 5.3 2.1 8.5 2.1 6.4-.2 10.2-3.5 10.2-8.9m-25.6 0c0-9.3-12.6-7.3-12.6-11.6 0-1.5.9-2.6 4.3-2.6 2.1 0 4.4.4 6.6 1.2l.8-5.2c-2.1-.9-5-1.4-7.7-1.4-7 0-10 3.8-10 8.4 0 9.2 12.6 7.4 12.6 11.7 0 1.9-1.3 3-4.3 3-2.7 0-5.2-.7-7.6-2l-.8 5.3c2.4 1.3 5.3 2.1 8.5 2.1 6.4-.2 10.2-3.5 10.2-8.9m-29.1 8.2V85.2h-5.5v13.7l.1 2.9h-.1l-1.6-2.5-9.8-14.2h-5.3v27.5h5.5V95.2h.1l1.6 2.5 10.7 15h4.3zm-36.2-13.7c0 6.9-1.5 8.7-5.6 8.7-4.2 0-5.7-1.8-5.7-8.7s1.5-8.6 5.6-8.6c4.3-.1 5.7 1.6 5.7 8.6m6.5 0c0-9.8-3.5-14.2-12.1-14.2s-12.1 4.4-12.1 14.2 3.7 14.2 12.1 14.2c8.6 0 12.1-4.2 12.1-14.2m-39.5 13.7h6.3V85.2h-6.3v27.4zm-7.8-21.9-.1-5.6h-20.7l-.1 5.6h7.4v21.9h6.2V90.7h7.3zm-37-.9h.1l.7 2.9 2.6 9.4h-7l2.7-9.4.9-2.9zm6.5 22.8h6.9l-9.6-27.5h-7.4l-9.5 27.5h6.5l1.5-5.3h10l1.6 5.3zm-55.3-27.4v27.5h5.5v-17h.1l1 2.8 5.6 14.2h4.1l5.6-14.2 1-2.8h.1l-.1 3v14h5.6V85.2h-6.8l-6.4 16-1 2.7h-.1l-1-2.7-6.4-16h-6.8zm-16.5 8.7c0 3-1.1 3.8-3.8 3.8h-3.8v-7.5h3.9c2.7.1 3.7 1 3.7 3.7m6.5-.2c0-5.9-3.4-8.5-10.2-8.5h-10.1v27.5h6.2v-10.3h3.9l4.8 10.3h7.2l-6.4-11.5c2.9-1 4.6-3.7 4.6-7.5m-34.4 5.2c0 6.9-1.5 8.7-5.6 8.7-4.2 0-5.7-1.8-5.7-8.7s1.5-8.6 5.6-8.6c4.3-.1 5.7 1.6 5.7 8.6m6.5 0c0-9.8-3.5-14.2-12.1-14.2s-12.1 4.4-12.1 14.2 3.7 14.2 12.1 14.2c8.6 0 12.1-4.2 12.1-14.2m-30.7-8.2-.1-5.6h-18.1v27.5h6.2v-10.7h10l.1-5.3h-10v-5.9h11.9zm-27.9 21.9V85.2H245v13.7l.1 2.9h-.1l-1.6-2.5-9.8-14.2h-5.3v27.5h5.5V95.2h.1l1.6 2.5 10.7 15h4.2zm-39.4 0h6.3V85.2H211v27.4zM435.5 39.7h.1l.7 2.9 2.6 9.4h-7l2.7-9.4.9-2.9zm6.4 22.8h6.9L439.2 35h-7.4l-9.5 27.5h6.5l1.5-5.3h10l1.6 5.3zm-22.1-21.9-.1-5.6H399l-.1 5.6h7.4v21.9h6.2V40.6h7.3zm-37-.9h.1l.7 2.9 2.6 9.4h-7l2.7-9.4.9-2.9zm6.5 22.8h6.9L386.6 35h-7.4l-10.5 27.5h7.5l1.5-5.3h10l1.6 5.3zM358 48.6c0 7-1.7 8.4-5.9 8.4H348V40.6h4c4.4 0 6 1.5 6 8m6.5.1c0-9.5-3.6-13.6-12.3-13.6h-10.3v27.5h10.4c8.1-.1 12.2-4 12.2-13.9m-48 13.8V35.1H311v13.7l.1 2.9h-.1l-1.6-2.5-9.8-14.2h-5.3v27.5h5.5V45.1h.1l1.6 2.5 10.7 15h4.3zm-43.1-5.4v-6.3h10.1V46h-10.1v-5.5h12l-.1-5.5h-18.1v27.5h18.7l.1-5.4h-12.6zm-19.6-12.7c0 3.4-1.3 4.2-4.4 4.2h-3.7v-8.4h3.7c3.2 0 4.4.9 4.4 4.2m6.3.1c0-6.4-3.1-9.4-10.7-9.4h-9.9v27.5h6.2v-8.9h3.7c7.6-.1 10.7-3.5 10.7-9.2m-34.6 4.3c0 6.9-1.5 8.7-5.6 8.7-4.2 0-5.7-1.8-5.7-8.7s1.5-8.6 5.6-8.6c4.3-.1 5.7 1.6 5.7 8.6m6.4 0c0-9.8-3.5-14.2-12.1-14.2s-12.1 4.4-12.1 14.2S211.4 63 219.9 63c8.6 0 12-4.3 12-14.2M95.4 179.7c-38.9 0-70.6-31.7-70.6-70.6 0-38.9 31.7-70.6 70.6-70.6 38.9 0 70.6 31.7 70.6 70.6 0 38.9-31.7 70.6-70.6 70.6m0-138.8c-37.6 0-68.1 30.6-68.1 68.1 0 37.6 30.6 68.1 68.1 68.1s68.1-30.6 68.1-68.1c0-37.5-30.6-68.1-68.1-68.1M165.9 59c-10.7 0-19.4-8.7-19.4-19.4s8.7-19.4 19.4-19.4 19.4 8.7 19.4 19.4c0 10.8-8.7 19.4-19.4 19.4m0-36.2c-9.3 0-16.9 7.6-16.9 16.9s7.6 16.9 16.9 16.9 16.9-7.6 16.9-16.9-7.6-16.9-16.9-16.9"/>
</svg>