<svg width="48" height="49" viewBox="0 0 48 49" fill="none" xmlns="http://www.w3.org/2000/svg">
<path d="M36.9749 7.45361H13.9776C12.87 7.45361 11.9722 8.35149 11.9722 9.45907V42.1511C11.9722 43.2587 12.87 44.1565 13.9776 44.1565H36.9749C38.0825 44.1565 38.9804 43.2587 38.9804 42.1511V9.45907C38.9804 8.35149 38.0825 7.45361 36.9749 7.45361Z" fill="#20378B" stroke="#20378B" stroke-width="0.57" stroke-linecap="round" stroke-linejoin="round"/>
<path d="M35.2214 40.972H8.20312V4.26904H26.0709L35.2214 13.4196V40.972Z" fill="white" stroke="#20378B" stroke-width="0.57" stroke-linecap="round" stroke-linejoin="round"/>
<path d="M26.0708 13.4196H35.2213L26.0708 4.26904V13.4196Z" fill="#D1DBE0" stroke="#20378B" stroke-width="0.57" stroke-linecap="round" stroke-linejoin="round"/>
<path d="M14.6629 36.8903C16.2491 36.8903 17.535 35.6044 17.535 34.0181C17.535 32.4319 16.2491 31.146 14.6629 31.146C13.0767 31.146 11.7908 32.4319 11.7908 34.0181C11.7908 35.6044 13.0767 36.8903 14.6629 36.8903Z" fill="white" stroke="#20378B" stroke-width="0.57" stroke-linecap="round" stroke-linejoin="round"/>
<path d="M18.835 32.698H23.5815" stroke="#20378B" stroke-width="0.57" stroke-linecap="round"/>
<path d="M18.835 34.6531H22.7451" stroke="#20378B" stroke-width="0.57" stroke-linecap="round"/>
<path d="M14.6629 28.2033C16.2491 28.2033 17.535 26.9174 17.535 25.3311C17.535 23.7449 16.2491 22.459 14.6629 22.459C13.0767 22.459 11.7908 23.7449 11.7908 25.3311C11.7908 26.9174 13.0767 28.2033 14.6629 28.2033Z" fill="#BEE4F8" stroke="#20378B" stroke-width="0.57" stroke-linecap="round" stroke-linejoin="round"/>
<path d="M13.3328 25.452L14.3708 26.621L15.6909 24.1318" stroke="#20378B" stroke-width="0.57" stroke-linecap="round" stroke-linejoin="round"/>
<path d="M18.835 24.011H30.0413" stroke="#20378B" stroke-width="0.57" stroke-linecap="round"/>
<path d="M18.835 25.9661H26.9072" stroke="#20378B" stroke-width="0.57" stroke-linecap="round"/>
<path d="M14.6629 19.5163C16.2491 19.5163 17.535 18.2304 17.535 16.6441C17.535 15.0579 16.2491 13.772 14.6629 13.772C13.0767 13.772 11.7908 15.0579 11.7908 16.6441C11.7908 18.2304 13.0767 19.5163 14.6629 19.5163Z" fill="#BEE4F8" stroke="#20378B" stroke-width="0.57" stroke-linecap="round" stroke-linejoin="round"/>
<path d="M13.3328 16.7751L14.3708 17.934L15.6909 15.4448" stroke="#20378B" stroke-width="0.57" stroke-linecap="round" stroke-linejoin="round"/>
<path d="M18.835 15.324H23.1583" stroke="#20378B" stroke-width="0.57" stroke-linecap="round"/>
<path d="M18.835 17.2791H29.9204" stroke="#20378B" stroke-width="0.57" stroke-linecap="round"/>
<mask id="mask0_110_2017" style="mask-type:luminance" maskUnits="userSpaceOnUse" x="24" y="19" width="18" height="18">
<path d="M37.3881 20.2722L25.9903 31.6701C25.7585 31.9018 25.5972 32.1941 25.5166 32.5166L24.4988 36.6484L28.6306 35.6306C28.9531 35.55 29.2454 35.3887 29.4772 35.1569L40.875 23.7591C41.5502 23.0839 41.5502 21.9955 40.875 21.3203L39.837 20.2823C39.1618 19.6071 38.0734 19.6071 37.3982 20.2823L37.3881 20.2722Z" fill="white"/>
</mask>
<g mask="url(#mask0_110_2017)">
<path d="M23.6441 33.1835L20.637 36.1907L24.8413 40.395L27.8485 37.3878L23.6441 33.1835Z" fill="white"/>
<path d="M35.3774 21.4143L25.793 30.9988L30.6814 35.8872L40.2659 26.3027L35.3774 21.4143Z" fill="white"/>
</g>
<path d="M37.3881 20.2722L25.9903 31.6701C25.7585 31.9018 25.5972 32.1941 25.5166 32.5166L24.4988 36.6484L28.6306 35.6306C28.9531 35.55 29.2454 35.3887 29.4772 35.1569L40.875 23.7591C41.5502 23.0839 41.5502 21.9955 40.875 21.3203L39.837 20.2823C39.1618 19.6071 38.0734 19.6071 37.3982 20.2823L37.3881 20.2722Z" fill="white"/>
<mask id="mask1_110_2017" style="mask-type:luminance" maskUnits="userSpaceOnUse" x="24" y="19" width="18" height="18">
<path d="M37.3881 20.2722L25.9903 31.6701C25.7585 31.9018 25.5972 32.1941 25.5166 32.5166L24.4988 36.6484L28.6306 35.6306C28.9531 35.55 29.2454 35.3887 29.4772 35.1569L40.875 23.7591C41.5502 23.0839 41.5502 21.9955 40.875 21.3203L39.837 20.2823C39.1618 19.6071 38.0734 19.6071 37.3982 20.2823L37.3881 20.2722Z" fill="white"/>
</mask>
<g mask="url(#mask1_110_2017)">
<path d="M23.6441 33.1835L20.637 36.1907L24.8413 40.395L27.8485 37.3878L23.6441 33.1835Z" fill="#20378B"/>
<path d="M35.3774 21.4143L25.793 30.9988L30.6814 35.8872L40.2659 26.3027L35.3774 21.4143Z" fill="white"/>
</g>
<path d="M37.3881 20.2722L25.9903 31.6701C25.7585 31.9018 25.5972 32.1941 25.5166 32.5166L24.4988 36.6484L28.6306 35.6306C28.9531 35.55 29.2454 35.3887 29.4772 35.1569L40.875 23.7591C41.5502 23.0839 41.5502 21.9955 40.875 21.3203L39.837 20.2823C39.1618 19.6071 38.0734 19.6071 37.3982 20.2823L37.3881 20.2722Z" stroke="#20378B" stroke-width="0.57" stroke-linecap="round" stroke-linejoin="round"/>
<mask id="mask2_110_2017" style="mask-type:luminance" maskUnits="userSpaceOnUse" x="24" y="19" width="18" height="18">
<path d="M37.3881 20.2722L25.9903 31.6701C25.7585 31.9018 25.5972 32.1941 25.5166 32.5166L24.4988 36.6484L28.6306 35.6306C28.9531 35.55 29.2454 35.3887 29.4772 35.1569L40.875 23.7591C41.5502 23.0839 41.5502 21.9955 40.875 21.3203L39.837 20.2823C39.1618 19.6071 38.0734 19.6071 37.3982 20.2823L37.3881 20.2722Z" fill="white"/>
</mask>
<g mask="url(#mask2_110_2017)">
<path d="M23.6441 33.1835L20.637 36.1907L24.8413 40.395L27.8485 37.3878L23.6441 33.1835Z" stroke="#20378B" stroke-width="0.57" stroke-linecap="round" stroke-linejoin="round"/>
<path d="M35.3774 21.4143L25.793 30.9988L30.6814 35.8872L40.2659 26.3027L35.3774 21.4143Z" stroke="#20378B" stroke-width="0.57" stroke-linecap="round" stroke-linejoin="round"/>
</g>
</svg>
