<svg width="48" height="49" viewBox="0 0 48 49" fill="none" xmlns="http://www.w3.org/2000/svg">
<path d="M8.59619 13.2183H19.5708" stroke="#20378B" stroke-width="0.57" stroke-linecap="round"/>
<path d="M8.59619 15.3245H14.0785" stroke="#20378B" stroke-width="0.57" stroke-linecap="round"/>
<path d="M8.59619 17.4307H17.3436" stroke="#20378B" stroke-width="0.57" stroke-linecap="round"/>
<path d="M8.59619 19.5369H16.225" stroke="#20378B" stroke-width="0.57" stroke-linecap="round"/>
<path d="M8.59619 6.89941H14.0785" stroke="#20378B" stroke-width="0.57" stroke-linecap="round"/>
<path d="M8.59619 9.00562H17.3436" stroke="#20378B" stroke-width="0.57" stroke-linecap="round"/>
<path d="M8.59619 11.1118H16.225" stroke="#20378B" stroke-width="0.57" stroke-linecap="round"/>
<path d="M26.9075 6.89941H35.3324" stroke="#20378B" stroke-width="0.57" stroke-linecap="round"/>
<path d="M26.9075 9.00562H38.5875" stroke="#20378B" stroke-width="0.57" stroke-linecap="round"/>
<path d="M26.9075 11.1118H38.5875" stroke="#20378B" stroke-width="0.57" stroke-linecap="round"/>
<path d="M26.9075 13.2183H36.7836" stroke="#20378B" stroke-width="0.57" stroke-linecap="round"/>
<path d="M8.59619 36.4673H16.225" stroke="#20378B" stroke-width="0.57" stroke-linecap="round"/>
<path d="M8.59619 38.5735H19.5708" stroke="#20378B" stroke-width="0.57" stroke-linecap="round"/>
<path d="M8.59619 40.6799H17.3436" stroke="#20378B" stroke-width="0.57" stroke-linecap="round"/>
<path d="M8.59619 42.7861H16.225" stroke="#20378B" stroke-width="0.57" stroke-linecap="round"/>
<path d="M8.59619 25.916H19.5708" stroke="#20378B" stroke-width="0.57" stroke-linecap="round"/>
<path d="M8.59619 28.0222H14.0785" stroke="#20378B" stroke-width="0.57" stroke-linecap="round"/>
<path d="M8.59619 30.1284H17.3436" stroke="#20378B" stroke-width="0.57" stroke-linecap="round"/>
<path d="M8.59619 32.2346H16.225" stroke="#20378B" stroke-width="0.57" stroke-linecap="round"/>
<path d="M7.4776 25.916L4.35352 23.9912V27.8409L7.4776 25.916Z" fill="#20378B"/>
<path d="M7.4776 6.89945L4.35352 4.97461V8.82428L7.4776 6.89945Z" fill="#20378B"/>
<path d="M7.4776 36.4673L4.35352 34.5425V38.3922L7.4776 36.4673Z" fill="#20378B"/>
<path d="M25.3152 6.89945L22.2012 4.97461V8.82428L25.3152 6.89945Z" fill="#20378B"/>
<path d="M36.0787 29.5163L28.9812 36.6138L30.9979 38.6304L38.0954 31.5329L36.0787 29.5163Z" fill="#D1DBE0" stroke="#20378B" stroke-width="0.57" stroke-linecap="round" stroke-linejoin="round"/>
<path d="M32.471 37.1648L36.6397 32.996L43.7443 40.1007C44.8987 41.2551 44.8987 43.1221 43.7443 44.2765C42.5899 45.4309 40.7229 45.4309 39.5685 44.2765L32.4639 37.1719L32.471 37.1648Z" fill="#D1DBE0" stroke="#20378B" stroke-width="0.57" stroke-linecap="round" stroke-linejoin="round"/>
<path d="M25.3353 37.2229C31.6079 37.2229 36.6929 32.138 36.6929 25.8654C36.6929 19.5928 31.6079 14.5078 25.3353 14.5078C19.0627 14.5078 13.9778 19.5928 13.9778 25.8654C13.9778 32.138 19.0627 37.2229 25.3353 37.2229Z" fill="#D1DBE0" stroke="#20378B" stroke-width="0.57" stroke-linecap="round" stroke-linejoin="round"/>
<path d="M25.3354 34.7741C30.2556 34.7741 34.2441 30.7856 34.2441 25.8655C34.2441 20.9453 30.2556 16.9568 25.3354 16.9568C20.4153 16.9568 16.4268 20.9453 16.4268 25.8655C16.4268 30.7856 20.4153 34.7741 25.3354 34.7741Z" fill="white"/>
<mask id="mask0_110_1963" style="mask-type:luminance" maskUnits="userSpaceOnUse" x="16" y="16" width="19" height="19">
<path d="M25.3354 34.7741C30.2556 34.7741 34.2441 30.7856 34.2441 25.8655C34.2441 20.9453 30.2556 16.9568 25.3354 16.9568C20.4153 16.9568 16.4268 20.9453 16.4268 25.8655C16.4268 30.7856 20.4153 34.7741 25.3354 34.7741Z" fill="white"/>
</mask>
<g mask="url(#mask0_110_1963)">
<path d="M30.1426 19.97H26.6658V23.7995H30.1426V19.97Z" fill="#20378B"/>
<path d="M27.0688 29.2917H25.3354V33.1313H27.0688V29.2917Z" fill="#20378B"/>
<path d="M26.6656 19.97H19.9941V23.7995H26.6656V19.97Z" fill="#20378B"/>
<path d="M25.3355 29.2917H21.7781V33.1313H25.3355V29.2917Z" fill="#20378B"/>
<path d="M24.5696 24.626H22.8665V28.4656H24.5696V24.626Z" fill="#20378B"/>
<path d="M22.8664 24.626H14.1492V28.4656H22.8664V24.626Z" fill="#20378B"/>
<path d="M21.778 29.2917H14.1492V33.1313H21.778V29.2917Z" fill="#20378B"/>
<path d="M19.9942 19.97H14.1492V23.7995H19.9942V19.97Z" fill="#20378B"/>
<path d="M19.9942 19.97H14.1492V23.7995H19.9942V19.97Z" fill="#20378B"/>
<path d="M30.1426 19.97H26.6658V23.7995H30.1426V19.97Z" fill="#20378B"/>
<path d="M22.8664 28.4656H14.1492V24.626H22.8664" fill="#20378B"/>
<path d="M24.5696 24.626H22.8665V28.4656H24.5696V24.626Z" fill="#20378B"/>
<path d="M25.3354 29.2917H27.0688V33.1213H25.3354" fill="#20378B"/>
<path d="M25.3355 29.2917H21.7781V33.1313H25.3355V29.2917Z" fill="#20378B"/>
</g>
<path d="M25.3354 34.7741C30.2556 34.7741 34.2441 30.7856 34.2441 25.8655C34.2441 20.9453 30.2556 16.9568 25.3354 16.9568C20.4153 16.9568 16.4268 20.9453 16.4268 25.8655C16.4268 30.7856 20.4153 34.7741 25.3354 34.7741Z" stroke="#20378B" stroke-width="0.57" stroke-linecap="round" stroke-linejoin="round"/>
<path d="M37.5293 27.5381C40.5292 27.5381 42.9612 25.1061 42.9612 22.1062C42.9612 19.1062 40.5292 16.6743 37.5293 16.6743C34.5293 16.6743 32.0974 19.1062 32.0974 22.1062C32.0974 25.1061 34.5293 27.5381 37.5293 27.5381Z" fill="#BEE4F8" stroke="#20378B" stroke-width="0.57" stroke-linecap="round" stroke-linejoin="round"/>
<path d="M34.9998 22.4186L37.1665 24.9279L40.0588 19.7178" stroke="#20378B" stroke-width="0.57" stroke-linecap="round" stroke-linejoin="round"/>
</svg>
