<svg width="400" height="400" viewBox="0 0 400 400" fill="none" xmlns="http://www.w3.org/2000/svg">
<g clip-path="url(#clip0_1512_17531)">
<circle cx="200" cy="200" r="162" fill="#EDF8FE"/>
<path d="M46 200C46 285.052 114.948 354 200 354C285.052 354 354 285.052 354 200C354 126.988 303.19 65.8427 235 49.9951" stroke="#20378B" stroke-dasharray="4 4"/>
<path d="M115.19 338.57L108.65 332.27C105.9 335.12 105.32 339.45 107.22 342.92C109.61 347.29 115.17 348.92 119.54 346.53C123.91 344.14 125.54 338.58 123.15 334.21C120.76 329.84 115.2 328.21 110.83 330.6C110.41 330.83 110.01 331.09 109.63 331.39L115.19 338.57Z" fill="white" stroke="white" stroke-width="3.5" stroke-miterlimit="10" stroke-linejoin="round"/>
<path d="M115.19 338.569L109.78 331.279C109 331.859 108.33 332.549 107.77 333.339C107.21 334.129 106.79 334.999 106.51 335.929L115.2 338.569H115.19Z" fill="white" stroke="white" stroke-width="3.5" stroke-miterlimit="10" stroke-linejoin="round"/>
<path d="M115.19 338.57L106.52 341.26C106.7 341.84 106.93 342.39 107.22 342.92C109.61 347.29 115.17 348.92 119.54 346.53C123.91 344.14 125.54 338.58 123.15 334.21C122.51 333.04 121.62 332.03 120.55 331.24L115.19 338.56V338.57Z" fill="white" stroke="white" stroke-width="3.5" stroke-miterlimit="10" stroke-linejoin="round"/>
<path d="M115.19 338.57L107.21 334.25C106.61 335.36 106.24 336.59 106.14 337.85C106.04 339.11 106.2 340.38 106.62 341.57L115.19 338.57Z" fill="white" stroke="white" stroke-width="3.5" stroke-miterlimit="10" stroke-linejoin="round"/>
<path d="M115.19 341.88C117.018 341.88 118.5 340.398 118.5 338.57C118.5 336.742 117.018 335.26 115.19 335.26C113.362 335.26 111.88 336.742 111.88 338.57C111.88 340.398 113.362 341.88 115.19 341.88Z" fill="white"/>
<path d="M115.19 341.88C117.018 341.88 118.5 340.398 118.5 338.57C118.5 336.742 117.018 335.26 115.19 335.26C113.362 335.26 111.88 336.742 111.88 338.57C111.88 340.398 113.362 341.88 115.19 341.88Z" stroke="white" stroke-width="3.5" stroke-linejoin="round"/>
<path d="M156.01 304.68H137.12V347.88H156.01V304.68Z" fill="white" stroke="white" stroke-width="3.5" stroke-linejoin="round"/>
<path d="M156.01 296.12H137.12V300.05H156.01V296.12Z" fill="white" stroke="white" stroke-width="3.5" stroke-linejoin="round"/>
<path d="M156.01 300.02H137.12V309.93H156.01V300.02Z" fill="white" stroke="white" stroke-width="3.5" stroke-linejoin="round"/>
<path d="M156.01 325.87H137.12V347.88H156.01V325.87Z" fill="white" stroke="white" stroke-width="3.5" stroke-linejoin="round"/>
<path d="M163.14 347.881C170.883 347.881 177.16 341.604 177.16 333.861C177.16 326.118 170.883 319.841 163.14 319.841C155.397 319.841 149.12 326.118 149.12 333.861C149.12 341.604 155.397 347.881 163.14 347.881Z" fill="white" stroke="white" stroke-width="3.5" stroke-miterlimit="10" stroke-linejoin="round"/>
<path d="M163.14 333.861L174.56 325.721C174.4 325.491 174.23 325.271 174.06 325.061C172.14 322.681 169.5 321.001 166.54 320.261L163.15 333.871L163.14 333.861Z" fill="white" stroke="white" stroke-width="3.5" stroke-miterlimit="10" stroke-linejoin="round"/>
<path d="M163.14 333.861L154.85 322.551C154.67 322.681 154.5 322.811 154.33 322.951C148.34 327.781 147.39 336.681 152.22 342.671C155.1 346.241 159.55 348.171 164.12 347.851L163.13 333.861H163.14Z" fill="white" stroke="white" stroke-width="3.5" stroke-miterlimit="10" stroke-linejoin="round"/>
<path d="M163.14 333.861L167.51 320.541C165.34 319.831 163.03 319.661 160.79 320.041C158.54 320.421 156.42 321.351 154.61 322.741L163.14 333.871V333.861Z" fill="white" stroke="white" stroke-width="3.5" stroke-miterlimit="10" stroke-linejoin="round"/>
<path d="M163.14 338.57C165.741 338.57 167.85 336.462 167.85 333.86C167.85 331.259 165.741 329.15 163.14 329.15C160.539 329.15 158.43 331.259 158.43 333.86C158.43 336.462 160.539 338.57 163.14 338.57Z" fill="white" stroke="white" stroke-width="3.5" stroke-linecap="round" stroke-linejoin="round"/>
<path d="M115.19 338.57L108.65 332.27C105.9 335.12 105.32 339.45 107.22 342.92C109.61 347.29 115.17 348.92 119.54 346.53C123.91 344.14 125.54 338.58 123.15 334.21C120.76 329.84 115.2 328.21 110.83 330.6C110.41 330.83 110.01 331.09 109.63 331.39L115.19 338.57Z" fill="#BEE4F8" stroke="#20378B" stroke-width="0.57" stroke-miterlimit="10"/>
<path d="M115.19 338.569L109.78 331.279C109 331.859 108.33 332.549 107.77 333.339C107.21 334.129 106.79 334.999 106.51 335.929L115.2 338.569H115.19Z" fill="white" stroke="#20378B" stroke-width="0.57" stroke-miterlimit="10"/>
<path d="M115.19 338.57L106.52 341.26C106.7 341.84 106.93 342.39 107.22 342.92C109.61 347.29 115.17 348.92 119.54 346.53C123.91 344.14 125.54 338.58 123.15 334.21C122.51 333.04 121.62 332.03 120.55 331.24L115.19 338.56V338.57Z" fill="#20378B" stroke="#20378B" stroke-width="0.57" stroke-miterlimit="10"/>
<path d="M115.19 338.57L107.21 334.25C106.61 335.36 106.24 336.59 106.14 337.85C106.04 339.11 106.2 340.38 106.62 341.57L115.19 338.57Z" fill="#E60032" stroke="#20378B" stroke-width="0.57" stroke-miterlimit="10"/>
<path d="M115.19 341.88C117.018 341.88 118.5 340.398 118.5 338.57C118.5 336.742 117.018 335.26 115.19 335.26C113.362 335.26 111.88 336.742 111.88 338.57C111.88 340.398 113.362 341.88 115.19 341.88Z" fill="white"/>
<path d="M115.19 341.88C117.018 341.88 118.5 340.398 118.5 338.57C118.5 336.742 117.018 335.26 115.19 335.26C113.362 335.26 111.88 336.742 111.88 338.57C111.88 340.398 113.362 341.88 115.19 341.88Z" stroke="#20378B" stroke-width="0.57"/>
<path d="M156.01 304.68H137.12V347.88H156.01V304.68Z" fill="white" stroke="#20378B" stroke-width="0.57"/>
<path d="M156.01 296.12H137.12V300.05H156.01V296.12Z" fill="#E60032" stroke="#20378B" stroke-width="0.57"/>
<path d="M156.01 300.02H137.12V309.93H156.01V300.02Z" fill="#20378B" stroke="#20378B" stroke-width="0.57"/>
<path d="M156.01 325.87H137.12V347.88H156.01V325.87Z" fill="#BEE4F8" stroke="#20378B" stroke-width="0.57"/>
<path d="M163.14 347.881C170.883 347.881 177.16 341.604 177.16 333.861C177.16 326.118 170.883 319.841 163.14 319.841C155.397 319.841 149.12 326.118 149.12 333.861C149.12 341.604 155.397 347.881 163.14 347.881Z" fill="#BEE4F8" stroke="#20378B" stroke-width="0.57" stroke-miterlimit="10"/>
<path d="M163.14 333.861L174.56 325.721C174.4 325.491 174.23 325.271 174.06 325.061C172.14 322.681 169.5 321.001 166.54 320.261L163.15 333.871L163.14 333.861Z" fill="#20378B" stroke="#20378B" stroke-width="0.57" stroke-miterlimit="10"/>
<path d="M163.14 333.861L154.85 322.551C154.67 322.681 154.5 322.811 154.33 322.951C148.34 327.781 147.39 336.681 152.22 342.671C155.1 346.241 159.55 348.171 164.12 347.851L163.13 333.861H163.14Z" fill="white" stroke="#20378B" stroke-width="0.57" stroke-miterlimit="10"/>
<path d="M163.14 333.861L167.51 320.541C165.34 319.831 163.03 319.661 160.79 320.041C158.54 320.421 156.42 321.351 154.61 322.741L163.14 333.871V333.861Z" fill="#E60032" stroke="#20378B" stroke-width="0.57" stroke-miterlimit="10"/>
<path d="M163.14 338.57C165.741 338.57 167.85 336.462 167.85 333.86C167.85 331.259 165.741 329.15 163.14 329.15C160.539 329.15 158.43 331.259 158.43 333.86C158.43 336.462 160.539 338.57 163.14 338.57Z" fill="white" stroke="#20378B" stroke-width="0.57" stroke-linecap="round" stroke-linejoin="round"/>
<path d="M139.82 322.121H120.93V347.881H139.82V322.121Z" fill="white" stroke="#20378B" stroke-width="0.57"/>
<path d="M139.82 317.021H120.93V322.121H139.82V317.021Z" fill="#E60032" stroke="#20378B" stroke-width="0.57"/>
<path d="M139.82 336.801H120.93V347.881H139.82V336.801Z" fill="#BEE4F8" stroke="#20378B" stroke-width="0.57"/>
<path d="M139.82 322.121H120.93V328.551H139.82V322.121Z" fill="#20378B" stroke="#20378B" stroke-width="0.57"/>
<path d="M141.01 361.99L146.54 352.4C147.16 351.33 148.32 350.66 149.56 350.66C150.17 350.66 150.77 350.82 151.3 351.13L151.61 351.31L141.75 369.26L138.28 367.56L136.44 372.37L128.96 369.67L135.48 363.03C135.82 362.68 136.09 362.28 136.27 361.84L140.05 352.76C140.55 351.57 141.7 350.8 142.99 350.8C143.41 350.8 143.82 350.88 144.21 351.05L144.54 351.19L140.18 362.58" fill="white"/>
<path d="M141.01 361.99L146.54 352.4C147.16 351.33 148.32 350.66 149.56 350.66C150.17 350.66 150.77 350.82 151.3 351.13L151.61 351.31L141.75 369.26L138.28 367.56L136.44 372.37L128.96 369.67L135.48 363.03C135.82 362.68 136.09 362.28 136.27 361.84L140.05 352.76C140.55 351.57 141.7 350.8 142.99 350.8C143.41 350.8 143.82 350.88 144.21 351.05L144.54 351.19L140.18 362.58" stroke="#20378B" stroke-width="0.57" stroke-linecap="round" stroke-linejoin="round"/>
<path d="M142.19 362.769H142.91C143.35 362.769 143.75 362.559 144.01 362.209L151.18 352.339C151.78 351.509 152.66 350.879 153.68 350.719C154.7 350.559 155.7 350.789 156.52 351.379L156.82 351.599L143.62 369.769L140.29 367.349L141.73 365.079" fill="white"/>
<path d="M142.19 362.769H142.91C143.35 362.769 143.75 362.559 144.01 362.209L151.18 352.339C151.78 351.509 152.66 350.879 153.68 350.719C154.7 350.559 155.7 350.789 156.52 351.379L156.82 351.599L143.62 369.769L140.29 367.349L141.73 365.079" stroke="#20378B" stroke-width="0.57" stroke-linecap="round" stroke-linejoin="round"/>
<path d="M138.31 362.77H139.94C140.32 362.77 140.68 362.57 140.87 362.23L141.46 361.21" stroke="#20378B" stroke-width="0.57" stroke-linecap="round" stroke-linejoin="round"/>
<path d="M118.75 372.06L120.14 371.39C120.98 370.98 121.43 370.08 121.32 369.15C121.13 367.51 121.47 365.62 122.06 364.31C122.65 363 123.7 361.77 125.21 360.62C126.12 359.93 126.81 359.03 127.2 358.02L129.45 352.21C129.71 351.53 130.25 350.95 130.96 350.75C131.44 350.61 131.94 350.63 132.39 350.8C132.97 351.01 133.43 351.44 133.68 352.01C133.93 352.58 133.94 353.2 133.72 353.77L131.44 359.49C131.09 360.37 131.18 361.38 131.7 362.17C134.62 366.6 142.59 365.53 146.24 361.68L155.49 351.92C156.3 351.07 157.43 350.62 158.6 350.71C159.48 350.78 160.32 351.14 160.96 351.75L161.31 352.08L146.18 368.73C145.37 369.62 144.41 370.35 143.32 370.88L122.91 380.69L118.75 372.06Z" fill="white" stroke="#20378B" stroke-width="0.57" stroke-linecap="round" stroke-linejoin="round"/>
<path d="M119 384.463L124.72 381.704L119.276 370.418L113.557 373.177L119 384.463Z" fill="white" stroke="#20378B" stroke-width="0.57" stroke-linecap="round" stroke-linejoin="round"/>
<path d="M178.2 347.88H105.57C104.808 347.88 104.19 348.498 104.19 349.26C104.19 350.022 104.808 350.64 105.57 350.64H178.2C178.962 350.64 179.58 350.022 179.58 349.26C179.58 348.498 178.962 347.88 178.2 347.88Z" fill="white" stroke="#20378B" stroke-width="0.57" stroke-linecap="round" stroke-linejoin="round"/>
<circle cx="173.5" cy="302.5" r="12" transform="rotate(-90 173.5 302.5)" fill="#E60032" stroke="white"/>
<path d="M177.584 304.725H176.671V306.5H174.771V304.725H170.634L170.459 303.425L174.221 297.125H176.671V303H177.634L177.584 304.725ZM174.846 303L174.921 300.025L174.971 299.012L174.946 299L172.659 303H174.846Z" fill="#EDF8FE"/>
<path d="M245.08 46.8794H245.1L244.08 44.6094L242.59 45.4194C242.59 45.4194 242.57 45.4194 242.56 45.4194H179.57C177.4 45.4194 174.97 47.1494 174.19 49.2694L162.87 79.8194L161.63 80.4894L162.65 82.7494H162.67C163.07 83.6194 163.96 84.1994 165.2 84.1994H228.18C230.35 84.1994 232.78 82.4694 233.56 80.3494L245.08 49.2694C245.42 48.3594 245.38 47.5394 245.08 46.8694V46.8794Z" fill="white" stroke="white" stroke-width="3.5" stroke-linejoin="round"/>
<path d="M232.54 78.0892C231.75 80.2092 229.33 81.9392 227.16 81.9392H164.18C162 81.9392 160.87 80.2092 161.65 78.0892L173.17 47.0092C173.96 44.8892 176.38 43.1592 178.55 43.1592H241.53C243.71 43.1592 244.84 44.8892 244.06 47.0092L232.54 78.0892Z" fill="white" stroke="white" stroke-width="3.5" stroke-linejoin="round"/>
<path d="M232.54 78.0892C231.75 80.2092 229.33 81.9392 227.16 81.9392H164.18C162 81.9392 160.87 80.2092 161.65 78.0892L173.17 47.0092C173.96 44.8892 176.38 43.1592 178.55 43.1592H241.53C243.71 43.1592 244.84 44.8892 244.06 47.0092L232.54 78.0892Z" fill="white" stroke="white" stroke-width="3.5" stroke-linejoin="round"/>
<path d="M226.5 81.9392H164.57L178.95 43.1592H240.87L226.5 81.9392Z" fill="white" stroke="white" stroke-width="3.5" stroke-linejoin="round"/>
<path d="M176.1 76.6288C184.279 76.6288 190.91 69.9981 190.91 61.8188C190.91 53.6395 184.279 47.0088 176.1 47.0088C167.921 47.0088 161.29 53.6395 161.29 61.8188C161.29 69.9981 167.921 76.6288 176.1 76.6288Z" fill="white" stroke="white" stroke-width="3.5" stroke-miterlimit="10" stroke-linejoin="round"/>
<path d="M176.1 61.8187L190.89 62.6987C190.91 62.4087 190.92 62.1087 190.92 61.8187C190.92 58.5987 189.87 55.4587 187.92 52.8887L176.11 61.8187H176.1Z" fill="white" stroke="white" stroke-width="3.5" stroke-miterlimit="10" stroke-linejoin="round"/>
<path d="M176.1 61.819L176.79 47.019C176.56 47.009 176.33 46.999 176.1 46.999C167.97 46.999 161.29 53.689 161.29 61.809C161.29 66.649 163.66 71.199 167.63 73.959L176.1 61.809V61.819Z" fill="white" stroke="white" stroke-width="3.5" stroke-miterlimit="10" stroke-linejoin="round"/>
<path d="M176.1 61.8188L188.54 53.7688C187.23 51.7488 185.45 50.0688 183.34 48.8988C181.24 47.7188 178.88 47.0788 176.47 47.0088L176.1 61.8188Z" fill="white" stroke="white" stroke-width="3.5" stroke-miterlimit="10" stroke-linejoin="round"/>
<path d="M176.1 66.7896C178.845 66.7896 181.07 64.5645 181.07 61.8196C181.07 59.0748 178.845 56.8496 176.1 56.8496C173.355 56.8496 171.13 59.0748 171.13 61.8196C171.13 64.5645 173.355 66.7896 176.1 66.7896Z" fill="white" stroke="white" stroke-width="3.5" stroke-linecap="round" stroke-linejoin="round"/>
<mask id="mask0_1512_17531" style="mask-type:luminance" maskUnits="userSpaceOnUse" x="186" y="30" width="56" height="54">
<path d="M226.02 83.2585L186.08 83.3084L189.27 40.3684L218.33 30.6484L241.93 40.3184L226.02 83.2585Z" fill="white"/>
</mask>
<g mask="url(#mask0_1512_17531)">
<path d="M201.5 62.0791H192.83V76.6691H201.5V62.0791Z" fill="white" stroke="white" stroke-width="3.5" stroke-linejoin="round"/>
<path d="M201.5 67.7598H192.83V76.6698H201.5V67.7598Z" fill="white" stroke="white" stroke-width="3.5" stroke-linejoin="round"/>
<path d="M212.13 52.2598H203.46V76.6698H212.13V52.2598Z" fill="white" stroke="white" stroke-width="3.5" stroke-linejoin="round"/>
<path d="M212.13 65.3496H203.46V76.6696H212.13V65.3496Z" fill="white" stroke="white" stroke-width="3.5" stroke-linejoin="round"/>
<path d="M222.76 43.7188H214.09V76.6688H222.76V43.7188Z" fill="white" stroke="white" stroke-width="3.5" stroke-linejoin="round"/>
<path d="M222.76 37.7891H214.09V43.7191H222.76V37.7891Z" fill="white" stroke="white" stroke-width="3.5" stroke-linejoin="round"/>
<path d="M222.76 60.9189H214.09V76.6689H222.76V60.9189Z" fill="white" stroke="white" stroke-width="3.5" stroke-linejoin="round"/>
<path d="M233.4 52.8496H224.73V76.6696H233.4V52.8496Z" fill="white" stroke="white" stroke-width="3.5" stroke-linejoin="round"/>
<path d="M233.4 48.1289H224.73V52.8489H233.4V48.1289Z" fill="white" stroke="white" stroke-width="3.5" stroke-linejoin="round"/>
<path d="M233.4 64.5293H224.73V76.6693H233.4V64.5293Z" fill="white" stroke="white" stroke-width="3.5" stroke-linejoin="round"/>
</g>
<path d="M234.87 59.3691L227.37 79.6091" stroke="white" stroke-width="3.5" stroke-linejoin="round"/>
<path d="M198.82 9.50847C189.95 8.44847 181.89 14.7785 180.83 23.6485C179.77 32.5185 186.1 40.5785 194.97 41.6385C196.83 41.8585 198.64 41.7385 200.37 41.3585L206.23 46.0685L206.03 38.9085C209.74 36.3685 212.39 32.3085 212.97 27.4885C214.03 18.6185 207.7 10.5585 198.83 9.49847L198.82 9.50847Z" fill="white"/>
<path d="M198.82 9.50847C189.95 8.44847 181.89 14.7785 180.83 23.6485C179.77 32.5185 186.1 40.5785 194.97 41.6385C196.83 41.8585 198.64 41.7385 200.37 41.3585L206.23 46.0685L206.03 38.9085C209.74 36.3685 212.39 32.3085 212.97 27.4885C214.03 18.6185 207.7 10.5585 198.83 9.49847L198.82 9.50847Z" stroke="white" stroke-width="3.5" stroke-linejoin="round"/>
<path d="M196.84 36.6392C196.22 36.6392 195.69 36.4192 195.25 35.9692C194.8 35.5292 194.58 34.9892 194.58 34.3792C194.58 33.7692 194.8 33.2292 195.25 32.7892C195.69 32.3492 196.23 32.1192 196.84 32.1192C197.45 32.1192 197.99 32.3392 198.43 32.7892C198.87 33.2392 199.1 33.7692 199.1 34.3792C199.1 34.9892 198.88 35.5292 198.43 35.9692C197.98 36.4092 197.45 36.6392 196.84 36.6392ZM194.7 14.6592H198.95V18.5792L198.04 29.5392H195.61L194.7 18.5792V14.6592Z" fill="white"/>
<path d="M175.25 22.4387H173.03V21.2387C173.03 20.7187 173.09 20.3287 173.22 20.0687C173.34 19.8087 173.62 19.4787 174.04 19.0587L175.47 17.6287C175.77 17.2987 175.92 16.8987 175.92 16.4087C175.92 15.9187 175.76 15.5187 175.45 15.1987C175.14 14.8787 174.73 14.7187 174.23 14.7187C173.73 14.7187 173.32 14.8687 172.98 15.1787C172.64 15.4887 172.45 15.8987 172.4 16.4087H170.02C170.15 15.2387 170.61 14.3287 171.39 13.6687C172.17 13.0087 173.14 12.6787 174.31 12.6787C175.48 12.6787 176.43 12.9987 177.16 13.6287C177.89 14.2587 178.26 15.1487 178.26 16.2887C178.26 17.0787 178.04 17.7287 177.61 18.2487C177.36 18.5587 177.17 18.7887 177.04 18.9187C176.91 19.0487 176.74 19.2187 176.52 19.4187C176.3 19.6187 176.12 19.7987 175.97 19.9487C175.82 20.0987 175.7 20.2287 175.61 20.3287C175.37 20.6187 175.26 21.0187 175.26 21.5487V22.4287L175.25 22.4387ZM174.18 26.7987C173.77 26.7987 173.41 26.6587 173.11 26.3787C172.81 26.0987 172.66 25.7587 172.66 25.3587C172.66 24.9587 172.81 24.6187 173.1 24.3287C173.4 24.0387 173.75 23.8987 174.16 23.8987C174.57 23.8987 174.93 24.0387 175.23 24.3187C175.53 24.5987 175.68 24.9387 175.68 25.3387C175.68 25.7387 175.53 26.0787 175.24 26.3687C174.95 26.6587 174.59 26.7987 174.18 26.7987Z" fill="white"/>
<path d="M245.08 46.8794H245.1L244.08 44.6094L242.59 45.4194C242.59 45.4194 242.57 45.4194 242.56 45.4194H179.57C177.4 45.4194 174.97 47.1494 174.19 49.2694L162.87 79.8194L161.63 80.4894L162.65 82.7494H162.67C163.07 83.6194 163.96 84.1994 165.2 84.1994H228.18C230.35 84.1994 232.78 82.4694 233.56 80.3494L245.08 49.2694C245.42 48.3594 245.38 47.5394 245.08 46.8694V46.8794Z" fill="#BEE4F8" stroke="#20378B" stroke-width="0.57"/>
<path d="M232.54 78.0892C231.75 80.2092 229.33 81.9392 227.16 81.9392H164.18C162 81.9392 160.87 80.2092 161.65 78.0892L173.17 47.0092C173.96 44.8892 176.38 43.1592 178.55 43.1592H241.53C243.71 43.1592 244.84 44.8892 244.06 47.0092L232.54 78.0892Z" fill="white" stroke="#20378B" stroke-width="0.57"/>
<path d="M232.54 78.0892C231.75 80.2092 229.33 81.9392 227.16 81.9392H164.18C162 81.9392 160.87 80.2092 161.65 78.0892L173.17 47.0092C173.96 44.8892 176.38 43.1592 178.55 43.1592H241.53C243.71 43.1592 244.84 44.8892 244.06 47.0092L232.54 78.0892Z" fill="#BEE4F8" stroke="#20378B" stroke-width="0.57"/>
<path d="M226.5 81.9392H164.57L178.95 43.1592H240.87L226.5 81.9392Z" fill="#20378B" stroke="#20378B" stroke-width="0.57"/>
<path d="M176.1 76.6288C184.279 76.6288 190.91 69.9981 190.91 61.8188C190.91 53.6395 184.279 47.0088 176.1 47.0088C167.921 47.0088 161.29 53.6395 161.29 61.8188C161.29 69.9981 167.921 76.6288 176.1 76.6288Z" fill="#BEE4F8" stroke="#20378B" stroke-width="0.57" stroke-miterlimit="10"/>
<path d="M176.1 61.8187L190.89 62.6987C190.91 62.4087 190.92 62.1087 190.92 61.8187C190.92 58.5987 189.87 55.4587 187.92 52.8887L176.11 61.8187H176.1Z" fill="white" stroke="#20378B" stroke-width="0.57" stroke-miterlimit="10"/>
<path d="M176.1 61.819L176.79 47.019C176.56 47.009 176.33 46.999 176.1 46.999C167.97 46.999 161.29 53.689 161.29 61.809C161.29 66.649 163.66 71.199 167.63 73.959L176.1 61.809V61.819Z" fill="white" stroke="#20378B" stroke-width="0.57" stroke-miterlimit="10"/>
<path d="M176.1 61.8188L188.54 53.7688C187.23 51.7488 185.45 50.0688 183.34 48.8988C181.24 47.7188 178.88 47.0788 176.47 47.0088L176.1 61.8188Z" fill="#E60032" stroke="#20378B" stroke-width="0.57" stroke-miterlimit="10"/>
<path d="M176.1 66.7896C178.845 66.7896 181.07 64.5645 181.07 61.8196C181.07 59.0748 178.845 56.8496 176.1 56.8496C173.355 56.8496 171.13 59.0748 171.13 61.8196C171.13 64.5645 173.355 66.7896 176.1 66.7896Z" fill="#20378B" stroke="#20378B" stroke-width="0.57" stroke-linecap="round" stroke-linejoin="round"/>
<mask id="mask1_1512_17531" style="mask-type:luminance" maskUnits="userSpaceOnUse" x="186" y="30" width="56" height="54">
<path d="M226.02 83.2594L186.08 83.3094L189.27 40.3694L218.33 30.6494L241.93 40.3194L226.02 83.2594Z" fill="white"/>
</mask>
<g mask="url(#mask1_1512_17531)">
<path d="M201.5 62.0791H192.83V76.6691H201.5V62.0791Z" fill="white" stroke="#20378B" stroke-width="0.57" stroke-linejoin="round"/>
<path d="M201.5 67.7598H192.83V76.6698H201.5V67.7598Z" fill="#BEE4F8" stroke="#20378B" stroke-width="0.57" stroke-linejoin="round"/>
<path d="M212.13 52.2588H203.46V76.6688H212.13V52.2588Z" fill="white" stroke="#20378B" stroke-width="0.57" stroke-linejoin="round"/>
<path d="M212.13 65.3486H203.46V76.6686H212.13V65.3486Z" fill="#BEE4F8" stroke="#20378B" stroke-width="0.57" stroke-linejoin="round"/>
<path d="M222.76 43.7188H214.09V76.6688H222.76V43.7188Z" fill="white" stroke="#20378B" stroke-width="0.57" stroke-linejoin="round"/>
<path d="M222.76 37.7881H214.09V43.7181H222.76V37.7881Z" fill="#E60032" stroke="#20378B" stroke-width="0.57" stroke-linejoin="round"/>
<path d="M222.76 60.918H214.09V76.668H222.76V60.918Z" fill="#BEE4F8" stroke="#20378B" stroke-width="0.57" stroke-linejoin="round"/>
<path d="M233.4 52.8477H224.73V76.6677H233.4V52.8477Z" fill="white" stroke="#20378B" stroke-width="0.57" stroke-linejoin="round"/>
<path d="M233.4 48.1279H224.73V52.8479H233.4V48.1279Z" fill="#E60032" stroke="#20378B" stroke-width="0.57" stroke-linejoin="round"/>
<path d="M233.4 64.5273H224.73V76.6673H233.4V64.5273Z" fill="#BEE4F8" stroke="#20378B" stroke-width="0.57" stroke-linejoin="round"/>
</g>
<path d="M234.87 59.3691L227.37 79.6091" stroke="#20378B" stroke-width="0.57"/>
<path d="M174.13 6.4193C166.93 6.5793 161.22 12.5393 161.38 19.7493C161.46 23.6193 163.23 27.0393 165.96 29.3693L165.14 35.8793L171 32.0393C172.18 32.3593 173.42 32.5293 174.71 32.4993C181.91 32.3393 187.62 26.3793 187.46 19.1693C187.3 11.9693 181.34 6.2593 174.13 6.4193Z" fill="#BEE4F8"/>
<path d="M174.13 6.4193C166.93 6.5793 161.22 12.5393 161.38 19.7493C161.46 23.6193 163.23 27.0393 165.96 29.3693L165.14 35.8793L171 32.0393C172.18 32.3593 173.42 32.5293 174.71 32.4993C181.91 32.3393 187.62 26.3793 187.46 19.1693C187.3 11.9693 181.34 6.2593 174.13 6.4193Z" stroke="#20378B" stroke-width="0.57"/>
<path d="M198.82 9.50847C189.95 8.44847 181.89 14.7785 180.83 23.6485C179.77 32.5185 186.1 40.5785 194.97 41.6385C196.83 41.8585 198.64 41.7385 200.37 41.3585L206.23 46.0685L206.03 38.9085C209.74 36.3685 212.39 32.3085 212.97 27.4885C214.03 18.6185 207.7 10.5585 198.83 9.49847L198.82 9.50847Z" fill="white"/>
<path d="M198.82 9.50847C189.95 8.44847 181.89 14.7785 180.83 23.6485C179.77 32.5185 186.1 40.5785 194.97 41.6385C196.83 41.8585 198.64 41.7385 200.37 41.3585L206.23 46.0685L206.03 38.9085C209.74 36.3685 212.39 32.3085 212.97 27.4885C214.03 18.6185 207.7 10.5585 198.83 9.49847L198.82 9.50847Z" stroke="#20378B" stroke-width="0.57"/>
<path d="M196.84 36.6392C196.22 36.6392 195.69 36.4192 195.25 35.9692C194.8 35.5292 194.58 34.9892 194.58 34.3792C194.58 33.7692 194.8 33.2292 195.25 32.7892C195.69 32.3492 196.23 32.1192 196.84 32.1192C197.45 32.1192 197.99 32.3392 198.43 32.7892C198.87 33.2392 199.1 33.7692 199.1 34.3792C199.1 34.9892 198.88 35.5292 198.43 35.9692C197.98 36.4092 197.45 36.6392 196.84 36.6392ZM194.7 14.6592H198.95V18.5792L198.04 29.5392H195.61L194.7 18.5792V14.6592Z" fill="#20378B"/>
<path d="M175.25 22.4397H173.03V21.2397C173.03 20.7197 173.09 20.3297 173.22 20.0697C173.34 19.8097 173.62 19.4797 174.04 19.0597L175.47 17.6297C175.77 17.2997 175.92 16.8997 175.92 16.4097C175.92 15.9197 175.76 15.5197 175.45 15.1997C175.14 14.8797 174.73 14.7197 174.23 14.7197C173.73 14.7197 173.32 14.8697 172.98 15.1797C172.64 15.4897 172.45 15.8997 172.4 16.4097H170.02C170.15 15.2397 170.61 14.3297 171.39 13.6697C172.17 13.0097 173.14 12.6797 174.31 12.6797C175.48 12.6797 176.43 12.9997 177.16 13.6297C177.89 14.2597 178.26 15.1497 178.26 16.2897C178.26 17.0797 178.04 17.7297 177.61 18.2497C177.36 18.5597 177.17 18.7897 177.04 18.9197C176.91 19.0497 176.74 19.2197 176.52 19.4197C176.3 19.6197 176.12 19.7997 175.97 19.9497C175.82 20.0997 175.7 20.2297 175.61 20.3297C175.37 20.6197 175.26 21.0197 175.26 21.5497V22.4297L175.25 22.4397ZM174.18 26.7997C173.77 26.7997 173.41 26.6597 173.11 26.3797C172.81 26.0997 172.66 25.7597 172.66 25.3597C172.66 24.9597 172.81 24.6197 173.1 24.3297C173.4 24.0397 173.75 23.8997 174.16 23.8997C174.57 23.8997 174.93 24.0397 175.23 24.3197C175.53 24.5997 175.68 24.9397 175.68 25.3397C175.68 25.7397 175.53 26.0797 175.24 26.3697C174.95 26.6597 174.59 26.7997 174.18 26.7997Z" fill="#20378B"/>
<circle cx="233.5" cy="91.5" r="12" transform="rotate(-90 233.5 91.5)" fill="#E60032" stroke="white"/>
<path d="M232.034 95.5V94.025H233.421V88.6125L231.709 89.6L231.496 87.9L234.284 86.125H235.521V94.025H236.884V95.5H232.034Z" fill="#EDF8FE"/>
<path d="M329.625 184.767L299.709 154.851C298.312 153.453 297.543 151.538 297.603 149.562L297.993 135.332C298.052 133.316 299.669 131.69 301.695 131.63L315.924 131.241C317.9 131.191 319.816 131.949 321.213 133.346L351.13 163.263C352.617 164.75 352.617 167.154 351.13 168.641L335.004 184.767C333.517 186.254 331.112 186.254 329.625 184.767ZM310.486 144.123C311.604 143.006 311.604 141.189 310.486 140.072C309.368 138.954 307.552 138.954 306.435 140.072C305.317 141.189 305.317 143.006 306.435 144.123C307.552 145.241 309.368 145.241 310.486 144.123Z" fill="#1E3791" stroke="white"/>
<path d="M367.785 133.985L342.468 159.301C342.059 159.71 341.77 160.219 341.64 160.778L339.864 167.992L347.078 166.216C347.637 166.077 348.146 165.787 348.555 165.388L373.872 140.072C374.57 139.373 374.57 138.246 373.872 137.547L370.319 133.995C369.621 133.296 368.493 133.296 367.795 133.995H367.785V133.985Z" fill="#E1E1E1"/>
<mask id="mask2_1512_17531" style="mask-type:luminance" maskUnits="userSpaceOnUse" x="339" y="133" width="36" height="35">
<path d="M367.785 133.985L342.468 159.301C342.059 159.71 341.77 160.219 341.64 160.778L339.864 167.992L347.078 166.216C347.637 166.077 348.146 165.787 348.555 165.388L373.872 140.072C374.57 139.373 374.57 138.246 373.872 137.547L370.319 133.995C369.621 133.296 368.493 133.296 367.795 133.995H367.785V133.985Z" fill="white"/>
</mask>
<g mask="url(#mask2_1512_17531)">
<path d="M338.382 161.944L333.125 167.201L340.477 174.554L345.734 169.297L338.382 161.944Z" fill="#1E3791" stroke="#1E3791" stroke-width="0.987904" stroke-linecap="round" stroke-linejoin="round"/>
<path d="M363.391 136.828L342.11 158.109L350.683 166.683L371.964 145.401L363.391 136.828Z" fill="#B6E6FA" stroke="#1E3791" stroke-width="0.568793" stroke-linecap="round" stroke-linejoin="round"/>
<path d="M365.665 139.105L344.384 160.386L347.672 163.674L368.953 142.393L365.665 139.105Z" stroke="#1E3791" stroke-width="0.568793" stroke-linecap="round" stroke-linejoin="round"/>
<path d="M369.549 131.109L363.607 137.05L371.524 144.967L377.466 139.026L369.549 131.109Z" fill="#E60032" stroke="#1E3791" stroke-width="0.708497" stroke-linecap="round" stroke-linejoin="round"/>
<path d="M365.249 135.518L363.661 137.105L371.684 145.128L373.272 143.541L365.249 135.518Z" fill="white" stroke="#1E3791" stroke-width="0.568793" stroke-linecap="round" stroke-linejoin="round"/>
</g>
<path d="M367.785 133.985L342.468 159.301C342.059 159.71 341.77 160.219 341.64 160.778L339.864 167.992L347.078 166.216C347.637 166.077 348.146 165.787 348.555 165.388L373.872 140.072C374.57 139.373 374.57 138.246 373.872 137.547L370.319 133.995C369.621 133.296 368.493 133.296 367.795 133.995H367.785V133.985Z" stroke="#1E3791" stroke-width="0.568793" stroke-linecap="round" stroke-linejoin="round"/>
<path d="M333.348 174.628L303.431 144.712C302.034 143.315 301.266 141.399 301.326 139.423L301.715 125.193C301.775 123.178 303.391 121.551 305.417 121.491L319.647 121.102C321.622 121.052 323.538 121.81 324.935 123.207L354.852 153.124C356.339 154.611 356.339 157.016 354.852 158.503L338.726 174.628C337.239 176.115 334.834 176.115 333.348 174.628ZM314.208 133.985C315.326 132.867 315.326 131.051 314.208 129.933C313.091 128.816 311.274 128.816 310.157 129.933C309.039 131.051 309.039 132.867 310.157 133.985C311.274 135.102 313.091 135.102 314.208 133.985Z" fill="#E60032" stroke="#1E3791" stroke-width="0.568793" stroke-linecap="round" stroke-linejoin="round"/>
<path d="M344.344 177.083L314.428 147.167C313.031 145.77 312.262 143.854 312.322 141.878L312.711 127.648C312.771 125.633 314.388 124.006 316.413 123.946L330.643 123.557C332.619 123.507 334.535 124.265 335.932 125.663L365.849 155.579C367.335 157.066 367.335 159.471 365.849 160.958L349.723 177.083C348.236 178.57 345.831 178.57 344.344 177.083ZM325.205 136.44C326.322 135.322 326.322 133.506 325.205 132.388C324.087 131.271 322.271 131.271 321.153 132.388C320.036 133.506 320.036 135.322 321.153 136.44C322.271 137.557 324.087 137.557 325.205 136.44Z" fill="white" stroke="#1E3791" stroke-width="0.568793" stroke-linecap="round" stroke-linejoin="round"/>
<path d="M367.785 133.985L342.468 159.301C342.059 159.71 341.77 160.219 341.64 160.778L339.864 167.992L347.078 166.216C347.637 166.077 348.146 165.787 348.555 165.388L373.872 140.072C374.57 139.373 374.57 138.246 373.872 137.547L370.319 133.995C369.621 133.296 368.493 133.296 367.795 133.995H367.785V133.985Z" fill="#E1E1E1"/>
<mask id="mask3_1512_17531" style="mask-type:luminance" maskUnits="userSpaceOnUse" x="339" y="133" width="36" height="35">
<path d="M367.785 133.985L342.468 159.301C342.059 159.71 341.77 160.219 341.64 160.778L339.864 167.992L347.078 166.216C347.637 166.077 348.146 165.787 348.555 165.388L373.872 140.072C374.57 139.373 374.57 138.246 373.872 137.547L370.319 133.995C369.621 133.296 368.493 133.296 367.795 133.995H367.785V133.985Z" fill="white"/>
</mask>
<g mask="url(#mask3_1512_17531)">
<path d="M338.382 161.944L333.125 167.201L340.477 174.554L345.734 169.297L338.382 161.944Z" fill="#1E3791" stroke="#1E3791" stroke-width="0.987904" stroke-linecap="round" stroke-linejoin="round"/>
<path d="M363.391 136.828L342.11 158.109L350.683 166.683L371.964 145.401L363.391 136.828Z" fill="#B6E6FA" stroke="#1E3791" stroke-width="0.568793" stroke-linecap="round" stroke-linejoin="round"/>
<path d="M365.665 139.105L344.384 160.386L347.672 163.674L368.953 142.393L365.665 139.105Z" stroke="#1E3791" stroke-width="0.568793" stroke-linecap="round" stroke-linejoin="round"/>
<path d="M369.549 131.109L363.607 137.05L371.524 144.967L377.466 139.026L369.549 131.109Z" fill="#E60032" stroke="#1E3791" stroke-width="0.708497" stroke-linecap="round" stroke-linejoin="round"/>
<path d="M365.249 135.518L363.661 137.105L371.684 145.128L373.272 143.541L365.249 135.518Z" fill="white" stroke="#1E3791" stroke-width="0.568793" stroke-linecap="round" stroke-linejoin="round"/>
</g>
<path d="M367.785 133.985L342.468 159.301C342.059 159.71 341.77 160.219 341.64 160.778L339.864 167.992L347.078 166.216C347.637 166.077 348.146 165.787 348.555 165.388L373.872 140.072C374.57 139.373 374.57 138.246 373.872 137.547L370.319 133.995C369.621 133.296 368.493 133.296 367.795 133.995H367.785V133.985Z" stroke="#1E3791" stroke-width="0.568793" stroke-linecap="round" stroke-linejoin="round"/>
<path d="M361.338 109.796H334.405C329.645 109.796 325.754 113.688 325.754 118.448C325.754 123.207 329.605 127.059 334.335 127.099L335.303 132.228L338.447 127.109H361.358C366.118 127.109 370.01 123.217 370.01 118.458C370.01 113.698 366.118 109.806 361.358 109.806H361.338V109.796Z" fill="#B6E6FA"/>
<path d="M361.338 109.796H334.405C329.645 109.796 325.754 113.688 325.754 118.448C325.754 123.207 329.605 127.059 334.335 127.099L335.303 132.228L338.447 127.109H361.358C366.118 127.109 370.01 123.217 370.01 118.458C370.01 113.698 366.118 109.806 361.358 109.806H361.338V109.796Z" stroke="#1E3791" stroke-width="0.568793" stroke-linecap="round" stroke-linejoin="round"/>
<path d="M340.852 116.871L338.197 119.056L339.066 122.379L336.172 120.533L333.278 122.379L334.136 119.056L331.482 116.871L334.914 116.671L336.172 113.468L337.419 116.671L340.852 116.871Z" fill="#E60032" stroke="#1E3791" stroke-width="0.568793" stroke-linecap="round" stroke-linejoin="round"/>
<path d="M352.657 116.871L350.002 119.056L350.87 122.379L347.976 120.533L345.083 122.379L345.941 119.056L343.286 116.871L346.719 116.671L347.976 113.468L349.224 116.671L352.657 116.871Z" fill="#E60032" stroke="#1E3791" stroke-width="0.568793" stroke-linecap="round" stroke-linejoin="round"/>
<path d="M364.462 116.871L361.807 119.056L362.675 122.379L359.782 120.533L356.888 122.379L357.746 119.056L355.092 116.871L358.524 116.671L359.782 113.468L361.039 116.671L364.462 116.871Z" stroke="#1E3791" stroke-width="0.568793" stroke-linejoin="round"/>
<path d="M327.809 113.069C331.513 113.069 334.515 110.066 334.515 106.363C334.515 102.66 331.513 99.6572 327.809 99.6572C324.106 99.6572 321.104 102.66 321.104 106.363C321.104 110.066 324.106 113.069 327.809 113.069Z" fill="white" stroke="#1E3791" stroke-width="0.568793" stroke-linecap="round" stroke-linejoin="round"/>
<path d="M324.726 106.862L327.37 109.387L329.985 103.35" fill="white"/>
<path d="M324.726 106.862L327.37 109.387L329.985 103.35" stroke="#1E3791" stroke-width="0.568793" stroke-linecap="round" stroke-linejoin="round"/>
<path d="M323.718 143.714L338.177 158.173" stroke="#1E3791" stroke-width="0.568793" stroke-linecap="round"/>
<path d="M327.54 139.892L338.966 151.317" stroke="#1E3791" stroke-width="0.568793" stroke-linecap="round"/>
<path d="M331.372 136.07L348.535 153.234" stroke="#1E3791" stroke-width="0.568793" stroke-linecap="round"/>
<path d="M361.338 109.796H334.405C329.645 109.796 325.754 113.688 325.754 118.448C325.754 123.207 329.605 127.059 334.335 127.099L335.303 132.228L338.447 127.109H361.358C366.118 127.109 370.01 123.217 370.01 118.458C370.01 113.698 366.118 109.806 361.358 109.806H361.338V109.796Z" fill="#B6E6FA"/>
<path d="M361.338 109.796H334.405C329.645 109.796 325.754 113.688 325.754 118.448C325.754 123.207 329.605 127.059 334.335 127.099L335.303 132.228L338.447 127.109H361.358C366.118 127.109 370.01 123.217 370.01 118.458C370.01 113.698 366.118 109.806 361.358 109.806H361.338V109.796Z" stroke="#1E3791" stroke-width="0.568793" stroke-linecap="round" stroke-linejoin="round"/>
<path d="M340.852 116.871L338.197 119.056L339.066 122.379L336.172 120.533L333.278 122.379L334.136 119.056L331.482 116.871L334.914 116.671L336.172 113.468L337.419 116.671L340.852 116.871Z" fill="white" stroke="#1E3791" stroke-width="0.568793" stroke-linecap="round" stroke-linejoin="round"/>
<path d="M352.657 116.871L350.002 119.056L350.87 122.379L347.976 120.533L345.083 122.379L345.941 119.056L343.286 116.871L346.719 116.671L347.976 113.468L349.224 116.671L352.657 116.871Z" fill="white" stroke="#1E3791" stroke-width="0.568793" stroke-linecap="round" stroke-linejoin="round"/>
<path d="M364.462 116.871L361.807 119.056L362.675 122.379L359.782 120.533L356.888 122.379L357.746 119.056L355.092 116.871L358.524 116.671L359.782 113.468L361.039 116.671L364.462 116.871Z" stroke="#1E3791" stroke-width="0.568793" stroke-linejoin="round"/>
<path d="M327.809 113.069C331.513 113.069 334.515 110.066 334.515 106.363C334.515 102.66 331.513 99.6572 327.809 99.6572C324.106 99.6572 321.104 102.66 321.104 106.363C321.104 110.066 324.106 113.069 327.809 113.069Z" fill="white" stroke="#1E3791" stroke-width="0.568793" stroke-linecap="round" stroke-linejoin="round"/>
<path d="M324.726 106.862L327.37 109.387L329.985 103.35" fill="white"/>
<path d="M324.726 106.862L327.37 109.387L329.985 103.35" stroke="#1E3791" stroke-width="0.568793" stroke-linecap="round" stroke-linejoin="round"/>
<path d="M323.718 143.714L338.177 158.173" stroke="#1E3791" stroke-width="0.568793" stroke-linecap="round"/>
<path d="M327.54 139.892L338.966 151.317" stroke="#1E3791" stroke-width="0.568793" stroke-linecap="round"/>
<path d="M331.372 136.07L348.535 153.234" stroke="#1E3791" stroke-width="0.568793" stroke-linecap="round"/>
<circle cx="304.5" cy="173.5" r="12" transform="rotate(-90 304.5 173.5)" fill="#E60032" stroke="white"/>
<path d="M308.209 170.762C308.209 172.462 306.721 173.875 304.596 175.65V175.687H308.196L308.159 177.5H301.934V176.15C304.184 173.925 306.084 172.35 306.084 170.962C306.084 170.312 305.659 169.85 304.609 169.85C303.784 169.85 303.034 170.187 302.346 170.675L301.859 169C302.634 168.412 303.709 168.012 304.984 168.012C307.134 168.012 308.209 169.125 308.209 170.762Z" fill="#EDF8FE"/>
<path d="M293.14 267.408H298.51" stroke="white" stroke-width="3.5"/>
<path d="M298.51 261.148L293.14 267.408" stroke="white" stroke-width="3.5"/>
<path d="M298.51 273.668L293.14 267.408" stroke="white" stroke-width="3.5"/>
<path d="M298.51 273.669H293.14" stroke="white" stroke-width="3.5"/>
<path d="M293.14 279.929H298.51" stroke="white" stroke-width="3.5"/>
<path d="M298.51 273.669L293.14 279.929" stroke="white" stroke-width="3.5"/>
<path d="M298.51 286.189L293.14 279.929" stroke="white" stroke-width="3.5"/>
<path d="M298.51 286.189H293.14" stroke="white" stroke-width="3.5"/>
<path d="M293.14 292.449H298.51" stroke="white" stroke-width="3.5"/>
<path d="M298.51 286.189L293.14 292.449" stroke="white" stroke-width="3.5"/>
<path d="M298.51 298.709L293.14 292.449" stroke="white" stroke-width="3.5"/>
<path d="M298.51 298.709H293.14" stroke="white" stroke-width="3.5"/>
<path d="M293.14 304.969H298.51" stroke="white" stroke-width="3.5"/>
<path d="M298.51 298.709L293.14 304.969" stroke="white" stroke-width="3.5"/>
<path d="M298.51 311.229L293.14 304.969" stroke="white" stroke-width="3.5"/>
<path d="M298.51 311.229H293.14" stroke="white" stroke-width="3.5"/>
<path d="M293.14 317.488H298.51" stroke="white" stroke-width="3.5"/>
<path d="M298.51 311.229L293.14 317.489" stroke="white" stroke-width="3.5"/>
<path d="M298.51 323.748L293.14 317.488" stroke="white" stroke-width="3.5"/>
<path d="M293.14 261.318V326.808" stroke="white" stroke-width="3.5"/>
<path d="M298.51 261.318V326.148" stroke="white" stroke-width="3.5"/>
<path d="M272.44 261.32H336.38L331.01 256.72H282.41L275.76 261.32" stroke="white" stroke-width="3.5" stroke-linejoin="round"/>
<path d="M282.41 256.72V261.32" stroke="white" stroke-width="3.5"/>
<path d="M287.78 261.32V256.72" stroke="white" stroke-width="3.5"/>
<path d="M282.41 256.72L287.78 261.32" stroke="white" stroke-width="3.5"/>
<path d="M293.14 256.72L287.78 261.32" stroke="white" stroke-width="3.5"/>
<path d="M293.14 256.72V261.32" stroke="white" stroke-width="3.5"/>
<path d="M298.51 261.32V256.72" stroke="white" stroke-width="3.5"/>
<path d="M303.88 261.32V256.72" stroke="white" stroke-width="3.5"/>
<path d="M293.14 256.72L298.51 261.32" stroke="white" stroke-width="3.5"/>
<path d="M303.88 256.72L298.51 261.32" stroke="white" stroke-width="3.5"/>
<path d="M309.24 261.32V256.72" stroke="white" stroke-width="3.5"/>
<path d="M303.88 256.72L309.24 261.32" stroke="white" stroke-width="3.5"/>
<path d="M314.61 256.72L309.24 261.32" stroke="white" stroke-width="3.5"/>
<path d="M314.61 256.72V261.32" stroke="white" stroke-width="3.5"/>
<path d="M319.98 261.32V256.72" stroke="white" stroke-width="3.5"/>
<path d="M325.34 261.32V256.72" stroke="white" stroke-width="3.5"/>
<path d="M330.71 261.32V256.72" stroke="white" stroke-width="3.5"/>
<path d="M314.61 256.72L319.98 261.32" stroke="white" stroke-width="3.5"/>
<path d="M325.34 256.72L319.98 261.32" stroke="white" stroke-width="3.5"/>
<path d="M275.76 258.55H272.44V263.6H275.76V258.55Z" fill="#D1DBE0" stroke="white" stroke-width="3.5"/>
<path d="M279.08 258.55H275.76V263.6H279.08V258.55Z" fill="#D1DBE0" stroke="white" stroke-width="3.5"/>
<path d="M282.41 258.55H279.09V263.6H282.41V258.55Z" fill="#D1DBE0" stroke="white" stroke-width="3.5"/>
<path d="M325.34 256.72L330.71 261.32" stroke="white" stroke-width="3.5"/>
<path d="M293.14 267.408H298.51" stroke="#20378B" stroke-width="0.57"/>
<path d="M298.51 261.148L293.14 267.408" stroke="#20378B" stroke-width="0.57"/>
<path d="M298.51 273.668L293.14 267.408" stroke="#20378B" stroke-width="0.57"/>
<path d="M298.51 273.669H293.14" stroke="#20378B" stroke-width="0.57"/>
<path d="M293.14 279.929H298.51" stroke="#20378B" stroke-width="0.57"/>
<path d="M298.51 273.669L293.14 279.929" stroke="#20378B" stroke-width="0.57"/>
<path d="M298.51 286.189L293.14 279.929" stroke="#20378B" stroke-width="0.57"/>
<path d="M298.51 286.189H293.14" stroke="#20378B" stroke-width="0.57"/>
<path d="M293.14 292.449H298.51" stroke="#20378B" stroke-width="0.57"/>
<path d="M298.51 286.189L293.14 292.449" stroke="#20378B" stroke-width="0.57"/>
<path d="M298.51 298.709L293.14 292.449" stroke="#20378B" stroke-width="0.57"/>
<path d="M298.51 298.709H293.14" stroke="#20378B" stroke-width="0.57"/>
<path d="M293.14 304.969H298.51" stroke="#20378B" stroke-width="0.57"/>
<path d="M298.51 298.709L293.14 304.969" stroke="#20378B" stroke-width="0.57"/>
<path d="M298.51 311.229L293.14 304.969" stroke="#20378B" stroke-width="0.57"/>
<path d="M298.51 311.229H293.14" stroke="#20378B" stroke-width="0.57"/>
<path d="M293.14 317.488H298.51" stroke="#20378B" stroke-width="0.57"/>
<path d="M298.51 311.229L293.14 317.489" stroke="#20378B" stroke-width="0.57"/>
<path d="M298.51 323.748L293.14 317.488" stroke="#20378B" stroke-width="0.57"/>
<path d="M293.14 261.318V326.808" stroke="#20378B" stroke-width="0.57"/>
<path d="M298.51 261.318V326.148" stroke="#20378B" stroke-width="0.57"/>
<path d="M272.44 261.32H336.38L331.01 256.72H282.41L275.76 261.32" stroke="#20378B" stroke-width="0.57" stroke-linejoin="round"/>
<path d="M282.41 256.72V261.32" stroke="#20378B" stroke-width="0.57"/>
<path d="M287.78 261.32V256.72" stroke="#20378B" stroke-width="0.57"/>
<path d="M282.41 256.72L287.78 261.32" stroke="#20378B" stroke-width="0.57"/>
<path d="M293.14 256.72L287.78 261.32" stroke="#20378B" stroke-width="0.57"/>
<path d="M293.14 256.72V261.32" stroke="#20378B" stroke-width="0.57"/>
<path d="M298.51 261.32V256.72" stroke="#20378B" stroke-width="0.57"/>
<path d="M303.88 261.32V256.72" stroke="#20378B" stroke-width="0.57"/>
<path d="M293.14 256.72L298.51 261.32" stroke="#20378B" stroke-width="0.57"/>
<path d="M303.88 256.72L298.51 261.32" stroke="#20378B" stroke-width="0.57"/>
<path d="M309.24 261.32V256.72" stroke="#20378B" stroke-width="0.57"/>
<path d="M303.88 256.72L309.24 261.32" stroke="#20378B" stroke-width="0.57"/>
<path d="M314.61 256.72L309.24 261.32" stroke="#20378B" stroke-width="0.57"/>
<path d="M314.61 256.72V261.32" stroke="#20378B" stroke-width="0.57"/>
<path d="M319.98 261.32V256.72" stroke="#20378B" stroke-width="0.57"/>
<path d="M325.34 261.32V256.72" stroke="#20378B" stroke-width="0.57"/>
<path d="M330.71 261.32V256.72" stroke="#20378B" stroke-width="0.57"/>
<path d="M314.61 256.72L319.98 261.32" stroke="#20378B" stroke-width="0.57"/>
<path d="M325.34 256.72L319.98 261.32" stroke="#20378B" stroke-width="0.57"/>
<path d="M275.76 258.55H272.44V263.6H275.76V258.55Z" fill="#D1DBE0" stroke="#20378B" stroke-width="0.57"/>
<path d="M279.08 258.55H275.76V263.6H279.08V258.55Z" fill="#D1DBE0" stroke="#20378B" stroke-width="0.57"/>
<path d="M282.41 258.55H279.09V263.6H282.41V258.55Z" fill="#D1DBE0" stroke="#20378B" stroke-width="0.57"/>
<path d="M325.34 256.72L330.71 261.32" stroke="#20378B" stroke-width="0.57"/>
<path d="M331.474 283.121L311.371 281.362L310.563 290.597L330.666 292.356L331.474 283.121Z" fill="white" stroke="white" stroke-width="3.5"/>
<path d="M321.3 263.27V277.16L315.45 291.18" stroke="white" stroke-width="3.5" stroke-linejoin="round"/>
<path d="M322.64 262.76C322.64 262.03 323.24 261.43 323.97 261.43C324.7 261.43 325.3 262.03 325.3 262.76C325.3 263.49 324.7 264.1 323.97 264.1C323.24 264.1 322.64 263.5 322.64 262.76Z" fill="white"/>
<path d="M317.3 262.76C317.3 262.03 317.9 261.43 318.63 261.43C319.36 261.43 319.96 262.03 319.96 262.76C319.96 263.49 319.36 264.1 318.63 264.1C317.9 264.1 317.3 263.5 317.3 262.76Z" fill="white"/>
<path d="M323.84 262.17H317.7V263.37H323.84V262.17Z" fill="white"/>
<path d="M321.3 277.16L324.66 291.83" stroke="white" stroke-width="3.5" stroke-linejoin="round"/>
<path d="M331.474 283.121L311.371 281.362L310.563 290.597L330.666 292.356L331.474 283.121Z" fill="#E60032" stroke="#20378B" stroke-width="0.57"/>
<path d="M321.3 263.27V277.16L315.45 291.18" stroke="#20378B" stroke-width="0.57" stroke-linejoin="round"/>
<path d="M322.64 262.76C322.64 262.03 323.24 261.43 323.97 261.43C324.7 261.43 325.3 262.03 325.3 262.76C325.3 263.49 324.7 264.1 323.97 264.1C323.24 264.1 322.64 263.5 322.64 262.76Z" fill="#20378B"/>
<path d="M317.3 262.76C317.3 262.03 317.9 261.43 318.63 261.43C319.36 261.43 319.96 262.03 319.96 262.76C319.96 263.49 319.36 264.1 318.63 264.1C317.9 264.1 317.3 263.5 317.3 262.76Z" fill="#20378B"/>
<path d="M323.84 262.17H317.7V263.37H323.84V262.17Z" fill="#20378B"/>
<path d="M321.3 277.16L324.66 291.83" stroke="#20378B" stroke-width="0.57" stroke-linejoin="round"/>
<path d="M352.91 308.349H333.13V338.849H352.91V308.349Z" fill="white" stroke="#20378B" stroke-width="0.57"/>
<path d="M352.91 302.309H333.13V308.349H352.91V302.309Z" fill="#E60032" stroke="#20378B" stroke-width="0.57"/>
<path d="M352.91 323.309H333.13V338.849H352.91V323.309Z" fill="#BEE4F8" stroke="#20378B" stroke-width="0.57"/>
<path d="M352.91 332.469H333.13V339.989H352.91V332.469Z" fill="#20378B" stroke="#20378B" stroke-width="0.57"/>
<path d="M290.34 307.59H270.56V338.85H290.34V307.59Z" fill="white" stroke="#20378B" stroke-width="0.57"/>
<path d="M290.34 324.359H270.56V338.859H290.34V324.359Z" fill="#BEE4F8" stroke="#20378B" stroke-width="0.57"/>
<path d="M290.34 336.659H270.56V339.979H290.34V336.659Z" fill="#20378B" stroke="#20378B" stroke-width="0.57"/>
<path d="M330.46 297.969H310.68V338.849H330.46V297.969Z" fill="white" stroke="#20378B" stroke-width="0.57"/>
<path d="M330.46 318.049H310.68V338.849H330.46V318.049Z" fill="#BEE4F8" stroke="#20378B" stroke-width="0.57"/>
<path d="M330.46 329.179H310.68V339.989H330.46V329.179Z" fill="#20378B" stroke="#20378B" stroke-width="0.57"/>
<path d="M306.14 321.59H286.36V342.09H306.14V321.59Z" fill="white" stroke="#20378B" stroke-width="0.57"/>
<path d="M306.14 329.57H286.36V342.09H306.14V329.57Z" fill="#BEE4F8" stroke="#20378B" stroke-width="0.57"/>
<path d="M344.8 303.55C348.511 303.55 351.52 300.542 351.52 296.83C351.52 293.119 348.511 290.11 344.8 290.11C341.089 290.11 338.08 293.119 338.08 296.83C338.08 300.542 341.089 303.55 344.8 303.55Z" fill="white" stroke="#20378B" stroke-width="0.57" stroke-linecap="round" stroke-linejoin="round"/>
<path d="M341.7 297.331L344.35 299.861L346.98 293.811" fill="white"/>
<path d="M341.7 297.331L344.35 299.861L346.98 293.811" stroke="#20378B" stroke-width="0.57" stroke-linecap="round" stroke-linejoin="round"/>
<circle cx="266.5" cy="301.5" r="12" transform="rotate(-90 266.5 301.5)" fill="#E60032" stroke="white"/>
<path d="M270.321 302.687C270.321 304.475 269.184 305.613 266.684 305.613C265.496 305.613 264.534 305.312 263.834 304.912L264.234 303.287C264.959 303.687 265.721 303.9 266.621 303.9C267.771 303.9 268.321 303.412 268.321 302.612C268.321 301.85 267.809 301.375 265.834 301.375V299.912C267.721 299.912 268.196 299.487 268.196 298.75C268.196 298.137 267.709 297.787 266.684 297.787C265.734 297.787 264.971 298.087 264.296 298.6L263.821 296.987C264.546 296.425 265.646 296.012 266.809 296.012C268.896 296.012 270.109 296.987 270.109 298.6C270.109 299.537 269.646 300.2 268.821 300.587V300.612C269.784 300.962 270.321 301.625 270.321 302.687Z" fill="#EDF8FE"/>
<path d="M86.74 198.505H20.63C18.2579 198.505 16.335 200.428 16.335 202.8V245.59C16.335 247.962 18.2579 249.885 20.63 249.885H86.74C89.112 249.885 91.035 247.962 91.035 245.59V202.8C91.035 200.428 89.112 198.505 86.74 198.505Z" fill="#20378B" stroke="white" stroke-width="1.75" stroke-linejoin="round"/>
<path d="M28.15 242.198L24.51 240.148L24.5 244.368L28.15 242.198Z" fill="#D1DBE0"/>
<path d="M30.3901 240.559H41.0001" stroke="#D1DBE0" stroke-width="0.57" stroke-linecap="round"/>
<path d="M30.3901 242.258H35.7001" stroke="#D1DBE0" stroke-width="0.57" stroke-linecap="round"/>
<path d="M30.3901 243.959H38.8501" stroke="#D1DBE0" stroke-width="0.57" stroke-linecap="round"/>
<path d="M30.3901 245.658H37.7701" stroke="#D1DBE0" stroke-width="0.57" stroke-linecap="round"/>
<path d="M49.5401 242.198L45.8901 240.148V244.368L49.5401 242.198Z" fill="#D1DBE0"/>
<path d="M51.7803 240.559H62.3903" stroke="#D1DBE0" stroke-width="0.57" stroke-linecap="round"/>
<path d="M51.7803 242.258H57.0803" stroke="#D1DBE0" stroke-width="0.57" stroke-linecap="round"/>
<path d="M51.7803 243.959H60.2403" stroke="#D1DBE0" stroke-width="0.57" stroke-linecap="round"/>
<path d="M51.7803 245.658H59.1503" stroke="#D1DBE0" stroke-width="0.57" stroke-linecap="round"/>
<path d="M70.9298 242.198L67.2798 240.148V244.368L70.9298 242.198Z" fill="#D1DBE0"/>
<path d="M73.1697 240.559H83.7797" stroke="#D1DBE0" stroke-width="0.57" stroke-linecap="round"/>
<path d="M73.1697 242.258H78.4697" stroke="#D1DBE0" stroke-width="0.57" stroke-linecap="round"/>
<path d="M73.1697 243.959H81.6297" stroke="#D1DBE0" stroke-width="0.57" stroke-linecap="round"/>
<path d="M73.1697 245.658H80.5397" stroke="#D1DBE0" stroke-width="0.57" stroke-linecap="round"/>
<path d="M28.15 229.718L24.51 227.658L24.5 231.878L28.15 229.718Z" fill="#D1DBE0"/>
<path d="M30.3901 228.078H41.0001" stroke="#D1DBE0" stroke-width="0.57" stroke-linecap="round"/>
<path d="M30.3901 229.778H35.7001" stroke="#D1DBE0" stroke-width="0.57" stroke-linecap="round"/>
<path d="M30.3901 231.479H38.8501" stroke="#D1DBE0" stroke-width="0.57" stroke-linecap="round"/>
<path d="M30.3901 233.178H37.7701" stroke="#D1DBE0" stroke-width="0.57" stroke-linecap="round"/>
<path d="M49.5401 229.718L45.8901 227.658V231.878L49.5401 229.718Z" fill="#D1DBE0"/>
<path d="M51.7803 228.078H62.3903" stroke="#D1DBE0" stroke-width="0.57" stroke-linecap="round"/>
<path d="M51.7803 229.778H57.0803" stroke="#D1DBE0" stroke-width="0.57" stroke-linecap="round"/>
<path d="M51.7803 231.479H60.2403" stroke="#D1DBE0" stroke-width="0.57" stroke-linecap="round"/>
<path d="M51.7803 233.178H59.1503" stroke="#D1DBE0" stroke-width="0.57" stroke-linecap="round"/>
<path d="M70.9298 229.718L67.2798 227.658V231.878L70.9298 229.718Z" fill="#D1DBE0"/>
<path d="M73.1697 228.078H83.7797" stroke="#D1DBE0" stroke-width="0.57" stroke-linecap="round"/>
<path d="M73.1697 229.778H81.3097" stroke="#D1DBE0" stroke-width="0.57" stroke-linecap="round"/>
<path d="M73.1697 231.479H84.4597" stroke="#D1DBE0" stroke-width="0.57" stroke-linecap="round"/>
<path d="M73.1697 233.178H83.3797" stroke="#D1DBE0" stroke-width="0.57" stroke-linecap="round"/>
<path d="M28.15 217.511L24.51 215.451L24.5 219.671L28.15 217.511Z" fill="#D1DBE0"/>
<path d="M30.3901 215.871H41.0001" stroke="#D1DBE0" stroke-width="0.57" stroke-linecap="round"/>
<path d="M30.3901 217.571H35.7001" stroke="#D1DBE0" stroke-width="0.57" stroke-linecap="round"/>
<path d="M30.3901 219.271H38.8501" stroke="#D1DBE0" stroke-width="0.57" stroke-linecap="round"/>
<path d="M30.3901 220.971H37.7701" stroke="#D1DBE0" stroke-width="0.57" stroke-linecap="round"/>
<path d="M49.5401 217.511L45.8901 215.451V219.671L49.5401 217.511Z" fill="#D1DBE0"/>
<path d="M51.7803 215.871H62.3903" stroke="#D1DBE0" stroke-width="0.57" stroke-linecap="round"/>
<path d="M51.7803 217.571H57.0803" stroke="#D1DBE0" stroke-width="0.57" stroke-linecap="round"/>
<path d="M51.7803 219.271H60.2403" stroke="#D1DBE0" stroke-width="0.57" stroke-linecap="round"/>
<path d="M51.7803 220.971H59.1503" stroke="#D1DBE0" stroke-width="0.57" stroke-linecap="round"/>
<path d="M70.9298 217.511L67.2798 215.451V219.671L70.9298 217.511Z" fill="#D1DBE0"/>
<path d="M73.1697 215.871H83.7797" stroke="#D1DBE0" stroke-width="0.57" stroke-linecap="round"/>
<path d="M73.1697 217.571H81.3097" stroke="#D1DBE0" stroke-width="0.57" stroke-linecap="round"/>
<path d="M73.1697 219.271H84.4597" stroke="#D1DBE0" stroke-width="0.57" stroke-linecap="round"/>
<path d="M73.1697 220.971H80.5397" stroke="#D1DBE0" stroke-width="0.57" stroke-linecap="round"/>
<path d="M28.15 205.31L24.51 203.25L24.5 207.47L28.15 205.31Z" fill="#D1DBE0"/>
<path d="M30.3901 203.67H41.0001" stroke="#D1DBE0" stroke-width="0.57" stroke-linecap="round"/>
<path d="M30.3901 205.37H35.7001" stroke="#D1DBE0" stroke-width="0.57" stroke-linecap="round"/>
<path d="M30.3901 207.07H38.8501" stroke="#D1DBE0" stroke-width="0.57" stroke-linecap="round"/>
<path d="M30.3901 208.77H37.7701" stroke="#D1DBE0" stroke-width="0.57" stroke-linecap="round"/>
<path d="M49.5401 205.31L45.8901 203.25V207.47L49.5401 205.31Z" fill="#D1DBE0"/>
<path d="M51.7803 203.67H62.3903" stroke="#D1DBE0" stroke-width="0.57" stroke-linecap="round"/>
<path d="M51.7803 205.37H57.0803" stroke="#D1DBE0" stroke-width="0.57" stroke-linecap="round"/>
<path d="M51.7803 207.07H60.2403" stroke="#D1DBE0" stroke-width="0.57" stroke-linecap="round"/>
<path d="M51.7803 208.77H59.1503" stroke="#D1DBE0" stroke-width="0.57" stroke-linecap="round"/>
<path d="M70.9298 205.31L67.2798 203.25V207.47L70.9298 205.31Z" fill="#D1DBE0"/>
<path d="M73.1697 203.67H83.7797" stroke="#D1DBE0" stroke-width="0.57" stroke-linecap="round"/>
<path d="M73.1697 205.37H81.3097" stroke="#D1DBE0" stroke-width="0.57" stroke-linecap="round"/>
<path d="M73.1697 207.07H81.9097" stroke="#D1DBE0" stroke-width="0.57" stroke-linecap="round"/>
<path d="M73.1697 208.77H83.3797" stroke="#D1DBE0" stroke-width="0.57" stroke-linecap="round"/>
<path d="M76.6401 187.109H10.5301C8.64129 187.109 7.11011 188.641 7.11011 190.529V233.319C7.11011 235.208 8.64129 236.739 10.5301 236.739H76.6401C78.5289 236.739 80.0601 235.208 80.0601 233.319V190.529C80.0601 188.641 78.5289 187.109 76.6401 187.109Z" fill="#BEE4F8" stroke="#20378B" stroke-width="0.57" stroke-linejoin="round"/>
<path d="M26.9701 226.79H15.6001C13.6782 226.79 12.1201 228.346 12.1201 230.265C12.1201 232.184 13.6782 233.74 15.6001 233.74H26.9701C28.8921 233.74 30.4501 232.184 30.4501 230.265C30.4501 228.346 28.8921 226.79 26.9701 226.79Z" fill="#BEE4F8" stroke="#20378B" stroke-width="0.57" stroke-linejoin="round"/>
<path d="M26.97 232.72C28.3231 232.72 29.42 231.623 29.42 230.27C29.42 228.917 28.3231 227.82 26.97 227.82C25.6169 227.82 24.52 228.917 24.52 230.27C24.52 231.623 25.6169 232.72 26.97 232.72Z" fill="white" stroke="#20378B" stroke-width="0.57" stroke-linejoin="round"/>
<path d="M37.9 233.75H49.27C51.192 233.75 52.75 232.194 52.75 230.275C52.75 228.356 51.192 226.8 49.27 226.8H37.9C35.978 226.8 34.42 228.356 34.42 230.275C34.42 232.194 35.978 233.75 37.9 233.75Z" fill="white" stroke="#20378B" stroke-width="0.57" stroke-linejoin="round"/>
<path d="M37.8999 232.72C39.253 232.72 40.3499 231.623 40.3499 230.27C40.3499 228.917 39.253 227.82 37.8999 227.82C36.5469 227.82 35.45 228.917 35.45 230.27C35.45 231.623 36.5469 232.72 37.8999 232.72Z" fill="white" stroke="#20378B" stroke-width="0.57" stroke-linejoin="round"/>
<path d="M59.2403 233.75H70.6103C72.5323 233.75 74.0903 232.194 74.0903 230.275C74.0903 228.356 72.5323 226.8 70.6103 226.8H59.2403C57.3184 226.8 55.7603 228.356 55.7603 230.275C55.7603 232.194 57.3184 233.75 59.2403 233.75Z" fill="white" stroke="#20378B" stroke-width="0.57" stroke-linejoin="round"/>
<path d="M59.2403 232.719C60.5934 232.719 61.6903 231.622 61.6903 230.269C61.6903 228.916 60.5934 227.819 59.2403 227.819C57.8872 227.819 56.7903 228.916 56.7903 230.269C56.7903 231.622 57.8872 232.719 59.2403 232.719Z" fill="white" stroke="#20378B" stroke-width="0.57" stroke-linejoin="round"/>
<path d="M12.6902 208.23V216.36C12.6902 217.72 14.3102 218.98 17.2802 218.98C20.2502 218.98 21.8702 217.72 21.8702 216.36V208.23H12.6802H12.6902Z" fill="white" stroke="#20378B" stroke-width="0.57" stroke-linejoin="round"/>
<path d="M12.6902 203.66V208.54C12.6902 209.9 14.3102 211.16 17.2802 211.16C20.2502 211.16 21.8702 209.9 21.8702 208.54V203.66H12.6802H12.6902Z" fill="#E60032" stroke="#20378B" stroke-width="0.57" stroke-linejoin="round"/>
<path d="M17.2902 206.28C19.8252 206.28 21.8802 205.107 21.8802 203.66C21.8802 202.213 19.8252 201.04 17.2902 201.04C14.7552 201.04 12.7002 202.213 12.7002 203.66C12.7002 205.107 14.7552 206.28 17.2902 206.28Z" fill="#E60032" stroke="#20378B" stroke-width="0.57" stroke-miterlimit="10"/>
<path d="M35.1499 183.67V204.91C35.1499 206.56 37.1299 208.1 40.7499 208.1C44.3699 208.1 46.3499 206.56 46.3499 204.91V183.67H35.1599H35.1499Z" fill="white" stroke="#20378B" stroke-width="0.57" stroke-linejoin="round"/>
<path d="M35.1499 169.609V184.059C35.1499 185.709 37.1299 187.249 40.7499 187.249C44.3699 187.249 46.3499 185.709 46.3499 184.059V169.609H35.1599H35.1499Z" fill="#E60032" stroke="#20378B" stroke-width="0.57" stroke-linejoin="round"/>
<path d="M40.7499 172.8C43.8427 172.8 46.3499 171.372 46.3499 169.61C46.3499 167.848 43.8427 166.42 40.7499 166.42C37.6571 166.42 35.1499 167.848 35.1499 169.61C35.1499 171.372 37.6571 172.8 40.7499 172.8Z" fill="#E60032" stroke="#20378B" stroke-width="0.57" stroke-miterlimit="10"/>
<path d="M61.8301 200.74V203.85C61.8301 205.5 63.8101 207.04 67.4301 207.04C71.0501 207.04 73.0301 205.5 73.0301 203.85V200.74H61.8401H61.8301Z" fill="white" stroke="#20378B" stroke-width="0.57" stroke-linejoin="round"/>
<path d="M67.4301 203.93C70.5229 203.93 73.0301 202.502 73.0301 200.74C73.0301 198.978 70.5229 197.55 67.4301 197.55C64.3373 197.55 61.8301 198.978 61.8301 200.74C61.8301 202.502 64.3373 203.93 67.4301 203.93Z" fill="white" stroke="#20378B" stroke-width="0.57" stroke-miterlimit="10"/>
<path d="M51.81 177.229V201.759C51.81 203.119 53.43 204.38 56.4 204.38C59.37 204.38 60.99 203.119 60.99 201.759V177.229H51.8H51.81Z" fill="white" stroke="#20378B" stroke-width="0.57" stroke-linejoin="round"/>
<path d="M51.81 172.77V177.55C51.81 178.91 53.43 180.17 56.4 180.17C59.37 180.17 60.99 178.91 60.99 177.55V172.77H51.8H51.81Z" fill="#E60032" stroke="#20378B" stroke-width="0.57" stroke-linejoin="round"/>
<path d="M56.4001 175.389C58.935 175.389 60.9901 174.216 60.9901 172.769C60.9901 171.322 58.935 170.149 56.4001 170.149C53.8651 170.149 51.8101 171.322 51.8101 172.769C51.8101 174.216 53.8651 175.389 56.4001 175.389Z" fill="#E60032" stroke="#20378B" stroke-width="0.57" stroke-miterlimit="10"/>
<path d="M21.1902 216.54V221.42C21.1902 222.78 22.8102 224.04 25.7802 224.04C28.7502 224.04 30.3702 222.78 30.3702 221.42V216.54H21.1802H21.1902Z" fill="white" stroke="#20378B" stroke-width="0.57" stroke-linejoin="round"/>
<path d="M25.7902 219.16C28.3252 219.16 30.3802 217.987 30.3802 216.54C30.3802 215.093 28.3252 213.92 25.7902 213.92C23.2552 213.92 21.2002 215.093 21.2002 216.54C21.2002 217.987 23.2552 219.16 25.7902 219.16Z" fill="white" stroke="#20378B" stroke-width="0.57" stroke-miterlimit="10"/>
<path d="M28.78 203.42V208.3C28.78 209.66 30.4 210.92 33.37 210.92C36.34 210.92 37.96 209.66 37.96 208.3V203.42H28.77H28.78Z" fill="white" stroke="#20378B" stroke-width="0.57" stroke-linejoin="round"/>
<path d="M33.37 206.04C35.905 206.04 37.96 204.867 37.96 203.42C37.96 201.973 35.905 200.8 33.37 200.8C30.835 200.8 28.78 201.973 28.78 203.42C28.78 204.867 30.835 206.04 33.37 206.04Z" fill="white" stroke="#20378B" stroke-width="0.57" stroke-miterlimit="10"/>
<path d="M54.5798 198.5V211.89C54.5798 213.25 56.1998 214.51 59.1698 214.51C62.1398 214.51 63.7598 213.25 63.7598 211.89V198.5H54.5698H54.5798Z" fill="white" stroke="#20378B" stroke-width="0.57" stroke-linejoin="round"/>
<path d="M59.1698 201.12C61.7048 201.12 63.7598 199.947 63.7598 198.5C63.7598 197.053 61.7048 195.88 59.1698 195.88C56.6348 195.88 54.5798 197.053 54.5798 198.5C54.5798 199.947 56.6348 201.12 59.1698 201.12Z" fill="white" stroke="#20378B" stroke-width="0.57" stroke-miterlimit="10"/>
<path d="M60.3503 211.26V218.98C60.3503 220.34 61.9703 221.6 64.9403 221.6C67.9103 221.6 69.5303 220.34 69.5303 218.98V211.26H60.3403H60.3503Z" fill="white" stroke="#20378B" stroke-width="0.57" stroke-linejoin="round"/>
<path d="M64.9403 213.88C67.4753 213.88 69.5303 212.707 69.5303 211.26C69.5303 209.813 67.4753 208.64 64.9403 208.64C62.4054 208.64 60.3503 209.813 60.3503 211.26C60.3503 212.707 62.4054 213.88 64.9403 213.88Z" fill="white" stroke="#20378B" stroke-width="0.57" stroke-miterlimit="10"/>
<path d="M40.5801 210.98V218.96C40.5801 221.13 43.1701 223.14 47.9101 223.14C52.6501 223.14 55.2401 221.12 55.2401 218.96V210.98H40.5901H40.5801Z" fill="white" stroke="#20378B" stroke-width="0.57" stroke-linejoin="round"/>
<path d="M40.5801 208.439V211.489C40.5801 213.659 43.1701 215.669 47.9101 215.669C52.6501 215.669 55.2401 213.649 55.2401 211.489V208.439H40.5901H40.5801Z" fill="#E60032" stroke="#20378B" stroke-width="0.57" stroke-linejoin="round"/>
<path d="M47.9101 212.62C51.9583 212.62 55.2401 210.748 55.2401 208.44C55.2401 206.131 51.9583 204.26 47.9101 204.26C43.8618 204.26 40.5801 206.131 40.5801 208.44C40.5801 210.748 43.8618 212.62 47.9101 212.62Z" fill="#E60032" stroke="#20378B" stroke-width="0.57" stroke-miterlimit="10"/>
<circle cx="87.5" cy="245.5" r="12" transform="rotate(-90 87.5 245.5)" fill="#E60032" stroke="white"/>
<path d="M91.2836 246.262C91.2836 248.35 90.2336 249.613 87.8086 249.613C86.7211 249.613 85.7211 249.387 84.9211 248.912L85.2836 247.287C86.0461 247.675 86.6836 247.9 87.6086 247.9C88.8336 247.9 89.2586 247.412 89.2586 246.437C89.2586 245.562 88.7461 245.212 87.6461 245.212C86.9961 245.212 86.2711 245.337 85.7461 245.537L85.0336 244.762L85.4086 240.125H90.7711L90.8336 241.937H87.0336L86.8961 243.675C87.3211 243.587 87.7711 243.537 88.2461 243.537C90.1961 243.537 91.2836 244.45 91.2836 246.262Z" fill="#EDF8FE"/>
</g>
<defs>
<clipPath id="clip0_1512_17531">
<rect width="400" height="400" fill="white"/>
</clipPath>
</defs>
</svg>
