<svg width="301" height="243" fill="none"
  xmlns="http://www.w3.org/2000/svg">
  <path d="M300.4 141.5V86.3c0-10-8-18-18-18h-95a30 30 0 0 1-15-4l-48.5-28a30 30 0 0 0-15-4L18.6 70.6c-10 0-18 10-18 20V162A18 18 0 0 0 6 174.6l20.3 20.3a18 18 0 0 0 12.7 5.2h75.4a18 18 0 0 1 15.6 9l13.9 24a18 18 0 0 0 15.5 9h123.1c10 0 18-8 18-18v-82.6Z" fill="var(--illu-line)" stroke="var(--illu-line)" stroke-width="1.2" stroke-miterlimit="10"/>
  <path d="M300.4 117.5V62.3c0-10-8-18-18-18h-95a30 30 0 0 1-15-4l-48.5-28a30 30 0 0 0-15-4H45.6a18 18 0 0 0-15.6 9l-25.4 44a30 30 0 0 0-4 15v61.6a18 18 0 0 0 5.3 12.7L26 171a18 18 0 0 0 12.8 5.3h75.4a18 18 0 0 1 15.6 9l13.8 24a18 18 0 0 0 15.6 9h123c10 0 18-8.1 18-18v-82.6Z" fill="var(--illu-bg)" stroke="var(--illu-line)" stroke-width="1.2" stroke-miterlimit="10"/>
  <path d="M158 48.9c-.2-1.6.1-3.1.9-4.4a10.8 10.8 0 0 0-6-16 3.9 3.9 0 0 1-2.5-2.8 9 9 0 0 0-17.4 0 3.8 3.8 0 0 1-2.5 2.8 10.8 10.8 0 0 0-6 16 6.7 6.7 0 0 1 1 4.3l-.1 1a10 10 0 0 0 12.4 9.8c2.6-.7 5.2-.7 7.8 0a10 10 0 0 0 12.4-9.7v-1Z" fill="var(--illu-bg)" stroke="var(--illu-line)" stroke-width="1.2" stroke-linejoin="round"/>
  <path d="M141.5 68.6V30m0 16.8-9.2-8.6m9.2 13.6 9.3-5.8" stroke="var(--illu-line)" stroke-width="1.2" stroke-miterlimit="10" stroke-linecap="round"/>
  <path d="M151 59.6a9.2 9.2 0 0 0 2.4-6.2 7.6 7.6 0 1 1 15.2 0c0 2.3.9 4.4 2.4 6.2 2 2.3 3.4 5.4 3.4 8.8a13.3 13.3 0 1 1-23.4-8.8Z" fill="var(--illu-bg)" stroke="var(--illu-line)" stroke-width="1.2" stroke-linejoin="round"/>
  <path d="M161 89V72.8l4.5-12.3M161 72.7l-6.2-8" stroke="var(--illu-line)" stroke-width="1.2" stroke-miterlimit="10" stroke-linecap="round"/>
  <path d="M12.2 47.9A13 13 0 0 0 18 58.7c1.6 1 2.6 2.8 2.5 4.7v.9a10.3 10.3 0 0 0 20.5-.5c0-1.9 1-3.7 2.6-4.7a13 13 0 0 0 3.6-19.4 8.3 8.3 0 0 1-1.7-6.5l.1-1.7c0-3.5-1.8-6.6-4.5-8.4a5 5 0 0 1-2.2-3.6 8 8 0 0 0-16 0 5 5 0 0 1-2 3.8 10.2 10.2 0 0 0-4.1 9.9 8 8 0 0 1-1.7 6.5 13 13 0 0 0-3 8.2Z" fill="var(--illu-bg)" stroke="var(--illu-line)" stroke-width="1.2" stroke-linejoin="round"/>
  <path d="M31.1 82.5V28m0 17L39 35m-7.9 19.8L24.7 48" stroke="var(--illu-line)" stroke-width="1.2" stroke-miterlimit="10" stroke-linecap="round"/>
  <path d="M124 39a9.7 9.7 0 0 1-2-8 13.1 13.1 0 0 0-2.3-10.3 9 9 0 0 1-1.4-7.5c.3-1.1.4-2.3.3-3.5-.5-4.5-4-8-8.5-8.6A9.6 9.6 0 0 0 99.6 13c.7 2.7.3 5.6-1.3 7.8A13.2 13.2 0 0 0 95.9 31c.6 2.9 0 5.7-1.8 8A18.7 18.7 0 0 0 90 51c.1 9.8 8 18 18 18.6A19 19 0 0 0 124 39h0Z" fill="var(--illu-bg)" stroke="var(--illu-line)" stroke-width="1.2" stroke-miterlimit="10" stroke-linecap="round"/>
  <path d="M109 86.3V10.1m0 27.4-8.6-8.6m8.6 23.5 9.7-9.6M109 30l6.4-6.3" stroke="var(--illu-line)" stroke-width="1.2" stroke-miterlimit="10" stroke-linecap="round"/>
  <path d="M155.5 156.4H44V49h44l67.5 107.5Z" fill="var(--illu-gray)" stroke="var(--illu-line)" stroke-width="1.2"/>
  <path d="M165 125.7h-38.8v15.4H165v-15.4Zm-63.6-76.8H62.7v15.3h38.7V49ZM114 64.2H75.5v15.4H114V64.2Z" fill="var(--illu-white)" stroke="var(--illu-line)" stroke-width="1.2"/>
  <path d="M126.8 79.6H88V95h38.7V79.6ZM139.5 95h-38.7v15.3h38.7V95Zm12.7 15.3h-38.7v15.4h38.7v-15.4Zm25.4 30.7H139v15.5h38.7V141Z" fill="var(--illu-white)" stroke="var(--illu-line)" stroke-width="1.2"/>
  <path d="M44 79.2h22.5m-16.2.1v-6.6m8 6.5v7.1m35.8 63h27.5m-16.8 0v-6.7m8.5 6.6v7.1" stroke="var(--illu-line)" stroke-width="1.2" stroke-linecap="round" stroke-linejoin="round"/>
  <path d="M28.1 161.2v-66c0-.9.7-1.6 1.5-1.6.9 0 1.5.7 1.5 1.5v66h-3Zm44.6 0v-66c0-.9.6-1.6 1.5-1.6.8 0 1.5.7 1.5 1.5v66h-3Z" fill="var(--illu-white)" stroke="var(--illu-line)" stroke-width="1.2"/>
  <path d="M21.8 99.3h63.8c1.4 0 2.5 1.1 2.5 2.5V136c0 1.3-1.1 2.4-2.5 2.4H21.8a2.5 2.5 0 0 1-2.4-2.4v-34.3c0-1.4 1-2.5 2.4-2.5Z" fill="var(--illu-white)" stroke="var(--illu-line)" stroke-width="1.2"/>
  <path d="M27 106.6h7v6.3h6.2v6.3h6.3v6.3h6.3v6.3h5.8" fill="var(--illu-white)"/>
  <path d="M27 106.6h7v6.3h6.2v6.3h6.3v6.3h6.3v6.3h5.8" stroke="var(--illu-line)" stroke-width="1.2"/>
  <path d="m63.9 109.4-11.5-3 3 11.4 3.2-3.2L75 131.1l2.1-2.1-16.4-16.5 3.2-3.1Z" fill="var(--illu-highlight)" stroke="var(--illu-line)" stroke-width="1.2" stroke-linejoin="round"/>
  <path d="m174.2 171.5 4.6 16.7 8.5-1-4.5-16.6-8.6 1Z" fill="var(--illu-gray)"/>
  <path d="m174.2 171.5 4.6 16.7 8.5-1-4.5-16.6-8.6 1Z" stroke="var(--illu-line)" stroke-width="1.2" stroke-linejoin="round"/>
  <path d="m176.7 180.8.6-2c.2-.6.2-1.3 0-2-.3-.8-1-1.3-1.6-1.4-.7 0-1.4.4-1.6 1-.8 2.5-1.5 4.4-3.3 7.3" fill="var(--illu-white)"/>
  <path d="m176.7 180.8.6-2c.2-.6.2-1.3 0-2-.3-.8-1-1.3-1.6-1.4-.7 0-1.4.4-1.6 1-.8 2.5-1.5 4.4-3.3 7.3" stroke="var(--illu-line)" stroke-width="1.2" stroke-linejoin="round"/>
  <path d="M150.3 190.8c.2-1.2 1.3-1.6 2.7-1.8 9.9-1.7 17-6 21.9-8.8 2.3-1 2.2 5.4 6.4 4.7 4.1-.7 3.1-5.1 5.5-4.8 0 0 3.6 5 3.4 9.8l-2.6 3-33.2 1.2-4-3.3Z" fill="var(--illu-highlight)" stroke="var(--illu-line)" stroke-width="1.2" stroke-linejoin="round"/>
  <path d="m172 180.3 3 3m-5.1-.8 1.8 2.4m-4.1-1.2 1.5 2.3" stroke="var(--illu-line)" stroke-width="1.2" stroke-linecap="round" stroke-linejoin="round"/>
  <path d="M186.4 196.9h-23.2c-7.7 0-12.7-3-12.9-6.1 0 0 6.1 3.1 10.7 2.6 3.1-.3 5.5-.7 6.6-1a4 4 0 0 1 1.6 0l3.4.8c.8.1 1.6 0 2.1-.6l2.6-2.1a3 3 0 0 1 2.7-.4l2.8 1.2c.8.4 1.8.2 2.5-.3l1.1-.9c.6-.4 1.3-.6 2-.4l2.3.4 2.6 3.5a9 9 0 0 1-6.8 3.3Z" fill="var(--illu-white)"/>
  <path d="M186.4 196.9h-23.2c-7.7 0-12.7-3-12.9-6.1 0 0 6.1 3.1 10.7 2.6 3.1-.3 5.5-.7 6.6-1a4 4 0 0 1 1.6 0l3.4.8c.8.1 1.6 0 2.1-.6l2.6-2.1a3 3 0 0 1 2.7-.4l2.8 1.2c.8.4 1.8.2 2.5-.3l1.1-.9c.6-.4 1.3-.6 2-.4l2.3.4 2.6 3.5a9 9 0 0 1-6.8 3.3Z" stroke="var(--illu-line)" stroke-width="1.2" stroke-linejoin="round"/>
  <path d="m184.3 173.6-10.1 1.7-1.4-4.5 10.2-1.7 1.3 4.5Z" fill="var(--illu-gray)" stroke="var(--illu-line)" stroke-width="1.2" stroke-linejoin="round"/>
  <path d="m164.7 127.2-.6-3.2a9.4 9.4 0 0 1 10.1-11l64 7.1-9.5 23.8-43.2-8" fill="var(--illu-white)"/>
  <path d="m164.7 127.2-.6-3.2a9.4 9.4 0 0 1 10.1-11l64 7.1-9.5 23.8-43.2-8" stroke="var(--illu-line)" stroke-width="1.2" stroke-linecap="round" stroke-linejoin="round"/>
  <path d="M178.8 138.1c2.2 10.2 6.7 17.7 7.5 22.2.8 4.2-1.6 8.2-3.3 8.8l-10.2 1.7c-2.1 0-7.3-2-8.7-7.2-.9-3.4-.5-14.4-2.9-27.4" fill="var(--illu-gray)"/>
  <path d="M178.8 138.1c2.2 10.2 6.7 17.7 7.5 22.2.8 4.2-1.6 8.2-3.3 8.8l-10.2 1.7c-2.1 0-7.3-2-8.7-7.2-.9-3.4-.5-14.4-2.9-27.4" stroke="var(--illu-line)" stroke-width="1.2" stroke-linecap="round" stroke-linejoin="round"/>
  <path d="M180.3 196.9H154c-.7 0-1.3.5-1.3 1.3 0 .7.6 1.2 1.3 1.2h26.3c.7 0 1.2-.5 1.2-1.2 0-.8-.5-1.3-1.2-1.3Zm71.5 14.3a42.3 42.3 0 1 0 0-84.7 42.3 42.3 0 0 0 0 84.7Z" fill="var(--illu-gray)" stroke="var(--illu-line)" stroke-width="1.2"/>
  <path d="M251.8 205.9a37 37 0 1 0 0-74 37 37 0 0 0 0 74Z" fill="var(--illu-white)" stroke="var(--illu-line)" stroke-width="1.2"/>
  <path d="M184 211.2a7.5 7.5 0 1 0 0-15 7.5 7.5 0 0 0 0 15Z" fill="var(--illu-gray)" stroke="var(--illu-line)" stroke-width="1.2"/>
  <path d="M184 205a1.4 1.4 0 1 0 0-2.7 1.4 1.4 0 0 0 0 2.7Z" fill="var(--illu-line)" stroke="var(--illu-line)" stroke-width="1.2"/>
  <path d="M179.6 181.6v8.4c0 1.7.3 3.5 1 5l3.4 8.7" stroke="var(--illu-line)" stroke-width="1.2" stroke-linecap="round"/>
  <path d="M237.4 64.4H227v5h10.4v-5Z" fill="var(--illu-white)" stroke="var(--illu-line)" stroke-width="1.2" stroke-linecap="round" stroke-linejoin="round"/>
  <path d="m165.3 171.9 7 15.8 8.4-2.2-7.1-15.8-8.3 2.2Z" fill="var(--illu-gray)"/>
  <path d="m165.3 171.9 7 15.8 8.4-2.2-7.1-15.8-8.3 2.2Z" stroke="var(--illu-line)" stroke-width="1.2" stroke-linejoin="round"/>
  <path d="m169.2 180.8.5-2a3 3 0 0 0 0-1.9v-.1c-.2-.7-.9-1.2-1.6-1.3-.7-.1-1.3.3-1.5 1-.8 2.4-1.6 4.3-3.3 7.2" fill="var(--illu-highlight)"/>
  <path d="m169.2 180.8.5-2a3 3 0 0 0 0-1.9v-.1c-.2-.7-.9-1.2-1.6-1.3-.7-.1-1.3.3-1.5 1-.8 2.4-1.6 4.3-3.3 7.2" stroke="var(--illu-line)" stroke-width="1.2" stroke-linejoin="round"/>
  <path d="M142.7 190.7c.2-1.2 1.3-1.6 2.6-1.8 10-1.7 17.2-5.9 22-8.7 2.3-1 2.2 5.4 6.4 4.8 4.2-.7 3.1-5.2 5.5-4.8 0 0 3.6 5 3.4 9.8l-2.7 3-33.1 1-4.1-3.3Z" fill="var(--illu-highlight)" stroke="var(--illu-line)" stroke-width="1.2" stroke-linejoin="round"/>
  <path d="m164.5 180.3 3 3.1m-5.2-.9 1.8 2.4m-4.1-1.2 1.5 2.3" stroke="var(--illu-line)" stroke-width="1.2" stroke-linecap="round" stroke-linejoin="round"/>
  <path d="m178.8 197-22.4-.2h-.9c-7.6 0-12.7-2.9-12.8-6.1 0 0 6.1 3.1 10.6 2.7 3.2-.3 5.5-.7 6.6-1a4 4 0 0 1 1.6 0l3.5.8c.7.1 1.5 0 2-.6l2.7-2c.7-.7 1.7-.8 2.6-.4l2.8 1.1c.9.4 1.8.3 2.6-.3l1-.8a3 3 0 0 1 2-.5l2.3.4 2.6 3.6a9 9 0 0 1-6.8 3.2Z" fill="var(--illu-white)"/>
  <path d="m178.8 197-22.4-.2h-.9c-7.6 0-12.7-2.9-12.8-6.1 0 0 6.1 3.1 10.6 2.7 3.2-.3 5.5-.7 6.6-1a4 4 0 0 1 1.6 0l3.5.8c.7.1 1.5 0 2-.6l2.7-2c.7-.7 1.7-.8 2.6-.4l2.8 1.1c.9.4 1.8.3 2.6-.3l1-.8a3 3 0 0 1 2-.5l2.3.4 2.6 3.6a9 9 0 0 1-6.8 3.2Z" stroke="var(--illu-line)" stroke-width="1.2" stroke-linejoin="round"/>
  <path d="m175.6 172.4-9.8 3.2-2-4.2 9.8-3.2 2 4.2Z" fill="var(--illu-white)" stroke="var(--illu-line)" stroke-width="1.2" stroke-linejoin="round"/>
  <path d="M166.6 138c3.2 8.5 7.2 15.8 9 21 1.4 4-.4 8.3-2 9.2l-9.8 3.2c-2.1.4-7.5-.8-9.7-5.8-1.5-3.5-3-16-8.1-29.7a9.2 9.2 0 0 1 8-12.5l64.2-4.4-5.2 25h-44" fill="var(--illu-white)"/>
  <path d="M166.6 138c3.2 8.5 7.2 15.8 9 21 1.4 4-.4 8.3-2 9.2l-9.8 3.2c-2.1.4-7.5-.8-9.7-5.8-1.5-3.5-3-16-8.1-29.7a9.2 9.2 0 0 1 8-12.5l64.2-4.4-5.2 25h-44" stroke="var(--illu-line)" stroke-width="1.2" stroke-linecap="round" stroke-linejoin="round"/>
  <path d="M256.9 141.1c-19.5 2.5-20.7 1.6-28.4-3.7-9-6.2-19.5-17.6-27.2-17.2 1-13.8 7.8-22.4 10.6-30v-9.5c0-5.4 5-11.2 10.7-12.1 8.3-1.4 11.3-3.2 19.1.2 19.9 8.6 16.1 53.7 15.2 72.3Z" fill="var(--illu-white)" stroke="var(--illu-line)" stroke-width="1.2" stroke-linecap="round" stroke-linejoin="round"/>
  <path d="M230.7 88.5v13.2h-18.8v-18" fill="var(--illu-white)"/>
  <path d="M230.7 88.5v13.2h-18.8v-18" stroke="var(--illu-line)" stroke-width="1.2" stroke-linecap="round" stroke-linejoin="round"/>
  <path d="M210.8 53.6c-.2 1 .5 1.9 1.5 2l5.4.7c1 .1 1.8-.5 2-1.5 0-1-.6-1.8-1.5-2l-5.5-.7c-1-.1-1.8.6-2 1.5Z" fill="var(--illu-gray)" stroke="var(--illu-line)" stroke-width="1.2" stroke-linecap="round"/>
  <path d="M236.2 63.8a12.5 12.5 0 1 1-20.3-14.6 12.5 12.5 0 0 1 20.3 14.6Z" fill="var(--illu-gray)" stroke="var(--illu-line)" stroke-width="1.2" stroke-linecap="round"/>
  <path d="M236 51a2.7 2.7 0 1 0 0-5.6 2.7 2.7 0 0 0 0 5.5Zm-12.4 5.5a5 5 0 1 0 0-10 5 5 0 0 0 0 10Z" fill="var(--illu-line)" stroke="var(--illu-line)" stroke-width="1.2" stroke-linejoin="round"/>
  <path d="M237.9 55.5a3 3 0 1 0 0-6 3 3 0 0 0 0 6Zm-5.3-7.2a2.7 2.7 0 1 0 0-5.3 2.7 2.7 0 0 0 0 5.3Zm-8.8 4a4.8 4.8 0 1 0 0-9.6 4.8 4.8 0 0 0 0 9.6Z" fill="var(--illu-line)" stroke="var(--illu-line)" stroke-width="1.2" stroke-linejoin="round"/>
  <path d="M230.7 60.8a8.2 8.2 0 1 0 0-16.4 8.2 8.2 0 0 0 0 16.4Z" fill="var(--illu-line)" stroke="var(--illu-line)" stroke-width="1.2" stroke-linejoin="round"/>
  <path d="M227.6 44.5a3 3 0 1 0 0-6 3 3 0 0 0 0 6ZM241 61.6a3 3 0 1 0 0-6 3 3 0 0 0 0 6Zm-14 3.8a3 3 0 1 0 0-6.1 3 3 0 0 0 0 6Zm13.3 9.7a3.5 3.5 0 1 0 0-7 3.5 3.5 0 0 0 0 7Z" fill="var(--illu-line)" stroke="var(--illu-line)" stroke-width="1.2" stroke-linejoin="round"/>
  <path d="M245.1 66.9a3.8 3.8 0 1 0 0-7.6 3.8 3.8 0 0 0 0 7.6Zm-12.7-19.4a3.5 3.5 0 1 0 0-7 3.5 3.5 0 0 0 0 7Zm-5.2 25.4a4.6 4.6 0 1 0 0-9.2 4.6 4.6 0 0 0 0 9.2Z" fill="var(--illu-line)" stroke="var(--illu-line)" stroke-width="1.2" stroke-linejoin="round"/>
  <path d="M222.8 60.6c1.1 1.7.8 4.4 0 6-1 2.2 5.8.8 5.8.8l-.8-5-5-1.8ZM233.3 75a4.2 4.2 0 1 0 0-8.4 4.2 4.2 0 0 0 0 8.4Z" fill="var(--illu-line)" stroke="var(--illu-line)" stroke-width="1.2" stroke-linejoin="round"/>
  <path d="M236.3 70.6a7.5 7.5 0 1 0 0-15 7.5 7.5 0 0 0 0 15Z" fill="var(--illu-line)" stroke="var(--illu-line)" stroke-width="1.2" stroke-linejoin="round"/>
  <path d="M244.7 72a3.8 3.8 0 1 0 0-7.5 3.8 3.8 0 0 0 0 7.6Z" fill="var(--illu-line)" stroke="var(--illu-line)" stroke-width="1.2" stroke-linejoin="round"/>
  <path d="M220.3 56a2.7 2.7 0 1 1 1.7 4.8" fill="var(--illu-gray)"/>
  <path d="M220.3 56a2.7 2.7 0 1 1 1.7 4.8" stroke="var(--illu-line)" stroke-width="1.2" stroke-linecap="round"/>
  <path d="M223.9 44s-9.1-4-13.8-4c-4.6-.1-7.2 4.4-3.1 6.4 4.6 2.2 9.9 4.2 23 6.3" fill="var(--illu-highlight)"/>
  <path d="M223.9 44s-9.1-4-13.8-4c-4.6-.1-7.2 4.4-3.1 6.4 4.6 2.2 9.9 4.2 23 6.3" stroke="var(--illu-line)" stroke-width="1.2" stroke-linejoin="round"/>
  <path d="m236.4 40-5-1.7a11 11 0 0 0-14 7.2l-.3.9c-.3.7 0 1.5.7 1.9l.8.3a79 79 0 0 0 21.4 6.5l1.2.2c.7 0 1.4-.4 1.6-1.1a11 11 0 0 0-6.4-14.2Z" fill="var(--illu-highlight)" stroke="var(--illu-line)" stroke-width="1.2" stroke-linejoin="round"/>
  <path d="m228 35.6.1-3.8m-8.1 5.4-3-4.6m21.7 5 3.6-5.8m3.2 9 5-2" stroke="var(--illu-white)" stroke-width="1.2" stroke-linecap="round"/>
  <path d="M260.2 115.2h-23.3V154h23.3v-38.7Z" fill="var(--illu-highlight)" stroke="var(--illu-line)" stroke-width="1.2"/>
  <path d="M237 122.5v-12.7c0-2.4 2-4.4 4.3-4.4h6.7m12.2 17.1v-12.7c0-2.4 2-4.4 4.4-4.4h6" stroke="var(--illu-line)" stroke-width="1.2" stroke-linecap="round"/>
  <path d="M183.8 144h45a5 5 0 0 1 5 5v4.1h-55V149a5 5 0 0 1 5-5Z" fill="var(--illu-highlight)" stroke="var(--illu-line)" stroke-width="1.2"/>
  <path d="M233.7 115.2h3.2V154h-6.6v-35.2c0-2 1.6-3.5 3.5-3.5Z" fill="var(--illu-highlight)" stroke="var(--illu-line)" stroke-width="1.2"/>
  <path d="M228.3 211.2a42.3 42.3 0 1 0 0-84.7 42.3 42.3 0 0 0 0 84.7Z" fill="var(--illu-gray)" stroke="var(--illu-line)" stroke-width="1.2"/>
  <path d="M228.3 205.9a37 37 0 1 0 0-74 37 37 0 0 0 0 74Z" fill="var(--illu-white)" stroke="var(--illu-line)" stroke-width="1.2"/>
  <path d="M228.3 173.4a4.6 4.6 0 1 0 0-9.1 4.6 4.6 0 0 0 0 9.1Z" stroke="var(--illu-line)" stroke-width="1.2"/>
  <path d="m210.3 168.2-1.6 10.5c1.4.2 2.8-.8 3-2.2l.3-1.7 7.8-2 1.7-10.2-1-4.1" fill="var(--illu-gray)"/>
  <path d="m210.3 168.2-1.6 10.5c1.4.2 2.8-.8 3-2.2l.3-1.7 7.8-2 1.7-10.2-1-4.1" stroke="var(--illu-line)" stroke-width="1.2" stroke-miterlimit="10" stroke-linecap="round"/>
  <path d="m213 171.8 5.4 12a1.4 1.4 0 1 0 2.4-1.2l-5.3-11.9" fill="var(--illu-gray)"/>
  <path d="m213 171.8 5.4 12a1.4 1.4 0 1 0 2.4-1.2l-5.3-11.9" stroke="var(--illu-line)" stroke-width="1.2" stroke-miterlimit="10" stroke-linecap="round"/>
  <path d="m212.4 170.3 5.2 11.6c.3.6 0 1.4-.7 1.8-.7.3-1.5 0-1.8-.7l-5.8-13c-.3-.5-.4-1.2-.3-1.8 2.5-15.6 5.8-29.4 5.8-66.4h12.9c0 16.3-2.7 33.2-6.4 49.4l-1.3 5.6 1.1 3.7a8 8 0 0 1 .4 4.3l-.5 3.3a4 4 0 0 0 .3 2.2l3.1 7c.4.7 0 1.5-.6 1.8-.7.3-1.5 0-1.8-.7l-4-8.8" fill="var(--illu-gray)"/>
  <path d="m212.4 170.3 5.2 11.6c.3.6 0 1.4-.7 1.8-.7.3-1.5 0-1.8-.7l-5.8-13c-.3-.5-.4-1.2-.3-1.8 2.5-15.6 5.8-29.4 5.8-66.4h12.9c0 16.3-2.7 33.2-6.4 49.4l-1.3 5.6 1.1 3.7a8 8 0 0 1 .4 4.3l-.5 3.3a4 4 0 0 0 .3 2.2l3.1 7c.4.7 0 1.5-.6 1.8-.7.3-1.5 0-1.8-.7l-4-8.8" stroke="var(--illu-line)" stroke-width="1.2" stroke-linecap="round" stroke-linejoin="round"/>
  <path d="m215.1 169.8 5 11c.3.6 1 1 1.7.6.7-.3 1-1.1.7-1.8l-4.7-10.4" fill="var(--illu-gray)"/>
  <path d="m215.1 169.8 5 11c.3.6 1 1 1.7.6.7-.3 1-1.1.7-1.8l-4.7-10.4" stroke="var(--illu-line)" stroke-width="1.2" stroke-miterlimit="10" stroke-linecap="round"/>
</svg>
