<svg width="302" height="236" fill="none"
  xmlns="http://www.w3.org/2000/svg">
  <path d="M291.6 213.8a30 30 0 0 0 8.8-21.2v-73.9a30 30 0 0 0-8.8-21.2l-12.4-12.4a30 30 0 0 0-21.2-8.7h-61.7a30 30 0 0 1-21.1-8.8L153.3 46a30 30 0 0 0-21.1-8.7H49A30 30 0 0 0 27.8 46L9.4 64.4A30 30 0 0 0 .6 85.6V181c0 10 8 18 18 18h111.3a18 18 0 0 1 15.6 9l10.4 18a18 18 0 0 0 15.5 9H258a30 30 0 0 0 21.2-8.9l12.4-12.4Z" fill="var(--illu-line)" stroke="var(--illu-line)" stroke-width="1.2" stroke-miterlimit="10"/>
  <path d="M291.6 189.8a30 30 0 0 0 8.8-21.2V94.7a30 30 0 0 0-8.8-21.1L279.2 61a30 30 0 0 0-21.2-8.7h-64.9a18 18 0 0 1-15.5-9l-12.3-21.2a18 18 0 0 0-15.6-9H49a30 30 0 0 0-21.2 8.7L9.4 40.4A30 30 0 0 0 .6 61.5V157c0 10 8 18 18 18h111.3a18 18 0 0 1 15.6 9l10.4 18a18 18 0 0 0 15.5 9H258a30 30 0 0 0 21.2-8.8l12.4-12.4Z" fill="var(--illu-bg)" stroke="var(--illu-line)" stroke-width="1.2" stroke-miterlimit="10"/>
  <path d="M124.4 30.9c.1-1.5-.2-3-1-4.4a10.8 10.8 0 0 1 6-16 3.9 3.9 0 0 0 2.5-2.7 9 9 0 0 1 17.4 0 3.8 3.8 0 0 0 2.5 2.8 10.8 10.8 0 0 1 6 15.9 6.7 6.7 0 0 0-1 4.3l.1 1.1a10 10 0 0 1-12.4 9.7c-2.5-.7-5.2-.7-7.8 0a10 10 0 0 1-12.4-9.7v-1Z" fill="var(--illu-bg)" stroke="var(--illu-line)" stroke-width="1.2" stroke-linejoin="round"/>
  <path d="M140.8 48.3V12m0 16.8 9.2-8.6m-9.2 13.6-9.3-5.7" stroke="var(--illu-line)" stroke-width="1.2" stroke-miterlimit="10" stroke-linecap="round"/>
  <path d="M34.3 35.9c0-2.5.8-4.9 2.2-6.8.8-1.2 1-2.7.3-4a10 10 0 0 1-1-4.2c0-5.2 4.1-9.6 9.3-10 1.5 0 2.9-.8 3.4-2.2a9 9 0 0 1 16.7 0 3.6 3.6 0 0 0 3.4 2.2 10 10 0 0 1 8.8 14.2c-.7 1.3-.6 2.8.2 4a11.9 11.9 0 0 1-4.4 17.5c-1.4.6-2.5 2-2.6 3.5a8.4 8.4 0 0 1-11 7 8 8 0 0 0-5 0 8.4 8.4 0 0 1-11-7.2 4.3 4.3 0 0 0-2.5-3.3c-4-2-6.7-6-6.7-10.7h0Z" fill="var(--illu-bg)" stroke="var(--illu-line)" stroke-width="1.2" stroke-miterlimit="10" stroke-linecap="round"/>
  <path d="M57.1 65.5V15.4m0 25.6-8.6-11m8.6 19.3 10.3-10.9M57.1 30l6.5-6.8" stroke="var(--illu-line)" stroke-width="1.2" stroke-miterlimit="10" stroke-linecap="round"/>
  <path d="M87.2 73.7a40.7 40.7 0 0 0 0 81.5h45.3a29 29 0 0 1 19.6 7.7l15 14a29 29 0 0 0 19.7 7.7h38.8a55.4 55.4 0 1 0 0-110.9H87.2Z" fill="var(--illu-white)"/>
  <path d="M281 131.3V129a55.4 55.4 0 0 0-55.4-55.4H87.2a40.7 40.7 0 0 0-40.7 42.5l1 .7a40.7 40.7 0 0 1 21-27.8c4.5-2.4 7.6-1.8 11-1.2 1.5.3 3.2.6 5 .6 3 0 4.5-.6 6-1.2s3-1.2 5.9-1.2c3 0 4.4.6 5.9 1.2s3 1.2 5.9 1.2c3 0 4.4-.6 5.9-1.2s3-1.2 5.9-1.2c3 0 4.4.6 5.9 1.2s3 1.2 5.9 1.2c3 0 4.4-.6 6-1.2a13 13 0 0 1 5.8-1.2c3 0 4.4.6 6 1.2a13 13 0 0 0 5.8 1.2c3 0 4.4-.6 6-1.2a13 13 0 0 1 5.8-1.2c3 0 4.4.6 6 1.2a13 13 0 0 0 5.8 1.2c3 0 4.4-.6 6-1.2a13 13 0 0 1 5.8-1.2c3 0 4.4.6 6 1.2a13 13 0 0 0 5.8 1.2c3 0 4.4-.6 6-1.2a13 13 0 0 1 5.8-1.2c3 0 4.5.6 6 1.2a16.7 16.7 0 0 0 11.8.2c4.5-1.3 9.4-1 14 .7a55.5 55.5 0 0 1 34.8 43Z" fill="var(--illu-line)" stroke="var(--illu-line)" stroke-width="1.2" stroke-miterlimit="10"/>
  <path d="M87.2 73.7a40.7 40.7 0 0 0 0 81.5h45.3a29 29 0 0 1 19.6 7.7l15 14a29 29 0 0 0 19.7 7.7h38.8a55.4 55.4 0 1 0 0-110.9H87.2Z" stroke="var(--illu-line)" stroke-width="1.2" stroke-miterlimit="10"/>
  <path d="M190.8 123.3c6 0 6 2.4 11.8 2.4 6 0 6-2.4 11.8-2.4 6 0 6 2.4 11.8 2.4 6 0 6-2.4 11.8-2.4M120 128c5.9 0 5.9 2.5 11.8 2.5s5.9-2.4 11.8-2.4 5.9 2.4 11.8 2.4 5.9-2.4 11.8-2.4 5.9 2.4 11.8 2.4 5.9-2.4 11.8-2.4 5.9 2.4 11.8 2.4 5.9-2.4 11.8-2.4m-62.8 20c5.9 0 5.9-2.4 11.8-2.4s5.9 2.4 11.8 2.4 5.9-2.4 11.8-2.4 5.9 2.4 11.8 2.4 5.9-2.4 11.8-2.4 5.9 2.4 11.8 2.4m-47.2 4.5c5.9 0 5.9-2.4 11.8-2.4s5.9 2.4 11.8 2.4 5.9-2.4 11.8-2.4 5.9 2.4 11.8 2.4 5.9-2.4 11.8-2.4 5.9 2.4 11.8 2.4m-149.7-20c6 0 6 2.4 11.8 2.4 6 0 6-2.4 11.8-2.4 6 0 6 2.4 11.8 2.4 6 0 6-2.4 11.8-2.4 6 0 6 2.4 11.9 2.4s5.9-2.4 11.8-2.4S173 135 179 135s5.9-2.4 11.8-2.4" stroke="var(--illu-line)" stroke-width="1.2" stroke-miterlimit="10" stroke-linecap="round"/>
  <path d="M59.6 94a8.3 8.3 0 0 1-.1-8.6 12.3 12.3 0 0 0-3.7-16.3 8.2 8.2 0 0 1-3.5-7.3v-1c0-4.2-2.4-8-5.9-9.8a7 7 0 0 1-3.8-6.3s0 0 0 0c0-4.7-3.3-8.6-7.4-8.6-4.1 0-7.4 3.9-7.4 8.5v.7a6.7 6.7 0 0 1-3.3 6 11 11 0 0 0-5.3 9.5v.3a9 9 0 0 1-4 7.7A12.3 12.3 0 0 0 11 85.4c1.6 2.7 1.6 6 0 8.6a12.2 12.2 0 0 0 4 17.1l.1.1c2.3 1.3 3.9 3.4 4.7 5.9 2.2 6.4 8.3 10 15.4 10 7.2 0 13.3-3.6 15.4-10a11 11 0 0 1 5.2-6.1 12.3 12.3 0 0 0 3.7-17h0Z" fill="var(--illu-gray)" stroke="var(--illu-line)" stroke-width="1.2" stroke-miterlimit="10" stroke-linecap="round"/>
  <path d="M35.3 144.4V58.2m0 55.5 10.5-13.4M35.3 77.9l8-10.2m-8 29.9L23.6 85.2" stroke="var(--illu-line)" stroke-width="1.2" stroke-miterlimit="10" stroke-linecap="round"/>
  <path d="M134.3 40c-.1-1.6.2-3.1 1-4.4a10.8 10.8 0 0 0-6-16 3.9 3.9 0 0 1-2.5-2.8 9 9 0 0 0-17.4 0 3.8 3.8 0 0 1-2.5 2.8 10.8 10.8 0 0 0-6 16 6.7 6.7 0 0 1 1 4.3l-.1 1a10 10 0 0 0 12.4 9.8c2.5-.7 5.2-.7 7.8 0a10 10 0 0 0 12.4-9.7v-1Z" fill="var(--illu-gray)" stroke="var(--illu-line)" stroke-width="1.2" stroke-linejoin="round"/>
  <path d="M117.9 59.8V21m0 17-9.2-8.7m9.2 13.7 9.3-5.8" stroke="var(--illu-line)" stroke-width="1.2" stroke-miterlimit="10" stroke-linecap="round"/>
  <path d="M218.8 42.9h-19.5v4h19.5v-4Z" fill="var(--illu-highlight)" stroke="var(--illu-line)" stroke-width="1.2" stroke-linejoin="round"/>
  <path d="m191.6 27.2-3 19.7H207l4.6 1.3V26.7l-19.9.5Z" fill="var(--illu-highlight)" stroke="var(--illu-line)" stroke-width="1.2"/>
  <path d="M222.6 30.5a16 16 0 1 0-21 15v6.3h11.6V45c5.6-2.5 9.4-8 9.4-14.5Z" fill="var(--illu-white)"/>
  <path d="M222.6 30.5a16 16 0 1 0-21 15v6.3h11.6V45c5.6-2.5 9.4-8 9.4-14.5Z" stroke="var(--illu-line)" stroke-width="1.2"/>
  <path d="M205.6 28.8a1.1 1.1 0 1 0 0-2.2 1.1 1.1 0 0 0 0 2.2Zm-7.2-1.1a1.1 1.1 0 1 0 0-2.2 1.1 1.1 0 0 0 0 2.2Z" fill="var(--illu-line)"/>
  <path d="M200.8 32.8c-1-.2-1.6-1-1.4-2 .1-1 1-1.6 2-1.5h.2" stroke="var(--illu-line)" stroke-width="1.2" stroke-miterlimit="10" stroke-linecap="round"/>
  <path d="M203.3 35.5c-.8.7-1.9.8-2.7.4" stroke="var(--illu-line)" stroke-width="1.2" stroke-linecap="round" stroke-linejoin="round"/>
  <path d="M201.7 46v2.5c0 1.2-1 2.2-2.1 2.3-3.7.4-8.6.8-12.1 1.4-8.5 1.5-23.2 5.3-38.1 10.2-5 1.7-6.1 7.7-2.3 10.7l24 18.8 5.3-6.4L162 71.8l18.4-4a3.7 3.7 0 0 1 4.5 3.9l-1.5 24.6 48.5-1.6-1.7-22c-.3-3 1.5-5.6 5-4.9l13.2 2.8-16.9 7.7 2.6 7.9 31.3-9.6c7-2.2 7.6-10.6 1-12.8 0 0-14.8-5.3-25.3-8.4a136 136 0 0 0-25.8-4.4 2.4 2.4 0 0 1-2-2.4v-2.5" fill="var(--illu-white)"/>
  <path d="M201.7 46v2.5c0 1.2-1 2.2-2.1 2.3-3.7.4-8.6.8-12.1 1.4-8.5 1.5-23.2 5.3-38.1 10.2-5 1.7-6.1 7.7-2.3 10.7l24 18.8 5.3-6.4L162 71.8l18.4-4a3.7 3.7 0 0 1 4.5 3.9l-1.5 24.6 48.5-1.6-1.7-22c-.3-3 1.5-5.6 5-4.9l13.2 2.8-16.9 7.7 2.6 7.9 31.3-9.6c7-2.2 7.6-10.6 1-12.8 0 0-14.8-5.3-25.3-8.4a136 136 0 0 0-25.8-4.4 2.4 2.4 0 0 1-2-2.4v-2.5" stroke="var(--illu-line)" stroke-width="1.2" stroke-linejoin="round"/>
  <path d="m194.8 59.5-9.2 13-.7 4.3a35.8 35.8 0 0 0 23 0l-13-17.3Zm26.2 0-13 17.3a40.3 40.3 0 0 0 22.2 0l-.6-5-8.6-12.3Z" fill="var(--illu-highlight)" stroke="var(--illu-line)" stroke-width="1.2" stroke-linejoin="round"/>
  <path d="M221 59.5v-8m-26 10V50.8" stroke="var(--illu-line)" stroke-width="1.2" stroke-linejoin="round"/>
  <path d="m252.6 68.7-5.5 2.5M159 69l3.9 3.7" stroke="var(--illu-line)" stroke-width="1.2" stroke-linecap="round"/>
  <path fill-rule="evenodd" clip-rule="evenodd" d="M198.8 44.3c2.3 1.3 5 2 7.9 2l-8-2Z" fill="var(--illu-white)"/>
  <path d="M198.8 44.3c2.3 1.3 5 2 7.9 2" stroke="var(--illu-line)" stroke-width="1.2" stroke-linecap="round"/>
  <path d="M171.2 80.6 178 87c.5.5 1 1.2 1 2l2 11-12 .1-3.8-11.8c-.2-.8-.7-1.5-1.4-2l-3.5-3" fill="var(--illu-white)"/>
  <path d="M171.2 80.6 178 87c.5.5 1 1.2 1 2l2 11-12 .1-3.8-11.8c-.2-.8-.7-1.5-1.4-2l-3.5-3" stroke="var(--illu-line)" stroke-width="1.2" stroke-linecap="square" stroke-linejoin="round"/>
  <path d="m176.3 90.8 1.6 9m-4.7-7.4 1.4 7.4m-4.5-6.4 1.5 6.6" stroke="var(--illu-line)" stroke-width="1.2" stroke-linecap="round" stroke-linejoin="round"/>
  <path d="M182 93.5c3.2-.6 4-2.2 8.8-2.2 5.9 0 5.9 2.4 11.8 2.4s5.9-2.4 11.8-2.4c6 0 6 2.4 11.8 2.4 6 0 6-2.4 11.8-2.4 3.7 0 5 1 7 1.6v8.8h-62.3s-1.6-8-.8-8.2Z" fill="var(--illu-white)"/>
  <path d="M180.2 93.7c4.7-.3 5.2-2.4 10.6-2.4 6 0 6 2.4 11.8 2.4 6 0 6-2.4 11.8-2.4 6 0 6 2.4 11.8 2.4 6 0 6-2.4 11.8-2.4 3.7 0 5 1 7 1.6" stroke="var(--illu-line)" stroke-width="1.2" stroke-miterlimit="10" stroke-linecap="round"/>
  <path d="m230 86-1.1 5.6m3.7-4.1-1 4.3" stroke="var(--illu-line)" stroke-width="1.2" stroke-linecap="round" stroke-linejoin="round"/>
  <path d="M137.7 98.1c1.4-.5 3-1.2 5.9-1.2 5.9 0 5.9 2.4 11.8 2.4s5.9-2.4 11.8-2.4 5.9 2.4 11.8 2.4 5.9-2.4 11.8-2.4 5.9 2.4 11.8 2.4v4.3h-64.1l-.9-5.5Z" fill="var(--illu-white)"/>
  <path d="M137.7 98.1c1.4-.5 3-1.2 5.9-1.2 5.9 0 5.9 2.4 11.8 2.4s5.9-2.4 11.8-2.4 5.9 2.4 11.8 2.4 5.9-2.4 11.8-2.4 5.9 2.4 11.8 2.4" stroke="var(--illu-line)" stroke-width="1.2" stroke-miterlimit="10" stroke-linecap="round"/>
  <path d="m226 85.2-4.8 1.2c-1.3.4-2.6 0-3.5-1l-.5-.7 15.6-7" fill="var(--illu-white)"/>
  <path d="m226 85.2-4.8 1.2c-1.3.4-2.6 0-3.5-1l-.5-.7 15.6-7" stroke="var(--illu-line)" stroke-width="1.2" stroke-linejoin="round"/>
  <path d="m235.7 76.4-8.6 3.8a4 4 0 0 0-2.2 2.8l-1.7 9.9 12.1.1 3-8.2 5.2-1.6" fill="var(--illu-white)"/>
  <path d="m235.7 76.4-8.6 3.8a4 4 0 0 0-2.2 2.8l-1.7 9.9 12.1.1 3-8.2 5.2-1.6" stroke="var(--illu-line)" stroke-width="1.2" stroke-linecap="square" stroke-linejoin="round"/>
  <path d="m224.8 84-2 11a1.4 1.4 0 0 0 1.5 1.7c.7 0 1.4-.5 1.5-1.3l2-10.8" fill="var(--illu-white)"/>
  <path d="m224.8 84-2 11a1.4 1.4 0 0 0 1.5 1.7c.7 0 1.4-.5 1.5-1.3l2-10.8" stroke="var(--illu-line)" stroke-width="1.2" stroke-linecap="round" stroke-linejoin="round"/>
  <path d="m230.8 86.3-2.2 11.2c-.1.8-.7 1.3-1.5 1.3-.5 0-1-.2-1.2-.6-.3-.3-.4-.8-.4-1.3l2.3-12.3" fill="var(--illu-white)"/>
  <path d="m230.8 86.3-2.2 11.2c-.1.8-.7 1.3-1.5 1.3-.5 0-1-.2-1.2-.6-.3-.3-.4-.8-.4-1.3l2.3-12.3" stroke="var(--illu-line)" stroke-width="1.2" stroke-linecap="round" stroke-linejoin="round"/>
  <path d="m233.6 88.1-1.9 8c-.1.6-.7 1-1.4 1-.4 0-.8-.1-1-.4-.3-.3-.4-.7-.3-1l1.8-9.4" fill="var(--illu-white)"/>
  <path d="m233.6 88.1-1.9 8c-.1.6-.7 1-1.4 1-.4 0-.8-.1-1-.4-.3-.3-.4-.7-.3-1l1.8-9.4" stroke="var(--illu-line)" stroke-width="1.2" stroke-linecap="round" stroke-linejoin="round"/>
  <path d="m238.2 85.3-3.4 9c-.2.7-.8 1-1.4 1-.4 0-.7-.1-1-.4-.2-.3-.2-.7-.2-1l1.4-5.8" fill="var(--illu-white)"/>
  <path d="m238.2 85.3-3.4 9c-.2.7-.8 1-1.4 1-.4 0-.7-.1-1-.4-.2-.3-.2-.7-.2-1l1.4-5.8" stroke="var(--illu-line)" stroke-width="1.2" stroke-linecap="round" stroke-linejoin="round"/>
  <path d="M143.6 101.7c5.9 0 5.9 2.4 11.8 2.4s5.9-2.4 11.8-2.4 5.9 2.4 11.8 2.4 5.9-2.4 11.8-2.4 5.9 2.4 11.8 2.4 5.9-2.4 11.8-2.4 5.9 2.4 11.8 2.4" stroke="var(--illu-line)" stroke-width="1.2" stroke-miterlimit="10" stroke-linecap="round"/>
  <path d="M118.7 149.8a7 7 0 0 1 .9-4.4 10.8 10.8 0 0 0-6-16 3.9 3.9 0 0 1-2.5-2.7 9 9 0 0 0-17.4 0 3.8 3.8 0 0 1-2.5 2.8 10.8 10.8 0 0 0-6 16 6.7 6.7 0 0 1 1 4.3l-.1 1a10 10 0 0 0 12.4 9.7c2.6-.6 5.2-.6 7.8 0a10 10 0 0 0 12.4-9.7v-1Z" fill="var(--illu-white)" stroke="var(--illu-line)" stroke-width="1.2" stroke-linejoin="round"/>
  <path d="M102.2 169.6V131m0 16.8-9.2-8.6m9.2 13.6 9.3-5.8" stroke="var(--illu-line)" stroke-width="1.2" stroke-miterlimit="10" stroke-linecap="round"/>
  <path d="M275.7 178.3a7 7 0 0 1 1-4.4 10.8 10.8 0 0 0-6-16 3.9 3.9 0 0 1-2.5-2.7 9 9 0 0 0-17.4 0 3.8 3.8 0 0 1-2.6 2.8 10.8 10.8 0 0 0-6 15.9 6.7 6.7 0 0 1 1 4.3v1.1a10 10 0 0 0 12.4 9.7c2.5-.6 5.2-.6 7.7 0l2.4.3a10 10 0 0 0 10-10v-1Z" fill="var(--illu-gray)" stroke="var(--illu-line)" stroke-width="1.2" stroke-linejoin="round"/>
  <path d="M259.3 198v-38.6m0 16.8-9.2-8.5m9.2 13.5 9.3-5.7" stroke="var(--illu-line)" stroke-width="1.2" stroke-miterlimit="10" stroke-linecap="round"/>
  <path d="M222.1 26.4a15.9 15.9 0 0 0-30.5-1c5-.3 9.3-2.5 12.3-6 1.8 4.2 5.1 7.5 9.3 9.3l-1.7 19.6h16.1l-5.5-21.8Z" fill="var(--illu-highlight)" stroke="var(--illu-line)" stroke-width="1.2" stroke-linejoin="round"/>
  <path d="M217.3 35c1.4.3 2.8-.7 3-2 .2-1.5-.7-2.8-2.1-3h-.6l-.3 5h0Z" fill="var(--illu-white)" stroke="var(--illu-line)" stroke-width="1.2" stroke-linecap="round"/>
  <path d="M204 19.4c2.3 5.6 7.5 9.7 13.8 10.5l-13.9-10.5Z" fill="var(--illu-highlight)"/>
  <path d="M204 19.4c2.3 5.6 7.5 9.7 13.8 10.5" stroke="var(--illu-line)" stroke-width="1.2" stroke-linecap="round" stroke-linejoin="round"/>
  <path d="M245.5 177.3a9.2 9.2 0 0 1-2.4-6.2 7.6 7.6 0 1 0-15.2 0c0 2.3-.8 4.5-2.3 6.2a13.3 13.3 0 1 0 20 0h-.1Z" fill="var(--illu-white)" stroke="var(--illu-line)" stroke-width="1.2" stroke-linejoin="round"/>
  <path d="M235.5 206.9v-16.5l-4.4-12.3m4.4 12.4 6.3-8" stroke="var(--illu-line)" stroke-width="1.2" stroke-miterlimit="10" stroke-linecap="round"/>
  <path d="M64.6 124.7a9.2 9.2 0 0 1-2.3-6.2 7.6 7.6 0 1 0-15.2 0c0 2.3-.9 4.5-2.4 6.2a13.3 13.3 0 1 0 20 0Z" fill="var(--illu-white)" stroke="var(--illu-line)" stroke-width="1.2" stroke-linejoin="round"/>
  <path d="M54.7 154.2v-16.4l-4.5-12.3m4.5 12.3 6.2-7.9" stroke="var(--illu-line)" stroke-width="1.2" stroke-miterlimit="10" stroke-linecap="round"/>
  <path d="M109.1 59.4c-3 0-5.4 2.5-5.4 5.5v5.8h3.4v-5.8a2 2 0 0 1 4.1 0v11.4h-18V64.9a5.5 5.5 0 0 0-10.9 0v5.8h3.4v-5.8a2 2 0 0 1 4.2 0v30.4c0 1 .7-1.3 1.7-1.3s1.7.4 1.7-.5v-4.4h18v5.7c0 1 .7.6 1.6.6 1 0 1.8-.8 1.8-1.8V65c0-3-2.5-5.5-5.5-5.5Zm2.1 26.3h-18v-6h18v6Z" fill="var(--illu-white)" stroke="var(--illu-line)" stroke-width="1.2" stroke-linejoin="round"/>
  <path d="M79.2 95.3c.9.1 1.8.3 3 .3 5.8 0 5.8-2.4 11.7-2.4 6 0 6 2.4 11.9 2.4s5.9-2.4 11.8-2.4 5.9 2.4 11.8 2.4v4.4l-50.5-1.3.3-3.4Z" fill="var(--illu-white)"/>
  <path d="M79.2 95.3c.8.1 1.8.3 3 .3 5.8 0 5.8-2.4 11.7-2.4 6 0 6 2.4 11.8 2.4 6 0 6-2.4 11.8-2.4 6 0 6 2.4 11.9 2.4" stroke="var(--illu-line)" stroke-width="1.2" stroke-miterlimit="10" stroke-linecap="round"/>
</svg>