<svg width="302" height="233" fill="none"
  xmlns="http://www.w3.org/2000/svg">
  <mask id="a" style="mask-type:luminance" maskUnits="userSpaceOnUse" x="0" y="0" width="302" height="233">
    <path d="M302 .4H0V233h302V.4Z" fill="#fff"/>
  </mask>
  <g mask="url(#a)">
    <path d="M301.4 82.3a30 30 0 0 0-8.8-21.3l-18.5-18.4a30 30 0 0 0-21.3-8.9h-77.7a18 18 0 0 0-18 18v12.4c0 10-8.2 18-18.1 18H18.7c-10 0-18 8-18 18v114.1c0 10 8 18 18 18h115.6a30 30 0 0 0 21.3-8.8l18.5-18.4a30 30 0 0 1 21.3-8.9h88c10 0 18-8 18-18V82.3Z" fill="var(--illu-line)" stroke="var(--illu-line)" stroke-width="1.2" stroke-miterlimit="10"/>
    <path d="M301.4 58.2a30 30 0 0 0-8.8-21.2l-18.5-18.5a30 30 0 0 0-21.3-8.8h-77.7c-10 0-18 8-18 18V40c0 10-8.2 18-18.1 18H18.7a18 18 0 0 0-18 18v114.1c0 10 8 18 18 18h115.6a30 30 0 0 0 21.3-8.7l18.5-18.5a30 30 0 0 1 21.3-8.8h88c10 0 18-8.1 18-18v-96Z" fill="var(--illu-bg)" stroke="var(--illu-line)" stroke-width="1.2" stroke-miterlimit="10"/>
    <path d="M200.5 21a9.2 9.2 0 0 1-2.5-6 7.6 7.6 0 1 0-15.2 0c0 2.2-.9 4.4-2.4 6.2a13.4 13.4 0 1 0 20 0Z" fill="var(--illu-bg)" stroke="var(--illu-line)" stroke-width="1.2" stroke-linejoin="round"/>
    <path d="M190.5 50.7V34.2L186 22m4.5 12.2 6.2-7.9" stroke="var(--illu-line)" stroke-width="1.2" stroke-miterlimit="10" stroke-linecap="round"/>
    <path d="M244.5 31c-.2-1.5.1-3.1 1-4.4a11 11 0 0 0 1.5-5.7c0-4.8-3.1-8.9-7.5-10.3a3.9 3.9 0 0 1-2.6-2.8 9 9 0 0 0-17.4 0 3.8 3.8 0 0 1-2.6 2.8 10.8 10.8 0 0 0-6 16 6.7 6.7 0 0 1 1 4.3V32a10 10 0 0 0 12.4 9.7c2.5-.6 5.2-.6 7.8 0a10 10 0 0 0 12.4-9.7v-1Z" fill="var(--illu-bg)" stroke="var(--illu-line)" stroke-width="1.2" stroke-linejoin="round"/>
    <path d="M228 50.8V12m0 17-9.2-8.7M228 34l9.4-5.8" stroke="var(--illu-line)" stroke-width="1.2" stroke-miterlimit="10" stroke-linecap="round"/>
    <path d="M238 39.4c0 4.5 2.3 8.5 5.9 10.8 1.6 1 2.5 2.9 2.5 4.8v.8a10.3 10.3 0 0 0 20.5-.5c0-1.9 1-3.7 2.6-4.6a13 13 0 0 0 3.7-19.5 8.3 8.3 0 0 1-1.8-6.6l.1-1.6c0-3.6-1.8-6.7-4.5-8.5a5 5 0 0 1-2.1-3.6 8 8 0 0 0-16 0c-.2 1.6-1 2.9-2.2 3.8a10.2 10.2 0 0 0-4 9.9c.3 2.4-.3 4.7-1.8 6.6a13 13 0 0 0-3 8.2Z" fill="var(--illu-bg)" stroke="var(--illu-line)" stroke-width="1.2" stroke-linejoin="round"/>
    <path d="M257 74.1V19.5m0 20.5 7.8-9.9M257 50l-7.6-8.2" stroke="var(--illu-line)" stroke-width="1.2" stroke-miterlimit="10" stroke-linecap="round"/>
    <path d="M34 110.6a2.3 2.3 0 0 1 0-4.5h29a6 6 0 0 0 6-5.2l3-27.2a2.2 2.2 0 0 1 2.5-2c1.3.3 2.1 1.4 2 2.7l-3 27.1c-.6 5.2-5.2 9.1-10.5 9.1h-2.7c-2 0-3.7 1.6-3.7 3.7V136c0 1.8 1.3 3.3 3 3.6l13.6 3.2v2.2H34.1v-2.2l13.6-3.2c1.7-.3 3-1.8 3-3.6v-21.7c0-2-1.6-3.7-3.7-3.7H34Z" fill="var(--illu-bg)" stroke="var(--illu-line)" stroke-width="1.2" stroke-linejoin="round"/>
    <path d="m111.8 65.2-3.6 32.7c-.2 2-1.7 3.5-3.7 3.8a121.2 121.2 0 0 1-29.8 0c-1.8-.2-3-1.9-2.9-3.8l3.6-32.7A3.6 3.6 0 0 1 79 62h36.4a3.6 3.6 0 0 0-3.6 3.2Zm44.8-3.2h-36.4a3.6 3.6 0 0 0-3.5 3.2L113 97.9c-.2 1.9 1 3.6 2.9 3.8 9 1.2 19 1.2 29.7 0 2-.3 3.5-1.8 3.8-3.8l3.6-32.7a3.6 3.6 0 0 1 3.5-3.2Zm41.4 0h-36.4a3.6 3.6 0 0 0-3.6 3.2l-3.6 32.7a3.4 3.4 0 0 0 3 3.8c9 1.2 18.9 1.2 29.7 0 2-.3 3.5-1.8 3.7-3.8l3.6-32.7A3.6 3.6 0 0 1 198 62Zm41.3 0H203a3.6 3.6 0 0 0-3.6 3.2l-3.6 32.7c-.2 1.9 1 3.6 3 3.8 9 1.2 18.8 1.2 29.7 0 2-.3 3.5-1.8 3.7-3.8l3.6-32.7a3.6 3.6 0 0 1 3.5-3.2Zm41.4 0h-36.4a3.6 3.6 0 0 0-3.5 3.2l-3.6 32.7c-.2 1.9 1 3.6 2.9 3.8 10 1.3 21 1.2 33-.5l4-36a3.6 3.6 0 0 1 3.6-3.2Z" fill="var(--illu-gray)"/>
    <path d="m111.8 65.2-3.6 32.7c-.2 2-1.7 3.5-3.7 3.8a121.2 121.2 0 0 1-29.8 0c-1.8-.2-3-1.9-2.9-3.8l3.6-32.7A3.6 3.6 0 0 1 79 62h36.4a3.6 3.6 0 0 0-3.6 3.2Zm44.8-3.2h-36.4a3.6 3.6 0 0 0-3.5 3.2L113 97.9c-.2 1.9 1 3.6 2.9 3.8 9 1.2 19 1.2 29.7 0 2-.3 3.5-1.8 3.8-3.8l3.6-32.7a3.6 3.6 0 0 1 3.5-3.2Zm41.4 0h-36.4a3.6 3.6 0 0 0-3.6 3.2l-3.6 32.7a3.4 3.4 0 0 0 3 3.8c9 1.2 18.9 1.2 29.7 0 2-.3 3.5-1.8 3.7-3.8l3.6-32.7A3.6 3.6 0 0 1 198 62Zm41.3 0H203a3.6 3.6 0 0 0-3.6 3.2l-3.6 32.7c-.2 1.9 1 3.6 3 3.8 9 1.2 18.8 1.2 29.7 0 2-.3 3.5-1.8 3.7-3.8l3.6-32.7a3.6 3.6 0 0 1 3.5-3.2Zm41.4 0h-36.4a3.6 3.6 0 0 0-3.5 3.2l-3.6 32.7c-.2 1.9 1 3.6 2.9 3.8 10 1.3 21 1.2 33-.5l4-36a3.6 3.6 0 0 1 3.6-3.2Z" stroke="var(--illu-line)" stroke-width="1.2" stroke-linejoin="round"/>
    <path d="M256 106H67v4h189v-4Z" fill="var(--illu-bg)" stroke="var(--illu-line)" stroke-width="1.2" stroke-linejoin="round"/>
    <path d="M73.1 106h-34a4.7 4.7 0 0 0-4.7 4.2v.6a2.1 2.1 0 0 0 2 2.4h28.9c1.6 0 3-1.1 3.2-2.7v-.3a4.7 4.7 0 0 1 4.7-4.1Z" fill="var(--illu-gray)" stroke="var(--illu-line)" stroke-width="1.2" stroke-linejoin="round"/>
    <path d="M99.6 106a6 6 0 0 0 6-5.1l3-27.2a2.2 2.2 0 0 1 2.6-2c1.2.3 2 1.4 1.9 2.7l-3 27.1c-.6 5.2-5.2 9.1-10.5 9.1H97c-2 0 2.7-4.6 2.7-4.6Z" fill="var(--illu-bg)" stroke="var(--illu-line)" stroke-width="1.2" stroke-linejoin="round"/>
    <path d="M114.4 106h143.4" stroke="var(--illu-line)" stroke-width="1.2" stroke-linejoin="round"/>
    <path d="M256 119H53.7v7.9H256v-8Zm-141.6-13h-34a4.7 4.7 0 0 0-4.7 4.2l-.1.6a2.1 2.1 0 0 0 2.1 2.4h28.8c1.7 0 3-1.1 3.2-2.7v-.3a4.7 4.7 0 0 1 4.7-4.1Zm26.5 0a6 6 0 0 0 6-5.1l3-27.2a2.2 2.2 0 0 1 2.5-2c1.3.3 2 1.4 2 2.7l-3 27.1c-.6 5.2-5.3 9.1-10.5 9.1H138c-2 0 2.8-4.6 2.8-4.6Z" fill="var(--illu-bg)" stroke="var(--illu-line)" stroke-width="1.2" stroke-linejoin="round"/>
    <path d="M155.7 106h-34a4.7 4.7 0 0 0-4.7 4.2v.6a2.1 2.1 0 0 0 2 2.4h29c1.6 0 3-1.1 3.2-2.7v-.3a4.7 4.7 0 0 1 4.7-4.1Zm26.7 0a6 6 0 0 0 6-5.1l3-27.2a2.2 2.2 0 0 1 2.6-2c1.2.3 2 1.4 2 2.7l-3 27.1c-.7 5.2-5.3 9.1-10.6 9.1h-2.7c-2 0 2.7-4.6 2.7-4.6Z" fill="var(--illu-bg)" stroke="var(--illu-line)" stroke-width="1.2" stroke-linejoin="round"/>
    <path d="M197.1 106h-34a4.7 4.7 0 0 0-4.7 4.2v.6a2.1 2.1 0 0 0 2 2.4h28.9c1.6 0 3-1.1 3.2-2.7v-.3a4.7 4.7 0 0 1 4.6-4.1Z" fill="var(--illu-gray)" stroke="var(--illu-line)" stroke-width="1.2" stroke-linejoin="round"/>
    <path d="M224 106a6 6 0 0 0 6-5.1l3-27.2a2.2 2.2 0 0 1 2.6-2c1.2.3 2 1.4 1.9 2.7l-3 27.1c-.6 5.2-5.2 9.1-10.5 9.1h-2.7c-2 0 2.7-4.6 2.7-4.6Z" fill="var(--illu-bg)" stroke="var(--illu-line)" stroke-width="1.2" stroke-linejoin="round"/>
    <path d="M238.5 106h-34a4.7 4.7 0 0 0-4.7 4.2l-.1.6a2.2 2.2 0 0 0 2.1 2.4h28.8c1.7 0 3-1.1 3.2-2.7v-.3a4.7 4.7 0 0 1 4.7-4.1Z" fill="var(--illu-gray)" stroke="var(--illu-line)" stroke-width="1.2" stroke-linejoin="round"/>
    <path d="M237.4 110.6a2.3 2.3 0 0 1 0-4.5H265a6 6 0 0 0 6-5.2l3-27.2a2.2 2.2 0 0 1 2.6-2c1.2.3 2 1.4 2 2.7l-3 27.1c-.7 5.2-5.3 9.1-10.6 9.1h-27.7Z" fill="var(--illu-bg)" stroke="var(--illu-line)" stroke-width="1.2" stroke-linejoin="round"/>
    <path d="M236.1 110.6a2.3 2.3 0 0 1 0-4.5h29a6 6 0 0 0 6-5.2l3-27.2a2.2 2.2 0 0 1 2.6-2c1.2.3 2 1.4 1.9 2.7l-3 27.1c-.6 5.2-5.2 9.1-10.5 9.1h-2.7c-2 0-3.7 1.6-3.7 3.7V136c0 1.8 1.3 3.3 3 3.6l13.7 3.2v2.2h-39.2v-2.2l13.6-3.2c1.8-.3 3-1.8 3-3.6v-21.7c0-2-1.6-3.7-3.6-3.7h-13Z" fill="var(--illu-bg)" stroke="var(--illu-line)" stroke-width="1.2" stroke-linejoin="round"/>
    <path d="M200.7 86A48.5 48.5 0 0 0 152 51.4c-27.7 0-50.2 22-51.2 49.4h5.8l-29.7 5c-12.2 12.2 7.5 31 28.4 47.3 9.5 7.3-8.7 13.5-27.5 18.6a31.5 31.5 0 0 0-10.4 4.7l-2-.9-4.8 3.8 3.8 5.4c2.2 3 9.2 5.7 23 6.2 27.1 1.1 53.5-6.6 52.3-19-1-9.2 27-.9 38.5-24.8 8.8-18.2-5.9-34.8 5.3-40 1.2-.7 2.5-1 3.9-1h2.6c2.2 0 6.6-1 9.4-5.3 2.5-4 2.6-10.8 1.4-14.7Z" fill="var(--illu-highlight)" stroke="var(--illu-line)" stroke-width="1.2" stroke-linejoin="round"/>
    <path d="M145.8 51.3c-27.7 0-50.2 22-51.2 49.4h95.8c1.9 0 3.6-1.2 4.2-3a22 22 0 0 0 0-11.7 48.5 48.5 0 0 0-48.8-34.7Z" fill="var(--illu-highlight)" stroke="var(--illu-line)" stroke-width="1.2" stroke-linejoin="round"/>
    <path d="M98.4 100.7a47.3 47.3 0 0 1 47.4-45.6C168 55 185 67 191 87c1 3.2.8 7.4-.4 10.6-.8 1.9-2.6 3-4.5 3h-9.3" fill="var(--illu-white)"/>
    <mask id="b" style="mask-type:luminance" maskUnits="userSpaceOnUse" x="98" y="55" width="94" height="46">
      <path d="M145.8 55a47.4 47.4 0 0 0-47.4 45.7h6.1c1-22.2 19-39.6 41.3-39.6 19.4 0 34.1 10.4 39.4 27.8.8 2.7-.4 10.5-1.5 11.8h5c2.9-3.2 3.6-9.3 2.3-13.6-6.1-20-23-32-45.2-32Z" fill="#fff"/>
    </mask>
    <g mask="url(#b)" stroke-linejoin="round">
      <path d="m65 140.9 149.1-64.2M60.6 127.4l158-37.3M59 99.3l161.2 19M61.9 85.5 217.3 132M67.1 72.3l145 73m-137.6-85 130.2 97M84 49.7l111.3 118.1M95 41l89.2 135.6M107.5 34.2l64.2 149.1M121 29.8l37.3 158M135 27.8l9.3 162M149 28.2l-18.9 161.2M162.9 31l-46.6 155.5M176 36.3l-72.9 145m85-137.6-97 130.1M198.6 53.1l-118 111.3M207.4 64.2 71.8 153.3m142.3-76.6-149 64.2m153.5-50.8-158 37.3m159.6-9.1L59 99.3M217.3 132 62 85.6m150 59.6L67.2 72.3m137.5 85-130.2-97m120.8 107.5L83.9 49.8m100.3 126.8L95 41m76.7 142.3-64.2-149m50.8 153.4L120.9 29.8m23.4 160-9.4-162m-4.8 161.6 19-161.2" stroke="var(--illu-line)" stroke-width="1.2"/>
      <path d="M98.4 100.7a47.3 47.3 0 0 1 47.4-45.6C168 55 185 67 191 87c1.3 4.3.6 10.4-2.2 13.6" stroke="var(--illu-white)" stroke-width="3.6"/>
    </g>
    <path d="M98.4 100.7a47.3 47.3 0 0 1 47.4-45.6C168 55 185 67 191 87c1 3.2.8 7.4-.4 10.6-.8 1.9-2.6 3-4.5 3h-9.3" stroke="var(--illu-line)" stroke-width="1.2" stroke-linejoin="round"/>
    <path d="M83.4 185.5c27.2 1.1 53.6-5.2 51-18.8-1.7-9 30.1-.3 40-25 5.7-14.6-9.4-35.3 7.4-41H82.6a9 9 0 0 0-7.4 3.9c-8.4 12-5.8 28.4 13 43 9.5 7.3 4.4 13.6-14.3 18.7-17.2 4.6-24 17.9 9.5 19.2Z" fill="var(--illu-highlight)" stroke="var(--illu-line)" stroke-width="1.2" stroke-linejoin="round"/>
    <path d="M88.8 100.7c-3.3 0-6.4 1.4-8.6 3.8a21 21 0 0 0-5.7 15.5c.5 8.4 6 16.9 16 24.6 4.8 3.7 6.8 7.6 6 11.5-1.1 5.8-8 10.1-21.6 13.8-19.8 5.4-6.8 11.2 8.7 11.8l6 .2c19.2 0 34.9-3.8 39.8-9.8 1.2-1.5 1.6-3 1.3-4.7-.4-2.3.3-4 1-5 2.1-3.1 6.5-4 12-5 9.8-1.8 22-4 27.1-17 2-5 1-11.3 0-17.4-1.1-7.6-2.5-16.6 3.5-22.3H88.8Z" fill="var(--illu-white)"/>
    <path d="M124.1 115.2c-6.7 12-11.8 16.5-6.8 24 5.2 7.7 6.8 14.8.3 18.4-6.5 3.7-3.4 9.5-15.2 12.6m36.2-69.5-11.3-27.3" stroke="var(--illu-line)" stroke-width="1.2" stroke-linejoin="round"/>
    <path d="m107.5 165.2 4.5 4s-9.7 2.4-13.5 2.6a52 52 0 0 0 9-6.6Zm19.8-91.8.8 10.2 5.8-2.4-6.6-7.8Z" fill="var(--illu-line)" stroke="var(--illu-line)" stroke-width="1.2" stroke-linejoin="round"/>
    <mask id="c" style="mask-type:luminance" maskUnits="userSpaceOnUse" x="64" y="100" width="111" height="82">
      <path d="M88.8 100.7c-3.3 0-6.4 1.4-8.6 3.8a21 21 0 0 0-5.7 15.5c.5 8.4 6.1 16.9 16 24.6 4.8 3.7 6.8 7.6 6 11.5-1.1 5.8-8 10.1-21.6 13.8-19.8 5.4-6.8 11.2 8.7 11.8l6 .2c19.2 0 34.9-3.9 39.8-9.8 1.2-1.5 1.6-3 1.3-4.7-.4-2.3.3-4 1-5 2.1-3.1 6.5-4 12-5 9.8-1.8 22-4 27.1-17 2-5 1-11.3 0-17.4-1.1-7.6-2.5-16.6 3.5-22.3H88.8Z" fill="#fff"/>
    </mask>
    <g mask="url(#c)" stroke-linejoin="round">
      <path d="m80.6 181.8 12.4-6.6m14.4 6.6 3.1-7.8m13.1 2.5-.6-8m8.2-3.9-3.3-8.2m12 1.7-2.4-6.3m11.7 4.6-2.4-6.5m12 2.9-3.9-4.6m10.5-.4-4.5-4.3m10-3.9-7-3.6m8.1-7.5-8-2.1m6.7-7.6-8-1.7m7.1-8.8h-7.1m-69.2 53 10-4.9M90 145.8l7.8-4.3m-15.2-3.2 7-4.2M78 130.6l7-3.3m-11-5.6 9.2-1.8m-8.9-8 9.1-.6m-4.8-7 9.2.9M66.3 176l15.3-2.4" stroke="var(--illu-line)" stroke-width="1.2"/>
      <path d="M84.3 100.7c-6.8 5.3-10.3 12-9.8 19.3.5 8.3 6.1 16.9 16 24.6 4.8 3.7 6.8 7.5 6 11.5-1.1 5.7-8 10.1-21.6 13.8-19.8 5.4-6.8 11.2 8.7 11.8l6 .2c19.2 0 34.9-3.9 39.8-9.8 1.2-1.5 1.6-3 1.3-4.7-.4-2.4.3-4 1-5 2.1-3.2 6.5-4 12-5 9.8-1.8 22-4 27.1-17.1 2-5 1-11.2 0-17.3-1.1-7.6-2.5-16.7 3.5-22.3h-90Z" stroke="var(--illu-white)" stroke-width="3.6"/>
    </g>
    <path d="M88.8 100.7c-3.3 0-6.4 1.4-8.6 3.8a21 21 0 0 0-5.7 15.5c.5 8.4 6.1 16.9 16 24.6 4.8 3.7 6.8 7.6 6 11.5-1.1 5.8-8 10.1-21.6 13.8-19.8 5.4-6.8 11.2 8.7 11.8l6 .2c19.2 0 34.9-3.8 39.8-9.8 1.2-1.5 1.6-3 1.3-4.7-.4-2.3.3-4 1-5 2.1-3.1 6.5-4 12-5 9.8-1.8 22-4 27.1-17 2-5 1-11.3 0-17.4-1.1-7.6-2.5-16.6 3.5-22.3H88.8Z" stroke="var(--illu-line)" stroke-width="1.2" stroke-linejoin="round"/>
    <path d="M123.6 113.5c-7.6-4.3-6.8-10.1-2.2-12.8" stroke="var(--illu-line)" stroke-width="1.2" stroke-linejoin="round"/>
    <path d="M128.4 116.4c1-3.4 0-6.8-2.4-7.5-2.4-.7-5.1 1.5-6.2 5-1 3.4 0 6.8 2.5 7.5 2.3.7 5-1.5 6.1-5Z" fill="var(--illu-white)" stroke="var(--illu-line)" stroke-width="1.2" stroke-linejoin="round"/>
    <path d="M125.8 115.7c.4-1.4 0-2.7-1-3-.9-.2-2 .7-2.3 2-.4 1.3 0 2.6 1 2.9.8.2 1.9-.6 2.3-2Z" fill="var(--illu-white)" stroke="var(--illu-line)" stroke-width="1.2" stroke-linejoin="round"/>
    <path d="m8.5 162-1.6 16m8.1-18 1.5 18m26.2-16-1.6 16m8-18 1.6 18" stroke="var(--illu-line)" stroke-width="1.1" stroke-miterlimit="10" stroke-linecap="round"/>
    <path d="M7.8 168.3h33l3.8-40.5h-33l-3.8 40.5Z" fill="var(--illu-line)" stroke="var(--illu-line)" stroke-width="1.1" stroke-miterlimit="10"/>
    <path d="M15.8 170.4h34.3l-3.8-42.6H12.1l3.7 42.6Z" fill="var(--illu-bg)" stroke="var(--illu-line)" stroke-width="1.1" stroke-miterlimit="10"/>
    <path d="M39.6 142.4c-3.7 0-6.7 2.2-8.4 3.8a13 13 0 0 0-8.2-3.8 6.4 6.4 0 0 0 0 12.8c3.7 0 6.7-2.3 8.4-3.8 1.7 1.5 4.8 3.8 8.2 3.8 3.5 0 6.4-3 6.4-6.4 0-3.6-2.8-6.4-6.4-6.4Zm-19.5 6.4a3 3 0 0 1 2.9-3c2.2 0 4.5 1.7 6 3-1.2 1.2-3.4 2.9-6 2.9a3 3 0 0 1-3-3Zm19.5 2.9c-2.2 0-4.5-1.7-6-3 1.2-1.1 3.4-2.8 6-2.8a3 3 0 0 1 0 5.8Z" fill="var(--illu-white)" stroke="var(--illu-line)" stroke-width="1.2" stroke-linejoin="round"/>
    <path d="M32.7 145c-2.2 1.6-2.9 2.9-3.9 3.9l-1.2 1.1a4 4 0 0 0 2.4 2.6c2-1.6 2.8-2.9 3.7-3.9l1.6-1.3a4 4 0 0 0-2.6-2.5Z" fill="var(--illu-white)"/>
    <path d="M39.6 145.9a8.5 8.5 0 0 0-5.9 2.8c-1 1-1.7 2.4-4 4m-6.7-1c2.6 0 4.7-1.7 5.8-2.8 1-1 1.7-2.4 4-4.1" stroke="var(--illu-line)" stroke-width="1.2" stroke-miterlimit="10" stroke-linecap="round"/>
  </g>
</svg>
