<svg width="302" height="233" viewBox="0 0 302 233" fill="none"
  xmlns="http://www.w3.org/2000/svg">
  <mask id="mask0_110_9241" style="mask-type:luminance" maskUnits="userSpaceOnUse" x="0" y="0" width="302" height="233">
    <path d="M302 0.419922H0V232.873H302V0.419922Z" fill="white"/>
  </mask>
  <g mask="url(#mask0_110_9241)">
    <path d="M301.404 82.3059C301.404 74.3259 298.241 66.6859 292.596 61.0409L274.111 42.5555C268.466 36.9102 260.826 33.748 252.846 33.748H175.064C165.09 33.748 157.025 41.8339 157.025 51.7869V64.0539C157.025 74.0289 148.939 82.0939 138.986 82.0939H18.653C8.67805 82.0939 0.613037 90.1789 0.613037 100.133V214.205C0.613037 224.18 8.69905 232.245 18.653 232.245H134.338C142.318 232.245 149.958 229.082 155.603 223.437L174.088 204.952C179.733 199.307 187.374 196.145 195.353 196.145H283.343C293.318 196.145 301.382 188.059 301.382 178.105V82.285L301.404 82.3059Z" fill="var(--illu-line)" stroke="var(--illu-line)" stroke-width="1.2097" stroke-miterlimit="10"/>
    <path d="M301.404 58.2279C301.404 50.2479 298.241 42.6076 292.596 36.9624L274.111 18.4773C268.466 12.8321 260.826 9.66992 252.846 9.66992H175.064C165.09 9.66992 157.025 17.7558 157.025 27.7093V39.976C157.025 49.9509 148.939 58.0149 138.986 58.0149H18.653C8.67805 58.0149 0.613037 66.1009 0.613037 76.0549V190.127C0.613037 200.102 8.69905 208.167 18.653 208.167H134.338C142.318 208.167 149.958 205.004 155.603 199.359L174.088 180.874C179.733 175.229 187.374 172.067 195.353 172.067H283.343C293.318 172.067 301.382 163.981 301.382 154.027V58.2279H301.404Z" fill="var(--illu-bg)" stroke="var(--illu-line)" stroke-width="1.2097" stroke-miterlimit="10"/>
    <path d="M200.495 21.054C198.967 19.3562 198.139 17.149 198.139 14.857C198.139 10.6336 194.723 7.2168 190.499 7.2168C186.276 7.2168 182.859 10.6336 182.859 14.857C182.859 17.149 182.01 19.335 180.503 21.054C178.402 23.4097 177.129 26.487 177.129 29.8827C177.129 37.2682 183.114 43.2743 190.52 43.2743C197.927 43.2743 203.912 37.2894 203.912 29.8827C203.912 26.487 202.639 23.4097 200.538 21.054H200.495Z" fill="var(--illu-bg)" stroke="var(--illu-line)" stroke-width="1.2097" stroke-linejoin="round"/>
    <path d="M190.48 50.6939V34.2247L186.023 21.873" stroke="var(--illu-line)" stroke-width="1.2097" stroke-miterlimit="10" stroke-linecap="round"/>
    <path d="M190.477 34.2423L196.737 26.3262" stroke="var(--illu-line)" stroke-width="1.2097" stroke-miterlimit="10" stroke-linecap="round"/>
    <path d="M244.489 31.0014C244.298 29.4522 244.637 27.9029 245.444 26.5871C246.462 24.9317 247.035 23.0004 247.035 20.9206C247.035 16.0818 243.852 12.007 239.48 10.6063C238.164 10.1819 237.252 9.12067 236.912 7.78367C235.957 4.00607 232.498 1.01367 228.19 1.01367C223.881 1.01367 220.443 3.85747 219.467 7.80487C219.149 9.12067 218.215 10.1819 216.92 10.5851C212.527 11.9858 209.344 16.0606 209.344 20.8994C209.344 22.9792 209.938 24.9105 210.935 26.5659C211.742 27.8817 212.081 29.4097 211.89 30.9378C211.848 31.2561 211.827 31.6169 211.827 31.9989C211.827 37.538 216.326 42.0373 221.865 42.0373C222.693 42.0373 223.499 41.9311 224.285 41.7401C226.831 41.0822 229.505 41.0822 232.073 41.7401C232.837 41.9311 233.665 42.0373 234.493 42.0373C240.032 42.0373 244.531 37.538 244.531 31.9989C244.531 31.7867 244.531 31.4471 244.467 30.9802L244.489 31.0014Z" fill="var(--illu-bg)" stroke="var(--illu-line)" stroke-width="1.2097" stroke-linejoin="round"/>
    <path d="M227.977 50.8409V11.9824" stroke="var(--illu-line)" stroke-width="1.2097" stroke-miterlimit="10" stroke-linecap="round"/>
    <path d="M227.984 28.9349L218.773 20.3184" stroke="var(--illu-line)" stroke-width="1.2097" stroke-miterlimit="10" stroke-linecap="round"/>
    <path d="M227.977 33.9503L237.357 28.1777" stroke="var(--illu-line)" stroke-width="1.2097" stroke-miterlimit="10" stroke-linecap="round"/>
    <path d="M237.992 39.3619C237.992 43.946 240.348 47.9359 243.892 50.2279C245.484 51.2679 246.418 53.0509 246.354 54.9609C246.354 55.2369 246.354 55.5129 246.354 55.7879C246.587 60.1179 249.559 64.0439 253.761 65.1689C260.658 67.0369 266.876 61.9009 266.919 55.3219C266.919 53.4329 267.874 51.5859 269.529 50.6529C273.413 48.4239 276.066 44.2219 276.066 39.3831C276.066 36.2634 274.983 33.4195 273.158 31.1912C271.673 29.3448 271.036 26.9678 271.418 24.6333C271.503 24.0815 271.545 23.5297 271.545 22.9567C271.545 19.4125 269.741 16.314 267.025 14.4676C265.794 13.6399 265.051 12.3241 264.86 10.8597C264.33 6.91232 260.913 3.91992 256.859 3.91992C252.806 3.91992 249.346 6.97602 248.858 10.9446C248.667 12.4515 247.946 13.7673 246.736 14.6586C244.168 16.5262 242.513 19.5399 242.513 22.9567C242.513 23.5085 242.555 24.0603 242.64 24.5909C243.043 26.9678 242.428 29.3236 240.9 31.1912C239.096 33.4195 237.992 36.2634 237.992 39.3831V39.3619Z" fill="var(--illu-bg)" stroke="var(--illu-line)" stroke-width="1.2097" stroke-linejoin="round"/>
    <path d="M257.012 74.142V19.4512" stroke="var(--illu-line)" stroke-width="1.2097" stroke-miterlimit="10" stroke-linecap="round"/>
    <path d="M257.012 40.0285L264.822 30.1387" stroke="var(--illu-line)" stroke-width="1.2097" stroke-miterlimit="10" stroke-linecap="round"/>
    <path d="M257.007 49.9449L249.367 41.7949" stroke="var(--illu-line)" stroke-width="1.2097" stroke-miterlimit="10" stroke-linecap="round"/>
    <path d="M33.9971 110.602C32.7451 110.602 31.7271 109.583 31.7271 108.331C31.7271 107.079 32.7451 106.06 33.9971 106.06H62.9881C66.0011 106.06 68.6331 103.853 68.9731 100.861L71.9651 73.7169C72.0921 72.4639 73.2811 71.6159 74.5331 71.7849C75.785 71.9549 76.613 73.1009 76.4641 74.3529L73.472 101.497C72.899 106.739 68.2511 110.602 62.9881 110.602H60.2711C58.2551 110.602 56.6211 112.236 56.6211 114.252V136.005C56.6211 137.767 57.8731 139.274 59.6131 139.592L73.2381 142.839V144.961H34.0821V142.839L47.7071 139.592C49.4481 139.274 50.7001 137.767 50.7001 136.005V114.252C50.7001 112.236 49.0661 110.602 47.0491 110.602H33.9971Z" fill="var(--illu-bg)" stroke="var(--illu-line)" stroke-width="1.2097" stroke-linejoin="round"/>
    <path d="M111.823 65.2028L108.215 97.8858C108.003 99.8378 106.454 101.43 104.501 101.663C93.6771 102.916 83.7661 102.916 74.7471 101.727C72.9221 101.494 71.6271 99.7958 71.8391 97.9488L75.4471 65.2028C75.6381 63.3778 77.1871 61.9978 79.0121 61.9978H115.388C113.563 61.9978 112.014 63.3778 111.823 65.2028ZM156.624 61.9978H120.248C118.423 61.9978 116.874 63.3778 116.683 65.2028L113.075 97.9488C112.863 99.7958 114.157 101.494 115.983 101.727C125.002 102.916 134.913 102.916 145.737 101.663C147.689 101.43 149.239 99.8598 149.451 97.8858L153.059 65.2028C153.25 63.3778 154.799 61.9978 156.624 61.9978ZM197.987 61.9978H161.611C159.786 61.9978 158.237 63.3778 158.046 65.2028L154.438 97.9488C154.226 99.7958 155.521 101.494 157.346 101.727C166.365 102.916 176.276 102.916 187.1 101.663C189.053 101.43 190.602 99.8598 190.814 97.8858L194.422 65.2028C194.613 63.3778 196.162 61.9978 197.987 61.9978ZM239.35 61.9978H202.975C201.15 61.9978 199.6 63.3778 199.409 65.2028L195.801 97.9488C195.589 99.7958 196.884 101.494 198.709 101.727C207.729 102.916 217.64 102.916 228.463 101.663C230.416 101.43 231.965 99.8598 232.177 97.8858L235.785 65.2028C235.976 63.3778 237.525 61.9978 239.35 61.9978ZM280.714 61.9978H244.338C242.513 61.9978 240.963 63.3778 240.772 65.2028L237.165 97.9278C236.952 99.7748 238.247 101.472 240.093 101.727C250.047 103.022 261.04 102.916 273.18 101.239L277.148 65.2028C277.339 63.3778 278.889 61.9978 280.714 61.9978Z" fill="var(--illu-gray)"/>
    <path d="M111.823 65.2028L108.215 97.8858C108.003 99.8378 106.454 101.43 104.501 101.663C93.6771 102.916 83.7661 102.916 74.7471 101.727C72.9221 101.494 71.6271 99.7958 71.8391 97.9488L75.4471 65.2028C75.6381 63.3778 77.1871 61.9978 79.0121 61.9978H115.388C113.563 61.9978 112.014 63.3778 111.823 65.2028ZM156.624 61.9978H120.248C118.423 61.9978 116.874 63.3778 116.683 65.2028L113.075 97.9488C112.863 99.7958 114.157 101.494 115.983 101.727C125.002 102.916 134.913 102.916 145.737 101.663C147.689 101.43 149.239 99.8598 149.451 97.8858L153.059 65.2028C153.25 63.3778 154.799 61.9978 156.624 61.9978ZM197.987 61.9978H161.611C159.786 61.9978 158.237 63.3778 158.046 65.2028L154.438 97.9488C154.226 99.7958 155.521 101.494 157.346 101.727C166.365 102.916 176.276 102.916 187.1 101.663C189.053 101.43 190.602 99.8598 190.814 97.8858L194.422 65.2028C194.613 63.3778 196.162 61.9978 197.987 61.9978ZM239.35 61.9978H202.975C201.15 61.9978 199.6 63.3778 199.409 65.2028L195.801 97.9488C195.589 99.7958 196.884 101.494 198.709 101.727C207.729 102.916 217.64 102.916 228.463 101.663C230.416 101.43 231.965 99.8598 232.177 97.8858L235.785 65.2028C235.976 63.3778 237.525 61.9978 239.35 61.9978ZM280.714 61.9978H244.338C242.513 61.9978 240.963 63.3778 240.772 65.2028L237.165 97.9278C236.952 99.7748 238.247 101.472 240.093 101.727C250.047 103.022 261.04 102.916 273.18 101.239L277.148 65.2028C277.339 63.3778 278.889 61.9978 280.714 61.9978Z" stroke="var(--illu-line)" stroke-width="1.2097" stroke-linejoin="round"/>
    <path d="M256.013 106.045H66.9609V109.992H256.013V106.045Z" fill="var(--illu-bg)" stroke="var(--illu-line)" stroke-width="1.2097" stroke-linejoin="round"/>
    <path d="M73.1301 106.045H39.0671C36.6901 106.045 34.7801 107.849 34.4411 110.183L34.3561 110.799C34.2711 111.414 34.4621 112.03 34.8651 112.497C35.2681 112.964 35.8631 113.24 36.4781 113.24H65.2991C66.9111 113.24 68.2701 112.051 68.4821 110.481L68.5241 110.205C68.8641 107.849 70.7741 106.066 73.1511 106.066L73.1301 106.045Z" fill="var(--illu-gray)" stroke="var(--illu-line)" stroke-width="1.2097" stroke-linejoin="round"/>
    <path d="M99.6111 106.06C102.625 106.06 105.256 103.853 105.596 100.861L108.588 73.7169C108.716 72.4639 109.904 71.6159 111.156 71.7849C112.408 71.9549 113.236 73.1009 113.087 74.3529L110.095 101.497C109.522 106.739 104.874 110.602 99.6111 110.602H96.8951C94.8781 110.602 99.6111 106.039 99.6111 106.039V106.06Z" fill="var(--illu-bg)" stroke="var(--illu-line)" stroke-width="1.2097" stroke-linejoin="round"/>
    <path d="M114.371 106.045H257.816" stroke="var(--illu-line)" stroke-width="1.2097" stroke-linejoin="round"/>
    <path d="M256.012 118.967H53.738V126.904H256.012V118.967Z" fill="var(--illu-bg)" stroke="var(--illu-line)" stroke-width="1.2097" stroke-linejoin="round"/>
    <path d="M114.368 106.045H80.3061C77.9291 106.045 76.0191 107.849 75.6791 110.183L75.5941 110.799C75.5091 111.414 75.7001 112.03 76.1031 112.497C76.5071 112.964 77.1011 113.24 77.7161 113.24H106.537C108.15 113.24 109.508 112.051 109.72 110.481L109.763 110.205C110.102 107.849 112.012 106.066 114.389 106.066L114.368 106.045Z" fill="var(--illu-bg)" stroke="var(--illu-line)" stroke-width="1.2097" stroke-linejoin="round"/>
    <path d="M140.861 106.06C143.875 106.06 146.506 103.853 146.846 100.861L149.838 73.7169C149.966 72.4639 151.154 71.6159 152.406 71.7849C153.658 71.9549 154.486 73.1009 154.337 74.3529L151.345 101.497C150.772 106.739 146.124 110.602 140.861 110.602H138.145C136.128 110.602 140.861 106.039 140.861 106.039V106.06Z" fill="var(--illu-bg)" stroke="var(--illu-line)" stroke-width="1.2097" stroke-linejoin="round"/>
    <path d="M155.731 106.045H121.669C119.292 106.045 117.382 107.849 117.042 110.183L116.957 110.799C116.872 111.414 117.063 112.03 117.467 112.497C117.87 112.964 118.464 113.24 119.08 113.24H147.9C149.513 113.24 150.871 112.051 151.084 110.481L151.126 110.205C151.466 107.849 153.376 106.066 155.753 106.066L155.731 106.045Z" fill="var(--illu-bg)" stroke="var(--illu-line)" stroke-width="1.2097" stroke-linejoin="round"/>
    <path d="M182.431 106.06C185.445 106.06 188.077 103.853 188.416 100.861L191.409 73.7169C191.536 72.4639 192.724 71.6159 193.977 71.7849C195.229 71.9549 196.056 73.1009 195.908 74.3529L192.915 101.497C192.342 106.739 187.695 110.602 182.431 110.602H179.715C177.699 110.602 182.431 106.039 182.431 106.039V106.06Z" fill="var(--illu-bg)" stroke="var(--illu-line)" stroke-width="1.2097" stroke-linejoin="round"/>
    <path d="M197.118 106.045H163.056C160.679 106.045 158.769 107.849 158.429 110.183L158.344 110.799C158.259 111.414 158.45 112.03 158.853 112.497C159.257 112.964 159.851 113.24 160.466 113.24H189.287C190.9 113.24 192.258 112.051 192.47 110.481L192.513 110.205C192.852 107.849 194.762 106.066 197.139 106.066L197.118 106.045Z" fill="var(--illu-gray)" stroke="var(--illu-line)" stroke-width="1.2097" stroke-linejoin="round"/>
    <path d="M224.021 106.06C227.035 106.06 229.666 103.853 230.006 100.861L232.998 73.7169C233.126 72.4639 234.314 71.6159 235.566 71.7849C236.819 71.9549 237.646 73.1009 237.498 74.3529L234.505 101.497C233.932 106.739 229.284 110.602 224.021 110.602H221.305C219.288 110.602 224.021 106.039 224.021 106.039V106.06Z" fill="var(--illu-bg)" stroke="var(--illu-line)" stroke-width="1.2097" stroke-linejoin="round"/>
    <path d="M238.477 106.045H204.415C202.038 106.045 200.128 107.849 199.788 110.183L199.703 110.799C199.619 111.414 199.81 112.03 200.213 112.497C200.616 112.964 201.21 113.24 201.826 113.24H230.646C232.259 113.24 233.617 112.051 233.83 110.481L233.872 110.205C234.212 107.849 236.122 106.066 238.499 106.066L238.477 106.045Z" fill="var(--illu-gray)" stroke="var(--illu-line)" stroke-width="1.2097" stroke-linejoin="round"/>
    <path d="M237.372 110.602C236.12 110.602 235.102 109.583 235.102 108.331C235.102 107.079 236.12 106.06 237.372 106.06H265.132C268.145 106.06 270.777 103.853 271.117 100.861L274.109 73.7169C274.236 72.4639 275.425 71.6159 276.677 71.7849C277.929 71.9549 278.757 73.1009 278.608 74.3529L275.616 101.497C275.043 106.739 270.395 110.602 265.132 110.602H237.372Z" fill="var(--illu-bg)" stroke="var(--illu-line)" stroke-width="1.2097" stroke-linejoin="round"/>
    <path d="M236.118 110.602C234.866 110.602 233.848 109.583 233.848 108.331C233.848 107.079 234.866 106.06 236.118 106.06H265.109C268.122 106.06 270.754 103.853 271.094 100.861L274.086 73.7169C274.213 72.4639 275.402 71.6159 276.654 71.7849C277.906 71.9549 278.734 73.1009 278.585 74.3529L275.593 101.497C275.02 106.739 270.372 110.602 265.109 110.602H262.392C260.376 110.602 258.742 112.236 258.742 114.252V136.005C258.742 137.767 259.994 139.274 261.734 139.592L275.359 142.839V144.961H236.203V142.839L249.828 139.592C251.569 139.274 252.821 137.767 252.821 136.005V114.252C252.821 112.236 251.187 110.602 249.17 110.602H236.118Z" fill="var(--illu-bg)" stroke="var(--illu-line)" stroke-width="1.2097" stroke-linejoin="round"/>
    <path d="M200.719 86.056C194.585 65.83 177.204 51.272 151.906 51.272C124.19 51.272 101.672 73.258 100.696 100.721H106.469L76.778 105.75C64.638 117.911 84.312 136.757 105.216 152.971C114.682 160.293 96.451 166.469 77.69 171.562C73.403 172.729 69.796 174.427 67.27 176.316L65.381 175.446L60.5 179.224L64.299 184.551C66.548 187.692 73.488 190.259 87.241 190.811C114.427 191.915 140.786 184.232 139.576 171.774C138.685 162.627 166.614 170.926 178.138 147.007C186.924 128.756 172.238 112.245 183.422 106.918C184.611 106.345 185.927 106.026 187.264 106.026H189.895C192.102 106.026 196.517 105.071 199.276 100.699C201.844 96.646 201.886 89.876 200.719 86.034V86.056Z" fill="var(--illu-highlight)" stroke="var(--illu-line)" stroke-width="1.2097" stroke-linejoin="round"/>
    <path d="M145.812 51.2769C118.095 51.2769 95.5781 73.2639 94.6021 100.726H190.401C192.29 100.726 194.009 99.5169 194.582 97.7129C195.771 93.8499 195.537 89.0539 194.624 86.0399C188.491 65.8149 171.11 51.2559 145.812 51.2559V51.2769Z" fill="var(--illu-highlight)" stroke="var(--illu-line)" stroke-width="1.2097" stroke-linejoin="round"/>
    <path d="M98.4221 100.726C99.3981 75.1109 120.196 55.0759 145.834 55.0759C168.033 55.0759 184.926 67.0669 191.017 87.1649C191.972 90.3269 191.823 94.4869 190.55 97.7339C189.828 99.5799 188.024 100.748 186.051 100.748H176.84" fill="var(--illu-white)"/>
    <mask id="mask1_110_9241" style="mask-type:luminance" maskUnits="userSpaceOnUse" x="98" y="55" width="94" height="46">
      <path d="M145.822 55.0659C120.206 55.0659 99.4082 75.1009 98.4102 100.716H104.501C105.477 78.5169 123.58 61.1359 145.822 61.1359C165.198 61.1359 179.906 71.5139 185.169 88.8949C185.997 91.6329 184.787 99.4009 183.662 100.695H188.777C191.557 97.4909 192.3 91.4209 190.984 87.1339C184.893 67.0359 168 55.0449 145.801 55.0449L145.822 55.0659Z" fill="white"/>
    </mask>
    <g mask="url(#mask1_110_9241)">
      <path d="M65.0662 140.877L214.114 76.678" stroke="var(--illu-line)" stroke-width="1.2097" stroke-linejoin="round"/>
      <path d="M60.6331 127.438L218.551 90.1079" stroke="var(--illu-line)" stroke-width="1.2097" stroke-linejoin="round"/>
      <path d="M59.0042 99.3259L220.191 118.257" stroke="var(--illu-line)" stroke-width="1.2097" stroke-linejoin="round"/>
      <path d="M61.8591 85.4668L217.316 132.093" stroke="var(--illu-line)" stroke-width="1.2097" stroke-linejoin="round"/>
      <path d="M67.1052 72.3259L212.078 145.226" stroke="var(--illu-line)" stroke-width="1.2097" stroke-linejoin="round"/>
      <path d="M74.5391 60.2869L204.656 157.275" stroke="var(--illu-line)" stroke-width="1.2097" stroke-linejoin="round"/>
      <path d="M83.9382 49.74L195.251 167.845" stroke="var(--illu-line)" stroke-width="1.2097" stroke-linejoin="round"/>
      <path d="M95.0391 40.959L184.153 176.594" stroke="var(--illu-line)" stroke-width="1.2097" stroke-linejoin="round"/>
      <path d="M107.484 34.248L171.683 183.296" stroke="var(--illu-line)" stroke-width="1.2097" stroke-linejoin="round"/>
      <path d="M120.926 29.8105L158.257 187.729" stroke="var(--illu-line)" stroke-width="1.2097" stroke-linejoin="round"/>
      <path d="M134.91 27.7793L144.269 189.794" stroke="var(--illu-line)" stroke-width="1.2097" stroke-linejoin="round"/>
      <path d="M149.067 28.1777L130.137 189.365" stroke="var(--illu-line)" stroke-width="1.2097" stroke-linejoin="round"/>
      <path d="M162.904 31.0371L116.277 186.494" stroke="var(--illu-line)" stroke-width="1.2097" stroke-linejoin="round"/>
      <path d="M176.054 36.2871L103.133 181.26" stroke="var(--illu-line)" stroke-width="1.2097" stroke-linejoin="round"/>
      <path d="M188.097 43.709L91.1091 173.826" stroke="var(--illu-line)" stroke-width="1.2097" stroke-linejoin="round"/>
      <path d="M198.644 53.1079L80.5391 164.421" stroke="var(--illu-line)" stroke-width="1.2097" stroke-linejoin="round"/>
      <path d="M207.408 64.2168L71.7732 153.331" stroke="var(--illu-line)" stroke-width="1.2097" stroke-linejoin="round"/>
      <path d="M214.114 76.678L65.0662 140.877" stroke="var(--illu-line)" stroke-width="1.2097" stroke-linejoin="round"/>
      <path d="M218.551 90.1079L60.6331 127.438" stroke="var(--illu-line)" stroke-width="1.2097" stroke-linejoin="round"/>
      <path d="M220.191 118.257L59.0042 99.3259" stroke="var(--illu-line)" stroke-width="1.2097" stroke-linejoin="round"/>
      <path d="M217.316 132.093L61.8591 85.4668" stroke="var(--illu-line)" stroke-width="1.2097" stroke-linejoin="round"/>
      <path d="M212.078 145.226L67.1052 72.3259" stroke="var(--illu-line)" stroke-width="1.2097" stroke-linejoin="round"/>
      <path d="M204.656 157.275L74.5391 60.2869" stroke="var(--illu-line)" stroke-width="1.2097" stroke-linejoin="round"/>
      <path d="M195.251 167.845L83.9382 49.74" stroke="var(--illu-line)" stroke-width="1.2097" stroke-linejoin="round"/>
      <path d="M184.153 176.594L95.0391 40.959" stroke="var(--illu-line)" stroke-width="1.2097" stroke-linejoin="round"/>
      <path d="M171.683 183.296L107.484 34.248" stroke="var(--illu-line)" stroke-width="1.2097" stroke-linejoin="round"/>
      <path d="M158.257 187.729L120.926 29.8105" stroke="var(--illu-line)" stroke-width="1.2097" stroke-linejoin="round"/>
      <path d="M144.269 189.794L134.91 27.7793" stroke="var(--illu-line)" stroke-width="1.2097" stroke-linejoin="round"/>
      <path d="M130.137 189.365L149.067 28.1777" stroke="var(--illu-line)" stroke-width="1.2097" stroke-linejoin="round"/>
      <path d="M98.4302 100.719C99.4062 75.1029 120.204 55.0679 145.841 55.0679C168.04 55.0679 184.934 67.0589 191.025 87.1569C192.319 91.4439 191.576 97.5349 188.817 100.719" stroke="var(--illu-white)" stroke-width="3.60787" stroke-linejoin="round"/>
    </g>
    <path d="M98.4221 100.726C99.3981 75.1109 120.196 55.0759 145.834 55.0759C168.033 55.0759 184.926 67.0669 191.017 87.1649C191.972 90.3269 191.823 94.4869 190.55 97.7339C189.828 99.5799 188.024 100.748 186.051 100.748H176.84" stroke="var(--illu-line)" stroke-width="1.2097" stroke-linejoin="round"/>
    <path d="M83.4411 185.525C110.627 186.629 137.029 180.347 134.418 166.658C132.699 157.617 164.512 166.382 174.317 141.721C180.132 127.12 165 106.386 181.766 100.74H82.6351C79.6851 100.74 76.9471 102.183 75.2491 104.582C66.7601 116.594 69.4131 133.02 88.2161 147.6C97.6811 154.922 92.6301 161.162 73.8701 166.276C56.6791 170.945 49.9511 184.167 83.4201 185.525H83.4411Z" fill="var(--illu-highlight)" stroke="var(--illu-line)" stroke-width="1.2097" stroke-linejoin="round"/>
    <path d="M88.7861 100.74C85.5391 100.74 82.3771 102.077 80.1911 104.497C76.1161 109.06 74.1421 114.387 74.5031 119.989C75.0341 128.372 80.5941 136.883 90.5691 144.608C95.3231 148.279 97.3181 152.163 96.5321 156.132C95.3861 161.862 88.5101 166.234 74.9061 169.948C55.0631 175.338 68.0521 181.111 83.6081 181.748C85.5821 181.833 87.5761 181.875 89.5291 181.875C108.842 181.875 124.483 178.055 129.385 172.134C130.616 170.648 131.019 169.141 130.701 167.38C130.255 165.067 130.977 163.39 131.677 162.371C133.8 159.273 138.193 158.466 143.753 157.426C153.494 155.644 165.613 153.394 170.812 140.321C172.765 135.397 171.81 129.115 170.855 123.045C169.687 115.448 168.287 106.364 174.271 100.74H88.7861Z" fill="var(--illu-white)"/>
    <path d="M124.126 115.154C117.399 127.166 112.305 131.687 117.292 139.115C122.492 146.882 124.126 153.95 117.632 157.6C111.138 161.25 114.194 167.108 102.352 170.206" stroke="var(--illu-line)" stroke-width="1.2097" stroke-linejoin="round"/>
    <path d="M138.556 100.729L127.266 73.3728" stroke="var(--illu-line)" stroke-width="1.2097" stroke-linejoin="round"/>
    <path d="M107.463 165.154L111.963 169.25C111.963 169.25 102.327 171.585 98.4651 171.797C104.11 168.486 107.463 165.154 107.463 165.154Z" fill="var(--illu-line)" stroke="var(--illu-line)" stroke-width="1.2097" stroke-linejoin="round"/>
    <path d="M127.266 73.3728L128.072 83.5808L133.908 81.1828L127.266 73.3728Z" fill="var(--illu-line)" stroke="var(--illu-line)" stroke-width="1.2097" stroke-linejoin="round"/>
    <mask id="mask2_110_9241" style="mask-type:luminance" maskUnits="userSpaceOnUse" x="64" y="100" width="111" height="82">
      <path d="M88.7941 100.732C85.5471 100.732 82.3851 102.07 80.1991 104.489C76.1241 109.052 74.1501 114.379 74.5111 119.982C75.0421 128.365 80.6021 136.875 90.5771 144.6C95.3311 148.272 97.3261 152.155 96.5401 156.124C95.3941 161.854 88.5181 166.226 74.9141 169.94C55.0711 175.331 68.0591 181.103 83.6161 181.74C85.5891 181.825 87.5841 181.867 89.5371 181.867C108.849 181.867 124.491 178.047 129.393 172.126C130.624 170.64 131.027 169.133 130.709 167.372C130.263 165.059 130.985 163.382 131.685 162.363C133.807 159.265 138.201 158.458 143.761 157.419C153.502 155.636 165.62 153.386 170.82 140.313C172.772 135.389 171.817 129.107 170.862 123.038C169.695 115.44 168.294 106.357 174.279 100.732H88.7941Z" fill="white"/>
    </mask>
    <g mask="url(#mask2_110_9241)">
      <path d="M80.6133 181.827L93.0073 175.248" stroke="var(--illu-line)" stroke-width="1.2097" stroke-linejoin="round"/>
      <path d="M107.418 181.771L110.516 173.982" stroke="var(--illu-line)" stroke-width="1.2097" stroke-linejoin="round"/>
      <path d="M123.59 176.51L122.953 168.467" stroke="var(--illu-line)" stroke-width="1.2097" stroke-linejoin="round"/>
      <path d="M131.229 164.612L127.918 156.42" stroke="var(--illu-line)" stroke-width="1.2097" stroke-linejoin="round"/>
      <path d="M139.873 158.148L137.496 151.803" stroke="var(--illu-line)" stroke-width="1.2097" stroke-linejoin="round"/>
      <path d="M149.189 156.414L146.77 149.92" stroke="var(--illu-line)" stroke-width="1.2097" stroke-linejoin="round"/>
      <path d="M158.796 152.838L154.934 148.232" stroke="var(--illu-line)" stroke-width="1.2097" stroke-linejoin="round"/>
      <path d="M165.421 147.803L160.879 143.537" stroke="var(--illu-line)" stroke-width="1.2097" stroke-linejoin="round"/>
      <path d="M170.857 139.583L163.98 135.975" stroke="var(--illu-line)" stroke-width="1.2097" stroke-linejoin="round"/>
      <path d="M172.003 128.484L163.98 126.404" stroke="var(--illu-line)" stroke-width="1.2097" stroke-linejoin="round"/>
      <path d="M170.71 118.768L162.688 117.092" stroke="var(--illu-line)" stroke-width="1.2097" stroke-linejoin="round"/>
      <path d="M169.837 108.311H162.664" stroke="var(--illu-line)" stroke-width="1.2097" stroke-linejoin="round"/>
      <path d="M93.5161 161.315L103.448 156.412" stroke="var(--illu-line)" stroke-width="1.2097" stroke-linejoin="round"/>
      <path d="M90.0552 145.769L97.8222 141.482" stroke="var(--illu-line)" stroke-width="1.2097" stroke-linejoin="round"/>
      <path d="M82.6091 138.307L89.6341 134.084" stroke="var(--illu-line)" stroke-width="1.2097" stroke-linejoin="round"/>
      <path d="M78.0862 130.566L85.0262 127.318" stroke="var(--illu-line)" stroke-width="1.2097" stroke-linejoin="round"/>
      <path d="M74.082 121.708L83.208 119.904" stroke="var(--illu-line)" stroke-width="1.2097" stroke-linejoin="round"/>
      <path d="M74.3162 111.901L83.4421 111.35" stroke="var(--illu-line)" stroke-width="1.2097" stroke-linejoin="round"/>
      <path d="M78.645 104.279L87.77 105.15" stroke="var(--illu-line)" stroke-width="1.2097" stroke-linejoin="round"/>
      <path d="M66.2891 175.981L81.5911 173.647" stroke="var(--illu-line)" stroke-width="1.2097" stroke-linejoin="round"/>
      <path d="M84.2741 100.738C77.4611 106.001 74.0441 112.75 74.5111 119.966C75.0421 128.349 80.6021 136.859 90.5771 144.584C95.3311 148.256 97.3261 152.14 96.5401 156.108C95.3941 161.838 88.5181 166.21 74.9141 169.924C55.0711 175.315 68.0591 181.087 83.6161 181.724C85.5891 181.809 87.5841 181.852 89.5371 181.852C108.849 181.852 124.491 178.031 129.393 172.11C130.624 170.625 131.027 169.118 130.709 167.356C130.263 165.043 130.985 163.366 131.685 162.348C133.807 159.249 138.201 158.443 143.761 157.403C153.502 155.62 165.62 153.371 170.82 140.297C172.772 135.374 171.817 129.092 170.862 123.022C169.695 115.424 168.294 106.341 174.279 100.717H84.2741V100.738Z" stroke="var(--illu-white)" stroke-width="3.60787" stroke-linejoin="round"/>
    </g>
    <path d="M88.7941 100.74C85.5471 100.74 82.3851 102.077 80.1991 104.497C76.1241 109.06 74.1501 114.387 74.5111 119.989C75.0421 128.372 80.6021 136.883 90.5771 144.608C95.3311 148.279 97.3261 152.163 96.5401 156.132C95.3941 161.862 88.5181 166.234 74.9141 169.948C55.0711 175.338 68.0591 181.111 83.6161 181.748C85.5891 181.833 87.5841 181.875 89.5371 181.875C108.849 181.875 124.491 178.055 129.393 172.134C130.624 170.648 131.027 169.141 130.709 167.38C130.263 165.067 130.985 163.39 131.685 162.371C133.807 159.273 138.201 158.466 143.761 157.426C153.502 155.644 165.62 153.394 170.82 140.321C172.772 135.397 171.817 129.115 170.862 123.045C169.695 115.448 168.294 106.364 174.279 100.74H88.7941Z" stroke="var(--illu-line)" stroke-width="1.2097" stroke-linejoin="round"/>
    <path d="M123.591 113.474C115.951 109.166 116.778 103.393 121.426 100.74" stroke="var(--illu-line)" stroke-width="1.2097" stroke-linejoin="round"/>
    <path d="M128.415 116.446C129.443 113.01 128.356 109.649 125.986 108.94C123.617 108.231 120.863 110.442 119.834 113.878C118.806 117.314 119.893 120.674 122.263 121.383C124.632 122.093 127.386 119.882 128.415 116.446Z" fill="var(--illu-white)" stroke="var(--illu-line)" stroke-width="1.2097" stroke-linejoin="round"/>
    <path d="M125.773 115.663C126.17 114.338 125.754 113.043 124.845 112.771C123.935 112.499 122.876 113.352 122.48 114.677C122.083 116.002 122.499 117.297 123.409 117.569C124.318 117.841 125.377 116.988 125.773 115.663Z" fill="var(--illu-white)" stroke="var(--illu-line)" stroke-width="1.2097" stroke-linejoin="round"/>
    <path d="M8.46112 162.029L6.89111 177.989" stroke="var(--illu-line)" stroke-width="1.08236" stroke-miterlimit="10" stroke-linecap="round"/>
    <path d="M14.918 159.943L16.488 177.983" stroke="var(--illu-line)" stroke-width="1.08236" stroke-miterlimit="10" stroke-linecap="round"/>
    <path d="M42.7131 162.029L41.1211 177.989" stroke="var(--illu-line)" stroke-width="1.08236" stroke-miterlimit="10" stroke-linecap="round"/>
    <path d="M49.145 159.943L50.715 177.983" stroke="var(--illu-line)" stroke-width="1.08236" stroke-miterlimit="10" stroke-linecap="round"/>
    <path d="M7.84399 168.306H40.888L44.602 127.834H11.558L7.84399 168.306Z" fill="var(--illu-line)" stroke="var(--illu-line)" stroke-width="1.08236" stroke-miterlimit="10"/>
    <path d="M15.7999 170.386H50.0529L46.3389 127.834H12.0859L15.7999 170.386Z" fill="var(--illu-bg)" stroke="var(--illu-line)" stroke-width="1.08236" stroke-miterlimit="10"/>
    <path d="M39.643 142.381C35.866 142.381 32.895 144.588 31.239 146.18C29.499 144.631 26.4 142.381 22.962 142.381C19.524 142.381 16.574 145.246 16.574 148.769C16.574 152.292 19.439 155.157 22.962 155.157C26.74 155.157 29.711 152.95 31.366 151.358C33.107 152.907 36.205 155.157 39.643 155.157C43.081 155.157 46.031 152.292 46.031 148.769C46.031 145.246 43.166 142.381 39.643 142.381ZM20.055 148.769C20.055 147.177 21.349 145.861 22.962 145.861C25.191 145.861 27.546 147.517 28.99 148.811C27.78 149.979 25.573 151.655 22.962 151.655C21.371 151.655 20.055 150.361 20.055 148.748V148.769ZM39.643 151.677C37.415 151.677 35.059 150.021 33.616 148.727C34.826 147.559 37.033 145.883 39.643 145.883C41.235 145.883 42.551 147.177 42.551 148.79C42.551 150.403 41.256 151.698 39.643 151.698V151.677Z" fill="var(--illu-white)" stroke="var(--illu-line)" stroke-width="1.2097" stroke-linejoin="round"/>
    <path d="M32.7019 144.936C30.5159 146.57 29.8159 147.864 28.8399 148.883C28.4999 149.244 28.0759 149.626 27.5659 150.008C27.9269 151.196 28.8189 152.151 29.9649 152.597C32.0659 151.005 32.7869 149.711 33.7419 148.735C34.1449 148.31 34.6759 147.843 35.2909 147.397C34.8669 146.23 33.9119 145.318 32.7239 144.936H32.7019Z" fill="var(--illu-white)"/>
    <path d="M39.6471 145.881C36.9521 145.881 34.8931 147.536 33.7471 148.704C32.7501 149.722 32.0491 151.081 29.7151 152.778" stroke="var(--illu-line)" stroke-width="1.2097" stroke-miterlimit="10" stroke-linecap="round"/>
    <path d="M22.9409 151.692C25.6369 151.692 27.6949 150.037 28.8409 148.87C29.8389 147.851 30.5389 146.493 32.8739 144.795" stroke="var(--illu-line)" stroke-width="1.2097" stroke-miterlimit="10" stroke-linecap="round"/>
  </g>
</svg>
