<svg width="136" height="125" viewBox="0 0 136 125" fill="none"
  xmlns="http://www.w3.org/2000/svg">
  <path d="M35.923 38.8809C29.385 38.8809 23.3421 42.3859 20.0731 48.0419L3.21308 77.3749C-0.0339179 83.0309 -0.0339179 89.9769 3.21308 95.6329L14.4391 115.074C17.7071 120.73 23.7501 124.214 30.2671 124.214H95.4921C100.353 124.214 104.998 122.279 108.417 118.859L130.009 97.2679C133.428 93.8479 135.363 89.1819 135.363 84.3429V55.3319C135.363 45.2249 127.17 38.8809 117.084 38.8809H35.923Z" fill="var(--illu-line)" stroke="var(--illu-line)" stroke-width="1.22581" stroke-miterlimit="10"/>
  <path d="M0.608887 62.1777V86.5648L39.9209 66.4568L0.608887 62.1777Z" fill="var(--illu-line)" stroke="var(--illu-line)" stroke-width="1.22581" stroke-miterlimit="10"/>
  <path d="M35.9212 14.498C29.3832 14.498 23.3402 18.0031 20.0712 23.6591L3.18916 52.993C-0.0578437 58.648 -0.0578437 65.595 3.18916 71.251L14.4152 90.691C17.6842 96.347 23.7271 99.8311 30.2431 99.8311H95.4692C100.329 99.8311 104.974 97.896 108.394 94.476L129.985 72.885C133.404 69.466 135.34 64.7991 135.34 59.9601V26.691C135.34 19.96 129.878 14.498 123.146 14.498H35.9212Z" fill="var(--illu-bg)" stroke="var(--illu-line)" stroke-width="1.22581" stroke-miterlimit="10"/>
  <path d="M78.0179 13.6391L75.5449 7.1441C75.3299 6.5641 74.7489 6.17712 74.1259 6.17712H50.2119C49.5879 6.17712 49.0069 6.5641 48.7919 7.1441L46.3189 13.6391L41.5229 11.8111L43.9969 5.31711C44.9639 2.75711 47.4799 1.03711 50.2119 1.03711H74.1259C76.8779 1.03711 79.3729 2.75711 80.3409 5.31711L82.814 11.8111L78.0179 13.6391Z" fill="var(--illu-white)" stroke="var(--illu-line)" stroke-width="1.22581" stroke-miterlimit="10"/>
  <path d="M87.6301 61.0449H36.6841V65.7969H87.6301V61.0449Z" fill="var(--illu-gray)" stroke="var(--illu-line)" stroke-width="1.22581" stroke-miterlimit="10"/>
  <path d="M39.198 9.15381H85.133C88.617 9.15381 91.434 11.9708 91.434 15.4548V61.0678H32.875V15.4768C32.875 11.9928 35.692 9.17581 39.176 9.17581L39.198 9.15381Z" fill="var(--illu-white)" stroke="var(--illu-line)" stroke-width="1.22581" stroke-miterlimit="10"/>
  <path d="M75.1538 15.1387H37.8628V38.1707H75.1538V15.1387Z" fill="var(--illu-bg)" stroke="var(--illu-line)" stroke-width="1.22581" stroke-linejoin="round"/>
  <path d="M56.511 21.2259C56.511 21.2259 57.888 19.4199 60.404 19.4199C62.705 19.4199 64.296 21.3979 64.296 23.7639C64.296 27.0109 61.135 29.1619 56.533 33.2689C51.931 29.1619 48.77 27.0109 48.77 23.7639C48.77 21.4199 50.361 19.4199 52.662 19.4199C55.157 19.4199 56.554 21.2259 56.554 21.2259H56.511Z" fill="var(--illu-highlight)" stroke="var(--illu-line)" stroke-width="1.22581" stroke-linejoin="round"/>
  <path d="M82.2042 48.656C84.8642 48.656 87.0212 46.499 87.0212 43.839C87.0212 41.178 84.8642 39.021 82.2042 39.021C79.5432 39.021 77.3872 41.178 77.3872 43.839C77.3872 46.499 79.5432 48.656 82.2042 48.656Z" fill="var(--illu-white)" stroke="var(--illu-line)" stroke-width="1.22581" stroke-miterlimit="10"/>
  <path d="M79.6479 39.7788L81.304 42.4238" stroke="var(--illu-line)" stroke-width="1.22581" stroke-miterlimit="10" stroke-linecap="round"/>
  <path d="M39.735 46.9359C40.958 46.9359 41.95 45.9439 41.95 44.7209C41.95 43.4969 40.958 42.5059 39.735 42.5059C38.511 42.5059 37.52 43.4969 37.52 44.7209C37.52 45.9439 38.511 46.9359 39.735 46.9359Z" fill="var(--illu-gray)" stroke="var(--illu-line)" stroke-width="1.22581" stroke-miterlimit="10"/>
  <path d="M48.0588 46.9359C49.2818 46.9359 50.2737 45.9439 50.2737 44.7209C50.2737 43.4969 49.2818 42.5059 48.0588 42.5059C46.8348 42.5059 45.8438 43.4969 45.8438 44.7209C45.8438 45.9439 46.8348 46.9359 48.0588 46.9359Z" fill="var(--illu-gray)" stroke="var(--illu-line)" stroke-width="1.22581" stroke-miterlimit="10"/>
  <path d="M56.3752 46.9359C57.5992 46.9359 58.5902 45.9439 58.5902 44.7209C58.5902 43.4969 57.5992 42.5059 56.3752 42.5059C55.1522 42.5059 54.1602 43.4969 54.1602 44.7209C54.1602 45.9439 55.1522 46.9359 56.3752 46.9359Z" fill="var(--illu-gray)" stroke="var(--illu-line)" stroke-width="1.22581" stroke-miterlimit="10"/>
  <path d="M100.28 44.4649C100.129 44.4649 99.9998 44.4649 99.8488 44.4219C98.4518 44.1859 97.5268 42.8519 97.7628 41.4759L99.7198 30.1429C100.151 27.6049 102.366 25.7559 104.946 25.7559H111.075C112.495 25.7559 113.634 26.8949 113.634 28.3149C113.634 29.7339 112.495 30.8739 111.075 30.8739H105.871C105.247 30.8739 104.71 31.3259 104.602 31.9279L102.796 42.3579C102.581 43.6049 101.505 44.4649 100.28 44.4869V44.4649Z" fill="var(--illu-gray)" stroke="var(--illu-line)" stroke-width="1.22581" stroke-miterlimit="10"/>
  <path d="M118.751 21.373H112.041C109.607 21.373 107.633 23.347 107.633 25.781V45.889C107.633 48.324 109.607 50.298 112.041 50.298H118.751C121.186 50.298 123.16 48.324 123.16 45.889V25.781C123.16 23.347 121.186 21.373 118.751 21.373Z" fill="var(--illu-gray)" stroke="var(--illu-line)" stroke-width="1.22581" stroke-miterlimit="10"/>
  <path d="M122.067 21.373H115.358C112.923 21.373 110.949 23.347 110.949 25.781V45.889C110.949 48.324 112.923 50.298 115.358 50.298H122.067C124.502 50.298 126.476 48.324 126.476 45.889V25.781C126.476 23.347 124.502 21.373 122.067 21.373Z" fill="var(--illu-white)" stroke="var(--illu-line)" stroke-width="1.22581" stroke-miterlimit="10"/>
  <path d="M79.7249 72.0039C79.5739 72.0039 79.4449 72.0039 79.2949 71.9609C77.8969 71.7249 76.9719 70.3919 77.2089 69.0149L79.1659 57.6819C79.5959 55.1439 81.8109 53.2949 84.3919 53.2949H90.5209C91.9399 53.2949 93.0799 54.4349 93.0799 55.8539C93.0799 57.2729 91.9399 58.4129 90.5209 58.4129H85.3159C84.6929 58.4129 84.1549 58.8649 84.0469 59.4669L82.2409 69.8969C82.0259 71.1439 80.9509 72.0039 79.7249 72.0259V72.0039Z" fill="var(--illu-gray)" stroke="var(--illu-line)" stroke-width="1.22581" stroke-miterlimit="10"/>
  <path d="M98.1771 49.5288H91.467C89.032 49.5288 87.0591 51.5028 87.0591 53.9378V74.0448C87.0591 76.4798 89.032 78.4538 91.467 78.4538H98.1771C100.612 78.4538 102.585 76.4798 102.585 74.0448V53.9378C102.585 51.5028 100.612 49.5288 98.1771 49.5288Z" fill="var(--illu-gray)" stroke="var(--illu-line)" stroke-width="1.22581" stroke-miterlimit="10"/>
  <path d="M101.513 49.5288H94.803C92.368 49.5288 90.395 51.5028 90.395 53.9378V74.0448C90.395 76.4798 92.368 78.4538 94.803 78.4538H101.513C103.948 78.4538 105.921 76.4798 105.921 74.0448V53.9378C105.921 51.5028 103.948 49.5288 101.513 49.5288Z" fill="var(--illu-white)" stroke="var(--illu-line)" stroke-width="1.22581" stroke-miterlimit="10"/>
  <path d="M114.138 56.3667H108.891L115.708 42.3887L100.955 57.9147H106.246L98.7622 72.3887L114.138 56.3667Z" fill="var(--illu-white)" stroke="var(--illu-line)" stroke-width="1.22581" stroke-linejoin="round"/>
  <path d="M36.6908 63.998H18.3468C16.4118 63.998 14.8628 65.5681 14.8628 67.4821C14.8628 69.4171 16.4328 70.9661 18.3468 70.9661H22.3688" stroke="var(--illu-line)" stroke-width="1.22581" stroke-linecap="round" stroke-linejoin="round"/>
  <path d="M87.0551 74.2817H76.0881C74.5181 74.2817 72.9691 73.9168 71.5711 73.2068L69.2061 72.0027C67.8081 71.2927 66.2601 70.9277 64.6901 70.9277H62.4531" stroke="var(--illu-line)" stroke-width="1.22581" stroke-linecap="round" stroke-linejoin="round"/>
  <path d="M23.8548 68.8101L22.8438 70.9181" stroke="var(--illu-line)" stroke-width="1.22581" stroke-linecap="round" stroke-linejoin="round"/>
  <path d="M26.8868 68.8101L24.8438 73.1541" stroke="var(--illu-line)" stroke-width="1.22581" stroke-linecap="round" stroke-linejoin="round"/>
  <path d="M29.9449 68.8101L27.9019 73.1541" stroke="var(--illu-line)" stroke-width="1.22581" stroke-linecap="round" stroke-linejoin="round"/>
  <path d="M32.9713 68.8101L30.9492 73.1541" stroke="var(--illu-line)" stroke-width="1.22581" stroke-linecap="round" stroke-linejoin="round"/>
  <path d="M36.0269 68.8101L33.9839 73.1541" stroke="var(--illu-line)" stroke-width="1.22581" stroke-linecap="round" stroke-linejoin="round"/>
  <path d="M39.082 68.8101L37.0391 73.1541" stroke="var(--illu-line)" stroke-width="1.22581" stroke-linecap="round" stroke-linejoin="round"/>
  <path d="M42.1108 68.8101L40.0898 73.1541" stroke="var(--illu-line)" stroke-width="1.22581" stroke-linecap="round" stroke-linejoin="round"/>
  <path d="M45.168 68.8101L43.125 73.1541" stroke="var(--illu-line)" stroke-width="1.22581" stroke-linecap="round" stroke-linejoin="round"/>
  <path d="M48.2232 68.8101L46.1802 73.1541" stroke="var(--illu-line)" stroke-width="1.22581" stroke-linecap="round" stroke-linejoin="round"/>
  <path d="M51.2578 68.8101L49.2148 73.1541" stroke="var(--illu-line)" stroke-width="1.22581" stroke-linecap="round" stroke-linejoin="round"/>
  <path d="M54.3052 68.8101L52.2622 73.1541" stroke="var(--illu-line)" stroke-width="1.22581" stroke-linecap="round" stroke-linejoin="round"/>
  <path d="M57.3628 68.8101L55.3198 73.1541" stroke="var(--illu-line)" stroke-width="1.22581" stroke-linecap="round" stroke-linejoin="round"/>
  <path d="M60.398 68.8101L58.355 73.1541" stroke="var(--illu-line)" stroke-width="1.22581" stroke-linecap="round" stroke-linejoin="round"/>
  <path d="M62.4129 70.9121L61.4019 73.1481" stroke="var(--illu-line)" stroke-width="1.22581" stroke-linecap="round" stroke-linejoin="round"/>
</svg>
