<svg width="308" height="275" viewBox="0 0 308 275" fill="none"
  xmlns="http://www.w3.org/2000/svg">
  <path d="M304.481 81.0417C304.481 71.0727 296.4 63.0127 286.452 63.0127H202.691C194.716 63.0127 187.08 66.1737 181.438 71.8157L162.815 90.4387C157.173 96.0807 149.538 99.2407 141.562 99.2407H106.544L106.777 99.0707H21.9338C11.9648 99.0707 3.90482 107.153 3.90482 117.1L3.86282 148.492V172.503L3.81982 255.373C3.81982 265.342 11.9018 273.402 21.8488 273.402H145.274C151.743 273.402 157.704 269.944 160.906 264.345L186.402 219.93C189.626 214.33 195.586 210.873 202.034 210.873H286.41C296.379 210.873 304.439 202.792 304.439 192.844V81.0207L304.481 81.0417Z" fill="var(--illu-line)" stroke="var(--illu-line)" stroke-width="1.20901" stroke-miterlimit="10"/>
  <path d="M304.481 56.9948C304.481 47.0258 296.4 38.9658 286.452 38.9658H202.691C194.716 38.9658 187.08 42.1268 181.438 47.7688L162.815 66.3918C157.173 72.0338 149.538 75.1938 141.562 75.1938H106.544L106.777 75.0238H21.9338C11.9648 75.0238 3.90482 83.1058 3.90482 93.0538L3.86282 124.445V148.456L3.81982 231.326C3.81982 241.295 11.9018 249.355 21.8488 249.355H145.274C151.743 249.355 157.704 245.898 160.906 240.298L186.402 195.883C189.626 190.283 195.586 186.826 202.034 186.826H286.41C296.379 186.826 304.439 178.745 304.439 168.797V56.9948H304.481Z" fill="var(--illu-bg)" stroke="var(--illu-line)" stroke-width="1.20901" stroke-miterlimit="10"/>
  <path d="M210.274 41.0541C211.801 39.3571 212.629 37.1511 212.629 34.8601C212.629 30.6391 216.044 27.2241 220.265 27.2241C224.485 27.2241 227.9 30.6391 227.9 34.8601C227.9 37.1511 228.749 39.3351 230.255 41.0541C232.355 43.4081 233.627 46.4831 233.627 49.8771C233.627 57.2581 227.646 63.2611 220.243 63.2611C212.841 63.2611 206.859 57.2801 206.859 49.8771C206.859 46.4831 208.132 43.4081 210.232 41.0541H210.274Z" fill="var(--illu-bg)" stroke="var(--illu-line)" stroke-width="1.20901" stroke-linejoin="round"/>
  <path d="M220.266 70.677V54.217L224.72 41.873" stroke="var(--illu-line)" stroke-width="1.20901" stroke-miterlimit="10" stroke-linecap="round"/>
  <path d="M220.269 54.2299L214.012 46.3179" stroke="var(--illu-line)" stroke-width="1.20901" stroke-miterlimit="10" stroke-linecap="round"/>
  <path d="M284.009 81.8969C285.536 80.1999 286.363 77.9949 286.363 75.7039C286.363 71.4829 289.778 68.0679 293.999 68.0679C298.22 68.0679 301.635 71.4829 301.635 75.7039C301.635 77.9949 302.483 80.1789 303.989 81.8969C306.089 84.2519 307.362 87.3269 307.362 90.7209C307.362 98.1019 301.38 104.105 293.978 104.105C286.575 104.105 280.594 98.1229 280.594 90.7209C280.594 87.3269 281.866 84.2519 283.966 81.8969H284.009Z" fill="var(--illu-bg)" stroke="var(--illu-line)" stroke-width="1.20901" stroke-linejoin="round"/>
  <path d="M294.016 111.497V95.0379L298.47 82.6929" stroke="var(--illu-line)" stroke-width="1.20901" stroke-miterlimit="10" stroke-linecap="round"/>
  <path d="M294.019 95.058L287.762 87.146" stroke="var(--illu-line)" stroke-width="1.20901" stroke-miterlimit="10" stroke-linecap="round"/>
  <path d="M60.155 93.2328C59.986 91.9178 60.283 90.6238 60.961 89.4998C61.81 88.0998 62.319 86.4667 62.319 84.7057C62.319 80.6117 59.625 77.1547 55.913 75.9667C54.81 75.6067 54.025 74.7157 53.75 73.5917C52.944 70.3887 49.995 67.8647 46.368 67.8647C42.741 67.8647 39.814 70.2618 38.987 73.6338C38.711 74.7578 37.927 75.6488 36.824 75.9878C33.112 77.1758 30.418 80.6117 30.418 84.7267C30.418 86.4877 30.906 88.1208 31.775 89.5208C32.454 90.6238 32.751 91.9388 32.603 93.2328C32.56 93.5078 32.56 93.8047 32.56 94.1237C32.56 98.8107 36.357 102.629 41.066 102.629C41.766 102.629 42.466 102.544 43.102 102.375C45.265 101.823 47.535 101.823 49.698 102.375C50.356 102.544 51.035 102.629 51.756 102.629C56.443 102.629 60.261 98.8317 60.261 94.1237C60.261 93.9327 60.261 93.6568 60.219 93.2538L60.155 93.2328Z" fill="var(--illu-bg)" stroke="var(--illu-line)" stroke-width="1.20901" stroke-linejoin="round"/>
  <path d="M46.1758 113.244V77.123" stroke="var(--illu-line)" stroke-width="1.20901" stroke-miterlimit="10" stroke-linecap="round"/>
  <path d="M46.1771 91.4659L38.3711 84.1699" stroke="var(--illu-line)" stroke-width="1.20901" stroke-miterlimit="10" stroke-linecap="round"/>
  <path d="M46.1758 95.733L54.1088 90.834" stroke="var(--illu-line)" stroke-width="1.20901" stroke-miterlimit="10" stroke-linecap="round"/>
  <path d="M227.5 7.79106L227.924 109.984C227.924 113.675 233.969 116.644 244.956 116.623C255.943 116.602 261.946 113.569 261.946 109.878L261.522 7.68506L227.521 7.81206L227.5 7.79106Z" fill="var(--illu-white)" stroke="var(--illu-line)" stroke-width="1.20901" stroke-miterlimit="10"/>
  <path d="M261.944 109.826C261.944 113.516 255.962 116.55 244.954 116.571C233.946 116.592 227.943 113.644 227.922 109.932" stroke="var(--illu-line)" stroke-width="1.20901" stroke-miterlimit="10"/>
  <path d="M261.905 103.834C261.905 107.524 255.923 110.557 244.915 110.579C233.907 110.6 227.904 107.651 227.883 103.94" stroke="var(--illu-line)" stroke-width="1.20901" stroke-miterlimit="10"/>
  <path d="M261.889 97.7939C261.889 101.485 255.908 104.518 244.899 104.539C233.891 104.561 227.888 101.612 227.867 97.9009" stroke="var(--illu-line)" stroke-width="1.20901" stroke-miterlimit="10"/>
  <path d="M261.862 91.8018C261.862 95.4928 255.88 98.5258 244.872 98.5468C233.864 98.5688 227.861 95.6197 227.84 91.9077" stroke="var(--illu-line)" stroke-width="1.20901" stroke-miterlimit="10"/>
  <path d="M261.834 85.8018C261.834 89.4928 255.853 92.5258 244.845 92.5468C233.836 92.5688 227.834 89.6197 227.812 85.9077" stroke="var(--illu-line)" stroke-width="1.20901" stroke-miterlimit="10"/>
  <path d="M261.819 79.771C261.819 83.462 255.837 86.495 244.829 86.516C233.821 86.537 227.818 83.589 227.797 79.877" stroke="var(--illu-line)" stroke-width="1.20901" stroke-miterlimit="10"/>
  <path d="M261.78 73.771C261.78 77.462 255.798 80.495 244.79 80.516C233.782 80.537 227.779 77.589 227.758 73.877" stroke="var(--illu-line)" stroke-width="1.20901" stroke-miterlimit="10"/>
  <path d="M261.752 67.7549C261.752 71.4459 255.771 74.4789 244.763 74.4999C233.754 74.5219 227.752 71.5729 227.73 67.8609" stroke="var(--illu-line)" stroke-width="1.20901" stroke-miterlimit="10"/>
  <path d="M261.737 61.7397C261.737 65.4297 255.755 68.4637 244.747 68.4847C233.739 68.5057 227.736 65.5578 227.715 61.8458" stroke="var(--illu-line)" stroke-width="1.20901" stroke-miterlimit="10"/>
  <path d="M261.713 55.7241C261.713 59.4151 255.732 62.4481 244.724 62.4691C233.715 62.4901 227.713 59.5421 227.691 55.8301" stroke="var(--illu-line)" stroke-width="1.20901" stroke-miterlimit="10"/>
  <path d="M261.69 49.7241C261.69 53.4151 255.708 56.4481 244.7 56.4691C233.692 56.4901 227.689 53.5421 227.668 49.8301" stroke="var(--illu-line)" stroke-width="1.20901" stroke-miterlimit="10"/>
  <path d="M261.674 43.7158C261.674 47.4068 255.693 50.4398 244.685 50.4608C233.676 50.4828 227.674 47.5338 227.652 43.8218" stroke="var(--illu-line)" stroke-width="1.20901" stroke-miterlimit="10"/>
  <path d="M261.627 37.6929C261.627 41.3839 255.646 44.4169 244.638 44.4379C233.629 44.4589 227.627 41.5109 227.605 37.7989" stroke="var(--illu-line)" stroke-width="1.20901" stroke-miterlimit="10"/>
  <path d="M261.604 31.7007C261.604 35.3907 255.623 38.4247 244.614 38.4457C233.606 38.4667 227.603 35.5187 227.582 31.8067" stroke="var(--illu-line)" stroke-width="1.20901" stroke-miterlimit="10"/>
  <path d="M261.588 25.6621C261.588 29.3521 255.607 32.3851 244.599 32.4071C233.59 32.4281 227.588 29.4801 227.566 25.7681" stroke="var(--illu-line)" stroke-width="1.20901" stroke-miterlimit="10"/>
  <path d="M261.561 19.6699C261.561 23.3599 255.58 26.3929 244.571 26.4139C233.563 26.4359 227.56 23.4869 227.539 19.7759" stroke="var(--illu-line)" stroke-width="1.20901" stroke-miterlimit="10"/>
  <path d="M261.545 13.6299C261.545 17.3209 255.564 20.3539 244.556 20.3749C233.547 20.3969 227.545 17.4479 227.523 13.7359" stroke="var(--illu-line)" stroke-width="1.20901" stroke-miterlimit="10"/>
  <path d="M261.522 7.6377C261.522 11.3287 255.54 14.3617 244.532 14.3827C233.524 14.4037 227.521 11.4557 227.5 7.74368" stroke="var(--illu-line)" stroke-width="1.20901" stroke-miterlimit="10"/>
  <path d="M244.511 14.3991C253.906 14.3991 261.522 11.4081 261.522 7.71811C261.522 4.02811 253.906 1.03711 244.511 1.03711C235.116 1.03711 227.5 4.02811 227.5 7.71811C227.5 11.4081 235.116 14.3991 244.511 14.3991Z" fill="var(--illu-white)" stroke="var(--illu-line)" stroke-width="1.20901" stroke-miterlimit="10"/>
  <path d="M255.77 14.396V113.259" stroke="var(--illu-white)" stroke-width="1.20901" stroke-miterlimit="10"/>
  <path d="M249.242 15.873V113.272" stroke="var(--illu-white)" stroke-width="4.19971" stroke-miterlimit="10"/>
  <path d="M251.172 50.8301L251.596 124.177C251.596 127.867 257.641 130.837 268.628 130.816C279.615 130.794 285.618 127.761 285.618 124.071L285.194 50.7241L251.193 50.8511L251.172 50.8301Z" fill="var(--illu-white)" stroke="var(--illu-line)" stroke-width="1.20901" stroke-miterlimit="10"/>
  <path d="M285.616 124.021C285.616 127.712 279.634 130.745 268.626 130.766C257.618 130.787 251.615 127.839 251.594 124.127" stroke="var(--illu-line)" stroke-width="1.20901" stroke-miterlimit="10"/>
  <path d="M285.577 117.896C285.577 121.587 279.595 124.62 268.587 124.641C257.579 124.662 251.576 121.714 251.555 118.002" stroke="var(--illu-line)" stroke-width="1.20901" stroke-miterlimit="10"/>
  <path d="M285.561 111.802C285.561 115.493 279.58 118.526 268.571 118.547C257.563 118.569 251.56 115.62 251.539 111.908" stroke="var(--illu-line)" stroke-width="1.20901" stroke-miterlimit="10"/>
  <path d="M285.506 105.685C285.506 109.376 279.525 112.409 268.517 112.43C257.508 112.451 251.506 109.503 251.484 105.791" stroke="var(--illu-line)" stroke-width="1.20901" stroke-miterlimit="10"/>
  <path d="M285.467 99.5757C285.467 103.266 279.486 106.3 268.477 106.321C257.469 106.342 251.467 103.394 251.445 99.6817" stroke="var(--illu-line)" stroke-width="1.20901" stroke-miterlimit="10"/>
  <path d="M285.424 93.4741C285.424 97.1651 279.443 100.198 268.434 100.219C257.426 100.24 251.424 97.2921 251.402 93.5801" stroke="var(--illu-line)" stroke-width="1.20901" stroke-miterlimit="10"/>
  <path d="M285.409 87.3569C285.409 91.0479 279.427 94.0809 268.419 94.1019C257.411 94.1229 251.408 91.1749 251.387 87.4629" stroke="var(--illu-line)" stroke-width="1.20901" stroke-miterlimit="10"/>
  <path d="M285.362 81.2397C285.362 84.9297 279.38 87.9637 268.372 87.9847C257.364 88.0057 251.361 85.0578 251.34 81.3458" stroke="var(--illu-line)" stroke-width="1.20901" stroke-miterlimit="10"/>
  <path d="M285.319 75.1299C285.319 78.8209 279.337 81.8539 268.329 81.8749C257.321 81.8969 251.318 78.9479 251.297 75.2359" stroke="var(--illu-line)" stroke-width="1.20901" stroke-miterlimit="10"/>
  <path d="M285.299 69.0127C285.299 72.7037 279.318 75.7367 268.31 75.7577C257.301 75.7787 251.299 72.8307 251.277 69.1187" stroke="var(--illu-line)" stroke-width="1.20901" stroke-miterlimit="10"/>
  <path d="M285.26 62.896C285.26 66.587 279.279 69.62 268.27 69.641C257.262 69.662 251.259 66.714 251.238 63.002" stroke="var(--illu-line)" stroke-width="1.20901" stroke-miterlimit="10"/>
  <path d="M285.217 56.8018C285.217 60.4928 279.236 63.5258 268.227 63.5468C257.219 63.5688 251.217 60.6197 251.195 56.9077" stroke="var(--illu-line)" stroke-width="1.20901" stroke-miterlimit="10"/>
  <path d="M285.194 50.6851C285.194 54.3761 279.212 57.4091 268.204 57.4301C257.196 57.4511 251.193 54.503 251.172 50.791" stroke="var(--illu-line)" stroke-width="1.20901" stroke-miterlimit="10"/>
  <path d="M268.183 57.4377C277.578 57.4377 285.194 54.4467 285.194 50.7567C285.194 47.0667 277.578 44.0757 268.183 44.0757C258.788 44.0757 251.172 47.0667 251.172 50.7567C251.172 54.4467 258.788 57.4377 268.183 57.4377Z" fill="var(--illu-white)" stroke="var(--illu-line)" stroke-width="1.20901" stroke-miterlimit="10"/>
  <path d="M279.445 57.4351V127.43" stroke="var(--illu-white)" stroke-width="1.20901" stroke-miterlimit="10"/>
  <path d="M272.914 58.9121V127.443" stroke="var(--illu-white)" stroke-width="4.19971" stroke-miterlimit="10"/>
  <path d="M56.5859 58.4551L57.0099 117.357C57.0099 121.048 63.0549 124.017 74.0419 123.996C85.0289 123.975 91.032 120.942 91.032 117.251L90.6079 58.3491L56.6069 58.4761L56.5859 58.4551Z" fill="var(--illu-white)" stroke="var(--illu-line)" stroke-width="1.20901" stroke-miterlimit="10"/>
  <path d="M91.0298 117.646C91.0298 121.337 85.0478 124.37 74.0398 124.391C63.0318 124.412 57.0288 121.464 57.0078 117.752" stroke="var(--illu-line)" stroke-width="1.20901" stroke-miterlimit="10"/>
  <path d="M90.9908 111.701C90.9908 115.391 85.0088 118.425 74.0008 118.446C62.9928 118.467 56.9897 115.519 56.9688 111.807" stroke="var(--illu-line)" stroke-width="1.20901" stroke-miterlimit="10"/>
  <path d="M90.9478 105.771C90.9478 109.462 84.9658 112.495 73.9578 112.516C62.9498 112.537 56.9468 109.589 56.9258 105.877" stroke="var(--illu-line)" stroke-width="1.20901" stroke-miterlimit="10"/>
  <path d="M90.9048 99.8491C90.9048 103.54 84.9228 106.573 73.9148 106.594C62.9068 106.615 56.9038 103.667 56.8828 99.9551" stroke="var(--illu-line)" stroke-width="1.20901" stroke-miterlimit="10"/>
  <path d="M90.8658 93.9199C90.8658 97.6099 84.8838 100.643 73.8758 100.664C62.8678 100.686 56.8647 97.7369 56.8438 94.0259" stroke="var(--illu-line)" stroke-width="1.20901" stroke-miterlimit="10"/>
  <path d="M90.8228 87.9897C90.8228 91.6797 84.8408 94.7137 73.8328 94.7347C62.8248 94.7557 56.8218 91.8078 56.8008 88.0958" stroke="var(--illu-line)" stroke-width="1.20901" stroke-miterlimit="10"/>
  <path d="M90.7759 82.0518C90.7759 85.7428 84.7939 88.7758 73.7859 88.7968C62.7779 88.8188 56.7749 85.8697 56.7539 82.1577" stroke="var(--illu-line)" stroke-width="1.20901" stroke-miterlimit="10"/>
  <path d="M90.7329 76.123C90.7329 79.813 84.751 82.846 73.743 82.868C62.735 82.889 56.7319 79.9411 56.7109 76.2291" stroke="var(--illu-line)" stroke-width="1.20901" stroke-miterlimit="10"/>
  <path d="M90.69 70.209C90.69 73.899 84.708 76.932 73.7 76.954C62.692 76.975 56.689 74.026 56.668 70.315" stroke="var(--illu-line)" stroke-width="1.20901" stroke-miterlimit="10"/>
  <path d="M90.647 64.2549C90.647 67.9459 84.665 70.9789 73.657 70.9999C62.649 71.0219 56.646 68.0729 56.625 64.3609" stroke="var(--illu-line)" stroke-width="1.20901" stroke-miterlimit="10"/>
  <path d="M90.6079 58.3408C90.6079 62.0318 84.626 65.0648 73.618 65.0858C62.61 65.1078 56.6069 62.1588 56.5859 58.4468" stroke="var(--illu-line)" stroke-width="1.20901" stroke-miterlimit="10"/>
  <path d="M73.5969 65.0949C82.9919 65.0949 90.6079 62.1029 90.6079 58.4129C90.6079 54.7229 82.9919 51.7319 73.5969 51.7319C64.2019 51.7319 56.5859 54.7229 56.5859 58.4129C56.5859 62.1029 64.2019 65.0949 73.5969 65.0949Z" fill="var(--illu-white)" stroke="var(--illu-line)" stroke-width="1.20901" stroke-miterlimit="10"/>
  <path d="M84.855 65.0908V120.663" stroke="var(--illu-white)" stroke-width="1.20901" stroke-miterlimit="10"/>
  <path d="M78.3281 66.5288V120.658" stroke="var(--illu-white)" stroke-width="4.19971" stroke-miterlimit="10"/>
  <path d="M204.875 76.127L205.299 120.606C205.299 124.297 211.344 127.266 222.331 127.245C233.319 127.224 239.321 124.19 239.321 120.5L238.897 76.021L204.896 76.148L204.875 76.127Z" fill="var(--illu-white)" stroke="var(--illu-line)" stroke-width="1.20901" stroke-miterlimit="10"/>
  <path d="M239.295 120.459C239.295 124.149 233.314 127.182 222.306 127.204C211.297 127.225 205.295 124.276 205.273 120.565" stroke="var(--illu-line)" stroke-width="1.20901" stroke-miterlimit="10"/>
  <path d="M239.241 114.107C239.241 117.798 233.259 120.831 222.251 120.852C211.243 120.873 205.24 117.925 205.219 114.213" stroke="var(--illu-line)" stroke-width="1.20901" stroke-miterlimit="10"/>
  <path d="M239.17 107.748C239.17 111.438 233.189 114.471 222.181 114.493C211.172 114.514 205.17 111.566 205.148 107.854" stroke="var(--illu-line)" stroke-width="1.20901" stroke-miterlimit="10"/>
  <path d="M239.131 101.388C239.131 105.079 233.15 108.112 222.142 108.133C211.133 108.154 205.131 105.206 205.109 101.494" stroke="var(--illu-line)" stroke-width="1.20901" stroke-miterlimit="10"/>
  <path d="M239.065 95.0601C239.065 98.7511 233.083 101.784 222.075 101.805C211.067 101.826 205.064 98.878 205.043 95.166" stroke="var(--illu-line)" stroke-width="1.20901" stroke-miterlimit="10"/>
  <path d="M238.998 88.6851C238.998 92.3761 233.017 95.4091 222.009 95.4301C211 95.4511 204.998 92.503 204.977 88.791" stroke="var(--illu-line)" stroke-width="1.20901" stroke-miterlimit="10"/>
  <path d="M238.94 82.3408C238.94 86.0318 232.958 89.0648 221.95 89.0858C210.942 89.1078 204.939 86.1588 204.918 82.4468" stroke="var(--illu-line)" stroke-width="1.20901" stroke-miterlimit="10"/>
  <path d="M238.873 75.9819C238.873 79.6729 232.892 82.7059 221.884 82.7269C210.875 82.7479 204.873 79.7999 204.852 76.0879" stroke="var(--illu-line)" stroke-width="1.20901" stroke-miterlimit="10"/>
  <path d="M221.863 82.735C231.257 82.735 238.873 79.744 238.873 76.054C238.873 72.364 231.257 69.373 221.863 69.373C212.468 69.373 204.852 72.364 204.852 76.054C204.852 79.744 212.468 82.735 221.863 82.735Z" fill="var(--illu-white)" stroke="var(--illu-line)" stroke-width="1.20901" stroke-miterlimit="10"/>
  <path d="M233.148 82.7627V123.891" stroke="var(--illu-white)" stroke-width="1.20901" stroke-miterlimit="10"/>
  <path d="M226.617 84.209V123.894" stroke="var(--illu-white)" stroke-width="4.19971" stroke-miterlimit="10"/>
  <path d="M100.922 140.703V120.935L219.341 135.252V154.999L179.783 169.401L100.922 140.703Z" fill="var(--illu-gray)" stroke="var(--illu-line)" stroke-width="1.20901" stroke-linejoin="round"/>
  <path d="M100.922 120.939L140.48 106.537L219.341 135.256L179.783 149.637L100.922 120.939Z" fill="var(--illu-white)" stroke="var(--illu-line)" stroke-width="1.20901" stroke-linejoin="round"/>
  <path d="M127.965 130.753L167.523 116.373L189.561 124.39L150.003 138.771L127.965 130.753Z" fill="var(--illu-white)" stroke="var(--illu-line)" stroke-width="1.20901" stroke-linejoin="round"/>
  <path d="M219.341 154.997L179.783 169.399L100.922 140.701" stroke="var(--illu-line)" stroke-width="1.20901" stroke-linejoin="round"/>
  <path d="M219.341 150.067L179.783 164.469L100.922 135.771" stroke="var(--illu-line)" stroke-width="1.20901" stroke-linejoin="round"/>
  <path d="M219.341 145.13L179.783 159.532L100.922 130.834" stroke="var(--illu-line)" stroke-width="1.20901" stroke-linejoin="round"/>
  <path d="M219.341 140.174L179.783 154.576L100.922 125.857" stroke="var(--illu-line)" stroke-width="1.20901" stroke-linejoin="round"/>
  <path d="M219.341 135.237L179.783 149.618L100.922 120.92" stroke="var(--illu-line)" stroke-width="1.20901" stroke-linejoin="round"/>
  <path d="M150.003 138.781L127.965 130.763V150.532L150.003 158.549V138.781Z" fill="var(--illu-white)" stroke="var(--illu-line)" stroke-width="1.20901" stroke-linejoin="round"/>
  <path d="M179.336 149.638V169.407" stroke="var(--illu-line)" stroke-width="1.20901" stroke-linejoin="round"/>
  <path d="M100.922 120.93V101.162L219.341 115.479V135.247L179.783 149.628L100.922 120.93Z" fill="var(--illu-gray)" stroke="var(--illu-line)" stroke-width="1.20901" stroke-linejoin="round"/>
  <path d="M100.922 101.16L140.48 86.7788L219.341 115.477L179.783 129.879L100.922 101.16Z" fill="var(--illu-white)" stroke="var(--illu-line)" stroke-width="1.20901" stroke-linejoin="round"/>
  <path d="M127.965 111.001L167.523 96.5991L189.561 104.617L150.003 119.019L127.965 111.001Z" fill="var(--illu-white)" stroke="var(--illu-line)" stroke-width="1.20901" stroke-linejoin="round"/>
  <path d="M219.341 135.245L179.783 149.625L100.922 120.927" stroke="var(--illu-line)" stroke-width="1.20901" stroke-linejoin="round"/>
  <path d="M219.341 130.294L179.783 144.696L100.922 115.998" stroke="var(--illu-line)" stroke-width="1.20901" stroke-linejoin="round"/>
  <path d="M219.341 125.34L179.783 139.743L100.922 111.044" stroke="var(--illu-line)" stroke-width="1.20901" stroke-linejoin="round"/>
  <path d="M219.341 120.395L179.783 134.797L100.922 106.099" stroke="var(--illu-line)" stroke-width="1.20901" stroke-linejoin="round"/>
  <path d="M219.341 115.458L179.783 129.86L100.922 101.162" stroke="var(--illu-line)" stroke-width="1.20901" stroke-linejoin="round"/>
  <path d="M150.003 119.023L127.965 111.005V130.753L150.003 138.77V119.023Z" fill="var(--illu-highlight)" stroke="var(--illu-line)" stroke-width="1.20901" stroke-linejoin="round"/>
  <path d="M179.336 129.88V149.628" stroke="var(--illu-line)" stroke-width="1.20901" stroke-linejoin="round"/>
  <path d="M100.922 101.167V81.4199L219.341 95.7149V115.484L179.783 129.886L100.922 101.167Z" fill="var(--illu-gray)" stroke="var(--illu-line)" stroke-width="1.20901" stroke-linejoin="round"/>
  <path d="M100.922 81.423L140.48 67.021L219.341 95.719L179.783 110.121L100.922 81.423Z" fill="var(--illu-white)" stroke="var(--illu-line)" stroke-width="1.20901" stroke-linejoin="round"/>
  <path d="M127.965 91.2428L167.523 76.8408L189.561 84.8588L150.003 99.2608L127.965 91.2428Z" fill="var(--illu-white)" stroke="var(--illu-line)" stroke-width="1.20901" stroke-linejoin="round"/>
  <path d="M219.341 115.495L179.783 129.897L100.922 101.177" stroke="var(--illu-line)" stroke-width="1.20901" stroke-linejoin="round"/>
  <path d="M219.341 110.565L179.783 124.946L100.922 96.248" stroke="var(--illu-line)" stroke-width="1.20901" stroke-linejoin="round"/>
  <path d="M219.341 105.612L179.783 119.993L100.922 91.2939" stroke="var(--illu-line)" stroke-width="1.20901" stroke-linejoin="round"/>
  <path d="M219.341 100.645L179.783 115.047L100.922 86.3491" stroke="var(--illu-line)" stroke-width="1.20901" stroke-linejoin="round"/>
  <path d="M219.341 95.7081L179.783 110.11L100.922 81.4121" stroke="var(--illu-line)" stroke-width="1.20901" stroke-linejoin="round"/>
  <path d="M150.003 99.265L127.965 91.248V111.016L150.003 119.034V99.265Z" fill="var(--illu-highlight)" stroke="var(--illu-line)" stroke-width="1.20901" stroke-linejoin="round"/>
  <path d="M179.336 110.123V129.891" stroke="var(--illu-line)" stroke-width="1.20901" stroke-linejoin="round"/>
  <path d="M100.922 81.414V61.646L219.341 75.942V95.71L179.783 110.112L100.922 81.414Z" fill="var(--illu-gray)" stroke="var(--illu-line)" stroke-width="1.20901" stroke-linejoin="round"/>
  <path d="M100.922 61.65L140.48 47.248L219.341 75.946L179.783 90.348L100.922 61.65Z" fill="var(--illu-white)" stroke="var(--illu-line)" stroke-width="1.20901" stroke-linejoin="round"/>
  <path d="M127.965 71.4699L167.523 57.0679L189.561 65.1069L150.003 79.4879L127.965 71.4699Z" fill="var(--illu-highlight)" stroke="var(--illu-line)" stroke-width="1.20901" stroke-linejoin="round"/>
  <path d="M219.341 95.7081L179.783 110.11L100.922 81.4121" stroke="var(--illu-line)" stroke-width="1.20901" stroke-linejoin="round"/>
  <path d="M219.341 90.7779L179.783 105.18L100.922 76.4819" stroke="var(--illu-line)" stroke-width="1.20901" stroke-linejoin="round"/>
  <path d="M219.341 85.8399L179.783 100.243L100.922 71.5439" stroke="var(--illu-line)" stroke-width="1.20901" stroke-linejoin="round"/>
  <path d="M219.341 80.8849L179.783 95.2659L100.922 66.5679" stroke="var(--illu-line)" stroke-width="1.20901" stroke-linejoin="round"/>
  <path d="M219.341 75.9479L179.783 90.3279L100.922 61.6299" stroke="var(--illu-line)" stroke-width="1.20901" stroke-linejoin="round"/>
  <path d="M150.003 79.4921L127.965 71.4741V91.2431L150.003 99.2601V79.4921Z" fill="var(--illu-highlight)" stroke="var(--illu-line)" stroke-width="1.20901" stroke-linejoin="round"/>
  <path d="M179.336 90.3491V110.118" stroke="var(--illu-line)" stroke-width="1.20901" stroke-linejoin="round"/>
  <path d="M38.7271 155.664V135.896L157.124 150.213V169.96L117.567 184.362L38.7271 155.664Z" fill="var(--illu-gray)" stroke="var(--illu-line)" stroke-width="1.20901" stroke-linejoin="round"/>
  <path d="M38.7271 135.894L78.2841 121.513L157.124 150.211L117.567 164.592L38.7271 135.894Z" fill="var(--illu-white)" stroke="var(--illu-line)" stroke-width="1.20901" stroke-linejoin="round"/>
  <path d="M65.77 145.714L105.306 131.334L127.344 139.351L87.786 153.753L65.77 145.714Z" fill="var(--illu-white)" stroke="var(--illu-line)" stroke-width="1.20901" stroke-linejoin="round"/>
  <path d="M157.124 169.958L117.567 184.36L38.7271 155.662" stroke="var(--illu-line)" stroke-width="1.20901" stroke-linejoin="round"/>
  <path d="M157.124 165.028L117.567 179.43L38.7271 150.732" stroke="var(--illu-line)" stroke-width="1.20901" stroke-linejoin="round"/>
  <path d="M157.124 160.09L117.567 174.493L38.7271 145.794" stroke="var(--illu-line)" stroke-width="1.20901" stroke-linejoin="round"/>
  <path d="M157.124 155.145L117.567 169.547L38.7271 140.849" stroke="var(--illu-line)" stroke-width="1.20901" stroke-linejoin="round"/>
  <path d="M157.124 150.198L117.567 164.6L38.7271 135.88" stroke="var(--illu-line)" stroke-width="1.20901" stroke-linejoin="round"/>
  <path d="M87.786 153.74L65.77 145.701V165.469L87.786 173.487V153.74Z" fill="var(--illu-highlight)" stroke="var(--illu-line)" stroke-width="1.20901" stroke-linejoin="round"/>
  <path d="M117.141 164.599V184.368" stroke="var(--illu-line)" stroke-width="1.20901" stroke-linejoin="round"/>
  <path d="M38.7271 135.885V116.138L157.124 130.434V150.203L117.567 164.583L38.7271 135.885Z" fill="var(--illu-gray)" stroke="var(--illu-line)" stroke-width="1.20901" stroke-linejoin="round"/>
  <path d="M38.7271 116.142L78.2841 101.74L157.124 130.438L117.567 144.84L38.7271 116.142Z" fill="var(--illu-white)" stroke="var(--illu-line)" stroke-width="1.20901" stroke-linejoin="round"/>
  <path d="M65.77 125.962L105.306 111.56L127.344 119.578L87.786 133.98L65.77 125.962Z" fill="var(--illu-highlight)" stroke="var(--illu-line)" stroke-width="1.20901" stroke-linejoin="round"/>
  <path d="M157.124 150.205L117.567 164.586L38.7271 135.888" stroke="var(--illu-line)" stroke-width="1.20901" stroke-linejoin="round"/>
  <path d="M157.124 145.276L117.567 159.657L38.7271 130.959" stroke="var(--illu-line)" stroke-width="1.20901" stroke-linejoin="round"/>
  <path d="M157.124 140.301L117.567 154.703L38.7271 126.005" stroke="var(--illu-line)" stroke-width="1.20901" stroke-linejoin="round"/>
  <path d="M157.124 135.356L117.567 149.758L38.7271 121.06" stroke="var(--illu-line)" stroke-width="1.20901" stroke-linejoin="round"/>
  <path d="M157.124 130.419L117.567 144.821L38.7271 116.123" stroke="var(--illu-line)" stroke-width="1.20901" stroke-linejoin="round"/>
  <path d="M87.786 133.984L65.77 125.966V145.714L87.786 153.752V133.984Z" fill="var(--illu-highlight)" stroke="var(--illu-line)" stroke-width="1.20901" stroke-linejoin="round"/>
  <path d="M117.141 144.841V164.589" stroke="var(--illu-line)" stroke-width="1.20901" stroke-linejoin="round"/>
  <path d="M203.879 132.127L204.303 169.394C204.303 173.085 210.348 176.054 221.335 176.033C232.322 176.012 238.325 172.979 238.325 169.288L237.901 132.021L203.9 132.148L203.879 132.127Z" fill="var(--illu-white)" stroke="var(--illu-line)" stroke-width="1.20901" stroke-miterlimit="10"/>
  <path d="M238.323 169.248C238.323 172.938 232.341 175.971 221.333 175.993C210.325 176.014 204.322 173.066 204.301 169.354" stroke="var(--illu-line)" stroke-width="1.20901" stroke-miterlimit="10"/>
  <path d="M238.241 163.037C238.241 166.727 232.259 169.76 221.251 169.782C210.243 169.803 204.24 166.855 204.219 163.143" stroke="var(--illu-line)" stroke-width="1.20901" stroke-miterlimit="10"/>
  <path d="M238.17 156.826C238.17 160.516 232.189 163.55 221.181 163.571C210.172 163.592 204.17 160.644 204.148 156.932" stroke="var(--illu-line)" stroke-width="1.20901" stroke-miterlimit="10"/>
  <path d="M238.104 150.623C238.104 154.313 232.123 157.346 221.114 157.368C210.106 157.389 204.103 154.441 204.082 150.729" stroke="var(--illu-line)" stroke-width="1.20901" stroke-miterlimit="10"/>
  <path d="M238.026 144.412C238.026 148.102 232.044 151.135 221.036 151.157C210.028 151.178 204.025 148.23 204.004 144.518" stroke="var(--illu-line)" stroke-width="1.20901" stroke-miterlimit="10"/>
  <path d="M237.955 138.193C237.955 141.884 231.974 144.917 220.966 144.938C209.957 144.959 203.955 142.011 203.934 138.299" stroke="var(--illu-line)" stroke-width="1.20901" stroke-miterlimit="10"/>
  <path d="M237.873 131.982C237.873 135.673 231.892 138.706 220.884 138.727C209.875 138.748 203.873 135.8 203.852 132.088" stroke="var(--illu-line)" stroke-width="1.20901" stroke-miterlimit="10"/>
  <path d="M220.89 138.735C230.285 138.735 237.901 135.744 237.901 132.054C237.901 128.364 230.285 125.373 220.89 125.373C211.495 125.373 203.879 128.364 203.879 132.054C203.879 135.744 211.495 138.735 220.89 138.735Z" fill="var(--illu-white)" stroke="var(--illu-line)" stroke-width="1.20901" stroke-miterlimit="10"/>
  <path d="M232.145 138.763V172.679" stroke="var(--illu-white)" stroke-width="1.20901" stroke-miterlimit="10"/>
  <path d="M225.617 140.209V172.682" stroke="var(--illu-white)" stroke-width="4.19971" stroke-miterlimit="10"/>
  <path d="M70.5898 153.697L71.0139 190.965C71.0139 194.655 77.0588 197.625 88.0458 197.603C99.0328 197.582 105.036 194.549 105.036 190.859L104.612 153.591L70.6108 153.719L70.5898 153.697Z" fill="var(--illu-white)" stroke="var(--illu-line)" stroke-width="1.20901" stroke-miterlimit="10"/>
  <path d="M105.01 191.24C105.01 194.93 99.0288 197.964 88.0198 197.985C77.0118 198.006 71.0088 195.058 70.9878 191.346" stroke="var(--illu-line)" stroke-width="1.20901" stroke-miterlimit="10"/>
  <path d="M104.955 184.959C104.955 188.649 98.9741 191.682 87.9661 191.704C76.9571 191.725 70.9551 188.776 70.9341 185.065" stroke="var(--illu-line)" stroke-width="1.20901" stroke-miterlimit="10"/>
  <path d="M104.885 178.677C104.885 182.368 98.9038 185.401 87.8948 185.422C76.8868 185.444 70.8838 182.495 70.8628 178.783" stroke="var(--illu-line)" stroke-width="1.20901" stroke-miterlimit="10"/>
  <path d="M104.803 172.396C104.803 176.087 98.8222 179.12 87.8132 179.141C76.8052 179.162 70.8022 176.214 70.7812 172.502" stroke="var(--illu-line)" stroke-width="1.20901" stroke-miterlimit="10"/>
  <path d="M104.741 166.115C104.741 169.805 98.7588 172.839 87.7508 172.86C76.7428 172.881 70.7397 169.933 70.7188 166.221" stroke="var(--illu-line)" stroke-width="1.20901" stroke-miterlimit="10"/>
  <path d="M104.67 159.857C104.67 163.548 98.6889 166.581 87.6809 166.602C76.6719 166.623 70.6699 163.675 70.6479 159.963" stroke="var(--illu-line)" stroke-width="1.20901" stroke-miterlimit="10"/>
  <path d="M104.588 153.591C104.588 157.282 98.6069 160.315 87.5989 160.336C76.5899 160.358 70.5879 157.409 70.5659 153.697" stroke="var(--illu-line)" stroke-width="1.20901" stroke-miterlimit="10"/>
  <path d="M87.5769 160.306C96.9719 160.306 104.588 157.314 104.588 153.624C104.588 149.934 96.9719 146.943 87.5769 146.943C78.1819 146.943 70.5659 149.934 70.5659 153.624C70.5659 157.314 78.1819 160.306 87.5769 160.306Z" fill="var(--illu-white)" stroke="var(--illu-line)" stroke-width="1.20901" stroke-miterlimit="10"/>
  <path d="M98.8628 160.334V194.249" stroke="var(--illu-white)" stroke-width="1.20901" stroke-miterlimit="10"/>
  <path d="M92.332 161.779V194.252" stroke="var(--illu-white)" stroke-width="4.19971" stroke-miterlimit="10"/>
  <path d="M151.446 207.727L143.704 186.008C143.449 185.286 142.898 184.586 142.134 184.311L121.709 176.866C119.884 176.208 116.915 176.208 115.091 176.866L52.1379 199.773C51.3739 200.049 50.8229 200.813 50.5259 201.661L42.7199 224.293C42.2959 225.481 42.89 226.541 43.95 226.923L71.4819 236.934C73.3059 237.592 76.2749 237.592 78.0989 236.934L127.011 219.139L150.237 210.676C151.531 210.209 151.913 209.127 151.425 207.727H151.446Z" fill="var(--illu-white)" stroke="var(--illu-line)" stroke-width="1.20901" stroke-linejoin="round"/>
  <path d="M53.0981 202.532L72.5901 209.616C74.4141 210.273 77.3842 210.273 79.2082 209.616L140.91 187.154" fill="var(--illu-white)"/>
  <path d="M53.0981 202.532L72.5901 209.616C74.4141 210.273 77.3842 210.273 79.2082 209.616L140.91 187.154" stroke="var(--illu-line)" stroke-width="1.20901" stroke-linecap="round" stroke-linejoin="round"/>
  <path d="M74.8789 234.792L75.7489 212.818" stroke="var(--illu-line)" stroke-width="1.20901" stroke-linecap="round" stroke-linejoin="round"/>
  <path d="M11.1147 149.634C11.1147 153.898 13.2998 157.609 16.6088 159.752C18.0928 160.706 18.9627 162.382 18.8987 164.164C18.8987 164.418 18.8987 164.673 18.8987 164.927C19.1107 168.957 21.8898 172.605 25.7928 173.666C32.2198 175.405 38.0098 170.633 38.0528 164.482C38.0528 162.721 38.9428 161.003 40.4708 160.134C44.0978 158.055 46.5578 154.152 46.5578 149.634C46.5578 146.728 45.5397 144.077 43.8427 141.998C42.4427 140.28 41.8487 138.053 42.2097 135.89C42.2947 135.381 42.3368 134.872 42.3368 134.341C42.3368 131.054 40.6607 128.169 38.1367 126.451C36.9917 125.666 36.3128 124.457 36.1218 123.1C35.6338 119.409 32.4528 116.63 28.6768 116.63C24.9018 116.63 21.6778 119.473 21.2108 123.185C21.0418 124.584 20.3628 125.815 19.2168 126.642C16.8418 128.381 15.2928 131.181 15.2928 134.363C15.2928 134.872 15.3357 135.381 15.4207 135.89C15.7807 138.117 15.2297 140.302 13.8087 142.041C12.1117 144.119 11.0938 146.771 11.0938 149.677L11.1147 149.634Z" fill="var(--illu-bg)" stroke="var(--illu-line)" stroke-width="1.20901" stroke-linejoin="round"/>
  <path d="M28.8521 187.074V131.099" stroke="var(--illu-line)" stroke-width="1.20901" stroke-miterlimit="10" stroke-linecap="round"/>
  <path d="M28.8521 150.256L36.1271 141.029" stroke="var(--illu-line)" stroke-width="1.20901" stroke-miterlimit="10" stroke-linecap="round"/>
  <path d="M28.8492 159.484L21.7231 151.912" stroke="var(--illu-line)" stroke-width="1.20901" stroke-miterlimit="10" stroke-linecap="round"/>
  <path d="M296.991 123.545C296.822 122.23 297.118 120.936 297.797 119.812C298.646 118.412 299.155 116.779 299.155 115.019C299.155 110.925 296.461 107.468 292.749 106.28C291.646 105.919 290.861 105.028 290.586 103.904C289.78 100.701 286.831 98.1768 283.204 98.1768C279.577 98.1768 276.65 100.574 275.823 103.947C275.547 105.071 274.762 105.962 273.66 106.301C269.948 107.489 267.254 110.925 267.254 115.04C267.254 116.8 267.742 118.433 268.611 119.833C269.29 120.936 269.587 122.251 269.439 123.545C269.396 123.821 269.396 124.118 269.396 124.436C269.396 129.124 273.193 132.942 277.902 132.942C278.602 132.942 279.302 132.857 279.938 132.687C282.101 132.136 284.371 132.136 286.534 132.687C287.192 132.857 287.871 132.942 288.592 132.942C293.279 132.942 297.097 129.145 297.097 124.436C297.097 124.245 297.097 123.969 297.055 123.566L296.991 123.545Z" fill="var(--illu-bg)" stroke="var(--illu-line)" stroke-width="1.20901" stroke-linejoin="round"/>
  <path d="M283.012 143.562V107.42" stroke="var(--illu-line)" stroke-width="1.20901" stroke-miterlimit="10" stroke-linecap="round"/>
  <path d="M283.013 121.784L275.207 114.466" stroke="var(--illu-line)" stroke-width="1.20901" stroke-miterlimit="10" stroke-linecap="round"/>
  <path d="M283.012 126.025L290.945 121.146" stroke="var(--illu-line)" stroke-width="1.20901" stroke-miterlimit="10" stroke-linecap="round"/>
  <path d="M249.376 138.225C250.903 136.529 251.73 134.323 251.73 132.032C251.73 127.811 255.145 124.396 259.366 124.396C263.587 124.396 267.002 127.811 267.002 132.032C267.002 134.323 267.85 136.507 269.356 138.225C271.456 140.58 272.729 143.655 272.729 147.049C272.729 154.43 266.747 160.433 259.345 160.433C251.942 160.433 245.961 154.452 245.961 147.049C245.961 143.655 247.234 140.58 249.333 138.225H249.376Z" fill="var(--illu-bg)" stroke="var(--illu-line)" stroke-width="1.20901" stroke-linejoin="round"/>
  <path d="M259.383 167.827V151.389L263.837 139.044" stroke="var(--illu-line)" stroke-width="1.20901" stroke-miterlimit="10" stroke-linecap="round"/>
  <path d="M259.386 151.407L253.129 143.474" stroke="var(--illu-line)" stroke-width="1.20901" stroke-miterlimit="10" stroke-linecap="round"/>
  <path d="M154.188 199.404L161.845 200.401" stroke="var(--illu-line)" stroke-width="1.20901" stroke-miterlimit="10" stroke-linecap="round"/>
  <path d="M155.984 190.973L163.132 189.849" stroke="var(--illu-line)" stroke-width="1.20901" stroke-miterlimit="10" stroke-linecap="round"/>
  <path d="M150 183.732L155.939 179.49" stroke="var(--illu-line)" stroke-width="1.20901" stroke-miterlimit="10" stroke-linecap="round"/>
  <path d="M35.0849 223.88H27.0039" stroke="var(--illu-line)" stroke-width="1.20901" stroke-miterlimit="10" stroke-linecap="round"/>
  <path d="M38.0328 230.99L28.4878 234.808" stroke="var(--illu-line)" stroke-width="1.20901" stroke-miterlimit="10" stroke-linecap="round"/>
  <path d="M45.9222 234.802L40.4922 239.702" stroke="var(--illu-line)" stroke-width="1.20901" stroke-miterlimit="10" stroke-linecap="round"/>
  <path d="M52.8178 165.288C51.2908 163.591 50.4629 161.385 50.4629 159.094C50.4629 154.873 47.0479 151.459 42.8279 151.459C38.6069 151.459 35.1918 154.873 35.1918 159.094C35.1918 161.385 34.3429 163.57 32.8369 165.288C30.7369 167.642 29.4648 170.718 29.4648 174.112C29.4648 181.493 35.4458 187.495 42.8488 187.495C50.2508 187.495 56.2328 181.514 56.2328 174.112C56.2328 170.718 54.9598 167.642 52.8598 165.288H52.8178Z" fill="var(--illu-bg)" stroke="var(--illu-line)" stroke-width="1.20901" stroke-linejoin="round"/>
  <path d="M42.81 194.888V178.428L38.355 166.084" stroke="var(--illu-line)" stroke-width="1.20901" stroke-miterlimit="10" stroke-linecap="round"/>
  <path d="M42.8008 178.448L49.0578 170.537" stroke="var(--illu-line)" stroke-width="1.20901" stroke-miterlimit="10" stroke-linecap="round"/>
  <path d="M30.3508 187.912C30.1808 186.597 30.4778 185.304 31.1568 184.179C32.0048 182.779 32.5138 181.146 32.5138 179.386C32.5138 175.292 29.8198 171.835 26.1078 170.647C25.0058 170.286 24.2208 169.396 23.9448 168.271C23.1388 165.069 20.1908 162.544 16.5638 162.544C12.9368 162.544 10.0098 164.941 9.18179 168.314C8.90679 169.438 8.1218 170.329 7.0188 170.668C3.3068 171.856 0.612793 175.292 0.612793 179.407C0.612793 181.167 1.10079 182.801 1.97079 184.201C2.64979 185.304 2.94579 186.619 2.79779 187.912C2.75579 188.188 2.7558 188.485 2.7558 188.803C2.7558 193.491 6.55177 197.309 11.2608 197.309C11.9608 197.309 12.6608 197.224 13.2968 197.054C15.4608 196.503 17.7298 196.503 19.8938 197.054C20.5508 197.224 21.2298 197.309 21.9508 197.309C26.6388 197.309 30.4568 193.512 30.4568 188.803C30.4568 188.612 30.4568 188.337 30.4138 187.934L30.3508 187.912Z" fill="var(--illu-bg)" stroke="var(--illu-line)" stroke-width="1.20901" stroke-linejoin="round"/>
  <path d="M16.3711 207.93V171.787" stroke="var(--illu-line)" stroke-width="1.20901" stroke-miterlimit="10" stroke-linecap="round"/>
  <path d="M16.3719 186.146L8.56592 178.849" stroke="var(--illu-line)" stroke-width="1.20901" stroke-miterlimit="10" stroke-linecap="round"/>
  <path d="M16.3711 190.413L24.3041 185.513" stroke="var(--illu-line)" stroke-width="1.20901" stroke-miterlimit="10" stroke-linecap="round"/>
</svg>
