<svg width="147" height="117" viewBox="0 0 147 117" fill="none"
  xmlns="http://www.w3.org/2000/svg">
  <path d="M145.416 46.459V70.121L118.332 68.828L124.717 47.169L145.416 46.459Z" fill="var(--illu-line)" stroke="var(--illu-line)" stroke-width="1.18937" stroke-miterlimit="10"/>
  <path d="M111.322 115.709C117.666 115.709 123.529 112.308 126.701 106.82L143.06 78.3586C146.21 72.8706 146.21 66.1306 143.06 60.6426L132.167 41.7796C128.996 36.2926 123.132 32.9116 116.81 32.9116H12.4169C5.88593 32.9116 0.585938 38.2116 0.585938 44.7426V103.899C0.585938 110.43 5.88593 115.73 12.4169 115.73H111.301L111.322 115.709Z" fill="var(--illu-line)" stroke="var(--illu-line)" stroke-width="1.18937" stroke-miterlimit="10"/>
  <path d="M111.322 92.0368C117.666 92.0368 123.529 88.6358 126.701 83.1478L143.06 54.6868C146.21 49.1988 146.21 42.4587 143.06 36.9707L132.167 18.1087C128.996 12.6207 123.132 9.23975 116.81 9.23975H12.4169C5.88593 9.23975 0.585938 14.5197 0.585938 21.0717V80.2268C0.585938 86.7578 5.88593 92.0578 12.4169 92.0578H111.301L111.322 92.0368Z" fill="var(--illu-bg)" stroke="var(--illu-line)" stroke-width="1.18937" stroke-miterlimit="10"/>
  <path d="M88.2441 37.1706C88.2441 41.3236 90.373 44.9536 93.607 47.0406C95.047 47.9796 95.9021 49.6066 95.8401 51.3386C95.8401 51.5896 95.8401 51.8396 95.8401 52.0896C96.0481 56.0336 98.7611 59.5806 102.559 60.6036C108.818 62.2936 114.473 57.6406 114.494 51.6516C114.494 49.9406 115.37 48.2506 116.852 47.3956C120.378 45.3716 122.778 41.5526 122.778 37.1706C122.778 34.3326 121.776 31.7666 120.149 29.7426C118.792 28.0736 118.208 25.9026 118.563 23.7746C118.646 23.2736 118.688 22.7736 118.688 22.2516C118.688 19.0386 117.06 16.2216 114.577 14.5516C113.451 13.8006 112.783 12.6116 112.616 11.2756C112.136 7.68662 109.027 4.97461 105.355 4.97461C101.682 4.97461 98.5311 7.74962 98.0721 11.3596C97.9051 12.7156 97.2381 13.9256 96.1321 14.7186C93.8161 16.4086 92.292 19.1426 92.292 22.2516C92.292 22.7526 92.3341 23.2536 92.4181 23.7326C92.7721 25.9026 88.87 26.9466 87.472 28.6576C85.824 30.6816 88.203 34.3326 88.203 37.1706H88.2441Z" fill="var(--illu-bg)" stroke="var(--illu-line)" stroke-width="1.18937" stroke-linejoin="round"/>
  <path d="M105.645 68.7689V19.1079" stroke="var(--illu-line)" stroke-width="1.18937" stroke-miterlimit="10" stroke-linecap="round"/>
  <path d="M105.646 35.8557L101.098 30.0757" stroke="var(--illu-line)" stroke-width="1.18937" stroke-miterlimit="10" stroke-linecap="round"/>
  <path d="M105.645 45.0818L113.949 36.2559" stroke="var(--illu-line)" stroke-width="1.18937" stroke-miterlimit="10" stroke-linecap="round"/>
  <path d="M50.8271 86.7107H45.7151L38.2661 65.6147H50.3471L50.8271 86.7107Z" fill="var(--illu-white)" stroke="var(--illu-line)" stroke-width="1.18937" stroke-linejoin="round"/>
  <path d="M75.8911 86.7086H80.9191L77.769 58.5605L65.082 62.6916L75.8911 86.7086Z" fill="var(--illu-white)" stroke="var(--illu-line)" stroke-width="1.18937" stroke-linejoin="round"/>
  <path d="M17.8608 47.2528C11.7688 49.1938 6.78178 43.6638 8.45078 37.8008C9.53578 33.9828 13.5208 31.7498 17.3398 32.8348C18.1118 33.0438 18.5498 33.8567 18.3408 34.6087C18.1328 35.3807 17.3188 35.8187 16.5678 35.6097C14.2728 34.9627 11.8938 36.2988 11.2468 38.5938C10.5998 40.8888 11.9358 43.2677 14.2308 43.9147C16.5258 44.5617 19.4468 42.1827 20.0938 39.8877C20.3028 39.1157 20.5738 39.7207 21.3248 39.9287C22.0968 40.1377 24.1208 40.4297 23.8918 41.2017C23.2238 43.5807 21.8678 45.9808 17.8818 47.2528H17.8608Z" fill="var(--illu-white)" stroke="var(--illu-line)" stroke-width="1.18937" stroke-linejoin="round"/>
  <path d="M93.739 25.6319C93.259 24.3589 92.508 23.0439 91.318 22.2099C90.63 21.7499 89.795 21.4789 88.898 21.4169C88.501 21.3959 88.105 21.4169 87.688 21.4579C91.923 20.4779 95.971 22.5429 96.556 25.0059C97.077 27.1759 94.532 29.2209 94.532 29.2209C94.532 29.2209 94.427 27.4889 93.76 25.6319H93.739Z" fill="var(--illu-white)"/>
  <path d="M93.7319 25.6349C92.1669 26.3029 90.1849 27.9089 87.7229 33.5639L81.8589 27.5339L88.8909 21.5239V21.4199C89.8089 21.4829 90.6439 21.7539 91.3329 22.2129C92.5219 23.0479 93.2729 24.3619 93.7529 25.6349H93.7319Z" fill="var(--illu-white)"/>
  <path d="M88.8958 21.4169V21.5209L81.8638 27.5309L81.6348 27.3009L80.5078 26.8838C82.0728 23.6288 85.0148 21.7719 87.6648 21.4589C88.0818 21.3959 88.4788 21.3959 88.8748 21.4169H88.8958Z" fill="var(--illu-white)"/>
  <path d="M93.7319 25.6387C92.1669 26.3067 90.1849 27.9127 87.7229 33.5677L81.8589 27.5377" stroke="var(--illu-line)" stroke-width="1.18937" stroke-linejoin="round"/>
  <path d="M87.6812 21.4649C88.0982 21.4019 88.4952 21.4019 88.8912 21.4229C89.8092 21.4859 90.6442 21.7569 91.3122 22.2159C92.5012 23.0509 93.2522 24.3649 93.7322 25.6379C94.4212 27.4739 94.5042 29.2269 94.5042 29.2269C94.5042 29.2269 97.0502 27.1819 96.5282 25.0119C95.9442 22.5709 91.8962 20.5049 87.6602 21.4649" stroke="var(--illu-line)" stroke-width="1.18937" stroke-linejoin="round"/>
  <path d="M80.293 27.3298C80.356 27.1838 80.418 27.0378 80.481 26.8918C82.046 23.6368 84.9879 21.7798 87.6379 21.4668" stroke="var(--illu-line)" stroke-width="1.18937" stroke-linejoin="round"/>
  <path d="M96.5449 42.0269C95.6269 41.7349 94.7499 43.0489 93.9359 43.9469C91.9959 26.7109 76.6179 13.7949 56.6489 13.7949C35.2819 13.7949 19.1519 28.5889 19.1519 47.6399C19.1519 58.3229 22.7199 66.8159 29.2309 72.6369L31.8599 86.7009H37.3679L38.5579 78.2919C43.7119 80.3789 49.7629 81.4849 56.6699 81.4849C62.0319 81.4849 67.0609 80.5459 71.5889 78.8559L71.7139 79.4189C85.2349 76.4979 94.4369 67.0249 98.5059 56.5709L96.5449 42.0269Z" fill="var(--illu-white)"/>
  <path d="M96.5449 42.0269C95.6269 41.7349 94.7499 43.0489 93.9359 43.9469C91.9959 26.7109 76.6179 13.7949 56.6489 13.7949C35.2819 13.7949 19.1519 28.5889 19.1519 47.6399C19.1519 58.3229 22.7199 66.8159 29.2309 72.6369L31.8599 86.7009H37.3679L38.5579 78.2919C43.7119 80.3789 49.7629 81.4849 56.6699 81.4849C62.0319 81.4849 67.0609 80.5459 71.5889 78.8559L71.7139 79.4189C85.2349 76.4979 94.4369 67.0249 98.5059 56.5709L96.5449 42.0269Z" stroke="var(--illu-line)" stroke-width="1.18937" stroke-linejoin="round"/>
  <path d="M84.8398 59.6699C85.6328 61.8399 87.8437 62.7579 89.7427 62.5709C88.6367 64.1769 84.2968 65.1159 84.8398 59.6699Z" fill="var(--illu-line)" stroke="var(--illu-line)" stroke-width="1.18937" stroke-linecap="round" stroke-linejoin="round"/>
  <path d="M41.5218 24.2867C40.6878 24.2867 39.9159 23.8067 39.6029 22.9727C39.2059 21.9287 39.7489 20.7607 40.7919 20.3847C44.8819 18.8617 49.3469 17.8807 54.0839 17.4847C58.0899 17.1507 61.9499 17.2547 65.6019 17.8187C66.7079 17.9857 67.4589 19.0077 67.2919 20.1137C67.1249 21.2197 66.1029 21.9707 64.9969 21.8037C61.6789 21.3027 58.1109 21.1987 54.4379 21.5117C50.0569 21.8877 45.9459 22.7847 42.2109 24.1827C41.9809 24.2657 41.7729 24.3077 41.5429 24.3077L41.5218 24.2867Z" fill="var(--illu-line)" stroke="var(--illu-line)" stroke-width="1.18937" stroke-linejoin="round"/>
  <path d="M38.6021 77.813C45.4251 76.832 50.829 71.553 51.998 64.772L38.6021 77.813Z" fill="var(--illu-white)"/>
  <path d="M38.6021 77.813C45.4251 76.832 50.829 71.553 51.998 64.772" stroke="var(--illu-line)" stroke-width="1.18937" stroke-linecap="round" stroke-linejoin="round"/>
  <path d="M81.9632 33.9617C81.9212 34.5877 81.3992 35.0677 80.7732 35.0467C80.1472 35.0047 79.6672 34.4827 79.6882 33.8567C79.7302 33.2307 80.2522 32.7507 80.8782 32.7717C81.5042 32.8137 81.9832 33.3357 81.9632 33.9617Z" fill="var(--illu-line)"/>
  <path d="M87.6228 33.0007C87.5808 33.6267 87.0588 34.1067 86.4328 34.0857C85.8068 34.0647 85.3268 33.5217 85.3478 32.8957C85.3898 32.2697 85.9118 31.7907 86.5378 31.8107C87.1638 31.8527 87.6438 32.3747 87.6228 33.0007Z" fill="var(--illu-line)"/>
  <path d="M77.7079 25.9668C77.2279 27.5528 77.4359 29.1178 78.2499 30.8708L77.7079 25.9668Z" fill="var(--illu-white)"/>
  <path d="M77.7079 25.9668C77.2279 27.5528 77.4359 29.1178 78.2499 30.8708" stroke="var(--illu-line)" stroke-width="1.18937" stroke-linecap="round" stroke-linejoin="round"/>
  <path d="M67.6897 36.0638C64.5807 25.2758 73.7197 21.8119 79.9587 27.0289C79.9587 25.3389 79.5417 23.5648 77.5377 22.7088C75.2427 21.7288 71.4247 22.8559 68.4197 27.2999" fill="var(--illu-white)"/>
  <path d="M67.6897 36.0638C64.5807 25.2758 73.7197 21.8119 79.9587 27.0289C79.9587 25.3389 79.5417 23.5648 77.5377 22.7088C75.2427 21.7288 71.4247 22.8559 68.4197 27.2999" stroke="var(--illu-line)" stroke-width="1.18937" stroke-linecap="round" stroke-linejoin="round"/>
  <path d="M93.4827 60.8065L93.1288 57.3015C94.1928 54.9645 94.5887 51.7925 94.2347 48.3705C93.8797 45.0315 92.8778 42.0896 91.4178 40.0246L91.0627 36.4976L84.1558 37.1446" fill="var(--illu-white)"/>
  <path d="M93.4827 60.8065L93.1288 57.3015C94.1928 54.9645 94.5887 51.7925 94.2347 48.3705C93.8797 45.0315 92.8778 42.0896 91.4178 40.0246L91.0627 36.4976L84.1558 37.1446" stroke="var(--illu-line)" stroke-width="1.18937" stroke-linecap="round" stroke-linejoin="round"/>
  <path d="M99.4939 47.8859C98.7849 41.1879 95.4669 36.0339 91.0019 36.5139C86.5369 36.9939 84.3669 42.7109 85.0549 49.4089C85.7649 56.1069 89.0819 61.2609 93.5479 60.7809C98.0129 60.3009 100.183 54.5839 99.4939 47.8859Z" fill="var(--illu-white)" stroke="var(--illu-line)" stroke-width="1.18937" stroke-linejoin="round"/>
  <path d="M90.188 44.9277L90.96 52.3767" stroke="var(--illu-line)" stroke-width="1.18937" stroke-linecap="round" stroke-linejoin="round"/>
  <path d="M94.3789 44.4897L95.1719 51.9397" stroke="var(--illu-line)" stroke-width="1.18937" stroke-linecap="round" stroke-linejoin="round"/>
  <path d="M60.1321 20.2007C64.1431 20.2007 67.3941 16.9497 67.3941 12.9387C67.3941 8.92874 64.1431 5.67773 60.1321 5.67773C56.1221 5.67773 52.8711 8.92874 52.8711 12.9387C52.8711 16.9497 56.1221 20.2007 60.1321 20.2007Z" fill="var(--illu-white)" stroke="var(--illu-line)" stroke-width="1.18937" stroke-linejoin="round"/>
  <path d="M51.3699 12.4638C54.5269 12.4638 57.0869 9.90378 57.0869 6.74678C57.0869 3.58878 54.5269 1.02979 51.3699 1.02979C48.2119 1.02979 45.6519 3.58878 45.6519 6.74678C45.6519 9.90378 48.2119 12.4638 51.3699 12.4638Z" fill="var(--illu-white)" stroke="var(--illu-line)" stroke-width="1.18937" stroke-linejoin="round"/>
  <path d="M53.3825 21.6293C50.096 21.978 46.9706 22.625 44.0509 23.5614C43.9284 23.1387 43.8628 22.6919 43.8628 22.2297C43.8628 19.5907 46.0028 17.4507 48.6418 17.4507C51.0775 17.4507 53.0872 19.2736 53.3825 21.6293Z" fill="var(--illu-white)" stroke="var(--illu-line)" stroke-width="1.18937" stroke-linejoin="round"/>
  <path d="M54.4208 21.4947C50.0398 21.8697 45.9288 22.7677 42.1938 24.1657C41.9638 24.2487 41.7558 24.2907 41.5258 24.2907C40.6918 24.2907 39.9198 23.8107 39.6068 22.9757C39.2098 21.9327 39.7528 20.7637 40.7958 20.3887" stroke="var(--illu-line)" stroke-width="1.18937" stroke-linejoin="round"/>
  <path d="M61.7422 74.3287L65.9992 86.7027H71.4242L71.7162 72.6387" fill="var(--illu-white)"/>
  <path d="M61.7422 74.3287L65.9992 86.7027H71.4242L71.7162 72.6387" stroke="var(--illu-line)" stroke-width="1.18937" stroke-linecap="round" stroke-linejoin="round"/>
</svg>
