<svg width="182" height="102" viewBox="0 0 182 102" fill="none"
  xmlns="http://www.w3.org/2000/svg">
  <path d="M180.391 36.2251H0.612793V60.9781H180.391V36.2251Z" fill="var(--illu-line)" stroke="var(--illu-line)" stroke-width="1.24421" stroke-miterlimit="10"/>
  <path d="M179.144 65.6198C180.803 62.7388 180.803 59.2029 179.144 56.3429C177.485 53.4839 174.429 51.6938 171.112 51.6938H9.91007C6.59207 51.6938 3.53606 53.4619 1.87706 56.3429C0.218063 59.2249 0.218063 62.7608 1.87706 65.6198L17.0691 91.9229C20.3871 97.6639 26.5211 101.2 33.1351 101.2H147.908C154.544 101.2 160.678 97.6639 163.974 91.9229L179.166 65.6198H179.144Z" fill="var(--illu-line)" stroke="var(--illu-line)" stroke-width="1.24421" stroke-miterlimit="10"/>
  <path d="M179.144 40.863C180.803 37.981 180.803 34.445 179.144 31.585C177.485 28.726 174.429 26.936 171.112 26.936H9.91007C6.59207 26.936 3.53606 28.704 1.87706 31.585C0.218063 34.467 0.218063 38.003 1.87706 40.863L17.0691 67.166C20.3871 72.906 26.5211 76.4431 33.1351 76.4431H147.908C154.544 76.4431 160.678 72.906 163.974 67.166L179.166 40.863H179.144Z" fill="var(--illu-bg)" stroke="var(--illu-line)" stroke-width="1.24421" stroke-miterlimit="10"/>
  <path d="M71.5532 67.2997C86.4302 67.2997 98.4892 55.2407 98.4892 40.3637C98.4892 25.4877 86.4302 13.4277 71.5532 13.4277C56.6772 13.4277 44.6172 25.4877 44.6172 40.3637C44.6172 55.2407 56.6772 67.2997 71.5532 67.2997Z" fill="var(--illu-highlight)"/>
  <path d="M61.9138 15.2104C63.909 19.0245 65.0373 23.3636 65.0373 27.9661C65.0373 39.4622 57.9975 49.3146 47.9938 53.4472C47.7915 53.0835 47.5973 52.7147 47.4116 52.3409C57.0207 48.4211 63.7931 38.9843 63.7931 27.9661C63.7931 23.5305 62.6956 19.3512 60.7572 15.6849C61.1382 15.5181 61.5238 15.3599 61.9138 15.2104Z" fill="var(--illu-line)"/>
  <path d="M95.0944 27.2793C85.0881 31.4105 78.0459 41.2638 78.0459 52.7626C78.0459 57.3722 79.1777 61.7175 81.1786 65.5357C81.5687 65.3864 81.9543 65.2282 82.3354 65.0615C80.3912 61.391 79.2901 57.2053 79.2901 52.7626C79.2901 41.7414 86.0653 32.3034 95.6774 28.3853C95.4914 28.0116 95.297 27.6429 95.0944 27.2793Z" fill="var(--illu-line)"/>
  <path d="M62.3398 65.6888L80.7628 15.0688" stroke="var(--illu-line)" stroke-width="1.24421" stroke-miterlimit="10" stroke-linecap="round"/>
  <path d="M46.2339 31.147L96.8539 49.57" stroke="var(--illu-line)" stroke-width="1.24421" stroke-miterlimit="10" stroke-linecap="round"/>
  <path d="M71.5532 67.2997C86.4302 67.2997 98.4892 55.2407 98.4892 40.3637C98.4892 25.4877 86.4302 13.4277 71.5532 13.4277C56.6772 13.4277 44.6172 25.4877 44.6172 40.3637C44.6172 55.2407 56.6772 67.2997 71.5532 67.2997Z" stroke="var(--illu-line)" stroke-width="1.24421" stroke-miterlimit="10" stroke-linecap="round"/>
  <path d="M54.0278 55.08C55.2498 46.48 49.2908 38.512 40.6908 37.29C32.0898 36.067 24.1228 42.048 22.9008 50.649C21.6778 59.249 27.6588 67.216 36.2598 68.439C44.8598 69.683 52.8268 63.702 54.0498 55.102L54.0278 55.08Z" fill="var(--illu-white)" stroke="var(--illu-line)" stroke-width="1.24421" stroke-miterlimit="10" stroke-linecap="round"/>
  <path d="M54.0278 55.08C55.2498 46.48 49.2908 38.512 40.6908 37.29C32.0898 36.067 24.1228 42.048 22.9008 50.649C21.6778 59.249 27.6588 67.216 36.2598 68.439C44.8598 69.683 52.8268 63.702 54.0498 55.102L54.0278 55.08Z" fill="var(--illu-white)" stroke="var(--illu-line)" stroke-width="1.24421" stroke-miterlimit="10" stroke-linecap="round"/>
  <path d="M53.4602 48.1109C52.0192 43.5699 44.1392 41.9989 35.8662 44.6179C27.5932 47.2369 22.0492 53.0659 23.4682 57.6279" stroke="var(--illu-line)" stroke-width="1.24421" stroke-miterlimit="10" stroke-linecap="round"/>
  <path d="M38.467 37.1309C34.079 37.1309 30.543 44.1818 30.543 52.8698C30.543 61.5568 34.079 68.6078 38.467 68.6078" stroke="var(--illu-line)" stroke-width="1.24" stroke-miterlimit="10" stroke-linecap="round"/>
  <path d="M52.6319 59.681C53.3309 58.24 47.5459 54.006 39.7099 50.229C31.8739 46.475 24.9759 44.598 24.2769 46.038" stroke="var(--illu-line)" stroke-width="1.24421" stroke-miterlimit="10" stroke-linecap="round"/>
  <path d="M28.2519 49.447C27.1819 48.311 27.6399 46.172 29.2339 44.688C30.8269 43.182 32.9879 42.898 34.0579 44.011C35.1059 45.146 34.6689 47.286 33.0759 48.77C31.4819 50.276 29.3209 50.56 28.2519 49.447Z" fill="var(--illu-white)" stroke="var(--illu-line)" stroke-width="1.24421" stroke-miterlimit="10" stroke-linecap="round"/>
  <path d="M103.482 58.3691C109.908 58.3691 115.117 53.1601 115.117 46.7351C115.117 40.3091 109.908 35.1001 103.482 35.1001C97.0571 35.1001 91.8481 40.3091 91.8481 46.7351C91.8481 53.1601 97.0571 58.3691 103.482 58.3691Z" fill="var(--illu-gray)"/>
  <path d="M114.317 50.9659C114.831 49.6524 115.113 48.2226 115.113 46.7269C115.113 42.8275 113.195 39.3763 110.251 37.2651C108.679 38.5167 106.683 39.1311 104.656 39.0007C103.696 38.9357 102.713 39.0447 101.731 39.3717C98.0202 40.6157 95.8372 44.5457 96.7762 48.3437C97.8022 52.5997 102.189 55.0667 106.337 53.8227C107.254 53.5387 108.061 53.1237 108.782 52.5777C110.358 51.3687 112.349 50.8054 114.317 50.9659Z" fill="var(--illu-gray)" stroke="var(--illu-line)" stroke-width="1.24421" stroke-miterlimit="10" stroke-linecap="round"/>
  <path d="M103.482 58.3691C109.908 58.3691 115.117 53.1601 115.117 46.7351C115.117 40.3091 109.908 35.1001 103.482 35.1001C97.0571 35.1001 91.8481 40.3091 91.8481 46.7351C91.8481 53.1601 97.0571 58.3691 103.482 58.3691Z" stroke="var(--illu-line)" stroke-width="1.24421" stroke-miterlimit="10" stroke-linecap="round"/>
  <path d="M162.507 34.593C155.98 34.113 149.476 36.077 144.302 40.137C138.802 44.459 135.244 50.79 134.414 57.709" stroke="var(--illu-line)" stroke-width="1.24421" stroke-linecap="round" stroke-linejoin="round"/>
  <path d="M133.304 56.627C131.055 52.174 127.257 48.638 122.608 46.717C119.792 45.56 116.78 45.0359 113.789 45.1449" stroke="var(--illu-line)" stroke-width="1.24421" stroke-linecap="round" stroke-linejoin="round"/>
</svg>
