<svg width="301" height="213" viewBox="0 0 301 213" fill="none"
  xmlns="http://www.w3.org/2000/svg">
  <mask id="mask0_110_11863" style="mask-type:luminance" maskUnits="userSpaceOnUse" x="0" y="0" width="301" height="213">
    <path d="M301 0.419922H0V212.093H301V0.419922Z" fill="white"/>
  </mask>
  <g mask="url(#mask0_110_11863)">
    <path d="M291.625 58.808C297.252 64.435 300.404 72.0501 300.404 80.0031V135.888C300.404 143.841 297.252 151.456 291.625 157.083L246.063 202.645C240.436 208.272 232.821 211.423 224.868 211.423L49.0059 211.466C41.0529 211.466 33.4379 208.314 27.8109 202.687L9.38788 184.264C3.76088 178.637 0.608887 171.022 0.608887 163.069V113.043C0.608887 103.101 8.66787 95.064 18.5889 95.064H121.094C127.524 95.064 133.468 91.637 136.662 86.074L159.465 46.582C162.68 41.019 168.624 37.592 175.033 37.592H257.993C265.946 37.592 273.561 40.744 279.188 46.37L291.604 58.787L291.625 58.808Z" fill="var(--illu-line)" stroke="var(--illu-line)" stroke-width="1.20569" stroke-miterlimit="10" stroke-linecap="round"/>
    <path d="M291.625 28.832C297.252 34.458 300.404 42.073 300.404 50.026V105.911C300.404 113.865 297.252 121.479 291.625 127.106L246.063 172.669C240.436 178.295 232.821 181.447 224.868 181.447L49.0059 181.489C41.0529 181.489 33.4379 178.337 27.8109 172.711L9.38788 154.287C3.76088 148.66 0.608887 141.046 0.608887 133.092V83.067C0.608887 73.125 8.66787 65.087 18.5889 65.087H121.094C127.524 65.087 133.468 61.66 136.662 56.097L159.465 16.605C162.68 11.042 168.624 7.61597 175.033 7.61597H257.993C265.946 7.61597 273.561 10.767 279.188 16.394L291.604 28.81L291.625 28.832Z" fill="var(--illu-bg)" stroke="var(--illu-line)" stroke-width="1.20569" stroke-miterlimit="10" stroke-linecap="round"/>
    <path d="M256.255 43.328C258.095 41.001 258.751 38.019 258.18 35.1C258.011 34.254 257.926 33.387 257.926 32.498C257.926 29.473 258.899 26.681 260.549 24.418C262.199 22.155 262.812 19.236 262.093 16.528C261.776 15.365 261.67 14.138 261.818 12.847C262.304 8.21498 266.048 4.44998 270.681 3.94198C276.731 3.28698 281.849 8.00396 281.849 13.926C281.849 14.709 281.765 15.492 281.574 16.232C280.919 19.024 281.257 21.985 282.949 24.291C284.642 26.597 285.636 29.41 285.636 32.498C285.636 33.387 285.551 34.254 285.382 35.1C284.811 38.04 285.488 41.023 287.349 43.371C290.035 46.776 291.643 51.07 291.58 55.787C291.431 66.067 283.182 74.718 272.902 75.29C261.458 75.924 251.961 66.829 251.961 55.512C251.961 50.901 253.569 46.67 256.234 43.328H256.255Z" fill="var(--illu-bg)" stroke="var(--illu-line)" stroke-width="1.20569" stroke-miterlimit="10" stroke-linecap="round"/>
    <path d="M271.801 92.6931V13.3501" stroke="var(--illu-line)" stroke-width="1.20569" stroke-miterlimit="10" stroke-linecap="round"/>
    <path d="M271.801 65.814L283.688 53.905" stroke="var(--illu-line)" stroke-width="1.20569" stroke-miterlimit="10" stroke-linecap="round"/>
    <path d="M271.801 41.844L280.748 32.897" stroke="var(--illu-line)" stroke-width="1.20569" stroke-miterlimit="10" stroke-linecap="round"/>
    <path d="M271.804 57.4391L261.777 47.4131" stroke="var(--illu-line)" stroke-width="1.20569" stroke-miterlimit="10" stroke-linecap="round"/>
    <path d="M271.798 34.101L265.156 27.459" stroke="var(--illu-line)" stroke-width="1.20569" stroke-miterlimit="10" stroke-linecap="round"/>
    <path d="M273.328 92.5548C273.158 91.2428 273.455 89.9528 274.131 88.8318C274.978 87.4358 275.485 85.8068 275.485 84.0508C275.485 79.9688 272.799 76.5209 269.097 75.3369C267.997 74.9769 267.215 74.0889 266.94 72.9669C266.136 69.7729 263.196 67.2559 259.579 67.2559C255.961 67.2559 253.042 69.6459 252.217 73.0099C251.943 74.1309 251.16 75.0188 250.06 75.3578C246.358 76.5418 243.672 79.9688 243.672 84.0718C243.672 85.8278 244.158 87.4568 245.026 88.8528C245.703 89.9528 245.999 91.2638 245.851 92.5548C245.808 92.8298 245.808 93.1258 245.808 93.4428C245.808 98.1178 249.595 101.925 254.29 101.925C254.988 101.925 255.686 101.841 256.321 101.671C258.479 101.121 260.742 101.121 262.899 101.671C263.555 101.841 264.232 101.925 264.951 101.925C269.626 101.925 273.433 98.1388 273.433 93.4428C273.433 93.2528 273.433 92.9779 273.391 92.5759L273.328 92.5548Z" fill="var(--illu-bg)" stroke="var(--illu-line)" stroke-width="1.20569" stroke-linejoin="round"/>
    <path d="M259.387 112.513V76.491" stroke="var(--illu-line)" stroke-width="1.20569" stroke-miterlimit="10" stroke-linecap="round"/>
    <path d="M259.39 90.7909L251.605 83.5139" stroke="var(--illu-line)" stroke-width="1.20569" stroke-miterlimit="10" stroke-linecap="round"/>
    <path d="M259.387 95.0491L267.298 90.1631" stroke="var(--illu-line)" stroke-width="1.20569" stroke-miterlimit="10" stroke-linecap="round"/>
    <path d="M269.183 95.7661C270.706 94.0741 271.531 91.8741 271.531 89.5901C271.531 85.3811 274.936 81.9751 279.146 81.9751C283.355 81.9751 286.761 85.3811 286.761 89.5901C286.761 91.8741 287.607 94.0531 289.109 95.7661C291.203 98.1141 292.472 101.181 292.472 104.566C292.472 111.927 286.507 117.913 279.125 117.913C271.742 117.913 265.777 111.948 265.777 104.566C265.777 101.181 267.046 98.1141 269.141 95.7661H269.183Z" fill="var(--illu-bg)" stroke="var(--illu-line)" stroke-width="1.20569" stroke-linejoin="round"/>
    <path d="M279.164 125.309V108.895L283.606 96.584" stroke="var(--illu-line)" stroke-width="1.20569" stroke-miterlimit="10" stroke-linecap="round"/>
    <path d="M279.166 108.904L272.926 101.014" stroke="var(--illu-line)" stroke-width="1.20569" stroke-miterlimit="10" stroke-linecap="round"/>
    <path d="M251.031 98.313C249.508 96.621 248.683 94.421 248.683 92.137C248.683 87.927 245.278 84.522 241.068 84.522C236.859 84.522 233.453 87.927 233.453 92.137C233.453 94.421 232.607 96.6 231.105 98.313C229.011 100.661 227.742 103.728 227.742 107.113C227.742 114.474 233.707 120.46 241.089 120.46C248.472 120.46 254.437 114.495 254.437 107.113C254.437 103.728 253.167 100.661 251.073 98.313H251.031Z" fill="var(--illu-bg)" stroke="var(--illu-line)" stroke-width="1.20569" stroke-linejoin="round"/>
    <path d="M241.051 127.841V111.426L236.609 99.116" stroke="var(--illu-line)" stroke-width="1.20569" stroke-miterlimit="10" stroke-linecap="round"/>
    <path d="M241.047 111.435L247.308 103.545" stroke="var(--illu-line)" stroke-width="1.20569" stroke-miterlimit="10" stroke-linecap="round"/>
    <path d="M188.87 51.639C199.764 53.966 212.096 54.601 227.347 54.177L230.689 61.179C230.943 62.279 230.16 63.273 229.06 63.506C213.09 66.954 197.056 67.186 180.854 63.463C180.24 63.421 188.299 51.597 188.87 51.639Z" fill="var(--illu-white)" stroke="var(--illu-line)" stroke-width="1.20569" stroke-miterlimit="10" stroke-linecap="round"/>
    <path d="M168.817 45.873C183.328 51.373 198.875 53.086 213.153 53.15L213.47 66.899C199.065 67.597 189.314 67.216 178.42 66.074C173.999 65.609 169.557 62.584 164.375 61.886" fill="var(--illu-white)"/>
    <mask id="mask1_110_11863" style="mask-type:luminance" maskUnits="userSpaceOnUse" x="164" y="45" width="50" height="23">
      <path d="M168.817 45.8809C183.328 51.3809 198.875 53.0939 213.153 53.1579L213.47 66.9069C199.065 67.6049 189.314 67.2238 178.42 66.0818C173.999 65.6168 169.557 62.5919 164.375 61.8939" fill="white"/>
    </mask>
    <g mask="url(#mask1_110_11863)">
      <path d="M171.953 39.4829L165.988 67.9959" stroke="var(--illu-line)" stroke-width="5.98616"/>
      <path d="M183.096 40.936L179.141 68.328" stroke="var(--illu-line)" stroke-width="5.98616"/>
      <path d="M194.272 42.373L192.305 68.687" stroke="var(--illu-line)" stroke-width="5.98616"/>
      <path d="M205.434 43.811L205.455 69.025" stroke="var(--illu-line)" stroke-width="5.98616"/>
    </g>
    <path d="M168.817 45.873C183.328 51.373 198.875 53.086 213.153 53.15L213.47 66.899C199.065 67.597 189.314 67.216 178.42 66.074C173.999 65.609 169.557 62.584 164.375 61.886" stroke="var(--illu-line)" stroke-width="1.20569"/>
    <path d="M251.109 24.0539L246.731 32.2179L244.383 32.0069L245.821 20.4579L248.783 12.6309C252.019 14.2389 253.415 19.7379 251.109 24.0539Z" fill="var(--illu-white)" stroke="var(--illu-line)" stroke-width="1.20569" stroke-linecap="round" stroke-linejoin="round"/>
    <path d="M241.591 60.4841L243.833 36.0111L241.845 34.5091C241.422 34.1921 241.189 33.6841 241.253 33.1551C241.316 32.3941 242.014 31.8231 242.776 31.8861L244.827 32.0761L247.45 32.3091L244.848 60.7801L241.591 60.4841Z" fill="var(--illu-highlight)" stroke="var(--illu-line)" stroke-width="1.20569" stroke-linecap="round" stroke-linejoin="round"/>
    <path d="M240.897 59.897L239.585 74.175C239.458 75.486 240.431 76.628 241.722 76.755C242.949 76.861 244.027 75.973 244.133 74.746L245.445 60.32L240.876 59.897H240.897Z" fill="var(--illu-highlight)" stroke="var(--illu-line)" stroke-width="1.20569" stroke-linecap="round" stroke-linejoin="round"/>
    <path d="M237.12 21.5379L238.368 30.7189L240.653 31.3319L243.339 20.0149L243.297 11.6389C239.701 11.9989 236.465 16.6729 237.12 21.5169V21.5379Z" fill="var(--illu-white)" stroke="var(--illu-line)" stroke-width="1.20569" stroke-linecap="round" stroke-linejoin="round"/>
    <path d="M233.285 58.98L239.736 35.268L242.105 34.549C242.613 34.401 242.994 33.999 243.142 33.491C243.353 32.751 242.909 31.968 242.169 31.778L240.18 31.228L237.642 30.53L230.133 58.113L233.285 58.98Z" fill="var(--illu-highlight)" stroke="var(--illu-line)" stroke-width="1.20569" stroke-linecap="round" stroke-linejoin="round"/>
    <path d="M234.176 58.6669L230.411 72.5009C230.072 73.7699 228.761 74.5109 227.513 74.1719C226.328 73.8549 225.63 72.6279 225.948 71.4429L229.755 57.4829L234.176 58.6889V58.6669Z" fill="var(--illu-highlight)" stroke="var(--illu-line)" stroke-width="1.20569" stroke-linecap="round" stroke-linejoin="round"/>
    <path d="M237.053 20.5818L251.584 23.2049C252.071 22.0419 252.304 20.8149 252.325 19.5879L237.624 16.9438C237.201 18.0858 237.01 19.3338 237.053 20.5818Z" fill="var(--illu-white)" stroke="var(--illu-line)" stroke-width="1.20569" stroke-linecap="round" stroke-linejoin="round"/>
    <path d="M250.058 21.8719C250.502 21.8719 250.862 21.5119 250.862 21.0679C250.862 20.6239 250.502 20.2639 250.058 20.2639C249.614 20.2639 249.254 20.6239 249.254 21.0679C249.254 21.5119 249.614 21.8719 250.058 21.8719Z" fill="var(--illu-line)"/>
    <path d="M239.655 19.9889C240.099 19.9889 240.459 19.6288 240.459 19.1848C240.459 18.7408 240.099 18.3809 239.655 18.3809C239.211 18.3809 238.852 18.7408 238.852 19.1848C238.852 19.6288 239.211 19.9889 239.655 19.9889Z" fill="var(--illu-line)"/>
    <path d="M228.124 58.45L228.378 58.323C229.436 57.773 230.282 56.906 230.832 55.827C231.36 54.769 231.53 53.606 231.339 52.443L233.729 49.058C234.491 47.979 234.237 46.478 233.158 45.695L232.566 45.272L230.451 48.276C229.52 49.587 228.272 50.645 226.791 51.321L225.797 51.787L223.957 54.262" fill="var(--illu-white)"/>
    <path d="M228.124 58.45L228.378 58.323C229.436 57.773 230.282 56.906 230.832 55.827C231.36 54.769 231.53 53.606 231.339 52.443L233.729 49.058C234.491 47.979 234.237 46.478 233.158 45.695L232.566 45.272L230.451 48.276C229.52 49.587 228.272 50.645 226.791 51.321L225.797 51.787L223.957 54.262" stroke="var(--illu-line)" stroke-width="1.20569" stroke-miterlimit="10" stroke-linecap="round"/>
    <path d="M235.779 55.0449L237.895 55.2139C238.656 55.2779 239.333 54.6859 239.396 53.9239C239.46 53.1629 238.868 52.4859 238.106 52.4219L235.991 52.2529C235.229 52.1899 234.552 52.7819 234.489 53.5429C234.426 54.3049 235.018 54.9819 235.779 55.0449Z" fill="var(--illu-white)" stroke="var(--illu-line)" stroke-width="1.20569" stroke-miterlimit="10" stroke-linecap="round"/>
    <path d="M233.178 57.6859L237.154 57.9609C237.916 58.0239 238.593 57.4319 238.656 56.6709C238.72 55.9089 238.127 55.2319 237.366 55.1689L233.389 54.8939C232.628 54.8299 231.951 55.4229 231.887 56.1839C231.824 56.9459 232.416 57.6219 233.178 57.6859Z" fill="var(--illu-white)" stroke="var(--illu-line)" stroke-width="1.20569" stroke-miterlimit="10" stroke-linecap="round"/>
    <path d="M231.022 60.334L235.844 60.673C236.606 60.736 237.283 60.144 237.346 59.382C237.41 58.621 236.817 57.944 236.056 57.881L231.233 57.542C230.472 57.479 229.795 58.071 229.731 58.832C229.668 59.594 230.26 60.271 231.022 60.334Z" fill="var(--illu-white)" stroke="var(--illu-line)" stroke-width="1.20569" stroke-miterlimit="10" stroke-linecap="round"/>
    <path d="M231.213 63.139L235.105 63.414C235.866 63.477 236.543 62.885 236.607 62.124C236.67 61.362 236.078 60.685 235.317 60.622L231.424 60.347C230.663 60.283 229.986 60.876 229.923 61.637C229.859 62.399 230.451 63.076 231.213 63.139Z" fill="var(--illu-white)" stroke="var(--illu-line)" stroke-width="1.20569" stroke-miterlimit="10" stroke-linecap="round"/>
    <path d="M149.95 125.154C150.077 123.779 149.337 122.701 148.046 122.235L142.525 120.247C140.135 119.21 141.129 114.62 142.948 111.913L143.921 110.453L136.582 106.202L134.297 109.649C132.097 112.97 131.759 112.167 129.707 113.943C128.544 114.959 126.703 117.878 126.344 119.105L134.276 124.943L134.614 126.445L143.16 127.291L143.202 127.798H149.717L149.971 125.175L149.95 125.154Z" fill="var(--illu-line)" stroke="var(--illu-line)" stroke-width="1.20569" stroke-linecap="round"/>
    <path d="M123.863 121.3L129.68 124.727L131.711 124.409L135.095 127.625C135.582 128.153 136.639 128.513 137.443 128.513H150.452L150.494 126.313H137.401C136.978 126.313 136.597 126.123 136.322 125.848L134.588 124.113C134.291 123.838 133.953 123.563 133.572 123.352L125.704 118.741L123.884 121.321L123.863 121.3Z" fill="var(--illu-gray)" stroke="var(--illu-line)" stroke-width="1.20569" stroke-linecap="round"/>
    <path d="M219.369 81.904C220.617 82.2 221.992 81.206 222.288 79.958C222.288 79.958 217 78.52 214.398 77.843C213.721 77.674 213.213 77.695 212.642 78.055L211.394 78.858C210.654 79.324 209.596 79.239 208.856 78.795L205.006 76.405C204.287 76.955 194.07 79.133 194.07 79.133" fill="var(--illu-white)"/>
    <path d="M219.369 81.904C220.617 82.2 221.992 81.206 222.288 79.958C222.288 79.958 217 78.52 214.398 77.843C213.721 77.674 213.213 77.695 212.642 78.055L211.394 78.858C210.654 79.324 209.596 79.239 208.856 78.795L205.006 76.405C204.287 76.955 194.07 79.133 194.07 79.133" stroke="var(--illu-line)" stroke-width="1.20569" stroke-miterlimit="10" stroke-linecap="round"/>
    <path d="M116.632 70.4299C112.507 69.1819 107.008 71.8899 105.76 75.8449C104.491 79.8859 111.154 84.0099 115.257 85.0259L152.189 89.8059L138.885 105.945L144.913 110.789L168.244 86.6539C170.402 84.4329 169.217 80.6889 166.171 80.0969L116.59 70.4299H116.632Z" fill="var(--illu-highlight)" stroke="var(--illu-line)" stroke-width="1.20569"/>
    <path d="M137.871 136.394C137.871 155.135 122.683 170.343 103.921 170.343C85.18 170.343 69.9919 155.135 69.9919 136.394C69.9919 117.652 85.201 102.444 103.921 102.444C122.641 102.444 137.871 117.652 137.871 136.394ZM103.921 106.294C87.316 106.294 73.8209 119.768 73.8209 136.394C73.8209 153.019 87.295 166.493 103.921 166.493C120.547 166.493 134.021 153.019 134.021 136.394C134.021 119.768 120.547 106.294 103.921 106.294Z" fill="var(--illu-gray)" stroke="var(--illu-line)" stroke-width="1.20569" stroke-linecap="round"/>
    <path d="M249.382 136.394C249.382 155.135 234.195 170.343 215.433 170.343C196.67 170.343 181.504 155.135 181.504 136.394C181.504 117.652 196.713 102.444 215.433 102.444C234.152 102.444 249.382 117.652 249.382 136.394ZM215.433 106.294C198.828 106.294 185.333 119.768 185.333 136.394C185.333 153.019 198.807 166.493 215.433 166.493C232.058 166.493 245.533 153.019 245.533 136.394C245.533 119.768 232.058 106.294 215.433 106.294Z" fill="var(--illu-gray)" stroke="var(--illu-line)" stroke-width="1.20569" stroke-linecap="round"/>
    <path d="M214.761 140.473C216.303 140.473 217.553 139.223 217.553 137.681C217.553 136.139 216.303 134.889 214.761 134.889C213.219 134.889 211.969 136.139 211.969 137.681C211.969 139.223 213.219 140.473 214.761 140.473Z" fill="var(--illu-bg)" stroke="var(--illu-line)" stroke-width="1.20569"/>
    <path d="M103.92 142.256C100.705 142.256 98.0818 139.633 98.0818 136.397C98.0818 133.16 100.705 130.537 103.92 130.537C107.135 130.537 109.779 133.16 109.779 136.397C109.779 139.633 107.156 142.256 103.92 142.256Z" fill="var(--illu-bg)"/>
    <path d="M103.92 131.149C106.818 131.149 109.187 133.497 109.187 136.395C109.187 139.293 106.839 141.641 103.92 141.641C101.001 141.641 98.6738 139.293 98.6738 136.395C98.6738 133.497 101.022 131.149 103.92 131.149ZM103.92 129.944C100.367 129.944 97.4688 132.842 97.4688 136.395C97.4688 139.949 100.367 142.847 103.92 142.847C107.474 142.847 110.372 139.949 110.372 136.395C110.372 132.842 107.474 129.944 103.92 129.944Z" fill="var(--illu-line)"/>
    <path d="M195.023 86.553L204.902 117.203C206.784 123.02 209.301 128.604 212.453 133.829L214.759 137.679" stroke="var(--illu-line)" stroke-width="1.20569" stroke-linecap="round" stroke-linejoin="round"/>
    <path d="M131.418 92.053H196.8" stroke="var(--illu-line)" stroke-width="1.20569" stroke-linecap="round" stroke-linejoin="round"/>
    <path d="M198.282 96.622L154.878 142.417L151.409 141.105L128.648 86.553H129.643" stroke="var(--illu-line)" stroke-width="1.20569" stroke-linecap="round" stroke-linejoin="round"/>
    <path d="M130.867 91.8579L102.629 136.743L146.563 141.101" stroke="var(--illu-line)" stroke-width="1.20569" stroke-linecap="round" stroke-linejoin="round"/>
    <path d="M202.723 75.147H210.909C215.52 75.147 219.264 78.891 219.264 83.502C219.264 88.113 215.52 91.836 210.909 91.836H206.763" stroke="var(--illu-line)" stroke-width="1.20569" stroke-linecap="round" stroke-linejoin="round"/>
    <path d="M197.136 93.0638L191.891 76.8188H205.576" stroke="var(--illu-line)" stroke-width="1.20569" stroke-linecap="round" stroke-linejoin="round"/>
    <path d="M151.411 150.235C156.458 150.235 160.549 146.144 160.549 141.097C160.549 136.051 156.458 131.959 151.411 131.959C146.365 131.959 142.273 136.051 142.273 141.097C142.273 146.144 146.365 150.235 151.411 150.235Z" fill="var(--illu-bg)" stroke="var(--illu-line)" stroke-width="1.20569" stroke-linecap="round"/>
    <path d="M154.561 145.256L152.107 132.311H145.254L148.934 148.662L154.561 145.256Z" fill="var(--illu-white)" stroke="var(--illu-line)" stroke-width="1.20569" stroke-linecap="round"/>
    <path d="M214.531 80.399L221.786 82.43C222.442 82.62 222.78 83.297 222.505 83.932V83.974C222.4 84.143 220.898 86.8931 219.586 89.2831C218.444 91.3561 216.012 92.329 213.769 91.61C207.551 89.643 202.305 87.295 198.328 84.672L202.072 78.686" fill="var(--illu-white)"/>
    <path d="M214.531 80.399L221.786 82.43C222.442 82.62 222.78 83.297 222.505 83.932V83.974C222.4 84.143 220.898 86.8931 219.586 89.2831C218.444 91.3561 216.012 92.329 213.769 91.61C207.551 89.643 202.305 87.295 198.328 84.672L202.072 78.686" stroke="var(--illu-line)" stroke-width="1.20569" stroke-miterlimit="10" stroke-linecap="round"/>
    <path d="M178.907 33.7599C174.38 39.6619 175.671 48.0169 181.72 52.3959C187.77 56.8169 196.358 55.6109 200.842 49.6669C205.369 43.7439 204.121 35.4099 198.071 31.0109C191.979 26.6109 183.434 27.8169 178.907 33.7599Z" fill="var(--illu-white)"/>
    <mask id="mask2_110_11863" style="mask-type:luminance" maskUnits="userSpaceOnUse" x="176" y="28" width="28" height="28">
      <path d="M178.903 33.768C174.376 39.67 175.667 48.0249 181.716 52.4039C187.766 56.8239 196.354 55.619 200.838 49.675C205.365 43.752 204.117 35.418 198.067 31.018C191.975 26.6189 183.43 27.824 178.903 33.768Z" fill="white"/>
    </mask>
    <g mask="url(#mask2_110_11863)">
      <path d="M183.307 42.566L177.596 49.419L172.52 39.689L175.608 33.428L184.746 34.063L191.62 36.686L185.148 39.795L183.392 40.662L183.307 42.566Z" fill="var(--illu-highlight)" stroke="var(--illu-line)" stroke-width="1.20569" stroke-miterlimit="10" stroke-linecap="round"/>
      <path d="M200.339 50.2798C199.578 48.7568 198.288 47.4448 196.701 46.2188C195.115 44.9918 193.274 44.1878 191.307 43.8488L188.05 43.1938L185.998 46.5149C184.856 48.3549 184.538 50.5969 185.11 52.6909L186.167 56.5619L202.032 55.4828L200.318 50.3008L200.339 50.2798Z" fill="var(--illu-gray)"/>
    </g>
    <path d="M178.907 33.7599C174.38 39.6619 175.671 48.0169 181.72 52.3959C187.77 56.8169 196.358 55.6109 200.842 49.6669C205.369 43.7439 204.121 35.4099 198.071 31.0109C191.979 26.6109 183.434 27.8169 178.907 33.7599Z" stroke="var(--illu-line)" stroke-width="1.20569"/>
    <path d="M203.17 46.605C204.736 46.605 206.005 45.3361 206.005 43.7701C206.005 42.205 204.736 40.936 203.17 40.936C201.605 40.936 200.336 42.205 200.336 43.7701C200.336 45.3361 201.605 46.605 203.17 46.605Z" fill="var(--illu-line)"/>
    <mask id="mask3_110_11863" style="mask-type:luminance" maskUnits="userSpaceOnUse" x="200" y="40" width="7" height="7">
      <path d="M203.174 46.605C204.74 46.605 206.009 45.3361 206.009 43.7701C206.009 42.205 204.74 40.936 203.174 40.936C201.609 40.936 200.34 42.205 200.34 43.7701C200.34 45.3361 201.609 46.605 203.174 46.605Z" fill="white"/>
    </mask>
    <g mask="url(#mask3_110_11863)">
      <path d="M205.057 41.366L201.312 44.39" stroke="var(--illu-bg)" stroke-width="1.20569" stroke-linejoin="round"/>
    </g>
    <path d="M203.17 46.605C204.736 46.605 206.005 45.3361 206.005 43.7701C206.005 42.205 204.736 40.936 203.17 40.936C201.605 40.936 200.336 42.205 200.336 43.7701C200.336 45.3361 201.605 46.605 203.17 46.605Z" stroke="var(--illu-line)" stroke-width="1.20569" stroke-miterlimit="10" stroke-linecap="round"/>
    <path d="M196.527 41.7071C196.273 42.1091 195.744 42.2361 195.363 41.9821C194.961 41.7281 194.834 41.1991 195.088 40.8191C195.342 40.4171 195.871 40.2901 196.252 40.5441C196.632 40.7971 196.78 41.3261 196.527 41.7071Z" fill="var(--illu-line)"/>
    <path d="M201.839 42.9959C201.585 43.3979 201.056 43.5249 200.676 43.2709C200.274 43.0169 200.147 42.4879 200.401 42.1079C200.654 41.7059 201.183 41.5789 201.564 41.8329C201.966 42.0869 202.093 42.6149 201.839 42.9959Z" fill="var(--illu-line)"/>
    <path d="M185.022 43.926C183.796 43.418 183.013 42.065 183.394 40.647C183.669 39.59 184.621 38.744 185.699 38.617C186.165 38.553 186.609 38.617 187.011 38.765" fill="var(--illu-white)"/>
    <path d="M185.022 43.926C183.796 43.418 183.013 42.065 183.394 40.647C183.669 39.59 184.621 38.744 185.699 38.617C186.165 38.553 186.609 38.617 187.011 38.765" stroke="var(--illu-line)" stroke-width="1.20569" stroke-miterlimit="10" stroke-linecap="round"/>
    <path d="M186.418 35.2329L190.797 36.4389V42.6779C190.797 43.7149 189.95 44.5609 188.914 44.5609C187.877 44.5609 187.031 43.7149 187.031 42.6779V38.7649" fill="var(--illu-highlight)"/>
    <path d="M186.418 35.2329L190.797 36.4389V42.6779C190.797 43.7149 189.95 44.5609 188.914 44.5609C187.877 44.5609 187.031 43.7149 187.031 42.6779V38.7649" stroke="var(--illu-line)" stroke-width="1.20569" stroke-miterlimit="10" stroke-linecap="round"/>
    <path d="M198.793 40.936L200.528 42.734C201.501 43.749 202.431 44.765 201.903 46.055C201.374 47.345 199.872 47.959 198.582 47.43L197.566 46.9641" fill="var(--illu-white)"/>
    <path d="M198.793 40.936L200.528 42.734C201.501 43.749 202.431 44.765 201.903 46.055C201.374 47.345 199.872 47.959 198.582 47.43L197.566 46.9641" stroke="var(--illu-line)" stroke-width="1.20569" stroke-linecap="round" stroke-linejoin="round"/>
    <path d="M195.725 44.542C197.29 44.542 198.559 43.273 198.559 41.708C198.559 40.142 197.29 38.873 195.725 38.873C194.16 38.873 192.891 40.142 192.891 41.708C192.891 43.273 194.16 44.542 195.725 44.542Z" fill="var(--illu-line)"/>
    <mask id="mask4_110_11863" style="mask-type:luminance" maskUnits="userSpaceOnUse" x="192" y="38" width="7" height="7">
      <path d="M195.729 44.534C197.294 44.534 198.563 43.265 198.563 41.7C198.563 40.135 197.294 38.866 195.729 38.866C194.164 38.866 192.895 40.135 192.895 41.7C192.895 43.265 194.164 44.534 195.729 44.534Z" fill="white"/>
    </mask>
    <g mask="url(#mask4_110_11863)">
      <path d="M197.463 39.272L192.598 43.206" stroke="var(--illu-bg)" stroke-width="1.20569" stroke-linejoin="round"/>
    </g>
    <path d="M195.725 44.542C197.29 44.542 198.559 43.273 198.559 41.708C198.559 40.142 197.29 38.873 195.725 38.873C194.16 38.873 192.891 40.142 192.891 41.708C192.891 43.273 194.16 44.542 195.725 44.542Z" stroke="var(--illu-line)" stroke-width="1.20569" stroke-miterlimit="10" stroke-linecap="round"/>
    <path d="M196.356 49.169C195.615 49.275 194.854 49.127 194.177 48.682C193.098 47.942 192.654 46.652 192.971 45.467" stroke="var(--illu-line)" stroke-width="1.20569" stroke-linecap="round" stroke-linejoin="round"/>
    <path d="M178.398 33.2439L207.504 42.4239C208.52 42.7419 209.598 42.4029 210.254 41.5569C210.846 40.7959 211.016 39.7169 210.529 38.8919C198.113 18.1409 180.831 19.6429 178.398 33.2439Z" fill="var(--illu-line)"/>
    <path d="M178.398 33.2439L207.504 42.4239C208.52 42.7419 209.598 42.4029 210.254 41.5569C210.846 40.7959 211.016 39.7169 210.529 38.8919C198.113 18.1409 180.831 19.6429 178.398 33.2439Z" stroke="var(--illu-line)" stroke-width="1.20569" stroke-linecap="round" stroke-linejoin="round"/>
    <path d="M180.832 43.926L178.272 58.098C153.503 69.796 158.96 84.962 131.694 82.995L100.135 72.419C97.1519 44.561 127.823 23.218 158.833 28.95C168.627 30.769 176.178 35.508 180.832 43.926Z" fill="var(--illu-white)"/>
    <mask id="mask5_110_11863" style="mask-type:luminance" maskUnits="userSpaceOnUse" x="99" y="28" width="82" height="56">
      <path d="M180.832 43.926L178.272 58.098C153.503 69.796 158.96 84.962 131.694 82.995L100.135 72.419C97.1519 44.561 127.823 23.218 158.833 28.95C168.627 30.769 176.178 35.508 180.832 43.926Z" fill="white"/>
    </mask>
    <g mask="url(#mask5_110_11863)">
      <path d="M150.504 1.56104L177.389 66.922" stroke="var(--illu-line)" stroke-width="5.98616"/>
      <path d="M133.457 12.998L173.287 71.062" stroke="var(--illu-line)" stroke-width="5.98616"/>
      <path d="M116.43 24.4521L169.184 75.2182" stroke="var(--illu-line)" stroke-width="5.98616"/>
      <path d="M99.3828 35.8811L165.082 79.3501" stroke="var(--illu-line)" stroke-width="5.98616"/>
      <path d="M82.3547 47.334L160.958 83.505" stroke="var(--illu-line)" stroke-width="5.98616"/>
      <path d="M65.3237 58.803L156.851 87.655" stroke="var(--illu-line)" stroke-width="5.98616"/>
    </g>
    <path d="M180.832 43.926L178.272 58.098C153.503 69.796 158.96 84.962 131.694 82.995L100.135 72.419C97.1519 44.561 127.823 23.218 158.833 28.95C168.627 30.769 176.178 35.508 180.832 43.926Z" stroke="var(--illu-line)" stroke-width="1.20569"/>
    <path d="M149.228 109.887C149.016 108.787 148.593 107.708 147.98 106.756L137.721 90.892C136.769 89.665 136.261 88.184 136.219 86.661L136.156 83.235L100.133 72.405C102.121 84.335 112.57 85.012 116.399 89.411L137.298 110.5C138.419 111.643 139.223 113.039 139.603 114.562L144.828 135.143H154.008L149.228 109.887Z" fill="var(--illu-highlight)" stroke="var(--illu-line)" stroke-width="1.20569" stroke-linecap="round"/>
    <path d="M180.51 43.3501C187.766 55.7451 197.136 68.2041 207.078 76.3271L198.554 87.6431C182.224 78.0821 174.461 69.5791 167.544 60.4621C166.465 59.0451 165.429 57.6281 164.371 56.1681" fill="var(--illu-white)"/>
    <mask id="mask6_110_11863" style="mask-type:luminance" maskUnits="userSpaceOnUse" x="164" y="43" width="44" height="45">
      <path d="M180.51 43.3501C187.766 55.7451 197.136 68.2041 207.078 76.3271L198.554 87.6431C182.224 78.0821 174.461 69.5791 167.544 60.4621C166.465 59.0451 165.429 57.6281 164.371 56.1681" fill="white"/>
    </mask>
    <g mask="url(#mask6_110_11863)">
      <path d="M183.835 43.967L163.465 60.149" stroke="var(--illu-line)" stroke-width="5.98616"/>
      <path d="M191.343 51.0771L172.496 68.2522" stroke="var(--illu-line)" stroke-width="5.98616"/>
      <path d="M198.857 58.1941L181.512 76.3641" stroke="var(--illu-line)" stroke-width="5.98616"/>
      <path d="M206.359 65.3191L190.516 84.4831" stroke="var(--illu-line)" stroke-width="5.98616"/>
      <path d="M213.867 72.4199L199.547 92.5789" stroke="var(--illu-line)" stroke-width="5.98616"/>
    </g>
    <path d="M180.51 43.3501C187.766 55.7451 197.136 68.2041 207.078 76.3271L198.554 87.6431C182.224 78.0821 174.461 69.5791 167.544 60.4621C166.465 59.0451 165.429 57.6281 164.371 56.1681" stroke="var(--illu-line)" stroke-width="1.20569"/>
    <path d="M168.417 153.119L161.923 151.088C158.412 149.988 156.064 147.387 155.895 144.108L155.81 142.373H146.672L146.884 146.498C147.095 150.475 146.27 149.946 145.615 152.527C145.255 153.986 145.509 157.434 145.995 158.682H171.4L171.103 156.059C170.955 154.684 169.919 153.605 168.417 153.14V153.119Z" fill="var(--illu-line)" stroke="var(--illu-line)" stroke-width="1.20569" stroke-linecap="round"/>
    <path d="M145.124 160.017H152.485L153.797 158.727L156.991 159.7C157.795 159.912 158.641 159.996 159.487 159.996H172.305L172.242 157.796H159.846C159.402 157.796 158.958 157.754 158.535 157.648L155.785 157.014C155.341 156.908 154.854 156.866 154.389 156.866H145.082L145.124 160.017Z" fill="var(--illu-gray)" stroke="var(--illu-line)" stroke-width="1.20569" stroke-linecap="round"/>
    <path d="M154.387 88.897L152.188 89.806" stroke="var(--illu-line)" stroke-width="1.20569" stroke-linecap="round"/>
    <path d="M61.9919 110.511C64.1919 110.405 66.4129 110.976 68.1899 111.992" stroke="var(--illu-line)" stroke-width="1.20569" stroke-linecap="round"/>
    <path d="M52.7729 115.653C53.7889 114.215 55.1639 112.967 57.0889 111.952" stroke="var(--illu-line)" stroke-width="1.20569" stroke-linecap="round"/>
    <path d="M49.625 125.4C49.921 123.665 50.217 121.973 50.661 120.366" stroke="var(--illu-line)" stroke-width="1.20569" stroke-linecap="round"/>
    <path d="M45.9648 136.246C47.1918 134.532 47.9528 132.65 48.5028 130.725" stroke="var(--illu-line)" stroke-width="1.20569" stroke-linecap="round"/>
    <path d="M35.387 143.054C35.746 142.948 36.1059 142.842 36.4869 142.715C38.6649 141.975 40.4629 141.086 41.9439 140.092" stroke="var(--illu-line)" stroke-width="1.20569" stroke-linecap="round"/>
    <path d="M24.1089 142.389C26.0129 143.235 28.1069 143.722 30.3279 143.743" stroke="var(--illu-line)" stroke-width="1.20569" stroke-linecap="round"/>
    <path d="M16.0938 135.483C17.1938 137.09 18.4628 138.529 19.9008 139.734" stroke="var(--illu-line)" stroke-width="1.20569" stroke-linecap="round"/>
    <path d="M12.1208 125.217C12.4168 127.079 12.9039 128.898 13.5589 130.632" stroke="var(--illu-line)" stroke-width="1.20569" stroke-linecap="round"/>
    <path d="M13.1328 113.655C12.4988 115.474 12.0748 117.378 11.9058 119.387" stroke="var(--illu-line)" stroke-width="1.20569" stroke-linecap="round"/>
    <path d="M19.1768 104.248C17.8018 105.623 16.5758 107.125 15.5388 108.754" stroke="var(--illu-line)" stroke-width="1.20569" stroke-linecap="round"/>
    <path d="M28.3577 97.991C26.5807 98.794 24.8678 99.746 23.2808 100.846" stroke="var(--illu-line)" stroke-width="1.20569" stroke-linecap="round"/>
    <path d="M40.757 94.998C39.276 95.104 37.7109 95.295 36.0399 95.612C35.2149 95.76 34.3899 95.95 33.5859 96.162" stroke="var(--illu-line)" stroke-width="1.20569" stroke-linecap="round"/>
    <path d="M51.2278 95.2079C49.4718 95.0179 47.6528 94.8489 45.7068 94.7639" stroke="var(--illu-line)" stroke-width="1.20569" stroke-linecap="round"/>
    <path d="M62.5039 95.522C61.6999 95.649 60.8538 95.733 59.9438 95.755C58.7388 95.776 57.5749 95.755 56.3909 95.67" stroke="var(--illu-line)" stroke-width="1.20569" stroke-linecap="round"/>
    <path d="M72.5299 91.8269C70.7949 92.6299 69.2089 93.5399 67.4529 94.3009" stroke="var(--illu-line)" stroke-width="1.20569" stroke-linecap="round"/>
    <path d="M84.0928 90.178C82.9928 89.945 81.8508 89.839 80.7718 89.86C79.3968 89.903 78.1698 90.051 77.0698 90.284" stroke="var(--illu-line)" stroke-width="1.20569" stroke-linecap="round"/>
    <path d="M92.2399 97.712C91.5209 95.004 90.019 93.121 88.137 91.873" stroke="var(--illu-line)" stroke-width="1.20569" stroke-linecap="round"/>
    <path d="M69.313 116.16L69.101 116.033C68.678 115.758 68.255 115.462 67.895 115.124L66.943 114.256C65.844 113.241 65.78 111.507 66.795 110.407C67.811 109.307 69.545 109.243 70.645 110.259L71.639 111.189" stroke="var(--illu-line)" stroke-width="1.20569" stroke-linecap="round"/>
    <path d="M63.6258 109.444C64.1328 110.861 63.3928 112.426 61.9968 112.934L58.8028 114.076C57.3858 114.584 55.8198 113.843 55.3128 112.447C54.8048 111.03 55.5448 109.465 56.9408 108.957L60.1348 107.815C61.5528 107.307 63.1178 108.048 63.6258 109.444Z" stroke="var(--illu-line)" stroke-width="1.20569"/>
    <path d="M49.5348 115.421C50.0638 114.025 51.6508 113.306 53.0468 113.856C54.4428 114.384 55.1618 115.971 54.6118 117.367L53.4058 120.54C52.8778 121.936 51.2908 122.655 49.8948 122.105C48.4988 121.576 47.7798 119.99 48.3298 118.594L49.5348 115.421Z" stroke="var(--illu-line)" stroke-width="1.20569"/>
    <path d="M49.724 123.942C51.184 124.26 52.136 125.698 51.818 127.157L51.12 130.478C50.803 131.938 49.365 132.89 47.905 132.573C46.446 132.255 45.494 130.817 45.811 129.357L46.509 126.036C46.826 124.577 48.265 123.625 49.724 123.942Z" stroke="var(--illu-line)" stroke-width="1.20569"/>
    <path d="M46.9359 135.275C47.9719 136.354 47.9299 138.089 46.8299 139.125L44.3759 141.473C43.2979 142.509 41.5629 142.467 40.5269 141.367C39.4899 140.288 39.5319 138.554 40.6319 137.517L43.0859 135.17C44.1649 134.133 45.8989 134.175 46.9359 135.275Z" stroke="var(--illu-line)" stroke-width="1.20569"/>
    <path d="M37.0568 142.861C37.3108 144.341 36.3168 145.758 34.8358 145.991L31.4938 146.562C30.0138 146.816 28.5958 145.822 28.3638 144.341C28.1098 142.861 29.1038 141.443 30.5848 141.211L33.9268 140.64C35.4078 140.386 36.8248 141.38 37.0568 142.861Z" stroke="var(--illu-line)" stroke-width="1.20569"/>
    <path d="M25.9719 143.485C25.2529 144.796 23.5819 145.261 22.2709 144.542L19.3089 142.892C17.9979 142.173 17.5329 140.502 18.2519 139.191C18.9709 137.879 20.6419 137.414 21.9529 138.133L24.9149 139.783C26.2259 140.502 26.6919 142.173 25.9719 143.485Z" stroke="var(--illu-line)" stroke-width="1.20569"/>
    <path d="M17.004 137.088C15.714 137.849 14.0429 137.405 13.2819 136.115L11.5679 133.196C10.8069 131.905 11.251 130.234 12.541 129.473C13.832 128.711 15.5029 129.156 16.2639 130.446L17.9769 133.365C18.7389 134.655 18.295 136.326 17.004 137.088Z" stroke="var(--illu-line)" stroke-width="1.20569"/>
    <path d="M12.1598 126.513C10.6578 126.619 9.34682 125.498 9.24082 123.996L8.98679 120.612C8.88179 119.11 10.0028 117.799 11.5048 117.693C13.0058 117.587 14.3178 118.708 14.4238 120.21L14.6768 123.594C14.7828 125.096 13.6618 126.408 12.1598 126.513Z" stroke="var(--illu-line)" stroke-width="1.20569"/>
    <path d="M12.438 115.122C11.063 114.509 10.449 112.901 11.042 111.526L12.417 108.417C13.03 107.042 14.638 106.428 16.013 107.021C17.387 107.634 18.001 109.242 17.409 110.617L16.034 113.726C15.42 115.101 13.813 115.714 12.438 115.122Z" stroke="var(--illu-line)" stroke-width="1.20569"/>
    <path d="M17.8689 105.404C16.8749 104.304 16.9599 102.57 18.0599 101.555L20.577 99.27C21.677 98.276 23.4109 98.36 24.4269 99.46C25.4209 100.56 25.336 102.295 24.236 103.31L21.7189 105.595C20.6189 106.589 18.8849 106.504 17.8689 105.404Z" stroke="var(--illu-line)" stroke-width="1.20569"/>
    <path d="M26.9679 98.525C26.4179 97.129 27.0949 95.542 28.4909 94.992L31.6429 93.744C33.0389 93.194 34.6259 93.871 35.1759 95.267C35.7259 96.663 35.0489 98.25 33.6529 98.8L30.5009 100.048C29.1049 100.598 27.5179 99.921 26.9679 98.525Z" stroke="var(--illu-line)" stroke-width="1.20569"/>
    <path d="M38.3908 95.14C38.3068 93.638 39.4488 92.348 40.9508 92.264L44.3349 92.073C45.8369 91.989 47.1268 93.131 47.2118 94.633C47.2958 96.134 46.1538 97.425 44.6518 97.509L41.2678 97.7C39.7658 97.784 38.4758 96.642 38.3908 95.14Z" stroke="var(--illu-line)" stroke-width="1.20569"/>
    <path d="M49.413 95.23C49.497 93.728 50.7879 92.586 52.2679 92.649L55.653 92.8399C57.154 92.9239 58.2969 94.215 58.2329 95.695C58.1489 97.197 56.8579 98.339 55.3779 98.276L51.9929 98.086C50.4909 98.001 49.349 96.711 49.413 95.23Z" stroke="var(--illu-line)" stroke-width="1.20569"/>
    <path d="M60.6379 96.464C60.1509 95.047 60.8909 93.4819 62.3089 92.9949L65.5238 91.8739C66.9408 91.3879 68.5058 92.128 68.9928 93.545C69.4788 94.963 68.7389 96.5279 67.3219 97.0139L64.1068 98.1349C62.6888 98.6219 61.1239 97.882 60.6379 96.464Z" stroke="var(--illu-line)" stroke-width="1.20569"/>
    <path d="M70.7108 92.5638C70.1608 91.1678 70.8378 89.5808 72.2338 89.0308L75.3848 87.7829C76.7808 87.2329 78.3679 87.9098 78.9179 89.3058C79.4679 90.7018 78.7909 92.2889 77.3949 92.8389L74.2428 94.0868C72.8468 94.6368 71.2608 93.9598 70.7108 92.5638Z" stroke="var(--illu-line)" stroke-width="1.20569"/>
    <path d="M81.8379 89.3299C82.3249 87.9129 83.8689 87.1509 85.2859 87.6379L88.5009 88.7379C89.9189 89.2239 90.6799 90.7679 90.1939 92.1849C89.7069 93.6029 88.1629 94.3639 86.7459 93.8779L83.5309 92.7779C82.1129 92.2909 81.3519 90.7469 81.8379 89.3299Z" stroke="var(--illu-line)" stroke-width="1.20569"/>
    <path d="M89.5349 101.37L89.6829 100.863C89.8309 100.334 89.8739 99.7839 89.7889 99.2549L89.6829 98.5149C89.4719 97.0339 90.508 95.6379 91.989 95.4479C93.47 95.2359 94.866 96.2729 95.056 97.7529L95.2249 99.0009" stroke="var(--illu-line)" stroke-width="1.20569" stroke-linecap="round"/>
    <path d="M90.5678 75.8269H54.7148" stroke="var(--illu-line)" stroke-width="1.14223" stroke-linecap="round"/>
    <path d="M96.6669 82.272H67.9839" stroke="var(--illu-line)" stroke-width="1.14223" stroke-linecap="round"/>
    <path d="M93.4499 71.5449H79.2769" stroke="var(--illu-line)" stroke-width="1.14223" stroke-linecap="round"/>
    <path d="M80.817 166.081C76.481 164.6 72.0599 163.416 67.5549 162.506" stroke="var(--illu-line)" stroke-width="1.20569" stroke-linecap="round"/>
    <path d="M71.518 159.52C65.278 155.839 58.7 154.401 52.27 154.295" stroke="var(--illu-line)" stroke-width="1.20569" stroke-linecap="round"/>
    <path d="M48.311 153.66C48.977 153.66 49.517 153.12 49.517 152.454C49.517 151.788 48.977 151.248 48.311 151.248C47.645 151.248 47.105 151.788 47.105 152.454C47.105 153.12 47.645 153.66 48.311 153.66Z" fill="var(--illu-line)"/>
    <path d="M61.8849 161.23C62.5509 161.23 63.0909 160.69 63.0909 160.024C63.0909 159.359 62.5509 158.819 61.8849 158.819C61.2189 158.819 60.6799 159.359 60.6799 160.024C60.6799 160.69 61.2189 161.23 61.8849 161.23Z" fill="var(--illu-line)"/>
    <path d="M56.35 163.644C57.016 163.644 57.556 163.104 57.556 162.439C57.556 161.773 57.016 161.233 56.35 161.233C55.684 161.233 55.145 161.773 55.145 162.439C55.145 163.104 55.684 163.644 56.35 163.644Z" fill="var(--illu-line)"/>
  </g>
</svg>
