<svg width="300" height="290" viewBox="0 0 300 290" fill="none"
  xmlns="http://www.w3.org/2000/svg">
  <path d="M298.411 151.3C298.411 146.07 297.045 140.944 294.419 136.407L277.236 106.641C271.922 97.4197 262.091 91.748 251.462 91.748H72.5532C64.6549 91.748 57.0927 94.8779 51.5051 100.466L9.40893 142.562C3.82131 148.149 0.691406 155.712 0.691406 163.61V234.631C0.691406 244.504 8.69472 252.487 18.5466 252.487H110.007C115.238 252.487 120.363 253.852 124.9 256.478L172.962 284.227C177.479 286.832 182.625 288.218 187.856 288.218H280.555C290.428 288.218 298.411 280.215 298.411 270.363V151.279V151.3Z" fill="var(--illu-line)" stroke="var(--illu-line)" stroke-width="1.19735" stroke-miterlimit="10"/>
  <path d="M298.408 127.488C298.408 122.257 297.043 117.132 294.417 112.595L273.789 76.8631C270.596 71.3385 264.693 67.9355 258.329 67.9355H72.5508C64.6525 67.9355 57.0903 71.0654 51.5027 76.6531L9.38549 118.77C3.79787 124.358 0.667969 131.92 0.667969 139.818V210.84C0.667969 220.713 8.67129 228.695 18.5231 228.695H109.984C115.214 228.695 120.34 230.061 124.877 232.686L172.939 260.435C177.455 263.04 182.602 264.427 187.832 264.427H280.532C290.405 264.427 298.387 256.423 298.387 246.571V127.488H298.408Z" fill="var(--illu-bg)" stroke="var(--illu-line)" stroke-width="1.19735" stroke-miterlimit="10"/>
  <path d="M222.113 2.01367V31.5692" stroke="var(--illu-line)" stroke-width="1.19735" stroke-linecap="round" stroke-linejoin="round"/>
  <path d="M233.666 46.5046C233.666 40.1397 228.499 34.9512 222.134 34.9512C215.769 34.9512 210.602 40.1187 210.602 46.5046C210.602 52.8904 215.769 58.0369 222.134 58.0369C228.499 58.0369 233.666 52.8694 233.666 46.5046Z" fill="var(--illu-bg)"/>
  <path d="M233.568 47.9902H210.691C210.983 50.2794 211.944 52.3556 213.371 54.019H230.882C232.312 52.3537 233.275 50.2762 233.568 47.9902Z" fill="var(--illu-line)" stroke="var(--illu-line)" stroke-width="1.19735" stroke-linejoin="round"/>
  <path d="M232.992 50.3916H211.265C211.411 50.802 211.58 51.2016 211.77 51.589H232.486C232.676 51.2015 232.845 50.8019 232.992 50.3916Z" fill="var(--illu-bg)"/>
  <path d="M233.666 46.5046C233.666 40.1398 228.499 34.9512 222.134 34.9512C215.769 34.9512 210.602 40.1187 210.602 46.5046C210.602 52.8904 215.769 58.0369 222.134 58.0369C228.499 58.0369 233.666 52.8694 233.666 46.5046Z" stroke="var(--illu-line)" stroke-width="1.19735" stroke-linejoin="round"/>
  <path d="M226.442 130.039H217.809L219.447 57.6309H224.783L226.442 130.039Z" fill="var(--illu-bg)" stroke="var(--illu-line)" stroke-width="1.19735" stroke-linejoin="round"/>
  <path d="M226.257 61.6699H217.98V64.4847H226.257V61.6699Z" fill="var(--illu-bg)" stroke="var(--illu-line)" stroke-width="1.19735" stroke-linejoin="round"/>
  <path d="M224.425 26.6465H219.824V35.0699H224.425V26.6465Z" fill="var(--illu-bg)" stroke="var(--illu-line)" stroke-width="1.19735" stroke-linejoin="round"/>
  <path d="M159.938 140.287H297.023" stroke="var(--illu-line)" stroke-width="1.19735" stroke-linecap="round" stroke-linejoin="round"/>
  <path d="M234.464 155.317C238.977 155.317 242.636 151.659 242.636 147.146C242.636 142.633 238.977 138.975 234.464 138.975C229.951 138.975 226.293 142.633 226.293 147.146C226.293 151.659 229.951 155.317 234.464 155.317Z" fill="var(--illu-line)" stroke="var(--illu-line)" stroke-width="1.07131" stroke-miterlimit="10"/>
  <path d="M181.089 155.317C185.602 155.317 189.261 151.659 189.261 147.146C189.261 142.633 185.602 138.975 181.089 138.975C176.576 138.975 172.918 142.633 172.918 147.146C172.918 151.659 176.576 155.317 181.089 155.317Z" fill="var(--illu-line)" stroke="var(--illu-line)" stroke-width="1.07131" stroke-miterlimit="10"/>
  <path d="M240.448 151.38H178.249C175.056 151.38 172.473 148.796 172.473 145.603V113.443C172.473 105.419 178.964 98.9277 186.988 98.9277H225.954C233.978 98.9277 240.763 104.852 241.856 112.813L246.183 144.826C246.645 148.292 243.956 151.38 240.448 151.38Z" fill="var(--illu-bg)"/>
  <path d="M245.393 138.97H245.071C243.367 138.97 242.184 140.386 242.441 142.086L242.442 142.092L242.694 143.646L242.695 143.648C242.967 145.284 244.464 146.596 246.122 146.596H246.147C246.209 146.247 246.239 145.889 246.234 145.524H246.122C245.006 145.524 243.942 144.61 243.752 143.473L243.5 141.923C243.339 140.851 244.046 140.042 245.071 140.042H245.537L245.393 138.97Z" fill="var(--illu-line)"/>
  <path fill-rule="evenodd" clip-rule="evenodd" d="M226.29 138.97C224.586 138.97 223.402 140.385 223.659 142.086L223.66 142.092L223.912 143.646L223.912 143.648C224.186 145.284 225.683 146.596 227.34 146.596H233.054C234.757 146.596 235.942 145.18 235.684 143.48L235.684 143.474L235.43 141.92L235.43 141.918C235.158 140.282 233.661 138.97 232.004 138.97H226.29ZM224.969 143.473L224.718 141.923C224.557 140.851 225.264 140.042 226.29 140.042H232.004C233.118 140.042 234.183 140.955 234.373 142.093L234.626 143.643C234.786 144.715 234.08 145.524 233.054 145.524H227.34C226.225 145.524 225.16 144.611 224.969 143.473Z" fill="var(--illu-line)"/>
  <path d="M241.856 112.805L244.334 131.142H230.114L227.637 112.813C226.545 104.852 219.76 98.9277 211.735 98.9277H186.506C186.666 98.9225 186.827 98.9199 186.988 98.9199H225.954C233.978 98.9199 240.763 104.844 241.856 112.805Z" fill="var(--illu-gray)" stroke="var(--illu-line)" stroke-width="1.19735"/>
  <path d="M240.448 151.38H178.249C175.056 151.38 172.473 148.796 172.473 145.603V113.443C172.473 105.419 178.964 98.9277 186.988 98.9277H225.954C233.978 98.9277 240.763 104.852 241.856 112.813L246.183 144.826C246.645 148.292 243.956 151.38 240.448 151.38Z" stroke="var(--illu-line)" stroke-width="1.07131" stroke-miterlimit="10"/>
  <path d="M226.23 151.38H164.031C160.838 151.38 158.254 148.796 158.254 145.603V113.443C158.254 105.419 164.745 98.9277 172.769 98.9277H211.735C219.76 98.9277 226.545 104.852 227.637 112.813L231.964 144.826C232.426 148.292 229.738 151.38 226.23 151.38Z" fill="var(--illu-bg)"/>
  <path d="M230.112 131.142L227.633 112.805C226.541 104.844 219.756 98.9199 211.731 98.9199H172.765C164.741 98.9199 158.25 105.411 158.25 113.435V131.142H230.112Z" fill="var(--illu-white)" stroke="var(--illu-line)" stroke-width="1.19735"/>
  <path d="M179.17 151.372H164.027C160.834 151.372 158.25 148.788 158.25 145.596V139.802C158.738 139.61 159.268 139.506 159.819 139.506H173.473C175.553 139.506 177.338 140.997 177.695 143.035L179.17 151.372Z" fill="var(--illu-line)" stroke="var(--illu-line)" stroke-width="1.07131" stroke-miterlimit="10"/>
  <path d="M210.298 151.372H226.226C229.734 151.372 232.422 148.284 231.96 144.818L231.242 139.506H215.995C213.915 139.506 212.13 140.997 211.773 143.035L210.298 151.372Z" fill="var(--illu-line)" stroke="var(--illu-line)" stroke-width="1.07131" stroke-miterlimit="10"/>
  <path d="M226.23 151.38H164.031C160.838 151.38 158.254 148.796 158.254 145.603V113.443C158.254 105.419 164.745 98.9277 172.769 98.9277H211.735C219.76 98.9277 226.545 104.852 227.637 112.813L231.964 144.826C232.426 148.292 229.738 151.38 226.23 151.38Z" stroke="var(--illu-line)" stroke-width="1.07131" stroke-miterlimit="10"/>
  <path d="M221.124 156.919C225.637 156.919 229.296 153.261 229.296 148.748C229.296 144.235 225.637 140.576 221.124 140.576C216.612 140.576 212.953 144.235 212.953 148.748C212.953 153.261 216.612 156.919 221.124 156.919Z" fill="var(--illu-bg)" stroke="var(--illu-line)" stroke-width="1.07131" stroke-miterlimit="10"/>
  <path d="M221.122 152.836C223.373 152.836 225.197 151.011 225.197 148.761C225.197 146.51 223.373 144.686 221.122 144.686C218.871 144.686 217.047 146.51 217.047 148.761C217.047 151.011 218.871 152.836 221.122 152.836Z" fill="var(--illu-line)" stroke="var(--illu-line)" stroke-width="1.07131" stroke-miterlimit="10"/>
  <path d="M207.2 98.9746H182.434V151.385H207.2V98.9746Z" stroke="var(--illu-line)" stroke-width="1.07131" stroke-miterlimit="10"/>
  <path d="M167.746 156.919C172.259 156.919 175.917 153.261 175.917 148.748C175.917 144.235 172.259 140.576 167.746 140.576C163.233 140.576 159.574 144.235 159.574 148.748C159.574 153.261 163.233 156.919 167.746 156.919Z" fill="var(--illu-bg)" stroke="var(--illu-line)" stroke-width="1.07131" stroke-miterlimit="10"/>
  <path d="M167.743 152.836C169.994 152.836 171.818 151.011 171.818 148.761C171.818 146.51 169.994 144.686 167.743 144.686C165.492 144.686 163.668 146.51 163.668 148.761C163.668 151.011 165.492 152.836 167.743 152.836Z" fill="var(--illu-white)" stroke="var(--illu-line)" stroke-width="1.07131" stroke-miterlimit="10"/>
  <path d="M298.408 194.292V170.912H0.667969V212.147H148.908C156.68 212.147 164.305 214.29 170.922 218.344L196.676 234.098C203.314 238.153 210.918 240.295 218.69 240.295H298.387V221.264H258.77C254.106 221.264 249.548 220.024 245.515 217.672L225.79 206.097C220.203 202.82 222.534 194.271 229.004 194.271H298.387" stroke="var(--illu-line)" stroke-width="1.19735" stroke-miterlimit="10"/>
  <path d="M72.4515 125.61V46.0599C72.4515 45.2406 71.7793 44.5684 70.9601 44.5684C70.1408 44.5684 69.4688 45.2406 69.4688 46.0599V125.61H72.4515Z" fill="var(--illu-bg)" stroke="var(--illu-line)" stroke-width="1.19735" stroke-miterlimit="10"/>
  <path d="M115.112 146.616V46.0599C115.112 45.2406 114.44 44.5684 113.62 44.5684C112.801 44.5684 112.129 45.2406 112.129 46.0599V146.616H115.112Z" fill="var(--illu-bg)" stroke="var(--illu-line)" stroke-width="1.19735" stroke-miterlimit="10"/>
  <path d="M56.7832 49.8027H129.38C132.216 49.8027 134.527 52.1134 134.527 54.9492V99.062C134.527 101.898 132.216 104.209 129.38 104.209H56.7832C53.9474 104.209 51.6367 101.898 51.6367 99.062V54.9492C51.6367 52.1134 53.9474 49.8027 56.7832 49.8027Z" fill="var(--illu-bg)" stroke="var(--illu-line)" stroke-width="1.19735" stroke-miterlimit="10"/>
  <path d="M81.5687 55.6831L74.4477 68.0137H79.7832V79.2729C77.8927 77.2984 75.3719 75.912 72.5571 75.4498V69.9252L60.2266 77.0463L72.5571 84.1673V79.0839C76.6743 80.0291 79.7832 83.7262 79.7832 88.1375V95.8677H83.3543V67.9927H88.6898L81.5687 55.6621V55.6831Z" fill="var(--illu-white)" stroke="var(--illu-line)" stroke-width="1.19735" stroke-linejoin="round"/>
  <path d="M112.723 68.0083L105.602 55.6777L98.4805 68.0083H103.816V95.8834H107.387V68.0083H112.723Z" fill="var(--illu-white)" stroke="var(--illu-line)" stroke-width="1.19735" stroke-linejoin="round"/>
  <path d="M146.78 70.5215C145.961 70.5215 145.289 71.1937 145.289 72.0129V190.025H148.272V72.0129C148.272 71.1937 147.6 70.5215 146.78 70.5215Z" fill="var(--illu-bg)" stroke="var(--illu-line)" stroke-width="1.19735" stroke-miterlimit="10"/>
  <path d="M149.284 103.714L163.4 79.2838C164.513 77.3512 163.127 74.9355 160.9 74.9355H132.689C130.463 74.9355 129.076 77.3512 130.189 79.2838L144.306 103.714C145.419 105.647 148.213 105.647 149.326 103.714H149.284Z" fill="var(--illu-bg)" stroke="var(--illu-line)" stroke-width="1.19735" stroke-linecap="round" stroke-linejoin="round"/>
  <path d="M88.7227 205.475C96.6812 205.475 103.133 199.023 103.133 191.065C103.133 183.106 96.6812 176.654 88.7227 176.654C80.7642 176.654 74.3125 183.106 74.3125 191.065C74.3125 199.023 80.7642 205.475 88.7227 205.475Z" fill="var(--illu-line)" stroke="var(--illu-line)" stroke-width="1.30238" stroke-miterlimit="10"/>
  <path d="M183.922 205.475C191.88 205.475 198.332 199.023 198.332 191.065C198.332 183.106 191.88 176.654 183.922 176.654C175.963 176.654 169.512 183.106 169.512 191.065C169.512 199.023 175.963 205.475 183.922 205.475Z" fill="var(--illu-line)" stroke="var(--illu-line)" stroke-width="1.30238" stroke-miterlimit="10"/>
  <path d="M213.983 168.308L178.504 163.371L163.379 125.014C160.88 118.671 154.746 114.49 147.919 114.49H80.4682L64.0625 170.955V197.716H192.032H191.842H211.483C216.945 197.716 221.377 193.284 221.377 187.823V176.815C221.377 172.53 218.226 168.917 213.983 168.308Z" fill="var(--illu-highlight)"/>
  <path d="M162.54 123.209H102.562V163.205H178.439L163.379 125.014C163.134 124.391 162.853 123.788 162.54 123.209Z" fill="var(--illu-gray)" stroke="var(--illu-line)" stroke-width="1.2"/>
  <path d="M213.983 168.308L178.504 163.371L163.379 125.014C160.88 118.671 154.746 114.49 147.919 114.49H80.4682L64.0625 170.955V197.716H192.032H191.842H211.483C216.945 197.716 221.377 193.284 221.377 187.823V176.815C221.377 172.53 218.226 168.917 213.983 168.308Z" stroke="var(--illu-line)" stroke-width="1.30238" stroke-miterlimit="10"/>
  <path d="M166.931 168.308L131.452 163.371L116.327 125.014C113.828 118.671 112.861 114.49 106.034 114.49H51.6076C43.7723 114.49 36.7563 119.322 33.9625 126.632L19.6153 164.191C17.9139 168.623 17.3887 173.412 18.0399 178.097L20.7917 197.695H145.001L144.812 197.191H164.452C169.914 197.191 174.346 192.759 174.346 187.297V176.794C174.346 172.509 171.195 168.896 166.952 168.287L166.931 168.308Z" fill="var(--illu-highlight)"/>
  <path d="M19.9917 163.205H131.386L116.327 125.014C116.112 124.47 115.909 123.942 115.713 123.431C115.684 123.357 115.656 123.283 115.628 123.209H35.6859C35.0055 124.275 34.4258 125.42 33.9624 126.632L19.9917 163.205Z" fill="var(--illu-white)" stroke="var(--illu-line)" stroke-width="1.30238" stroke-miterlimit="10"/>
  <path d="M166.931 168.308L131.452 163.371L116.327 125.014C113.828 118.671 112.861 114.49 106.034 114.49H51.6076C43.7723 114.49 36.7563 119.322 33.9625 126.632L19.6153 164.191C17.9139 168.623 17.3887 173.412 18.0399 178.097L20.7917 197.695H145.001L144.812 197.191H164.452C169.914 197.191 174.346 192.759 174.346 187.297V176.794C174.346 172.509 171.195 168.896 166.952 168.287L166.931 168.308Z" stroke="var(--illu-line)" stroke-width="1.30238" stroke-miterlimit="10"/>
  <path d="M81.7734 123.201V163.197" stroke="var(--illu-line)" stroke-width="1.30238" stroke-miterlimit="10"/>
  <path d="M53.6038 123.201L47.7852 163.197" stroke="var(--illu-line)" stroke-width="1.30238" stroke-miterlimit="10"/>
  <path d="M178.507 163.201H130.676" stroke="var(--illu-line)" stroke-width="1.30238" stroke-miterlimit="10"/>
  <path d="M155.776 197.687H117.965L120.654 182.499C121.179 179.495 123.805 177.311 126.85 177.311H146.911C149.957 177.311 152.583 179.495 153.108 182.499L155.797 197.687H155.776Z" fill="var(--illu-line)" stroke="var(--illu-line)" stroke-width="1.30238" stroke-miterlimit="10"/>
  <path d="M65.7445 197.687H27.9336L30.6224 182.499C31.1475 179.495 33.7733 177.311 36.8192 177.311H56.88C59.9259 177.311 62.5516 179.495 63.0768 182.499L65.7655 197.687H65.7445Z" fill="var(--illu-line)" stroke="var(--illu-line)" stroke-width="1.30238" stroke-miterlimit="10"/>
  <path d="M136.871 208.053C144.83 208.053 151.281 201.601 151.281 193.643C151.281 185.684 144.83 179.232 136.871 179.232C128.913 179.232 122.461 185.684 122.461 193.643C122.461 201.601 128.913 208.053 136.871 208.053Z" fill="var(--illu-white)" stroke="var(--illu-line)" stroke-width="1.30238" stroke-miterlimit="10"/>
  <path d="M46.8438 208.053C54.8023 208.053 61.2539 201.601 61.2539 193.643C61.2539 185.684 54.8023 179.232 46.8438 179.232C38.8852 179.232 32.4336 185.684 32.4336 193.643C32.4336 201.601 38.8852 208.053 46.8438 208.053Z" fill="var(--illu-white)" stroke="var(--illu-line)" stroke-width="1.30238" stroke-miterlimit="10"/>
  <path d="M136.873 200.846C140.852 200.846 144.078 197.62 144.078 193.641C144.078 189.661 140.852 186.436 136.873 186.436C132.894 186.436 129.668 189.661 129.668 193.641C129.668 197.62 132.894 200.846 136.873 200.846Z" fill="var(--illu-line)" stroke="var(--illu-line)" stroke-width="1.30238" stroke-miterlimit="10"/>
  <path d="M46.8418 200.846C50.8211 200.846 54.0469 197.62 54.0469 193.641C54.0469 189.661 50.8211 186.436 46.8418 186.436C42.8625 186.436 39.6367 189.661 39.6367 193.641C39.6367 197.62 42.8625 200.846 46.8418 200.846Z" fill="var(--illu-line)" stroke="var(--illu-line)" stroke-width="1.30238" stroke-miterlimit="10"/>
  <path d="M221.401 176.67H174.348V187.803H221.401V176.67Z" fill="var(--illu-white)" stroke="var(--illu-line)" stroke-width="1.30238" stroke-miterlimit="10"/>
  <path d="M182.372 176.67H174.348V187.803H182.372V176.67Z" fill="var(--illu-white)" stroke="var(--illu-line)" stroke-width="1.30238" stroke-miterlimit="10"/>
  <path d="M221.38 176.67H213.355V187.803H221.38V176.67Z" fill="var(--illu-white)" stroke="var(--illu-line)" stroke-width="1.30238" stroke-miterlimit="10"/>
  <path d="M213.355 176.67H182.371" stroke="var(--illu-line)" stroke-width="1.30238" stroke-miterlimit="10"/>
  <path d="M213.355 179.443H182.371" stroke="var(--illu-line)" stroke-width="1.30238" stroke-miterlimit="10"/>
  <path d="M213.355 182.232H182.371" stroke="var(--illu-line)" stroke-width="1.30238" stroke-miterlimit="10"/>
  <path d="M213.355 185.006H182.371" stroke="var(--illu-line)" stroke-width="1.30238" stroke-miterlimit="10"/>
  <path d="M213.355 187.795H182.371" stroke="var(--illu-line)" stroke-width="1.30238" stroke-miterlimit="10"/>
  <path d="M267.617 210.578H270.6V103.279C270.6 102.459 269.928 101.787 269.109 101.787C268.289 101.787 267.617 102.459 267.617 103.279V210.578Z" fill="var(--illu-white)" stroke="var(--illu-line)" stroke-width="1.19735" stroke-linecap="round" stroke-linejoin="round"/>
  <path d="M258.055 161.986H273.515V106.74H258.055V161.986Z" fill="var(--illu-white)" stroke="var(--illu-line)" stroke-width="1.19735" stroke-linecap="round" stroke-linejoin="round"/>
  <path d="M280.133 106.74H273.516V161.986H280.133V106.74Z" fill="var(--illu-gray)" stroke="var(--illu-line)" stroke-width="1.19735" stroke-linecap="round" stroke-linejoin="round"/>
  <path d="M265.193 124.418C267.85 124.418 270.004 121.211 270.004 117.255C270.004 113.299 267.85 110.092 265.193 110.092C262.537 110.092 260.383 113.299 260.383 117.255C260.383 121.211 262.537 124.418 265.193 124.418Z" fill="var(--illu-line)" stroke="var(--illu-line)" stroke-width="1.19735" stroke-linecap="round" stroke-linejoin="round"/>
  <path d="M258.891 110.108H265.192C267.86 110.108 270.003 113.321 270.003 117.271H263.701C263.701 113.321 261.537 110.108 258.891 110.108Z" fill="var(--illu-white)" stroke="var(--illu-line)" stroke-width="1.19735" stroke-linecap="round" stroke-linejoin="round"/>
  <path d="M258.892 110.108C260.111 110.108 261.203 110.801 262.043 111.893C261.035 113.195 260.384 115.107 260.384 117.271H254.082C254.082 113.321 256.246 110.108 258.892 110.108Z" fill="var(--illu-white)" stroke="var(--illu-line)" stroke-width="1.19735" stroke-linecap="round" stroke-linejoin="round"/>
  <path d="M265.193 141.496C267.85 141.496 270.004 138.289 270.004 134.333C270.004 130.377 267.85 127.17 265.193 127.17C262.537 127.17 260.383 130.377 260.383 134.333C260.383 138.289 262.537 141.496 265.193 141.496Z" fill="var(--illu-line)" stroke="var(--illu-line)" stroke-width="1.19735" stroke-linecap="round" stroke-linejoin="round"/>
  <path d="M258.891 127.17H265.192C267.86 127.17 270.003 130.384 270.003 134.333H263.701C263.701 130.384 261.537 127.17 258.891 127.17Z" fill="var(--illu-white)" stroke="var(--illu-line)" stroke-width="1.19735" stroke-linecap="round" stroke-linejoin="round"/>
  <path d="M258.892 127.17C260.111 127.17 261.203 127.863 262.043 128.956C261.035 130.258 260.384 132.169 260.384 134.333H254.082C254.082 130.384 256.246 127.17 258.892 127.17Z" fill="var(--illu-white)" stroke="var(--illu-line)" stroke-width="1.19735" stroke-linecap="round" stroke-linejoin="round"/>
  <path d="M265.193 158.582C267.85 158.582 270.004 155.375 270.004 151.419C270.004 147.463 267.85 144.256 265.193 144.256C262.537 144.256 260.383 147.463 260.383 151.419C260.383 155.375 262.537 158.582 265.193 158.582Z" fill="var(--illu-line)" stroke="var(--illu-line)" stroke-width="1.19735" stroke-linecap="round" stroke-linejoin="round"/>
  <path d="M258.891 144.256H265.192C267.86 144.256 270.003 147.47 270.003 151.419H263.701C263.701 147.47 261.537 144.256 258.891 144.256Z" fill="var(--illu-white)" stroke="var(--illu-line)" stroke-width="1.19735" stroke-linecap="round" stroke-linejoin="round"/>
  <path d="M258.892 144.256C260.111 144.256 261.203 144.949 262.043 146.041C261.035 147.344 260.384 149.255 260.384 151.419H254.082C254.082 147.47 256.246 144.256 258.892 144.256Z" fill="var(--illu-white)" stroke="var(--illu-line)" stroke-width="1.19735" stroke-linecap="round" stroke-linejoin="round"/>
  <path d="M260.006 216.154V179.288C260.006 178.511 259.334 177.881 258.515 177.881C257.696 177.881 257.023 178.511 257.023 179.288V216.154H260.006Z" fill="var(--illu-white)" stroke="var(--illu-line)" stroke-width="1.19735" stroke-miterlimit="10"/>
  <path d="M236.897 182.3H275.023C276.157 182.3 277.754 182.868 278.615 183.561L286.282 189.8C287.143 190.493 287.143 191.627 286.282 192.32L278.615 198.559C277.754 199.252 276.157 199.819 275.023 199.819H236.897C235.763 199.819 234.859 198.958 234.859 197.887V184.233C234.859 183.162 235.763 182.279 236.897 182.279V182.3Z" fill="var(--illu-white)" stroke="var(--illu-line)" stroke-width="1.2" stroke-miterlimit="10"/>
</svg>
