<svg width="74" height="56" viewBox="0 0 74 56" xmlns="http://www.w3.org/2000/svg">
    <path d="M.006 16.916H74v-6.089H.006v6.09zm37.612-12.94a3.977 3.977 0 1 0-7.953.001 3.977 3.977 0 0 0 7.953 0zM12.535 21.208H0v31.209h13.062c5.566 0 9.555-3.156 9.555-8.986 0-4.164-2.41-6.136-4.295-7.013 1.578-.745 3.857-2.98 3.857-6.443 0-5.347-3.55-8.767-9.644-8.767zM6.093 39.311h6.355c2.762 0 4.076 1.71 4.076 3.813 0 2.104-1.314 3.858-4.076 3.858H6.093V39.31zm5.96-12.667c2.587 0 4.033 1.447 4.033 3.594 0 2.148-1.446 3.594-4.033 3.594h-5.96v-7.188h5.96zm18.54 25.773h6.094V21.208h-6.093v31.209zM51.72 21.208h-6.005v31.209h6.093v-18.19l6.004 11.834h4.121l5.961-11.834v18.19h6.092V21.208h-6.004l-8.109 16.875-8.153-16.875z" fill="#164194" fill-rule="evenodd"/>
</svg>
