<svg width="100" height="100" viewBox="0 0 100 100" fill="none" xmlns="http://www.w3.org/2000/svg">
<path d="M33.4023 18.5625H38.8151" stroke="#1E3791" stroke-width="0.57"/>
<path d="M38.8151 12.25L33.4023 18.5598" stroke="#1E3791" stroke-width="0.57"/>
<path d="M38.8151 24.8723L33.4023 18.5625" stroke="#1E3791" stroke-width="0.57"/>
<path d="M38.8151 24.8672H33.4023" stroke="#1E3791" stroke-width="0.57"/>
<path d="M33.4023 31.1797H38.8151" stroke="#1E3791" stroke-width="0.57"/>
<path d="M38.8151 24.8672L33.4023 31.177" stroke="#1E3791" stroke-width="0.57"/>
<path d="M38.8151 37.4895L33.4023 31.1797" stroke="#1E3791" stroke-width="0.57"/>
<path d="M38.8151 37.4922H33.4023" stroke="#1E3791" stroke-width="0.57"/>
<path d="M33.4023 43.8047H38.8151" stroke="#1E3791" stroke-width="0.57"/>
<path d="M38.8151 37.4922L33.4023 43.802" stroke="#1E3791" stroke-width="0.57"/>
<path d="M38.8151 50.1145L33.4023 43.8047" stroke="#1E3791" stroke-width="0.57"/>
<path d="M38.8151 50.1094H33.4023" stroke="#1E3791" stroke-width="0.57"/>
<path d="M33.4023 56.4219H38.8151" stroke="#1E3791" stroke-width="0.57"/>
<path d="M38.8151 50.1094L33.4023 56.4192" stroke="#1E3791" stroke-width="0.57"/>
<path d="M38.8151 62.7317L33.4023 56.4219" stroke="#1E3791" stroke-width="0.57"/>
<path d="M38.8151 62.7266H33.4023" stroke="#1E3791" stroke-width="0.57"/>
<path d="M33.4023 69.0391H38.8151" stroke="#1E3791" stroke-width="0.57"/>
<path d="M38.8151 62.7266L33.4023 69.0364" stroke="#1E3791" stroke-width="0.57"/>
<path d="M38.8151 75.3489L33.4023 69.0391" stroke="#1E3791" stroke-width="0.57"/>
<path d="M33.4023 12.4219V78.4334" stroke="#1E3791" stroke-width="0.57"/>
<path d="M38.8164 12.4219V77.7681" stroke="#1E3791" stroke-width="0.57"/>
<path d="M12.5391 12.4179H76.9882L71.5755 7.78125H22.5885L15.8855 12.4179" stroke="#1E3791" stroke-width="0.57" stroke-linejoin="round"/>
<path d="M22.5898 7.78125V12.4179" stroke="#1E3791" stroke-width="0.57"/>
<path d="M28.0039 12.4179V7.78125" stroke="#1E3791" stroke-width="0.57"/>
<path d="M22.5898 7.78125L28.0026 12.4179" stroke="#1E3791" stroke-width="0.57"/>
<path d="M33.4066 7.78125L28.0039 12.4179" stroke="#1E3791" stroke-width="0.57"/>
<path d="M33.4023 7.78125V12.4179" stroke="#1E3791" stroke-width="0.57"/>
<path d="M38.8164 12.4179V7.78125" stroke="#1E3791" stroke-width="0.57"/>
<path d="M44.2266 12.4179V7.78125" stroke="#1E3791" stroke-width="0.57"/>
<path d="M33.4023 7.78125L38.8151 12.4179" stroke="#1E3791" stroke-width="0.57"/>
<path d="M44.2292 7.78125L38.8164 12.4179" stroke="#1E3791" stroke-width="0.57"/>
<path d="M49.6328 12.4179V7.78125" stroke="#1E3791" stroke-width="0.57"/>
<path d="M44.2305 7.78125L49.6332 12.4179" stroke="#1E3791" stroke-width="0.57"/>
<path d="M55.0456 7.78125L49.6328 12.4179" stroke="#1E3791" stroke-width="0.57"/>
<path d="M55.043 7.78125V12.4179" stroke="#1E3791" stroke-width="0.57"/>
<path d="M60.457 12.4179V7.78125" stroke="#1E3791" stroke-width="0.57"/>
<path d="M65.8594 12.4179V7.78125" stroke="#1E3791" stroke-width="0.57"/>
<path d="M71.2695 12.4179V7.78125" stroke="#1E3791" stroke-width="0.57"/>
<path d="M55.043 7.78125L60.4557 12.4179" stroke="#1E3791" stroke-width="0.57"/>
<path d="M65.8597 7.78125L60.457 12.4179" stroke="#1E3791" stroke-width="0.57"/>
<path d="M15.8855 9.625H12.5391V14.7152H15.8855V9.625Z" fill="#E1E1E1" stroke="#1E3791" stroke-width="0.57"/>
<path d="M19.2332 9.625H15.8867V14.7152H19.2332V9.625Z" fill="#E1E1E1" stroke="#1E3791" stroke-width="0.57"/>
<path d="M22.5886 9.625H19.2422V14.7152H22.5886V9.625Z" fill="#E1E1E1" stroke="#1E3791" stroke-width="0.57"/>
<path d="M65.8594 7.78125L71.2721 12.4179" stroke="#1E3791" stroke-width="0.57"/>
<path d="M71.0234 49.3594H51.0859V90.5649H71.0234V49.3594Z" fill="white" stroke="#1E3791" stroke-width="0.57"/>
<path d="M72.0445 34.3978L51.7812 32.625L50.9669 41.9333L71.2302 43.7061L72.0445 34.3978Z" fill="#E60032" stroke="#1E3791" stroke-width="0.57"/>
<path d="M61.7872 14.3828V28.3834L55.8906 42.5151" stroke="#1E3791" stroke-width="0.57" stroke-linejoin="round"/>
<path d="M63.1406 13.8718C63.1406 13.136 63.7454 12.5312 64.4812 12.5312C65.217 12.5312 65.8218 13.136 65.8218 13.8718C65.8218 14.6077 65.217 15.2225 64.4812 15.2225C63.7454 15.2225 63.1406 14.6177 63.1406 13.8718Z" fill="#1E3791"/>
<path d="M57.7578 13.8718C57.7578 13.136 58.3626 12.5312 59.0984 12.5312C59.8342 12.5312 60.439 13.136 60.439 13.8718C60.439 14.6077 59.8342 15.2225 59.0984 15.2225C58.3626 15.2225 57.7578 14.6177 57.7578 13.8718Z" fill="#1E3791"/>
<path d="M64.349 13.2734H58.1602V14.483H64.349V13.2734Z" fill="#1E3791"/>
<path d="M71.0234 69.6016H51.0859V90.5672H71.0234V69.6016Z" fill="#B6E6FA" stroke="#1E3791" stroke-width="0.57"/>
<path d="M93.6485 59.8203H73.7109V90.5632H93.6485V59.8203Z" fill="white" stroke="#1E3791" stroke-width="0.57"/>
<path d="M93.6485 53.7344H73.7109V59.8225H93.6485V53.7344Z" fill="#E60032" stroke="#1E3791" stroke-width="0.57"/>
<path d="M93.6485 74.8984H73.7109V90.5622H93.6485V74.8984Z" fill="#B6E6FA" stroke="#1E3791" stroke-width="0.57"/>
<path d="M30.582 59.0625H10.6445V90.5714H30.582V59.0625Z" fill="white" stroke="#1E3791" stroke-width="0.57"/>
<path d="M30.582 75.9688H10.6445V90.5842H30.582V75.9688Z" fill="#B6E6FA" stroke="#1E3791" stroke-width="0.57"/>
<path d="M30.582 88.3672H10.6445V91.7136H30.582V88.3672Z" fill="#1E3791" stroke="#1E3791" stroke-width="0.57"/>
<path d="M71.0234 80.8203H51.0859V91.7164H71.0234V80.8203Z" fill="#1E3791" stroke="#1E3791" stroke-width="0.57"/>
<path d="M93.6485 84.1406H73.7109V91.7205H93.6485V84.1406Z" fill="#1E3791" stroke="#1E3791" stroke-width="0.57"/>
<path d="M46.5078 73.1719H26.5703V93.8351H46.5078V73.1719Z" fill="white" stroke="#1E3791" stroke-width="0.57"/>
<path d="M46.5078 81.2188H26.5703V93.8384H46.5078V81.2188Z" fill="#B6E6FA" stroke="#1E3791" stroke-width="0.57"/>
<path d="M61.7891 28.3828L65.1758 43.1696" stroke="#1E3791" stroke-width="0.57" stroke-linejoin="round"/>
<path d="M85.4766 54.9845C89.2175 54.9845 92.2501 51.9519 92.2501 48.211C92.2501 44.4701 89.2175 41.4375 85.4766 41.4375C81.7357 41.4375 78.7031 44.4701 78.7031 48.211C78.7031 51.9519 81.7357 54.9845 85.4766 54.9845Z" fill="white" stroke="#1E3791" stroke-width="0.57" stroke-linecap="round" stroke-linejoin="round"/>
<path d="M82.3516 48.7121L85.0227 51.2622L87.6736 45.1641" fill="white"/>
<path d="M82.3516 48.7121L85.0227 51.2622L87.6736 45.1641" stroke="#1E3791" stroke-width="0.57" stroke-linecap="round" stroke-linejoin="round"/>
</svg>
