<?xml version="1.0" encoding="UTF-8"?>
<svg id="SPARSCHWEIN" xmlns="http://www.w3.org/2000/svg" xmlns:xlink="http://www.w3.org/1999/xlink" viewBox="0 0 69.97 55.53">
  <defs>
    <style>
      .cls-1, .cls-2, .cls-3, .cls-4 {
        fill: none;
      }

      .cls-5, .cls-6, .cls-7, .cls-8, .cls-9, .cls-10, .cls-11, .cls-12, .cls-2, .cls-3, .cls-4 {
        stroke: #1e3791;
        stroke-width: .57px;
      }

      .cls-5, .cls-7, .cls-12, .cls-13 {
        fill: #1e3791;
      }

      .cls-5, .cls-8, .cls-9, .cls-10, .cls-11, .cls-12, .cls-2, .cls-3 {
        stroke-linejoin: round;
      }

      .cls-5, .cls-8, .cls-2, .cls-4 {
        stroke-linecap: round;
      }

      .cls-6, .cls-7, .cls-4 {
        stroke-miterlimit: 10;
      }

      .cls-6, .cls-10 {
        fill: #b6e6fa;
      }

      .cls-14 {
        clip-path: url(#clippath);
      }

      .cls-8, .cls-11, .cls-15 {
        fill: #fff;
      }

      .cls-9 {
        fill: #f9ced7;
      }
    </style>
    <clipPath id="clippath">
      <path class="cls-1" d="m19.9,11.44c-.4,0-.77-.23-.92-.63-.19-.5.07-1.06.57-1.24,1.96-.73,1.39-4.68,3.66-4.87,1.92-.16,4.64,5.26,2.88,5.41-2.1.18-4.07.61-5.86,1.28-.11.04-.21.06-.32.06Z"/>
    </clipPath>
    <symbol id="Neues_Symbol_7" data-name="Neues Symbol 7" viewBox="0 0 69.97 55.53">
      <g>
        <polygon class="cls-7" points="69.69 22.06 69.69 33.4 56.71 32.78 59.77 22.4 69.69 22.06"/>
        <path class="cls-7" d="m53.35,55.25c3.04,0,5.85-1.63,7.37-4.26l7.84-13.64c1.51-2.63,1.51-5.86,0-8.49l-5.22-9.04c-1.52-2.63-4.33-4.25-7.36-4.25H5.95c-3.13,0-5.67,2.54-5.67,5.67v28.35c0,3.13,2.54,5.67,5.67,5.67h47.39Z"/>
        <path class="cls-6" d="m53.35,43.91c3.04,0,5.85-1.63,7.37-4.26l7.84-13.64c1.51-2.63,1.51-5.86,0-8.49l-5.22-9.04c-1.52-2.63-4.33-4.25-7.36-4.25H5.95C2.82,4.23.28,6.76.28,9.9v28.35c0,3.13,2.54,5.67,5.67,5.67h47.39Z"/>
        <g>
          <g>
            <path class="cls-10" d="m42.29,17.61c0,1.99,1.02,3.73,2.57,4.73.69.45,1.1,1.23,1.07,2.06,0,.12,0,.24,0,.36.1,1.89,1.4,3.59,3.22,4.08,3,.81,5.71-1.42,5.72-4.29,0-.82.42-1.63,1.13-2.04,1.69-.97,2.84-2.8,2.84-4.9,0-1.36-.48-2.59-1.26-3.56-.65-.8-.93-1.84-.76-2.86.04-.24.06-.48.06-.73,0-1.54-.78-2.89-1.97-3.69-.54-.36-.86-.93-.94-1.57-.23-1.72-1.72-3.02-3.48-3.02s-3.27,1.33-3.49,3.06c-.08.65-.4,1.23-.93,1.61-1.11.81-1.84,2.12-1.84,3.61,0,.24.02.48.06.71.17,1.04-1.7,1.54-2.37,2.36-.79.97.35,2.72.35,4.08Z"/>
            <line class="cls-4" x1="50.63" y1="32.75" x2="50.63" y2="8.95"/>
          </g>
          <line class="cls-4" x1="50.63" y1="16.98" x2="48.45" y2="14.21"/>
          <line class="cls-4" x1="50.63" y1="21.4" x2="54.61" y2="17.17"/>
        </g>
        <g>
          <polygon id="SVGID" class="cls-11" points="24.36 41.35 21.91 41.35 18.34 31.24 24.13 31.24 24.36 41.35"/>
          <polygon class="cls-11" points="36.37 41.35 38.78 41.35 37.27 27.86 31.19 29.84 36.37 41.35"/>
          <path class="cls-11" d="m8.56,22.44c-2.92.93-5.31-1.72-4.51-4.53.52-1.83,2.43-2.9,4.26-2.38.37.1.58.49.48.85-.1.37-.49.58-.85.48-1.1-.31-2.24.33-2.55,1.43-.31,1.1.33,2.24,1.43,2.55,1.1.31,2.5-.83,2.81-1.93.1-.37.23-.08.59.02.37.1,1.34.24,1.23.61-.32,1.14-.97,2.29-2.88,2.9Z"/>
          <g>
            <g>
              <path class="cls-15" d="m44.92,12.08c-.23-.61-.59-1.24-1.16-1.64-.33-.22-.73-.35-1.16-.38-.19-.01-.38,0-.58.02,2.03-.47,3.97.52,4.25,1.7.25,1.04-.97,2.02-.97,2.02,0,0-.05-.83-.37-1.72Z"/>
              <path class="cls-15" d="m44.92,12.08c-.75.32-1.7,1.09-2.88,3.8l-2.81-2.89,3.37-2.88v-.05c.44.03.84.16,1.17.38.57.4.93,1.03,1.16,1.64Z"/>
              <path class="cls-15" d="m42.6,10.06v.05s-3.37,2.88-3.37,2.88l-.11-.11-.54-.2c.75-1.56,2.16-2.45,3.43-2.6,0,0,0,0,0,0,.2-.03.39-.03.58-.02Z"/>
            </g>
            <g>
              <path class="cls-3" d="m44.92,12.08c-.75.32-1.7,1.09-2.88,3.8l-2.81-2.89"/>
              <path class="cls-3" d="m42.02,10.08c.2-.03.39-.03.58-.02.44.03.84.16,1.16.38.57.4.93,1.03,1.16,1.64.33.88.37,1.72.37,1.72,0,0,1.22-.98.97-2.02-.28-1.17-2.22-2.16-4.25-1.7"/>
              <path class="cls-3" d="m42.02,10.08s0,0,0,0"/>
              <path class="cls-3" d="m38.48,12.89c.03-.07.06-.14.09-.21.75-1.56,2.16-2.45,3.43-2.6"/>
            </g>
          </g>
          <g>
            <path class="cls-15" d="m46.27,19.94c-.44-.14-.86.49-1.25.92-.93-8.26-8.3-14.45-17.87-14.45-10.24,0-17.97,7.09-17.97,16.22,0,5.12,1.71,9.19,4.83,11.98l1.26,6.74h2.64l.57-4.03c2.47,1,5.37,1.53,8.68,1.53,2.57,0,4.98-.45,7.15-1.26l.06.27c6.48-1.4,10.89-5.94,12.84-10.95l-.94-6.97Z"/>
            <path class="cls-3" d="m46.27,19.94c-.44-.14-.86.49-1.25.92-.93-8.26-8.3-14.45-17.87-14.45-10.24,0-17.97,7.09-17.97,16.22,0,5.12,1.71,9.19,4.83,11.98l1.26,6.74h2.64l.57-4.03c2.47,1,5.37,1.53,8.68,1.53,2.57,0,4.98-.45,7.15-1.26l.06.27c6.48-1.4,10.89-5.94,12.84-10.95l-.94-6.97Z"/>
          </g>
          <path class="cls-5" d="m40.66,28.39c.38,1.04,1.44,1.48,2.35,1.39-.53.77-2.61,1.22-2.35-1.39Z"/>
          <path class="cls-12" d="m19.9,11.44c-.4,0-.77-.23-.92-.63-.19-.5.07-1.06.57-1.24,1.96-.73,4.1-1.2,6.37-1.39,1.92-.16,3.77-.11,5.52.16.53.08.89.57.81,1.1-.08.53-.57.89-1.1.81-1.59-.24-3.3-.29-5.06-.14-2.1.18-4.07.61-5.86,1.28-.11.04-.21.06-.32.06Z"/>
          <path class="cls-8" d="m18.5,37.09c3.27-.47,5.86-3,6.42-6.25"/>
          <path class="cls-9" d="m45.44,9.35"/>
          <path class="cls-13" d="m39.28,16.07c-.02.3-.27.53-.57.52-.3-.02-.53-.27-.52-.57.02-.3.27-.53.57-.52.3.02.53.27.52.57Z"/>
          <path class="cls-13" d="m41.99,15.61c-.02.3-.27.53-.57.52s-.53-.27-.52-.57c.02-.3.27-.53.57-.52.3.02.53.27.52.57Z"/>
          <g>
            <path class="cls-8" d="m37.24,12.24c-.23.76-.13,1.51.26,2.35"/>
            <path class="cls-8" d="m32.44,17.08c-1.49-5.17,2.89-6.83,5.88-4.33,0-.81-.2-1.66-1.16-2.07-1.1-.47-2.93.07-4.37,2.2"/>
          </g>
          <g>
            <path class="cls-8" d="m44.8,28.94l-.17-1.68c.51-1.12.7-2.64.53-4.28-.17-1.6-.65-3.01-1.35-4l-.17-1.69-3.31.31"/>
            <path class="cls-11" d="m47.68,22.75c-.34-3.21-1.93-5.68-4.07-5.45s-3.18,2.97-2.85,6.18c.34,3.21,1.93,5.68,4.07,5.45s3.18-2.97,2.85-6.18Z"/>
            <line class="cls-2" x1="43.22" y1="21.33" x2="43.59" y2="24.9"/>
            <line class="cls-2" x1="45.23" y1="21.12" x2="45.61" y2="24.69"/>
          </g>
          <circle class="cls-11" cx="28.82" cy="6" r="3.48"/>
          <circle class="cls-11" cx="24.62" cy="3.03" r="2.74"/>
          <g class="cls-14">
            <circle class="cls-11" cx="23.31" cy="10.45" r="2.29"/>
            <path class="cls-3" d="m26.08,10.1c-2.1.18-4.07.61-5.86,1.28-.11.04-.21.06-.32.06-.4,0-.77-.23-.92-.63-.19-.5.07-1.06.57-1.24"/>
          </g>
          <polyline class="cls-8" points="29.59 35.42 31.63 41.35 34.23 41.35 34.37 34.61"/>
        </g>
      </g>
    </symbol>
  </defs>
  <use width="69.97" height="55.53" xlink:href="#Neues_Symbol_7"/>
</svg>