<?xml version="1.0" encoding="UTF-8"?>
<svg id="WASSER" xmlns="http://www.w3.org/2000/svg" xmlns:xlink="http://www.w3.org/1999/xlink" viewBox="0 0 142.3 111.18">
  <defs>
    <style>
      .cls-1, .cls-2, .cls-3, .cls-4, .cls-5, .cls-6, .cls-7 {
        fill: none;
      }

      .cls-8, .cls-9, .cls-10, .cls-11, .cls-12, .cls-13, .cls-14, .cls-15, .cls-16, .cls-17, .cls-18, .cls-2, .cls-19, .cls-3, .cls-20, .cls-21, .cls-22, .cls-4, .cls-5, .cls-23, .cls-24, .cls-6, .cls-7, .cls-25 {
        stroke: #1e3791;
      }

      .cls-8, .cls-9, .cls-10, .cls-11, .cls-12, .cls-13, .cls-15, .cls-16, .cls-17, .cls-18, .cls-2, .cls-19, .cls-3, .cls-20, .cls-21, .cls-22, .cls-4, .cls-5, .cls-23, .cls-24, .cls-6, .cls-25 {
        stroke-width: .57px;
      }

      .cls-8, .cls-10, .cls-11, .cls-20, .cls-21, .cls-22, .cls-4, .cls-6, .cls-7 {
        stroke-miterlimit: 10;
      }

      .cls-8, .cls-12, .cls-17, .cls-26, .cls-19, .cls-24, .cls-25 {
        fill: #fff;
      }

      .cls-9, .cls-11, .cls-27 {
        fill: #1e3791;
      }

      .cls-9, .cls-12, .cls-13, .cls-14, .cls-15, .cls-16, .cls-17, .cls-18, .cls-2, .cls-3, .cls-24 {
        stroke-linejoin: round;
      }

      .cls-9, .cls-12, .cls-13, .cls-2, .cls-19, .cls-20, .cls-21, .cls-22, .cls-6, .cls-7, .cls-25 {
        stroke-linecap: round;
      }

      .cls-10, .cls-15, .cls-22 {
        fill: #b6e6fa;
      }

      .cls-28 {
        clip-path: url(#clippath);
      }

      .cls-13, .cls-14, .cls-16, .cls-29, .cls-23 {
        fill: #e60032;
      }

      .cls-14 {
        stroke-width: .58px;
      }

      .cls-18, .cls-20 {
        fill: #e1e1e1;
      }

      .cls-30 {
        clip-path: url(#clippath-4);
      }

      .cls-31 {
        clip-path: url(#clippath-3);
      }

      .cls-32 {
        clip-path: url(#clippath-2);
      }

      .cls-21 {
        fill: #dce14b;
      }

      .cls-24 {
        stroke-linecap: square;
      }

      .cls-7 {
        stroke-width: .29px;
      }

      .cls-25 {
        fill-rule: evenodd;
      }
    </style>
    <clipPath id="clippath">
      <path class="cls-8" d="m41.24,34.65c-10.63,0-19.26,8.62-19.26,19.26h0c0,10.63,8.62,19.26,19.26,19.26h21.39c3.44,0,6.76,1.3,9.29,3.64l7.12,6.61c2.53,2.34,5.84,3.64,9.29,3.64h18.32c14.47,0,26.2-11.73,26.2-26.2h0c0-14.47-11.73-26.2-26.2-26.2H41.24Z"/>
    </clipPath>
    <clipPath id="clippath-2">
      <path class="cls-1" d="m96.1,16.59c-.37.32-.87.37-1.29.18"/>
    </clipPath>
    <clipPath id="clippath-3">
      <path class="cls-2" d="m96.1,16.59c-.37.32-.87.37-1.29.18"/>
    </clipPath>
    <clipPath id="clippath-4">
      <path class="cls-1" d="m96.1,16.59c-.37.32-.87.37-1.29.18"/>
    </clipPath>
    <symbol id="Neues_Symbol_2" data-name="Neues Symbol 2" viewBox="0 0 142.3 111.18">
      <g>
        <path class="cls-11" d="m137.87,100.87c2.66-2.66,4.15-6.26,4.15-10.02v-34.92c0-3.76-1.49-7.36-4.15-10.02l-5.87-5.87c-2.66-2.66-6.26-4.15-10.02-4.15h-29.18c-3.75,0-7.34-1.48-9.99-4.12l-10.34-10.28c-2.66-2.64-6.25-4.12-9.99-4.12H23.16c-3.76,0-7.36,1.49-10.02,4.15l-8.71,8.71c-2.66,2.66-4.15,6.26-4.15,10.02v45.15c0,4.7,3.81,8.5,8.5,8.5h52.63c3.04,0,5.85,1.62,7.36,4.25l4.91,8.5c1.52,2.63,4.33,4.25,7.36,4.25h40.92c3.76,0,7.36-1.49,10.02-4.15l5.87-5.87Z"/>
        <path class="cls-10" d="m137.87,89.53c2.66-2.66,4.15-6.26,4.15-10.02v-34.92c0-3.76-1.49-7.36-4.15-10.02l-5.87-5.87c-2.66-2.66-6.26-4.15-10.02-4.15h-30.68c-3.04,0-5.85-1.62-7.36-4.25l-5.79-10.03c-1.52-2.63-4.33-4.25-7.36-4.25H23.16c-3.76,0-7.36,1.49-10.02,4.15l-8.71,8.71C1.78,21.53.28,25.13.28,28.89v45.15c0,4.7,3.81,8.5,8.5,8.5h52.63c3.04,0,5.85,1.62,7.36,4.25l4.91,8.5c1.52,2.63,4.33,4.25,7.36,4.25h40.92c3.76,0,7.36-1.49,10.02-4.15l5.87-5.87Z"/>
        <g>
          <path class="cls-15" d="m58.79,14.41c.09-.73-.07-1.46-.45-2.08-.48-.78-.75-1.69-.75-2.67,0-2.28,1.5-4.2,3.56-4.86.62-.2,1.05-.7,1.21-1.33.45-1.78,2.08-3.19,4.11-3.19s3.65,1.34,4.11,3.2c.15.62.59,1.12,1.2,1.31,2.07.66,3.57,2.58,3.57,4.86,0,.98-.28,1.89-.75,2.67-.38.62-.54,1.34-.45,2.06.02.15.03.32.03.5,0,2.61-2.12,4.73-4.73,4.73-.39,0-.77-.05-1.14-.14-1.2-.31-2.46-.31-3.67,0-.36.09-.75.14-1.14.14-2.61,0-4.73-2.12-4.73-4.73,0-.1,0-.26.03-.48Z"/>
          <line class="cls-6" x1="66.56" y1="22.62" x2="66.56" y2="5.45"/>
          <line class="cls-6" x1="66.56" y1="13.43" x2="70.9" y2="9.37"/>
          <line class="cls-6" x1="66.56" y1="15.8" x2="62.15" y2="13.08"/>
        </g>
        <g>
          <path class="cls-22" d="m16.23,16.77c0-1.2.38-2.31,1.03-3.23.39-.55.43-1.26.13-1.87s-.45-1.29-.45-2.01c0-2.45,1.93-4.53,4.38-4.68.69-.04,1.35-.41,1.6-1.05.63-1.58,2.17-2.7,3.97-2.7s3.32,1.1,3.95,2.66c.26.64.89,1.06,1.58,1.06,2.71,0,4.6,2.39,4.6,4.7,0,.72-.16,1.4-.45,2.01-.29.61-.26,1.32.13,1.87.65.91,1.03,2.02,1.03,3.23,0,2.21-1.28,4.12-3.13,5.03-.67.33-1.19.94-1.24,1.68-.15,2.17-2.12,3.57-3.9,3.57-.44,0-.87-.07-1.26-.21-.79-.27-1.64-.27-2.43,0-.4.14-.82.21-1.26.21-1.85,0-3.76-1.47-3.9-3.6-.05-.72-.55-1.32-1.2-1.63-1.88-.91-3.17-2.83-3.17-5.05Z"/>
          <line class="cls-21" x1="27.01" y1="30.76" x2="27.01" y2="7.06"/>
          <line class="cls-21" x1="27.01" y1="19.19" x2="22.94" y2="14.02"/>
          <line class="cls-21" x1="27.01" y1="23.13" x2="31.87" y2="17.96"/>
          <line class="cls-21" x1="27.01" y1="13.99" x2="30.06" y2="10.75"/>
        </g>
        <g>
          <path class="cls-26" d="m41.24,34.65c-10.63,0-19.26,8.62-19.26,19.26h0c0,10.63,8.62,19.26,19.26,19.26h21.39c3.44,0,6.76,1.3,9.29,3.64l7.12,6.61c2.53,2.34,5.84,3.64,9.29,3.64h18.32c14.47,0,26.2-11.73,26.2-26.2h0c0-14.47-11.73-26.2-26.2-26.2H41.24Z"/>
          <g class="cls-28">
            <path class="cls-11" d="m132.85,62c-1.42-9.41-7.86-17.18-16.5-20.51-2.11-.81-4.44-.93-6.6-.28-.77.24-1.6.44-2.8.44-2.79,0-2.79-1.13-5.58-1.13s-2.79,1.13-5.58,1.13-2.79-1.13-5.58-1.13-2.79,1.13-5.58,1.13-2.79-1.13-5.58-1.13-2.79,1.13-5.58,1.13-2.79-1.13-5.58-1.13-2.79,1.13-5.58,1.13-2.79-1.13-5.58-1.13-2.79,1.13-5.58,1.13-2.79-1.13-5.58-1.13-2.79,1.13-5.58,1.13-4.44-1.39-7.63.28c-5.03,2.63-8.76,7.42-9.94,13.14l-12.51-10.34,25.84-18.76,74.01,5.52,29.04,4,.66,17.56-2.72,9.99-3.86-1.05Z"/>
          </g>
          <path class="cls-4" d="m41.24,34.65c-10.63,0-19.26,8.62-19.26,19.26h0c0,10.63,8.62,19.26,19.26,19.26h21.39c3.44,0,6.76,1.3,9.29,3.64l7.12,6.61c2.53,2.34,5.84,3.64,9.29,3.64h18.32c14.47,0,26.2-11.73,26.2-26.2h0c0-14.47-11.73-26.2-26.2-26.2H41.24Z"/>
        </g>
        <path class="cls-6" d="m90.21,58.1c2.79,0,2.79,1.13,5.58,1.13s2.79-1.13,5.58-1.13,2.79,1.13,5.58,1.13,2.79-1.13,5.58-1.13"/>
        <path class="cls-6" d="m56.71,60.35c2.79,0,2.79,1.13,5.58,1.13s2.79-1.13,5.58-1.13,2.79,1.13,5.58,1.13,2.79-1.13,5.58-1.13,2.79,1.13,5.58,1.13,2.79-1.13,5.58-1.13,2.79,1.13,5.58,1.13,2.79-1.13,5.58-1.13"/>
        <path class="cls-6" d="m71.65,69.82c2.79,0,2.79-1.13,5.58-1.13s2.79,1.13,5.58,1.13,2.79-1.13,5.58-1.13,2.79,1.13,5.58,1.13,2.79-1.13,5.58-1.13,2.79,1.13,5.58,1.13"/>
        <path class="cls-6" d="m82.81,71.96c2.79,0,2.79-1.13,5.58-1.13s2.79,1.13,5.58,1.13,2.79-1.13,5.58-1.13,2.79,1.13,5.58,1.13,2.79-1.13,5.58-1.13,2.79,1.13,5.58,1.13"/>
        <path class="cls-6" d="m45.54,62.47c2.79,0,2.79,1.13,5.58,1.13s2.79-1.13,5.58-1.13,2.79,1.13,5.58,1.13,2.79-1.13,5.58-1.13,2.79,1.13,5.58,1.13,2.79-1.13,5.58-1.13,2.79,1.13,5.58,1.13,2.79-1.13,5.58-1.13"/>
        <g>
          <path class="cls-20" d="m28.17,44.26c-.79-1.24-.8-2.81-.06-4.08.5-.86.79-1.86.79-2.93,0-1.97-.99-3.72-2.5-4.77-1.13-.79-1.8-2.1-1.68-3.48.01-.15.02-.3.02-.46,0-2-1.13-3.75-2.8-4.63-1.11-.58-1.8-1.73-1.79-2.98,0,0,0-.02,0-.03,0-2.21-1.57-4.01-3.51-4.01s-3.51,1.8-3.51,4.01c0,.1,0,.2,0,.3.08,1.18-.55,2.27-1.55,2.89-1.49.92-2.49,2.57-2.49,4.45,0,.06,0,.12,0,.17.05,1.46-.71,2.84-1.95,3.62-1.64,1.04-2.71,2.87-2.71,4.92,0,1.07.29,2.07.79,2.93.74,1.27.73,2.84-.06,4.08-.61.96-.94,2.11-.9,3.34.08,2,1.19,3.76,2.81,4.74.03.02.05.03.08.05,1.06.62,1.83,1.61,2.23,2.77,1.03,3.03,3.9,4.75,7.28,4.75s6.25-1.71,7.28-4.75c.4-1.17,1.19-2.16,2.25-2.79.06-.03.12-.07.17-.11,1.56-1,2.61-2.71,2.69-4.67.05-1.23-.29-2.38-.9-3.34Z"/>
          <line class="cls-21" x1="16.68" y1="68.06" x2="16.68" y2="27.33"/>
          <line class="cls-21" x1="16.68" y1="53.55" x2="21.66" y2="47.23"/>
          <line class="cls-21" x1="16.68" y1="36.62" x2="20.46" y2="31.82"/>
          <line class="cls-21" x1="16.68" y1="45.93" x2="11.16" y2="40.06"/>
        </g>
        <g>
          <path class="cls-18" d="m63.51,18.7c-.09-.73.07-1.46.45-2.08.48-.78.75-1.69.75-2.67,0-2.28-1.5-4.2-3.56-4.86-.62-.2-1.05-.7-1.21-1.33-.45-1.78-2.08-3.19-4.11-3.19s-3.65,1.34-4.11,3.2c-.15.62-.59,1.12-1.2,1.31-2.07.66-3.57,2.58-3.57,4.86,0,.98.28,1.89.75,2.67.38.62.54,1.34.45,2.06-.02.15-.03.32-.03.5,0,2.61,2.12,4.73,4.73,4.73.39,0,.77-.05,1.14-.14,1.2-.31,2.46-.31,3.67,0,.36.09.75.14,1.14.14,2.61,0,4.73-2.12,4.73-4.73,0-.1,0-.26-.03-.48Z"/>
          <line class="cls-6" x1="55.73" y1="28.05" x2="55.73" y2="9.74"/>
          <line class="cls-6" x1="55.73" y1="17.73" x2="51.39" y2="13.67"/>
          <line class="cls-6" x1="55.73" y1="20.09" x2="60.15" y2="17.37"/>
        </g>
        <g>
          <g>
            <rect class="cls-16" x="94.23" y="20.08" width="9.2" height="1.9"/>
            <polygon class="cls-23" points="90.59 12.67 89.16 21.97 97.82 21.97 99.99 22.59 99.99 12.43 90.59 12.67"/>
            <g>
              <path class="cls-26" d="m105.25,14.21c0-4.16-3.37-7.53-7.53-7.53s-7.53,3.37-7.53,7.53c0,3.31,2.15,6.09,5.12,7.1v2.97h5.49v-3.22c2.62-1.18,4.45-3.79,4.45-6.84Z"/>
              <path class="cls-5" d="m105.25,14.21c0-4.16-3.37-7.53-7.53-7.53s-7.53,3.37-7.53,7.53c0,3.31,2.15,6.09,5.12,7.1v2.97h5.49v-3.22c2.62-1.18,4.45-3.79,4.45-6.84Z"/>
            </g>
            <circle class="cls-27" cx="97.2" cy="12.89" r=".53"/>
            <circle class="cls-27" cx="93.79" cy="12.38" r=".53"/>
            <path class="cls-6" d="m94.93,15.31c-.45-.08-.76-.51-.69-.97h0c.08-.45.51-.76.97-.69h.09"/>
            <g>
              <g class="cls-32">
                <polygon class="cls-29" points="92.79 18.18 91.92 15.46 90.44 15.47 91.3 18.5 92.79 18.18"/>
              </g>
              <g>
                <g class="cls-31">
                  <polygon class="cls-9" points="92.79 18.18 91.92 15.46 90.44 15.47 91.3 18.5 92.79 18.18"/>
                </g>
                <path class="cls-2" d="m96.1,16.59c-.37.32-.87.37-1.29.18"/>
              </g>
              <g class="cls-30">
                <polygon class="cls-7" points="92.79 18.18 91.92 15.46 90.44 15.47 91.3 18.5 92.79 18.18"/>
              </g>
            </g>
          </g>
          <path class="cls-17" d="m95.36,21.57v1.15c0,.58-.44,1.06-1.02,1.11-1.73.15-4.06.37-5.7.65-4.02.69-10.97,2.51-18.02,4.81-2.4.79-2.89,3.65-1.08,5.06l11.39,8.9,2.46-3.03-6.82-6.46,8.71-1.9c1.19-.26,2.23.64,2.15,1.82l-.71,11.63,22.9-.74-.81-10.39c-.13-1.43.73-2.66,2.39-2.31l6.24,1.32-8,3.63,1.22,3.71,14.79-4.53c3.31-1.01,3.63-4.98.51-6.03,0,0-7.02-2.5-11.97-3.98-3.24-1.11-8.85-1.78-12.19-2.1-.57-.06-1-.54-1-1.11v-1.2"/>
          <path class="cls-14" d="m92.11,27.93l-4.38,6.12-.31,2.07c3.7,1.1,6.74,1.28,10.85,0l-6.16-8.19Z"/>
          <path class="cls-14" d="m104.46,27.93l-6.16,8.19c3.63.89,6.71,1.09,10.54,0l-.31-2.41-4.07-5.77Z"/>
          <line class="cls-3" x1="104.46" y1="27.93" x2="104.46" y2="24.13"/>
          <line class="cls-3" x1="92.15" y1="28.89" x2="92.15" y2="23.84"/>
          <line class="cls-19" x1="119.41" y1="32.29" x2="116.8" y2="33.47"/>
          <line class="cls-19" x1="75.16" y1="32.44" x2="76.99" y2="34.17"/>
          <path class="cls-25" d="m93.97,20.73c1.1.63,2.38.99,3.74.99"/>
          <g>
            <path class="cls-24" d="m80.93,37.9l3.25,3.06c.27.25.45.59.51.95l.9,5.22-5.64.06-1.8-5.59c-.12-.38-.35-.72-.66-.97l-1.68-1.38"/>
            <line class="cls-2" x1="83.33" y1="42.73" x2="84.09" y2="46.96"/>
            <line class="cls-2" x1="81.89" y1="43.46" x2="82.54" y2="46.97"/>
            <line class="cls-2" x1="80.42" y1="43.96" x2="81.1" y2="47.09"/>
          </g>
        </g>
        <g>
          <path class="cls-26" d="m86.01,44c1.52-.29,1.96-1.02,4.19-1.02,2.79,0,2.79,1.13,5.58,1.13s2.79-1.13,5.58-1.13,2.79,1.13,5.58,1.13,2.79-1.13,5.58-1.13c1.72,0,2.38.43,3.28.76v4.14h-29.45s-.73-3.81-.35-3.89Z"/>
          <path class="cls-6" d="m85.21,44.1c2.22-.15,2.42-1.12,5-1.12,2.79,0,2.79,1.13,5.58,1.13s2.79-1.13,5.58-1.13,2.79,1.13,5.58,1.13,2.79-1.13,5.58-1.13c1.72,0,2.38.43,3.28.76"/>
        </g>
        <line class="cls-2" x1="108.77" y1="40.43" x2="108.2" y2="43.1"/>
        <line class="cls-2" x1="109.98" y1="41.19" x2="109.48" y2="43.21"/>
        <g>
          <path class="cls-26" d="m65.08,46.2c.7-.28,1.4-.57,2.79-.57,2.79,0,2.79,1.13,5.58,1.13s2.79-1.13,5.58-1.13,2.79,1.13,5.58,1.13,2.79-1.13,5.58-1.13,2.79,1.13,5.58,1.13v2.01h-30.31l-.39-2.58Z"/>
          <path class="cls-6" d="m65.08,46.2c.7-.28,1.4-.57,2.79-.57,2.79,0,2.79,1.13,5.58,1.13s2.79-1.13,5.58-1.13,2.79,1.13,5.58,1.13,2.79-1.13,5.58-1.13,2.79,1.13,5.58,1.13"/>
        </g>
        <g>
          <path class="cls-17" d="m106.82,40.1l-2.25.57c-.61.15-1.25-.05-1.65-.53l-.25-.3,7.4-3.33"/>
          <path class="cls-24" d="m111.45,35.9l-4.07,1.81c-.55.25-.94.75-1.05,1.35l-.8,4.65,5.72.06,1.43-3.88,2.43-.76"/>
          <path class="cls-12" d="m106.26,39.47l-.9,5.26c-.03.2.02.4.15.55s.32.24.52.24c.35,0,.65-.25.71-.6l.92-5.11"/>
          <path class="cls-12" d="m109.12,40.61l-1.03,5.31c-.07.35-.37.6-.73.6-.22,0-.43-.1-.58-.27s-.2-.4-.16-.62l1.05-5.82"/>
          <path class="cls-12" d="m110.44,41.45l-.89,3.74c-.07.32-.36.54-.68.54-.18,0-.36-.08-.48-.22s-.16-.33-.13-.51l.85-4.38"/>
          <path class="cls-12" d="m112.59,40.14l-1.57,4.28c-.1.29-.38.47-.69.46-.17,0-.33-.09-.44-.23s-.14-.32-.1-.48l.64-2.72"/>
        </g>
        <path class="cls-6" d="m67.87,47.9c2.79,0,2.79,1.13,5.58,1.13s2.79-1.13,5.58-1.13,2.79,1.13,5.58,1.13,2.79-1.13,5.58-1.13,2.79,1.13,5.58,1.13,2.79-1.13,5.58-1.13,2.79,1.13,5.58,1.13"/>
        <g>
          <path class="cls-17" d="m56.09,70.64c-.09-.73.07-1.46.45-2.08.48-.78.75-1.69.75-2.67,0-2.28-1.5-4.2-3.56-4.86-.62-.2-1.05-.7-1.21-1.33-.45-1.78-2.08-3.19-4.11-3.19s-3.65,1.34-4.11,3.2c-.15.62-.59,1.12-1.2,1.31-2.07.66-3.57,2.58-3.57,4.86,0,.98.28,1.89.75,2.67.38.62.54,1.34.45,2.06-.02.15-.03.32-.03.5,0,2.61,2.12,4.73,4.73,4.73.39,0,.77-.05,1.14-.14,1.2-.31,2.46-.31,3.67,0,.36.09.75.14,1.14.14,2.61,0,4.73-2.12,4.73-4.73,0-.1,0-.26-.03-.48Z"/>
          <line class="cls-6" x1="48.31" y1="79.99" x2="48.31" y2="61.68"/>
          <line class="cls-6" x1="48.31" y1="69.66" x2="43.97" y2="65.6"/>
          <line class="cls-6" x1="48.31" y1="72.03" x2="52.73" y2="69.3"/>
        </g>
        <g>
          <path class="cls-18" d="m130.34,84.1c-.09-.73.07-1.46.45-2.08.48-.78.75-1.69.75-2.67,0-2.28-1.5-4.2-3.56-4.86-.62-.2-1.05-.7-1.21-1.33-.45-1.78-2.08-3.19-4.11-3.19s-3.65,1.34-4.11,3.2c-.15.62-.59,1.12-1.2,1.31-2.07.66-3.57,2.58-3.57,4.86,0,.98.28,1.89.75,2.67.38.62.54,1.34.45,2.06-.02.15-.03.32-.03.5,0,2.61,2.12,4.73,4.73,4.73.39,0,.77-.05,1.14-.14,1.2-.31,2.46-.31,3.67,0,.36.09.75.14,1.14.14,2.61,0,4.73-2.12,4.73-4.73,0-.1,0-.26-.03-.48Z"/>
          <line class="cls-6" x1="122.56" y1="93.45" x2="122.56" y2="75.14"/>
          <line class="cls-6" x1="122.56" y1="83.12" x2="118.22" y2="79.06"/>
          <line class="cls-6" x1="122.56" y1="85.49" x2="126.98" y2="82.77"/>
        </g>
        <path class="cls-16" d="m105,12.3h-.01c-.84-3.23-3.77-5.62-7.27-5.62-3.31,0-6.11,2.13-7.12,5.1,2.31-.11,4.37-1.17,5.8-2.8.83,1.98,2.42,3.55,4.39,4.39l-.8,9.26h7.61l-2.6-10.31Z"/>
        <path class="cls-19" d="m102.74,16.37c.67.11,1.3-.34,1.41-1s-.34-1.3-1-1.41c-.1-.02-.19-.02-.28-.01l-.12,2.43Z"/>
        <path class="cls-13" d="m96.4,8.97c1.12,2.66,3.6,4.59,6.56,4.98"/>
        <g>
          <path class="cls-17" d="m116.05,83.63c-.72-.8-1.11-1.84-1.11-2.92,0,0,0,0,0,0,0-1.99-1.61-3.6-3.6-3.6s-3.6,1.61-3.6,3.6c0,1.08-.4,2.11-1.11,2.91-.99,1.11-1.59,2.56-1.59,4.16,0,3.48,2.82,6.31,6.31,6.31s6.31-2.82,6.31-6.31c0-1.6-.6-3.05-1.59-4.16Z"/>
          <polyline class="cls-6" points="111.33 97.6 111.33 89.84 109.23 84.02"/>
          <line class="cls-6" x1="111.33" y1="89.84" x2="114.29" y2="86.11"/>
        </g>
        <g>
          <path class="cls-17" d="m30.56,58.75c-.72-.8-1.11-1.84-1.11-2.92,0,0,0,0,0,0,0-1.99-1.61-3.6-3.6-3.6s-3.6,1.61-3.6,3.6c0,1.08-.4,2.11-1.11,2.92-.99,1.11-1.59,2.56-1.59,4.16,0,3.48,2.82,6.31,6.31,6.31s6.31-2.82,6.31-6.31c0-1.6-.6-3.05-1.59-4.16Z"/>
          <polyline class="cls-6" points="25.84 72.71 25.84 64.95 23.74 59.13"/>
          <line class="cls-6" x1="25.84" y1="64.95" x2="28.8" y2="61.22"/>
        </g>
        <path class="cls-17" d="m51.59,27.9c-1.43,0-2.59,1.16-2.59,2.59v2.72h1.61v-2.72c0-.54.44-.98.98-.98s.98.44.98.98v5.37h-8.48v-5.37c0-1.43-1.16-2.59-2.59-2.59s-2.59,1.16-2.59,2.59v2.72h1.61v-2.72c0-.54.44-.98.98-.98s.98.44.98.98v14.36c0,.45.36-.61.81-.61s.81.21.81-.24v-2.06h8.48v2.7c0,.45.36.24.81.24s.81-.36.81-.81v-13.59c0-1.43-1.16-2.59-2.59-2.59Zm.98,12.43h-8.48v-2.86h8.48v2.86Z"/>
        <path class="cls-26" d="m37.46,44.85c.38.07.82.12,1.37.12,2.79,0,2.79-1.13,5.58-1.13s2.79,1.13,5.58,1.13,2.79-1.13,5.58-1.13,2.79,1.13,5.58,1.13v2.08l-23.84-.57.15-1.62Z"/>
        <path class="cls-6" d="m37.46,44.85c.38.07.82.12,1.37.12,2.79,0,2.79-1.13,5.58-1.13s2.79,1.13,5.58,1.13,2.79-1.13,5.58-1.13,2.79,1.13,5.58,1.13"/>
      </g>
    </symbol>
  </defs>
  <use width="142.3" height="111.18" xlink:href="#Neues_Symbol_2"/>
</svg>