<?xml version="1.0" encoding="UTF-8"?>
<svg id="GELD" xmlns="http://www.w3.org/2000/svg" xmlns:xlink="http://www.w3.org/1999/xlink" viewBox="0 0 145.21 129.01">
  <defs>
    <style>
      .cls-1, .cls-2, .cls-3, .cls-4, .cls-5, .cls-6, .cls-7, .cls-8, .cls-9, .cls-10, .cls-11, .cls-12, .cls-13 {
        stroke-width: .57px;
      }

      .cls-1, .cls-2, .cls-3, .cls-4, .cls-5, .cls-6, .cls-7, .cls-8, .cls-9, .cls-10, .cls-12, .cls-13 {
        stroke: #1e3791;
      }

      .cls-1, .cls-2, .cls-3, .cls-11, .cls-12, .cls-13, .cls-14 {
        stroke-miterlimit: 10;
      }

      .cls-1, .cls-4, .cls-7 {
        fill: #fff;
      }

      .cls-2, .cls-5 {
        fill: #b6e6fa;
      }

      .cls-3 {
        fill: #1e3791;
      }

      .cls-4, .cls-5, .cls-6, .cls-7, .cls-8, .cls-9, .cls-10 {
        stroke-linejoin: round;
      }

      .cls-4, .cls-9, .cls-13 {
        stroke-linecap: round;
      }

      .cls-6 {
        fill: #e60032;
      }

      .cls-8 {
        fill: #e1e1e1;
      }

      .cls-9, .cls-10, .cls-11, .cls-12, .cls-13, .cls-14 {
        fill: none;
      }

      .cls-11, .cls-14 {
        stroke: #fff;
      }

      .cls-14 {
        stroke-width: 1.98px;
      }
    </style>
    <symbol id="Neues_Symbol_4" data-name="Neues Symbol 4" viewBox="0 0 145.21 129.01">
      <g>
        <path class="cls-3" d="m143.55,38.01c0-4.7-3.81-8.5-8.5-8.5h-39.49c-3.76,0-7.36,1.49-10.02,4.15l-8.78,8.78c-2.66,2.66-6.26,4.15-10.02,4.15h-16.51l.11-.08H10.34c-4.7,0-8.5,3.81-8.5,8.5,0,0-.02,14.8-.02,14.8v11.32h0s-.02,39.07-.02,39.07c0,4.7,3.81,8.5,8.5,8.5h58.19c3.05,0,5.86-1.63,7.37-4.27l12.02-20.94c1.52-2.64,4.33-4.27,7.37-4.27h39.78c4.7,0,8.5-3.81,8.5-8.5v-52.72Z"/>
        <path class="cls-2" d="m143.55,26.67c0-4.7-3.81-8.5-8.5-8.5h-39.49c-3.76,0-7.36,1.49-10.02,4.15l-8.78,8.78c-2.66,2.66-6.26,4.15-10.02,4.15h-16.51l.11-.08H10.34c-4.7,0-8.5,3.81-8.5,8.5,0,0-.02,14.8-.02,14.8v11.32h0s-.02,39.07-.02,39.07c0,4.7,3.81,8.5,8.5,8.5h58.19c3.05,0,5.86-1.63,7.37-4.27l12.02-20.94c1.52-2.64,4.33-4.27,7.37-4.27h39.78c4.7,0,8.5-3.81,8.5-8.5V26.67Z"/>
        <g>
          <path class="cls-5" d="m99.14,19.15c.72-.8,1.11-1.84,1.11-2.92,0,0,0,0,0,0,0-1.99,1.61-3.6,3.6-3.6s3.6,1.61,3.6,3.6c0,1.08.4,2.11,1.11,2.92.99,1.11,1.59,2.56,1.59,4.16,0,3.48-2.82,6.31-6.31,6.31s-6.31-2.82-6.31-6.31c0-1.6.6-3.05,1.59-4.16Z"/>
          <polyline class="cls-13" points="103.85 33.12 103.85 25.36 105.95 19.54"/>
          <line class="cls-13" x1="103.85" y1="25.36" x2="100.9" y2="21.63"/>
        </g>
        <g>
          <path class="cls-5" d="m133.9,38.41c.72-.8,1.11-1.84,1.11-2.92,0,0,0,0,0,0,0-1.99,1.61-3.6,3.6-3.6s3.6,1.61,3.6,3.6c0,1.08.4,2.11,1.11,2.92.99,1.11,1.59,2.56,1.59,4.16,0,3.48-2.82,6.31-6.31,6.31s-6.31-2.82-6.31-6.31c0-1.6.6-3.05,1.59-4.16Z"/>
          <polyline class="cls-13" points="138.62 52.37 138.62 44.61 140.72 38.79"/>
          <line class="cls-13" x1="138.62" y1="44.61" x2="135.67" y2="40.88"/>
        </g>
        <g>
          <path class="cls-5" d="m28.36,43.76c-.08-.62.06-1.23.38-1.76.4-.66.64-1.43.64-2.26,0-1.93-1.27-3.56-3.02-4.12-.52-.17-.89-.59-1.02-1.12-.38-1.51-1.77-2.7-3.48-2.7s-3.09,1.13-3.48,2.72c-.13.53-.5.95-1.02,1.11-1.75.56-3.02,2.18-3.02,4.12,0,.83.23,1.6.64,2.26.32.52.46,1.14.39,1.75-.02.13-.02.27-.02.42,0,2.21,1.79,4.01,4.01,4.01.33,0,.66-.04.96-.12,1.02-.26,2.09-.26,3.11,0,.31.08.63.12.97.12,2.21,0,4.01-1.79,4.01-4.01,0-.09,0-.22-.02-.41Z"/>
          <line class="cls-13" x1="21.77" y1="53.2" x2="21.77" y2="36.17"/>
          <line class="cls-13" x1="21.77" y1="42.93" x2="18.09" y2="39.49"/>
          <line class="cls-13" x1="21.77" y1="44.94" x2="25.51" y2="42.63"/>
        </g>
        <g>
          <path class="cls-1" d="m107.26,3.47l.2,48.18c0,1.74,2.85,3.14,8.03,3.13s8.01-1.44,8.01-3.18l-.2-48.18-16.03.06Z"/>
          <g>
            <path class="cls-12" d="m123.5,51.59c0,1.74-2.82,3.17-8.01,3.18s-8.02-1.38-8.03-3.13"/>
            <path class="cls-12" d="m123.48,48.76c0,1.74-2.82,3.17-8.01,3.18s-8.02-1.38-8.03-3.13"/>
            <path class="cls-12" d="m123.47,45.92c0,1.74-2.82,3.17-8.01,3.18s-8.02-1.38-8.03-3.13"/>
            <path class="cls-12" d="m123.46,43.09c0,1.74-2.82,3.17-8.01,3.18s-8.02-1.38-8.03-3.13"/>
            <path class="cls-12" d="m123.45,40.26c0,1.74-2.82,3.17-8.01,3.18s-8.02-1.38-8.03-3.13"/>
            <path class="cls-12" d="m123.44,37.42c0,1.74-2.82,3.17-8.01,3.18s-8.02-1.38-8.03-3.13"/>
            <path class="cls-12" d="m123.42,34.59c0,1.74-2.82,3.17-8.01,3.18s-8.02-1.38-8.03-3.13"/>
            <path class="cls-12" d="m123.41,31.75c0,1.74-2.82,3.17-8.01,3.18s-8.02-1.38-8.03-3.13"/>
            <path class="cls-12" d="m123.4,28.92c0,1.74-2.82,3.17-8.01,3.18s-8.02-1.38-8.03-3.13"/>
            <path class="cls-12" d="m123.39,26.08c0,1.74-2.82,3.17-8.01,3.18s-8.02-1.38-8.03-3.13"/>
            <path class="cls-12" d="m123.38,23.25c0,1.74-2.82,3.17-8.01,3.18s-8.02-1.38-8.03-3.13"/>
            <path class="cls-12" d="m123.37,20.42c0,1.74-2.82,3.17-8.01,3.18s-8.02-1.38-8.03-3.13"/>
            <path class="cls-12" d="m123.35,17.58c0,1.74-2.82,3.17-8.01,3.18s-8.02-1.38-8.03-3.13"/>
            <path class="cls-12" d="m123.34,14.75c0,1.74-2.82,3.17-8.01,3.18s-8.02-1.38-8.03-3.13"/>
            <path class="cls-12" d="m123.33,11.91c0,1.74-2.82,3.17-8.01,3.18s-8.02-1.38-8.03-3.13"/>
            <path class="cls-12" d="m123.32,9.08c0,1.74-2.82,3.17-8.01,3.18s-8.02-1.38-8.03-3.13"/>
            <path class="cls-12" d="m123.31,6.24c0,1.74-2.82,3.17-8.01,3.18s-8.02-1.38-8.03-3.13"/>
            <path class="cls-12" d="m123.3,3.41c0,1.74-2.82,3.17-8.01,3.18s-8.02-1.38-8.03-3.13"/>
          </g>
          <ellipse class="cls-1" cx="115.28" cy="3.44" rx="8.02" ry="3.15"/>
          <line class="cls-11" x1="120.59" y1="6.59" x2="120.59" y2="53.2"/>
          <line class="cls-14" x1="117.51" y1="7.28" x2="117.51" y2="53.2"/>
        </g>
        <g>
          <path class="cls-1" d="m118.42,23.76l.2,34.58c0,1.74,2.85,3.14,8.03,3.13s8.01-1.44,8.01-3.18l-.2-34.58-16.03.06Z"/>
          <g>
            <path class="cls-12" d="m134.66,58.28c0,1.74-2.82,3.17-8.01,3.18s-8.02-1.38-8.03-3.13"/>
            <path class="cls-12" d="m134.64,55.39c0,1.74-2.82,3.17-8.01,3.18s-8.02-1.38-8.03-3.13"/>
            <path class="cls-12" d="m134.63,52.51c0,1.74-2.82,3.17-8.01,3.18s-8.02-1.38-8.03-3.13"/>
            <path class="cls-12" d="m134.61,49.63c0,1.74-2.82,3.17-8.01,3.18s-8.02-1.38-8.03-3.13"/>
            <path class="cls-12" d="m134.59,46.75c0,1.74-2.82,3.17-8.01,3.18s-8.02-1.38-8.03-3.13"/>
            <path class="cls-12" d="m134.57,43.87c0,1.74-2.82,3.17-8.01,3.18s-8.02-1.38-8.03-3.13"/>
            <path class="cls-12" d="m134.56,40.99c0,1.74-2.82,3.17-8.01,3.18s-8.02-1.38-8.03-3.13"/>
            <path class="cls-12" d="m134.54,38.11c0,1.74-2.82,3.17-8.01,3.18s-8.02-1.38-8.03-3.13"/>
            <path class="cls-12" d="m134.52,35.22c0,1.74-2.82,3.17-8.01,3.18s-8.02-1.38-8.03-3.13"/>
            <path class="cls-12" d="m134.51,32.34c0,1.74-2.82,3.17-8.01,3.18s-8.02-1.38-8.03-3.13"/>
            <path class="cls-12" d="m134.49,29.46c0,1.74-2.82,3.17-8.01,3.18s-8.02-1.38-8.03-3.13"/>
            <path class="cls-12" d="m134.47,26.58c0,1.74-2.82,3.17-8.01,3.18s-8.02-1.38-8.03-3.13"/>
            <path class="cls-12" d="m134.46,23.7c0,1.74-2.82,3.17-8.01,3.18s-8.02-1.38-8.03-3.13"/>
          </g>
          <ellipse class="cls-1" cx="126.44" cy="23.73" rx="8.02" ry="3.15"/>
          <line class="cls-11" x1="131.75" y1="26.88" x2="131.75" y2="59.88"/>
          <line class="cls-14" x1="128.67" y1="27.57" x2="128.67" y2="59.88"/>
        </g>
        <g>
          <path class="cls-1" d="m26.68,27.36l.2,27.77c0,1.74,2.85,3.14,8.03,3.13s8.01-1.44,8.01-3.18l-.2-27.77-16.03.06Z"/>
          <g>
            <path class="cls-12" d="m42.92,55.27c0,1.74-2.82,3.17-8.01,3.18s-8.02-1.38-8.03-3.13"/>
            <path class="cls-12" d="m42.9,52.47c0,1.74-2.82,3.17-8.01,3.18s-8.02-1.38-8.03-3.13"/>
            <path class="cls-12" d="m42.88,49.67c0,1.74-2.82,3.17-8.01,3.18s-8.02-1.38-8.03-3.13"/>
            <path class="cls-12" d="m42.86,46.88c0,1.74-2.82,3.17-8.01,3.18s-8.02-1.38-8.03-3.13"/>
            <path class="cls-12" d="m42.84,44.08c0,1.74-2.82,3.17-8.01,3.18s-8.02-1.38-8.03-3.13"/>
            <path class="cls-12" d="m42.82,41.29c0,1.74-2.82,3.17-8.01,3.18s-8.02-1.38-8.03-3.13"/>
            <path class="cls-12" d="m42.8,38.49c0,1.74-2.82,3.17-8.01,3.18s-8.02-1.38-8.03-3.13"/>
            <path class="cls-12" d="m42.78,35.69c0,1.74-2.82,3.17-8.01,3.18s-8.02-1.38-8.03-3.13"/>
            <path class="cls-12" d="m42.76,32.9c0,1.74-2.82,3.17-8.01,3.18s-8.02-1.38-8.03-3.13"/>
            <path class="cls-12" d="m42.74,30.1c0,1.74-2.82,3.17-8.01,3.18s-8.02-1.38-8.03-3.13"/>
            <path class="cls-12" d="m42.72,27.31c0,1.74-2.82,3.17-8.01,3.18s-8.02-1.38-8.03-3.13"/>
          </g>
          <ellipse class="cls-1" cx="34.7" cy="27.34" rx="8.02" ry="3.15"/>
          <line class="cls-11" x1="40.01" y1="30.49" x2="40.01" y2="56.69"/>
          <line class="cls-14" x1="36.93" y1="31.17" x2="36.93" y2="56.69"/>
        </g>
        <g>
          <path class="cls-1" d="m96.59,35.69l.2,20.97c0,1.74,2.85,3.14,8.03,3.13s8.01-1.44,8.01-3.18l-.2-20.97-16.03.06Z"/>
          <g>
            <path class="cls-12" d="m112.82,56.6c0,1.74-2.82,3.17-8.01,3.18s-8.02-1.38-8.03-3.13"/>
            <path class="cls-12" d="m112.79,53.61c0,1.74-2.82,3.17-8.01,3.18s-8.02-1.38-8.03-3.13"/>
            <path class="cls-12" d="m112.76,50.61c0,1.74-2.82,3.17-8.01,3.18s-8.02-1.38-8.03-3.13"/>
            <path class="cls-12" d="m112.74,47.61c0,1.74-2.82,3.17-8.01,3.18s-8.02-1.38-8.03-3.13"/>
            <path class="cls-12" d="m112.71,44.62c0,1.74-2.82,3.17-8.01,3.18s-8.02-1.38-8.03-3.13"/>
            <path class="cls-12" d="m112.68,41.62c0,1.74-2.82,3.17-8.01,3.18s-8.02-1.38-8.03-3.13"/>
            <path class="cls-12" d="m112.65,38.63c0,1.74-2.82,3.17-8.01,3.18s-8.02-1.38-8.03-3.13"/>
            <path class="cls-12" d="m112.62,35.63c0,1.74-2.82,3.17-8.01,3.18s-8.02-1.38-8.03-3.13"/>
          </g>
          <ellipse class="cls-1" cx="104.6" cy="35.66" rx="8.02" ry="3.15"/>
          <line class="cls-11" x1="109.92" y1="38.82" x2="109.92" y2="58.21"/>
          <line class="cls-14" x1="106.84" y1="39.5" x2="106.84" y2="58.21"/>
        </g>
        <g>
          <g>
            <polygon class="cls-8" points="47.58 66.14 47.58 56.82 103.41 63.57 103.41 72.88 84.76 79.67 47.58 66.14"/>
            <polygon class="cls-7" points="47.58 56.82 66.23 50.03 103.41 63.57 84.76 70.35 47.58 56.82"/>
            <polygon class="cls-7" points="60.33 61.45 78.98 54.67 89.37 58.45 70.72 65.23 60.33 61.45"/>
            <g>
              <polyline class="cls-10" points="103.41 72.88 84.76 79.67 47.58 66.14"/>
              <polyline class="cls-10" points="103.41 70.55 84.76 77.34 47.58 63.81"/>
              <polyline class="cls-10" points="103.41 68.22 84.76 75.01 47.58 61.48"/>
              <polyline class="cls-10" points="103.41 65.89 84.76 72.68 47.58 59.14"/>
              <polyline class="cls-10" points="103.41 63.56 84.76 70.34 47.58 56.81"/>
            </g>
            <polygon class="cls-7" points="70.72 65.23 60.33 61.45 60.33 70.77 70.72 74.55 70.72 65.23"/>
            <line class="cls-10" x1="84.55" y1="70.35" x2="84.55" y2="79.67"/>
          </g>
          <g>
            <polygon class="cls-8" points="47.58 56.82 47.58 47.5 103.41 54.25 103.41 63.57 84.76 70.35 47.58 56.82"/>
            <polygon class="cls-7" points="47.58 47.5 66.23 40.72 103.41 54.25 84.76 61.04 47.58 47.5"/>
            <polygon class="cls-7" points="60.33 52.14 78.98 45.35 89.37 49.13 70.72 55.92 60.33 52.14"/>
            <g>
              <polyline class="cls-10" points="103.41 63.57 84.76 70.35 47.58 56.82"/>
              <polyline class="cls-10" points="103.41 61.23 84.76 68.02 47.58 54.49"/>
              <polyline class="cls-10" points="103.41 58.9 84.76 65.69 47.58 52.16"/>
              <polyline class="cls-10" points="103.41 56.57 84.76 63.36 47.58 49.83"/>
              <polyline class="cls-10" points="103.41 54.24 84.76 61.03 47.58 47.5"/>
            </g>
            <polygon class="cls-6" points="70.72 55.92 60.33 52.14 60.33 61.45 70.72 65.23 70.72 55.92"/>
            <line class="cls-10" x1="84.55" y1="61.04" x2="84.55" y2="70.35"/>
          </g>
          <g>
            <polygon class="cls-8" points="47.58 47.5 47.58 38.19 103.41 44.93 103.41 54.25 84.76 61.04 47.58 47.5"/>
            <polygon class="cls-7" points="47.58 38.19 66.23 31.4 103.41 44.93 84.76 51.72 47.58 38.19"/>
            <polygon class="cls-7" points="60.33 42.82 78.98 36.03 89.37 39.81 70.72 46.6 60.33 42.82"/>
            <g>
              <polyline class="cls-10" points="103.41 54.25 84.76 61.04 47.58 47.5"/>
              <polyline class="cls-10" points="103.41 51.92 84.76 58.7 47.58 45.17"/>
              <polyline class="cls-10" points="103.41 49.59 84.76 56.37 47.58 42.84"/>
              <polyline class="cls-10" points="103.41 47.25 84.76 54.04 47.58 40.51"/>
              <polyline class="cls-10" points="103.41 44.92 84.76 51.71 47.58 38.18"/>
            </g>
            <polygon class="cls-6" points="70.72 46.6 60.33 42.82 60.33 52.14 70.72 55.92 70.72 46.6"/>
            <line class="cls-10" x1="84.55" y1="51.72" x2="84.55" y2="61.04"/>
          </g>
          <g>
            <polygon class="cls-8" points="47.58 38.19 47.58 28.87 103.41 35.61 103.41 44.93 84.76 51.72 47.58 38.19"/>
            <polygon class="cls-7" points="47.58 28.87 66.23 22.08 103.41 35.61 84.76 42.4 47.58 28.87"/>
            <polygon class="cls-6" points="60.33 33.5 78.98 26.71 89.37 30.5 70.72 37.28 60.33 33.5"/>
            <g>
              <polyline class="cls-10" points="103.41 44.93 84.76 51.72 47.58 38.19"/>
              <polyline class="cls-10" points="103.41 42.6 84.76 49.39 47.58 35.86"/>
              <polyline class="cls-10" points="103.41 40.27 84.76 47.06 47.58 33.53"/>
              <polyline class="cls-10" points="103.41 37.94 84.76 44.72 47.58 31.19"/>
              <polyline class="cls-10" points="103.41 35.61 84.76 42.39 47.58 28.86"/>
            </g>
            <polygon class="cls-6" points="70.72 37.28 60.33 33.5 60.33 42.82 70.72 46.6 70.72 37.28"/>
            <line class="cls-10" x1="84.55" y1="42.4" x2="84.55" y2="51.72"/>
          </g>
        </g>
        <g>
          <g>
            <polygon class="cls-8" points="18.26 73.19 18.26 63.87 74.08 70.62 74.08 79.93 55.43 86.72 18.26 73.19"/>
            <polygon class="cls-7" points="18.26 63.87 36.91 57.09 74.08 70.62 55.43 77.4 18.26 63.87"/>
            <polygon class="cls-7" points="31.01 68.5 49.65 61.72 60.04 65.5 41.39 72.29 31.01 68.5"/>
            <g>
              <polyline class="cls-10" points="74.08 79.93 55.43 86.72 18.26 73.19"/>
              <polyline class="cls-10" points="74.08 77.6 55.43 84.39 18.26 70.86"/>
              <polyline class="cls-10" points="74.08 75.27 55.43 82.06 18.26 68.53"/>
              <polyline class="cls-10" points="74.08 72.94 55.43 79.73 18.26 66.2"/>
              <polyline class="cls-10" points="74.08 70.61 55.43 77.4 18.26 63.86"/>
            </g>
            <polygon class="cls-6" points="41.39 72.29 31.01 68.5 31.01 77.82 41.39 81.6 41.39 72.29"/>
            <line class="cls-10" x1="55.23" y1="77.4" x2="55.23" y2="86.72"/>
          </g>
          <g>
            <polygon class="cls-8" points="18.26 63.87 18.26 54.56 74.08 61.3 74.08 70.62 55.43 77.4 18.26 63.87"/>
            <polygon class="cls-7" points="18.26 54.56 36.91 47.77 74.08 61.3 55.43 68.09 18.26 54.56"/>
            <polygon class="cls-6" points="31.01 59.19 49.65 52.4 60.04 56.18 41.39 62.97 31.01 59.19"/>
            <g>
              <polyline class="cls-10" points="74.08 70.62 55.43 77.4 18.26 63.87"/>
              <polyline class="cls-10" points="74.08 68.29 55.43 75.07 18.26 61.54"/>
              <polyline class="cls-10" points="74.08 65.95 55.43 72.74 18.26 59.21"/>
              <polyline class="cls-10" points="74.08 63.62 55.43 70.41 18.26 56.88"/>
              <polyline class="cls-10" points="74.08 61.29 55.43 68.08 18.26 54.55"/>
            </g>
            <polygon class="cls-6" points="41.39 62.97 31.01 59.19 31.01 68.5 41.39 72.29 41.39 62.97"/>
            <line class="cls-10" x1="55.23" y1="68.09" x2="55.23" y2="77.4"/>
          </g>
        </g>
        <g>
          <path class="cls-1" d="m96.12,62.09l.2,17.57c0,1.74,2.85,3.14,8.03,3.13s8.01-1.44,8.01-3.18l-.2-17.57-16.03.06Z"/>
          <g>
            <path class="cls-12" d="m112.36,79.6c0,1.74-2.82,3.17-8.01,3.18s-8.02-1.38-8.03-3.13"/>
            <path class="cls-12" d="m112.32,76.67c0,1.74-2.82,3.17-8.01,3.18s-8.02-1.38-8.03-3.13"/>
            <path class="cls-12" d="m112.29,73.74c0,1.74-2.82,3.17-8.01,3.18s-8.02-1.38-8.03-3.13"/>
            <path class="cls-12" d="m112.26,70.82c0,1.74-2.82,3.17-8.01,3.18s-8.02-1.38-8.03-3.13"/>
            <path class="cls-12" d="m112.22,67.89c0,1.74-2.82,3.17-8.01,3.18s-8.02-1.38-8.03-3.13"/>
            <path class="cls-12" d="m112.19,64.96c0,1.74-2.82,3.17-8.01,3.18s-8.02-1.38-8.03-3.13"/>
            <path class="cls-12" d="m112.15,62.03c0,1.74-2.82,3.17-8.01,3.18s-8.02-1.38-8.03-3.13"/>
          </g>
          <ellipse class="cls-1" cx="104.14" cy="62.06" rx="8.02" ry="3.15"/>
          <line class="cls-11" x1="109.45" y1="65.22" x2="109.45" y2="81.21"/>
          <line class="cls-14" x1="106.37" y1="65.9" x2="106.37" y2="81.21"/>
        </g>
        <g>
          <path class="cls-1" d="m33.28,72.26l.2,17.57c0,1.74,2.85,3.14,8.03,3.13s8.01-1.44,8.01-3.18l-.2-17.57-16.03.06Z"/>
          <g>
            <path class="cls-12" d="m49.51,89.96c0,1.74-2.82,3.17-8.01,3.18s-8.02-1.38-8.03-3.13"/>
            <path class="cls-12" d="m49.48,87c0,1.74-2.82,3.17-8.01,3.18s-8.02-1.38-8.03-3.13"/>
            <path class="cls-12" d="m49.45,84.04c0,1.74-2.82,3.17-8.01,3.18s-8.02-1.38-8.03-3.13"/>
            <path class="cls-12" d="m49.41,81.08c0,1.74-2.82,3.17-8.01,3.18s-8.02-1.38-8.03-3.13"/>
            <path class="cls-12" d="m49.38,78.12c0,1.74-2.82,3.17-8.01,3.18s-8.02-1.38-8.03-3.13"/>
            <path class="cls-12" d="m49.35,75.16c0,1.74-2.82,3.17-8.01,3.18s-8.02-1.38-8.03-3.13"/>
            <path class="cls-12" d="m49.31,72.21c0,1.74-2.82,3.17-8.01,3.18s-8.02-1.38-8.03-3.13"/>
          </g>
          <ellipse class="cls-1" cx="41.29" cy="72.23" rx="8.02" ry="3.15"/>
          <line class="cls-11" x1="46.61" y1="75.39" x2="46.61" y2="91.38"/>
          <line class="cls-14" x1="43.53" y1="76.07" x2="43.53" y2="91.38"/>
        </g>
        <g>
          <path class="cls-7" d="m71.4,97.74l-3.65-10.24c-.12-.34-.38-.67-.74-.8l-9.63-3.51c-.86-.31-2.26-.31-3.12,0l-29.68,10.8c-.36.13-.62.49-.76.89l-3.68,10.67c-.2.56.08,1.06.58,1.24l12.98,4.72c.86.31,2.26.31,3.12,0l23.06-8.39,10.95-3.99c.61-.22.79-.73.56-1.39Z"/>
          <path class="cls-4" d="m25.03,95.29"/>
          <path class="cls-4" d="m25.03,95.29l9.19,3.34c.86.31,2.26.31,3.12,0l29.09-10.59"/>
          <line class="cls-9" x1="35.3" y1="110.5" x2="35.71" y2="100.14"/>
        </g>
        <g>
          <g>
            <path class="cls-5" d="m5.24,70.35c0,2.01,1.03,3.76,2.59,4.77.7.45,1.11,1.24,1.08,2.08,0,.12,0,.24,0,.36.1,1.9,1.41,3.62,3.25,4.12,3.03.82,5.76-1.43,5.78-4.33,0-.83.42-1.64,1.14-2.05,1.71-.98,2.87-2.82,2.87-4.95,0-1.37-.48-2.62-1.28-3.6-.66-.81-.94-1.86-.77-2.88.04-.24.06-.48.06-.73,0-1.55-.79-2.91-1.98-3.72-.54-.37-.86-.94-.95-1.58-.23-1.74-1.73-3.05-3.51-3.05s-3.3,1.34-3.52,3.09c-.08.66-.4,1.24-.94,1.63-1.12.82-1.85,2.14-1.85,3.64,0,.24.02.48.06.72.17,1.05-.09,2.08-.76,2.9-.8.98-1.28,2.23-1.28,3.6Z"/>
            <line class="cls-13" x1="13.6" y1="88" x2="13.6" y2="61.61"/>
          </g>
          <line class="cls-13" x1="13.6" y1="70.64" x2="17.03" y2="66.29"/>
          <line class="cls-13" x1="13.6" y1="74.99" x2="10.24" y2="71.42"/>
        </g>
        <g>
          <path class="cls-5" d="m140.02,58.05c-.08-.62.06-1.23.38-1.76.4-.66.64-1.43.64-2.26,0-1.93-1.27-3.56-3.02-4.12-.52-.17-.89-.59-1.02-1.12-.38-1.51-1.77-2.7-3.48-2.7s-3.09,1.13-3.48,2.72c-.13.53-.5.95-1.02,1.11-1.75.56-3.02,2.18-3.02,4.12,0,.83.23,1.6.64,2.26.32.52.46,1.14.39,1.75-.02.13-.02.27-.02.42,0,2.21,1.79,4.01,4.01,4.01.33,0,.66-.04.96-.12,1.02-.26,2.09-.26,3.11,0,.31.08.63.12.97.12,2.21,0,4.01-1.79,4.01-4.01,0-.09,0-.22-.02-.41Z"/>
          <line class="cls-13" x1="133.43" y1="67.49" x2="133.43" y2="50.45"/>
          <line class="cls-13" x1="133.43" y1="57.22" x2="129.75" y2="53.77"/>
          <line class="cls-13" x1="133.43" y1="59.22" x2="137.17" y2="56.92"/>
        </g>
        <g>
          <path class="cls-5" d="m117.57,64.97c.72-.8,1.11-1.84,1.11-2.92,0,0,0,0,0,0,0-1.99,1.61-3.6,3.6-3.6s3.6,1.61,3.6,3.6c0,1.08.4,2.11,1.11,2.92.99,1.11,1.59,2.56,1.59,4.16,0,3.48-2.82,6.31-6.31,6.31s-6.31-2.82-6.31-6.31c0-1.6.6-3.05,1.59-4.16Z"/>
          <polyline class="cls-13" points="122.29 78.93 122.29 71.18 124.39 65.36"/>
          <line class="cls-13" x1="122.29" y1="71.18" x2="119.34" y2="67.44"/>
        </g>
        <g>
          <line class="cls-13" x1="72.69" y1="93.81" x2="76.3" y2="94.28"/>
          <line class="cls-13" x1="73.54" y1="89.83" x2="76.91" y2="89.3"/>
          <line class="cls-13" x1="70.72" y1="86.42" x2="73.52" y2="84.42"/>
          <line class="cls-13" x1="16.54" y1="105.35" x2="12.73" y2="105.35"/>
          <line class="cls-13" x1="17.93" y1="108.7" x2="13.43" y2="110.5"/>
          <line class="cls-13" x1="21.65" y1="110.5" x2="19.09" y2="112.81"/>
        </g>
        <g>
          <path class="cls-5" d="m24.9,77.73c-.72-.8-1.11-1.84-1.11-2.92,0,0,0,0,0,0,0-1.99-1.61-3.6-3.6-3.6s-3.6,1.61-3.6,3.6c0,1.08-.4,2.11-1.11,2.92-.99,1.11-1.59,2.56-1.59,4.16,0,3.48,2.82,6.31,6.31,6.31s6.31-2.82,6.31-6.31c0-1.6-.6-3.05-1.59-4.16Z"/>
          <polyline class="cls-13" points="20.18 91.69 20.18 83.93 18.08 78.11"/>
          <line class="cls-13" x1="20.18" y1="83.93" x2="23.13" y2="80.2"/>
        </g>
        <g>
          <path class="cls-5" d="m14.31,88.4c-.08-.62.06-1.23.38-1.76.4-.66.64-1.43.64-2.26,0-1.93-1.27-3.56-3.02-4.12-.52-.17-.89-.59-1.02-1.12-.38-1.51-1.77-2.7-3.48-2.7s-3.09,1.13-3.48,2.72c-.13.53-.5.95-1.02,1.11-1.75.56-3.02,2.18-3.02,4.12,0,.83.23,1.6.64,2.26.32.52.46,1.14.39,1.75-.02.13-.02.27-.02.42,0,2.21,1.79,4.01,4.01,4.01.33,0,.66-.04.96-.12,1.02-.26,2.09-.26,3.11,0,.31.08.63.12.97.12,2.21,0,4.01-1.79,4.01-4.01,0-.09,0-.22-.02-.41Z"/>
          <line class="cls-13" x1="7.72" y1="97.84" x2="7.72" y2="80.8"/>
          <line class="cls-13" x1="7.72" y1="87.57" x2="4.04" y2="84.13"/>
          <line class="cls-13" x1="7.72" y1="89.58" x2="11.46" y2="87.27"/>
        </g>
      </g>
    </symbol>
  </defs>
  <use width="145.21" height="129.01" xlink:href="#Neues_Symbol_4"/>
</svg>