<?xml version="1.0" encoding="UTF-8"?>
<svg id="DEFIBRILLATOR" xmlns="http://www.w3.org/2000/svg" xmlns:xlink="http://www.w3.org/1999/xlink" viewBox="0 0 63.24 57.85">
  <defs>
    <style>
      .cls-1, .cls-2, .cls-3, .cls-4, .cls-5, .cls-6, .cls-7, .cls-8, .cls-9 {
        stroke: #1e3791;
        stroke-width: .57px;
      }

      .cls-1, .cls-2, .cls-3, .cls-4, .cls-9 {
        stroke-miterlimit: 10;
      }

      .cls-1, .cls-7 {
        fill: #fff;
      }

      .cls-2, .cls-5 {
        fill: #b6e6fa;
      }

      .cls-3 {
        fill: #e1e1e1;
      }

      .cls-4 {
        fill: #1e3791;
      }

      .cls-5, .cls-6, .cls-7, .cls-8 {
        stroke-linejoin: round;
      }

      .cls-6 {
        fill: #e60032;
      }

      .cls-8, .cls-9 {
        fill: none;
        stroke-linecap: round;
      }
    </style>
    <symbol id="Neues_Symbol_8" data-name="Neues Symbol 8" viewBox="0 0 63.24 57.85">
      <g>
        <path class="cls-4" d="m16.7,17.88c-3.04,0-5.85,1.63-7.37,4.26l-7.84,13.64c-1.51,2.63-1.51,5.86,0,8.49l5.22,9.04c1.52,2.63,4.33,4.25,7.36,4.25h30.33c2.26,0,4.42-.9,6.01-2.49l10.04-10.04c1.59-1.59,2.49-3.76,2.49-6.01v-13.49c0-4.7-3.81-7.65-8.5-7.65H16.7Z"/>
        <polygon class="cls-4" points=".28 28.72 .28 40.06 18.56 30.71 .28 28.72"/>
        <path class="cls-2" d="m16.7,6.55c-3.04,0-5.85,1.63-7.37,4.26L1.48,24.45c-1.51,2.63-1.51,5.86,0,8.49l5.22,9.04c1.52,2.63,4.33,4.25,7.36,4.25h30.33c2.26,0,4.42-.9,6.01-2.49l10.04-10.04c1.59-1.59,2.49-3.76,2.49-6.01v-15.47c0-3.13-2.54-5.67-5.67-5.67H16.7Z"/>
        <g>
          <g>
            <path class="cls-1" d="m36.28,6.15l-1.15-3.02c-.1-.27-.37-.45-.66-.45h-11.12c-.29,0-.56.18-.66.45l-1.15,3.02-2.23-.85,1.15-3.02c.45-1.19,1.62-1.99,2.89-1.99h11.12c1.28,0,2.44.8,2.89,1.99l1.15,3.02-2.23.85Z"/>
            <rect class="cls-3" x="17.06" y="28.2" width="23.69" height="2.21"/>
            <g>
              <path class="cls-1" d="m18.23,4.06h21.36c1.62,0,2.93,1.31,2.93,2.93v21.21H15.29V7c0-1.62,1.31-2.93,2.93-2.93Z"/>
              <rect class="cls-5" x="17.61" y="6.84" width="17.34" height="10.71"/>
              <path class="cls-6" d="m26.28,9.67s.64-.84,1.81-.84c1.07,0,1.81.92,1.81,2.02,0,1.51-1.47,2.51-3.61,4.42-2.14-1.91-3.61-2.91-3.61-4.42,0-1.09.74-2.02,1.81-2.02,1.16,0,1.81.84,1.81.84Z"/>
              <circle class="cls-1" cx="38.23" cy="20.19" r="2.24"/>
              <line class="cls-9" x1="37.04" y1="18.3" x2="37.81" y2="19.53"/>
              <circle class="cls-3" cx="18.48" cy="20.6" r="1.03"/>
              <circle class="cls-3" cx="22.35" cy="20.6" r="1.03"/>
              <circle class="cls-3" cx="26.22" cy="20.6" r="1.03"/>
            </g>
          </g>
          <g>
            <path class="cls-3" d="m46.63,20.48c-.07,0-.13,0-.2-.02-.65-.11-1.08-.73-.97-1.37l.91-5.27c.2-1.18,1.23-2.04,2.43-2.04h2.85c.66,0,1.19.53,1.19,1.19s-.53,1.19-1.19,1.19h-2.42c-.29,0-.54.21-.59.49l-.84,4.85c-.1.58-.6.98-1.17.99Z"/>
            <rect class="cls-3" x="50.05" y="9.74" width="7.22" height="13.45" rx="2.05" ry="2.05"/>
            <rect class="cls-1" x="51.59" y="9.74" width="7.22" height="13.45" rx="2.05" ry="2.05"/>
          </g>
          <g>
            <path class="cls-3" d="m37.07,33.29c-.07,0-.13,0-.2-.02-.65-.11-1.08-.73-.97-1.37l.91-5.27c.2-1.18,1.23-2.04,2.43-2.04h2.85c.66,0,1.19.53,1.19,1.19s-.53,1.19-1.19,1.19h-2.42c-.29,0-.54.21-.59.49l-.84,4.85c-.1.58-.6.98-1.17.99Z"/>
            <rect class="cls-3" x="40.48" y="22.84" width="7.22" height="13.45" rx="2.05" ry="2.05"/>
            <rect class="cls-1" x="42.03" y="22.84" width="7.22" height="13.45" rx="2.05" ry="2.05"/>
          </g>
          <polygon class="cls-7" points="53.07 26.02 50.63 26.02 53.8 19.52 46.94 26.74 49.4 26.74 45.92 33.47 53.07 26.02"/>
          <path class="cls-8" d="m17.06,29.56h-8.53c-.9,0-1.62.73-1.62,1.62h0c0,.9.73,1.62,1.62,1.62h1.87"/>
          <path class="cls-8" d="m40.48,34.35h-5.1c-.73,0-1.45-.17-2.1-.5l-1.1-.56c-.65-.33-1.37-.5-2.1-.5h-1.04"/>
          <g>
            <line class="cls-8" x1="11.09" y1="31.8" x2="10.62" y2="32.78"/>
            <line class="cls-8" x1="12.5" y1="31.8" x2="11.55" y2="33.82"/>
            <line class="cls-8" x1="13.92" y1="31.8" x2="12.97" y2="33.82"/>
            <line class="cls-8" x1="15.33" y1="31.8" x2="14.39" y2="33.82"/>
            <line class="cls-8" x1="16.75" y1="31.8" x2="15.8" y2="33.82"/>
            <line class="cls-8" x1="18.17" y1="31.8" x2="17.22" y2="33.82"/>
            <line class="cls-8" x1="19.58" y1="31.8" x2="18.64" y2="33.82"/>
            <line class="cls-8" x1="21" y1="31.8" x2="20.05" y2="33.82"/>
            <line class="cls-8" x1="22.42" y1="31.8" x2="21.47" y2="33.82"/>
            <line class="cls-8" x1="23.83" y1="31.8" x2="22.88" y2="33.82"/>
            <line class="cls-8" x1="25.25" y1="31.8" x2="24.3" y2="33.82"/>
            <line class="cls-8" x1="26.67" y1="31.8" x2="25.72" y2="33.82"/>
            <line class="cls-8" x1="28.08" y1="31.8" x2="27.13" y2="33.82"/>
            <line class="cls-8" x1="29.02" y1="32.78" x2="28.55" y2="33.82"/>
          </g>
        </g>
      </g>
    </symbol>
  </defs>
  <use width="63.24" height="57.85" xlink:href="#Neues_Symbol_8"/>
</svg>