<svg width="301" height="243" viewBox="0 0 301 243" fill="none" xmlns="http://www.w3.org/2000/svg">
<mask id="mask0_110_9240" style="mask-type:luminance" maskUnits="userSpaceOnUse" x="0" y="0" width="301" height="243">
<path d="M301 0.419922H0V242.709H301V0.419922Z" fill="white"/>
</mask>
<g mask="url(#mask0_110_9240)">
<path d="M300.373 141.521V86.2779C300.373 76.3379 292.315 68.3009 282.396 68.3009H187.329C182.063 68.3009 176.902 66.9269 172.334 64.2829L123.944 36.3439C119.397 33.7219 114.215 32.3259 108.949 32.3259L18.5982 70.6279C8.65791 70.6279 0.621094 80.6739 0.621094 90.6139V161.888C0.621094 166.668 2.52455 171.236 5.88732 174.599L26.1697 194.881C29.5325 198.244 34.1219 200.148 38.8806 200.148H114.342C120.772 200.148 126.715 203.574 129.908 209.136L143.761 233.12C146.976 238.682 152.919 242.108 159.327 242.108H282.417C292.358 242.108 300.394 234.05 300.394 224.131V141.521H300.373Z" fill="#20378B" stroke="#20378B" stroke-width="1.20552" stroke-miterlimit="10"/>
<path d="M300.371 117.529V62.286C300.371 52.346 292.313 44.309 282.394 44.309H187.327C182.061 44.309 176.9 42.934 172.332 40.291L123.942 12.352C119.395 9.72999 114.213 8.33398 108.947 8.33398H45.5615C39.1321 8.33398 33.1891 11.76 29.9955 17.322L4.61607 61.229C1.99352 65.776 0.597656 70.958 0.597656 76.224V137.917C0.597656 142.697 2.50111 147.265 5.86389 150.628L26.1463 170.91C29.5091 174.273 34.0985 176.176 38.8571 176.176H114.319C120.748 176.176 126.691 179.603 129.885 185.165L143.738 209.149C146.952 214.711 152.895 218.137 159.304 218.137H282.394C292.334 218.137 300.371 210.079 300.371 200.16V117.55V117.529Z" fill="#BEE4F8" stroke="#20378B" stroke-width="1.20552" stroke-miterlimit="10"/>
<path d="M157.949 48.8588C157.759 47.3148 158.097 45.7709 158.901 44.4599C159.916 42.8099 160.487 40.8849 160.487 38.8129C160.487 33.9909 157.315 29.9299 152.958 28.5339C151.647 28.1109 150.737 27.0538 150.399 25.7208C149.447 21.9568 146 18.9749 141.707 18.9749C137.413 18.9749 133.987 21.8088 133.014 25.7418C132.697 27.0538 131.766 28.1109 130.476 28.5129C126.098 29.9089 122.926 33.9699 122.926 38.7919C122.926 40.8639 123.518 42.7889 124.512 44.4389C125.316 45.7499 125.654 47.2728 125.464 48.7948C125.421 49.1128 125.4 49.4719 125.4 49.8529C125.4 55.3729 129.884 59.8569 135.404 59.8569C136.229 59.8569 137.033 59.7509 137.815 59.5599C140.353 58.9049 143.018 58.9049 145.577 59.5599C146.338 59.7509 147.163 59.8569 147.988 59.8569C153.508 59.8569 157.992 55.3729 157.992 49.8529C157.992 49.6409 157.992 49.3028 157.928 48.8378L157.949 48.8588Z" fill="#BEE4F8" stroke="#20378B" stroke-width="1.20552" stroke-linejoin="round"/>
<path d="M141.516 68.6369V29.9119" stroke="#20378B" stroke-width="1.20552" stroke-miterlimit="10" stroke-linecap="round"/>
<path d="M141.515 46.796L132.336 38.209" stroke="#20378B" stroke-width="1.20552" stroke-miterlimit="10" stroke-linecap="round"/>
<path d="M141.516 51.7899L150.843 46.0369" stroke="#20378B" stroke-width="1.20552" stroke-miterlimit="10" stroke-linecap="round"/>
<path d="M151.073 59.561C152.596 57.869 153.421 55.669 153.421 53.385C153.421 49.176 156.826 45.771 161.034 45.771C165.243 45.771 168.648 49.176 168.648 53.385C168.648 55.669 169.494 57.848 170.996 59.561C173.09 61.908 174.359 64.975 174.359 68.359C174.359 75.719 168.394 81.704 161.013 81.704C153.632 81.704 147.668 75.74 147.668 68.359C147.668 64.975 148.937 61.908 151.031 59.561H151.073Z" fill="#BEE4F8" stroke="#20378B" stroke-width="1.20552" stroke-linejoin="round"/>
<path d="M161.035 89.0809V72.6899L165.477 60.3809" stroke="#20378B" stroke-width="1.20552" stroke-miterlimit="10" stroke-linecap="round"/>
<path d="M161.036 72.6969L154.797 64.7869" stroke="#20378B" stroke-width="1.20552" stroke-miterlimit="10" stroke-linecap="round"/>
<path d="M12.1641 47.8798C12.1641 52.4478 14.5117 56.4248 18.0436 58.7088C19.6298 59.7448 20.5604 61.5218 20.497 63.4248C20.497 63.6998 20.497 63.9748 20.497 64.2498C20.7296 68.5638 23.6906 72.4768 27.8782 73.5978C34.7518 75.4588 40.9486 70.3408 40.9909 63.7848C40.9909 61.9018 41.9426 60.0618 43.5923 59.1318C47.4626 56.9108 50.1063 52.7228 50.1063 47.9008C50.1063 44.7918 49.0277 41.9578 47.2088 39.7378C45.7284 37.8978 45.0939 35.5288 45.4746 33.2018C45.5592 32.6518 45.6015 32.1028 45.6015 31.5318C45.6015 27.9998 43.8037 24.9118 41.0966 23.0718C39.8699 22.2468 39.1297 20.9358 38.9394 19.4758C38.4106 15.5428 35.0055 12.5598 30.966 12.5598C26.9264 12.5598 23.4791 15.6058 22.9926 19.5608C22.8023 21.0628 22.0832 22.3738 20.8777 23.2618C18.3186 25.1228 16.6689 28.1258 16.6689 31.5318C16.6689 32.0808 16.7112 32.6308 16.7958 33.1598C17.1976 35.5288 16.5843 37.8758 15.0615 39.7378C13.2638 41.9578 12.1641 44.7918 12.1641 47.9008V47.8798Z" fill="#BEE4F8" stroke="#20378B" stroke-width="1.20552" stroke-linejoin="round"/>
<path d="M31.1328 82.5469V28.0449" stroke="#20378B" stroke-width="1.20552" stroke-miterlimit="10" stroke-linecap="round"/>
<path d="M31.1328 44.94L38.8947 35.084" stroke="#20378B" stroke-width="1.20552" stroke-miterlimit="10" stroke-linecap="round"/>
<path d="M31.1326 54.8198L24.7031 47.9038" stroke="#20378B" stroke-width="1.20552" stroke-miterlimit="10" stroke-linecap="round"/>
<path d="M123.943 38.9139C122.166 36.6929 121.553 33.8169 122.082 31.0249C122.23 30.2209 122.314 29.3749 122.314 28.5289C122.314 25.6319 121.384 22.9459 119.798 20.7679C118.211 18.5889 117.619 15.7759 118.317 13.1959C118.613 12.0959 118.719 10.8909 118.592 9.66388C118.127 5.22288 114.51 1.60587 110.09 1.11987C104.274 0.48487 99.3672 5.03188 99.3672 10.7219C99.3672 11.4829 99.4518 12.2229 99.621 12.9419C100.255 15.6279 99.9171 18.4829 98.2886 20.6829C96.6601 22.8829 95.7083 25.6109 95.7083 28.5509C95.7083 29.3969 95.7929 30.2429 95.941 31.0459C96.4909 33.8589 95.8352 36.7349 94.0587 38.9979C91.4784 42.2769 89.9345 46.4009 89.998 50.9059C90.1249 60.7819 98.0559 69.0729 107.933 69.6229C118.931 70.2359 128.025 61.5019 128.025 50.6309C128.025 46.1889 126.481 42.1499 123.922 38.9349L123.943 38.9139Z" fill="#BEE4F8" stroke="#20378B" stroke-width="1.20552" stroke-miterlimit="10" stroke-linecap="round"/>
<path d="M109.031 86.3109V10.1309" stroke="#20378B" stroke-width="1.20552" stroke-miterlimit="10" stroke-linecap="round"/>
<path d="M109.032 37.4749L100.445 28.8889" stroke="#20378B" stroke-width="1.20552" stroke-miterlimit="10" stroke-linecap="round"/>
<path d="M109.031 52.4389L118.654 42.7949" stroke="#20378B" stroke-width="1.20552" stroke-miterlimit="10" stroke-linecap="round"/>
<path d="M109.031 30.0489L115.397 23.6619" stroke="#20378B" stroke-width="1.20552" stroke-miterlimit="10" stroke-linecap="round"/>
<path d="M155.493 156.432H44.0352V48.865H87.9204L155.493 156.432Z" fill="#D1DBE0" stroke="#20378B" stroke-width="1.20552"/>
<path d="M164.922 125.701H126.219V141.077H164.922V125.701Z" fill="white" stroke="#20378B" stroke-width="1.20552"/>
<path d="M101.368 48.865H62.6641V64.241H101.368V48.865Z" fill="white" stroke="#20378B" stroke-width="1.20552"/>
<path d="M114.083 64.2478H75.3789V79.6238H114.083V64.2478Z" fill="white" stroke="#20378B" stroke-width="1.20552"/>
<path d="M126.79 79.5989H88.0859V94.9749H126.79V79.5989Z" fill="white" stroke="#20378B" stroke-width="1.20552"/>
<path d="M139.504 94.9668H100.801V110.342H139.504V94.9668Z" fill="white" stroke="#20378B" stroke-width="1.20552"/>
<path d="M152.208 110.334H113.504V125.71H152.208V110.334Z" fill="white" stroke="#20378B" stroke-width="1.20552"/>
<path d="M177.629 141.084H138.926V156.46H177.629V141.084Z" fill="white" stroke="#20378B" stroke-width="1.20552"/>
<path d="M44.0352 79.2478H66.5382" stroke="#20378B" stroke-width="1.20552" stroke-linecap="round" stroke-linejoin="round"/>
<path d="M50.2969 79.2528V72.6538" stroke="#20378B" stroke-width="1.20552" stroke-linecap="round" stroke-linejoin="round"/>
<path d="M58.3125 79.2168V86.3228" stroke="#20378B" stroke-width="1.20552" stroke-linecap="round" stroke-linejoin="round"/>
<path d="M94.1016 149.271H121.575" stroke="#20378B" stroke-width="1.20552" stroke-linecap="round" stroke-linejoin="round"/>
<path d="M104.801 149.266V142.646" stroke="#20378B" stroke-width="1.20552" stroke-linecap="round" stroke-linejoin="round"/>
<path d="M113.324 149.209V156.315" stroke="#20378B" stroke-width="1.20552" stroke-linecap="round" stroke-linejoin="round"/>
<path d="M28.1328 161.153V95.1248C28.1328 94.2998 28.8096 93.6228 29.6344 93.6228C30.4593 93.6228 31.136 94.2998 31.136 95.1248V161.153H28.1328Z" fill="white" stroke="#20378B" stroke-width="1.20552"/>
<path d="M72.6523 161.153V95.1248C72.6523 94.2998 73.3291 93.6228 74.154 93.6228C74.9788 93.6228 75.6556 94.2998 75.6556 95.1248V161.153H72.6523Z" fill="white" stroke="#20378B" stroke-width="1.20552"/>
<path d="M21.8127 99.3098H85.642C86.9955 99.3098 88.0953 100.41 88.0953 101.764V136.068C88.0953 137.422 86.9955 138.522 85.642 138.522H21.8127C20.4592 138.522 19.3594 137.422 19.3594 136.068V101.764C19.3594 100.41 20.4592 99.3098 21.8127 99.3098Z" fill="white" stroke="#20378B" stroke-width="1.20552"/>
<path d="M26.9531 106.592H33.9113V112.894H40.2139V119.197H46.5164V125.499H52.819V131.823H58.6351" fill="white"/>
<path d="M26.9531 106.592H33.9113V112.894H40.2139V119.197H46.5164V125.499H52.819V131.823H58.6351" stroke="#20378B" stroke-width="1.20552"/>
<path d="M63.8553 109.398L52.3711 106.31L55.4378 117.795L58.5891 114.643L75.0222 131.077L77.116 128.962L60.704 112.55L63.8553 109.398Z" fill="#E60032" stroke="#20378B" stroke-width="1.20552" stroke-linejoin="round"/>
<path d="M174.172 171.517L178.782 188.225L187.348 187.294L182.759 170.607L174.172 171.517Z" fill="#D1DBE0"/>
<path d="M174.172 171.517L178.782 188.225L187.348 187.294L182.759 170.607L174.172 171.517Z" stroke="#20378B" stroke-width="1.20552" stroke-linejoin="round"/>
<path d="M176.733 180.801L177.283 178.855C177.473 178.199 177.452 177.522 177.283 176.888L177.24 176.761C177.029 176.042 176.394 175.534 175.654 175.45C174.977 175.386 174.343 175.788 174.131 176.444C173.328 178.939 172.587 180.779 170.832 183.698" fill="white"/>
<path d="M176.733 180.801L177.283 178.855C177.473 178.199 177.452 177.522 177.283 176.888L177.24 176.761C177.029 176.042 176.394 175.534 175.654 175.45C174.977 175.386 174.343 175.788 174.131 176.444C173.328 178.939 172.587 180.779 170.832 183.698" stroke="#20378B" stroke-width="1.20552" stroke-linejoin="round"/>
<path d="M150.336 190.753C150.547 189.59 151.626 189.188 152.958 188.955C162.856 187.264 170.068 183.012 174.891 180.221C177.217 179.142 177.069 185.635 181.257 184.937C185.444 184.239 184.408 179.777 186.777 180.136C186.777 180.136 190.372 185.043 190.224 189.928L187.559 192.974L154.418 194.137L150.336 190.753Z" fill="#E60032" stroke="#20378B" stroke-width="1.20552" stroke-linejoin="round"/>
<path d="M172.039 180.318L175 183.385" stroke="#20378B" stroke-width="1.20552" stroke-linecap="round" stroke-linejoin="round"/>
<path d="M169.898 182.498L171.717 184.909" stroke="#20378B" stroke-width="1.20552" stroke-linecap="round" stroke-linejoin="round"/>
<path d="M167.621 183.701L169.059 186.049" stroke="#20378B" stroke-width="1.20552" stroke-linecap="round" stroke-linejoin="round"/>
<path d="M186.417 196.868H164.02C163.85 196.932 163.343 196.868 163.174 196.868C155.539 196.826 150.484 193.992 150.336 190.756C150.336 190.756 156.427 193.907 160.995 193.442C164.147 193.125 166.452 192.723 167.573 192.49C168.102 192.384 168.63 192.384 169.159 192.49L172.628 193.167C173.368 193.315 174.15 193.125 174.742 192.638L177.344 190.502C178.084 189.91 179.078 189.762 179.966 190.121L182.779 191.306C183.625 191.665 184.598 191.538 185.338 190.967L186.417 190.143C186.988 189.698 187.728 189.529 188.447 189.656L190.689 190.058L193.291 193.59C192.085 195.345 189.188 196.868 186.459 196.889L186.417 196.868Z" fill="white"/>
<path d="M186.417 196.868H164.02C163.85 196.932 163.343 196.868 163.174 196.868C155.539 196.826 150.484 193.992 150.336 190.756C150.336 190.756 156.427 193.907 160.995 193.442C164.147 193.125 166.452 192.723 167.573 192.49C168.102 192.384 168.63 192.384 169.159 192.49L172.628 193.167C173.368 193.315 174.15 193.125 174.742 192.638L177.344 190.502C178.084 189.91 179.078 189.762 179.966 190.121L182.779 191.306C183.625 191.665 184.598 191.538 185.338 190.967L186.417 190.143C186.988 189.698 187.728 189.529 188.447 189.656L190.689 190.058L193.291 193.59C192.085 195.345 189.188 196.868 186.459 196.889L186.417 196.868Z" stroke="#20378B" stroke-width="1.20552" stroke-linejoin="round"/>
<path d="M184.307 173.609L174.176 175.259L172.844 170.817L182.974 169.146L184.307 173.609Z" fill="#D1DBE0" stroke="#20378B" stroke-width="1.20552" stroke-linejoin="round"/>
<path d="M164.673 127.185C164.504 126.127 164.335 125.049 164.123 123.97C162.981 117.879 168.036 112.401 174.211 113.078L238.231 120.1L228.671 143.851L185.547 135.983" fill="white"/>
<path d="M164.673 127.185C164.504 126.127 164.335 125.049 164.123 123.97C162.981 117.879 168.036 112.401 174.211 113.078L238.231 120.1L228.671 143.851L185.547 135.983" stroke="#20378B" stroke-width="1.20552" stroke-linecap="round" stroke-linejoin="round"/>
<path d="M178.85 138.142C180.965 148.273 185.491 155.781 186.337 160.286C187.119 164.452 184.708 168.471 182.953 169.147L172.822 170.797C170.665 170.861 165.547 168.872 164.13 163.585C163.22 160.18 163.559 149.161 161.211 136.154" fill="#D1DBE0"/>
<path d="M178.85 138.142C180.965 148.273 185.491 155.781 186.337 160.286C187.119 164.452 184.708 168.471 182.953 169.147L172.822 170.797C170.665 170.861 165.547 168.872 164.13 163.585C163.22 160.18 163.559 149.161 161.211 136.154" stroke="#20378B" stroke-width="1.20552" stroke-linecap="round" stroke-linejoin="round"/>
<path d="M180.257 196.873H153.989C153.277 196.873 152.699 197.446 152.699 198.152C152.699 198.859 153.277 199.432 153.989 199.432H180.257C180.97 199.432 181.547 198.859 181.547 198.152C181.547 197.446 180.97 196.873 180.257 196.873Z" fill="#D1DBE0" stroke="#20378B" stroke-width="1.20552"/>
<path d="M251.758 211.177C275.13 211.177 294.078 192.23 294.078 168.857C294.078 145.484 275.13 126.537 251.758 126.537C228.385 126.537 209.438 145.484 209.438 168.857C209.438 192.23 228.385 211.177 251.758 211.177Z" fill="#D1DBE0" stroke="#20378B" stroke-width="1.20552"/>
<path d="M251.762 205.865C272.203 205.865 288.773 189.294 288.773 168.853C288.773 148.412 272.203 131.842 251.762 131.842C231.321 131.842 214.75 148.412 214.75 168.853C214.75 189.294 231.321 205.865 251.762 205.865Z" fill="white" stroke="#20378B" stroke-width="1.20552"/>
<path d="M184.046 211.175C188.18 211.175 191.532 207.823 191.532 203.688C191.532 199.553 188.18 196.201 184.046 196.201C179.911 196.201 176.559 199.553 176.559 203.688C176.559 207.823 179.911 211.175 184.046 211.175Z" fill="#D1DBE0" stroke="#20378B" stroke-width="1.20552"/>
<path d="M184.041 205.049C184.789 205.049 185.395 204.443 185.395 203.695C185.395 202.948 184.789 202.342 184.041 202.342C183.294 202.342 182.688 202.948 182.688 203.695C182.688 204.443 183.294 205.049 184.041 205.049Z" fill="#20378B" stroke="#20378B" stroke-width="1.20552"/>
<path d="M179.582 181.576V189.994C179.582 191.749 179.92 193.462 180.576 195.091L184.045 203.698" stroke="#20378B" stroke-width="1.20552" stroke-linecap="round"/>
<path d="M237.408 64.4429H227.023V69.3919H237.408V64.4429Z" fill="white" stroke="#20378B" stroke-width="1.20552" stroke-linecap="round" stroke-linejoin="round"/>
<path d="M165.254 171.901L172.339 187.699L180.672 185.5L173.587 169.701L165.254 171.901Z" fill="#D1DBE0"/>
<path d="M165.254 171.901L172.339 187.699L180.672 185.5L173.587 169.701L165.254 171.901Z" stroke="#20378B" stroke-width="1.20552" stroke-linejoin="round"/>
<path d="M169.162 180.828L169.733 178.883C169.924 178.248 169.924 177.55 169.733 176.916L169.691 176.789C169.48 176.07 168.845 175.562 168.105 175.477C167.428 175.393 166.794 175.816 166.582 176.45C165.757 178.946 165.017 180.786 163.262 183.705" fill="#E60032"/>
<path d="M169.162 180.828L169.733 178.883C169.924 178.248 169.924 177.55 169.733 176.916L169.691 176.789C169.48 176.07 168.845 175.562 168.105 175.477C167.428 175.393 166.794 175.816 166.582 176.45C165.757 178.946 165.017 180.786 163.262 183.705" stroke="#20378B" stroke-width="1.20552" stroke-linejoin="round"/>
<path d="M142.705 190.655C142.937 189.492 143.995 189.09 145.348 188.858C155.246 187.208 162.48 182.999 167.323 180.229C169.649 179.15 169.48 185.643 173.668 184.966C177.855 184.289 176.84 179.827 179.209 180.186C179.209 180.186 182.783 185.114 182.614 189.978L179.928 193.024L146.765 194.06L142.684 190.655H142.705Z" fill="#E60032" stroke="#20378B" stroke-width="1.20552" stroke-linejoin="round"/>
<path d="M164.469 180.326L167.409 183.414" stroke="#20378B" stroke-width="1.20552" stroke-linecap="round" stroke-linejoin="round"/>
<path d="M162.312 182.475L164.131 184.907" stroke="#20378B" stroke-width="1.20552" stroke-linecap="round" stroke-linejoin="round"/>
<path d="M160.023 183.678L161.462 186.025" stroke="#20378B" stroke-width="1.20552" stroke-linecap="round" stroke-linejoin="round"/>
<path d="M178.767 196.931L156.37 196.846C156.2 196.909 155.693 196.846 155.524 196.846C147.889 196.783 142.834 193.906 142.707 190.67C142.707 190.67 148.798 193.843 153.345 193.399C156.497 193.081 158.802 192.701 159.923 192.489C160.451 192.383 160.98 192.383 161.509 192.489L164.977 193.166C165.718 193.314 166.5 193.124 167.092 192.637L169.694 190.522C170.434 189.93 171.449 189.782 172.316 190.163L175.108 191.347C175.954 191.707 176.927 191.58 177.667 191.03L178.746 190.205C179.317 189.761 180.057 189.592 180.776 189.719L183.018 190.142L185.619 193.674C184.414 195.429 181.495 196.931 178.767 196.931Z" fill="white"/>
<path d="M178.767 196.931L156.37 196.846C156.2 196.909 155.693 196.846 155.524 196.846C147.889 196.783 142.834 193.906 142.707 190.67C142.707 190.67 148.798 193.843 153.345 193.399C156.497 193.081 158.802 192.701 159.923 192.489C160.451 192.383 160.98 192.383 161.509 192.489L164.977 193.166C165.718 193.314 166.5 193.124 167.092 192.637L169.694 190.522C170.434 189.93 171.449 189.782 172.316 190.163L175.108 191.347C175.954 191.707 176.927 191.58 177.667 191.03L178.746 190.205C179.317 189.761 180.057 189.592 180.776 189.719L183.018 190.142L185.619 193.674C184.414 195.429 181.495 196.931 178.767 196.931Z" stroke="#20378B" stroke-width="1.20552" stroke-linejoin="round"/>
<path d="M175.568 172.428L165.797 175.6L163.809 171.413L173.559 168.24L175.568 172.428Z" fill="white" stroke="#20378B" stroke-width="1.20552" stroke-linejoin="round"/>
<path d="M166.559 137.929C169.753 146.473 173.75 153.833 175.569 158.952C176.986 162.949 175.209 167.285 173.581 168.236L163.81 171.409C161.674 171.811 156.323 170.626 154.123 165.614C152.579 162.124 151.141 149.604 145.96 135.878C143.76 130.083 147.779 123.801 153.975 123.378L218.228 119.021L212.982 144.084L169.14 143.914" fill="white"/>
<path d="M166.559 137.929C169.753 146.473 173.75 153.833 175.569 158.952C176.986 162.949 175.209 167.285 173.581 168.236L163.81 171.409C161.674 171.811 156.323 170.626 154.123 165.614C152.579 162.124 151.141 149.604 145.96 135.878C143.76 130.083 147.779 123.801 153.975 123.378L218.228 119.021L212.982 144.084L169.14 143.914" stroke="#20378B" stroke-width="1.20552" stroke-linecap="round" stroke-linejoin="round"/>
<path d="M256.864 141.1C237.407 143.574 236.244 142.749 228.524 137.399C219.536 131.16 208.961 119.845 201.305 120.204C202.299 106.351 209.067 97.7638 211.858 90.2768C211.858 87.1048 211.816 85.7938 211.816 80.7388C211.816 75.3038 216.934 69.5088 222.623 68.5568C230.893 67.1818 233.917 65.4268 241.743 68.8108C261.581 77.4188 257.816 122.531 256.864 141.1Z" fill="white" stroke="#20378B" stroke-width="1.20552" stroke-linecap="round" stroke-linejoin="round"/>
<path d="M230.686 88.467V101.748H211.863V83.771" fill="white"/>
<path d="M230.686 88.467V101.748H211.863V83.771" stroke="#20378B" stroke-width="1.20552" stroke-linecap="round" stroke-linejoin="round"/>
<path d="M210.754 53.6159C210.627 54.5679 211.303 55.4559 212.255 55.5829L217.691 56.3019C218.642 56.4289 219.531 55.7529 219.658 54.8009C219.784 53.8489 219.108 52.9609 218.156 52.8339L212.72 52.1149C211.769 51.9879 210.88 52.6649 210.754 53.6159Z" fill="#D1DBE0" stroke="#20378B" stroke-width="1.20552" stroke-linecap="round"/>
<path d="M236.198 63.8199C232.137 69.4249 224.312 70.6939 218.707 66.6329C213.102 62.5719 211.833 54.747 215.894 49.142C219.955 43.538 227.78 42.2689 233.385 46.3299C238.989 50.3899 240.258 58.2159 236.198 63.8199Z" fill="#D1DBE0" stroke="#20378B" stroke-width="1.20552" stroke-linecap="round"/>
<path d="M236.035 50.9338C237.553 50.9338 238.784 49.7028 238.784 48.1848C238.784 46.6658 237.553 45.4348 236.035 45.4348C234.516 45.4348 233.285 46.6658 233.285 48.1848C233.285 49.7028 234.516 50.9338 236.035 50.9338Z" fill="#20378B" stroke="#20378B" stroke-width="1.20552" stroke-linejoin="round"/>
<path d="M223.552 56.4688C226.297 56.4688 228.522 54.2438 228.522 51.4988C228.522 48.7538 226.297 46.5288 223.552 46.5288C220.807 46.5288 218.582 48.7538 218.582 51.4988C218.582 54.2438 220.807 56.4688 223.552 56.4688Z" fill="#20378B" stroke="#20378B" stroke-width="1.20552" stroke-linejoin="round"/>
<path d="M237.87 55.5419C239.552 55.5419 240.915 54.1789 240.915 52.4969C240.915 50.8149 239.552 49.4509 237.87 49.4509C236.188 49.4509 234.824 50.8149 234.824 52.4969C234.824 54.1789 236.188 55.5419 237.87 55.5419Z" fill="#20378B" stroke="#20378B" stroke-width="1.20552" stroke-linejoin="round"/>
<path d="M232.606 48.3039C234.078 48.3039 235.271 47.1109 235.271 45.6389C235.271 44.1679 234.078 42.9749 232.606 42.9749C231.135 42.9749 229.941 44.1679 229.941 45.6389C229.941 47.1109 231.135 48.3039 232.606 48.3039Z" fill="#20378B" stroke="#20378B" stroke-width="1.20552" stroke-linejoin="round"/>
<path d="M223.809 52.2639C226.46 52.2639 228.61 50.1139 228.61 47.4629C228.61 44.8109 226.46 42.6619 223.809 42.6619C221.157 42.6619 219.008 44.8109 219.008 47.4629C219.008 50.1139 221.157 52.2639 223.809 52.2639Z" fill="#20378B" stroke="#20378B" stroke-width="1.20552" stroke-linejoin="round"/>
<path d="M230.68 60.8349C235.224 60.8349 238.907 57.1519 238.907 52.6079C238.907 48.0639 235.224 44.3809 230.68 44.3809C226.137 44.3809 222.453 48.0639 222.453 52.6079C222.453 57.1519 226.137 60.8349 230.68 60.8349Z" fill="#20378B" stroke="#20378B" stroke-width="1.20552" stroke-linejoin="round"/>
<path d="M227.631 44.519C229.313 44.519 230.677 43.155 230.677 41.473C230.677 39.791 229.313 38.428 227.631 38.428C225.949 38.428 224.586 39.791 224.586 41.473C224.586 43.155 225.949 44.519 227.631 44.519Z" fill="#20378B" stroke="#20378B" stroke-width="1.20552" stroke-linejoin="round"/>
<path d="M240.917 61.644C242.599 61.644 243.962 60.28 243.962 58.598C243.962 56.916 242.599 55.553 240.917 55.553C239.235 55.553 237.871 56.916 237.871 58.598C237.871 60.28 239.235 61.644 240.917 61.644Z" fill="#20378B" stroke="#20378B" stroke-width="1.20552" stroke-linejoin="round"/>
<path d="M226.979 65.3549C228.661 65.3549 230.025 63.9909 230.025 62.3089C230.025 60.6269 228.661 59.2639 226.979 59.2639C225.297 59.2639 223.934 60.6269 223.934 62.3089C223.934 63.9909 225.297 65.3549 226.979 65.3549Z" fill="#20378B" stroke="#20378B" stroke-width="1.20552" stroke-linejoin="round"/>
<path d="M240.308 75.1299C242.224 75.1299 243.777 73.5769 243.777 71.6619C243.777 69.7459 242.224 68.1929 240.308 68.1929C238.393 68.1929 236.84 69.7459 236.84 71.6619C236.84 73.5769 238.393 75.1299 240.308 75.1299Z" fill="#20378B" stroke="#20378B" stroke-width="1.20552" stroke-linejoin="round"/>
<path d="M245.147 66.8769C247.249 66.8769 248.954 65.1729 248.954 63.0699C248.954 60.9679 247.249 59.2639 245.147 59.2639C243.044 59.2639 241.34 60.9679 241.34 63.0699C241.34 65.1729 243.044 66.8769 245.147 66.8769Z" fill="#20378B" stroke="#20378B" stroke-width="1.20552" stroke-linejoin="round"/>
<path d="M232.396 47.5239C234.323 47.5239 235.886 45.9619 235.886 44.0339C235.886 42.1069 234.323 40.5449 232.396 40.5449C230.469 40.5449 228.906 42.1069 228.906 44.0339C228.906 45.9619 230.469 47.5239 232.396 47.5239Z" fill="#20378B" stroke="#20378B" stroke-width="1.20552" stroke-linejoin="round"/>
<path d="M227.15 72.8829C229.696 72.8829 231.76 70.8189 231.76 68.2729C231.76 65.7259 229.696 63.6619 227.15 63.6619C224.603 63.6619 222.539 65.7259 222.539 68.2729C222.539 70.8189 224.603 72.8829 227.15 72.8829Z" fill="#20378B" stroke="#20378B" stroke-width="1.20552" stroke-linejoin="round"/>
<path d="M222.789 60.6228C223.931 62.3148 223.551 65.0008 222.81 66.6508C221.859 68.7868 228.627 67.3908 228.627 67.3908L227.844 62.3148L222.789 60.6228Z" fill="#20378B" stroke="#20378B" stroke-width="1.20552" stroke-linejoin="round"/>
<path d="M233.306 75.0398C235.631 75.0398 237.515 73.1558 237.515 70.8318C237.515 68.5068 235.631 66.6228 233.306 66.6228C230.982 66.6228 229.098 68.5068 229.098 70.8318C229.098 73.1558 230.982 75.0398 233.306 75.0398Z" fill="#20378B" stroke="#20378B" stroke-width="1.20552" stroke-linejoin="round"/>
<path d="M236.346 70.611C240.504 70.611 243.875 67.24 243.875 63.082C243.875 58.924 240.504 55.553 236.346 55.553C232.187 55.553 228.816 58.924 228.816 63.082C228.816 67.24 232.187 70.611 236.346 70.611Z" fill="#20378B" stroke="#20378B" stroke-width="1.20552" stroke-linejoin="round"/>
<path d="M244.725 72.0879C246.827 72.0879 248.532 70.3839 248.532 68.2809C248.532 66.1789 246.827 64.4749 244.725 64.4749C242.622 64.4749 240.918 66.1789 240.918 68.2809C240.918 70.3839 242.622 72.0879 244.725 72.0879Z" fill="#20378B" stroke="#20378B" stroke-width="1.20552" stroke-linejoin="round"/>
<path d="M220.297 55.9958C220.762 55.6368 221.333 55.4038 221.968 55.4038C223.448 55.4038 224.654 56.6098 224.654 58.0898C224.654 59.5708 223.448 60.7758 221.968 60.7758" fill="#D1DBE0"/>
<path d="M220.297 55.9958C220.762 55.6368 221.333 55.4038 221.968 55.4038C223.448 55.4038 224.654 56.6098 224.654 58.0898C224.654 59.5708 223.448 60.7758 221.968 60.7758" stroke="#20378B" stroke-width="1.20552" stroke-linecap="round"/>
<path d="M223.851 43.9278C223.851 43.9278 214.757 40.0368 210.104 39.9518C205.451 39.8678 202.892 44.4358 206.974 46.3608C211.648 48.5598 216.893 50.6328 230.006 52.7478" fill="#E60032"/>
<path d="M223.851 43.9278C223.851 43.9278 214.757 40.0368 210.104 39.9518C205.451 39.8678 202.892 44.4358 206.974 46.3608C211.648 48.5598 216.893 50.6328 230.006 52.7478" stroke="#20378B" stroke-width="1.20552" stroke-linejoin="round"/>
<path d="M236.372 40.016L231.36 38.261C225.734 36.294 219.474 39.53 217.38 45.494L217.084 46.361C216.809 47.123 217.148 47.948 217.824 48.286L218.565 48.645C225.1 51.712 232.227 53.891 240.031 55.117L241.173 55.286C241.892 55.392 242.59 54.927 242.802 54.187C245.678 43.929 237.493 40.418 236.372 40.038V40.016Z" fill="#E60032" stroke="#20378B" stroke-width="1.20552" stroke-linejoin="round"/>
<path d="M228.082 35.5848L228.124 31.8418" stroke="white" stroke-width="1.20552" stroke-linecap="round"/>
<path d="M219.962 37.1999L217.086 32.5679" stroke="white" stroke-width="1.20552" stroke-linecap="round"/>
<path d="M238.723 37.5728L242.276 31.8418" stroke="white" stroke-width="1.20552" stroke-linecap="round"/>
<path d="M245.527 40.7729L250.519 38.7639" stroke="white" stroke-width="1.20552" stroke-linecap="round"/>
<path d="M260.204 115.248H236.918V153.888H260.204V115.248Z" fill="#E60032" stroke="#20378B" stroke-width="1.20552"/>
<path d="M236.918 122.509V109.84C236.918 107.387 238.906 105.42 241.338 105.42H247.979" stroke="#20378B" stroke-width="1.20552" stroke-linecap="round"/>
<path d="M260.207 122.509V109.84C260.207 107.387 262.195 105.42 264.627 105.42H270.507" stroke="#20378B" stroke-width="1.20552" stroke-linecap="round"/>
<path d="M183.812 143.967H228.84C231.568 143.967 233.789 146.187 233.789 148.916V153.124H178.863V148.916C178.863 146.187 181.084 143.967 183.812 143.967Z" fill="#E60032" stroke="#20378B" stroke-width="1.20552"/>
<path d="M233.745 115.248H236.917V153.888H230.34V118.674C230.34 116.792 231.863 115.248 233.766 115.248H233.745Z" fill="#E60032" stroke="#20378B" stroke-width="1.20552"/>
<path d="M228.328 211.162C251.701 211.162 270.648 192.214 270.648 168.842C270.648 145.469 251.701 126.521 228.328 126.521C204.955 126.521 186.008 145.469 186.008 168.842C186.008 192.214 204.955 211.162 228.328 211.162Z" fill="#D1DBE0" stroke="#20378B" stroke-width="1.20552"/>
<path d="M228.332 205.865C248.773 205.865 265.344 189.294 265.344 168.853C265.344 148.412 248.773 131.842 228.332 131.842C207.891 131.842 191.32 148.412 191.32 168.853C191.32 189.294 207.891 205.865 228.332 205.865Z" fill="white" stroke="#20378B" stroke-width="1.20552"/>
<path d="M228.328 173.435C230.862 173.435 232.917 171.38 232.917 168.845C232.917 166.311 230.862 164.256 228.328 164.256C225.793 164.256 223.738 166.311 223.738 168.845C223.738 171.38 225.793 173.435 228.328 173.435Z" stroke="#20378B" stroke-width="1.20552"/>
<path d="M210.318 168.248L208.668 178.675C210.106 178.907 211.481 177.913 211.692 176.475L211.967 174.762L219.771 172.774L221.485 162.601L220.427 158.498" fill="#D1DBE0"/>
<path d="M210.318 168.248L208.668 178.675C210.106 178.907 211.481 177.913 211.692 176.475L211.967 174.762L219.771 172.774L221.485 162.601L220.427 158.498" stroke="#20378B" stroke-width="1.20552" stroke-miterlimit="10" stroke-linecap="round"/>
<path d="M213.023 171.83L218.374 183.716C218.692 184.393 219.474 184.71 220.172 184.393C220.849 184.075 221.166 183.293 220.849 182.595L215.498 170.709" fill="#D1DBE0"/>
<path d="M213.023 171.83L218.374 183.716C218.692 184.393 219.474 184.71 220.172 184.393C220.849 184.075 221.166 183.293 220.849 182.595L215.498 170.709" stroke="#20378B" stroke-width="1.20552" stroke-miterlimit="10" stroke-linecap="round"/>
<path d="M212.351 170.317L217.553 181.865C217.871 182.541 217.553 183.345 216.877 183.662C216.2 183.98 215.396 183.662 215.079 182.986L209.263 170.084C208.988 169.492 208.903 168.837 209.009 168.181C211.462 152.636 214.762 138.804 214.762 101.771H227.663C227.663 118.099 224.956 134.955 221.297 151.219L219.986 156.845L221.128 160.546C221.614 161.899 221.762 163.359 221.529 164.797L221.001 168.139C220.895 168.879 221.001 169.64 221.297 170.317L224.448 177.296C224.765 177.973 224.448 178.777 223.771 179.094C223.094 179.411 222.291 179.094 221.974 178.417L217.997 169.598" fill="#D1DBE0"/>
<path d="M212.351 170.317L217.553 181.865C217.871 182.541 217.553 183.345 216.877 183.662C216.2 183.98 215.396 183.662 215.079 182.986L209.263 170.084C208.988 169.492 208.903 168.837 209.009 168.181C211.462 152.636 214.762 138.804 214.762 101.771H227.663C227.663 118.099 224.956 134.955 221.297 151.219L219.986 156.845L221.128 160.546C221.614 161.899 221.762 163.359 221.529 164.797L221.001 168.139C220.895 168.879 221.001 169.64 221.297 170.317L224.448 177.296C224.765 177.973 224.448 178.777 223.771 179.094C223.094 179.411 222.291 179.094 221.974 178.417L217.997 169.598" stroke="#20378B" stroke-width="1.20552" stroke-linecap="round" stroke-linejoin="round"/>
<path d="M215.121 169.789L220.049 180.723C220.366 181.4 221.149 181.717 221.847 181.4C222.523 181.083 222.841 180.3 222.523 179.602L217.807 169.154" fill="#D1DBE0"/>
<path d="M215.121 169.789L220.049 180.723C220.366 181.4 221.149 181.717 221.847 181.4C222.523 181.083 222.841 180.3 222.523 179.602L217.807 169.154" stroke="#20378B" stroke-width="1.20552" stroke-miterlimit="10" stroke-linecap="round"/>
</g>
</svg>
