<svg width="326" height="283" viewBox="0 0 326 283" fill="none" xmlns="http://www.w3.org/2000/svg">
<mask id="path-1-outside-1_1098_11326" maskUnits="userSpaceOnUse" x="27.0212" y="30.3696" width="273" height="219" fill="black">
<rect fill="white" x="27.0212" y="30.3696" width="273" height="219"/>
<path fill-rule="evenodd" clip-rule="evenodd" d="M96.5164 62.0149L71.1413 57.9424C68.3929 57.5045 65.583 58.1747 63.3281 59.8059C61.0733 61.4371 59.5575 63.8961 59.1133 66.6435L39.1522 191.018C38.7143 193.767 39.3845 196.576 41.0157 198.831C42.6469 201.086 45.1059 202.602 47.8533 203.046L255.859 236.429C258.607 236.867 261.417 236.197 263.672 234.566C265.927 232.935 267.443 230.476 267.887 227.728L287.848 103.354C288.286 100.605 287.616 97.7954 285.985 95.5405C284.353 93.2856 281.894 91.7698 279.147 91.3256L252.342 87.0236L255.153 69.511C255.259 68.8475 255.098 68.1688 254.704 67.6244C254.31 67.0799 253.716 66.7142 253.052 66.6077C252.389 66.5012 251.71 66.6627 251.166 67.0565C250.621 67.4504 250.256 68.0445 250.149 68.708L247.339 86.2206L101.52 62.8179L104.331 45.305C104.437 44.6414 104.276 43.9628 103.882 43.4183C103.488 42.8738 102.894 42.5081 102.23 42.4017C101.567 42.2952 100.888 42.4566 100.344 42.8505C99.7993 43.2444 99.4336 43.8384 99.3271 44.5019L96.5164 62.0149Z"/>
</mask>
<path fill-rule="evenodd" clip-rule="evenodd" d="M96.5164 62.0149L71.1413 57.9424C68.3929 57.5045 65.583 58.1747 63.3281 59.8059C61.0733 61.4371 59.5575 63.8961 59.1133 66.6435L39.1522 191.018C38.7143 193.767 39.3845 196.576 41.0157 198.831C42.6469 201.086 45.1059 202.602 47.8533 203.046L255.859 236.429C258.607 236.867 261.417 236.197 263.672 234.566C265.927 232.935 267.443 230.476 267.887 227.728L287.848 103.354C288.286 100.605 287.616 97.7954 285.985 95.5405C284.353 93.2856 281.894 91.7698 279.147 91.3256L252.342 87.0236L255.153 69.511C255.259 68.8475 255.098 68.1688 254.704 67.6244C254.31 67.0799 253.716 66.7142 253.052 66.6077C252.389 66.5012 251.71 66.6627 251.166 67.0565C250.621 67.4504 250.256 68.0445 250.149 68.708L247.339 86.2206L101.52 62.8179L104.331 45.305C104.437 44.6414 104.276 43.9628 103.882 43.4183C103.488 42.8738 102.894 42.5081 102.23 42.4017C101.567 42.2952 100.888 42.4566 100.344 42.8505C99.7993 43.2444 99.4336 43.8384 99.3271 44.5019L96.5164 62.0149Z" fill="#BEE4F8"/>
<path d="M96.5164 62.0149L94.6148 73.8633L106.463 75.7648L108.365 63.9165L96.5164 62.0149ZM71.1413 57.9424L73.0428 46.094L73.0292 46.0918L71.1413 57.9424ZM63.3281 59.8059L56.2947 50.0832L56.2947 50.0832L63.3281 59.8059ZM59.1133 66.6435L47.2671 64.7283L47.2649 64.7419L59.1133 66.6435ZM39.1522 191.018L27.3038 189.117L27.3016 189.13L39.1522 191.018ZM41.0157 198.831L31.293 205.865L31.293 205.865L41.0157 198.831ZM47.8533 203.046L45.9381 214.892L45.9517 214.895L47.8533 203.046ZM255.859 236.429L253.958 248.278L253.971 248.28L255.859 236.429ZM263.672 234.566L270.706 244.289L270.706 244.289L263.672 234.566ZM267.887 227.728L279.733 229.643L279.735 229.63L267.887 227.728ZM287.848 103.354L299.697 105.255L299.699 105.242L287.848 103.354ZM285.985 95.5405L295.707 88.5071L295.707 88.507L285.985 95.5405ZM279.147 91.3256L281.062 79.4794L281.049 79.4773L279.147 91.3256ZM252.342 87.0236L240.494 85.1221L238.592 96.9704L250.441 98.872L252.342 87.0236ZM255.153 69.511L267.001 71.4126L267.001 71.4124L255.153 69.511ZM254.704 67.6244L244.981 74.6578L244.981 74.658L254.704 67.6244ZM253.052 66.6077L254.954 54.7593L254.954 54.7593L253.052 66.6077ZM250.149 68.708L238.301 66.8064L238.301 66.8064L250.149 68.708ZM247.339 86.2206L245.437 98.069L257.285 99.9706L259.187 88.1222L247.339 86.2206ZM101.52 62.8179L89.6716 60.9163L87.77 72.7647L99.6184 74.6663L101.52 62.8179ZM104.331 45.305L116.179 47.2065L116.179 47.2064L104.331 45.305ZM103.882 43.4183L94.1591 50.4517L94.1592 50.4518L103.882 43.4183ZM102.23 42.4017L104.132 30.5533L104.132 30.5533L102.23 42.4017ZM99.3271 44.5019L111.175 46.4035L111.175 46.4035L99.3271 44.5019ZM98.418 50.1665L73.0428 46.094L69.2397 69.7908L94.6148 73.8633L98.418 50.1665ZM73.0292 46.0918C67.1426 45.154 61.1243 46.5894 56.2947 50.0832L70.3616 69.5286C70.0417 69.76 69.6432 69.855 69.2533 69.7929L73.0292 46.0918ZM56.2947 50.0832C51.4651 53.577 48.2185 58.8439 47.2671 64.7283L70.9595 68.5587C70.8965 68.9484 70.6815 69.2972 70.3616 69.5286L56.2947 50.0832ZM47.2649 64.7419L27.3038 189.117L51.0005 192.92L70.9617 68.5451L47.2649 64.7419ZM27.3016 189.13C26.3638 195.017 27.7992 201.035 31.293 205.865L50.7384 191.798C50.9698 192.118 51.0648 192.516 51.0027 192.906L27.3016 189.13ZM31.293 205.865C34.7868 210.694 40.0537 213.941 45.9381 214.892L49.7685 191.2C50.1582 191.263 50.507 191.478 50.7384 191.798L31.293 205.865ZM45.9517 214.895L253.958 248.278L257.761 224.581L49.7549 191.198L45.9517 214.895ZM253.971 248.28C259.858 249.218 265.876 247.782 270.706 244.289L256.639 224.843C256.959 224.612 257.357 224.517 257.747 224.579L253.971 248.28ZM270.706 244.289C275.535 240.795 278.782 235.528 279.733 229.643L256.041 225.813C256.104 225.423 256.319 225.075 256.639 224.843L270.706 244.289ZM279.735 229.63L299.697 105.255L276 101.452L256.039 225.827L279.735 229.63ZM299.699 105.242C300.637 99.3549 299.201 93.3367 295.707 88.5071L276.262 102.574C276.031 102.254 275.936 101.856 275.998 101.466L299.699 105.242ZM295.707 88.507C292.214 83.6774 286.947 80.4308 281.062 79.4794L277.232 103.172C276.842 103.109 276.493 102.894 276.262 102.574L295.707 88.507ZM281.049 79.4773L254.244 75.1753L250.441 98.872L277.246 103.174L281.049 79.4773ZM264.19 88.9252L267.001 71.4126L243.304 67.6094L240.494 85.1221L264.19 88.9252ZM267.001 71.4124C267.612 67.6066 266.686 63.7139 264.426 60.5908L244.981 74.658C243.51 72.6237 242.907 70.0884 243.304 67.6097L267.001 71.4124ZM264.427 60.5909C262.167 57.4678 258.76 55.3701 254.954 54.7593L251.151 78.4561C248.672 78.0582 246.453 76.692 244.981 74.6578L264.427 60.5909ZM254.954 54.7593C251.148 54.1485 247.255 55.0746 244.132 57.3338L258.199 76.7793C256.165 78.2507 253.63 78.8539 251.151 78.4561L254.954 54.7593ZM244.132 57.3338C241.009 59.593 238.912 63.0004 238.301 66.8064L261.997 70.6096C261.6 73.0886 260.233 75.3078 258.199 76.7793L244.132 57.3338ZM238.301 66.8064L235.49 84.319L259.187 88.1222L261.998 70.6095L238.301 66.8064ZM249.24 74.3722L103.422 50.9695L99.6184 74.6663L245.437 98.069L249.24 74.3722ZM113.368 64.7195L116.179 47.2065L92.4823 43.4034L89.6716 60.9163L113.368 64.7195ZM116.179 47.2064C116.79 43.4005 115.864 39.5079 113.604 36.3848L94.1592 50.4518C92.6877 48.4177 92.0845 45.8824 92.4823 43.4035L116.179 47.2064ZM113.605 36.3849C111.345 33.2618 107.938 31.1641 104.132 30.5533L100.329 54.25C97.85 53.8522 95.6307 52.4859 94.1591 50.4517L113.605 36.3849ZM104.132 30.5533C100.326 29.9425 96.4335 30.8685 93.3103 33.1278L107.377 52.5732C105.343 54.0448 102.808 54.6479 100.329 54.25L104.132 30.5533ZM93.3103 33.1278C90.1871 35.3871 88.0895 38.7946 87.4787 42.6004L111.175 46.4035C110.778 48.8823 109.411 51.1016 107.377 52.5732L93.3103 33.1278ZM87.4787 42.6004L84.668 60.1133L108.365 63.9165L111.175 46.4035L87.4787 42.6004Z" fill="white" mask="url(#path-1-outside-1_1098_11326)"/>
<path d="M255.515 238.573L47.509 205.19C44.1932 204.654 41.2254 202.825 39.2567 200.103C37.288 197.382 36.4791 193.991 37.0076 190.674L56.9687 66.299C57.5048 62.9832 59.3342 60.0154 62.0556 58.0467C64.777 56.078 68.1682 55.2691 71.4853 55.7976L279.491 89.1809C282.807 89.7169 285.775 91.5463 287.743 94.2677C289.712 96.9892 290.521 100.38 289.992 103.697L270.031 228.072C269.495 231.388 267.666 234.356 264.944 236.324C262.223 238.293 258.832 239.102 255.515 238.573ZM71.1411 57.942C68.3927 57.5042 65.5829 58.1743 63.328 59.8055C61.0731 61.4368 59.5573 63.8958 59.1131 66.6431L39.152 191.018C38.7141 193.766 39.3843 196.576 41.0155 198.831C42.6467 201.086 45.1057 202.602 47.8531 203.046L255.859 236.429C258.607 236.867 261.417 236.197 263.672 234.565C265.927 232.934 267.443 230.475 267.887 227.728L287.848 103.353C288.286 100.605 287.616 97.795 285.985 95.5401C284.353 93.2852 281.894 91.7694 279.147 91.3253L71.1411 57.942Z" fill="#20378B"/>
<path d="M94.6588 89.5778C92.8916 89.2942 91.2482 88.4929 89.9365 87.2753C88.6247 86.0577 87.7034 84.4785 87.2892 82.7373C86.875 80.9961 86.9863 79.1712 87.6093 77.4933C88.2322 75.8154 89.3387 74.3599 90.7888 73.3109C92.2389 72.2619 93.9675 71.6664 95.7561 71.5998C97.5446 71.5333 99.3128 71.9985 100.837 72.9368C102.361 73.8751 103.573 75.2443 104.319 76.8712C105.065 78.4981 105.311 80.3097 105.028 82.0769C104.645 84.4453 103.338 86.5652 101.394 87.9714C99.4504 89.3776 97.0281 89.9553 94.6588 89.5778ZM97.1826 73.8523C95.8396 73.6368 94.4628 73.8243 93.2263 74.3912C91.9898 74.9582 90.9493 75.879 90.2362 77.0374C89.5231 78.1957 89.1695 79.5395 89.2201 80.8988C89.2707 82.258 89.7232 83.5718 90.5205 84.6739C91.3177 85.776 92.4239 86.6169 93.6991 87.0904C94.9743 87.5638 96.3612 87.6484 97.6845 87.3336C99.0078 87.0188 100.208 86.3186 101.133 85.3217C102.059 84.3247 102.668 83.0757 102.883 81.7327C103.17 79.932 102.731 78.0911 101.662 76.6137C100.594 75.1364 98.9826 74.1433 97.1826 73.8523Z" fill="#20378B"/>
<path d="M245.481 113.784C243.714 113.5 242.07 112.699 240.758 111.481C239.447 110.264 238.525 108.685 238.111 106.943C237.697 105.202 237.808 103.377 238.431 101.699C239.054 100.021 240.161 98.566 241.611 97.517C243.061 96.4679 244.79 95.8725 246.578 95.8059C248.367 95.7393 250.135 96.2046 251.659 97.1429C253.183 98.0812 254.395 99.4503 255.141 101.077C255.887 102.704 256.133 104.516 255.85 106.283C255.467 108.651 254.16 110.771 252.216 112.177C250.272 113.584 247.85 114.161 245.481 113.784ZM248.005 98.0584C246.662 97.8428 245.285 98.0304 244.048 98.5973C242.812 99.1642 241.771 100.085 241.058 101.243C240.345 102.402 239.992 103.746 240.042 105.105C240.093 106.464 240.545 107.778 241.343 108.88C242.14 109.982 243.246 110.823 244.521 111.296C245.796 111.77 247.183 111.854 248.507 111.54C249.83 111.225 251.03 110.525 251.955 109.528C252.881 108.531 253.49 107.282 253.705 105.939C253.992 104.138 253.553 102.297 252.484 100.82C251.416 99.3424 249.805 98.3493 248.005 98.0584Z" fill="#20378B"/>
<path d="M107.027 147.287L68.4277 141.092C66.8172 140.832 65.3757 139.943 64.4195 138.621C63.4633 137.299 63.0704 135.652 63.327 134.041L66.998 111.168C67.2585 109.557 68.1471 108.116 69.4689 107.159C70.7907 106.203 72.4378 105.81 74.0489 106.067L112.648 112.262C114.258 112.522 115.7 113.411 116.656 114.733C117.612 116.054 118.005 117.702 117.749 119.313L114.078 142.186C113.817 143.797 112.929 145.238 111.607 146.194C110.285 147.15 108.638 147.543 107.027 147.287Z" fill="white"/>
<path d="M181.366 159.217L142.767 153.023C141.156 152.762 139.715 151.874 138.758 150.552C137.802 149.23 137.409 147.583 137.666 145.972L141.337 123.098C141.597 121.488 142.486 120.046 143.808 119.09C145.13 118.134 146.777 117.741 148.388 117.998L186.987 124.192C188.597 124.453 190.039 125.341 190.995 126.663C191.951 127.985 192.344 129.632 192.087 131.243L188.416 154.117C188.156 155.727 187.267 157.169 185.946 158.125C184.624 159.081 182.977 159.474 181.366 159.217Z" fill="white"/>
<path d="M222.612 130.643C221.19 130.417 219.737 130.763 218.571 131.607C217.404 132.451 216.62 133.723 216.391 135.144L212.72 158.017C212.493 159.439 212.84 160.892 213.683 162.059C214.527 163.225 215.799 164.009 217.22 164.239L255.819 170.433C257.241 170.66 258.694 170.313 259.861 169.47C261.027 168.626 261.811 167.354 262.041 165.933L265.712 143.059C265.938 141.638 265.591 140.184 264.748 139.018C263.904 137.852 262.632 137.068 261.211 136.838L222.612 130.643Z" fill="white"/>
<path d="M100.042 193.091L61.4431 186.897C59.8326 186.636 58.3911 185.748 57.4349 184.426C56.4787 183.104 56.0858 181.457 56.3424 179.846L60.0134 156.972C60.2739 155.362 61.1624 153.92 62.4843 152.964C63.8061 152.008 65.4532 151.615 67.0643 151.872L105.663 158.066C107.274 158.327 108.715 159.215 109.671 160.537C110.628 161.859 111.021 163.506 110.764 165.117L107.093 187.991C106.833 189.601 105.944 191.043 104.622 191.999C103.3 192.955 101.653 193.348 100.042 193.091Z" fill="white"/>
<path d="M174.381 205.022L135.782 198.827C134.171 198.566 132.73 197.678 131.774 196.356C130.818 195.034 130.425 193.387 130.681 191.776L134.352 168.902C134.613 167.292 135.501 165.85 136.823 164.894C138.145 163.938 139.792 163.545 141.403 163.802L180.002 169.997C181.613 170.257 183.054 171.146 184.01 172.467C184.967 173.789 185.359 175.436 185.103 177.047L181.432 199.921C181.171 201.531 180.283 202.973 178.961 203.929C177.639 204.885 175.992 205.278 174.381 205.022Z" fill="white"/>
<path d="M248.72 216.953L210.121 210.758C208.51 210.498 207.069 209.609 206.112 208.287C205.156 206.965 204.763 205.318 205.02 203.707L208.691 180.834C208.951 179.223 209.84 177.782 211.162 176.825C212.484 175.869 214.131 175.476 215.742 175.733L254.341 181.928C255.951 182.188 257.393 183.077 258.349 184.399C259.305 185.72 259.698 187.368 259.441 188.979L255.77 211.852C255.51 213.463 254.621 214.904 253.3 215.86C251.978 216.817 250.331 217.209 248.72 216.953Z" fill="white"/>
<path d="M95.6913 83.1449C95.0282 83.0377 94.4346 82.6718 94.0409 82.1275C93.6472 81.5832 93.4854 80.905 93.591 80.2416L99.327 44.5018C99.4335 43.8383 99.7992 43.2442 100.344 42.8503C100.888 42.4565 101.567 42.295 102.23 42.4015C102.894 42.508 103.488 42.8737 103.882 43.4182C104.276 43.9627 104.437 44.6413 104.331 45.3048L98.5946 81.0447C98.4874 81.7078 98.1215 82.3013 97.5772 82.6951C97.0329 83.0888 96.3547 83.2506 95.6913 83.1449Z" fill="#20378B"/>
<path d="M246.513 107.351C245.85 107.244 245.257 106.878 244.863 106.334C244.469 105.789 244.307 105.111 244.413 104.448L250.149 68.7078C250.256 68.0443 250.621 67.4503 251.166 67.0564C251.71 66.6625 252.389 66.5011 253.052 66.6076C253.716 66.7141 254.31 67.0798 254.704 67.6242C255.098 68.1687 255.259 68.8474 255.153 69.5109L249.417 105.251C249.309 105.914 248.943 106.507 248.399 106.901C247.855 107.295 247.177 107.457 246.513 107.351Z" fill="#20378B"/>
<path d="M87.5905 135.714C86.5378 135.547 85.568 135.042 84.8273 134.276L84.7814 134.228L75.1371 124.054C74.2353 123.1 73.7492 121.828 73.7857 120.516C73.8221 119.204 74.3783 117.96 75.3317 117.058C76.2851 116.157 77.5577 115.67 78.8695 115.707C80.1813 115.743 81.425 116.3 82.3268 117.253L88.5714 123.857L108.922 104.604C109.394 104.158 109.949 103.809 110.556 103.577C111.163 103.345 111.809 103.235 112.459 103.253C113.108 103.271 113.747 103.417 114.34 103.682C114.933 103.947 115.468 104.327 115.914 104.798L115.916 104.8L115.788 104.928L115.919 104.8C116.819 105.754 117.304 107.026 117.267 108.337C117.23 109.649 116.675 110.892 115.723 111.794L91.7876 134.427C91.2342 134.949 90.5682 135.335 89.8413 135.558C89.1143 135.78 88.3459 135.832 87.5957 135.709L87.5905 135.714Z" fill="#E60032"/>
<path d="M156.846 193.021C155.794 192.854 154.824 192.349 154.083 191.583L154.037 191.535L144.393 181.361C143.491 180.407 143.005 179.135 143.042 177.823C143.078 176.511 143.634 175.267 144.588 174.366C145.541 173.464 146.814 172.978 148.125 173.014C149.437 173.051 150.681 173.607 151.583 174.56L157.827 181.164L178.178 161.911C178.65 161.465 179.205 161.116 179.812 160.884C180.419 160.652 181.065 160.542 181.714 160.56C182.364 160.578 183.003 160.724 183.596 160.989C184.189 161.254 184.724 161.634 185.17 162.106L185.172 162.107L185.044 162.235L185.174 162.107C186.075 163.061 186.559 164.333 186.523 165.645C186.486 166.956 185.931 168.199 184.979 169.101L161.043 191.735C160.49 192.256 159.824 192.643 159.097 192.865C158.37 193.087 157.602 193.139 156.852 193.016L156.846 193.021Z" fill="#E60032"/>
<path d="M236.268 159.576C235.216 159.409 234.246 158.904 233.505 158.137L233.459 158.09L223.815 147.915C222.913 146.962 222.427 145.689 222.463 144.378C222.5 143.066 223.056 141.822 224.009 140.92C224.963 140.018 226.235 139.532 227.547 139.569C228.859 139.605 230.103 140.161 231.005 141.115L237.249 147.718L257.6 128.466C258.072 128.019 258.627 127.67 259.234 127.439C259.841 127.207 260.487 127.097 261.136 127.115C261.786 127.133 262.425 127.279 263.018 127.544C263.611 127.809 264.146 128.188 264.592 128.66L264.593 128.662L264.466 128.79L264.596 128.662C265.496 129.616 265.981 130.888 265.945 132.199C265.908 133.51 265.353 134.753 264.4 135.655L240.465 158.289C239.912 158.81 239.246 159.197 238.519 159.419C237.792 159.642 237.024 159.694 236.273 159.571L236.268 159.576Z" fill="#E60032"/>
</svg>
