<svg width="21" height="20" viewBox="0 0 21 20" fill="none"
  xmlns="http://www.w3.org/2000/svg">
  <path d="M17.9569 9.7975C17.935 9.74813 17.4056 8.57375 16.2288 7.39687C14.6606 5.82875 12.68 5 10.5 5C8.32 5 6.33937 5.82875 4.77125 7.39687C3.59437 8.57375 3.06249 9.75 3.04312 9.7975C3.01469 9.86144 3 9.93064 3 10.0006C3 10.0706 3.01469 10.1398 3.04312 10.2037C3.06499 10.2531 3.59437 11.4269 4.77125 12.6038C6.33937 14.1713 8.32 15 10.5 15C12.68 15 14.6606 14.1713 16.2288 12.6038C17.4056 11.4269 17.935 10.2531 17.9569 10.2037C17.9853 10.1398 18 10.0706 18 10.0006C18 9.93064 17.9853 9.86144 17.9569 9.7975ZM10.5 14C8.57625 14 6.89562 13.3006 5.50437 11.9219C4.93352 11.3542 4.44786 10.7068 4.06249 10C4.44776 9.29309 4.93343 8.64574 5.50437 8.07812C6.89562 6.69938 8.57625 6 10.5 6C12.4238 6 14.1044 6.69938 15.4956 8.07812C16.0676 8.6456 16.5543 9.29295 16.9406 10C16.49 10.8413 14.5269 14 10.5 14ZM10.5 7C9.90666 7 9.32664 7.17595 8.83329 7.50559C8.33994 7.83524 7.95542 8.30377 7.72836 8.85195C7.5013 9.40013 7.44189 10.0033 7.55764 10.5853C7.6734 11.1672 7.95912 11.7018 8.37868 12.1213C8.79824 12.5409 9.33278 12.8266 9.91473 12.9424C10.4967 13.0581 11.0999 12.9987 11.6481 12.7716C12.1962 12.5446 12.6648 12.1601 12.9944 11.6667C13.3241 11.1734 13.5 10.5933 13.5 10C13.4992 9.2046 13.1828 8.44202 12.6204 7.87959C12.058 7.31716 11.2954 7.00083 10.5 7ZM10.5 12C10.1044 12 9.71776 11.8827 9.38886 11.6629C9.05996 11.4432 8.80361 11.1308 8.65224 10.7654C8.50086 10.3999 8.46126 9.99778 8.53843 9.60982C8.6156 9.22186 8.80608 8.86549 9.08578 8.58579C9.36549 8.30608 9.72186 8.1156 10.1098 8.03843C10.4978 7.96126 10.8999 8.00087 11.2654 8.15224C11.6308 8.30362 11.9432 8.55996 12.1629 8.88886C12.3827 9.21776 12.5 9.60444 12.5 10C12.5 10.5304 12.2893 11.0391 11.9142 11.4142C11.5391 11.7893 11.0304 12 10.5 12Z" fill="currentColor"/>
</svg>
