<svg width="48" height="49" viewBox="0 0 48 49" fill="none"
  xmlns="http://www.w3.org/2000/svg">
  <path d="M7.24585 17.8638H41.903V41.9091C41.903 42.9169 41.0867 43.7332 40.0789 43.7332H9.06991C8.06214 43.7332 7.24585 42.9169 7.24585 41.9091V17.8638Z" stroke="currentColor" stroke-width="0.57" stroke-linecap="round" stroke-linejoin="round"/>
  <path d="M9.20092 13.6211H39.9379C41.0162 13.6211 41.8929 14.4979 41.8929 15.5762V17.8638H7.24585V15.5762C7.24585 14.4979 8.12261 13.6211 9.20092 13.6211Z" stroke="currentColor" stroke-width="0.57" stroke-linecap="round" stroke-linejoin="round"/>
  <path d="M18.9359 27.8811H11.2063V40.1557H18.9359V27.8811Z" fill="#D1DBE0" stroke="currentColor" stroke-width="0.57"/>
  <path d="M18.9359 36.7495H11.2063V40.1558H18.9359V36.7495Z" fill="#BEE4F8" stroke="currentColor" stroke-width="0.57"/>
  <path d="M28.4088 23.5879H20.6792V40.1556H28.4088V23.5879Z" fill="#D1DBE0" stroke="currentColor" stroke-width="0.57"/>
  <path d="M28.4088 20.605H20.6792V23.588H28.4088V20.605Z" fill="white" stroke="currentColor" stroke-width="0.57"/>
  <path d="M28.4088 29.957H20.6792V40.1657H28.4088V29.957Z" fill="#BEE4F8" stroke="currentColor" stroke-width="0.57"/>
  <path d="M37.8919 28.1836H30.1624V40.166H37.8919V28.1836Z" fill="#D1DBE0" stroke="currentColor" stroke-width="0.57"/>
  <path d="M37.8919 25.8052H30.1624V28.1835H37.8919V25.8052Z" fill="white" stroke="currentColor" stroke-width="0.57"/>
  <path d="M37.8919 34.0588H30.1624V40.1659H37.8919V34.0588Z" fill="#BEE4F8" stroke="currentColor" stroke-width="0.57"/>
  <path d="M34.9394 12.351H27.1191V8.4409C27.1191 6.28428 28.8727 4.53076 31.0293 4.53076C33.1859 4.53076 34.9394 6.28428 34.9394 8.4409V12.351Z" stroke="currentColor" stroke-width="1.7" stroke-linecap="round" stroke-linejoin="round"/>
  <path d="M38.0836 9.94238H23.9749V22.0054H38.0836V9.94238Z" fill="currentColor" stroke="white" stroke-width="0.57" stroke-linecap="round" stroke-linejoin="round"/>
  <path d="M32.9439 14.8907C32.9439 13.8325 32.0873 12.9658 31.0191 12.9658C29.9508 12.9658 29.0942 13.8224 29.0942 14.8907C29.0942 15.6062 29.4873 16.2209 30.0617 16.5535V18.9721H31.9563V16.5535C32.5307 16.2209 32.9238 15.6062 32.9238 14.8907H32.9439Z" fill="white"/>
  <path d="M32.9439 14.8907C32.9439 13.8325 32.0873 12.9658 31.0191 12.9658C29.9508 12.9658 29.0942 13.8224 29.0942 14.8907C29.0942 15.6062 29.4873 16.2209 30.0617 16.5535V18.9721H31.9563V16.5535C32.5307 16.2209 32.9238 15.6062 32.9238 14.8907H32.9439Z" stroke="currentColor" stroke-width="0.57" stroke-linecap="round" stroke-linejoin="round"/>
</svg>
