<svg width="48" height="49" viewBox="0 0 48 49" fill="none"
  xmlns="http://www.w3.org/2000/svg">
  <path d="M37.5596 7.22241H14.5623C13.4548 7.22241 12.5569 8.12029 12.5569 9.22787V41.0633C12.5569 42.1709 13.4548 43.0687 14.5623 43.0687H37.5596C38.6672 43.0687 39.5651 42.1709 39.5651 41.0633V9.22787C39.5651 8.12029 38.6672 7.22241 37.5596 7.22241Z" fill="currentColor" stroke="currentColor" stroke-width="0.57" stroke-linecap="round" stroke-linejoin="round"/>
  <path d="M35.806 39.8842H8.79785V4.03784H26.6555L35.806 13.1884V39.8842Z" fill="white" stroke="currentColor" stroke-width="0.57" stroke-linecap="round" stroke-linejoin="round"/>
  <path d="M26.6555 13.1884H35.8061L26.6555 4.03784V13.1884Z" fill="#D1DBE0" stroke="currentColor" stroke-width="0.57" stroke-linecap="round" stroke-linejoin="round"/>
  <path d="M14.3405 16.3728C14.9351 16.3728 15.4189 16.141 15.8018 15.6674L16.5778 16.4635C15.9631 17.1589 15.2375 17.5015 14.401 17.5015C13.5646 17.5015 12.8793 17.2395 12.3351 16.7054C11.7909 16.1713 11.5188 15.5061 11.5188 14.6999C11.5188 13.8937 11.7909 13.2185 12.3452 12.6844C12.8994 12.1503 13.5746 11.8782 14.3708 11.8782C15.2576 11.8782 16.0134 12.2208 16.608 12.896L15.8522 13.7526C15.4692 13.279 14.9956 13.0371 14.4212 13.0371C13.9677 13.0371 13.5746 13.1883 13.2522 13.4805C12.9297 13.7728 12.7684 14.1759 12.7684 14.6898C12.7684 15.2038 12.9196 15.5968 13.232 15.9092C13.5343 16.2116 13.9072 16.3728 14.3405 16.3728Z" fill="currentColor"/>
  <path d="M20.0344 16.3728C20.629 16.3728 21.1127 16.141 21.4957 15.6674L22.2716 16.4635C21.6569 17.1589 20.9313 17.5015 20.0949 17.5015C19.2584 17.5015 18.5731 17.2395 18.0289 16.7054C17.4847 16.1713 17.2126 15.5061 17.2126 14.6999C17.2126 13.8937 17.4847 13.2185 18.039 12.6844C18.5933 12.1503 19.2685 11.8782 20.0646 11.8782C20.9515 11.8782 21.7073 12.2208 22.3019 12.896L21.546 13.7526C21.1631 13.279 20.6894 13.0371 20.115 13.0371C19.6615 13.0371 19.2685 13.1883 18.946 13.4805C18.6235 13.7728 18.4623 14.1759 18.4623 14.6898C18.4623 15.2038 18.6134 15.5968 18.9259 15.9092C19.2282 16.2116 19.6011 16.3728 20.0344 16.3728Z" fill="currentColor"/>
  <path d="M32.0471 31.3484H23.7229V46.4548L27.885 42.8974L32.0471 46.4548V31.3484Z" fill="#BEE4F8" stroke="currentColor" stroke-width="0.57" stroke-linecap="round" stroke-linejoin="round"/>
  <path d="M27.885 38.4027C31.4025 38.4027 34.2541 35.5512 34.2541 32.0336C34.2541 28.5161 31.4025 25.6646 27.885 25.6646C24.3674 25.6646 21.5159 28.5161 21.5159 32.0336C21.5159 35.5512 24.3674 38.4027 27.885 38.4027Z" fill="#BEE4F8" stroke="currentColor" stroke-width="0.57" stroke-linecap="round" stroke-linejoin="round"/>
  <path d="M24.9221 32.4064L27.4516 35.3491L30.8478 29.2319" stroke="currentColor" stroke-width="0.57" stroke-linecap="round" stroke-linejoin="round"/>
  <path d="M11.5188 19.7188H33.4378" stroke="currentColor" stroke-width="0.57" stroke-linecap="round" stroke-linejoin="round"/>
  <path d="M11.5188 22.5505H33.4378" stroke="currentColor" stroke-width="0.57" stroke-linecap="round" stroke-linejoin="round"/>
  <path d="M11.5188 25.3923H21.6368" stroke="currentColor" stroke-width="0.57" stroke-linecap="round" stroke-linejoin="round"/>
  <path d="M11.5188 10.0542H24.8213" stroke="currentColor" stroke-width="0.57" stroke-linecap="round" stroke-linejoin="round"/>
  <path d="M11.5188 28.2244H18.8654" stroke="currentColor" stroke-width="0.57" stroke-linecap="round" stroke-linejoin="round"/>
  <path d="M11.5188 31.0662H18.8654" stroke="currentColor" stroke-width="0.57" stroke-linecap="round" stroke-linejoin="round"/>
  <path d="M11.5188 33.8979H18.8654" stroke="currentColor" stroke-width="0.57" stroke-linecap="round" stroke-linejoin="round"/>
</svg>
