<svg width="48" height="49" viewBox="0 0 48 49" fill="none"
  xmlns="http://www.w3.org/2000/svg">
  <path d="M20.7299 36.0336H43.9086L40.1193 5.17578H16.9407L20.7299 36.0336Z" fill="currentColor" stroke="currentColor" stroke-width="0.57" stroke-linejoin="round"/>
  <path d="M21.0422 38.5632L21.7981 44.7106" stroke="currentColor" stroke-width="0.57" stroke-linecap="round" stroke-linejoin="round"/>
  <path d="M43.9084 36.0337L44.9666 44.7106" stroke="currentColor" stroke-width="0.57" stroke-linecap="round" stroke-linejoin="round"/>
  <path d="M36.0178 38.5631H12.8391L16.9407 5.17578H40.1194L36.0178 38.5631Z" fill="#BEE4F8" stroke="currentColor" stroke-width="0.57" stroke-linejoin="round"/>
  <path d="M36.0178 38.5632L35.262 44.7106" stroke="currentColor" stroke-width="0.57" stroke-linecap="round" stroke-linejoin="round"/>
  <path d="M12.8391 38.5632L12.0833 44.7106" stroke="currentColor" stroke-width="0.57" stroke-linecap="round" stroke-linejoin="round"/>
  <path d="M19.3693 16.7046C25.1639 16.7046 29.8602 20.7961 29.8602 25.835C29.8602 28.0117 28.9834 29.9971 27.5322 31.5692L29.9005 35.7313L25.0229 33.5142C23.3903 34.4312 21.4554 34.9653 19.3693 34.9653C13.5746 34.9653 8.87842 30.8738 8.87842 25.835C8.87842 20.7961 13.5746 16.7046 19.3693 16.7046Z" fill="#D1DBE0" stroke="currentColor" stroke-width="0.57" stroke-linejoin="round"/>
  <path d="M11.5993 6.60676C6.88293 6.60676 3.05341 9.93239 3.05341 14.0441C3.05341 15.8178 3.76893 17.4403 4.94802 18.7101L2.95264 22.1566L6.98371 20.2922C8.31396 21.038 9.88608 21.4713 11.5892 21.4713C16.3056 21.4713 20.1351 18.1457 20.1351 14.034C20.1351 9.92231 16.3056 6.59668 11.5892 6.59668L11.5993 6.60676Z" fill="white" stroke="currentColor" stroke-width="0.57" stroke-linejoin="round"/>
  <path d="M28.9934 14.165L32.5609 15.0015L29.8299 17.7325L28.9934 14.165Z" fill="currentColor"/>
  <path d="M29.6384 14.8101L34.7075 19.8791" stroke="currentColor" stroke-width="0.57" stroke-linecap="round" stroke-linejoin="round"/>
  <path d="M26.1315 13.7117C27.4617 13.7117 28.54 12.6333 28.54 11.3031C28.54 9.97288 27.4617 8.89453 26.1315 8.89453C24.8013 8.89453 23.7229 9.97288 23.7229 11.3031C23.7229 12.6333 24.8013 13.7117 26.1315 13.7117Z" stroke="currentColor" stroke-width="0.57" stroke-linecap="round" stroke-linejoin="round"/>
</svg>
