<svg width="48" height="49" viewBox="0 0 48 49" fill="none"
  xmlns="http://www.w3.org/2000/svg">
  <path d="M19.2584 22.9126C13.2924 22.9126 8.45508 27.115 8.45508 32.305C8.45508 34.5422 9.35199 36.588 10.8536 38.2004L9.29153 41.8083L13.4335 40.2059C15.1164 41.1431 17.1118 41.6974 19.2584 41.6974C25.2243 41.6974 30.0616 37.495 30.0616 32.305C30.0616 27.115 25.2243 22.9126 19.2584 22.9126Z" fill="currentColor" stroke="currentColor" stroke-width="0.57" stroke-linejoin="round"/>
  <path d="M28.3787 15.0015C35.5843 15.0015 41.4293 20.0907 41.4293 26.359C41.4293 29.0598 40.3409 31.5389 38.5269 33.494L41.4797 38.6739L35.4129 35.9227C33.3773 37.0615 30.9687 37.7266 28.3787 37.7266C21.1732 37.7266 15.3281 32.6374 15.3281 26.3691C15.3281 20.1008 21.1732 15.0115 28.3787 15.0115V15.0015Z" fill="#D1DBE0" stroke="currentColor" stroke-width="0.57" stroke-linejoin="round"/>
  <path d="M17.5252 4.60156C10.9747 4.60156 5.66372 9.22722 5.66372 14.9211C5.66372 17.3801 6.65134 19.6274 8.30408 21.4011L5.53271 26.198L11.1359 23.6081C12.9801 24.636 15.1771 25.2407 17.5252 25.2407C24.0756 25.2407 29.3866 20.615 29.3866 14.9211C29.3866 9.22722 24.0756 4.60156 17.5252 4.60156Z" fill="white" stroke="currentColor" stroke-width="0.57" stroke-linejoin="round"/>
  <path d="M17.4645 21.0384C20.8986 21.0384 23.6824 18.2545 23.6824 14.8205C23.6824 11.3864 20.8986 8.60254 17.4645 8.60254C14.0304 8.60254 11.2466 11.3864 11.2466 14.8205C11.2466 18.2545 14.0304 21.0384 17.4645 21.0384Z" fill="#BEE4F8" stroke="currentColor" stroke-width="0.57" stroke-miterlimit="10" stroke-linecap="round"/>
  <path d="M21.6872 16.1206C20.9213 17.8237 19.3189 19.0028 17.4546 19.0028C15.5902 19.0028 13.9878 17.8237 13.2219 16.1206H21.6872Z" fill="currentColor"/>
  <mask id="mask0_110_1923" style="mask-type:luminance" maskUnits="userSpaceOnUse" x="13" y="16" width="9" height="4">
    <path d="M21.6872 16.1206C20.9213 17.8237 19.3189 19.0028 17.4546 19.0028C15.5902 19.0028 13.9878 17.8237 13.2219 16.1206H21.6872Z" fill="white"/>
  </mask>
  <g mask="url(#mask0_110_1923)">
    <path d="M24.136 15.2136H12.1738V17.34H24.136V15.2136Z" fill="white"/>
  </g>
  <path d="M21.6872 16.1206C20.9213 17.8237 19.3189 19.0028 17.4546 19.0028C15.5902 19.0028 13.9878 17.8237 13.2219 16.1206H21.6872Z" stroke="currentColor" stroke-width="0.57" stroke-linecap="round" stroke-linejoin="round"/>
  <path d="M19.4699 13.5103C19.7426 13.5103 19.9637 13.2892 19.9637 13.0165C19.9637 12.7438 19.7426 12.5227 19.4699 12.5227C19.1972 12.5227 18.9761 12.7438 18.9761 13.0165C18.9761 13.2892 19.1972 13.5103 19.4699 13.5103Z" fill="currentColor" stroke="currentColor" stroke-width="0.57" stroke-linecap="round" stroke-linejoin="round"/>
  <path d="M15.4489 13.5103C15.7216 13.5103 15.9427 13.2892 15.9427 13.0165C15.9427 12.7438 15.7216 12.5227 15.4489 12.5227C15.1762 12.5227 14.9551 12.7438 14.9551 13.0165C14.9551 13.2892 15.1762 13.5103 15.4489 13.5103Z" fill="currentColor" stroke="currentColor" stroke-width="0.57" stroke-linecap="round" stroke-linejoin="round"/>
  <path d="M26.8066 46.2323C30.2017 46.2323 32.954 43.48 32.954 40.0849C32.954 36.6898 30.2017 33.9375 26.8066 33.9375C23.4115 33.9375 20.6592 36.6898 20.6592 40.0849C20.6592 43.48 23.4115 46.2323 26.8066 46.2323Z" fill="#BEE4F8" stroke="currentColor" stroke-width="0.57" stroke-linecap="round" stroke-linejoin="round"/>
  <path d="M23.9446 40.4476L26.3935 43.2896L29.6586 37.384" stroke="currentColor" stroke-width="0.57" stroke-linecap="round" stroke-linejoin="round"/>
</svg>
