<svg width="48" height="49" viewBox="0 0 48 49" fill="none"
  xmlns="http://www.w3.org/2000/svg">
  <path d="M16.3157 30.229C11.8815 30.229 8.28381 33.3632 8.28381 37.2229C8.28381 38.8857 8.95902 40.4175 10.0676 41.6168L8.19312 44.8618L11.9823 43.1083C13.232 43.8036 14.7134 44.2168 16.3157 44.2168C20.7499 44.2168 24.3476 41.0827 24.3476 37.2229C24.3476 33.3632 20.7499 30.229 16.3157 30.229Z" fill="#BEE4F8" stroke="currentColor" stroke-width="0.57" stroke-linejoin="round"/>
  <path d="M16.3259 4.27881C10.6521 4.27881 6.04665 8.28973 6.04665 13.2278C6.04665 15.3542 6.90325 17.3093 8.33428 18.8411L5.93579 22.9931L10.7932 20.7457C12.3956 21.6427 14.2902 22.1667 16.336 22.1667C22.0097 22.1667 26.6152 18.1558 26.6152 13.2177C26.6152 8.27965 22.0097 4.27881 16.3259 4.27881Z" fill="white" stroke="currentColor" stroke-width="0.57" stroke-linejoin="round"/>
  <path d="M31.3415 13.3592C37.7912 13.3592 43.0215 17.9143 43.0215 23.5276C43.0215 25.9462 42.044 28.1633 40.4215 29.9068L43.0618 34.5425L37.63 32.0735C35.816 33.0913 33.6493 33.6859 31.3314 33.6859C24.8817 33.6859 19.6514 29.1308 19.6514 23.5175C19.6514 17.9042 24.8817 13.3491 31.3314 13.3491L31.3415 13.3592Z" fill="#D1DBE0" stroke="currentColor" stroke-width="0.57" stroke-linejoin="round"/>
  <path d="M31.412 30.7731C31.0291 30.7731 30.6965 30.632 30.4244 30.3599C30.1422 30.0878 30.0112 29.7553 30.0112 29.3723C30.0112 28.9894 30.1523 28.6568 30.4244 28.3847C30.6965 28.1126 31.0291 27.9715 31.412 27.9715C31.795 27.9715 32.1275 28.1126 32.3996 28.3847C32.6717 28.6568 32.8128 28.9894 32.8128 29.3723C32.8128 29.7553 32.6717 30.0878 32.3996 30.3599C32.1275 30.632 31.795 30.7731 31.412 30.7731ZM30.0818 17.1279H32.7221V19.5567L32.1578 26.3591H30.6461L30.0818 19.5567V17.1279Z" fill="currentColor"/>
  <path d="M14.028 38.372C14.4844 38.372 14.8544 38.002 14.8544 37.5456C14.8544 37.0892 14.4844 36.7192 14.028 36.7192C13.5716 36.7192 13.2017 37.0892 13.2017 37.5456C13.2017 38.002 13.5716 38.372 14.028 38.372Z" fill="currentColor"/>
  <path d="M16.7893 38.372C17.2457 38.372 17.6156 38.002 17.6156 37.5456C17.6156 37.0892 17.2457 36.7192 16.7893 36.7192C16.3329 36.7192 15.9629 37.0892 15.9629 37.5456C15.9629 38.002 16.3329 38.372 16.7893 38.372Z" fill="currentColor"/>
  <path d="M19.5607 38.372C20.0171 38.372 20.3871 38.002 20.3871 37.5456C20.3871 37.0892 20.0171 36.7192 19.5607 36.7192C19.1044 36.7192 18.7344 37.0892 18.7344 37.5456C18.7344 38.002 19.1044 38.372 19.5607 38.372Z" fill="currentColor"/>
  <path d="M17.1118 14.7596H15.3886V13.8324C15.3886 13.4293 15.4389 13.127 15.5296 12.9254C15.6304 12.7239 15.832 12.4619 16.1645 12.1394L17.2731 11.0308C17.5049 10.7789 17.6258 10.4665 17.6258 10.0835C17.6258 9.70057 17.5049 9.39824 17.263 9.1463C17.0211 8.89436 16.7087 8.77343 16.3157 8.77343C15.9227 8.77343 15.6103 8.89436 15.3482 9.12615C15.0862 9.35793 14.9351 9.68042 14.8948 10.0734H13.0505C13.1513 9.16646 13.504 8.46102 14.1087 7.94706C14.7134 7.43309 15.4692 7.18115 16.3661 7.18115C17.263 7.18115 18.0088 7.42302 18.5731 7.91682C19.1375 8.41063 19.4297 9.09591 19.4297 9.98275C19.4297 10.5874 19.2584 11.1014 18.9258 11.5045C18.7344 11.7463 18.5832 11.9177 18.4824 12.0184C18.3816 12.1192 18.2506 12.2502 18.0793 12.4115C17.908 12.5727 17.7669 12.7037 17.656 12.8247C17.5351 12.9456 17.4444 13.0363 17.3739 13.1169C17.1925 13.3386 17.1018 13.651 17.1018 14.0642V14.7495L17.1118 14.7596ZM16.2855 18.1356C15.963 18.1356 15.6909 18.0247 15.4591 17.803C15.2273 17.5813 15.1064 17.3193 15.1064 17.017C15.1064 16.7146 15.2172 16.4425 15.449 16.2208C15.6808 15.9991 15.9529 15.8883 16.2754 15.8883C16.5979 15.8883 16.87 15.9991 17.1018 16.2108C17.3336 16.4325 17.4545 16.6945 17.4545 17.0069C17.4545 17.3193 17.3436 17.5813 17.1118 17.803C16.8801 18.0247 16.608 18.1356 16.2855 18.1356Z" fill="currentColor"/>
</svg>
