<svg width="48" height="49" viewBox="0 0 48 49" fill="none"
  xmlns="http://www.w3.org/2000/svg">
  <path d="M24.0454 4.78271C32.3494 4.78271 39.0914 11.5247 39.0914 19.8287V44.912H9.00952V19.8287C9.00952 11.5247 15.7515 4.78271 24.0555 4.78271H24.0454Z" fill="#D1DBE0"/>
  <mask id="mask0_110_2194" style="mask-type:luminance" maskUnits="userSpaceOnUse" x="9" y="4" width="31" height="41">
    <path d="M24.0454 4.78271C32.3494 4.78271 39.0914 11.5247 39.0914 19.8287V44.912H9.00952V19.8287C9.00952 11.5247 15.7515 4.78271 24.0555 4.78271H24.0454Z" fill="white"/>
  </mask>
  <g mask="url(#mask0_110_2194)">
    <path d="M28.0362 4.78271C36.3402 4.78271 43.0822 11.5247 43.0822 19.8287V45.5872H12.9902V19.8287C12.9902 11.5247 19.7322 4.78271 28.0362 4.78271Z" fill="currentColor"/>
    <mask id="mask1_110_2194" style="mask-type:luminance" maskUnits="userSpaceOnUse" x="12" y="4" width="32" height="42">
      <path d="M28.0362 4.78271C36.3402 4.78271 43.0822 11.5247 43.0822 19.8287V45.5872H12.9902V19.8287C12.9902 11.5247 19.7322 4.78271 28.0362 4.78271Z" fill="white"/>
    </mask>
    <g mask="url(#mask1_110_2194)">
      <path d="M32.0673 20.7458C36.186 20.7458 39.5248 17.4069 39.5248 13.2883C39.5248 9.16964 36.186 5.83081 32.0673 5.83081C27.9487 5.83081 24.6099 9.16964 24.6099 13.2883C24.6099 17.4069 27.9487 20.7458 32.0673 20.7458Z" fill="#BEE4F8" stroke="currentColor" stroke-width="0.57" stroke-miterlimit="10"/>
      <path d="M32.0673 13.2884L25.7688 17.2892C25.8494 17.4102 25.93 17.5412 26.0207 17.652C26.968 18.9722 28.3285 19.9397 29.8805 20.4133L32.0673 13.2783V13.2884Z" fill="white" stroke="currentColor" stroke-width="0.57" stroke-miterlimit="10"/>
      <path d="M32.0673 13.2883L34.3751 20.383C37.4387 19.3853 39.5248 16.5132 39.5248 13.2883C39.5248 9.19676 36.1588 5.83081 32.0673 5.83081C32.027 5.83081 31.9867 5.83081 31.9363 5.83081L32.0673 13.2883Z" fill="#D1DBE0" stroke="currentColor" stroke-width="0.57" stroke-miterlimit="10"/>
      <path d="M32.0672 13.2883L28.54 19.8691C29.6284 20.4536 30.8378 20.7559 32.0672 20.7559C33.1355 20.7559 34.1835 20.5241 35.151 20.0908L32.0672 13.2984V13.2883Z" fill="white" stroke="currentColor" stroke-width="0.57" stroke-miterlimit="10"/>
      <path d="M32.0674 15.7977C33.4533 15.7977 34.5768 14.6743 34.5768 13.2884C34.5768 11.9025 33.4533 10.7791 32.0674 10.7791C30.6816 10.7791 29.5581 11.9025 29.5581 13.2884C29.5581 14.6743 30.6816 15.7977 32.0674 15.7977Z" fill="currentColor" stroke="currentColor" stroke-width="0.57" stroke-linecap="round" stroke-linejoin="round"/>
      <path d="M34.8487 45.5974H40.8147V35.4693H34.8487V45.5974Z" fill="white" stroke="currentColor" stroke-width="0.57" stroke-linejoin="round"/>
      <path d="M34.8487 45.5872H40.8147V39.3995H34.8487V45.5872Z" fill="#BEE4F8" stroke="currentColor" stroke-width="0.57" stroke-linejoin="round"/>
      <path d="M27.8548 45.5874H33.8208V28.6367H27.8548V45.5874Z" fill="white" stroke="currentColor" stroke-width="0.57" stroke-linejoin="round"/>
      <path d="M27.8548 45.5874H33.8208V37.7268H27.8548V45.5874Z" fill="#BEE4F8" stroke="currentColor" stroke-width="0.57" stroke-linejoin="round"/>
      <path d="M20.8609 45.5874H26.8269L26.8269 22.7211H20.8609L20.8609 45.5874Z" fill="white" stroke="currentColor" stroke-width="0.57" stroke-linejoin="round"/>
      <path d="M20.8609 24.3638H26.8269V20.242H20.8609V24.3638Z" fill="#D1DBE0" stroke="currentColor" stroke-width="0.57" stroke-linejoin="round"/>
      <path d="M20.8609 45.5974H26.8269V32.7383H20.8609V45.5974Z" fill="#BEE4F8" stroke="currentColor" stroke-width="0.57" stroke-linejoin="round"/>
      <path d="M13.867 45.5974H19.833L19.833 29.0599H13.867L13.867 45.5974Z" fill="white" stroke="currentColor" stroke-width="0.57" stroke-linejoin="round"/>
      <path d="M13.867 29.0598H19.833V25.7846H13.867V29.0598Z" fill="#D1DBE0" stroke="currentColor" stroke-width="0.57" stroke-linejoin="round"/>
      <path d="M13.867 45.5974H19.833V37.1725H13.867V45.5974Z" fill="#BEE4F8" stroke="currentColor" stroke-width="0.57" stroke-linejoin="round"/>
    </g>
    <path d="M28.0362 4.78271C36.3402 4.78271 43.0822 11.5247 43.0822 19.8287V45.5872H12.9902V19.8287C12.9902 11.5247 19.7322 4.78271 28.0362 4.78271Z" stroke="currentColor" stroke-width="0.57" stroke-miterlimit="10" stroke-linecap="round"/>
  </g>
  <path d="M24.0454 4.78271C32.3494 4.78271 39.0914 11.5247 39.0914 19.8287V44.912H9.00952V19.8287C9.00952 11.5247 15.7515 4.78271 24.0555 4.78271H24.0454Z" stroke="currentColor" stroke-width="0.57" stroke-miterlimit="10" stroke-linecap="round"/>
</svg>
