<svg width="100" height="100" viewBox="0 0 100 100" fill="none" xmlns="http://www.w3.org/2000/svg">
<path d="M48.5756 72.5608L54.1497 62.8945C54.7746 61.816 55.9439 61.1406 57.1937 61.1406C57.8086 61.1406 58.4134 61.3019 58.9476 61.6144L59.26 61.7958L49.3215 79.8887L45.8239 78.1752L43.9692 83.0235L36.4297 80.302L43.0016 73.6091C43.3443 73.2563 43.6165 72.8532 43.7979 72.4096L47.608 63.2573C48.112 62.0579 49.2711 61.2817 50.5714 61.2817C50.9948 61.2817 51.408 61.3624 51.8011 61.5337L52.1338 61.6748L47.739 73.1555" fill="white"/>
<path d="M48.5756 72.5608L54.1497 62.8945C54.7746 61.816 55.9439 61.1406 57.1937 61.1406C57.8086 61.1406 58.4134 61.3019 58.9476 61.6144L59.26 61.7958L49.3215 79.8887L45.8239 78.1752L43.9692 83.0235L36.4297 80.302L43.0016 73.6091C43.3443 73.2563 43.6165 72.8532 43.7979 72.4096L47.608 63.2573C48.112 62.0579 49.2711 61.2817 50.5714 61.2817C50.9948 61.2817 51.408 61.3624 51.8011 61.5337L52.1338 61.6748L47.739 73.1555" stroke="#282979" stroke-width="0.57" stroke-linecap="round" stroke-linejoin="round"/>
<path d="M49.7628 73.3521H50.4885C50.932 73.3521 51.3352 73.1404 51.5973 72.7876L58.8244 62.839C59.4291 62.0024 60.3162 61.3674 61.3443 61.2061C62.3724 61.0449 63.3804 61.2767 64.2069 61.8714L64.5093 62.0931L51.2042 80.4078L47.8477 77.9686L49.2991 75.6805" fill="white"/>
<path d="M49.7628 73.3521H50.4885C50.932 73.3521 51.3352 73.1404 51.5973 72.7876L58.8244 62.839C59.4291 62.0024 60.3162 61.3674 61.3443 61.2061C62.3724 61.0449 63.3804 61.2767 64.2069 61.8714L64.5093 62.0931L51.2042 80.4078L47.8477 77.9686L49.2991 75.6805" stroke="#282979" stroke-width="0.57" stroke-linecap="round" stroke-linejoin="round"/>
<path d="M45.8516 73.3537H47.4945C47.8776 73.3537 48.2404 73.1521 48.4319 72.8094L49.0266 71.7812" stroke="#282979" stroke-width="0.57" stroke-linecap="round" stroke-linejoin="round"/>
<path d="M26.1367 82.7138L27.5378 82.0384C28.3845 81.6252 28.8381 80.718 28.7272 79.7806C28.5357 78.1276 28.8784 76.2225 29.4731 74.9021C30.0678 73.5816 31.1261 72.3418 32.6482 71.1827C33.5654 70.4872 34.2609 69.58 34.654 68.562L36.9219 62.7057C37.184 62.0203 37.7283 61.4357 38.4439 61.2341C38.9278 61.093 39.4317 61.1131 39.8853 61.2845C40.47 61.4962 40.9336 61.9296 41.1856 62.5041C41.4376 63.0787 41.4477 63.7036 41.2259 64.2781L38.9278 70.0437C38.575 70.9307 38.6657 71.9487 39.1898 72.745C42.1331 77.2103 50.1666 76.1318 53.8456 72.2511L63.1693 62.4134C63.9857 61.5566 65.1247 61.1031 66.304 61.1938C67.191 61.2643 68.0377 61.6272 68.6828 62.2421L69.0356 62.5747L53.7851 79.3573C52.9687 80.2544 52.001 80.9902 50.9024 81.5244L30.3298 91.4125L26.1367 82.7138Z" fill="white" stroke="#282979" stroke-width="0.57" stroke-linecap="round" stroke-linejoin="round"/>
<path d="M26.3874 95.2182L32.1523 92.4375L26.6654 81.0619L20.9004 83.8426L26.3874 95.2182Z" fill="white" stroke="#282979" stroke-width="0.57" stroke-linecap="round" stroke-linejoin="round"/>
<path d="M22.5467 48.9567L15.9546 42.6065C13.1827 45.4792 12.5981 49.8437 14.5132 53.3413C16.9222 57.7461 22.5265 59.3891 26.9313 56.9801C31.3361 54.571 32.9791 48.9668 30.57 44.562C28.161 40.1572 22.5567 38.5142 18.1519 40.9232C17.7286 41.1551 17.3254 41.4171 16.9424 41.7195L22.5467 48.9567Z" fill="#B6E6FA" stroke="#1E3791" stroke-width="0.57" stroke-miterlimit="10"/>
<path d="M22.546 48.9574L17.0929 41.6094C16.3067 42.194 15.6314 42.8895 15.0669 43.6858C14.5024 44.4821 14.0791 45.359 13.7969 46.2964L22.5561 48.9574H22.546Z" fill="white" stroke="#1E3791" stroke-width="0.57" stroke-miterlimit="10"/>
<path d="M22.5476 48.9587L13.8086 51.6701C13.99 52.2547 14.2219 52.8091 14.5142 53.3433C16.9232 57.7481 22.5275 59.3911 26.9323 56.9821C31.3371 54.573 32.98 48.9688 30.571 44.564C29.9259 43.3846 29.0288 42.3666 27.9503 41.5703L22.5476 48.9486V48.9587Z" fill="#1E3791" stroke="#1E3791" stroke-width="0.57" stroke-miterlimit="10"/>
<path d="M22.5457 48.956L14.5021 44.6016C13.8974 45.7204 13.5244 46.9602 13.4236 48.2302C13.3228 49.5003 13.4841 50.7804 13.9074 51.9799L22.5457 48.956Z" fill="#E60032" stroke="#1E3791" stroke-width="0.57" stroke-miterlimit="10"/>
<path d="M22.5473 52.2899C24.3899 52.2899 25.8837 50.7962 25.8837 48.9535C25.8837 47.1109 24.3899 45.6172 22.5473 45.6172C20.7047 45.6172 19.2109 47.1109 19.2109 48.9535C19.2109 50.7962 20.7047 52.2899 22.5473 52.2899Z" fill="#E1E1E1"/>
<path d="M22.5473 52.2899C24.3899 52.2899 25.8837 50.7962 25.8837 48.9535C25.8837 47.1109 24.3899 45.6172 22.5473 45.6172C20.7047 45.6172 19.2109 47.1109 19.2109 48.9535C19.2109 50.7962 20.7047 52.2899 22.5473 52.2899Z" stroke="#1E3791" stroke-width="0.57"/>
<path d="M63.6928 14.7969H44.6523V58.3409H63.6928V14.7969Z" fill="white" stroke="#1E3791" stroke-width="0.57"/>
<path d="M63.6928 6.17188H44.6523V10.1332H63.6928V6.17188Z" fill="#E60032" stroke="#1E3791" stroke-width="0.57"/>
<path d="M63.6928 10.1016H44.6523V20.0905H63.6928V10.1016Z" fill="#1E3791" stroke="#1E3791" stroke-width="0.57"/>
<path d="M63.6928 36.1562H44.6523V58.3415H63.6928V36.1562Z" fill="#B6E6FA" stroke="#1E3791" stroke-width="0.57"/>
<path d="M70.8816 58.3414C78.6863 58.3414 85.0133 52.0145 85.0133 44.2098C85.0133 36.4051 78.6863 30.0781 70.8816 30.0781C63.077 30.0781 56.75 36.4051 56.75 44.2098C56.75 52.0145 63.077 58.3414 70.8816 58.3414Z" fill="#B6E6FA" stroke="#1E3791" stroke-width="0.57" stroke-miterlimit="10"/>
<path d="M70.8828 44.2083L82.3937 36.0035C82.2325 35.7716 82.0611 35.5499 81.8898 35.3382C79.9545 32.9393 77.2935 31.2459 74.3099 30.5L70.8929 44.2184L70.8828 44.2083Z" fill="#1E3791" stroke="#1E3791" stroke-width="0.57" stroke-miterlimit="10"/>
<path d="M70.8805 44.2126L62.5245 32.8125C62.3431 32.9435 62.1717 33.0746 62.0003 33.2157C55.9627 38.0841 55.0051 47.055 59.8736 53.0927C62.7765 56.6911 67.2619 58.6365 71.8683 58.314L70.8704 44.2126H70.8805Z" fill="white" stroke="#1E3791" stroke-width="0.57" stroke-miterlimit="10"/>
<path d="M70.8831 44.2071L75.2879 30.781C73.1006 30.0653 70.7722 29.894 68.5144 30.277C66.2465 30.66 64.1096 31.5975 62.2852 32.9985L70.8831 44.2171V44.2071Z" fill="#E60032" stroke="#1E3791" stroke-width="0.57" stroke-miterlimit="10"/>
<path d="M70.8803 48.9559C73.5023 48.9559 75.6278 46.8304 75.6278 44.2084C75.6278 41.5865 73.5023 39.4609 70.8803 39.4609C68.2583 39.4609 66.1328 41.5865 66.1328 44.2084C66.1328 46.8304 68.2583 48.9559 70.8803 48.9559Z" fill="#E1E1E1" stroke="#1E3791" stroke-width="0.57" stroke-linecap="round" stroke-linejoin="round"/>
<path d="M86.0603 58.3438H12.8519C12.0837 58.3438 11.4609 58.9665 11.4609 59.7347C11.4609 60.503 12.0837 61.1257 12.8519 61.1257H86.0603C86.8285 61.1257 87.4513 60.503 87.4513 59.7347C87.4513 58.9665 86.8285 58.3438 86.0603 58.3438Z" fill="white" stroke="#282979" stroke-width="0.57" stroke-linecap="round" stroke-linejoin="round"/>
<path d="M47.3764 32.3828H28.3359V58.3479H47.3764V32.3828Z" fill="white" stroke="#1E3791" stroke-width="0.57"/>
<path d="M47.3764 27.2422H28.3359V32.3828H47.3764V27.2422Z" fill="#E60032" stroke="#1E3791" stroke-width="0.57"/>
<path d="M47.3764 47.1797H28.3359V58.3479H47.3764V47.1797Z" fill="#B6E6FA" stroke="#1E3791" stroke-width="0.57"/>
<path d="M47.3764 32.3828H28.3359V38.864H47.3764V32.3828Z" fill="#1E3791" stroke="#1E3791" stroke-width="0.57"/>
</svg>
