<svg
    width="48"
    height="48"
    viewBox="0 0 48 48"
    fill="#172763"
    xmlns="http://www.w3.org/2000/svg"
>
  <path
      fill-rule="evenodd"
      clip-rule="evenodd"
      d="M24 4C12.95 4 4 12.95 4 24C4 32.85 9.725 40.325 17.675 42.975C18.675 43.15 19.05 42.55 19.05 42.025C19.05 41.55 19.025 39.975 19.025 38.3C14 39.225 12.7 37.075 12.3 35.95C12.075 35.375 11.1 33.6 10.25 33.125C9.55 32.75 8.55 31.825 10.225 31.8C11.8 31.775 12.925 33.25 13.3 33.85C15.1 36.875 17.975 36.025 19.125 35.5C19.3 34.2 19.825 33.325 20.4 32.825C15.95 32.325 11.3 30.6 11.3 22.95C11.3 20.775 12.075 18.975 13.35 17.575C13.15 17.075 12.45 15.025 13.55 12.275C13.55 12.275 15.225 11.75 19.05 14.325C20.65 13.875 22.35 13.65 24.05 13.65C25.75 13.65 27.45 13.875 29.05 14.325C32.875 11.725 34.55 12.275 34.55 12.275C35.65 15.025 34.95 17.075 34.75 17.575C36.025 18.975 36.8 20.75 36.8 22.95C36.8 30.625 32.125 32.325 27.675 32.825C28.4 33.45 29.025 34.65 29.025 36.525C29.025 39.2 29 41.35 29 42.025C29 42.55 29.375 43.175 30.375 42.975C34.3454 41.6346 37.7954 39.0829 40.2396 35.6791C42.6838 32.2752 43.9989 28.1905 44 24C44 12.95 35.05 4 24 4Z"
  />
</svg>