<svg
    width="48"
    height="48"
    viewBox="0 0 48 48"
    fill="none"
    xmlns="http://www.w3.org/2000/svg"
>
  <rect x="4" y="4" width="40" height="40" rx="20" fill="#172763" />
  <path
      d="M19.3598 34.1597C28.7918 34.1597 33.9558 26.3437 33.9558 19.5637C33.9558 19.3437 33.9558 19.1197 33.9398 18.8997C34.9438 18.1717 35.8118 17.2757 36.4998 16.2437C35.5638 16.6597 34.5718 16.9317 33.5558 17.0517C34.6278 16.4117 35.4278 15.4037 35.8118 14.2157C34.8038 14.8117 33.7038 15.2357 32.5558 15.4597C30.6118 13.3957 27.3638 13.2957 25.2998 15.2357C23.9678 16.4877 23.4038 18.3557 23.8158 20.1357C19.6918 19.9277 15.8478 17.9797 13.2438 14.7757C11.8838 17.1197 12.5758 20.1157 14.8318 21.6237C14.0158 21.5997 13.2158 21.3797 12.5038 20.9837C12.5038 21.0037 12.5038 21.0277 12.5038 21.0477C12.5038 23.4877 14.2238 25.5917 16.6198 26.0757C15.8638 26.2797 15.0718 26.3117 14.3038 26.1637C14.9758 28.2517 16.8998 29.6837 19.0958 29.7277C17.2798 31.1557 15.0358 31.9317 12.7278 31.9277C12.3198 31.9277 11.9118 31.9037 11.5078 31.8517C13.8438 33.3597 16.5758 34.1597 19.3598 34.1557"
      fill="white"
  />
</svg>