<?xml version="1.0" encoding="utf-8"?>
<!-- Generator: Adobe Illustrator 17.0.0, SVG Export Plug-In . SVG Version: 6.00 Build 0)  -->
<!DOCTYPE svg PUBLIC "-//W3C//DTD SVG 1.1//EN" "http://www.w3.org/Graphics/SVG/1.1/DTD/svg11.dtd">
<svg version="1.1" id="Ebene_1" xmlns="http://www.w3.org/2000/svg" xmlns:xlink="http://www.w3.org/1999/xlink" x="0px" y="0px"
	 width="553.035px" height="170.079px" viewBox="85.039 85.039 553.035 170.079"
	 enable-background="new 85.039 85.039 553.035 170.079" xml:space="preserve">
<g id="Logo">
</g>
<g id="Icon">
	<g>
		<path fill="#004B89" d="M255.118,85.039c9.139,26.669,14.109,55.272,14.109,85.039s-4.97,58.371-14.109,85.039h170.014V85.039
			H255.118z"/>
		<path fill="#FFFFFF" d="M340.154,116.186c0-1.546,1.246-2.8,2.792-2.8h5.592c1.546,0,2.796,1.254,2.796,2.8l-0.004,51.093
			c0,1.546-1.254,2.8-2.8,2.8h-5.553c-1.542,0-2.808-1.254-2.808-2.8v-21.047h-22.507v21.047c0,1.546-1.254,2.8-2.8,2.8h-5.592
			c-1.542,0-2.796-1.254-2.796-2.8v-51.093c0-1.546,1.254-2.8,2.8-2.8h5.607c1.542,0,2.78,1.254,2.78,2.8v20.553h22.492v-20.553
			H340.154z"/>
		<path fill="#FFFFFF" d="M407.834,116.186c1.382-1.546,1.25-2.8-0.296-2.8h-7.582c-1.546,0-2.724,0.236-4.805,2.317l-21.187,22.975
			l-0.058-22.492c0-1.546-1.25-2.8-2.796-2.8h-5.148c-1.546,0-2.8,1.254-2.8,2.8v51.093c0,1.546,1.25,2.8,2.796,2.8h5.171
			c1.546,0,2.8-1.254,2.8-2.8l0.004-13.36l9.408-10.179l14.536,23.539c0.942,1.546,2.274,2.8,3.816,2.8h7.761
			c1.546,0,2.033-1.254,1.086-2.8l-20.042-31.534L407.834,116.186z"/>
		<path fill="#FFFFFF" d="M283.465,167.279c0,1.546,1.25,2.8,2.796,2.8h5.658c1.546,0,2.8-1.254,2.8-2.8l0.023-51.093
			c0-1.546-1.254-2.8-2.796-2.8h-5.658c-1.542,0-2.796,1.254-2.796,2.8L283.465,167.279z"/>
		<path fill="#101111" d="M453.543,170.08h17.246c8.134,0,18.711-1.724,18.711-15.691c0-10.926-7.325-13.723-12.12-14.461v-0.165
			c3.252-1.316,9.351-3.861,9.351-13.063c0-11.504-9.842-13.31-15.942-13.31h-17.246L453.543,170.08L453.543,170.08z
			 M463.06,120.208h3.825c6.021,0,10.168,1.068,10.168,8.134c0,7.313-4.395,8.299-10.168,8.299h-3.825V120.208z M463.06,143.463
			h3.825c7.89,0,12.933,2.628,12.933,10.102c0,8.464-6.751,9.697-12.933,9.697h-3.825V143.463z"/>
		<path fill="#101111" d="M526.509,163.097c-1.63,0.577-4.556,1.481-7.403,1.481c-10.903,0-14.559-11.013-14.559-16.433h22.937
			v-2.219c0-9.532-4.878-15.855-14.724-15.855c-11.712,0-16.594,7.474-16.594,18.4c0,14.379,6.995,22.516,19.524,22.516
			c4.148,0,7.565-0.495,10.82-1.563L526.509,163.097L526.509,163.097z M504.79,142.638c0.243-2.298,2.034-6.736,7.321-6.736
			c5.612,0,6.834,4.273,6.834,6.736H504.79z"/>
		<path fill="#101111" d="M536.025,170.08h9.029v-17.171c0-9.446,3.578-13.31,12.69-13.31v-9.528
			c-7.808,0-10.412,4.352-12.529,8.134h-0.161v-7.231h-9.029V170.08z"/>
		<rect x="565.211" y="113.386" fill="#101111" width="9.029" height="56.694"/>
		<path fill="#101111" d="M586.27,170.08h9.029v-39.11h-9.029V170.08z M586.27,122.427h9.029v-9.037h-9.029V122.427z"/>
		<path fill="#101111" d="M606.917,170.08h9.033v-16.924c0-6.162,3.008-14.544,9.108-14.544c3.174,0,3.987,1.151,3.987,9.12v22.348
			h9.029v-27.112c0-8.955-4.799-12.898-10.494-12.898c-7.16,0-10.247,5.255-11.468,8.216h-0.161v-7.313h-9.033L606.917,170.08
			L606.917,170.08z"/>
		<path fill="#D2DDEA" d="M255.183,85.039H85.039v170.079h170.143c9.139-26.668,14.109-55.272,14.109-85.039
			C269.291,140.312,264.322,111.708,255.183,85.039z"/>
		<g>
			<path fill="#004B89" d="M201.232,230.739h6.037c-1.471-31.047-6.889-62.194-14.865-85.285
				c-10.182-29.474-24.365-45.649-41.016-46.779l-0.164-0.007c-8.973-0.212-17.157,3.365-24.421,10.598
				c-20.363,20.276-31.387,67.918-30.243,130.71l0.065,3.54l14.501,0.115l3.612-27.926c3.728-64.295,16.804-99.87,37.449-100.92
				c22.508,1.209,38.721,49.427,45.981,101.271L201.232,230.739z"/>
			<path fill="#004B89" d="M199.397,126.807c7.567,23.546,12.281,54.219,13.771,89.296l1.688,14.636h6
				c1.27-41.187-2.275-79.976-9.985-109.221c-3.927-14.899-8.863-27.122-14.662-36.478h-25.563
				C181.5,88.027,191.678,102.786,199.397,126.807z"/>
		</g>
	</g>
</g>
</svg>
