<svg width="199" height="199" viewBox="0 0 199 199" fill="none" xmlns="http://www.w3.org/2000/svg">
<path d="M179.9 73.01H47.6798C42.9357 73.01 39.0898 76.8559 39.0898 81.6V167.18C39.0898 171.924 42.9357 175.77 47.6798 175.77H179.9C184.644 175.77 188.49 171.924 188.49 167.18V81.6C188.49 76.8559 184.644 73.01 179.9 73.01Z" fill="#20378B" stroke="white" stroke-width="3.5" stroke-linejoin="round"/>
<path d="M62.7199 160.4L55.4399 156.3L55.4199 164.74L62.7199 160.4Z" fill="#D1DBE0"/>
<path d="M67.2 157.12H88.42" stroke="#D1DBE0" stroke-width="1.14" stroke-linecap="round"/>
<path d="M67.2 160.52H77.82" stroke="#D1DBE0" stroke-width="1.14" stroke-linecap="round"/>
<path d="M67.2 163.92H84.1199" stroke="#D1DBE0" stroke-width="1.14" stroke-linecap="round"/>
<path d="M67.2 167.32H81.96" stroke="#D1DBE0" stroke-width="1.14" stroke-linecap="round"/>
<path d="M105.5 160.4L98.2 156.3V164.74L105.5 160.4Z" fill="#D1DBE0"/>
<path d="M109.98 157.12H131.2" stroke="#D1DBE0" stroke-width="1.14" stroke-linecap="round"/>
<path d="M109.98 160.52H120.58" stroke="#D1DBE0" stroke-width="1.14" stroke-linecap="round"/>
<path d="M109.98 163.92H126.9" stroke="#D1DBE0" stroke-width="1.14" stroke-linecap="round"/>
<path d="M109.98 167.32H124.72" stroke="#D1DBE0" stroke-width="1.14" stroke-linecap="round"/>
<path d="M148.28 160.4L140.98 156.3V164.74L148.28 160.4Z" fill="#D1DBE0"/>
<path d="M152.76 157.12H173.98" stroke="#D1DBE0" stroke-width="1.14" stroke-linecap="round"/>
<path d="M152.76 160.52H163.36" stroke="#D1DBE0" stroke-width="1.14" stroke-linecap="round"/>
<path d="M152.76 163.92H169.68" stroke="#D1DBE0" stroke-width="1.14" stroke-linecap="round"/>
<path d="M152.76 167.32H167.5" stroke="#D1DBE0" stroke-width="1.14" stroke-linecap="round"/>
<path d="M62.7199 135.44L55.4399 131.32L55.4199 139.76L62.7199 135.44Z" fill="#D1DBE0"/>
<path d="M67.2 132.16H88.42" stroke="#D1DBE0" stroke-width="1.14" stroke-linecap="round"/>
<path d="M67.2 135.56H77.82" stroke="#D1DBE0" stroke-width="1.14" stroke-linecap="round"/>
<path d="M67.2 138.96H84.1199" stroke="#D1DBE0" stroke-width="1.14" stroke-linecap="round"/>
<path d="M67.2 142.36H81.96" stroke="#D1DBE0" stroke-width="1.14" stroke-linecap="round"/>
<path d="M105.5 135.44L98.2 131.32V139.76L105.5 135.44Z" fill="#D1DBE0"/>
<path d="M109.98 132.16H131.2" stroke="#D1DBE0" stroke-width="1.14" stroke-linecap="round"/>
<path d="M109.98 135.56H120.58" stroke="#D1DBE0" stroke-width="1.14" stroke-linecap="round"/>
<path d="M109.98 138.96H126.9" stroke="#D1DBE0" stroke-width="1.14" stroke-linecap="round"/>
<path d="M109.98 142.36H124.72" stroke="#D1DBE0" stroke-width="1.14" stroke-linecap="round"/>
<path d="M148.28 135.44L140.98 131.32V139.76L148.28 135.44Z" fill="#D1DBE0"/>
<path d="M152.76 132.16H173.98" stroke="#D1DBE0" stroke-width="1.14" stroke-linecap="round"/>
<path d="M152.76 135.56H169.04" stroke="#D1DBE0" stroke-width="1.14" stroke-linecap="round"/>
<path d="M152.76 138.96H175.34" stroke="#D1DBE0" stroke-width="1.14" stroke-linecap="round"/>
<path d="M152.76 142.36H173.18" stroke="#D1DBE0" stroke-width="1.14" stroke-linecap="round"/>
<path d="M62.7199 111.02L55.4399 106.9L55.4199 115.34L62.7199 111.02Z" fill="#D1DBE0"/>
<path d="M67.2 107.74H88.42" stroke="#D1DBE0" stroke-width="1.14" stroke-linecap="round"/>
<path d="M67.2 111.14H77.82" stroke="#D1DBE0" stroke-width="1.14" stroke-linecap="round"/>
<path d="M67.2 114.54H84.1199" stroke="#D1DBE0" stroke-width="1.14" stroke-linecap="round"/>
<path d="M67.2 117.94H81.96" stroke="#D1DBE0" stroke-width="1.14" stroke-linecap="round"/>
<path d="M105.5 111.02L98.2 106.9V115.34L105.5 111.02Z" fill="#D1DBE0"/>
<path d="M109.98 107.74H131.2" stroke="#D1DBE0" stroke-width="1.14" stroke-linecap="round"/>
<path d="M109.98 111.14H120.58" stroke="#D1DBE0" stroke-width="1.14" stroke-linecap="round"/>
<path d="M109.98 114.54H126.9" stroke="#D1DBE0" stroke-width="1.14" stroke-linecap="round"/>
<path d="M109.98 117.94H124.72" stroke="#D1DBE0" stroke-width="1.14" stroke-linecap="round"/>
<path d="M148.28 111.02L140.98 106.9V115.34L148.28 111.02Z" fill="#D1DBE0"/>
<path d="M152.76 107.74H173.98" stroke="#D1DBE0" stroke-width="1.14" stroke-linecap="round"/>
<path d="M152.76 111.14H169.04" stroke="#D1DBE0" stroke-width="1.14" stroke-linecap="round"/>
<path d="M152.76 114.54H175.34" stroke="#D1DBE0" stroke-width="1.14" stroke-linecap="round"/>
<path d="M152.76 117.94H167.5" stroke="#D1DBE0" stroke-width="1.14" stroke-linecap="round"/>
<path d="M62.7199 86.62L55.4399 82.5L55.4199 90.94L62.7199 86.62Z" fill="#D1DBE0"/>
<path d="M67.2 83.3401H88.42" stroke="#D1DBE0" stroke-width="1.14" stroke-linecap="round"/>
<path d="M67.2 86.74H77.82" stroke="#D1DBE0" stroke-width="1.14" stroke-linecap="round"/>
<path d="M67.2 90.1399H84.1199" stroke="#D1DBE0" stroke-width="1.14" stroke-linecap="round"/>
<path d="M67.2 93.54H81.96" stroke="#D1DBE0" stroke-width="1.14" stroke-linecap="round"/>
<path d="M105.5 86.62L98.2 82.5V90.94L105.5 86.62Z" fill="#D1DBE0"/>
<path d="M109.98 83.3401H131.2" stroke="#D1DBE0" stroke-width="1.14" stroke-linecap="round"/>
<path d="M109.98 86.74H120.58" stroke="#D1DBE0" stroke-width="1.14" stroke-linecap="round"/>
<path d="M109.98 90.1399H126.9" stroke="#D1DBE0" stroke-width="1.14" stroke-linecap="round"/>
<path d="M109.98 93.54H124.72" stroke="#D1DBE0" stroke-width="1.14" stroke-linecap="round"/>
<path d="M148.28 86.62L140.98 82.5V90.94L148.28 86.62Z" fill="#D1DBE0"/>
<path d="M152.76 83.3401H173.98" stroke="#D1DBE0" stroke-width="1.14" stroke-linecap="round"/>
<path d="M152.76 86.74H169.04" stroke="#D1DBE0" stroke-width="1.14" stroke-linecap="round"/>
<path d="M152.76 90.1399H170.24" stroke="#D1DBE0" stroke-width="1.14" stroke-linecap="round"/>
<path d="M152.76 93.54H173.18" stroke="#D1DBE0" stroke-width="1.14" stroke-linecap="round"/>
<path d="M159.7 50.22H27.4801C23.7025 50.22 20.6401 53.2823 20.6401 57.06V142.64C20.6401 146.418 23.7025 149.48 27.4801 149.48H159.7C163.478 149.48 166.54 146.418 166.54 142.64V57.06C166.54 53.2823 163.478 50.22 159.7 50.22Z" fill="#BEE4F8" stroke="#20378B" stroke-width="1.14" stroke-linejoin="round"/>
<path d="M60.3602 129.58H37.6202C33.7763 129.58 30.6602 132.692 30.6602 136.53C30.6602 140.368 33.7763 143.48 37.6202 143.48H60.3602C64.2041 143.48 67.3202 140.368 67.3202 136.53C67.3202 132.692 64.2041 129.58 60.3602 129.58Z" fill="#BEE4F8" stroke="#20378B" stroke-width="1.14" stroke-linejoin="round"/>
<path d="M60.3602 141.44C63.0664 141.44 65.2602 139.246 65.2602 136.54C65.2602 133.834 63.0664 131.64 60.3602 131.64C57.654 131.64 55.4602 133.834 55.4602 136.54C55.4602 139.246 57.654 141.44 60.3602 141.44Z" fill="white" stroke="#20378B" stroke-width="1.14" stroke-linejoin="round"/>
<path d="M82.2199 143.5H104.96C108.804 143.5 111.92 140.388 111.92 136.55C111.92 132.712 108.804 129.6 104.96 129.6H82.2199C78.376 129.6 75.2599 132.712 75.2599 136.55C75.2599 140.388 78.376 143.5 82.2199 143.5Z" fill="white" stroke="#20378B" stroke-width="1.14" stroke-linejoin="round"/>
<path d="M82.2201 141.44C84.9263 141.44 87.1201 139.246 87.1201 136.54C87.1201 133.834 84.9263 131.64 82.2201 131.64C79.5139 131.64 77.3201 133.834 77.3201 136.54C77.3201 139.246 79.5139 141.44 82.2201 141.44Z" fill="white" stroke="#20378B" stroke-width="1.14" stroke-linejoin="round"/>
<path d="M124.9 143.5H147.64C151.484 143.5 154.6 140.388 154.6 136.55C154.6 132.712 151.484 129.6 147.64 129.6H124.9C121.056 129.6 117.94 132.712 117.94 136.55C117.94 140.388 121.056 143.5 124.9 143.5Z" fill="white" stroke="#20378B" stroke-width="1.14" stroke-linejoin="round"/>
<path d="M124.9 141.44C127.606 141.44 129.8 139.246 129.8 136.54C129.8 133.834 127.606 131.64 124.9 131.64C122.194 131.64 120 133.834 120 136.54C120 139.246 122.194 141.44 124.9 141.44Z" fill="white" stroke="#20378B" stroke-width="1.14" stroke-linejoin="round"/>
<path d="M31.8 92.4597V108.72C31.8 111.44 35.04 113.96 40.98 113.96C46.92 113.96 50.16 111.44 50.16 108.72V92.4597H31.78H31.8Z" fill="white" stroke="#20378B" stroke-width="1.14" stroke-linejoin="round"/>
<path d="M31.8 83.3198V93.0798C31.8 95.7998 35.04 98.3198 40.98 98.3198C46.92 98.3198 50.16 95.7998 50.16 93.0798V83.3198H31.78H31.8Z" fill="#E60032" stroke="#20378B" stroke-width="1.14" stroke-linejoin="round"/>
<path d="M41.0001 88.5598C46.07 88.5598 50.1801 86.2138 50.1801 83.3198C50.1801 80.4259 46.07 78.0798 41.0001 78.0798C35.9301 78.0798 31.8201 80.4259 31.8201 83.3198C31.8201 86.2138 35.9301 88.5598 41.0001 88.5598Z" fill="#E60032" stroke="#20378B" stroke-width="1.14" stroke-miterlimit="10"/>
<path d="M76.72 43.3398V85.8199C76.72 89.1199 80.68 92.1999 87.92 92.1999C95.16 92.1999 99.12 89.1199 99.12 85.8199V43.3398H76.74H76.72Z" fill="white" stroke="#20378B" stroke-width="1.14" stroke-linejoin="round"/>
<path d="M76.72 15.2197V44.1197C76.72 47.4197 80.68 50.4997 87.92 50.4997C95.16 50.4997 99.12 47.4197 99.12 44.1197V15.2197H76.74H76.72Z" fill="#E60032" stroke="#20378B" stroke-width="1.14" stroke-linejoin="round"/>
<path d="M87.92 21.5998C94.1056 21.5998 99.12 18.7434 99.12 15.2198C99.12 11.6963 94.1056 8.83984 87.92 8.83984C81.7344 8.83984 76.72 11.6963 76.72 15.2198C76.72 18.7434 81.7344 21.5998 87.92 21.5998Z" fill="#E60032" stroke="#20378B" stroke-width="1.14" stroke-miterlimit="10"/>
<path d="M130.08 77.48V83.7C130.08 87 134.04 90.08 141.28 90.08C148.52 90.08 152.48 87 152.48 83.7V77.48H130.1H130.08Z" fill="white" stroke="#20378B" stroke-width="1.14" stroke-linejoin="round"/>
<path d="M141.28 83.8599C147.466 83.8599 152.48 81.0034 152.48 77.4799C152.48 73.9563 147.466 71.0999 141.28 71.0999C135.094 71.0999 130.08 73.9563 130.08 77.4799C130.08 81.0034 135.094 83.8599 141.28 83.8599Z" fill="white" stroke="#20378B" stroke-width="1.14" stroke-miterlimit="10"/>
<path d="M110.04 30.4597V79.5197C110.04 82.2397 113.28 84.7597 119.22 84.7597C125.16 84.7597 128.4 82.2397 128.4 79.5197V30.4597H110.02H110.04Z" fill="white" stroke="#20378B" stroke-width="1.14" stroke-linejoin="round"/>
<path d="M110.04 21.5398V31.0998C110.04 33.8198 113.28 36.3398 119.22 36.3398C125.16 36.3398 128.4 33.8198 128.4 31.0998V21.5398H110.02H110.04Z" fill="#E60032" stroke="#20378B" stroke-width="1.14" stroke-linejoin="round"/>
<path d="M119.22 26.7798C124.29 26.7798 128.4 24.4338 128.4 21.5398C128.4 18.6458 124.29 16.2998 119.22 16.2998C114.15 16.2998 110.04 18.6458 110.04 21.5398C110.04 24.4338 114.15 26.7798 119.22 26.7798Z" fill="#E60032" stroke="#20378B" stroke-width="1.14" stroke-miterlimit="10"/>
<path d="M48.8 109.08V118.84C48.8 121.56 52.04 124.08 57.98 124.08C63.92 124.08 67.16 121.56 67.16 118.84V109.08H48.78H48.8Z" fill="white" stroke="#20378B" stroke-width="1.14" stroke-linejoin="round"/>
<path d="M58.0001 114.32C63.07 114.32 67.1801 111.974 67.1801 109.08C67.1801 106.186 63.07 103.84 58.0001 103.84C52.9301 103.84 48.8201 106.186 48.8201 109.08C48.8201 111.974 52.9301 114.32 58.0001 114.32Z" fill="white" stroke="#20378B" stroke-width="1.14" stroke-miterlimit="10"/>
<path d="M63.98 82.8398V92.5998C63.98 95.3198 67.22 97.8398 73.16 97.8398C79.1 97.8398 82.34 95.3198 82.34 92.5998V82.8398H63.96H63.98Z" fill="white" stroke="#20378B" stroke-width="1.14" stroke-linejoin="round"/>
<path d="M73.16 88.0799C78.23 88.0799 82.34 85.7338 82.34 82.8399C82.34 79.9459 78.23 77.5999 73.16 77.5999C68.09 77.5999 63.98 79.9459 63.98 82.8399C63.98 85.7338 68.09 88.0799 73.16 88.0799Z" fill="white" stroke="#20378B" stroke-width="1.14" stroke-miterlimit="10"/>
<path d="M115.58 72.9998V99.7798C115.58 102.5 118.82 105.02 124.76 105.02C130.7 105.02 133.94 102.5 133.94 99.7798V72.9998H115.56H115.58Z" fill="white" stroke="#20378B" stroke-width="1.14" stroke-linejoin="round"/>
<path d="M124.76 78.2398C129.83 78.2398 133.94 75.8937 133.94 72.9998C133.94 70.1058 129.83 67.7598 124.76 67.7598C119.69 67.7598 115.58 70.1058 115.58 72.9998C115.58 75.8937 119.69 78.2398 124.76 78.2398Z" fill="white" stroke="#20378B" stroke-width="1.14" stroke-miterlimit="10"/>
<path d="M127.12 98.5198V113.96C127.12 116.68 130.36 119.2 136.3 119.2C142.24 119.2 145.48 116.68 145.48 113.96V98.5198H127.1H127.12Z" fill="white" stroke="#20378B" stroke-width="1.14" stroke-linejoin="round"/>
<path d="M136.3 103.76C141.37 103.76 145.48 101.414 145.48 98.5198C145.48 95.6258 141.37 93.2798 136.3 93.2798C131.23 93.2798 127.12 95.6258 127.12 98.5198C127.12 101.414 131.23 103.76 136.3 103.76Z" fill="white" stroke="#20378B" stroke-width="1.14" stroke-miterlimit="10"/>
<path d="M87.5801 97.9597V113.92C87.5801 118.26 92.7601 122.28 102.24 122.28C111.72 122.28 116.9 118.24 116.9 113.92V97.9597H87.6001H87.5801Z" fill="white" stroke="#20378B" stroke-width="1.14" stroke-linejoin="round"/>
<path d="M87.5801 92.8799V98.9799C87.5801 103.32 92.7601 107.34 102.24 107.34C111.72 107.34 116.9 103.3 116.9 98.9799V92.8799H87.6001H87.5801Z" fill="#E60032" stroke="#20378B" stroke-width="1.14" stroke-linejoin="round"/>
<path d="M102.24 101.24C110.337 101.24 116.9 97.4969 116.9 92.8798C116.9 88.2627 110.337 84.5198 102.24 84.5198C94.1436 84.5198 87.5801 88.2627 87.5801 92.8798C87.5801 97.4969 94.1436 101.24 102.24 101.24Z" fill="#E60032" stroke="#20378B" stroke-width="1.14" stroke-miterlimit="10"/>
</svg>
