<svg width="40" height="40" viewBox="0 0 95 88" fill="none" xmlns="http://www.w3.org/2000/svg">
<path d="M33.0253 86.1089L3.10879 56.1923C1.71175 54.7953 0.943383 52.8793 1.00326 50.9035L1.39243 36.6737C1.4523 34.658 3.06887 33.0314 5.09458 32.9716L19.3244 32.5824C21.3002 32.5325 23.2161 33.2909 24.6132 34.6879L54.5297 64.6045C56.0166 66.0913 56.0166 68.4962 54.5297 69.9831L38.4039 86.1089C36.9171 87.5957 34.5122 87.5957 33.0253 86.1089ZM13.8859 45.4651C15.0036 44.3474 15.0036 42.5313 13.8859 41.4137C12.7683 40.296 10.9522 40.296 9.83452 41.4137C8.71689 42.5313 8.71689 44.3474 9.83452 45.4651C10.9522 46.5827 12.7683 46.5827 13.8859 45.4651Z" fill="#1E3791" stroke="white"/>
<path d="M71.1844 35.3264L45.8681 60.6427C45.459 61.0518 45.1696 61.5608 45.0399 62.1196L43.2637 69.3343L50.4784 67.558C51.0372 67.4183 51.5461 67.129 51.9552 66.7298L77.2715 41.4135C77.97 40.715 77.97 39.5874 77.2715 38.8889L73.7191 35.3364C73.0206 34.6379 71.8929 34.6379 71.1944 35.3364H71.1844V35.3264Z" fill="#E1E1E1"/>
<mask id="mask0_1514_10888" style="mask-type:luminance" maskUnits="userSpaceOnUse" x="43" y="34" width="35" height="36">
<path d="M71.1844 35.3264L45.8681 60.6427C45.459 61.0518 45.1696 61.5608 45.0399 62.1196L43.2637 69.3343L50.4784 67.558C51.0372 67.4183 51.5461 67.129 51.9552 66.7298L77.2715 41.4135C77.97 40.715 77.97 39.5874 77.2715 38.8889L73.7191 35.3364C73.0206 34.6379 71.8929 34.6379 71.1944 35.3364H71.1844V35.3264Z" fill="white"/>
</mask>
<g mask="url(#mask0_1514_10888)">
<path d="M41.7817 63.2862L36.5249 68.543L43.8774 75.8954L49.1342 70.6386L41.7817 63.2862Z" fill="#1E3791" stroke="#1E3791" stroke-width="0.987904" stroke-linecap="round" stroke-linejoin="round"/>
<path d="M66.7912 38.17L45.51 59.4512L54.0832 68.0243L75.3644 46.7431L66.7912 38.17Z" fill="#B6E6FA" stroke="#1E3791" stroke-width="0.568793" stroke-linecap="round" stroke-linejoin="round"/>
<path d="M69.0646 40.4463L47.7834 61.7275L51.0716 65.0157L72.3528 43.7345L69.0646 40.4463Z" stroke="#1E3791" stroke-width="0.568793" stroke-linecap="round" stroke-linejoin="round"/>
<path d="M72.9486 32.4504L67.0073 38.3916L74.9243 46.3085L80.8655 40.3673L72.9486 32.4504Z" fill="#E60032" stroke="#1E3791" stroke-width="0.708497" stroke-linecap="round" stroke-linejoin="round"/>
<path d="M68.6489 36.8596L67.0613 38.4473L75.0841 46.4701L76.6717 44.8824L68.6489 36.8596Z" fill="white" stroke="#1E3791" stroke-width="0.568793" stroke-linecap="round" stroke-linejoin="round"/>
</g>
<path d="M71.1844 35.3264L45.8681 60.6427C45.459 61.0518 45.1696 61.5608 45.0399 62.1196L43.2637 69.3343L50.4784 67.558C51.0372 67.4183 51.5461 67.129 51.9552 66.7298L77.2715 41.4135C77.97 40.715 77.97 39.5874 77.2715 38.8889L73.7191 35.3364C73.0206 34.6379 71.8929 34.6379 71.1944 35.3364H71.1844V35.3264Z" stroke="#1E3791" stroke-width="0.568793" stroke-linecap="round" stroke-linejoin="round"/>
<path d="M36.7475 75.9712L6.83096 46.0546C5.43392 44.6576 4.66555 42.7416 4.72542 40.7658L5.1146 26.536C5.17447 24.5203 6.79104 22.8937 8.81674 22.8339L23.0466 22.4447C25.0224 22.3948 26.9383 23.1532 28.3353 24.5502L58.2519 54.4668C59.7387 55.9536 59.7387 58.3585 58.2519 59.8454L42.1261 75.9712C40.6392 77.458 38.2343 77.458 36.7475 75.9712ZM17.6081 35.3274C18.7257 34.2097 18.7257 32.3936 17.6081 31.276C16.4905 30.1583 14.6743 30.1583 13.5567 31.276C12.4391 32.3936 12.4391 34.2097 13.5567 35.3274C14.6743 36.445 16.4905 36.445 17.6081 35.3274Z" fill="#E60032" stroke="#1E3791" stroke-width="0.568793" stroke-linecap="round" stroke-linejoin="round"/>
<path d="M47.7441 78.4253L17.8275 48.5087C16.4305 47.1117 15.6621 45.1957 15.722 43.2199L16.1112 28.9901C16.1711 26.9744 17.7876 25.3478 19.8133 25.288L34.0431 24.8988C36.019 24.8489 37.9349 25.6073 39.3319 27.0043L69.2485 56.9209C70.7353 58.4077 70.7353 60.8126 69.2485 62.2995L53.1227 78.4253C51.6358 79.9121 49.2309 79.9121 47.7441 78.4253ZM28.6047 37.7815C29.7223 36.6638 29.7223 34.8477 28.6047 33.7301C27.4871 32.6124 25.6709 32.6124 24.5533 33.7301C23.4356 34.8477 23.4356 36.6638 24.5533 37.7815C25.6709 38.8991 27.4871 38.8991 28.6047 37.7815Z" fill="white" stroke="#1E3791" stroke-width="0.568793" stroke-linecap="round" stroke-linejoin="round"/>
<path d="M71.1844 35.3264L45.8681 60.6427C45.459 61.0518 45.1696 61.5608 45.0399 62.1196L43.2637 69.3343L50.4784 67.558C51.0372 67.4183 51.5461 67.129 51.9552 66.7298L77.2715 41.4135C77.97 40.715 77.97 39.5874 77.2715 38.8889L73.7191 35.3364C73.0206 34.6379 71.8929 34.6379 71.1944 35.3364H71.1844V35.3264Z" fill="#E1E1E1"/>
<mask id="mask1_1514_10888" style="mask-type:luminance" maskUnits="userSpaceOnUse" x="43" y="34" width="35" height="36">
<path d="M71.1844 35.3264L45.8681 60.6427C45.459 61.0518 45.1696 61.5608 45.0399 62.1196L43.2637 69.3343L50.4784 67.558C51.0372 67.4183 51.5461 67.129 51.9552 66.7298L77.2715 41.4135C77.97 40.715 77.97 39.5874 77.2715 38.8889L73.7191 35.3364C73.0206 34.6379 71.8929 34.6379 71.1944 35.3364H71.1844V35.3264Z" fill="white"/>
</mask>
<g mask="url(#mask1_1514_10888)">
<path d="M41.7817 63.2862L36.5249 68.543L43.8774 75.8954L49.1342 70.6386L41.7817 63.2862Z" fill="#1E3791" stroke="#1E3791" stroke-width="0.987904" stroke-linecap="round" stroke-linejoin="round"/>
<path d="M66.7912 38.17L45.51 59.4512L54.0832 68.0243L75.3644 46.7431L66.7912 38.17Z" fill="#B6E6FA" stroke="#1E3791" stroke-width="0.568793" stroke-linecap="round" stroke-linejoin="round"/>
<path d="M69.0646 40.4463L47.7834 61.7275L51.0716 65.0157L72.3528 43.7345L69.0646 40.4463Z" stroke="#1E3791" stroke-width="0.568793" stroke-linecap="round" stroke-linejoin="round"/>
<path d="M72.9486 32.4504L67.0073 38.3916L74.9243 46.3085L80.8655 40.3673L72.9486 32.4504Z" fill="#E60032" stroke="#1E3791" stroke-width="0.708497" stroke-linecap="round" stroke-linejoin="round"/>
<path d="M68.6489 36.8596L67.0613 38.4473L75.0841 46.4701L76.6717 44.8824L68.6489 36.8596Z" fill="white" stroke="#1E3791" stroke-width="0.568793" stroke-linecap="round" stroke-linejoin="round"/>
</g>
<path d="M71.1844 35.3264L45.8681 60.6427C45.459 61.0518 45.1696 61.5608 45.0399 62.1196L43.2637 69.3343L50.4784 67.558C51.0372 67.4183 51.5461 67.129 51.9552 66.7298L77.2715 41.4135C77.97 40.715 77.97 39.5874 77.2715 38.8889L73.7191 35.3364C73.0206 34.6379 71.8929 34.6379 71.1944 35.3364H71.1844V35.3264Z" stroke="#1E3791" stroke-width="0.568793" stroke-linecap="round" stroke-linejoin="round"/>
<path d="M64.7381 11.1387H37.8052C33.0453 11.1387 29.1536 15.0304 29.1536 19.7903C29.1536 24.5502 33.0054 28.4021 37.7354 28.442L38.7033 33.5711L41.8466 28.4519H64.758C69.5179 28.4519 73.4097 24.5602 73.4097 19.8003C73.4097 15.0404 69.5179 11.1487 64.758 11.1487H64.7381V11.1387Z" fill="#B6E6FA"/>
<path d="M64.7381 11.1387H37.8052C33.0453 11.1387 29.1536 15.0304 29.1536 19.7903C29.1536 24.5502 33.0054 28.4021 37.7354 28.442L38.7033 33.5711L41.8466 28.4519H64.758C69.5179 28.4519 73.4097 24.5602 73.4097 19.8003C73.4097 15.0404 69.5179 11.1487 64.758 11.1487H64.7381V11.1387Z" stroke="#1E3791" stroke-width="0.568793" stroke-linecap="round" stroke-linejoin="round"/>
<path d="M44.2517 18.2133L41.5973 20.3987L42.4655 23.7216L39.5716 21.8756L36.6778 23.7216L37.536 20.3987L34.8816 18.2133L38.3143 18.0138L39.5716 14.8105L40.819 18.0138L44.2517 18.2133Z" fill="#E60032" stroke="#1E3791" stroke-width="0.568793" stroke-linecap="round" stroke-linejoin="round"/>
<path d="M56.0564 18.2133L53.402 20.3987L54.2702 23.7216L51.3763 21.8756L48.4825 23.7216L49.3406 20.3987L46.6863 18.2133L50.119 18.0138L51.3763 14.8105L52.6237 18.0138L56.0564 18.2133Z" fill="#E60032" stroke="#1E3791" stroke-width="0.568793" stroke-linecap="round" stroke-linejoin="round"/>
<path d="M67.8616 18.2133L65.2072 20.3987L66.0754 23.7216L63.1815 21.8756L60.2876 23.7216L61.1458 20.3987L58.4915 18.2133L61.9242 18.0138L63.1815 14.8105L64.4388 18.0138L67.8616 18.2133Z" stroke="#1E3791" stroke-width="0.568793" stroke-linejoin="round"/>
<path d="M31.2092 14.4116C34.9127 14.4116 37.915 11.4093 37.915 7.70578C37.915 4.00228 34.9127 1 31.2092 1C27.5057 1 24.5034 4.00228 24.5034 7.70578C24.5034 11.4093 27.5057 14.4116 31.2092 14.4116Z" fill="white" stroke="#1E3791" stroke-width="0.568793" stroke-linecap="round" stroke-linejoin="round"/>
<path d="M28.1257 8.20493L30.7701 10.7296L33.3846 4.69238" fill="white"/>
<path d="M28.1257 8.20493L30.7701 10.7296L33.3846 4.69238" stroke="#1E3791" stroke-width="0.568793" stroke-linecap="round" stroke-linejoin="round"/>
<path d="M27.1179 45.0566L41.5773 59.516" stroke="#1E3791" stroke-width="0.568793" stroke-linecap="round"/>
<path d="M30.9397 41.2344L42.3655 52.6601" stroke="#1E3791" stroke-width="0.568793" stroke-linecap="round"/>
<path d="M34.7717 37.4131L51.9353 54.5767" stroke="#1E3791" stroke-width="0.568793" stroke-linecap="round"/>
<path d="M64.7381 11.1387H37.8052C33.0453 11.1387 29.1536 15.0304 29.1536 19.7903C29.1536 24.5502 33.0054 28.4021 37.7354 28.442L38.7033 33.5711L41.8466 28.4519H64.758C69.5179 28.4519 73.4097 24.5602 73.4097 19.8003C73.4097 15.0404 69.5179 11.1487 64.758 11.1487H64.7381V11.1387Z" fill="#B6E6FA"/>
<path d="M64.7381 11.1387H37.8052C33.0453 11.1387 29.1536 15.0304 29.1536 19.7903C29.1536 24.5502 33.0054 28.4021 37.7354 28.442L38.7033 33.5711L41.8466 28.4519H64.758C69.5179 28.4519 73.4097 24.5602 73.4097 19.8003C73.4097 15.0404 69.5179 11.1487 64.758 11.1487H64.7381V11.1387Z" stroke="#1E3791" stroke-width="0.568793" stroke-linecap="round" stroke-linejoin="round"/>
<path d="M44.2517 18.2133L41.5973 20.3987L42.4655 23.7216L39.5716 21.8756L36.6778 23.7216L37.536 20.3987L34.8816 18.2133L38.3143 18.0138L39.5716 14.8105L40.819 18.0138L44.2517 18.2133Z" fill="white" stroke="#1E3791" stroke-width="0.568793" stroke-linecap="round" stroke-linejoin="round"/>
<path d="M56.0564 18.2133L53.402 20.3987L54.2702 23.7216L51.3763 21.8756L48.4825 23.7216L49.3406 20.3987L46.6863 18.2133L50.119 18.0138L51.3763 14.8105L52.6237 18.0138L56.0564 18.2133Z" fill="white" stroke="#1E3791" stroke-width="0.568793" stroke-linecap="round" stroke-linejoin="round"/>
<path d="M67.8616 18.2133L65.2072 20.3987L66.0754 23.7216L63.1815 21.8756L60.2876 23.7216L61.1458 20.3987L58.4915 18.2133L61.9242 18.0138L63.1815 14.8105L64.4388 18.0138L67.8616 18.2133Z" stroke="#1E3791" stroke-width="0.568793" stroke-linejoin="round"/>
<path d="M31.2092 14.4116C34.9127 14.4116 37.915 11.4093 37.915 7.70578C37.915 4.00228 34.9127 1 31.2092 1C27.5057 1 24.5034 4.00228 24.5034 7.70578C24.5034 11.4093 27.5057 14.4116 31.2092 14.4116Z" fill="white" stroke="#1E3791" stroke-width="0.568793" stroke-linecap="round" stroke-linejoin="round"/>
<path d="M28.1257 8.20493L30.7701 10.7296L33.3846 4.69238" fill="white"/>
<path d="M28.1257 8.20493L30.7701 10.7296L33.3846 4.69238" stroke="#1E3791" stroke-width="0.568793" stroke-linecap="round" stroke-linejoin="round"/>
<path d="M27.1179 45.0566L41.5773 59.516" stroke="#1E3791" stroke-width="0.568793" stroke-linecap="round"/>
<path d="M30.9397 41.2344L42.3655 52.6601" stroke="#1E3791" stroke-width="0.568793" stroke-linecap="round"/>
<path d="M34.7717 37.4131L51.9353 54.5767" stroke="#1E3791" stroke-width="0.568793" stroke-linecap="round"/>
</svg>
