<svg width="199" height="199" viewBox="0 0 199 199" fill="none" xmlns="http://www.w3.org/2000/svg">
<path d="M186.26 103.76H186.3L184.26 99.2197L181.28 100.84C181.28 100.84 181.24 100.84 181.22 100.84H55.2403C50.9003 100.84 46.0404 104.3 44.4804 108.54L21.8404 169.64L19.3604 170.98L21.4004 175.5H21.4404C22.2404 177.24 24.0204 178.4 26.5004 178.4H152.46C156.8 178.4 161.66 174.94 163.22 170.7L186.26 108.54C186.94 106.72 186.86 105.08 186.26 103.74V103.76Z" fill="white" stroke="white" stroke-width="7" stroke-linejoin="round"/>
<path d="M161.18 166.18C159.6 170.42 154.76 173.88 150.42 173.88H24.4603C20.1003 173.88 17.8403 170.42 19.4003 166.18L42.4403 104.02C44.0203 99.7798 48.8603 96.3198 53.2003 96.3198H179.16C183.52 96.3198 185.78 99.7798 184.22 104.02L161.18 166.18Z" fill="white" stroke="white" stroke-width="7" stroke-linejoin="round"/>
<path d="M161.18 166.18C159.6 170.42 154.76 173.88 150.42 173.88H24.4603C20.1003 173.88 17.8403 170.42 19.4003 166.18L42.4403 104.02C44.0203 99.7798 48.8603 96.3198 53.2003 96.3198H179.16C183.52 96.3198 185.78 99.7798 184.22 104.02L161.18 166.18Z" fill="white" stroke="white" stroke-width="7" stroke-linejoin="round"/>
<path d="M149.1 173.88H25.2402L54.0002 96.3198H177.84L149.1 173.88Z" fill="white" stroke="white" stroke-width="7" stroke-linejoin="round"/>
<path d="M48.3002 163.26C64.6589 163.26 77.9202 149.999 77.9202 133.64C77.9202 117.281 64.6589 104.02 48.3002 104.02C31.9415 104.02 18.6802 117.281 18.6802 133.64C18.6802 149.999 31.9415 163.26 48.3002 163.26Z" fill="white" stroke="white" stroke-width="7" stroke-miterlimit="10" stroke-linejoin="round"/>
<path d="M48.3003 133.64L77.8803 135.4C77.9203 134.82 77.9403 134.22 77.9403 133.64C77.9403 127.2 75.8403 120.92 71.9403 115.78L48.3203 133.64H48.3003Z" fill="white" stroke="white" stroke-width="7" stroke-miterlimit="10" stroke-linejoin="round"/>
<path d="M48.3002 133.64L49.6802 104.04C49.2202 104.02 48.7602 104 48.3002 104C32.0402 104 18.6802 117.38 18.6802 133.62C18.6802 143.3 23.4202 152.4 31.3602 157.92L48.3002 133.62V133.64Z" fill="white" stroke="white" stroke-width="7" stroke-miterlimit="10" stroke-linejoin="round"/>
<path d="M48.3003 133.64L73.1803 117.54C70.5603 113.5 67.0003 110.14 62.7803 107.8C58.5803 105.44 53.8603 104.16 49.0403 104.02L48.3003 133.64Z" fill="white" stroke="white" stroke-width="7" stroke-miterlimit="10" stroke-linejoin="round"/>
<path d="M48.3001 143.58C53.7898 143.58 58.2401 139.13 58.2401 133.64C58.2401 128.15 53.7898 123.7 48.3001 123.7C42.8104 123.7 38.3601 128.15 38.3601 133.64C38.3601 139.13 42.8104 143.58 48.3001 143.58Z" fill="white" stroke="white" stroke-width="7" stroke-linecap="round" stroke-linejoin="round"/>
<mask id="mask0_110_1756" style="mask-type:luminance" maskUnits="userSpaceOnUse" x="68" y="71" width="112" height="106">
<path d="M148.14 176.52L68.2603 176.62L74.6403 90.74L132.76 71.3L179.96 90.64L148.14 176.52Z" fill="white"/>
</mask>
<g mask="url(#mask0_110_1756)">
<path d="M99.1003 134.16H81.7603V163.34H99.1003V134.16Z" fill="white" stroke="white" stroke-width="7" stroke-linejoin="round"/>
<path d="M99.1003 145.52H81.7603V163.34H99.1003V145.52Z" fill="white" stroke="white" stroke-width="7" stroke-linejoin="round"/>
<path d="M120.36 114.52H103.02V163.34H120.36V114.52Z" fill="white" stroke="white" stroke-width="7" stroke-linejoin="round"/>
<path d="M120.36 140.7H103.02V163.34H120.36V140.7Z" fill="white" stroke="white" stroke-width="7" stroke-linejoin="round"/>
<path d="M141.62 97.4402H124.28V163.34H141.62V97.4402Z" fill="white" stroke="white" stroke-width="7" stroke-linejoin="round"/>
<path d="M141.62 85.5801H124.28V97.4401H141.62V85.5801Z" fill="white" stroke="white" stroke-width="7" stroke-linejoin="round"/>
<path d="M141.62 131.84H124.28V163.34H141.62V131.84Z" fill="white" stroke="white" stroke-width="7" stroke-linejoin="round"/>
<path d="M162.9 115.7H145.56V163.34H162.9V115.7Z" fill="white" stroke="white" stroke-width="7" stroke-linejoin="round"/>
<path d="M162.9 106.26H145.56V115.7H162.9V106.26Z" fill="white" stroke="white" stroke-width="7" stroke-linejoin="round"/>
<path d="M162.9 139.06H145.56V163.34H162.9V139.06Z" fill="white" stroke="white" stroke-width="7" stroke-linejoin="round"/>
</g>
<path d="M165.84 128.74L150.84 169.22" stroke="white" stroke-width="7" stroke-linejoin="round"/>
<path d="M93.7401 29.0199C76.0001 26.8999 59.8801 39.5599 57.7601 57.2999C55.6401 75.0399 68.3001 91.1599 86.0401 93.2799C89.7601 93.7199 93.3801 93.4799 96.8401 92.7199L108.56 102.14L108.16 87.8199C115.58 82.7399 120.88 74.6199 122.04 64.9799C124.16 47.2399 111.5 31.1199 93.7601 28.9999L93.7401 29.0199Z" fill="white"/>
<path d="M93.7401 29.0199C76.0001 26.8999 59.8801 39.5599 57.7601 57.2999C55.6401 75.0399 68.3001 91.1599 86.0401 93.2799C89.7601 93.7199 93.3801 93.4799 96.8401 92.7199L108.56 102.14L108.16 87.8199C115.58 82.7399 120.88 74.6199 122.04 64.9799C124.16 47.2399 111.5 31.1199 93.7601 28.9999L93.7401 29.0199Z" stroke="white" stroke-width="7" stroke-linejoin="round"/>
<path d="M89.7803 83.2798C88.5403 83.2798 87.4803 82.8398 86.6003 81.9398C85.7003 81.0598 85.2603 79.9798 85.2603 78.7598C85.2603 77.5398 85.7003 76.4598 86.6003 75.5798C87.4803 74.6998 88.5603 74.2398 89.7803 74.2398C91.0003 74.2398 92.0803 74.6798 92.9603 75.5798C93.8403 76.4798 94.3003 77.5398 94.3003 78.7598C94.3003 79.9798 93.8603 81.0598 92.9603 81.9398C92.0603 82.8198 91.0003 83.2798 89.7803 83.2798ZM85.5003 39.3198H94.0003V47.1598L92.1803 69.0798H87.3203L85.5003 47.1598V39.3198Z" fill="white"/>
<path d="M46.6001 54.8799H42.1601V52.4799C42.1601 51.4399 42.2801 50.6599 42.5401 50.1399C42.7801 49.6199 43.3401 48.9599 44.1801 48.1199L47.0401 45.2599C47.6401 44.5999 47.9401 43.7999 47.9401 42.8199C47.9401 41.8399 47.6201 41.0399 47.0001 40.3999C46.3801 39.7599 45.5601 39.4399 44.5601 39.4399C43.5601 39.4399 42.7401 39.7399 42.0601 40.3599C41.3801 40.9799 41.0001 41.7999 40.9001 42.8199H36.1401C36.4001 40.4799 37.3201 38.6599 38.8801 37.3399C40.4401 36.0199 42.3801 35.3599 44.7201 35.3599C47.0601 35.3599 48.9601 35.9999 50.4201 37.2599C51.8801 38.5199 52.6201 40.2999 52.6201 42.5799C52.6201 44.1599 52.1801 45.4599 51.3201 46.4999C50.8201 47.1199 50.4401 47.5799 50.1801 47.8399C49.9201 48.0999 49.5801 48.4399 49.1401 48.8399C48.7001 49.2399 48.3401 49.5999 48.0401 49.8999C47.7401 50.1999 47.5001 50.4599 47.3201 50.6599C46.8401 51.2399 46.6201 52.0399 46.6201 53.0999V54.8599L46.6001 54.8799ZM44.4601 63.5999C43.6401 63.5999 42.9201 63.3199 42.3201 62.7599C41.7201 62.1999 41.4201 61.5199 41.4201 60.7199C41.4201 59.9199 41.7201 59.2399 42.3001 58.6599C42.9001 58.0799 43.6001 57.7999 44.4201 57.7999C45.2401 57.7999 45.9601 58.0799 46.5601 58.6399C47.1601 59.1999 47.4601 59.8799 47.4601 60.6799C47.4601 61.4799 47.1601 62.1599 46.5801 62.7399C46.0001 63.3199 45.2801 63.5999 44.4601 63.5999Z" fill="white"/>
<path d="M139.2 101.86V55.82L155.14 49.72L176 60.18L173.58 76.1C173.26 78.24 172.58 80.5 171.66 82.46L167.7 89.14C166.88 90.52 166.46 92.08 166.46 93.68V103.38" fill="white"/>
<path d="M139.2 101.86V55.82L155.14 49.72L176 60.18L173.58 76.1C173.26 78.24 172.58 80.5 171.66 82.46L167.7 89.14C166.88 90.52 166.46 92.08 166.46 93.68V103.38" stroke="#20378B" stroke-width="1.14" stroke-linecap="round" stroke-linejoin="round"/>
<path d="M156.38 54.86L161.94 19.78C162.38 17.04 160.5 14.48 157.76 14.04C155.06 13.62 152.52 15.42 152.04 18.12L145.82 53.2" fill="white"/>
<path d="M156.38 54.86L161.94 19.78C162.38 17.04 160.5 14.48 157.76 14.04C155.06 13.62 152.52 15.42 152.04 18.12L145.82 53.2" stroke="#20378B" stroke-width="1.14" stroke-linecap="round" stroke-linejoin="round"/>
<path d="M144.5 53.16L138.24 18.2C137.76 15.48 135.14 13.66 132.42 14.14C129.72 14.62 127.92 17.18 128.34 19.88L133.98 55.06" fill="white"/>
<path d="M144.5 53.16L138.24 18.2C137.76 15.48 135.14 13.66 132.42 14.14C129.72 14.62 127.92 17.18 128.34 19.88L133.98 55.06" stroke="#20378B" stroke-width="1.14" stroke-linecap="round" stroke-linejoin="round"/>
<path d="M163.468 44.2828L163.449 44.2797C160.645 43.8356 158.012 45.7485 157.568 48.5523L155.015 64.6714C154.571 67.4752 156.484 70.1081 159.287 70.5522L159.307 70.5553C162.111 70.9994 164.744 69.0865 165.188 66.2827L167.741 50.1636C168.185 47.3598 166.272 44.7269 163.468 44.2828Z" fill="white" stroke="#20378B" stroke-width="1.14" stroke-linecap="round" stroke-linejoin="round"/>
<path d="M172.911 49.1133L172.733 49.0852C170.126 48.6722 167.677 50.4511 167.264 53.0586L165.252 65.7602C164.839 68.3676 166.618 70.8162 169.226 71.2291L169.404 71.2573C172.011 71.6703 174.46 69.8913 174.873 67.2839L176.884 54.5822C177.297 51.9748 175.518 49.5263 172.911 49.1133Z" fill="white" stroke="#20378B" stroke-width="1.14" stroke-linecap="round" stroke-linejoin="round"/>
<path d="M152.32 75.52C150.14 70.08 148.12 66.14 142.42 61.82L143.3 56.7L150.72 56.4C155.36 56.22 159.02 52.4 159.02 47.76V47.22H138.54C136.52 47.22 134.7 48.46 133.96 50.34L127.94 65.82C127.18 67.74 127.3 69.9 128.22 71.76L137.82 86.94C138.72 88.36 139.2 90.02 139.2 91.72V103.38" fill="white"/>
<path d="M152.32 75.52C150.14 70.08 148.12 66.14 142.42 61.82L143.3 56.7L150.72 56.4C155.36 56.22 159.02 52.4 159.02 47.76V47.22H138.54C136.52 47.22 134.7 48.46 133.96 50.34L127.94 65.82C127.18 67.74 127.3 69.9 128.22 71.76L137.82 86.94C138.72 88.36 139.2 90.02 139.2 91.72V103.38" stroke="#20378B" stroke-width="1.14" stroke-linecap="round" stroke-linejoin="round"/>
<path d="M186.26 103.76H186.3L184.26 99.2197L181.28 100.84C181.28 100.84 181.24 100.84 181.22 100.84H55.2403C50.9003 100.84 46.0404 104.3 44.4804 108.54L21.8404 169.64L19.3604 170.98L21.4004 175.5H21.4404C22.2404 177.24 24.0204 178.4 26.5004 178.4H152.46C156.8 178.4 161.66 174.94 163.22 170.7L186.26 108.54C186.94 106.72 186.86 105.08 186.26 103.74V103.76Z" fill="#BEE4F8" stroke="#20378B" stroke-width="1.14"/>
<path d="M161.18 166.18C159.6 170.42 154.76 173.88 150.42 173.88H24.4603C20.1003 173.88 17.8403 170.42 19.4003 166.18L42.4403 104.02C44.0203 99.7798 48.8603 96.3198 53.2003 96.3198H179.16C183.52 96.3198 185.78 99.7798 184.22 104.02L161.18 166.18Z" fill="white" stroke="#20378B" stroke-width="1.14"/>
<path d="M161.18 166.18C159.6 170.42 154.76 173.88 150.42 173.88H24.4603C20.1003 173.88 17.8403 170.42 19.4003 166.18L42.4403 104.02C44.0203 99.7798 48.8603 96.3198 53.2003 96.3198H179.16C183.52 96.3198 185.78 99.7798 184.22 104.02L161.18 166.18Z" fill="#BEE4F8" stroke="#20378B" stroke-width="1.14"/>
<path d="M149.1 173.88H25.2402L54.0002 96.3198H177.84L149.1 173.88Z" fill="#20378B" stroke="#20378B" stroke-width="1.14"/>
<path d="M48.3002 163.26C64.6589 163.26 77.9202 149.999 77.9202 133.64C77.9202 117.281 64.6589 104.02 48.3002 104.02C31.9415 104.02 18.6802 117.281 18.6802 133.64C18.6802 149.999 31.9415 163.26 48.3002 163.26Z" fill="#BEE4F8" stroke="#20378B" stroke-width="1.14" stroke-miterlimit="10"/>
<path d="M48.3003 133.64L77.8803 135.4C77.9203 134.82 77.9403 134.22 77.9403 133.64C77.9403 127.2 75.8403 120.92 71.9403 115.78L48.3203 133.64H48.3003Z" fill="white" stroke="#20378B" stroke-width="1.14" stroke-miterlimit="10"/>
<path d="M48.3002 133.64L49.6802 104.04C49.2202 104.02 48.7602 104 48.3002 104C32.0402 104 18.6802 117.38 18.6802 133.62C18.6802 143.3 23.4202 152.4 31.3602 157.92L48.3002 133.62V133.64Z" fill="white" stroke="#20378B" stroke-width="1.14" stroke-miterlimit="10"/>
<path d="M48.3003 133.64L73.1803 117.54C70.5603 113.5 67.0003 110.14 62.7803 107.8C58.5803 105.44 53.8603 104.16 49.0403 104.02L48.3003 133.64Z" fill="#E60032" stroke="#20378B" stroke-width="1.14" stroke-miterlimit="10"/>
<path d="M48.3001 143.58C53.7898 143.58 58.2401 139.13 58.2401 133.64C58.2401 128.15 53.7898 123.7 48.3001 123.7C42.8104 123.7 38.3601 128.15 38.3601 133.64C38.3601 139.13 42.8104 143.58 48.3001 143.58Z" fill="#20378B" stroke="#20378B" stroke-width="1.14" stroke-linecap="round" stroke-linejoin="round"/>
<mask id="mask1_110_1756" style="mask-type:luminance" maskUnits="userSpaceOnUse" x="68" y="71" width="112" height="106">
<path d="M148.14 176.52L68.2603 176.62L74.6403 90.74L132.76 71.3L179.96 90.64L148.14 176.52Z" fill="white"/>
</mask>
<g mask="url(#mask1_110_1756)">
<path d="M99.1003 134.16H81.7603V163.34H99.1003V134.16Z" fill="white" stroke="#20378B" stroke-width="1.14" stroke-linejoin="round"/>
<path d="M99.1003 145.52H81.7603V163.34H99.1003V145.52Z" fill="#BEE4F8" stroke="#20378B" stroke-width="1.14" stroke-linejoin="round"/>
<path d="M120.36 114.52H103.02V163.34H120.36V114.52Z" fill="white" stroke="#20378B" stroke-width="1.14" stroke-linejoin="round"/>
<path d="M120.36 140.7H103.02V163.34H120.36V140.7Z" fill="#BEE4F8" stroke="#20378B" stroke-width="1.14" stroke-linejoin="round"/>
<path d="M141.62 97.4402H124.28V163.34H141.62V97.4402Z" fill="white" stroke="#20378B" stroke-width="1.14" stroke-linejoin="round"/>
<path d="M141.62 85.5801H124.28V97.4401H141.62V85.5801Z" fill="#E60032" stroke="#20378B" stroke-width="1.14" stroke-linejoin="round"/>
<path d="M141.62 131.84H124.28V163.34H141.62V131.84Z" fill="#BEE4F8" stroke="#20378B" stroke-width="1.14" stroke-linejoin="round"/>
<path d="M162.9 115.7H145.56V163.34H162.9V115.7Z" fill="white" stroke="#20378B" stroke-width="1.14" stroke-linejoin="round"/>
<path d="M162.9 106.26H145.56V115.7H162.9V106.26Z" fill="#E60032" stroke="#20378B" stroke-width="1.14" stroke-linejoin="round"/>
<path d="M162.9 139.06H145.56V163.34H162.9V139.06Z" fill="#BEE4F8" stroke="#20378B" stroke-width="1.14" stroke-linejoin="round"/>
</g>
<path d="M165.84 128.74L150.84 169.22" stroke="#20378B" stroke-width="1.14"/>
<path d="M44.3603 22.8401C29.9603 23.1601 18.5403 35.0801 18.8603 49.5001C19.0203 57.2401 22.5603 64.0801 28.0203 68.7401L26.3803 81.7601L38.1003 74.0801C40.4603 74.7201 42.9403 75.0601 45.5203 75.0001C59.9203 74.6801 71.3403 62.7601 71.0203 48.3401C70.7003 33.9401 58.7803 22.5201 44.3603 22.8401Z" fill="#BEE4F8"/>
<path d="M44.3603 22.8401C29.9603 23.1601 18.5403 35.0801 18.8603 49.5001C19.0203 57.2401 22.5603 64.0801 28.0203 68.7401L26.3803 81.7601L38.1003 74.0801C40.4603 74.7201 42.9403 75.0601 45.5203 75.0001C59.9203 74.6801 71.3403 62.7601 71.0203 48.3401C70.7003 33.9401 58.7803 22.5201 44.3603 22.8401Z" stroke="#20378B" stroke-width="1.14"/>
<path d="M93.7401 29.0199C76.0001 26.8999 59.8801 39.5599 57.7601 57.2999C55.6401 75.0399 68.3001 91.1599 86.0401 93.2799C89.7601 93.7199 93.3801 93.4799 96.8401 92.7199L108.56 102.14L108.16 87.8199C115.58 82.7399 120.88 74.6199 122.04 64.9799C124.16 47.2399 111.5 31.1199 93.7601 28.9999L93.7401 29.0199Z" fill="white"/>
<path d="M93.7401 29.0199C76.0001 26.8999 59.8801 39.5599 57.7601 57.2999C55.6401 75.0399 68.3001 91.1599 86.0401 93.2799C89.7601 93.7199 93.3801 93.4799 96.8401 92.7199L108.56 102.14L108.16 87.8199C115.58 82.7399 120.88 74.6199 122.04 64.9799C124.16 47.2399 111.5 31.1199 93.7601 28.9999L93.7401 29.0199Z" stroke="#20378B" stroke-width="1.14"/>
<path d="M89.7803 83.2798C88.5403 83.2798 87.4803 82.8398 86.6003 81.9398C85.7003 81.0598 85.2603 79.9798 85.2603 78.7598C85.2603 77.5398 85.7003 76.4598 86.6003 75.5798C87.4803 74.6998 88.5603 74.2398 89.7803 74.2398C91.0003 74.2398 92.0803 74.6798 92.9603 75.5798C93.8403 76.4798 94.3003 77.5398 94.3003 78.7598C94.3003 79.9798 93.8603 81.0598 92.9603 81.9398C92.0603 82.8198 91.0003 83.2798 89.7803 83.2798ZM85.5003 39.3198H94.0003V47.1598L92.1803 69.0798H87.3203L85.5003 47.1598V39.3198Z" fill="#20378B"/>
<path d="M46.6001 54.8799H42.1601V52.4799C42.1601 51.4399 42.2801 50.6599 42.5401 50.1399C42.7801 49.6199 43.3401 48.9599 44.1801 48.1199L47.0401 45.2599C47.6401 44.5999 47.9401 43.7999 47.9401 42.8199C47.9401 41.8399 47.6201 41.0399 47.0001 40.3999C46.3801 39.7599 45.5601 39.4399 44.5601 39.4399C43.5601 39.4399 42.7401 39.7399 42.0601 40.3599C41.3801 40.9799 41.0001 41.7999 40.9001 42.8199H36.1401C36.4001 40.4799 37.3201 38.6599 38.8801 37.3399C40.4401 36.0199 42.3801 35.3599 44.7201 35.3599C47.0601 35.3599 48.9601 35.9999 50.4201 37.2599C51.8801 38.5199 52.6201 40.2999 52.6201 42.5799C52.6201 44.1599 52.1801 45.4599 51.3201 46.4999C50.8201 47.1199 50.4401 47.5799 50.1801 47.8399C49.9201 48.0999 49.5801 48.4399 49.1401 48.8399C48.7001 49.2399 48.3401 49.5999 48.0401 49.8999C47.7401 50.1999 47.5001 50.4599 47.3201 50.6599C46.8401 51.2399 46.6201 52.0399 46.6201 53.0999V54.8599L46.6001 54.8799ZM44.4601 63.5999C43.6401 63.5999 42.9201 63.3199 42.3201 62.7599C41.7201 62.1999 41.4201 61.5199 41.4201 60.7199C41.4201 59.9199 41.7201 59.2399 42.3001 58.6599C42.9001 58.0799 43.6001 57.7999 44.4201 57.7999C45.2401 57.7999 45.9601 58.0799 46.5601 58.6399C47.1601 59.1999 47.4601 59.8799 47.4601 60.6799C47.4601 61.4799 47.1601 62.1599 46.5801 62.7399C46.0001 63.3199 45.2801 63.5999 44.4601 63.5999Z" fill="#20378B"/>
</svg>
