<svg width="199" height="199" viewBox="0 0 340 340" fill="none" xmlns="http://www.w3.org/2000/svg">
<style type="text/css">
	.st0{fill:#1E3791;stroke:#FFFFFF;stroke-width:3.4286;stroke-miterlimit:13.7143;}
	.st1{fill:#E1E1E1;}
	.st2{fill:#FFFFFF;filter:url(#Adobe_OpacityMaskFilter);}
	.st3{mask:url(#mask0_1514_10888_00000128464657439336299840000004219416011433075080_);}
	.st4{fill:#1E3791;stroke:#1E3791;stroke-width:3.3871;stroke-linecap:round;stroke-linejoin:round;stroke-miterlimit:13.7143;}
	.st5{fill:#B6E6FA;stroke:#1E3791;stroke-width:1.9501;stroke-linecap:round;stroke-linejoin:round;stroke-miterlimit:13.7143;}
	.st6{fill:none;stroke:#1E3791;stroke-width:1.9501;stroke-linecap:round;stroke-linejoin:round;stroke-miterlimit:13.7143;}
	.st7{fill:#E60032;stroke:#1E3791;stroke-width:2.4291;stroke-linecap:round;stroke-linejoin:round;stroke-miterlimit:13.7143;}
	.st8{fill:#FFFFFF;stroke:#1E3791;stroke-width:1.9501;stroke-linecap:round;stroke-linejoin:round;stroke-miterlimit:13.7143;}
	.st9{fill:#E60032;stroke:#1E3791;stroke-width:1.9501;stroke-linecap:round;stroke-linejoin:round;stroke-miterlimit:13.7143;}
	.st10{fill:#FFFFFF;filter:url(#Adobe_OpacityMaskFilter_00000161633967087155962670000003696842166475284105_);}
	.st11{mask:url(#mask1_1514_10888_00000136369068148495789210000004180120524127472274_);}
	.st12{fill:#B6E6FA;}
	.st13{fill:none;stroke:#1E3791;stroke-width:1.9501;stroke-linejoin:round;stroke-miterlimit:13.7143;}
	.st14{fill:#FFFFFF;}
	.st15{fill:none;stroke:#1E3791;stroke-width:1.9501;stroke-linecap:round;stroke-miterlimit:13.7143;}
</style>
<path class="st0" d="M139.3,309.3L36.7,206.7c-4.8-4.8-7.4-11.4-7.2-18.1l1.3-48.8c0.2-6.9,5.7-12.5,12.7-12.7l48.8-1.3
	c6.8-0.2,13.3,2.4,18.1,7.2L213,235.6c5.1,5.1,5.1,13.3,0,18.4l-55.3,55.3C152.6,314.4,144.4,314.4,139.3,309.3z M73.7,170
	c3.8-3.8,3.8-10.1,0-13.9c-3.8-3.8-10.1-3.8-13.9,0c-3.8,3.8-3.8,10.1,0,13.9C63.6,173.8,69.8,173.8,73.7,170z"/>
<path class="st1" d="M270.1,135.2L183.3,222c-1.4,1.4-2.4,3.1-2.8,5.1l-6.1,24.7l24.7-6.1c1.9-0.5,3.7-1.5,5.1-2.8l86.8-86.8
	c2.4-2.4,2.4-6.3,0-8.7l-12.2-12.2C276.4,132.8,272.5,132.8,270.1,135.2L270.1,135.2L270.1,135.2z"/>
<defs>
	<filter id="Adobe_OpacityMaskFilter" filterUnits="userSpaceOnUse" x="149.6" y="124.1" width="154.9" height="151.9">
		<feColorMatrix  type="matrix" values="1 0 0 0 0  0 1 0 0 0  0 0 1 0 0  0 0 0 1 0"/>
	</filter>
</defs>
<mask maskUnits="userSpaceOnUse" x="149.6" y="124.1" width="154.9" height="151.9" id="mask0_1514_10888_00000128464657439336299840000004219416011433075080_">
	<path class="st2" d="M270.1,135.2L183.3,222c-1.4,1.4-2.4,3.1-2.8,5.1l-6.1,24.7l24.7-6.1c1.9-0.5,3.7-1.5,5.1-2.8l86.8-86.8
		c2.4-2.4,2.4-6.3,0-8.7l-12.2-12.2C276.4,132.8,272.5,132.8,270.1,135.2L270.1,135.2L270.1,135.2z"/>
</mask>
<g class="st3">
	<path class="st4" d="M169.3,231.1l-18,18l25.2,25.2l18-18L169.3,231.1z"/>
	<path class="st5" d="M255.1,144.9l-73,73l29.4,29.4l73-73L255.1,144.9z"/>
	<path class="st6" d="M262.8,152.7l-73,73l11.3,11.3l73-73L262.8,152.7z"/>
	<path class="st7" d="M276.2,125.3l-20.4,20.4l27.1,27.1l20.4-20.4L276.2,125.3z"/>
	<path class="st8" d="M261.4,140.4l-5.4,5.4l27.5,27.5l5.4-5.4L261.4,140.4z"/>
</g>
<path class="st6" d="M270.1,135.2L183.3,222c-1.4,1.4-2.4,3.1-2.8,5.1l-6.1,24.7l24.7-6.1c1.9-0.5,3.7-1.5,5.1-2.8l86.8-86.8
	c2.4-2.4,2.4-6.3,0-8.7l-12.2-12.2C276.4,132.8,272.5,132.8,270.1,135.2L270.1,135.2L270.1,135.2z"/>
<path class="st9" d="M152,274.5L49.5,172c-4.8-4.8-7.4-11.4-7.2-18.1l1.3-48.8c0.2-6.9,5.7-12.5,12.7-12.7l48.8-1.3
	c6.8-0.2,13.3,2.4,18.1,7.2l102.6,102.6c5.1,5.1,5.1,13.3,0,18.4l-55.3,55.3C165.4,279.6,157.1,279.6,152,274.5z M86.4,135.2
	c3.8-3.8,3.8-10.1,0-13.9c-3.8-3.8-10.1-3.8-13.9,0c-3.8,3.8-3.8,10.1,0,13.9C76.4,139,82.6,139,86.4,135.2z"/>
<path class="st8" d="M189.7,283L87.2,180.4c-4.8-4.8-7.4-11.4-7.2-18.1l1.3-48.8c0.2-6.9,5.7-12.5,12.7-12.7l48.8-1.3
	c6.8-0.2,13.3,2.4,18.1,7.2l102.6,102.6c5.1,5.1,5.1,13.3,0,18.4L208.2,283C203.1,288.1,194.8,288.1,189.7,283z M124.1,143.6
	c3.8-3.8,3.8-10.1,0-13.9c-3.8-3.8-10.1-3.8-13.9,0c-3.8,3.8-3.8,10.1,0,13.9C114.1,147.4,120.3,147.4,124.1,143.6z"/>
<path class="st1" d="M270.1,135.2L183.3,222c-1.4,1.4-2.4,3.1-2.8,5.1l-6.1,24.7l24.7-6.1c1.9-0.5,3.7-1.5,5.1-2.8l86.8-86.8
	c2.4-2.4,2.4-6.3,0-8.7l-12.2-12.2C276.4,132.8,272.5,132.8,270.1,135.2L270.1,135.2L270.1,135.2z"/>
<defs>
	
		<filter id="Adobe_OpacityMaskFilter_00000036952317530203950300000007329665166589051296_" filterUnits="userSpaceOnUse" x="149.6" y="124.1" width="154.9" height="151.9">
		<feColorMatrix  type="matrix" values="1 0 0 0 0  0 1 0 0 0  0 0 1 0 0  0 0 0 1 0"/>
	</filter>
</defs>
<mask maskUnits="userSpaceOnUse" x="149.6" y="124.1" width="154.9" height="151.9" id="mask1_1514_10888_00000136369068148495789210000004180120524127472274_">
	<path style="fill:#FFFFFF;filter:url(#Adobe_OpacityMaskFilter_00000036952317530203950300000007329665166589051296_);" d="
		M270.1,135.2L183.3,222c-1.4,1.4-2.4,3.1-2.8,5.1l-6.1,24.7l24.7-6.1c1.9-0.5,3.7-1.5,5.1-2.8l86.8-86.8c2.4-2.4,2.4-6.3,0-8.7
		l-12.2-12.2C276.4,132.8,272.5,132.8,270.1,135.2L270.1,135.2L270.1,135.2z"/>
</mask>
<g class="st11">
	<path class="st4" d="M169.3,231.1l-18,18l25.2,25.2l18-18L169.3,231.1z"/>
	<path class="st5" d="M255.1,144.9l-73,73l29.4,29.4l73-73L255.1,144.9z"/>
	<path class="st6" d="M262.8,152.7l-73,73l11.3,11.3l73-73L262.8,152.7z"/>
	<path class="st7" d="M276.2,125.3l-20.4,20.4l27.1,27.1l20.4-20.4L276.2,125.3z"/>
	<path class="st8" d="M261.4,140.4l-5.4,5.4l27.5,27.5l5.4-5.4L261.4,140.4z"/>
</g>
<path class="st6" d="M270.1,135.2L183.3,222c-1.4,1.4-2.4,3.1-2.8,5.1l-6.1,24.7l24.7-6.1c1.9-0.5,3.7-1.5,5.1-2.8l86.8-86.8
	c2.4-2.4,2.4-6.3,0-8.7l-12.2-12.2C276.4,132.8,272.5,132.8,270.1,135.2L270.1,135.2L270.1,135.2z"/>
<path class="st12" d="M248,52.3h-92.3c-16.3,0-29.7,13.3-29.7,29.7s13.2,29.5,29.4,29.7l3.3,17.6l10.8-17.6h78.6
	c16.3,0,29.7-13.3,29.7-29.7S264.4,52.3,248,52.3L248,52.3L248,52.3z"/>
<path class="st6" d="M248,52.3h-92.3c-16.3,0-29.7,13.3-29.7,29.7s13.2,29.5,29.4,29.7l3.3,17.6l10.8-17.6h78.6
	c16.3,0,29.7-13.3,29.7-29.7S264.4,52.3,248,52.3L248,52.3L248,52.3z"/>
<path class="st9" d="M177.8,76.5l-9.1,7.5l3,11.4l-9.9-6.3l-9.9,6.3l2.9-11.4l-9.1-7.5l11.8-0.7l4.3-11l4.3,11L177.8,76.5z"/>
<path class="st9" d="M218.2,76.5l-9.1,7.5l3,11.4l-9.9-6.3l-9.9,6.3l2.9-11.4l-9.1-7.5l11.8-0.7l4.3-11l4.3,11L218.2,76.5z"/>
<path class="st13" d="M258.7,76.5l-9.1,7.5l3,11.4l-9.9-6.3l-9.9,6.3l2.9-11.4l-9.1-7.5l11.8-0.7l4.3-11l4.3,11L258.7,76.5z"/>
<path class="st8" d="M133.1,63.5c12.7,0,23-10.3,23-23c0-12.7-10.3-23-23-23c-12.7,0-23,10.3-23,23
	C110.1,53.2,120.4,63.5,133.1,63.5z"/>
<path class="st14" d="M122.5,42.2l9.1,8.7l9-20.7"/>
<path class="st6" d="M122.5,42.2l9.1,8.7l9-20.7"/>
<path class="st15" d="M119,168.6l49.6,49.6"/>
<path class="st15" d="M132.1,155.4l39.2,39.2"/>
<path class="st15" d="M145.3,142.3l58.8,58.8"/>
<path class="st12" d="M248,52.3h-92.3c-16.3,0-29.7,13.3-29.7,29.7s13.2,29.5,29.4,29.7l3.3,17.6l10.8-17.6h78.6
	c16.3,0,29.7-13.3,29.7-29.7S264.4,52.3,248,52.3L248,52.3L248,52.3z"/>
<path class="st6" d="M248,52.3h-92.3c-16.3,0-29.7,13.3-29.7,29.7s13.2,29.5,29.4,29.7l3.3,17.6l10.8-17.6h78.6
	c16.3,0,29.7-13.3,29.7-29.7S264.4,52.3,248,52.3L248,52.3L248,52.3z"/>
<path class="st8" d="M177.8,76.5l-9.1,7.5l3,11.4l-9.9-6.3l-9.9,6.3l2.9-11.4l-9.1-7.5l11.8-0.7l4.3-11l4.3,11L177.8,76.5z"/>
<path class="st8" d="M218.2,76.5l-9.1,7.5l3,11.4l-9.9-6.3l-9.9,6.3l2.9-11.4l-9.1-7.5l11.8-0.7l4.3-11l4.3,11L218.2,76.5z"/>
<path class="st13" d="M258.7,76.5l-9.1,7.5l3,11.4l-9.9-6.3l-9.9,6.3l2.9-11.4l-9.1-7.5l11.8-0.7l4.3-11l4.3,11L258.7,76.5z"/>
<path class="st8" d="M133.1,63.5c12.7,0,23-10.3,23-23c0-12.7-10.3-23-23-23c-12.7,0-23,10.3-23,23
	C110.1,53.2,120.4,63.5,133.1,63.5z"/>
<path class="st14" d="M122.5,42.2l9.1,8.7l9-20.7"/>
<path class="st6" d="M122.5,42.2l9.1,8.7l9-20.7"/>
<path class="st15" d="M119,168.6l49.6,49.6"/>
<path class="st15" d="M132.1,155.4l39.2,39.2"/>
<path class="st15" d="M145.3,142.3l58.8,58.8"/>
</svg>
