<svg width="200" height="199" viewBox="0 0 200 199" fill="none" xmlns="http://www.w3.org/2000/svg">
<path d="M45.06 97.14L31.98 84.54C26.48 90.24 25.32 98.9 29.12 105.84C33.9 114.58 45.02 117.84 53.76 113.06C62.5 108.28 65.76 97.16 60.98 88.42C56.2 79.68 45.08 76.42 36.34 81.2C35.5 81.66 34.7 82.18 33.94 82.78L45.06 97.14Z" fill="white" stroke="white" stroke-width="7" stroke-miterlimit="10" stroke-linejoin="round"/>
<path d="M45.06 97.1401L34.24 82.5601C32.68 83.7201 31.34 85.1001 30.22 86.6801C29.1 88.2601 28.26 90.0001 27.7 91.8601L45.08 97.1401H45.06Z" fill="white" stroke="white" stroke-width="7" stroke-miterlimit="10" stroke-linejoin="round"/>
<path d="M45.06 97.14L27.72 102.52C28.08 103.68 28.54 104.78 29.12 105.84C33.9 114.58 45.02 117.84 53.76 113.06C62.5 108.28 65.76 97.16 60.98 88.42C59.7 86.08 57.92 84.06 55.78 82.48L45.06 97.12V97.14Z" fill="white" stroke="white" stroke-width="7" stroke-miterlimit="10" stroke-linejoin="round"/>
<path d="M45.06 97.14L29.1 88.5C27.9 90.72 27.16 93.18 26.96 95.7C26.76 98.22 27.08 100.76 27.92 103.14L45.06 97.14Z" fill="white" stroke="white" stroke-width="7" stroke-miterlimit="10" stroke-linejoin="round"/>
<path d="M45.0599 103.76C48.7161 103.76 51.6799 100.796 51.6799 97.14C51.6799 93.4839 48.7161 90.52 45.0599 90.52C41.4038 90.52 38.4399 93.4839 38.4399 97.14C38.4399 100.796 41.4038 103.76 45.0599 103.76Z" fill="white"/>
<path d="M45.0599 103.76C48.7161 103.76 51.6799 100.796 51.6799 97.14C51.6799 93.4839 48.7161 90.52 45.0599 90.52C41.4038 90.52 38.4399 93.4839 38.4399 97.14C38.4399 100.796 41.4038 103.76 45.0599 103.76Z" stroke="white" stroke-width="7" stroke-linejoin="round"/>
<path d="M126.7 29.3601H88.9199V115.76H126.7V29.3601Z" fill="white" stroke="white" stroke-width="7" stroke-linejoin="round"/>
<path d="M126.7 12.24H88.9199V20.1H126.7V12.24Z" fill="white" stroke="white" stroke-width="7" stroke-linejoin="round"/>
<path d="M126.7 20.04H88.9199V39.86H126.7V20.04Z" fill="white" stroke="white" stroke-width="7" stroke-linejoin="round"/>
<path d="M126.7 71.74H88.9199V115.76H126.7V71.74Z" fill="white" stroke="white" stroke-width="7" stroke-linejoin="round"/>
<path d="M140.96 115.76C156.446 115.76 169 103.206 169 87.7202C169 72.2341 156.446 59.6802 140.96 59.6802C125.474 59.6802 112.92 72.2341 112.92 87.7202C112.92 103.206 125.474 115.76 140.96 115.76Z" fill="white" stroke="white" stroke-width="7" stroke-miterlimit="10" stroke-linejoin="round"/>
<path d="M140.96 87.7203L163.8 71.4403C163.48 70.9803 163.14 70.5403 162.8 70.1203C158.96 65.3603 153.68 62.0003 147.76 60.5203L140.98 87.7403L140.96 87.7203Z" fill="white" stroke="white" stroke-width="7" stroke-miterlimit="10" stroke-linejoin="round"/>
<path d="M140.96 87.7201L124.38 65.1001C124.02 65.3601 123.68 65.6201 123.34 65.9001C111.36 75.5601 109.46 93.3601 119.12 105.34C124.88 112.48 133.78 116.34 142.92 115.7L140.94 87.7201H140.96Z" fill="white" stroke="white" stroke-width="7" stroke-miterlimit="10" stroke-linejoin="round"/>
<path d="M140.96 87.7202L149.7 61.0802C145.36 59.6602 140.74 59.3202 136.26 60.0802C131.76 60.8402 127.52 62.7002 123.9 65.4802L140.96 87.7402V87.7202Z" fill="white" stroke="white" stroke-width="7" stroke-miterlimit="10" stroke-linejoin="round"/>
<path d="M140.96 97.1403C146.163 97.1403 150.38 92.9228 150.38 87.7203C150.38 82.5178 146.163 78.3003 140.96 78.3003C135.758 78.3003 131.54 82.5178 131.54 87.7203C131.54 92.9228 135.758 97.1403 140.96 97.1403Z" fill="white" stroke="white" stroke-width="7" stroke-linecap="round" stroke-linejoin="round"/>
<path d="M45.06 97.14L31.98 84.54C26.48 90.24 25.32 98.9 29.12 105.84C33.9 114.58 45.02 117.84 53.76 113.06C62.5 108.28 65.76 97.16 60.98 88.42C56.2 79.68 45.08 76.42 36.34 81.2C35.5 81.66 34.7 82.18 33.94 82.78L45.06 97.14Z" fill="#BEE4F8" stroke="#20378B" stroke-width="1.14" stroke-miterlimit="10"/>
<path d="M45.06 97.1401L34.24 82.5601C32.68 83.7201 31.34 85.1001 30.22 86.6801C29.1 88.2601 28.26 90.0001 27.7 91.8601L45.08 97.1401H45.06Z" fill="white" stroke="#20378B" stroke-width="1.14" stroke-miterlimit="10"/>
<path d="M45.06 97.14L27.72 102.52C28.08 103.68 28.54 104.78 29.12 105.84C33.9 114.58 45.02 117.84 53.76 113.06C62.5 108.28 65.76 97.16 60.98 88.42C59.7 86.08 57.92 84.06 55.78 82.48L45.06 97.12V97.14Z" fill="#20378B" stroke="#20378B" stroke-width="1.14" stroke-miterlimit="10"/>
<path d="M45.06 97.14L29.1 88.5C27.9 90.72 27.16 93.18 26.96 95.7C26.76 98.22 27.08 100.76 27.92 103.14L45.06 97.14Z" fill="#E60032" stroke="#20378B" stroke-width="1.14" stroke-miterlimit="10"/>
<path d="M45.0599 103.76C48.7161 103.76 51.6799 100.796 51.6799 97.14C51.6799 93.4839 48.7161 90.52 45.0599 90.52C41.4038 90.52 38.4399 93.4839 38.4399 97.14C38.4399 100.796 41.4038 103.76 45.0599 103.76Z" fill="#D1DBE0"/>
<path d="M45.0599 103.76C48.7161 103.76 51.6799 100.796 51.6799 97.14C51.6799 93.4839 48.7161 90.52 45.0599 90.52C41.4038 90.52 38.4399 93.4839 38.4399 97.14C38.4399 100.796 41.4038 103.76 45.0599 103.76Z" stroke="#20378B" stroke-width="1.14"/>
<path d="M126.7 29.3601H88.9199V115.76H126.7V29.3601Z" fill="white" stroke="#20378B" stroke-width="1.14"/>
<path d="M126.7 12.24H88.9199V20.1H126.7V12.24Z" fill="#E60032" stroke="#20378B" stroke-width="1.14"/>
<path d="M126.7 20.04H88.9199V39.86H126.7V20.04Z" fill="#20378B" stroke="#20378B" stroke-width="1.14"/>
<path d="M126.7 71.74H88.9199V115.76H126.7V71.74Z" fill="#BEE4F8" stroke="#20378B" stroke-width="1.14"/>
<path d="M140.96 115.76C156.446 115.76 169 103.206 169 87.7202C169 72.2341 156.446 59.6802 140.96 59.6802C125.474 59.6802 112.92 72.2341 112.92 87.7202C112.92 103.206 125.474 115.76 140.96 115.76Z" fill="#BEE4F8" stroke="#20378B" stroke-width="1.14" stroke-miterlimit="10"/>
<path d="M140.96 87.7203L163.8 71.4403C163.48 70.9803 163.14 70.5403 162.8 70.1203C158.96 65.3603 153.68 62.0003 147.76 60.5203L140.98 87.7403L140.96 87.7203Z" fill="#20378B" stroke="#20378B" stroke-width="1.14" stroke-miterlimit="10"/>
<path d="M140.96 87.7201L124.38 65.1001C124.02 65.3601 123.68 65.6201 123.34 65.9001C111.36 75.5601 109.46 93.3601 119.12 105.34C124.88 112.48 133.78 116.34 142.92 115.7L140.94 87.7201H140.96Z" fill="white" stroke="#20378B" stroke-width="1.14" stroke-miterlimit="10"/>
<path d="M140.96 87.7202L149.7 61.0802C145.36 59.6602 140.74 59.3202 136.26 60.0802C131.76 60.8402 127.52 62.7002 123.9 65.4802L140.96 87.7402V87.7202Z" fill="#E60032" stroke="#20378B" stroke-width="1.14" stroke-miterlimit="10"/>
<path d="M140.96 97.1403C146.163 97.1403 150.38 92.9228 150.38 87.7203C150.38 82.5178 146.163 78.3003 140.96 78.3003C135.758 78.3003 131.54 82.5178 131.54 87.7203C131.54 92.9228 135.758 97.1403 140.96 97.1403Z" fill="#D1DBE0" stroke="#20378B" stroke-width="1.14" stroke-linecap="round" stroke-linejoin="round"/>
<path d="M94.32 64.24H56.54V115.76H94.32V64.24Z" fill="white" stroke="#20378B" stroke-width="1.14"/>
<path d="M94.32 54.04H56.54V64.24H94.32V54.04Z" fill="#E60032" stroke="#20378B" stroke-width="1.14"/>
<path d="M94.32 93.6001H56.54V115.76H94.32V93.6001Z" fill="#BEE4F8" stroke="#20378B" stroke-width="1.14"/>
<path d="M94.32 64.24H56.54V77.1H94.32V64.24Z" fill="#20378B" stroke="#20378B" stroke-width="1.14"/>
<path d="M96.7001 143.98L107.76 124.8C109 122.66 111.32 121.32 113.8 121.32C115.02 121.32 116.22 121.64 117.28 122.26L117.9 122.62L98.1801 158.52L91.2401 155.12L87.5601 164.74L72.6001 159.34L85.6401 146.06C86.3201 145.36 86.8601 144.56 87.2201 143.68L94.7801 125.52C95.7801 123.14 98.0801 121.6 100.66 121.6C101.5 121.6 102.32 121.76 103.1 122.1L103.76 122.38L95.0401 145.16" fill="white"/>
<path d="M96.7001 143.98L107.76 124.8C109 122.66 111.32 121.32 113.8 121.32C115.02 121.32 116.22 121.64 117.28 122.26L117.9 122.62L98.1801 158.52L91.2401 155.12L87.5601 164.74L72.6001 159.34L85.6401 146.06C86.3201 145.36 86.8601 144.56 87.2201 143.68L94.7801 125.52C95.7801 123.14 98.0801 121.6 100.66 121.6C101.5 121.6 102.32 121.76 103.1 122.1L103.76 122.38L95.0401 145.16" stroke="#20378B" stroke-width="1.14" stroke-linecap="round" stroke-linejoin="round"/>
<path d="M99.0602 145.54H100.5C101.38 145.54 102.18 145.12 102.7 144.42L117.04 124.68C118.24 123.02 120 121.76 122.04 121.44C124.08 121.12 126.08 121.58 127.72 122.76L128.32 123.2L101.92 159.54L95.2603 154.7L98.1403 150.16" fill="white"/>
<path d="M99.0602 145.54H100.5C101.38 145.54 102.18 145.12 102.7 144.42L117.04 124.68C118.24 123.02 120 121.76 122.04 121.44C124.08 121.12 126.08 121.58 127.72 122.76L128.32 123.2L101.92 159.54L95.2603 154.7L98.1403 150.16" stroke="#20378B" stroke-width="1.14" stroke-linecap="round" stroke-linejoin="round"/>
<path d="M91.3003 145.54H94.5603C95.3203 145.54 96.0403 145.14 96.4203 144.46L97.6003 142.42" stroke="#20378B" stroke-width="1.14" stroke-linecap="round" stroke-linejoin="round"/>
<path d="M52.1802 164.12L54.9602 162.78C56.6402 161.96 57.5402 160.16 57.3202 158.3C56.9402 155.02 57.6202 151.24 58.8002 148.62C59.9802 146 62.0802 143.54 65.1002 141.24C66.9202 139.86 68.3002 138.06 69.0802 136.04L73.5802 124.42C74.1002 123.06 75.1802 121.9 76.6002 121.5C77.5602 121.22 78.5602 121.26 79.4602 121.6C80.6202 122.02 81.5402 122.88 82.0402 124.02C82.5402 125.16 82.5602 126.4 82.1202 127.54L77.5602 138.98C76.8602 140.74 77.0402 142.76 78.0802 144.34C83.9202 153.2 99.8602 151.06 107.16 143.36L125.66 123.84C127.28 122.14 129.54 121.24 131.88 121.42C133.64 121.56 135.32 122.28 136.6 123.5L137.3 124.16L107.04 157.46C105.42 159.24 103.5 160.7 101.32 161.76L60.5002 181.38L52.1802 164.12Z" fill="white" stroke="#20378B" stroke-width="1.14" stroke-linecap="round" stroke-linejoin="round"/>
<path d="M52.6805 188.926L64.1194 183.409L53.2322 160.837L41.7933 166.355L52.6805 188.926Z" fill="white" stroke="#20378B" stroke-width="1.14" stroke-linecap="round" stroke-linejoin="round"/>
<path d="M171.08 115.76H25.8201C24.2958 115.76 23.0601 116.996 23.0601 118.52C23.0601 120.044 24.2958 121.28 25.8201 121.28H171.08C172.604 121.28 173.84 120.044 173.84 118.52C173.84 116.996 172.604 115.76 171.08 115.76Z" fill="white" stroke="#20378B" stroke-width="1.14" stroke-linecap="round" stroke-linejoin="round"/>
</svg>
