<?xml version="1.0" encoding="utf-8"?>
<!-- Generator: Adobe Illustrator 27.4.0, SVG Export Plug-In . SVG Version: 6.00 Build 0)  -->
<svg version="1.1" id="Ebene_1" xmlns="http://www.w3.org/2000/svg" xmlns:xlink="http://www.w3.org/1999/xlink" x="0px" y="0px"
	 viewBox="0 0 850.394 566.929" style="enable-background:new 0 0 850.394 566.929;" xml:space="preserve">
<style type="text/css">
	.st0{fill:#E40422;}
</style>
<g id="Logo">
	<g>
		<path d="M0,0v566.929h850.394V0H0z M5.669,5.669h561.26v272.126H5.669V5.669z M844.724,561.26H5.669V283.465h839.055V561.26z
			 M844.724,277.795H572.599V5.669h272.126V277.795z"/>
	</g>
	<path class="st0" d="M485.55,96.013v62.434c0,0.81-0.541,1.078-0.946,0.269l-35.629-63.243c-0.405-0.674-1.215-1.078-2.025-1.078
		h-15.251c-0.946,0-1.62,0.674-1.62,1.619v91.156c0,0.943,0.674,1.619,1.62,1.619h13.225c0.946,0,1.62-0.676,1.62-1.619V124.87
		c0-0.81,0.541-1.078,0.946-0.272l35.629,63.108c0.405,0.676,1.215,1.081,2.026,1.081h15.251c0.946,0,1.621-0.676,1.621-1.619
		V96.013c0-0.945-0.674-1.619-1.621-1.619h-13.228C486.224,94.394,485.55,95.067,485.55,96.013 M390.191,188.787h13.364
		c0.944,0,1.618-0.676,1.618-1.619V96.013c0-0.945-0.674-1.619-1.618-1.619h-13.364c-0.944,0-1.618,0.674-1.618,1.619v91.156
		C388.573,188.111,389.247,188.787,390.191,188.787 M336.908,172.336V96.013c0-0.945-0.674-1.619-1.618-1.619h-13.364
		c-0.944,0-1.618,0.674-1.618,1.619v91.156c0,0.943,0.674,1.619,1.618,1.619h46.024c0.946,0,1.621-0.676,1.621-1.619v-12.406
		c0-0.943-0.674-1.619-1.621-1.619h-30.232C337.18,173.143,336.908,172.741,336.908,172.336 M249.613,110.035h12.284
		c10.93,0,19.704,5.8,19.704,17.801c0,12.002-8.774,17.799-19.84,17.799h-12.148c-0.538,0-0.808-0.405-0.808-0.81v-33.981
		C248.806,110.307,249.075,110.035,249.613,110.035 M280.928,188.787h17.004c1.351,0,1.754-0.945,0.946-2.024l-20.245-27.374
		c-0.272-0.405-0.272-0.943,0.269-1.212c12.012-4.854,19.976-15.509,19.976-30.341c0-21.037-15.928-33.443-36.173-33.443h-28.881
		c-0.946,0-1.62,0.674-1.62,1.619v91.156c0,0.943,0.674,1.619,1.62,1.619h13.361c0.944,0,1.621-0.676,1.621-1.619v-25.082
		c0-0.538,0.402-0.809,0.808-0.809h10.259c0.405,0,0.81,0.272,1.079,0.541l18.086,25.888
		C279.443,188.383,280.117,188.787,280.928,188.787 M207.668,108.419V96.013c0-0.945-0.674-1.619-1.621-1.619h-49.126
		c-0.946,0-1.62,0.674-1.62,1.619v91.156c0,0.943,0.674,1.619,1.62,1.619h49.126c0.946,0,1.621-0.676,1.621-1.619v-12.406
		c0-0.943-0.674-1.619-1.621-1.619h-33.47c-0.541,0-0.81-0.402-0.81-0.807V149.68c0-0.538,0.405-0.809,0.81-0.809h33.47
		c0.946,0,1.621-0.674,1.621-1.616v-12.271c0-0.945-0.674-1.619-1.621-1.619h-33.47c-0.541,0-0.81-0.269-0.81-0.81v-21.71
		c0-0.538,0.405-0.81,0.81-0.81h33.47C206.994,110.035,207.668,109.362,207.668,108.419 M102.447,173.143H88.14
		c-0.538,0-0.808-0.402-0.808-0.807V149.68c0-0.538,0.269-0.809,0.808-0.809h14.307c8.774,0,13.633,4.99,13.633,12.137
		C116.08,168.289,111.221,173.143,102.447,173.143 M101.098,110.035c8.502,0,13.225,4.586,13.225,11.597
		c0,7.014-4.723,11.733-13.225,11.733H88.14c-0.538,0-0.808-0.269-0.808-0.81v-21.71c0-0.538,0.269-0.81,0.808-0.81H101.098z
		 M120.802,139.703c6.748-4.314,10.797-11.056,10.797-19.822c0-14.428-9.987-25.486-28.342-25.486H72.484
		c-0.943,0-1.618,0.674-1.618,1.619v91.156c0,0.943,0.674,1.619,1.618,1.619h31.988c18.894,0,28.881-11.464,28.881-26.565
		c0-9.845-4.723-17.261-12.551-21.441C120.261,140.376,120.261,139.972,120.802,139.703"/>
	<path d="M750.312,222.158c0,0-4.955-32.867-7.297-46.724c0.661-0.135,1.023-0.215,1.023-0.215c2.172-0.376,2.988-2.861,2.019-4.532
		c-5.608-9.655-7.614-21.687-7.614-33.645c0-7.37,1.23-14.454,3.505-21.051c0.129-0.378,0.267-0.754,0.405-1.128
		c0.08-0.23,0.244-0.738,0.276-0.817c1.512-3.291,4.236-10.43,5.041-18.427c0.655-6.474-0.166-11.872-1.303-16.931
		c-0.539-2.449-1.917-6.476-2.796-8.345c-0.149-0.273-0.302-0.539-0.455-0.801c2.021-2.034,2.415-5.28,0.86-7.976
		c-1.833-3.162-5.595-4.414-8.402-2.792c-0.295,0.17-0.991,0.657-1.299,0.883c-0.513-0.376-0.812-0.565-0.812-0.565
		c-0.015-0.011-0.791-0.519-1.472-0.876c-0.002-0.002-0.256-0.131-0.26-0.135c-2.885-1.278-6.011-1.956-9.372-1.956
		c-1.644,0-3.245,0.17-4.796,0.492c-3.354,0.698-6.442,2.114-9.1,4.083c-1.385,0.445-2.88,0.546-2.88,0.546l-3.802,0.183
		c-1.788,0.075-3.831-0.013-3.831-0.013c-0.892,0-1.616,0.726-1.616,1.62c0,0.08,0.586,5.306,0.588,5.323
		c0.142,1.308,0.693,2.543,1.788,3.252l0.128,0.089c0.351,0.234,0.527,0.422,0.603,0.622c0.418,1.138,1.267,2.275,1.842,2.621
		c0.261,0.161,0.666,0.082,0.741-0.215c0.724-2.846,2.424,0.226,5.655-1.527c0.834-0.451,1.275,1.566,0.926,2.447l-0.299,0.763
		c-0.668,1.697-2.206,2.915-4.02,3.177c-1.433,0.208-2.256,0.354-2.236,0.552c0.172,1.613-0.019,2.999,1.62,3.967
		c0.481,0.257,0.716,0.318,0.716,0.318c2.51,0.659,9.835,3.467,0.521,14.456c0,0-0.884,0.988-1.565,1.97
		c-0.196,0.281-0.366,0.58-0.515,0.889l-0.194,0.395l-27.997-10.478c-0.844-0.327-1.93-1.248-2.447-1.989l-2.755-4.739
		c-1.715-2.369-3.208-3.269-6.183-3.512c-2.146-0.176-3.895-0.013-3.895-0.013c-0.833,0.043-1.314,0.238-1.491,0.724
		c-0.194,0.526-0.211,1.852,0.605,3.508l2.404,4.412c0.211,0.314,3.24,7.088,3.24,7.088c0.302,0.836,0.823,1.572,1.504,2.139
		c0.062,0.052,28.744,21.723,28.744,21.723l-30.291,15.111c-0.872,0.473-1.898,0.58-2.848,0.292
		c-1.114-0.337-2.702-0.821-2.715-0.823c-4.955-2.208-8.687-0.672-10.873,1.16c-0.019,0.017-0.855,0.812-0.855,0.812
		c-0.825,0.823-0.518,1.941,0.416,2.401c0,0,4.781,2.81,5.834,3.53l7.443,4.408c1.155,0.67,2.516,0.891,3.826,0.623l29.408-5.931
		c0.711,11.258,3.548,20.617,3.548,20.617c-5.304,5.095-12.61,14.834-15.01,28.189c-1.426,7.939-0.961,15.135,1.204,23.594
		c-4.106,0.225-8.07,0.833-11.362,3.121c-3.133,2.178-3.775,6.057-3.794,7.995l22.964,0.051l1.943-0.011
		c2.416-0.032,3.041-2.427,3.043-2.434c0.236-0.726,0.313-1.676,0.423-2.382c0.732-4.595,1.314-9.365,5.397-17.605
		c3.301-6.657,9.143-12.65,9.145-12.65c0.013,0.019,9.662,14.306,25.976,24.105c-3.126,0.198-7.168,1.231-9.568,2.565
		c-3.8,2.112-4.847,6.453-4.759,8.468h23.789c1.635,0,3.003-1.057,3.494-2.498c0.05-0.148,0.091-0.303,0.123-0.46
		c0.022-0.112,0.039-0.226,0.05-0.339C750.337,222.663,750.34,222.411,750.312,222.158z"/>
</g>
<g id="Schrift">
	<g>
		<path d="M70.281,363.645c-0.1-0.3,0-0.5,0.3-0.65l2.551-1.05c0.3-0.15,0.55,0,0.649,0.3c1.051,3.601,4.001,5.701,7.801,5.701
			c4.9,0,7.4-2.8,7.4-6.451c0-3.9-2.6-6.1-6.45-6.85l-2.55-0.5c-5.201-1-8.651-4.3-8.651-9.601c0-5.301,4.301-9.701,10.501-9.701
			c5.051,0,8.851,2.8,10.501,7.2c0.1,0.3,0,0.5-0.301,0.65l-2.6,1.1c-0.3,0.15-0.55,0-0.65-0.3c-1.2-3.1-3.85-5.05-6.95-5.05
			c-4.2,0-6.601,2.6-6.601,6.05c0,3.1,1.801,5.25,5.551,5.95l2.55,0.5c5,1,9.551,4.1,9.551,10.3c0,5.8-4.301,10.301-11.351,10.301
			C76.282,371.545,71.981,368.595,70.281,363.645z"/>
		<path d="M97.582,359.094c0-7.351,4.9-12.101,11.301-12.101s11.2,4.851,11.2,11.551c0,0.35,0,0.75-0.05,1.15
			c-0.05,0.25-0.2,0.4-0.5,0.4h-17.651c-0.35,0-0.55,0.15-0.45,0.65c0.551,4.351,3.501,7.201,7.951,7.201c2.75,0,4.95-1.25,6.55-2.9
			c0.351-0.35,0.601-0.45,0.851-0.2l1.649,1.8c0.2,0.2,0.2,0.45,0,0.65c-2.35,2.45-5.5,3.95-9.05,3.95
			C102.482,371.245,97.582,366.444,97.582,359.094z M116.183,356.594c-0.649-3.75-3.45-6.3-7.3-6.3c-3.801,0-6.751,2.65-7.351,6.351
			c-0.101,0.4,0,0.55,0.45,0.55h13.75C116.133,357.194,116.283,357.044,116.183,356.594z"/>
		<path d="M128.981,370.695h-2.65c-0.3,0-0.5-0.2-0.5-0.5v-22.201c0-0.3,0.2-0.5,0.5-0.5h2.4c0.3,0,0.5,0.2,0.5,0.5v1.65
			c0,0.25,0.2,0.35,0.4,0.1c1.5-1.7,3.35-2.75,6.05-2.75c5.15,0,7.801,3.4,7.801,7.651v15.551c0,0.3-0.2,0.5-0.5,0.5h-2.65
			c-0.3,0-0.5-0.2-0.5-0.5v-14.951c0-3.25-1.75-5-4.85-5c-2.2,0-4.051,1.2-5.251,3.3c-0.2,0.4-0.25,0.65-0.25,1.05v15.601
			C129.481,370.495,129.281,370.695,128.981,370.695z"/>
		<path d="M149.182,359.094c0-7.25,4.95-12.101,11.4-12.101c3.3,0,5.851,1.1,7.551,3.101c0.149,0.15,0.3,0.05,0.3-0.15v-1.95
			c0-0.3,0.2-0.5,0.5-0.5h2.45c0.3,0,0.5,0.2,0.5,0.5v22.201c0,0.3-0.2,0.5-0.5,0.5h-2.45c-0.3,0-0.5-0.2-0.5-0.5v-1.95
			c0-0.2-0.15-0.3-0.3-0.15c-1.851,1.85-4.251,3.1-7.551,3.1C154.132,371.195,149.182,366.345,149.182,359.094z M168.032,364.194
			c0.15-0.3,0.2-0.5,0.2-0.9v-8.4c0-0.4-0.05-0.6-0.2-0.9c-1.25-2.2-3.75-3.7-6.9-3.7c-4.95,0-8.25,3.55-8.25,8.801
			c0,5.25,3.3,8.8,8.25,8.8C164.282,367.895,166.883,366.444,168.032,364.194z"/>
		<path d="M181.031,338.443l2.7-1.45c0.35-0.15,0.6,0,0.6,0.35v9.9c0,0.15,0.1,0.25,0.25,0.25h2.75c0.3,0,0.5,0.2,0.5,0.5v2.15
			c0,0.3-0.2,0.5-0.5,0.5h-2.75c-0.15,0-0.25,0.1-0.25,0.25v19.301c0,0.3-0.2,0.5-0.5,0.5h-2.65c-0.3,0-0.5-0.2-0.5-0.5v-19.301
			c0-0.15-0.1-0.25-0.25-0.25h-2.75c-0.3,0-0.5-0.2-0.5-0.5v-2.15c0-0.3,0.2-0.5,0.5-0.5h2.75c0.15,0,0.25-0.1,0.25-0.25v-8.2
			C180.681,338.793,180.781,338.543,181.031,338.443z"/>
		<path d="M191.281,365.745c-0.1-0.3,0-0.5,0.3-0.6l2.4-0.85c0.3-0.1,0.55,0.05,0.65,0.35c0.649,2.25,2.6,3.4,4.45,3.4
			c2.899,0,4.3-1.6,4.3-3.65c0-2.3-1.7-3.3-4.05-3.75l-2-0.4c-3.4-0.65-5.551-3.25-5.551-6.55c0-3.75,3.101-6.701,7.5-6.701
			c3.601,0,6.351,1.95,7.351,5.5c0.101,0.35-0.05,0.55-0.35,0.65l-2.351,0.6c-0.3,0.1-0.55-0.05-0.6-0.35
			c-0.5-1.95-1.9-3.2-4.051-3.2c-2.35,0-3.899,1.4-3.899,3.351c0,2.05,1.199,3,3.399,3.45l1.95,0.4c3.551,0.7,6.251,2.95,6.251,7
			c0,3.9-2.95,6.85-7.9,6.85C194.981,371.245,192.331,368.945,191.281,365.745z"/>
		<path d="M226.833,347.493h2.801c0.35,0,0.5,0.2,0.399,0.55l-7.351,22.251c-0.1,0.25-0.35,0.4-0.649,0.4h-3.851
			c-0.3,0-0.55-0.15-0.649-0.4l-7.351-22.251c-0.101-0.35,0.05-0.55,0.399-0.55h2.801c0.25,0,0.5,0.15,0.6,0.4l5.95,18.451
			c0.051,0.2,0.301,0.2,0.351,0l5.95-18.451C226.333,347.644,226.583,347.493,226.833,347.493z"/>
		<path d="M233.232,359.094c0-7.351,4.9-12.101,11.301-12.101s11.2,4.851,11.2,11.551c0,0.35,0,0.75-0.05,1.15
			c-0.05,0.25-0.2,0.4-0.5,0.4h-17.651c-0.35,0-0.55,0.15-0.45,0.65c0.551,4.351,3.501,7.201,7.951,7.201c2.75,0,4.95-1.25,6.55-2.9
			c0.351-0.35,0.601-0.45,0.851-0.2l1.649,1.8c0.2,0.2,0.2,0.45,0,0.65c-2.35,2.45-5.5,3.95-9.05,3.95
			C238.133,371.245,233.232,366.444,233.232,359.094z M251.833,356.594c-0.649-3.75-3.45-6.3-7.3-6.3
			c-3.801,0-6.751,2.65-7.351,6.351c-0.101,0.4,0,0.55,0.45,0.55h13.75C251.783,357.194,251.934,357.044,251.833,356.594z"/>
		<path d="M272.282,347.043c0.301,0,0.45,0.2,0.45,0.5v2.65c0,0.35-0.2,0.5-0.55,0.4c-0.4-0.05-0.851-0.1-1.2-0.1
			c-2.601,0-4.351,1.25-5.5,2.95c-0.301,0.45-0.351,0.8-0.351,1.25v15.501c0,0.3-0.2,0.5-0.5,0.5h-2.65c-0.3,0-0.5-0.2-0.5-0.5
			v-22.201c0-0.3,0.2-0.5,0.5-0.5h2.4c0.3,0,0.5,0.2,0.5,0.5v1.8c0,0.25,0.15,0.35,0.351,0.15c1.3-1.55,3.35-2.95,6.3-2.95
			C271.782,346.993,272.032,346.993,272.282,347.043z"/>
		<path d="M301.133,347.493h2.7c0.35,0,0.55,0.2,0.45,0.55l-5.601,22.201c-0.05,0.3-0.25,0.45-0.55,0.45h-3.5
			c-0.351,0-0.551-0.2-0.65-0.55l-4.101-15.951c-0.05-0.2-0.3-0.2-0.35,0l-4.101,15.951c-0.1,0.35-0.3,0.55-0.649,0.55h-3.501
			c-0.3,0-0.5-0.15-0.55-0.45l-5.601-22.201c-0.1-0.35,0.101-0.55,0.45-0.55h2.7c0.351,0,0.55,0.15,0.601,0.45l4.149,17.551
			c0.051,0.25,0.25,0.25,0.301,0l4.5-17.551c0.1-0.3,0.25-0.45,0.55-0.45h2.65c0.3,0,0.45,0.15,0.55,0.45l4.5,17.551
			c0.051,0.25,0.25,0.25,0.301,0l4.149-17.551C300.583,347.644,300.782,347.493,301.133,347.493z"/>
		<path d="M308.031,359.094c0-7.25,4.95-12.101,11.4-12.101c3.3,0,5.851,1.1,7.551,3.101c0.149,0.15,0.3,0.05,0.3-0.15v-1.95
			c0-0.3,0.2-0.5,0.5-0.5h2.45c0.3,0,0.5,0.2,0.5,0.5v22.201c0,0.3-0.2,0.5-0.5,0.5h-2.45c-0.3,0-0.5-0.2-0.5-0.5v-1.95
			c0-0.2-0.15-0.3-0.3-0.15c-1.851,1.85-4.251,3.1-7.551,3.1C312.981,371.195,308.031,366.345,308.031,359.094z M326.882,364.194
			c0.15-0.3,0.2-0.5,0.2-0.9v-8.4c0-0.4-0.05-0.6-0.2-0.9c-1.25-2.2-3.75-3.7-6.9-3.7c-4.95,0-8.25,3.55-8.25,8.801
			c0,5.25,3.3,8.8,8.25,8.8C323.132,367.895,325.732,366.444,326.882,364.194z"/>
		<path d="M344.581,368.145v2.25c0,0.3-0.2,0.5-0.5,0.5h-0.9c-3.05,0-4.95-1.4-4.95-4.601v-31.302c0-0.3,0.2-0.5,0.5-0.5h2.65
			c0.3,0,0.5,0.2,0.5,0.5v30.852c0,1.1,0.399,1.8,1.5,1.8h0.7C344.381,367.645,344.581,367.845,344.581,368.145z"/>
		<path d="M351.68,338.443l2.7-1.45c0.35-0.15,0.6,0,0.6,0.35v9.9c0,0.15,0.1,0.25,0.25,0.25h2.75c0.3,0,0.5,0.2,0.5,0.5v2.15
			c0,0.3-0.2,0.5-0.5,0.5h-2.75c-0.15,0-0.25,0.1-0.25,0.25v19.301c0,0.3-0.2,0.5-0.5,0.5h-2.65c-0.3,0-0.5-0.2-0.5-0.5v-19.301
			c0-0.15-0.1-0.25-0.25-0.25h-2.75c-0.3,0-0.5-0.2-0.5-0.5v-2.15c0-0.3,0.2-0.5,0.5-0.5h2.75c0.15,0,0.25-0.1,0.25-0.25v-8.2
			C351.329,338.793,351.43,338.543,351.68,338.443z"/>
		<path d="M377.979,347.493h2.65c0.3,0,0.5,0.2,0.5,0.5v22.201c0,0.3-0.2,0.5-0.5,0.5h-2.4c-0.3,0-0.5-0.2-0.5-0.5v-1.65
			c0-0.25-0.2-0.35-0.45-0.1c-1.45,1.7-3.3,2.75-6.05,2.75c-5.101,0-7.751-3.4-7.751-7.65v-15.551c0-0.3,0.2-0.5,0.5-0.5h2.65
			c0.3,0,0.5,0.2,0.5,0.5v14.951c0,3.25,1.75,5,4.851,5c2.2,0,4.05-1.2,5.25-3.3c0.2-0.4,0.25-0.65,0.25-1.05v-15.601
			C377.479,347.693,377.68,347.493,377.979,347.493z"/>
		<path d="M391.878,370.695h-2.65c-0.3,0-0.5-0.2-0.5-0.5v-22.201c0-0.3,0.2-0.5,0.5-0.5h2.4c0.3,0,0.5,0.2,0.5,0.5v1.65
			c0,0.25,0.2,0.35,0.4,0.1c1.5-1.7,3.35-2.75,6.05-2.75c5.15,0,7.801,3.4,7.801,7.651v15.551c0,0.3-0.2,0.5-0.5,0.5h-2.65
			c-0.3,0-0.5-0.2-0.5-0.5v-14.951c0-3.25-1.75-5-4.85-5c-2.2,0-4.051,1.2-5.251,3.3c-0.2,0.4-0.25,0.65-0.25,1.05v15.601
			C392.378,370.495,392.178,370.695,391.878,370.695z"/>
		<path d="M414.328,377.195c-0.2-0.25-0.2-0.5,0-0.7l1.7-1.85c0.2-0.25,0.45-0.25,0.7,0c1.45,1.75,3.649,3,6.75,3
			c4.601,0,7.45-2.05,7.45-6.55v-3.45c0-0.25-0.25-0.35-0.5-0.1c-1.7,1.65-4.1,2.65-7.2,2.65c-6.25,0-11.101-4.65-11.101-11.651
			c0-6.9,4.95-11.551,11.301-11.551c3.1,0,5.55,1,7.25,2.8c0.25,0.25,0.45,0.15,0.45-0.15v-1.65c0-0.3,0.25-0.5,0.5-0.5h2.45
			c0.3,0,0.5,0.2,0.5,0.5v23.401c0,6.2-4.65,9.601-11.101,9.601C419.378,380.996,416.328,379.445,414.328,377.195z M430.729,363.344
			c0.199-0.3,0.25-0.55,0.25-0.9v-7.75c0-0.35-0.051-0.6-0.25-0.9c-1.301-2.05-3.65-3.5-6.801-3.5c-4.801,0-8.051,3.4-8.051,8.25
			c0,4.95,3.25,8.301,8.051,8.301C427.079,366.845,429.429,365.395,430.729,363.344z"/>
		<path d="M72.682,434.895v-19.301c0-0.15-0.101-0.25-0.25-0.25h-2c-0.3,0-0.5-0.2-0.5-0.45v-2.2c0-0.3,0.2-0.5,0.5-0.5h2
			c0.149,0,0.25-0.1,0.25-0.25v-7.4c0-3.6,1.85-5.9,5.4-5.9c1,0,1.95,0.3,2.75,0.65c0.3,0.15,0.45,0.3,0.35,0.6l-0.699,2.35
			c-0.101,0.35-0.351,0.35-0.65,0.2c-0.5-0.25-1-0.4-1.45-0.4c-1.25,0-2.05,0.9-2.05,2.7v7.2c0,0.15,0.1,0.25,0.25,0.25h3.1
			c0.301,0,0.5,0.2,0.5,0.5v2.2c0,0.25-0.199,0.45-0.5,0.45h-3.1c-0.15,0-0.25,0.1-0.25,0.25v19.301c0,0.3-0.2,0.5-0.45,0.5h-2.7
			C72.882,435.395,72.682,435.194,72.682,434.895z"/>
		<path d="M99.432,412.193h2.65c0.3,0,0.5,0.2,0.5,0.5v22.201c0,0.3-0.2,0.5-0.5,0.5h-2.4c-0.3,0-0.5-0.2-0.5-0.5v-1.65
			c0-0.25-0.2-0.35-0.45-0.1c-1.45,1.7-3.3,2.75-6.05,2.75c-5.101,0-7.751-3.4-7.751-7.65v-15.551c0-0.3,0.2-0.5,0.5-0.5h2.65
			c0.3,0,0.5,0.2,0.5,0.5v14.951c0,3.25,1.75,5,4.851,5c2.2,0,4.05-1.2,5.25-3.301c0.2-0.399,0.25-0.649,0.25-1.05v-15.601
			C98.932,412.393,99.132,412.193,99.432,412.193z M86.181,404.042c0-1.45,1.2-2.7,2.7-2.7c1.45,0,2.7,1.25,2.7,2.7
			c0,1.45-1.25,2.75-2.7,2.75C87.381,406.793,86.181,405.493,86.181,404.042z M96.031,404.042c0-1.45,1.2-2.7,2.7-2.7
			c1.45,0,2.7,1.25,2.7,2.7c0,1.45-1.25,2.75-2.7,2.75C97.231,406.793,96.031,405.493,96.031,404.042z"/>
		<path d="M120.98,411.743c0.301,0,0.45,0.2,0.45,0.5v2.65c0,0.35-0.2,0.5-0.55,0.4c-0.4-0.05-0.851-0.1-1.2-0.1
			c-2.601,0-4.351,1.25-5.5,2.95c-0.301,0.45-0.351,0.8-0.351,1.25v15.501c0,0.3-0.2,0.5-0.5,0.5h-2.65c-0.3,0-0.5-0.2-0.5-0.5
			v-22.201c0-0.3,0.2-0.5,0.5-0.5h2.4c0.3,0,0.5,0.2,0.5,0.5v1.8c0,0.25,0.15,0.35,0.351,0.15c1.3-1.55,3.35-2.95,6.3-2.95
			C120.48,411.693,120.73,411.693,120.98,411.743z"/>
		<path d="M142.58,434.944l-7.9-34.002c-0.101-0.35,0.05-0.55,0.45-0.55h2.85c0.301,0,0.5,0.2,0.551,0.45l6.45,28.402
			c0.05,0.25,0.25,0.25,0.3,0l6.551-28.402c0.05-0.25,0.3-0.45,0.6-0.45h2.65c0.3,0,0.55,0.2,0.6,0.45l6.551,28.402
			c0.05,0.25,0.25,0.25,0.3,0l6.45-28.402c0.05-0.25,0.25-0.45,0.55-0.45h2.851c0.4,0,0.55,0.2,0.45,0.55l-7.9,34.002
			c-0.05,0.3-0.25,0.45-0.601,0.45h-3.6c-0.3,0-0.551-0.2-0.601-0.45l-6.2-26.751c-0.05-0.25-0.3-0.25-0.35,0l-6.201,26.751
			c-0.05,0.25-0.3,0.45-0.6,0.45h-3.601C142.83,435.395,142.63,435.244,142.58,434.944z"/>
		<path d="M177.429,404.042c0-1.45,1.25-2.7,2.75-2.7c1.4,0,2.65,1.25,2.65,2.7c0,1.45-1.25,2.75-2.65,2.75
			C178.679,406.793,177.429,405.493,177.429,404.042z M178.278,434.895v-22.201c0-0.3,0.2-0.5,0.5-0.5h2.65c0.3,0,0.5,0.2,0.5,0.5
			v22.201c0,0.3-0.2,0.5-0.5,0.5h-2.65C178.479,435.395,178.278,435.194,178.278,434.895z"/>
		<path d="M187.929,430.444c-0.1-0.3,0-0.5,0.3-0.601l2.4-0.85c0.3-0.1,0.55,0.05,0.65,0.35c0.649,2.251,2.6,3.4,4.45,3.4
			c2.899,0,4.3-1.6,4.3-3.65c0-2.3-1.7-3.3-4.05-3.75l-2-0.4c-3.4-0.65-5.551-3.25-5.551-6.55c0-3.75,3.101-6.701,7.5-6.701
			c3.601,0,6.351,1.95,7.351,5.5c0.101,0.35-0.05,0.55-0.35,0.65l-2.351,0.6c-0.3,0.1-0.55-0.05-0.6-0.35
			c-0.5-1.95-1.9-3.2-4.051-3.2c-2.35,0-3.899,1.4-3.899,3.351c0,2.05,1.199,3,3.399,3.45l1.95,0.4c3.551,0.7,6.251,2.95,6.251,7
			c0,3.9-2.95,6.851-7.9,6.851C191.629,435.944,188.979,433.645,187.929,430.444z"/>
		<path d="M208.079,430.444c-0.1-0.3,0-0.5,0.3-0.601l2.4-0.85c0.3-0.1,0.55,0.05,0.65,0.35c0.649,2.251,2.6,3.4,4.45,3.4
			c2.899,0,4.3-1.6,4.3-3.65c0-2.3-1.7-3.3-4.05-3.75l-2-0.4c-3.4-0.65-5.551-3.25-5.551-6.55c0-3.75,3.101-6.701,7.5-6.701
			c3.601,0,6.351,1.95,7.351,5.5c0.101,0.35-0.05,0.55-0.35,0.65l-2.351,0.6c-0.3,0.1-0.55-0.05-0.6-0.35
			c-0.5-1.95-1.9-3.2-4.051-3.2c-2.35,0-3.899,1.4-3.899,3.351c0,2.05,1.199,3,3.399,3.45l1.95,0.4c3.551,0.7,6.251,2.95,6.251,7
			c0,3.9-2.95,6.851-7.9,6.851C211.779,435.944,209.129,433.645,208.079,430.444z"/>
		<path d="M228.18,423.794c0-7.351,4.9-12.101,11.301-12.101s11.2,4.851,11.2,11.551c0,0.35,0,0.75-0.05,1.15
			c-0.05,0.25-0.2,0.4-0.5,0.4h-17.651c-0.35,0-0.55,0.15-0.45,0.65c0.551,4.35,3.501,7.201,7.951,7.201c2.75,0,4.95-1.25,6.55-2.9
			c0.351-0.35,0.601-0.45,0.851-0.2l1.649,1.801c0.2,0.199,0.2,0.449,0,0.649c-2.35,2.45-5.5,3.95-9.05,3.95
			C233.08,435.944,228.18,431.145,228.18,423.794z M246.78,421.293c-0.649-3.75-3.45-6.3-7.3-6.3c-3.801,0-6.751,2.65-7.351,6.351
			c-0.101,0.4,0,0.55,0.45,0.55h13.75C246.73,421.894,246.881,421.744,246.78,421.293z"/>
		<path d="M259.579,435.395h-2.65c-0.3,0-0.5-0.2-0.5-0.5v-22.201c0-0.3,0.2-0.5,0.5-0.5h2.4c0.3,0,0.5,0.2,0.5,0.5v1.65
			c0,0.25,0.2,0.35,0.4,0.1c1.5-1.7,3.35-2.75,6.05-2.75c5.15,0,7.801,3.4,7.801,7.651v15.551c0,0.3-0.2,0.5-0.5,0.5h-2.65
			c-0.3,0-0.5-0.2-0.5-0.5v-14.951c0-3.25-1.75-5-4.85-5c-2.2,0-4.051,1.2-5.251,3.3c-0.2,0.4-0.25,0.65-0.25,1.05v15.601
			C260.079,435.194,259.879,435.395,259.579,435.395z"/>
		<path d="M279.829,430.444c-0.1-0.3,0-0.5,0.3-0.601l2.4-0.85c0.3-0.1,0.55,0.05,0.65,0.35c0.649,2.251,2.6,3.4,4.45,3.4
			c2.899,0,4.3-1.6,4.3-3.65c0-2.3-1.7-3.3-4.05-3.75l-2-0.4c-3.4-0.65-5.551-3.25-5.551-6.55c0-3.75,3.101-6.701,7.5-6.701
			c3.601,0,6.351,1.95,7.351,5.5c0.101,0.35-0.05,0.55-0.35,0.65l-2.351,0.6c-0.3,0.1-0.55-0.05-0.6-0.35
			c-0.5-1.95-1.9-3.2-4.051-3.2c-2.35,0-3.899,1.4-3.899,3.351c0,2.05,1.199,3,3.399,3.45l1.95,0.4c3.551,0.7,6.251,2.95,6.251,7
			c0,3.9-2.95,6.851-7.9,6.851C283.529,435.944,280.879,433.645,279.829,430.444z"/>
		<path d="M311.53,411.693c3.95,0,7.45,1.75,9.351,4.9c0.149,0.3,0.05,0.55-0.2,0.7l-2.15,1.2c-0.25,0.15-0.5,0.1-0.7-0.2
			c-1.25-2.05-3.55-3.25-6.3-3.25c-4.801,0-7.9,3.55-7.9,8.75s3.1,8.75,7.9,8.75c2.75,0,4.95-1.25,6.3-3.25
			c0.2-0.3,0.45-0.35,0.7-0.2l2.15,1.2c0.25,0.15,0.35,0.4,0.2,0.7c-1.65,3.301-5.4,4.9-9.351,4.9
			c-6.751,0-11.601-4.851-11.601-12.101C299.93,416.543,304.779,411.693,311.53,411.693z"/>
		<path d="M329.729,435.395h-2.65c-0.3,0-0.5-0.2-0.5-0.5v-35.202c0-0.3,0.2-0.5,0.5-0.5h2.65c0.3,0,0.5,0.2,0.5,0.5v14.401
			c0,0.3,0.15,0.35,0.351,0.1c1.35-1.5,3.35-2.5,5.85-2.5c5.15,0,7.801,3.4,7.801,7.651v15.551c0,0.3-0.2,0.5-0.5,0.5h-2.65
			c-0.3,0-0.5-0.2-0.5-0.5v-14.951c0-3.25-1.75-5-4.85-5c-2.2,0-4.101,1.15-5.251,3.3c-0.2,0.4-0.25,0.65-0.25,1.05v15.601
			C330.229,435.194,330.029,435.395,329.729,435.395z"/>
		<path d="M349.93,423.794c0-7.25,4.95-12.101,11.4-12.101c3.3,0,5.851,1.1,7.551,3.101c0.149,0.15,0.3,0.05,0.3-0.15v-1.95
			c0-0.3,0.2-0.5,0.5-0.5h2.45c0.3,0,0.5,0.2,0.5,0.5v22.201c0,0.3-0.2,0.5-0.5,0.5h-2.45c-0.3,0-0.5-0.2-0.5-0.5v-1.95
			c0-0.2-0.15-0.3-0.3-0.15c-1.851,1.851-4.251,3.101-7.551,3.101C354.88,435.895,349.93,431.044,349.93,423.794z M368.78,428.895
			c0.15-0.301,0.2-0.5,0.2-0.9v-8.4c0-0.4-0.05-0.6-0.2-0.9c-1.25-2.2-3.75-3.7-6.9-3.7c-4.95,0-8.25,3.55-8.25,8.801
			c0,5.25,3.3,8.801,8.25,8.801C365.03,432.595,367.631,431.145,368.78,428.895z"/>
		<path d="M381.129,434.895v-19.301c0-0.15-0.101-0.25-0.25-0.25h-2c-0.3,0-0.5-0.2-0.5-0.45v-2.2c0-0.3,0.2-0.5,0.5-0.5h2
			c0.149,0,0.25-0.1,0.25-0.25v-7.4c0-3.6,1.85-5.9,5.4-5.9c1,0,1.95,0.3,2.75,0.65c0.3,0.15,0.45,0.3,0.35,0.6l-0.699,2.35
			c-0.101,0.35-0.351,0.35-0.65,0.2c-0.5-0.25-1-0.4-1.45-0.4c-1.25,0-2.05,0.9-2.05,2.7v7.2c0,0.15,0.1,0.25,0.25,0.25h3.1
			c0.301,0,0.5,0.2,0.5,0.5v2.2c0,0.25-0.199,0.45-0.5,0.45h-3.1c-0.15,0-0.25,0.1-0.25,0.25v19.301c0,0.3-0.2,0.5-0.45,0.5h-2.7
			C381.329,435.395,381.129,435.194,381.129,434.895z"/>
		<path d="M395.179,403.143l2.699-1.45c0.351-0.15,0.601,0,0.601,0.35v9.9c0,0.15,0.1,0.25,0.25,0.25h2.75c0.3,0,0.5,0.2,0.5,0.5
			v2.15c0,0.3-0.2,0.5-0.5,0.5h-2.75c-0.15,0-0.25,0.1-0.25,0.25v19.301c0,0.3-0.2,0.5-0.5,0.5h-2.65c-0.3,0-0.5-0.2-0.5-0.5
			v-19.301c0-0.15-0.1-0.25-0.25-0.25h-2.75c-0.3,0-0.5-0.2-0.5-0.5v-2.15c0-0.3,0.2-0.5,0.5-0.5h2.75c0.15,0,0.25-0.1,0.25-0.25
			v-8.2C394.828,403.493,394.929,403.243,395.179,403.143z"/>
		<path d="M412.229,433.044c0,2.051-0.85,3.551-1.75,5.101l-3.75,6.45c-0.15,0.301-0.4,0.4-0.7,0.2l-1.7-1.1
			c-0.3-0.2-0.3-0.4-0.15-0.65l3.851-6.601c0.2-0.35,0.15-0.5-0.2-0.649c-1.25-0.4-2.1-1.601-2.1-3.051c0-1.75,1.449-3.2,3.25-3.2
			C410.778,429.544,412.229,430.845,412.229,433.044z"/>
		<path d="M89.883,485.693v-2.55c0-0.3,0.2-0.5,0.5-0.5h14.601c0.3,0,0.5,0.2,0.5,0.5c-0.5,11.001-7.4,17.801-17.351,17.801
			c-9.851,0-17.501-7.5-17.501-18.351s7.65-18.352,17.65-18.352c6.2,0,11.451,2.65,14.551,7.101c0.2,0.25,0.15,0.5-0.1,0.7l-2.2,1.5
			c-0.25,0.2-0.5,0.15-0.7-0.1c-2.45-3.601-6.65-5.551-11.551-5.551c-8.05,0-13.801,5.9-13.801,14.701s5.751,14.701,13.651,14.701
			c6.8,0,11.801-4.001,13.051-10.851c0.05-0.15-0.051-0.25-0.2-0.25H90.383C90.083,486.194,89.883,485.994,89.883,485.693z"/>
		<path d="M109.581,488.494c0-7.351,4.9-12.101,11.301-12.101s11.2,4.85,11.2,11.551c0,0.35,0,0.75-0.05,1.149
			c-0.05,0.25-0.2,0.4-0.5,0.4h-17.651c-0.35,0-0.55,0.15-0.45,0.65c0.551,4.35,3.501,7.2,7.951,7.2c2.75,0,4.95-1.25,6.55-2.9
			c0.351-0.35,0.601-0.45,0.851-0.2l1.649,1.801c0.2,0.199,0.2,0.449,0,0.649c-2.35,2.45-5.5,3.95-9.05,3.95
			C114.481,500.645,109.581,495.845,109.581,488.494z M128.182,485.994c-0.649-3.751-3.45-6.301-7.3-6.301
			c-3.801,0-6.751,2.65-7.351,6.351c-0.101,0.4,0,0.55,0.45,0.55h13.75C128.132,486.594,128.282,486.444,128.182,485.994z"/>
		<path d="M136.23,495.145c-0.1-0.3,0-0.5,0.3-0.601l2.4-0.85c0.3-0.1,0.55,0.05,0.65,0.35c0.649,2.251,2.6,3.4,4.45,3.4
			c2.899,0,4.3-1.6,4.3-3.65c0-2.3-1.7-3.3-4.05-3.75l-2-0.399c-3.4-0.65-5.551-3.251-5.551-6.551c0-3.75,3.101-6.7,7.5-6.7
			c3.601,0,6.351,1.95,7.351,5.5c0.101,0.35-0.05,0.55-0.35,0.65l-2.351,0.6c-0.3,0.101-0.55-0.05-0.6-0.35
			c-0.5-1.95-1.9-3.2-4.051-3.2c-2.35,0-3.899,1.399-3.899,3.35c0,2.051,1.199,3.001,3.399,3.45l1.95,0.4
			c3.551,0.7,6.251,2.95,6.251,7c0,3.9-2.95,6.851-7.9,6.851C139.931,500.645,137.28,498.345,136.23,495.145z"/>
		<path d="M172.182,476.894h2.65c0.3,0,0.5,0.2,0.5,0.5v22.201c0,0.3-0.2,0.5-0.5,0.5h-2.4c-0.3,0-0.5-0.2-0.5-0.5v-1.65
			c0-0.25-0.2-0.35-0.45-0.1c-1.45,1.7-3.3,2.75-6.05,2.75c-5.101,0-7.751-3.4-7.751-7.65v-15.551c0-0.3,0.2-0.5,0.5-0.5h2.65
			c0.3,0,0.5,0.2,0.5,0.5v14.951c0,3.25,1.75,5,4.851,5c2.2,0,4.05-1.2,5.25-3.301c0.2-0.399,0.25-0.649,0.25-1.05v-15.601
			C171.682,477.094,171.882,476.894,172.182,476.894z"/>
		<path d="M186.08,500.095h-2.65c-0.3,0-0.5-0.2-0.5-0.5v-22.201c0-0.3,0.2-0.5,0.5-0.5h2.4c0.3,0,0.5,0.2,0.5,0.5v1.649
			c0,0.25,0.2,0.351,0.4,0.101c1.5-1.7,3.35-2.75,6.05-2.75c5.15,0,7.801,3.4,7.801,7.65v15.551c0,0.3-0.2,0.5-0.5,0.5h-2.65
			c-0.3,0-0.5-0.2-0.5-0.5v-14.951c0-3.25-1.75-5-4.85-5c-2.2,0-4.051,1.2-5.251,3.3c-0.2,0.4-0.25,0.65-0.25,1.051v15.601
			C186.58,499.895,186.38,500.095,186.08,500.095z"/>
		<path d="M225.831,463.893h2.65c0.3,0,0.5,0.2,0.5,0.5v35.202c0,0.3-0.2,0.5-0.5,0.5h-2.45c-0.3,0-0.5-0.2-0.5-0.5v-1.75
			c0-0.351-0.2-0.4-0.45-0.101c-1.65,1.851-4.15,2.851-7.4,2.851c-6.45,0-11.4-4.851-11.4-12.101c0-7.251,4.95-12.101,11.4-12.101
			c3.101,0,5.5,1,7.2,2.649c0.301,0.301,0.45,0.15,0.45-0.149v-14.501C225.331,464.093,225.531,463.893,225.831,463.893z
			 M225.131,493.595c0.15-0.301,0.2-0.5,0.2-0.801v-8.601c0-0.3-0.05-0.5-0.2-0.8c-1.3-2.2-3.75-3.7-6.9-3.7
			c-4.95,0-8.25,3.551-8.25,8.801s3.3,8.801,8.25,8.801C221.381,497.295,223.831,495.795,225.131,493.595z"/>
		<path d="M239.729,500.095h-2.65c-0.3,0-0.5-0.2-0.5-0.5v-35.202c0-0.3,0.2-0.5,0.5-0.5h2.65c0.3,0,0.5,0.2,0.5,0.5v14.4
			c0,0.301,0.15,0.351,0.351,0.101c1.35-1.5,3.35-2.5,5.85-2.5c5.15,0,7.801,3.4,7.801,7.65v15.551c0,0.3-0.2,0.5-0.5,0.5h-2.65
			c-0.3,0-0.5-0.2-0.5-0.5v-14.951c0-3.25-1.75-5-4.85-5c-2.2,0-4.101,1.15-5.251,3.3c-0.2,0.4-0.25,0.65-0.25,1.051v15.601
			C240.229,499.895,240.029,500.095,239.729,500.095z"/>
		<path d="M259.93,488.494c0-7.351,4.9-12.101,11.301-12.101s11.2,4.85,11.2,11.551c0,0.35,0,0.75-0.05,1.149
			c-0.05,0.25-0.2,0.4-0.5,0.4h-17.651c-0.35,0-0.55,0.15-0.45,0.65c0.551,4.35,3.501,7.2,7.951,7.2c2.75,0,4.95-1.25,6.55-2.9
			c0.351-0.35,0.601-0.45,0.851-0.2l1.649,1.801c0.2,0.199,0.2,0.449,0,0.649c-2.35,2.45-5.5,3.95-9.05,3.95
			C264.83,500.645,259.93,495.845,259.93,488.494z M278.53,485.994c-0.649-3.751-3.45-6.301-7.3-6.301
			c-3.801,0-6.751,2.65-7.351,6.351c-0.101,0.4,0,0.55,0.45,0.55h13.75C278.48,486.594,278.631,486.444,278.53,485.994z"/>
		<path d="M287.329,468.743c0-1.45,1.25-2.7,2.75-2.7c1.4,0,2.65,1.25,2.65,2.7s-1.25,2.75-2.65,2.75
			C288.579,471.493,287.329,470.193,287.329,468.743z M288.179,499.595v-22.201c0-0.3,0.2-0.5,0.5-0.5h2.65c0.3,0,0.5,0.2,0.5,0.5
			v22.201c0,0.3-0.2,0.5-0.5,0.5h-2.65C288.379,500.095,288.179,499.895,288.179,499.595z"/>
		<path d="M300.93,467.843l2.7-1.45c0.35-0.15,0.6,0,0.6,0.351v9.9c0,0.149,0.1,0.25,0.25,0.25h2.75c0.3,0,0.5,0.2,0.5,0.5v2.15
			c0,0.3-0.2,0.5-0.5,0.5h-2.75c-0.15,0-0.25,0.1-0.25,0.25v19.301c0,0.3-0.2,0.5-0.5,0.5h-2.65c-0.3,0-0.5-0.2-0.5-0.5v-19.301
			c0-0.15-0.1-0.25-0.25-0.25h-2.75c-0.3,0-0.5-0.2-0.5-0.5v-2.15c0-0.3,0.2-0.5,0.5-0.5h2.75c0.15,0,0.25-0.101,0.25-0.25v-8.201
			C300.579,468.192,300.68,467.942,300.93,467.843z"/>
		<path d="M340.029,476.894h2.65c0.3,0,0.5,0.2,0.5,0.5v22.201c0,0.3-0.2,0.5-0.5,0.5h-2.4c-0.3,0-0.5-0.2-0.5-0.5v-1.65
			c0-0.25-0.2-0.35-0.45-0.1c-1.45,1.7-3.3,2.75-6.05,2.75c-5.101,0-7.751-3.4-7.751-7.65v-15.551c0-0.3,0.2-0.5,0.5-0.5h2.65
			c0.3,0,0.5,0.2,0.5,0.5v14.951c0,3.25,1.75,5,4.851,5c2.2,0,4.05-1.2,5.25-3.301c0.2-0.399,0.25-0.649,0.25-1.05v-15.601
			C339.529,477.094,339.729,476.894,340.029,476.894z"/>
		<path d="M353.928,500.095h-2.65c-0.3,0-0.5-0.2-0.5-0.5v-22.201c0-0.3,0.2-0.5,0.5-0.5h2.4c0.3,0,0.5,0.2,0.5,0.5v1.649
			c0,0.25,0.2,0.351,0.4,0.101c1.5-1.7,3.35-2.75,6.05-2.75c5.15,0,7.801,3.4,7.801,7.65v15.551c0,0.3-0.2,0.5-0.5,0.5h-2.65
			c-0.3,0-0.5-0.2-0.5-0.5v-14.951c0-3.25-1.75-5-4.85-5c-2.2,0-4.051,1.2-5.251,3.3c-0.2,0.4-0.25,0.65-0.25,1.051v15.601
			C354.428,499.895,354.228,500.095,353.928,500.095z"/>
		<path d="M393.679,463.893h2.65c0.3,0,0.5,0.2,0.5,0.5v35.202c0,0.3-0.2,0.5-0.5,0.5h-2.45c-0.3,0-0.5-0.2-0.5-0.5v-1.75
			c0-0.351-0.2-0.4-0.45-0.101c-1.65,1.851-4.15,2.851-7.4,2.851c-6.45,0-11.4-4.851-11.4-12.101c0-7.251,4.95-12.101,11.4-12.101
			c3.101,0,5.5,1,7.2,2.649c0.301,0.301,0.45,0.15,0.45-0.149v-14.501C393.179,464.093,393.379,463.893,393.679,463.893z
			 M392.979,493.595c0.15-0.301,0.2-0.5,0.2-0.801v-8.601c0-0.3-0.05-0.5-0.2-0.8c-1.3-2.2-3.75-3.7-6.9-3.7
			c-4.95,0-8.25,3.551-8.25,8.801s3.3,8.801,8.25,8.801C389.229,497.295,391.679,495.795,392.979,493.595z"/>
		<path d="M440.179,477.344c0,7.5-4.9,12.25-13.201,12.25h-4.7c-0.15,0-0.25,0.101-0.25,0.25v9.751c0,0.3-0.2,0.5-0.5,0.5h-2.7
			c-0.3,0-0.5-0.2-0.5-0.5v-34.002c0-0.3,0.2-0.5,0.5-0.5h8.15C435.278,465.093,440.179,469.843,440.179,477.344z M422.277,486.044
			h4.351c6.15,0,9.65-2.9,9.65-8.7c0-5.801-3.5-8.701-9.65-8.701h-4.351c-0.15,0-0.25,0.101-0.25,0.25v16.901
			C422.027,485.944,422.127,486.044,422.277,486.044z"/>
		<path d="M445.978,499.595v-19.301c0-0.15-0.101-0.25-0.25-0.25h-2c-0.3,0-0.5-0.2-0.5-0.45v-2.2c0-0.3,0.2-0.5,0.5-0.5h2
			c0.149,0,0.25-0.101,0.25-0.25v-7.4c0-3.601,1.85-5.9,5.4-5.9c1,0,1.95,0.3,2.75,0.649c0.3,0.15,0.45,0.301,0.35,0.601
			l-0.699,2.35c-0.101,0.351-0.351,0.351-0.65,0.2c-0.5-0.25-1-0.399-1.45-0.399c-1.25,0-2.05,0.899-2.05,2.699v7.201
			c0,0.149,0.1,0.25,0.25,0.25h3.1c0.301,0,0.5,0.2,0.5,0.5v2.2c0,0.25-0.199,0.45-0.5,0.45h-3.1c-0.15,0-0.25,0.1-0.25,0.25v19.301
			c0,0.3-0.2,0.5-0.45,0.5h-2.7C446.178,500.095,445.978,499.895,445.978,499.595z"/>
		<path d="M464.728,497.545v2.25c0,0.3-0.2,0.5-0.5,0.5h-0.9c-3.05,0-4.95-1.4-4.95-4.601v-31.302c0-0.3,0.2-0.5,0.5-0.5h2.65
			c0.3,0,0.5,0.2,0.5,0.5v30.852c0,1.101,0.399,1.801,1.5,1.801h0.7C464.527,497.045,464.728,497.244,464.728,497.545z"/>
		<path d="M468.327,488.494c0-7.351,4.9-12.101,11.301-12.101s11.2,4.85,11.2,11.551c0,0.35,0,0.75-0.05,1.149
			c-0.05,0.25-0.2,0.4-0.5,0.4h-17.651c-0.35,0-0.55,0.15-0.45,0.65c0.551,4.35,3.501,7.2,7.951,7.2c2.75,0,4.95-1.25,6.55-2.9
			c0.351-0.35,0.601-0.45,0.851-0.2l1.649,1.801c0.2,0.199,0.2,0.449,0,0.649c-2.35,2.45-5.5,3.95-9.05,3.95
			C473.228,500.645,468.327,495.845,468.327,488.494z M486.928,485.994c-0.649-3.751-3.45-6.301-7.3-6.301
			c-3.801,0-6.751,2.65-7.351,6.351c-0.101,0.4,0,0.55,0.45,0.55h13.75C486.878,486.594,487.028,486.444,486.928,485.994z"/>
		<path d="M497.177,506.595c-0.2-0.25-0.2-0.5,0-0.699l1.7-1.851c0.2-0.25,0.45-0.25,0.7,0c1.45,1.75,3.649,3,6.75,3
			c4.601,0,7.45-2.05,7.45-6.55v-3.45c0-0.25-0.25-0.351-0.5-0.101c-1.7,1.65-4.1,2.65-7.2,2.65c-6.25,0-11.101-4.65-11.101-11.65
			c0-6.9,4.95-11.551,11.301-11.551c3.1,0,5.55,1,7.25,2.8c0.25,0.25,0.45,0.15,0.45-0.15v-1.649c0-0.3,0.25-0.5,0.5-0.5h2.45
			c0.3,0,0.5,0.2,0.5,0.5v23.401c0,6.2-4.65,9.601-11.101,9.601C502.227,510.396,499.177,508.846,497.177,506.595z M513.577,492.744
			c0.2-0.3,0.251-0.55,0.251-0.9v-7.75c0-0.35-0.051-0.6-0.251-0.9c-1.3-2.05-3.649-3.5-6.8-3.5c-4.801,0-8.051,3.4-8.051,8.251
			c0,4.95,3.25,8.3,8.051,8.3C509.928,496.244,512.277,494.794,513.577,492.744z"/>
		<path d="M523.326,488.494c0-7.351,4.9-12.101,11.301-12.101s11.2,4.85,11.2,11.551c0,0.35,0,0.75-0.05,1.149
			c-0.05,0.25-0.2,0.4-0.5,0.4h-17.651c-0.35,0-0.55,0.15-0.45,0.65c0.551,4.35,3.501,7.2,7.951,7.2c2.75,0,4.95-1.25,6.55-2.9
			c0.351-0.35,0.601-0.45,0.851-0.2l1.649,1.801c0.2,0.199,0.2,0.449,0,0.649c-2.35,2.45-5.5,3.95-9.05,3.95
			C528.227,500.645,523.326,495.845,523.326,488.494z M541.927,485.994c-0.649-3.751-3.45-6.301-7.3-6.301
			c-3.801,0-6.751,2.65-7.351,6.351c-0.101,0.4,0,0.55,0.45,0.55h13.75C541.877,486.594,542.027,486.444,541.927,485.994z"/>
	</g>
</g>
</svg>
