<?xml version="1.0" encoding="UTF-8"?>
<svg width="125px" height="110px" viewBox="0 0 125 110" version="1.1" xmlns="http://www.w3.org/2000/svg" xmlns:xlink="http://www.w3.org/1999/xlink">
    <!-- Generator: Sketch 49.2 (51160) - http://www.bohemiancoding.com/sketch -->
    <title>Group 17</title>
    <desc>Created with Sketch.</desc>
    <defs></defs>
    <g id="Page-1" stroke="none" stroke-width="1" fill="none" fill-rule="evenodd" fill-opacity="0.98">
        <g id="Open-Data" transform="translate(-160.000000, -7688.000000)" fill="#122BE1">
            <g id="Group-17" transform="translate(160.000000, 7688.000000)">
                <polygon id="Path" points="64.70685 75.4279 64.70685 83.1382 75.26115 83.1382 75.26115 109.85605 83.7504 109.85605 83.7504 83.1382 94.3974 83.1382 94.3974 75.4279"></polygon>
                <polygon id="Path" points="2.2842 102.14395 2.2842 109.85605 11.6379 109.85605 12.15585 102.14395"></polygon>
                <path d="M46.8225,104.8516 L44.1207,109.80925 L34.7445,109.80925 L55.7883,75.4261 L63.56655,75.4261 L63.56655,109.80925 L55.74825,109.80925 L55.74825,104.8516 L46.8225,104.8516 Z M55.74825,97.8739 L55.74825,88.2808 L55.6245,88.2808 L50.54715,97.8739 L55.74825,97.8739 Z" id="Combined-Shape"></path>
                <path d="M20.97405,75.4315 L21.5082,83.1391 L21.8412,83.1391 C23.26275,83.1391 24.48495,83.38345 25.50825,83.8726 C26.52975,84.36355 27.36585,85.0291 28.017,85.87015 C28.6695,86.713 29.151,87.7138 29.46285,88.8766 C29.7738,90.0412 29.9286,91.3111 29.9286,92.68765 C29.9286,94.0633 29.7801,95.33455 29.48445,96.4978 C29.18835,97.66105 28.71315,98.6623 28.0629,99.5038 C27.40995,100.3462 26.57385,100.99645 25.5519,101.45455 C24.768,101.8078 23.8563,102.0211 22.8204,102.10345 L23.3532,109.77955 C27.8586,109.4479 31.41405,108.0133 34.0173,105.47125 C37.0089,102.5494 38.50425,98.242 38.50425,92.5495 C38.50425,90.6217 38.26755,88.747 37.7937,86.92675 C37.3194,85.1065 36.53505,83.39965 35.43885,81.80845 C34.49025,80.46205 33.46875,79.3672 32.37435,78.5266 C31.27725,77.68555 30.1131,77.03395 28.8846,76.5745 C27.65475,76.1155 26.352,75.80995 24.9741,75.65695 C23.6997,75.5161 22.3641,75.44185 20.97405,75.4315 Z" id="Path"></path>
                <path d="M103.3578,104.542 L103.3578,109.4992 L95.53905,109.4992 L95.53905,75.11605 L103.31685,75.11605 L124.3611,109.4992 L114.984,109.4992 L112.2831,104.542 L103.3578,104.542 Z M108.55755,97.5643 L103.4802,87.97075 L103.3578,87.97075 L103.3578,97.5643 L108.55755,97.5643 Z" id="Combined-Shape"></path>
                <polygon id="Path" points="2.2842 75.4279 2.2842 83.1391 13.4298 83.1391 13.9473 75.4279"></polygon>
                <polygon id="Path" points="104.27805 51.52435 116.9406 72.99655 124.36155 72.99655 124.36155 37.7593 116.5419 37.7593 116.5419 59.79355 116.4519 59.8417 103.5666 37.7593 95.53905 37.7593 95.53905 72.99655 104.1444 72.99655 104.1435 51.61885"></polygon>
                <polygon id="Path" points="64.70685 37.7584 64.70685 72.99655 94.0329 72.99655 94.0329 65.09185 73.03995 65.09185 73.03995 59.1019 85.545 59.1019 85.545 51.14905 73.03995 51.14905 73.03995 45.66085 94.0329 45.66085 94.0329 37.7584"></polygon>
                <path d="M35.8371,37.70755 L35.8371,72.99655 L44.3142,72.99655 L44.3142,45.56095 L49.43295,45.56095 C52.308,45.56095 55.233,46.01455 55.233,49.6879 C55.233,53.3131 52.55325,53.9674 49.7277,53.9674 L45.4572,53.9674 L45.4572,61.92205 L50.01975,61.92205 C53.7714,61.92205 57.0357,61.51975 59.91075,58.8004 C62.39655,56.58595 63.56655,52.8082 63.56655,49.5367 C63.56655,45.91285 62.2494,42.49105 59.5692,40.2748 C56.74365,37.80925 52.50375,37.70755 48.996,37.70755 L35.8371,37.70755 Z" id="Path"></path>
                <path d="M16.4367,37.7809 C11.1969,38.01265 6.64875,40.36165 3.4614,44.7064 C2.53395,45.8629 1.75455,47.22235 1.31715,48.4801 C0.39015,50.84665 0,53.2123 0,55.7305 C0,64.384 6.17535,71.1961 14.04675,72.68695 L14.62185,64.11175 C10.7685,62.9332 8.43075,59.34625 8.43075,55.2346 C8.43075,50.8732 11.21175,47.0644 15.6042,46.28005 L16.4367,37.7809 Z" id="Path"></path>
                <path d="M18.3726,37.79395 L19.3131,46.34845 C23.57325,47.2921 26.2647,51.19225 26.2647,55.37275 C26.2647,59.21935 23.9427,62.8216 20.27475,64.0654 L20.8665,72.6352 C28.75815,71.01835 34.69545,64.11805 34.69545,55.37815 C34.69545,45.68695 27.4716,38.33215 18.3726,37.79395 Z" id="Path"></path>
                <path d="M48.35745,27.61675 L48.35745,35.32615 L26.63235,35.32615 L26.63235,28.3516 C26.56395,28.57255 26.4915,28.7953 26.41005,29.0149 C25.9065,30.3775 25.13565,31.50115 24.09795,32.3881 C23.2389,33.15535 22.3947,33.7372 21.56625,34.1341 C20.736,34.5319 19.8855,34.82125 19.0107,35.00575 C18.7497,35.05975 18.48465,35.1052 18.21915,35.14435 L17.34795,27.2266 C17.50995,27.15235 17.66565,27.06865 17.811,26.9719 C18.18135,26.72845 18.4779,26.3923 18.69885,25.9639 C18.92205,25.53415 19.03275,24.9991 19.03275,24.35695 C19.03275,23.74405 18.92205,23.23825 18.69885,22.8409 C18.4779,22.44355 18.18135,22.1371 17.811,21.92245 C17.4402,21.7105 17.01135,21.5638 16.5231,21.4891 C16.03395,21.4117 15.53625,21.37255 15.0336,21.37255 L2.2842,21.37255 L2.2842,14.02855 L14.01165,14.02855 C14.9598,14.02855 15.75945,13.84495 16.41105,13.47685 C17.0631,13.1101 17.3889,12.39145 17.3889,11.3191 C17.3889,10.7683 17.30025,10.3174 17.12205,9.9646 C16.94385,9.6136 16.6995,9.33865 16.38855,9.13975 C16.0785,8.94175 15.7221,8.81215 15.3225,8.74915 C14.92245,8.6884 14.50125,8.65645 14.05755,8.65645 L2.2842,8.65645 L2.2842,0.94525 L12.9015,0.94525 C13.90815,0.94525 14.8923,0.9673 15.85575,1.015 C16.8174,1.05865 17.75205,1.19005 18.65475,1.4038 C19.5597,1.61935 20.41785,1.9555 21.23235,2.4136 C22.0464,2.87395 22.81095,3.5161 23.5224,4.34185 C24.2325,5.1379 24.74955,6.00145 25.0758,6.9352 C25.4007,7.86895 25.5654,8.8711 25.5654,9.94255 C25.5654,11.41225 25.23285,12.76675 24.5655,14.0038 C23.8986,15.24355 22.9275,16.21735 21.65535,16.9198 C23.4918,17.5615 24.86925,18.56635 25.7868,19.9267 C26.1342,20.4424 26.41635,21.0013 26.63235,21.6025 L26.63235,0.89845 L40.5189,0.89845 L40.5189,0.88675 L48.38985,0.88675 C49.31685,0.88675 50.26905,0.9025 51.24555,0.9322 C52.22025,0.96325 53.18865,1.0627 54.1485,1.23055 C55.10925,1.4002 56.0358,1.64455 56.93355,1.96495 C57.8286,2.28805 58.65975,2.7394 59.42835,3.3199 C60.89985,4.48315 62.0109,5.89975 62.76375,7.567 C63.5157,9.23605 63.891,10.9735 63.891,12.78025 C63.891,14.09695 63.69075,15.35965 63.2925,16.5679 C62.89155,17.77795 62.307,18.8647 61.53975,19.8286 C60.77205,20.7925 59.8284,21.60565 58.7088,22.26265 C57.5874,22.92145 56.32335,23.3584 54.9162,23.5726 L64.70685,35.32705 L54.1485,35.32705 L48.35745,27.61675 Z M49.06215,18.19915 C50.7897,18.19915 52.22025,17.8243 53.3556,17.0746 C54.4923,16.32265 55.06065,15.0604 55.06065,13.2856 C55.06065,12.4297 54.90045,11.7007 54.5796,11.10355 C54.25965,10.50775 53.82855,10.02445 53.28405,9.6577 C52.74,9.29005 52.1091,9.02275 51.38955,8.854 C50.6691,8.68615 48.8232,8.60335 47.34405,8.60335 C46.8765,8.60335 46.02285,8.60335 45.0729,8.60515 L45.0729,8.611 L34.76385,8.611 L34.76385,13.9822 L41.57685,13.9822 L41.57685,18.19915 L49.06215,18.19915 Z M48.35745,27.6154 L41.57685,18.58615 L41.57685,21.73975 L34.76385,21.73975 L34.76385,27.6154 L48.35745,27.6154 Z" id="Combined-Shape"></path>
                <path d="M2.2842,27.66265 L2.2842,35.32705 L13.212,35.32705 C14.30775,35.32705 15.32835,35.31895 16.2783,35.30455 C16.37235,35.3014 16.4646,35.2951 16.55865,35.29285 L17.34795,27.2266 C17.09865,27.3427 16.8327,27.4363 16.5438,27.4993 C16.06995,27.60955 15.5673,27.66265 15.0336,27.66265 L2.2842,27.66265 Z" id="Path"></path>
                <polygon id="Path" points="104.27805 14.34895 116.9406 35.32615 124.36155 35.32615 124.36155 0.89845 116.5419 0.89845 116.5419 22.4278 116.4519 22.47415 103.5666 0.89845 95.53905 0.89845 95.53905 35.32615 104.1444 35.32615 104.1435 14.44075"></polygon>
                <polygon id="Path" points="85.545 35.32615 94.0329 35.32615 94.0329 0.8989 85.545 0.8989"></polygon>
                <polygon id="Path" points="64.70685 0.89845 64.70685 35.32615 84.4047 35.32615 84.4047 27.56995 73.19475 27.56995 73.19475 0.89845"></polygon>
            </g>
        </g>
    </g>
</svg>