<?xml version="1.0" encoding="UTF-8"?>
<svg width="160px" height="130px" viewBox="0 0 160 130" version="1.1" xmlns="http://www.w3.org/2000/svg" xmlns:xlink="http://www.w3.org/1999/xlink">
    <!-- Generator: Sketch 49.2 (51160) - http://www.bohemiancoding.com/sketch -->
    <title>Group 5</title>
    <desc>Created with Sketch.</desc>
    <defs>
        <rect id="path-1" x="30.7469601" y="6.51723083" width="71.4" height="88.659375" rx="5.6"></rect>
    </defs>
    <g id="Page-1" stroke="none" stroke-width="1" fill="none" fill-rule="evenodd">
        <g id="Open-Data" transform="translate(-821.000000, -3365.000000)">
            <g id="Group-5" transform="translate(823.000000, 3366.000000)">
                <g id="Rectangle-12-Copy-6">
                    <use fill="#FFFFFF" fill-rule="evenodd" xlink:href="#path-1"></use>
                    <rect stroke="#213A8F" stroke-width="2.8" x="32.1469601" y="7.91723083" width="68.6" height="85.859375" rx="5.6"></rect>
                </g>
                <path d="M40.9464296,106.772344 C40.9464296,95.5304404 31.8330658,86.4170765 20.5911617,86.4170765 C9.34925768,86.4170765 0.235893822,95.5304404 0.235893822,106.772344 C0.235893822,118.014248 9.34925768,127.127612 20.5911617,127.127612" id="Oval-3-Copy-4" stroke="#213A8F" stroke-width="2.8" stroke-linecap="round" transform="translate(20.591162, 106.772344) rotate(-450.000000) translate(-20.591162, -106.772344) "></path>
                <path d="M40.6564891,103.552027 L35.0462895,110.226845" id="Line-Copy" stroke="#213A8F" stroke-width="2.8" stroke-linecap="round" transform="translate(37.715411, 107.005198) rotate(-540.000000) translate(-37.715411, -107.005198) "></path>
                <path d="M46.6728416,103.552027 L41.062642,110.226845" id="Line-Copy-2" stroke="#213A8F" stroke-width="2.8" stroke-linecap="round" transform="translate(43.731763, 107.005198) scale(-1, 1) rotate(-540.000000) translate(-43.731763, -107.005198) "></path>
                <path d="M155.980631,21.1359696 C155.980631,9.89406554 146.867268,0.780701676 135.625364,0.780701676 C124.38346,0.780701676 115.270096,9.89406554 115.270096,21.1359696 C115.270096,32.3778736 124.38346,41.4912375 135.625364,41.4912375" id="Oval-3-Copy-4" stroke="#213A8F" stroke-width="2.8" stroke-linecap="round" transform="translate(135.625364, 21.135970) rotate(-270.000000) translate(-135.625364, -21.135970) "></path>
                <path d="M121.442193,17.4499453 L115.831993,24.124763" id="Line-Copy" stroke="#213A8F" stroke-width="2.8" stroke-linecap="round" transform="translate(118.501114, 20.903116) rotate(-360.000000) translate(-118.501114, -20.903116) "></path>
                <path d="M115.42584,17.4499453 L109.81564,24.124763" id="Line-Copy-2" stroke="#213A8F" stroke-width="2.8" stroke-linecap="round" transform="translate(112.484762, 20.903116) scale(-1, 1) rotate(-360.000000) translate(-112.484762, -20.903116) "></path>
                <rect id="Rectangle-12-Copy-5" fill="#122BE1" x="54.3132462" y="33.1861303" width="71.4" height="88.659375" rx="5.6"></rect>
                <rect id="Rectangle-12-Copy-5" fill="#213A8F" x="54.3132462" y="33.1861303" width="71.4" height="88.659375" rx="5.6"></rect>
                <rect id="Rectangle-12-Copy-7" fill-opacity="0.2" fill="#213A8F" x="61.5599976" y="37.4523058" width="69.6705697" height="88.659375" rx="5.6"></rect>
                <text id="1011-0111-1011-0111-copy-4" font-family="SpaceMono-Bold, Space Mono" font-size="8.4" font-weight="bold" line-spacing="16.8" letter-spacing="0.140000002" fill="#FFFFFF">
                    <tspan x="66.4469601" y="53.0339466">1011 0111 </tspan>
                    <tspan x="66.4469601" y="69.8339466">1011 0111 </tspan>
                    <tspan x="66.4469601" y="86.6339466">0010 1001</tspan>
                    <tspan x="66.4469601" y="103.433947">1011 0111 </tspan>
                </text>
            </g>
        </g>
    </g>
</svg>