<svg width="21" height="20" viewBox="0 0 21 20" fill="none"
  xmlns="http://www.w3.org/2000/svg">
  <g clip-path="url(#clip0_99_8967)">
    <path d="M16.1664 2.12646H2.61426V18.4812H16.1664V2.12646Z" fill="var(--bg-inv)" stroke="var(--text-inv)" stroke-linecap="round" stroke-linejoin="round"/>
    <path d="M10.453 1.18578C10.453 0.597832 9.97281 0.117676 9.38486 0.117676C8.79691 0.117676 8.31676 0.597832 8.31676 1.18578H6.35693V3.07701H12.4128V1.18578H10.453Z" fill="var(--bg-inv)"/>
    <path d="M10.453 1.18578C10.453 0.597832 9.97281 0.117676 9.38486 0.117676C8.79691 0.117676 8.31676 0.597832 8.31676 1.18578H6.35693V3.07701H12.4128V1.18578H10.453Z" stroke="var(--text-inv)" stroke-linecap="round" stroke-linejoin="round"/>
    <mask id="mask0_99_8967" style="mask-type:luminance" maskUnits="userSpaceOnUse" x="9" y="6" width="11" height="11">
      <path d="M17.0189 6.67338L10.1007 13.5916C9.96355 13.7288 9.85576 13.9149 9.81656 14.1011L9.19922 16.6097L11.7078 15.9923C11.9038 15.9434 12.0802 15.8454 12.2173 15.7082L19.1355 8.78999C19.5471 8.37843 19.5471 7.71209 19.1355 7.31033L18.5084 6.68318C18.0968 6.27162 17.4305 6.27162 17.0287 6.68318L17.0189 6.67338Z" fill="var(--bg-inv)"/>
    </mask>
    <g mask="url(#mask0_99_8967)">
      <path d="M14.1319 5.69622L8.31152 11.5166L14.6169 17.822L20.4373 12.0016L14.1319 5.69622Z" fill="var(--bg-inv)"/>
    </g>
    <path d="M17.0189 6.67338L10.1007 13.5916C9.96355 13.7288 9.85576 13.9149 9.81656 14.1011L9.19922 16.6097L11.7078 15.9923C11.9038 15.9434 12.0802 15.8454 12.2173 15.7082L19.1355 8.78999C19.5471 8.37843 19.5471 7.71209 19.1355 7.31033L18.5084 6.68318C18.0968 6.27162 17.4305 6.27162 17.0287 6.68318L17.0189 6.67338Z" fill="var(--bg-inv)"/>
    <mask id="mask1_99_8967" style="mask-type:luminance" maskUnits="userSpaceOnUse" x="9" y="6" width="11" height="11">
      <path d="M17.0189 6.67338L10.1007 13.5916C9.96355 13.7288 9.85576 13.9149 9.81656 14.1011L9.19922 16.6097L11.7078 15.9923C11.9038 15.9434 12.0802 15.8454 12.2173 15.7082L19.1355 8.78999C19.5471 8.37843 19.5471 7.71209 19.1355 7.31033L18.5084 6.68318C18.0968 6.27162 17.4305 6.27162 17.0287 6.68318L17.0189 6.67338Z" fill="var(--bg-inv)"/>
    </mask>
    <g mask="url(#mask1_99_8967)">
      <path d="M14.1319 5.69622L8.31152 11.5166L14.6169 17.822L20.4373 12.0016L14.1319 5.69622Z" fill="var(--bg-inv)"/>
    </g>
    <path d="M17.0189 6.67338L10.1007 13.5916C9.96355 13.7288 9.85576 13.9149 9.81656 14.1011L9.19922 16.6097L11.7078 15.9923C11.9038 15.9434 12.0802 15.8454 12.2173 15.7082L19.1355 8.78999C19.5471 8.37843 19.5471 7.71209 19.1355 7.31033L18.5084 6.68318C18.0968 6.27162 17.4305 6.27162 17.0287 6.68318L17.0189 6.67338Z" stroke="var(--text-inv)" stroke-linecap="round" stroke-linejoin="round"/>
    <mask id="mask2_99_8967" style="mask-type:luminance" maskUnits="userSpaceOnUse" x="9" y="6" width="11" height="11">
      <path d="M17.0189 6.67338L10.1007 13.5916C9.96355 13.7288 9.85576 13.9149 9.81656 14.1011L9.19922 16.6097L11.7078 15.9923C11.9038 15.9434 12.0802 15.8454 12.2173 15.7082L19.1355 8.78999C19.5471 8.37843 19.5471 7.71209 19.1355 7.31033L18.5084 6.68318C18.0968 6.27162 17.4305 6.27162 17.0287 6.68318L17.0189 6.67338Z" fill="var(--bg-inv)"/>
    </mask>
    <g mask="url(#mask2_99_8967)">
      <path d="M14.1319 5.69622L8.31152 11.5166L14.6169 17.822L20.4373 12.0016L14.1319 5.69622Z" stroke="var(--text-inv)" stroke-linecap="round" stroke-linejoin="round"/>
    </g>
    <path d="M6.30834 9.06394C7.45025 9.06394 8.37595 8.13824 8.37595 6.99633C8.37595 5.85441 7.45025 4.92871 6.30834 4.92871C5.16642 4.92871 4.24072 5.85441 4.24072 6.99633C4.24072 8.13824 5.16642 9.06394 6.30834 9.06394Z" fill="var(--bg-inv)" stroke="var(--text-inv)" stroke-linecap="round" stroke-linejoin="round"/>
    <path d="M4.5249 10.4653H10.179" stroke="var(--text-inv)" stroke-linecap="round" stroke-linejoin="round"/>
    <path d="M4.5249 12.0923H7.78801" stroke="var(--text-inv)" stroke-linecap="round" stroke-linejoin="round"/>
  </g>
  <defs>
    <clipPath id="clip0_99_8967">
      <rect width="20" height="20" fill="var(--bg-inv)" transform="translate(0.223145)"/>
    </clipPath>
  </defs>
</svg>
