<svg width="21" height="20" viewBox="0 0 21 20" fill="none"
  xmlns="http://www.w3.org/2000/svg">
  <g clip-path="url(#clip0_99_8967)">
    <path d="M10.453 1.18578C10.453 0.597832 9.97281 0.117676 9.38486 0.117676C8.79691 0.117676 8.31676 0.597832 8.31676 1.18578H6.35693V3.07701H12.4128V1.18578H10.453Z" stroke="currentColor" stroke-linecap="round" stroke-linejoin="round"/>
    <path d="M6.35693 2.12646H6.85693C6.85693 1.85032 6.63308 1.62646 6.35693 1.62646V2.12646ZM6.35693 3.07701H5.85693C5.85693 3.35315 6.08079 3.57701 6.35693 3.57701V3.07701ZM2.61426 2.12646V1.62646C2.33812 1.62646 2.11426 1.85032 2.11426 2.12646H2.61426ZM2.61426 18.4812H2.11426C2.11426 18.7573 2.33812 18.9812 2.61426 18.9812V18.4812ZM16.1664 18.4812V18.9812C16.4426 18.9812 16.6664 18.7573 16.6664 18.4812H16.1664ZM16.1664 11.7591H16.6664C16.6664 11.5568 16.5446 11.3745 16.3578 11.2971C16.1709 11.2198 15.9559 11.2625 15.8129 11.4055L16.1664 11.7591ZM11.7078 15.9923L11.8273 16.4779L11.8291 16.4774L11.7078 15.9923ZM9.19922 16.6097L8.7137 16.4902C8.67189 16.6601 8.72194 16.8395 8.84567 16.9632C8.96939 17.087 9.14879 17.137 9.3187 17.0952L9.19922 16.6097ZM9.81656 14.1011L10.3021 14.2206C10.3034 14.2151 10.3047 14.2096 10.3058 14.2041L9.81656 14.1011ZM10.1007 13.5916L9.74718 13.238L9.74718 13.238L10.1007 13.5916ZM16.1664 7.52586L16.52 7.87941C16.6138 7.78565 16.6664 7.65847 16.6664 7.52586H16.1664ZM16.1664 2.12646H16.6664C16.6664 1.85032 16.4426 1.62646 16.1664 1.62646V2.12646ZM12.4128 2.12646V1.62646C12.1366 1.62646 11.9128 1.85032 11.9128 2.12646H12.4128ZM12.4128 3.07701V3.57701C12.6889 3.57701 12.9128 3.35315 12.9128 3.07701H12.4128ZM5.85693 2.12646V3.07701H6.85693V2.12646H5.85693ZM2.61426 2.62646H6.35693V1.62646H2.61426V2.62646ZM3.11426 18.4812V2.12646H2.11426V18.4812H3.11426ZM16.1664 17.9812H2.61426V18.9812H16.1664V17.9812ZM15.6664 11.7591V18.4812H16.6664V11.7591H15.6664ZM12.5709 16.0617L16.52 12.1126L15.8129 11.4055L11.8638 15.3546L12.5709 16.0617ZM11.8291 16.4774C12.1083 16.4076 12.3663 16.2663 12.5709 16.0617L11.8638 15.3546C11.794 15.4244 11.6993 15.4791 11.5865 15.5073L11.8291 16.4774ZM9.3187 17.0952L11.8273 16.4779L11.5883 15.5068L9.07974 16.1242L9.3187 17.0952ZM9.33105 13.9816L8.7137 16.4902L9.68473 16.7292L10.3021 14.2206L9.33105 13.9816ZM9.74718 13.238C9.54981 13.4354 9.38878 13.706 9.32729 13.9981L10.3058 14.2041C10.3227 14.1238 10.3773 14.0221 10.4543 13.9451L9.74718 13.238ZM15.8129 7.17231L9.74718 13.238L10.4543 13.9451L16.52 7.87941L15.8129 7.17231ZM15.6664 2.12646V7.52586H16.6664V2.12646H15.6664ZM12.4128 2.62646H16.1664V1.62646H12.4128V2.62646ZM12.9128 3.07701V2.12646H11.9128V3.07701H12.9128ZM6.35693 3.57701H12.4128V2.57701H6.35693V3.57701Z" fill="currentColor"/>
    <path d="M17.0189 6.67338L10.1007 13.5916C9.96355 13.7288 9.85576 13.9149 9.81656 14.1011L9.19922 16.6097L11.7078 15.9923C11.9038 15.9434 12.0802 15.8454 12.2173 15.7082L19.1355 8.78999C19.5471 8.37843 19.5471 7.71209 19.1355 7.31033L18.5084 6.68318C18.0968 6.27162 17.4305 6.27162 17.0287 6.68318L17.0189 6.67338Z" stroke="currentColor" stroke-linecap="round" stroke-linejoin="round"/>
    <path d="M6.30834 9.06394C7.45025 9.06394 8.37595 8.13824 8.37595 6.99633C8.37595 5.85441 7.45025 4.92871 6.30834 4.92871C5.16642 4.92871 4.24072 5.85441 4.24072 6.99633C4.24072 8.13824 5.16642 9.06394 6.30834 9.06394Z" stroke="currentColor" stroke-linecap="round" stroke-linejoin="round"/>
    <path d="M4.5249 10.4653H10.179" stroke="currentColor" stroke-linecap="round" stroke-linejoin="round"/>
    <path d="M4.5249 12.0923H7.78801" stroke="currentColor" stroke-linecap="round" stroke-linejoin="round"/>
  </g>
  <defs>
    <clipPath id="clip0_99_8967">
      <rect width="20" height="20" fill="white" transform="translate(0.223145)"/>
    </clipPath>
  </defs>
</svg>
