<svg width="48" height="49" viewBox="0 0 48 49" fill="none" xmlns="http://www.w3.org/2000/svg">
<path d="M42.9007 3.6543H5.09929C4.0251 3.6543 3.1543 4.5251 3.1543 5.59929V43.4007C3.1543 44.4749 4.0251 45.3457 5.09929 45.3457H42.9007C43.9749 45.3457 44.8457 44.4749 44.8457 43.4007V5.59929C44.8457 4.5251 43.9749 3.6543 42.9007 3.6543Z" fill="white" stroke="#20378B" stroke-width="0.57" stroke-linecap="round" stroke-linejoin="round"/>
<path d="M33.1455 3.6543H42.9007C43.979 3.6543 44.8457 4.53106 44.8457 5.59929V43.3906C44.8457 44.4689 43.9689 45.3356 42.9007 45.3356H33.1455V3.6543Z" fill="#20378B" stroke="#20378B" stroke-width="0.57" stroke-linecap="round" stroke-linejoin="round"/>
<path d="M10.8638 14.81V9.20679" stroke="#20378B" stroke-width="0.57" stroke-linecap="round" stroke-linejoin="round"/>
<path d="M26.1616 24.9782V18.8611H21.3042" stroke="#20378B" stroke-width="0.57" stroke-linecap="round" stroke-linejoin="round"/>
<path d="M10.8638 10.6378C12.0883 10.6378 13.0809 9.64517 13.0809 8.4207C13.0809 7.19624 12.0883 6.20361 10.8638 6.20361C9.63935 6.20361 8.64673 7.19624 8.64673 8.4207C8.64673 9.64517 9.63935 10.6378 10.8638 10.6378Z" fill="white" stroke="#20378B" stroke-width="0.57" stroke-linecap="round"/>
<path d="M20.8003 21.0782C22.0248 21.0782 23.0174 20.0856 23.0174 18.8611C23.0174 17.6367 22.0248 16.644 20.8003 16.644C19.5759 16.644 18.5833 17.6367 18.5833 18.8611C18.5833 20.0856 19.5759 21.0782 20.8003 21.0782Z" fill="white" stroke="#20378B" stroke-width="0.57" stroke-linecap="round"/>
<path d="M10.8638 28.6265V34.1591" stroke="#20378B" stroke-width="0.57" stroke-linecap="round" stroke-linejoin="round"/>
<path d="M10.8638 30.8436C12.0883 30.8436 13.0809 29.851 13.0809 28.6265C13.0809 27.402 12.0883 26.4094 10.8638 26.4094C9.63935 26.4094 8.64673 27.402 8.64673 28.6265C8.64673 29.851 9.63935 30.8436 10.8638 30.8436Z" fill="white" stroke="#20378B" stroke-width="0.57" stroke-linecap="round"/>
<path d="M17.0615 18.8611H10.8638V25.2302" stroke="#20378B" stroke-width="0.57" stroke-linecap="round" stroke-linejoin="round"/>
<path d="M8.27801 18.8681L10.8647 21.4548L13.4515 18.8681L10.8647 16.2814L8.27801 18.8681Z" fill="#D1DBE0" stroke="#20378B" stroke-width="0.57" stroke-linecap="round" stroke-linejoin="round"/>
<path d="M14.9251 35.4792H6.98392C6.46074 35.4792 6.03662 35.9034 6.03662 36.4266V42.322C6.03662 42.8452 6.46074 43.2693 6.98392 43.2693H14.9251C15.4483 43.2693 15.8724 42.8452 15.8724 42.322V36.4266C15.8724 35.9034 15.4483 35.4792 14.9251 35.4792Z" fill="#BEE4F8" stroke="#20378B" stroke-width="0.57" stroke-linecap="round" stroke-linejoin="round"/>
<path d="M30.0719 26.3992H22.1307C21.6075 26.3992 21.1833 26.8233 21.1833 27.3465V33.2419C21.1833 33.7651 21.6075 34.1892 22.1307 34.1892H30.0719C30.595 34.1892 31.0192 33.7651 31.0192 33.2419V27.3465C31.0192 26.8233 30.595 26.3992 30.0719 26.3992Z" fill="#BEE4F8" stroke="#20378B" stroke-width="0.57" stroke-linecap="round" stroke-linejoin="round"/>
<path d="M35.4231 8.59236C35.9463 8.59236 36.3704 8.16824 36.3704 7.64506C36.3704 7.12188 35.9463 6.69775 35.4231 6.69775C34.9 6.69775 34.4758 7.12188 34.4758 7.64506C34.4758 8.16824 34.9 8.59236 35.4231 8.59236Z" fill="#20378B" stroke="white" stroke-width="0.57" stroke-linecap="round" stroke-linejoin="round"/>
<path d="M35.4231 12.9156C35.9463 12.9156 36.3704 12.4915 36.3704 11.9683C36.3704 11.4451 35.9463 11.021 35.4231 11.021C34.9 11.021 34.4758 11.4451 34.4758 11.9683C34.4758 12.4915 34.9 12.9156 35.4231 12.9156Z" fill="#20378B" stroke="white" stroke-width="0.57" stroke-linecap="round" stroke-linejoin="round"/>
<path d="M35.4231 17.2288C35.9463 17.2288 36.3704 16.8047 36.3704 16.2815C36.3704 15.7583 35.9463 15.3342 35.4231 15.3342C34.9 15.3342 34.4758 15.7583 34.4758 16.2815C34.4758 16.8047 34.9 17.2288 35.4231 17.2288Z" fill="white" stroke="white" stroke-width="0.57" stroke-linecap="round" stroke-linejoin="round"/>
<path d="M35.4231 21.5421C35.9463 21.5421 36.3704 21.1179 36.3704 20.5948C36.3704 20.0716 35.9463 19.6475 35.4231 19.6475C34.9 19.6475 34.4758 20.0716 34.4758 20.5948C34.4758 21.1179 34.9 21.5421 35.4231 21.5421Z" fill="#20378B" stroke="white" stroke-width="0.57" stroke-linecap="round" stroke-linejoin="round"/>
<path d="M35.4231 25.8656C35.9463 25.8656 36.3704 25.4414 36.3704 24.9182C36.3704 24.3951 35.9463 23.9709 35.4231 23.9709C34.9 23.9709 34.4758 24.3951 34.4758 24.9182C34.4758 25.4414 34.9 25.8656 35.4231 25.8656Z" fill="white" stroke="white" stroke-width="0.57" stroke-linecap="round" stroke-linejoin="round"/>
<path d="M37.7612 7.64502H42.2559" stroke="white" stroke-width="0.57" stroke-linecap="round" stroke-linejoin="round"/>
<path d="M37.7612 11.9683H41.107" stroke="white" stroke-width="0.57" stroke-linecap="round" stroke-linejoin="round"/>
<path d="M37.7612 16.2817H41.9636" stroke="white" stroke-width="0.57" stroke-linecap="round" stroke-linejoin="round"/>
<path d="M37.7612 20.595H42.2559" stroke="white" stroke-width="0.57" stroke-linecap="round" stroke-linejoin="round"/>
<path d="M37.7612 24.9182H40.5427" stroke="white" stroke-width="0.57" stroke-linecap="round" stroke-linejoin="round"/>
<path d="M10.8637 15.6164L12.4459 13.0566H9.28149L10.8637 15.6164Z" fill="#20378B"/>
<path d="M10.8637 25.7345L12.4459 23.1748H9.28149L10.8637 25.7345Z" fill="#20378B"/>
<path d="M17.9081 18.8612L15.3484 17.2891V20.4434L17.9081 18.8612Z" fill="#20378B"/>
<path d="M10.8637 34.8045L12.4459 32.2549H9.28149L10.8637 34.8045Z" fill="#20378B"/>
<path d="M26.1818 25.7345L27.764 23.1748H24.5996L26.1818 25.7345Z" fill="#20378B"/>
</svg>
