<svg width="48" height="49" viewBox="0 0 48 49" fill="none" xmlns="http://www.w3.org/2000/svg">
<path d="M23.4205 45.5368C32.7932 45.5368 40.3913 37.9388 40.3913 28.566C40.3913 19.1933 32.7932 11.5952 23.4205 11.5952C14.0478 11.5952 6.44971 19.1933 6.44971 28.566C6.44971 37.9388 14.0478 45.5368 23.4205 45.5368Z" fill="#BEE4F8" stroke="#20378B" stroke-width="0.57" stroke-miterlimit="10" stroke-linecap="round"/>
<path d="M28.0261 30.6323C28.4658 30.6323 28.8223 30.2759 28.8223 29.8362C28.8223 29.3965 28.4658 29.04 28.0261 29.04C27.5864 29.04 27.23 29.3965 27.23 29.8362C27.23 30.2759 27.5864 30.6323 28.0261 30.6323Z" fill="#20378B" stroke="#20378B" stroke-width="0.57" stroke-miterlimit="10" stroke-linecap="round"/>
<path d="M18.4521 33.2422C18.8918 33.2422 19.2483 32.8857 19.2483 32.446C19.2483 32.0063 18.8918 31.6499 18.4521 31.6499C18.0124 31.6499 17.656 32.0063 17.656 32.446C17.656 32.8857 18.0124 33.2422 18.4521 33.2422Z" fill="#20378B" stroke="#20378B" stroke-width="0.57" stroke-miterlimit="10" stroke-linecap="round"/>
<path d="M34.7278 22.6504C35.1675 22.6504 35.5239 22.2939 35.5239 21.8542C35.5239 21.4145 35.1675 21.0581 34.7278 21.0581C34.2881 21.0581 33.9316 21.4145 33.9316 21.8542C33.9316 22.2939 34.2881 22.6504 34.7278 22.6504Z" fill="#20378B" stroke="#20378B" stroke-width="0.57" stroke-miterlimit="10" stroke-linecap="round"/>
<path d="M26.5245 19.2243C27.1701 19.2243 27.6935 18.7009 27.6935 18.0552C27.6935 17.4096 27.1701 16.8862 26.5245 16.8862C25.8789 16.8862 25.3555 17.4096 25.3555 18.0552C25.3555 18.7009 25.8789 19.2243 26.5245 19.2243Z" fill="#20378B" stroke="#20378B" stroke-width="0.57" stroke-miterlimit="10" stroke-linecap="round"/>
<path d="M26.5244 18.0552L34.7276 21.8545L28.0259 29.836L21.9692 22.7917L26.5244 18.0552Z" stroke="#20378B" stroke-width="0.57" stroke-miterlimit="10" stroke-linecap="round"/>
<path d="M14.542 16.6948L21.9693 22.7918L11.9319 30.7935L18.4521 32.4462L34.7276 21.8546L21.9693 22.7918" stroke="#20378B" stroke-width="0.57" stroke-miterlimit="10" stroke-linecap="round"/>
<path d="M39.958 24.7266L34.778 21.6831L33.8408 34.4011L40.0789 31.8313" stroke="#20378B" stroke-width="0.57" stroke-miterlimit="10" stroke-linecap="round"/>
<path d="M12.6877 15.4351L14.542 16.6948L18.563 32.6074L33.8408 34.4013" stroke="#20378B" stroke-width="0.57" stroke-miterlimit="10" stroke-linecap="round"/>
<path d="M18.5631 32.6074L15.3281 42.0905" stroke="#20378B" stroke-width="0.57" stroke-miterlimit="10" stroke-linecap="round"/>
<path d="M28.026 29.8359L26.5244 40.1353" stroke="#20378B" stroke-width="0.57" stroke-miterlimit="10" stroke-linecap="round"/>
<path d="M14.542 16.6946L26.5244 18.0551L18.0389 12.5225" stroke="#20378B" stroke-width="0.57" stroke-miterlimit="10" stroke-linecap="round"/>
<path d="M34.7781 21.6831L36.2293 17.4404" stroke="#20378B" stroke-width="0.57" stroke-miterlimit="10" stroke-linecap="round"/>
<path d="M21.9693 23.9606C22.6149 23.9606 23.1383 23.4372 23.1383 22.7916C23.1383 22.1459 22.6149 21.6226 21.9693 21.6226C21.3237 21.6226 20.8003 22.1459 20.8003 22.7916C20.8003 23.4372 21.3237 23.9606 21.9693 23.9606Z" fill="#20378B" stroke="#20378B" stroke-width="0.57" stroke-miterlimit="10" stroke-linecap="round"/>
<path d="M14.5421 17.8639C15.1877 17.8639 15.7111 17.3405 15.7111 16.6949C15.7111 16.0493 15.1877 15.5259 14.5421 15.5259C13.8964 15.5259 13.373 16.0493 13.373 16.6949C13.373 17.3405 13.8964 17.8639 14.5421 17.8639Z" fill="#20378B" stroke="#20378B" stroke-width="0.57" stroke-miterlimit="10" stroke-linecap="round"/>
<path d="M18.4522 33.6154C19.0978 33.6154 19.6212 33.092 19.6212 32.4464C19.6212 31.8007 19.0978 31.2773 18.4522 31.2773C17.8066 31.2773 17.2832 31.8007 17.2832 32.4464C17.2832 33.092 17.8066 33.6154 18.4522 33.6154Z" fill="#20378B" stroke="#20378B" stroke-width="0.57" stroke-miterlimit="10" stroke-linecap="round"/>
<path d="M26.5245 41.3043C27.1701 41.3043 27.6935 40.781 27.6935 40.1353C27.6935 39.4897 27.1701 38.9663 26.5245 38.9663C25.8789 38.9663 25.3555 39.4897 25.3555 40.1353C25.3555 40.781 25.8789 41.3043 26.5245 41.3043Z" fill="#20378B" stroke="#20378B" stroke-width="0.57" stroke-miterlimit="10" stroke-linecap="round"/>
<path d="M15.3282 43.2594C15.9738 43.2594 16.4972 42.736 16.4972 42.0904C16.4972 41.4448 15.9738 40.9214 15.3282 40.9214C14.6826 40.9214 14.1592 41.4448 14.1592 42.0904C14.1592 42.736 14.6826 43.2594 15.3282 43.2594Z" fill="#20378B" stroke="#20378B" stroke-width="0.57" stroke-miterlimit="10" stroke-linecap="round"/>
<path d="M11.932 31.9625C12.5776 31.9625 13.101 31.4391 13.101 30.7935C13.101 30.1479 12.5776 29.6245 11.932 29.6245C11.2863 29.6245 10.7629 30.1479 10.7629 30.7935C10.7629 31.4391 11.2863 31.9625 11.932 31.9625Z" fill="#20378B" stroke="#20378B" stroke-width="0.57" stroke-miterlimit="10" stroke-linecap="round"/>
<path d="M28.0259 31.005C28.6716 31.005 29.195 30.4816 29.195 29.836C29.195 29.1904 28.6716 28.667 28.0259 28.667C27.3803 28.667 26.8569 29.1904 26.8569 29.836C26.8569 30.4816 27.3803 31.005 28.0259 31.005Z" fill="#20378B" stroke="#20378B" stroke-width="0.57" stroke-miterlimit="10" stroke-linecap="round"/>
<path d="M33.6495 35.5099C34.2951 35.5099 34.8185 34.9865 34.8185 34.3409C34.8185 33.6953 34.2951 33.1719 33.6495 33.1719C33.0039 33.1719 32.4805 33.6953 32.4805 34.3409C32.4805 34.9865 33.0039 35.5099 33.6495 35.5099Z" fill="#20378B" stroke="#20378B" stroke-width="0.57" stroke-miterlimit="10" stroke-linecap="round"/>
<path d="M34.7276 23.0236C35.3732 23.0236 35.8966 22.5002 35.8966 21.8546C35.8966 21.2089 35.3732 20.6855 34.7276 20.6855C34.082 20.6855 33.5586 21.2089 33.5586 21.8546C33.5586 22.5002 34.082 23.0236 34.7276 23.0236Z" fill="#20378B" stroke="#20378B" stroke-width="0.57" stroke-miterlimit="10" stroke-linecap="round"/>
<path d="M41.0767 3.78516H25.2144C22.6446 3.78516 20.5686 5.87124 20.5686 8.43097C20.5686 10.9907 22.6547 13.0768 25.2144 13.0768H25.295L26.5245 15.9892L27.754 13.0768H41.0666C43.6364 13.0768 45.7124 10.9907 45.7124 8.43097C45.7124 5.87124 43.6263 3.78516 41.0666 3.78516H41.0767Z" fill="white"/>
<path d="M41.0767 3.78516H25.2144C22.6446 3.78516 20.5686 5.87124 20.5686 8.43097C20.5686 10.9907 22.6547 13.0768 25.2144 13.0768H25.295L26.5245 15.9892L27.754 13.0768H41.0666C43.6364 13.0768 45.7124 10.9907 45.7124 8.43097C45.7124 5.87124 43.6263 3.78516 41.0666 3.78516H41.0767Z" stroke="#20378B" stroke-width="0.55" stroke-linejoin="round"/>
<path d="M26.2625 6.35498H40.3208" stroke="#20378B" stroke-width="0.57" stroke-miterlimit="10" stroke-linecap="round"/>
<path d="M26.2625 8.4209H35.3424" stroke="#20378B" stroke-width="0.57" stroke-miterlimit="10" stroke-linecap="round"/>
<path d="M26.2625 10.4868H37.3378" stroke="#20378B" stroke-width="0.57" stroke-miterlimit="10" stroke-linecap="round"/>
<path d="M26.5246 40.1355L15.3283 42.0905L11.9321 30.7935L6.90332 32.4462" stroke="#20378B" stroke-width="0.57" stroke-miterlimit="10" stroke-linecap="round"/>
<path d="M18.563 32.4463L23.1383 45.5372" stroke="#20378B" stroke-width="0.57" stroke-miterlimit="10" stroke-linecap="round"/>
<path d="M30.8276 43.8442L26.5244 40.1356L33.8408 34.4014L34.7276 41.2038" stroke="#20378B" stroke-width="0.57" stroke-miterlimit="10" stroke-linecap="round"/>
<path d="M13.4336 19.9095C12.4661 17.4001 9.64438 16.1606 7.13504 17.128C4.6257 18.0955 3.38614 20.9172 4.3536 23.4266C5.1195 25.4119 7.04434 26.5809 9.05988 26.5103L11.2669 28.7879L11.3576 25.8452C13.3731 24.656 14.3003 22.1669 13.4336 19.9095Z" fill="white"/>
<path d="M13.4336 19.9095C12.4661 17.4001 9.64438 16.1606 7.13504 17.128C4.6257 18.0955 3.38614 20.9172 4.3536 23.4266C5.1195 25.4119 7.04434 26.5809 9.05988 26.5103L11.2669 28.7879L11.3576 25.8452C13.3731 24.656 14.3003 22.1669 13.4336 19.9095Z" stroke="#20378B" stroke-width="0.55" stroke-linejoin="round"/>
</svg>
