<svg width="48" height="49" viewBox="0 0 48 49" fill="none" xmlns="http://www.w3.org/2000/svg">
<path d="M40.4217 41.4455C40.0085 42.5641 38.7186 43.4913 37.5697 43.4913H4.21259C3.06373 43.4913 2.45907 42.5742 2.87225 41.4455L8.96925 24.9886C9.38244 23.87 10.6724 22.9429 11.8212 22.9429H45.1784C46.3272 22.9429 46.9319 23.8599 46.5187 24.9886L40.4217 41.4455Z" fill="#20378B" stroke="#20378B" stroke-width="0.57" stroke-linejoin="round"/>
<path d="M39.0308 38.3918C38.6176 39.5104 37.3277 40.4376 36.1788 40.4376H2.82172C1.67286 40.4376 1.0682 39.5205 1.48139 38.3918L7.57838 21.9349C7.99157 20.8163 9.28151 19.8892 10.4304 19.8892H43.7875C44.9363 19.8892 45.541 20.8062 45.1278 21.9349L39.0308 38.3918Z" fill="white" stroke="#20378B" stroke-width="0.57"/>
<path d="M7.69938 33.7865C8.37284 33.7865 8.91878 33.2405 8.91878 32.5671C8.91878 31.8936 8.37284 31.3477 7.69938 31.3477C7.02592 31.3477 6.47998 31.8936 6.47998 32.5671C6.47998 33.2405 7.02592 33.7865 7.69938 33.7865Z" fill="#20378B" stroke="#20378B" stroke-width="0.57"/>
<path d="M19.0165 37.5452C19.69 37.5452 20.2359 36.9993 20.2359 36.3258C20.2359 35.6524 19.69 35.1064 19.0165 35.1064C18.3431 35.1064 17.7971 35.6524 17.7971 36.3258C17.7971 36.9993 18.3431 37.5452 19.0165 37.5452Z" fill="#20378B" stroke="#20378B" stroke-width="0.57"/>
<path d="M34.5866 24.0614C35.26 24.0614 35.806 23.5154 35.806 22.842C35.806 22.1685 35.26 21.6226 34.5866 21.6226C33.9131 21.6226 33.3672 22.1685 33.3672 22.842C33.3672 23.5154 33.9131 24.0614 34.5866 24.0614Z" fill="#20378B" stroke="#20378B" stroke-width="0.57"/>
<path d="M35.433 33.9476C36.1065 33.9476 36.6524 33.4016 36.6524 32.7282C36.6524 32.0547 36.1065 31.5088 35.433 31.5088C34.7596 31.5088 34.2136 32.0547 34.2136 32.7282C34.2136 33.4016 34.7596 33.9476 35.433 33.9476Z" fill="#20378B" stroke="#20378B" stroke-width="0.57"/>
<path d="M22.3825 30.3099C23.0559 30.3099 23.6019 29.7639 23.6019 29.0905C23.6019 28.417 23.0559 27.8711 22.3825 27.8711C21.709 27.8711 21.1631 28.417 21.1631 29.0905C21.1631 29.7639 21.709 30.3099 22.3825 30.3099Z" fill="#20378B" stroke="#20378B" stroke-width="0.57"/>
<path d="M15.0358 27.5784C15.7093 27.5784 16.2552 27.0325 16.2552 26.359C16.2552 25.6856 15.7093 25.1396 15.0358 25.1396C14.3623 25.1396 13.8164 25.6856 13.8164 26.359C13.8164 27.0325 14.3623 27.5784 15.0358 27.5784Z" fill="#20378B" stroke="#20378B" stroke-width="0.57"/>
<path d="M7.69946 32.799L15.036 26.3594L19.0167 36.3262L7.69946 32.799Z" stroke="#20378B" stroke-width="0.57"/>
<path d="M34.5866 22.8423L15.0359 26.3594L19.0166 36.3262L34.5866 22.8423Z" stroke="#20378B" stroke-width="0.57"/>
<path d="M31.5531 12.5932C31.5531 7.33269 27.129 3.11014 21.7979 3.4427C17.2327 3.72488 13.5141 7.44354 13.2319 12.0087C13.0706 14.5987 13.9877 16.9669 15.5699 18.7205C18.2606 21.7135 20.508 25.0795 21.9491 28.8385L21.9793 28.9292C22.1204 29.302 22.6444 29.3121 22.7956 28.9493C24.3778 25.1803 26.5848 21.7135 29.2756 18.6398C30.6864 17.0274 31.543 14.9111 31.543 12.6033L31.5531 12.5932Z" fill="#BEE4F8" stroke="#20378B" stroke-width="0.57" stroke-linejoin="round"/>
<path d="M22.3824 15.9391C24.2302 15.9391 25.7282 14.4412 25.7282 12.5933C25.7282 10.7455 24.2302 9.24756 22.3824 9.24756C20.5346 9.24756 19.0366 10.7455 19.0366 12.5933C19.0366 14.4412 20.5346 15.9391 22.3824 15.9391Z" fill="white" stroke="#20378B" stroke-width="0.57" stroke-linejoin="round"/>
<path d="M22.3826 29.2114L35.4332 32.7285L31.5533 40.438" stroke="#20378B" stroke-width="0.57"/>
<path d="M44.4225 23.8501L34.5867 22.8423L35.4332 32.7285L42.8201 28.1835" stroke="#20378B" stroke-width="0.57"/>
<path d="M7.25586 22.842L15.0358 26.3591L17.7971 21.4312" stroke="#20378B" stroke-width="0.57"/>
<path d="M7.69946 32.7988V40.4377" stroke="#20378B" stroke-width="0.57"/>
<path d="M19.0166 36.3262L25.1035 40.4379" stroke="#20378B" stroke-width="0.57"/>
</svg>
