<svg width="48" height="49" viewBox="0 0 48 49" fill="none" xmlns="http://www.w3.org/2000/svg">
<path d="M34.4858 13.6411H6.67136C5.75301 13.6411 5.00854 14.3856 5.00854 15.3039V33.2724C5.00854 34.1908 5.75301 34.9353 6.67136 34.9353H34.4858C35.4041 34.9353 36.1486 34.1908 36.1486 33.2724V15.3039C36.1486 14.3856 35.4041 13.6411 34.4858 13.6411Z" fill="#D1DBE0" stroke="#20378B" stroke-width="0.57" stroke-linecap="round" stroke-linejoin="round"/>
<path d="M31.7244 17.1985H9.43254C8.45853 17.1985 7.66895 17.9881 7.66895 18.9621V18.9722C7.66895 19.9462 8.45853 20.7358 9.43254 20.7358H31.7244C32.6984 20.7358 33.488 19.9462 33.488 18.9722V18.9621C33.488 17.9881 32.6984 17.1985 31.7244 17.1985Z" fill="#20378B" stroke="#20378B" stroke-width="0.57" stroke-linecap="round" stroke-linejoin="round"/>
<path d="M31.3719 4.73242H9.77539V20.7358H31.3719V4.73242Z" fill="white" stroke="#20378B" stroke-width="0.57" stroke-linecap="round" stroke-linejoin="round"/>
<path d="M12.8994 18.156H26.7965" stroke="#20378B" stroke-width="0.57" stroke-linecap="round"/>
<path d="M12.8994 13.9434H26.9578" stroke="#20378B" stroke-width="0.57" stroke-linecap="round"/>
<path d="M12.8994 16.0498H25.2748" stroke="#20378B" stroke-width="0.57" stroke-linecap="round"/>
<path d="M12.8994 7.62476H28.5702" stroke="#20378B" stroke-width="0.57" stroke-linecap="round"/>
<path d="M12.8994 9.73096H24.8415" stroke="#20378B" stroke-width="0.57" stroke-linecap="round"/>
<path d="M12.8994 11.8372H28.5702" stroke="#20378B" stroke-width="0.57" stroke-linecap="round"/>
<path d="M42.7192 23.6987H15.58C14.8231 23.6987 14.2095 24.3124 14.2095 25.0693V42.8262C14.2095 43.5831 14.8231 44.1967 15.58 44.1967H42.7192C43.4762 44.1967 44.0898 43.5831 44.0898 42.8262V25.0693C44.0898 24.3124 43.4762 23.6987 42.7192 23.6987Z" fill="white" stroke="#20378B" stroke-width="0.57" stroke-linecap="round" stroke-linejoin="round"/>
<path d="M44.0898 26.0972H14.2095V41.7881H44.0898V26.0972Z" fill="#20378B" stroke="#20378B" stroke-width="0.57" stroke-linecap="round" stroke-linejoin="round"/>
<path d="M29.1548 38.8755C32.1547 38.8755 34.5866 36.4435 34.5866 33.4436C34.5866 30.4436 32.1547 28.0117 29.1548 28.0117C26.1548 28.0117 23.7229 30.4436 23.7229 33.4436C23.7229 36.4435 26.1548 38.8755 29.1548 38.8755Z" fill="#BEE4F8" stroke="#20378B" stroke-width="0.57" stroke-linecap="round" stroke-linejoin="round"/>
<path d="M26.6252 33.7661L28.7919 36.2754L31.6742 31.0552" stroke="#20378B" stroke-width="0.57" stroke-linecap="round" stroke-linejoin="round"/>
</svg>
