<svg width="48" height="49" viewBox="0 0 48 49" fill="none" xmlns="http://www.w3.org/2000/svg">
<path d="M6.61101 12.7241H41.6612C43.5759 12.7241 45.1178 14.2761 45.1178 16.1808V30.7833H3.14429V16.1808C3.14429 14.266 4.69625 12.7241 6.60093 12.7241H6.61101Z" fill="#20378B" stroke="#20378B" stroke-width="0.57"/>
<path d="M45.1177 23.7187C43.6967 22.3986 43.0719 19.8993 40.5122 19.8993C38.7688 19.8993 37.892 20.6652 36.5416 19.8993C35.0199 19.0427 33.347 10.4867 29.9206 10.4867C27.4515 10.4867 26.6755 14.5279 24.8414 14.5279C22.7856 14.5279 22.4026 7.02002 19.5607 7.02002C16.4668 7.02002 14.6428 19.8993 12.849 19.8993C11.7606 19.8993 11.0249 18.9016 9.61402 18.9016C6.52017 18.9016 6.21784 24.3637 3.16431 26.0568V33.1716H45.1177V23.7288V23.7187Z" fill="#BEE4F8"/>
<path d="M45.1177 23.7187C43.6967 22.3986 43.0719 19.8993 40.5122 19.8993C38.7688 19.8993 37.892 20.6652 36.5416 19.8993C35.0199 19.0427 33.347 10.4867 29.9206 10.4867C27.4515 10.4867 26.6755 14.5279 24.8414 14.5279C22.7856 14.5279 22.4026 7.02002 19.5607 7.02002C16.4668 7.02002 14.6428 19.8993 12.849 19.8993C11.7606 19.8993 11.0249 18.9016 9.61402 18.9016C6.52017 18.9016 6.21784 24.3637 3.16431 26.0568V33.1716H45.1177V23.7288V23.7187Z" stroke="#20378B" stroke-width="0.57"/>
<path d="M39.0308 24.6257C37.2673 24.6257 37.2068 25.7544 35.554 25.4521C33.9114 25.1498 32.1881 18.3977 29.3059 18.3977C26.6655 18.3977 25.7283 21.3706 23.8337 21.6125C21.8686 21.8644 20.7902 20.9373 19.067 21.2195C15.9227 21.7334 15.5297 26.1978 13.494 26.1978C11.8614 26.1978 11.4281 24.2428 9.79549 24.2428C6.86288 24.2428 5.80473 32.2646 3.1543 33.6855V38.3817H45.1077V32.8592C42.8805 31.025 41.9635 24.6156 39.0208 24.6156L39.0308 24.6257Z" fill="#D1DBE0"/>
<path d="M39.0308 24.6257C37.2673 24.6257 37.2068 25.7544 35.554 25.4521C33.9114 25.1498 32.1881 18.3977 29.3059 18.3977C26.6655 18.3977 25.7283 21.3706 23.8337 21.6125C21.8686 21.8644 20.7902 20.9373 19.067 21.2195C15.9227 21.7334 15.5297 26.1978 13.494 26.1978C11.8614 26.1978 11.4281 24.2428 9.79549 24.2428C6.86288 24.2428 5.80473 32.2646 3.1543 33.6855V38.3817H45.1077V32.8592C42.8805 31.025 41.9635 24.6156 39.0208 24.6156L39.0308 24.6257Z" stroke="#20378B" stroke-width="0.57"/>
<path d="M39.4239 32.8188C37.8618 32.8188 37.751 34.9452 36.1789 34.9452C33.861 34.9452 33.085 27.9513 30.0214 27.9513C28.0059 27.9513 26.4337 32.3855 24.8012 32.3855C22.967 32.3855 22.0903 25.4319 19.5406 25.4319C16.7692 25.4319 16.4266 33.9274 13.5343 33.9274C11.932 33.9274 11.3172 31.7707 9.62417 31.7707C7.34661 31.7707 6.05667 36.9003 3.1543 36.9003V39.2282C3.1543 41.143 4.70626 42.695 6.62102 42.695H41.641C43.5557 42.695 45.1077 41.143 45.1077 39.2282V37.2832C42.2053 37.2832 41.4495 32.8289 39.4037 32.8289L39.4239 32.8188Z" fill="white" stroke="#20378B" stroke-width="0.57"/>
</svg>
