<svg width="260px" height="258px" viewBox="0 0 260 258" version="1.1" xmlns="http://www.w3.org/2000/svg">
    <style>
        @media (prefers-color-scheme: dark) { path { fill: #FFF } }
        @media (prefers-color-scheme: light) { path { fill: ##172763 } }
    </style>
    <path fill-rule="evenodd" d="M229.193775,53.2418167 C216.667207,53.2418167 206.540047,43.1324326 206.540047,30.6968641 C206.540047,18.2612956 216.667207,8.1518491 229.193775,8.1518491 C241.720966,8.1518491 251.848126,18.2612956 251.848126,30.6968641 C251.848126,43.1324326 241.720966,53.2418167 229.193775,53.2418167 Z M198.388173,30.6968641 C198.388173,47.6659224 212.196463,61.3935036 229.193775,61.3935036 C246.191711,61.3935036 260,47.6659224 260,30.6968641 C260,13.7278058 246.191711,0 229.193775,0 C212.196463,0 198.388173,13.7278058 198.388173,30.6968641 Z M110.483902,249.483496 C53.9516846,249.483496 8.15187405,203.846723 8.15187405,147.586318 C8.15187405,91.3259128 53.9516846,45.6895139 110.483902,45.6895139 C167.016244,45.6895139 212.815805,91.3259128 212.815805,147.586318 C212.815805,203.846723 167.016244,249.483496 110.483902,249.483496 Z M0,147.586318 C0,208.380462 49.4810647,257.63537 110.483902,257.63537 C171.486989,257.63537 220.967679,208.380462 220.967679,147.586318 C220.967679,86.7921735 171.486989,37.5376399 110.483902,37.5376399 C49.4810647,37.5376399 0,86.7921735 0,147.586318 Z" id="Shape" />
</svg>