<svg width="100" height="100" viewBox="0 0 100 100" fill="none" xmlns="http://www.w3.org/2000/svg">
<path d="M70.2812 50.3401V27.1368L78.3147 24.0625L88.8278 29.3341L87.6081 37.3575C87.4469 38.4361 87.1041 39.575 86.6405 40.5629L84.6447 43.9294C84.2315 44.6249 84.0198 45.4112 84.0198 46.2175V51.1061" fill="white"/>
<path d="M70.2812 50.3401V27.1368L78.3147 24.0625L88.8278 29.3341L87.6081 37.3575C87.4469 38.4361 87.1041 39.575 86.6405 40.5629L84.6447 43.9294C84.2315 44.6249 84.0198 45.4112 84.0198 46.2175V51.1061" stroke="#1E3791" stroke-width="0.57" stroke-linecap="round" stroke-linejoin="round"/>
<path d="M78.9392 26.65L81.7414 8.97035C81.9631 7.58944 81.0156 6.29925 79.6347 6.0775C78.274 5.86583 76.9939 6.77299 76.752 8.13374L73.6172 25.8134" fill="white"/>
<path d="M78.9392 26.65L81.7414 8.97035C81.9631 7.58944 81.0156 6.29925 79.6347 6.0775C78.274 5.86583 76.9939 6.77299 76.752 8.13374L73.6172 25.8134" stroke="#1E3791" stroke-width="0.57" stroke-linecap="round" stroke-linejoin="round"/>
<path d="M72.9523 25.79L69.7974 8.17081C69.5555 6.79998 68.235 5.88273 66.8642 6.12464C65.5035 6.36656 64.5963 7.65675 64.808 9.0175L67.6504 26.7476" fill="white"/>
<path d="M72.9523 25.79L69.7974 8.17081C69.5555 6.79998 68.235 5.88273 66.8642 6.12464C65.5035 6.36656 64.5963 7.65675 64.808 9.0175L67.6504 26.7476" stroke="#1E3791" stroke-width="0.57" stroke-linecap="round" stroke-linejoin="round"/>
<path d="M82.5138 21.3209L82.5039 21.3193C81.0908 21.0955 79.7639 22.0596 79.5401 23.4726L78.2534 31.5964C78.0296 33.0094 78.9937 34.3364 80.4067 34.5602L80.4167 34.5617C81.8298 34.7855 83.1567 33.8215 83.3805 32.4084L84.6672 24.2847C84.891 22.8716 83.9269 21.5447 82.5138 21.3209Z" fill="white" stroke="#1E3791" stroke-width="0.57" stroke-linecap="round" stroke-linejoin="round"/>
<path d="M87.2697 23.7504L87.1802 23.7362C85.8661 23.5281 84.6321 24.4247 84.4239 25.7387L83.41 32.1402C83.2019 33.4542 84.0985 34.6883 85.4126 34.8964L85.5022 34.9106C86.8162 35.1187 88.0503 34.2221 88.2584 32.9081L89.2723 26.5067C89.4804 25.1926 88.5838 23.9586 87.2697 23.7504Z" fill="white" stroke="#1E3791" stroke-width="0.57" stroke-linecap="round" stroke-linejoin="round"/>
<path d="M76.894 37.0595C75.7953 34.3179 74.7773 32.3322 71.9046 30.155L72.3481 27.5746L76.0876 27.4234C78.4261 27.3327 80.2707 25.4075 80.2707 23.069V22.7969H69.9491C68.9311 22.7969 68.0138 23.4218 67.6409 24.3693L64.6069 32.1709C64.2239 33.1386 64.2844 34.2272 64.748 35.1646L69.5863 42.815C70.0398 43.5307 70.2817 44.3673 70.2817 45.2241V51.1005" fill="white"/>
<path d="M76.894 37.0595C75.7953 34.3179 74.7773 32.3322 71.9046 30.155L72.3481 27.5746L76.0876 27.4234C78.4261 27.3327 80.2707 25.4075 80.2707 23.069V22.7969H69.9491C68.9311 22.7969 68.0138 23.4218 67.6409 24.3693L64.6069 32.1709C64.2239 33.1386 64.2844 34.2272 64.748 35.1646L69.5863 42.815C70.0398 43.5307 70.2817 44.3673 70.2817 45.2241V51.1005" stroke="#1E3791" stroke-width="0.57" stroke-linecap="round" stroke-linejoin="round"/>
<path d="M94.0051 52.2959H94.0253L92.9972 50.0078L91.4953 50.8243C91.4953 50.8243 91.4751 50.8243 91.4651 50.8243H27.9735C25.7862 50.8243 23.3369 52.568 22.5506 54.7049L11.1405 85.4982L9.89062 86.1735L10.9187 88.4515H10.9389C11.3421 89.3284 12.2392 89.9131 13.4891 89.9131H76.9706C79.1578 89.9131 81.6072 88.1693 82.3934 86.0324L94.0051 54.7049C94.3478 53.7877 94.3075 52.9611 94.0051 52.2858V52.2959Z" fill="#B6E6FA" stroke="#1E3791" stroke-width="0.57"/>
<path d="M81.3634 83.755C80.5671 85.8919 78.1278 87.6357 75.9405 87.6357H12.459C10.2617 87.6357 9.12269 85.8919 9.9089 83.755L21.5206 52.4275C22.3169 50.2906 24.7562 48.5469 26.9435 48.5469H90.425C92.6223 48.5469 93.7613 50.2906 92.9751 52.4275L81.3634 83.755Z" fill="white" stroke="#1E3791" stroke-width="0.57"/>
<path d="M81.3634 83.755C80.5671 85.8919 78.1278 87.6357 75.9405 87.6357H12.459C10.2617 87.6357 9.12269 85.8919 9.9089 83.755L21.5206 52.4275C22.3169 50.2906 24.7562 48.5469 26.9435 48.5469H90.425C92.6223 48.5469 93.7613 50.2906 92.9751 52.4275L81.3634 83.755Z" fill="#B6E6FA" stroke="#1E3791" stroke-width="0.57"/>
<path d="M75.2747 87.6357H12.8516L27.3461 48.5469H89.7591L75.2747 87.6357Z" fill="#1E3791" stroke="#1E3791" stroke-width="0.57"/>
<path d="M24.4709 82.2777C32.7154 82.2777 39.3988 75.5943 39.3988 67.3498C39.3988 59.1053 32.7154 52.4219 24.4709 52.4219C16.2264 52.4219 9.54297 59.1053 9.54297 67.3498C9.54297 75.5943 16.2264 82.2777 24.4709 82.2777Z" fill="#B6E6FA" stroke="#1E3791" stroke-width="0.57" stroke-miterlimit="10"/>
<path d="M24.4727 67.3527L39.3804 68.2397C39.4006 67.9474 39.4107 67.645 39.4107 67.3527C39.4107 64.107 38.3523 60.942 36.3868 58.3516L24.4827 67.3527H24.4727Z" fill="white" stroke="#1E3791" stroke-width="0.57" stroke-miterlimit="10"/>
<path d="M24.4709 67.3521L25.1664 52.4342C24.9346 52.4241 24.7027 52.4141 24.4709 52.4141C16.2762 52.4141 9.54297 59.1573 9.54297 67.342C9.54297 72.2205 11.9318 76.8068 15.9335 79.5887L24.4709 67.342V67.3521Z" fill="white" stroke="#1E3791" stroke-width="0.57" stroke-miterlimit="10"/>
<path d="M24.4727 67.3498L37.0117 59.2357C35.6913 57.1996 33.8971 55.5062 31.7703 54.3269C29.6536 53.1375 27.2748 52.4924 24.8456 52.4219L24.4727 67.3498Z" fill="#E60032" stroke="#1E3791" stroke-width="0.57" stroke-miterlimit="10"/>
<path d="M24.4705 72.3629C27.2372 72.3629 29.4801 70.12 29.4801 67.3533C29.4801 64.5866 27.2372 62.3438 24.4705 62.3438C21.7038 62.3438 19.4609 64.5866 19.4609 67.3533C19.4609 70.12 21.7038 72.3629 24.4705 72.3629Z" fill="#1E3791" stroke="#1E3791" stroke-width="0.57" stroke-linecap="round" stroke-linejoin="round"/>
<mask id="mask0_1050_9375" style="mask-type:luminance" maskUnits="userSpaceOnUse" x="34" y="35" width="57" height="55">
<path d="M74.7893 88.9664L34.5312 89.0168L37.7467 45.7349L67.0381 35.9375L90.826 45.6845L74.7893 88.9664Z" fill="white"/>
</mask>
<g mask="url(#mask0_1050_9375)">
<path d="M50.075 67.6172H41.3359V82.3234H50.075V67.6172Z" fill="white" stroke="#1E3791" stroke-width="0.57" stroke-linejoin="round"/>
<path d="M50.075 73.3438H41.3359V82.3247H50.075V73.3438Z" fill="#B6E6FA" stroke="#1E3791" stroke-width="0.57" stroke-linejoin="round"/>
<path d="M60.7898 57.7188H52.0508V82.3231H60.7898V57.7188Z" fill="white" stroke="#1E3791" stroke-width="0.57" stroke-linejoin="round"/>
<path d="M60.7898 70.9141H52.0508V82.3242H60.7898V70.9141Z" fill="#B6E6FA" stroke="#1E3791" stroke-width="0.57" stroke-linejoin="round"/>
<path d="M71.5047 49.1094H62.7656V82.3218H71.5047V49.1094Z" fill="white" stroke="#1E3791" stroke-width="0.57" stroke-linejoin="round"/>
<path d="M71.5047 43.1328H62.7656V49.11H71.5047V43.1328Z" fill="#E60032" stroke="#1E3791" stroke-width="0.57" stroke-linejoin="round"/>
<path d="M71.5047 66.4453H62.7656V82.3207H71.5047V66.4453Z" fill="#B6E6FA" stroke="#1E3791" stroke-width="0.57" stroke-linejoin="round"/>
<path d="M82.2273 58.3125H73.4883V82.3222H82.2273V58.3125Z" fill="white" stroke="#1E3791" stroke-width="0.57" stroke-linejoin="round"/>
<path d="M82.2273 53.5547H73.4883V58.3123H82.2273V53.5547Z" fill="#E60032" stroke="#1E3791" stroke-width="0.57" stroke-linejoin="round"/>
<path d="M82.2273 70.0859H73.4883V82.3226H82.2273V70.0859Z" fill="#B6E6FA" stroke="#1E3791" stroke-width="0.57" stroke-linejoin="round"/>
</g>
<path d="M83.7082 64.8906L76.1484 85.2918" stroke="#1E3791" stroke-width="0.57"/>
<path d="M22.4837 11.5189C15.2264 11.6802 9.47094 17.6877 9.63221 24.9551C9.71285 28.8559 11.4969 32.3031 14.2487 34.6517L13.4222 41.2135L19.3288 37.3429C20.5182 37.6655 21.7681 37.8368 23.0684 37.8066C30.3257 37.6453 36.0812 31.6379 35.9199 24.3705C35.7586 17.1131 29.7512 11.3577 22.4837 11.5189Z" fill="#B6E6FA"/>
<path d="M22.4837 11.5189C15.2264 11.6802 9.47094 17.6877 9.63221 24.9551C9.71285 28.8559 11.4969 32.3031 14.2487 34.6517L13.4222 41.2135L19.3288 37.3429C20.5182 37.6655 21.7681 37.8368 23.0684 37.8066C30.3257 37.6453 36.0812 31.6379 35.9199 24.3705C35.7586 17.1131 29.7512 11.3577 22.4837 11.5189Z" stroke="#1E3791" stroke-width="0.57"/>
<path d="M47.3751 14.6324C38.4344 13.564 30.3103 19.9444 29.2418 28.885C28.1734 37.8257 34.5538 45.9498 43.4944 47.0183C45.3692 47.24 47.1936 47.1191 48.9374 46.7361L54.8441 51.4836L54.6425 44.2665C58.382 41.7063 61.0531 37.614 61.6377 32.7556C62.7062 23.815 56.3258 15.6908 47.3851 14.6224L47.3751 14.6324Z" fill="white"/>
<path d="M47.3751 14.6324C38.4344 13.564 30.3103 19.9444 29.2418 28.885C28.1734 37.8257 34.5538 45.9498 43.4944 47.0183C45.3692 47.24 47.1936 47.1191 48.9374 46.7361L54.8441 51.4836L54.6425 44.2665C58.382 41.7063 61.0531 37.614 61.6377 32.7556C62.7062 23.815 56.3258 15.6908 47.3851 14.6224L47.3751 14.6324Z" stroke="#1E3791" stroke-width="0.57"/>
<path d="M45.3757 41.9753C44.7507 41.9753 44.2165 41.7536 43.773 41.3C43.3194 40.8565 43.0977 40.3122 43.0977 39.6973C43.0977 39.0825 43.3194 38.5382 43.773 38.0947C44.2165 37.6512 44.7608 37.4193 45.3757 37.4193C45.9905 37.4193 46.5348 37.6411 46.9783 38.0947C47.4218 38.5483 47.6536 39.0825 47.6536 39.6973C47.6536 40.3122 47.4319 40.8565 46.9783 41.3C46.5247 41.7435 45.9905 41.9753 45.3757 41.9753ZM43.2186 19.8203H47.5025V23.7715L46.5852 34.8188H44.1359L43.2186 23.7715V19.8203Z" fill="#1E3791"/>
<path d="M23.6154 27.658H21.3777V26.4485C21.3777 25.9243 21.4382 25.5312 21.5692 25.2692C21.6902 25.0071 21.9724 24.6745 22.3958 24.2511L23.8371 22.8097C24.1395 22.4771 24.2907 22.0739 24.2907 21.58C24.2907 21.0861 24.1295 20.6829 23.817 20.3604C23.5045 20.0378 23.0913 19.8766 22.5873 19.8766C22.0833 19.8766 21.67 20.0278 21.3273 20.3402C20.9846 20.6527 20.7931 21.066 20.7427 21.58H18.3438C18.4748 20.4007 18.9384 19.4835 19.7247 18.8182C20.5109 18.1529 21.4886 17.8203 22.6679 17.8203C23.8472 17.8203 24.8048 18.1429 25.5406 18.7779C26.2764 19.4129 26.6494 20.31 26.6494 21.4591C26.6494 22.2554 26.4276 22.9105 25.9942 23.4347C25.7422 23.7471 25.5507 23.979 25.4196 24.11C25.2886 24.241 25.1173 24.4124 24.8955 24.614C24.6738 24.8156 24.4923 24.997 24.3411 25.1482C24.1899 25.2994 24.069 25.4304 23.9783 25.5312C23.7364 25.8235 23.6255 26.2267 23.6255 26.7609V27.648L23.6154 27.658ZM22.5369 32.0527C22.1236 32.0527 21.7607 31.9116 21.4584 31.6294C21.156 31.3472 21.0048 31.0045 21.0048 30.6013C21.0048 30.1981 21.156 29.8554 21.4483 29.5631C21.7507 29.2708 22.1035 29.1297 22.5167 29.1297C22.93 29.1297 23.2928 29.2708 23.5952 29.553C23.8976 29.8352 24.0488 30.1779 24.0488 30.5811C24.0488 30.9843 23.8976 31.327 23.6053 31.6193C23.313 31.9116 22.9501 32.0527 22.5369 32.0527Z" fill="#1E3791"/>
</svg>
