<svg width="326" height="283" viewBox="0 0 326 283" fill="none" xmlns="http://www.w3.org/2000/svg">
<mask id="path-1-outside-1_1092_11227" maskUnits="userSpaceOnUse" x="9.94971" y="1.41992" width="315" height="279" fill="black">
<rect fill="white" x="9.94971" y="1.41992" width="315" height="279"/>
<path d="M128.149 15.0238V54H178.5C178.5 54 182.322 53.9971 183.79 54.0001C190.421 53.9867 196.828 56.1109 202.021 59.9794L205.165 59.2178L217.211 42.4076L219.091 25.4169C219.16 24.8068 219.468 24.249 219.947 23.8654C220.426 23.4819 221.037 23.304 221.647 23.3707L287.14 30.6311C287.75 30.6998 288.308 31.0076 288.691 31.4871C289.074 31.9665 289.252 32.5785 289.185 33.1889L285.68 64.8457L294.937 69.6421C295.173 69.6328 295.408 69.6683 295.631 69.7466C295.933 69.8502 296.203 70.0284 296.418 70.2647C296.545 70.4048 296.65 70.5626 296.73 70.7326C296.776 70.8314 296.814 70.9343 296.843 71.0403C296.848 71.0595 296.853 71.0787 296.858 71.0982L312.946 137.606C313.065 138.097 312.983 138.616 312.72 139.048C312.457 139.48 312.033 139.789 311.542 139.909L213.58 163.641V165.464H272.115C274.467 165.46 276.724 166.356 278.39 167.957C280.056 169.558 280.995 171.731 281 174H178.626V174.379H117.481V267.076C117.48 267.698 117.233 268.293 116.794 268.733C116.355 269.172 115.76 269.419 115.139 269.42H92.7626C92.1418 269.419 91.5466 269.172 91.1076 268.733C90.6685 268.293 90.4216 267.698 90.4209 267.076V174.379H22.5109C22.097 174.379 21.7001 174.214 21.4075 173.921C21.1148 173.628 20.9502 173.231 20.9497 172.817V97.6518C20.9629 85.9622 25.609 74.7551 33.8687 66.4892C42.1283 58.2234 53.3271 53.5738 65.008 53.5605H109.415V43.6661C109.414 43.2519 109.25 42.8548 108.957 42.5619C108.664 42.269 108.268 42.1043 107.854 42.1038H71.4269C70.737 42.103 70.0757 41.8284 69.5879 41.3403C69.1001 40.8521 68.8257 40.1903 68.825 39.5V15.0238C68.8257 14.3334 69.1001 13.6716 69.5879 13.1835C70.0757 12.6953 70.737 12.4207 71.4269 12.4199H125.547C126.236 12.4207 126.898 12.6953 127.386 13.1834C127.873 13.6716 128.148 14.3334 128.149 15.0238Z"/>
</mask>
<path d="M128.149 15.0238V54H178.5C178.5 54 182.322 53.9971 183.79 54.0001C190.421 53.9867 196.828 56.1109 202.021 59.9794L205.165 59.2178L217.211 42.4076L219.091 25.4169C219.16 24.8068 219.468 24.249 219.947 23.8654C220.426 23.4819 221.037 23.304 221.647 23.3707L287.14 30.6311C287.75 30.6998 288.308 31.0076 288.691 31.4871C289.074 31.9665 289.252 32.5785 289.185 33.1889L285.68 64.8457L294.937 69.6421C295.173 69.6328 295.408 69.6683 295.631 69.7466C295.933 69.8502 296.203 70.0284 296.418 70.2647C296.545 70.4048 296.65 70.5626 296.73 70.7326C296.776 70.8314 296.814 70.9343 296.843 71.0403C296.848 71.0595 296.853 71.0787 296.858 71.0982L312.946 137.606C313.065 138.097 312.983 138.616 312.72 139.048C312.457 139.48 312.033 139.789 311.542 139.909L213.58 163.641V165.464H272.115C274.467 165.46 276.724 166.356 278.39 167.957C280.056 169.558 280.995 171.731 281 174H178.626V174.379H117.481V267.076C117.48 267.698 117.233 268.293 116.794 268.733C116.355 269.172 115.76 269.419 115.139 269.42H92.7626C92.1418 269.419 91.5466 269.172 91.1076 268.733C90.6685 268.293 90.4216 267.698 90.4209 267.076V174.379H22.5109C22.097 174.379 21.7001 174.214 21.4075 173.921C21.1148 173.628 20.9502 173.231 20.9497 172.817V97.6518C20.9629 85.9622 25.609 74.7551 33.8687 66.4892C42.1283 58.2234 53.3271 53.5738 65.008 53.5605H109.415V43.6661C109.414 43.2519 109.25 42.8548 108.957 42.5619C108.664 42.269 108.268 42.1043 107.854 42.1038H71.4269C70.737 42.103 70.0757 41.8284 69.5879 41.3403C69.1001 40.8521 68.8257 40.1903 68.825 39.5V15.0238C68.8257 14.3334 69.1001 13.6716 69.5879 13.1835C70.0757 12.6953 70.737 12.4207 71.4269 12.4199H125.547C126.236 12.4207 126.898 12.6953 127.386 13.1834C127.873 13.6716 128.148 14.3334 128.149 15.0238Z" fill="white"/>
<path d="M128.149 54H117.149V65H128.149V54ZM128.149 15.0238L139.149 15.0238L139.149 15.0113L128.149 15.0238ZM178.5 54L178.5 65L178.508 65L178.5 54ZM183.79 54.0001L183.768 65L183.79 65.0001L183.812 65L183.79 54.0001ZM202.021 59.9794L195.45 68.8008L199.591 71.8862L204.611 70.6702L202.021 59.9794ZM205.165 59.2178L207.755 69.9085L211.726 68.9464L214.106 65.6249L205.165 59.2178ZM217.211 42.4076L226.152 48.8148L227.827 46.4767L228.144 43.6178L217.211 42.4076ZM219.091 25.4169L208.161 24.1825L208.159 24.1946L208.158 24.2067L219.091 25.4169ZM221.647 23.3707L222.859 12.4376L222.851 12.4367L222.842 12.4358L221.647 23.3707ZM287.14 30.6311L288.372 19.7002L288.362 19.6992L288.352 19.6981L287.14 30.6311ZM288.691 31.4871L297.283 24.6187L297.283 24.6184L288.691 31.4871ZM289.185 33.1889L300.118 34.3993L300.12 34.3873L289.185 33.1889ZM285.68 64.8457L274.747 63.6352L273.916 71.1392L280.619 74.6125L285.68 64.8457ZM294.937 69.6421L289.876 79.4089L292.461 80.7484L295.371 80.6335L294.937 69.6421ZM295.631 69.7466L291.979 80.1227L292.019 80.1367L292.058 80.1503L295.631 69.7466ZM296.418 70.2647L288.273 77.6584L288.274 77.6593L296.418 70.2647ZM296.73 70.7326L286.774 75.4105L286.775 75.4118L296.73 70.7326ZM296.843 71.0403L307.457 68.1498L307.456 68.1457L296.843 71.0403ZM296.858 71.0982L286.153 73.627L286.159 73.6558L286.166 73.6845L296.858 71.0982ZM312.946 137.606L323.64 135.029L323.638 135.019L312.946 137.606ZM312.72 139.048L322.112 144.775L322.112 144.774L312.72 139.048ZM311.542 139.909L314.132 150.599L314.141 150.597L311.542 139.909ZM213.58 163.641L210.99 152.95L202.58 154.987V163.641H213.58ZM213.58 165.464H202.58V176.464H213.58V165.464ZM272.115 165.464V176.464H272.126L272.137 176.464L272.115 165.464ZM278.39 167.957L286.011 160.025L286.011 160.025L278.39 167.957ZM281 174V185H292.024L292 173.976L281 174ZM178.626 174V163H167.626V174H178.626ZM178.626 174.379V185.379H189.626V174.379H178.626ZM117.481 174.379V163.379H106.481V174.379H117.481ZM117.481 267.076L128.481 267.089V267.076H117.481ZM116.794 268.733L124.575 276.508L124.575 276.508L116.794 268.733ZM115.139 269.42L115.139 280.42L115.151 280.42L115.139 269.42ZM92.7626 269.42L92.7502 280.42H92.7626V269.42ZM91.1076 268.733L83.3263 276.508L83.3265 276.508L91.1076 268.733ZM90.4209 267.076L79.4209 267.076L79.4209 267.089L90.4209 267.076ZM90.4209 174.379H101.421V163.379H90.4209V174.379ZM22.5109 174.379L22.4991 185.379H22.5109V174.379ZM20.9497 172.817L9.9497 172.817L9.94971 172.829L20.9497 172.817ZM20.9497 97.6518L9.94971 97.6394V97.6518H20.9497ZM33.8687 66.4892L41.6497 74.2645L41.6497 74.2645L33.8687 66.4892ZM65.008 53.5605L65.008 42.5605L64.9955 42.5606L65.008 53.5605ZM109.415 53.5605V64.5605H120.415V53.5605H109.415ZM109.415 43.6661L120.415 43.6661L120.415 43.6544L109.415 43.6661ZM108.957 42.5619L101.176 50.3371L101.176 50.3372L108.957 42.5619ZM107.854 42.1038L107.866 31.1038H107.854V42.1038ZM71.4269 42.1038L71.4141 53.1038H71.4269V42.1038ZM68.825 39.5L57.8249 39.5L57.825 39.5127L68.825 39.5ZM68.825 15.0238L57.825 15.0111V15.0238H68.825ZM69.5879 13.1835L77.369 20.9587L77.369 20.9587L69.5879 13.1835ZM71.4269 12.4199L71.4269 1.41991L71.4141 1.41993L71.4269 12.4199ZM125.547 12.4199L125.559 1.41992H125.547V12.4199ZM127.386 13.1834L135.167 5.4082L135.167 5.40814L127.386 13.1834ZM139.149 54V15.0238H117.149V54H139.149ZM178.5 43H128.149V65H178.5V43ZM183.812 43.0001C183.063 42.9986 181.728 42.9986 180.591 42.9989C180.02 42.9991 179.496 42.9994 179.114 42.9996C178.923 42.9997 178.767 42.9998 178.66 42.9999C178.606 42.9999 178.564 43 178.535 43C178.521 43 178.51 43 178.503 43C178.499 43 178.496 43 178.495 43C178.494 43 178.493 43 178.492 43C178.492 43 178.492 43 178.492 43C178.492 43 178.492 43 178.492 43C178.492 43 178.492 43 178.5 54C178.508 65 178.508 65 178.508 65C178.508 65 178.508 65 178.509 65C178.509 65 178.509 65 178.509 65C178.509 65 178.51 65 178.511 65C178.513 65 178.516 65 178.519 65C178.526 65 178.537 65 178.551 65C178.579 64.9999 178.621 64.9999 178.675 64.9999C178.782 64.9998 178.936 64.9997 179.127 64.9996C179.507 64.9994 180.03 64.9991 180.598 64.9989C181.74 64.9986 183.049 64.9986 183.768 65L183.812 43.0001ZM208.592 51.1581C201.478 45.8579 192.753 42.9819 183.768 43.0001L183.812 65C188.089 64.9914 192.178 66.3639 195.45 68.8008L208.592 51.1581ZM202.575 48.527L199.431 49.2887L204.611 70.6702L207.755 69.9085L202.575 48.527ZM208.269 36.0005L196.224 52.8106L214.106 65.6249L226.152 48.8148L208.269 36.0005ZM208.158 24.2067L206.277 41.1974L228.144 43.6178L230.025 26.6271L208.158 24.2067ZM213.072 15.2783C210.321 17.481 208.556 20.6832 208.161 24.1825L230.022 26.6513C229.764 28.9305 228.615 31.0169 226.822 32.4526L213.072 15.2783ZM222.842 12.4358C219.337 12.0527 215.824 13.0755 213.072 15.2783L226.822 32.4526C225.028 33.8883 222.738 34.5554 220.452 34.3055L222.842 12.4358ZM288.352 19.6981L222.859 12.4376L220.435 34.3037L285.928 41.5641L288.352 19.6981ZM297.283 24.6184C295.082 21.865 291.878 20.0952 288.372 19.7002L285.909 41.5619C283.622 41.3044 281.534 40.1502 280.099 38.3557L297.283 24.6184ZM300.12 34.3873C300.503 30.8849 299.484 27.372 297.283 24.6187L280.099 38.3554C278.664 36.561 278 34.2722 278.25 31.9904L300.12 34.3873ZM296.613 66.0562L300.118 34.3993L278.252 31.9784L274.747 63.6352L296.613 66.0562ZM299.998 59.8753L290.741 55.0789L280.619 74.6125L289.876 79.4089L299.998 59.8753ZM299.283 59.3706C297.75 58.8309 296.128 58.5865 294.503 58.6506L295.371 80.6335C294.218 80.679 293.067 80.5056 291.979 80.1227L299.283 59.3706ZM304.562 62.871C303.102 61.2626 301.259 60.0488 299.204 59.343L292.058 80.1503C290.606 79.6517 289.305 78.7943 288.273 77.6584L304.562 62.871ZM306.686 66.0547C306.143 64.9007 305.43 63.826 304.562 62.8701L288.274 77.6593C287.661 76.9836 287.157 76.2245 286.774 75.4105L306.686 66.0547ZM307.456 68.1457C307.26 67.4271 307.002 66.7271 306.685 66.0534L286.775 75.4118C286.551 74.9357 286.369 74.4416 286.231 73.9348L307.456 68.1457ZM307.563 68.5695C307.524 68.4031 307.487 68.2604 307.457 68.1498L286.23 73.9308C286.21 73.8585 286.183 73.7544 286.153 73.627L307.563 68.5695ZM323.638 135.019L307.55 68.5119L286.166 73.6845L302.255 140.192L323.638 135.019ZM322.112 144.774C323.891 141.856 324.441 138.351 323.64 135.029L302.252 140.182C301.689 137.843 302.075 135.376 303.328 133.321L322.112 144.774ZM314.141 150.597C317.466 149.788 320.332 147.693 322.112 144.775L303.328 133.321C304.582 131.266 306.6 129.79 308.943 129.22L314.141 150.597ZM216.17 174.332L314.132 150.599L308.952 129.218L210.99 152.95L216.17 174.332ZM224.58 165.464V163.641H202.58V165.464H224.58ZM272.115 154.464H213.58V176.464H272.115V154.464ZM286.011 160.025C282.25 156.412 277.237 154.454 272.093 154.464L272.137 176.464C271.696 176.465 271.198 176.301 270.769 175.89L286.011 160.025ZM292 173.976C291.988 168.66 289.785 163.65 286.011 160.025L270.769 175.89C270.328 175.465 270.002 174.803 270 174.024L292 173.976ZM178.626 185H281V163H178.626V185ZM189.626 174.379V174H167.626V174.379H189.626ZM117.481 185.379H178.626V163.379H117.481V185.379ZM128.481 267.076V174.379H106.481V267.076H128.481ZM124.575 276.508C127.073 274.008 128.477 270.621 128.481 267.089L106.481 267.064C106.483 264.775 107.393 262.578 109.013 260.957L124.575 276.508ZM115.151 280.42C118.688 280.416 122.077 279.008 124.575 276.508L109.013 260.957C110.633 259.336 112.832 258.422 115.127 258.42L115.151 280.42ZM92.7626 280.42H115.139V258.42H92.7626V280.42ZM83.3265 276.508C85.8247 279.008 89.2135 280.416 92.7502 280.42L92.7751 258.42C95.07 258.422 97.2685 259.336 98.8886 260.957L83.3265 276.508ZM79.4209 267.089C79.4249 270.621 80.8286 274.008 83.3263 276.508L98.8888 260.958C100.508 262.578 101.418 264.775 101.421 267.064L79.4209 267.089ZM79.4209 174.379V267.076H101.421V174.379H79.4209ZM22.5109 185.379H90.4209V163.379H22.5109V185.379ZM13.6264 181.696C15.9783 184.05 19.1691 185.376 22.4991 185.379L22.5226 163.379C25.0248 163.382 27.4219 164.378 29.1885 166.146L13.6264 181.696ZM9.94971 172.829C9.95334 176.154 11.2747 179.343 13.6264 181.696L29.1885 166.146C30.9549 167.913 31.947 170.308 31.9497 172.805L9.94971 172.829ZM9.94971 97.6518V172.817H31.9497V97.6518H9.94971ZM26.0876 58.714C15.769 69.0403 9.96621 83.0393 9.94971 97.6394L31.9497 97.6642C31.9596 88.885 35.449 80.4699 41.6497 74.2645L26.0876 58.714ZM64.9955 42.5606C50.3989 42.5771 36.4065 48.3874 26.0876 58.714L41.6497 74.2645C47.8502 68.0594 56.2553 64.5705 65.0205 64.5605L64.9955 42.5606ZM109.415 42.5605H65.008V64.5605H109.415V42.5605ZM98.4148 43.6661V53.5605H120.415V43.6661H98.4148ZM101.176 50.3372C99.4097 48.5696 98.4174 46.1745 98.4148 43.6779L120.415 43.6544C120.411 40.3293 119.09 37.14 116.738 34.7866L101.176 50.3372ZM107.842 53.1038C105.34 53.1011 102.943 52.1051 101.176 50.3371L116.738 34.7867C114.386 32.4329 111.195 31.1075 107.866 31.1038L107.842 53.1038ZM71.4269 53.1038H107.854V31.1038H71.4269V53.1038ZM61.8069 49.1156C64.3538 51.6644 67.8086 53.0996 71.4141 53.1038L71.4396 31.1038C73.6654 31.1064 75.7977 31.9925 77.369 33.565L61.8069 49.1156ZM57.825 39.5127C57.8291 43.1135 59.2603 46.5671 61.8069 49.1156L77.369 33.565C78.94 35.1372 79.8224 37.2671 79.8249 39.4873L57.825 39.5127ZM57.825 15.0238V39.5H79.825V15.0238H57.825ZM61.8069 5.40816C59.2603 7.95663 57.8291 11.4103 57.825 15.0111L79.8249 15.0365C79.8224 17.2566 78.94 19.3866 77.369 20.9587L61.8069 5.40816ZM71.4141 1.41993C67.8087 1.42411 64.3538 2.85937 61.8069 5.40816L77.369 20.9587C75.7976 22.5312 73.6654 23.4173 71.4396 23.4199L71.4141 1.41993ZM125.547 1.41992H71.4269V23.4199H125.547V1.41992ZM135.167 5.40814C132.62 2.85937 129.165 1.42406 125.559 1.41993L125.534 23.4199C123.308 23.4174 121.176 22.5312 119.605 20.9587L135.167 5.40814ZM139.149 15.0113C139.144 11.4102 137.713 7.9566 135.167 5.4082L119.604 20.9587C118.034 19.3866 117.151 17.2566 117.149 15.0363L139.149 15.0113Z" fill="white" mask="url(#path-1-outside-1_1092_11227)"/>
<path d="M118.782 128.031C127.691 128.031 134.914 120.803 134.914 111.887C134.914 102.971 127.691 95.7432 118.782 95.7432C109.872 95.7432 102.65 102.971 102.65 111.887C102.65 120.803 109.872 128.031 118.782 128.031Z" fill="#EDF8FE"/>
<path d="M90.4209 267.076V174.64H117.481V267.076C117.48 267.698 117.233 268.293 116.794 268.733C116.355 269.172 115.76 269.419 115.139 269.42H92.7626C92.1418 269.419 91.5466 269.172 91.1076 268.733C90.6685 268.293 90.4216 267.698 90.4209 267.076Z" fill="#20378B"/>
<path d="M19.9089 172.817V97.6519C19.9224 85.6861 24.6783 74.2142 33.1331 65.7531C41.5878 57.292 53.0511 52.5326 65.008 52.519H179.666V175.421H22.5108C21.821 175.42 21.1597 175.145 20.6719 174.657C20.1841 174.169 19.9097 173.507 19.9089 172.817ZM178.626 53.5606H65.008C53.3271 53.5738 42.1283 58.2234 33.8687 66.4893C25.609 74.7551 20.9629 85.9622 20.9497 97.6519V172.817C20.9502 173.231 21.1148 173.628 21.4074 173.921C21.7001 174.214 22.0969 174.379 22.5108 174.379H178.626V53.5606Z" fill="#20378B"/>
<path d="M178.626 53.5605H65.008C53.3271 53.5738 42.1283 58.2234 33.8687 66.4892C25.609 74.7551 20.9629 85.9622 20.9497 97.6518V172.817C20.9502 173.231 21.1148 173.628 21.4075 173.921C21.7001 174.214 22.097 174.379 22.5109 174.379H178.626V53.5605Z" fill="#BEE4F8"/>
<path d="M183.83 51.4776C191.68 51.4611 199.215 54.5662 204.778 60.1097C210.34 65.6532 213.475 73.1811 213.491 81.0373V166.605H271.774C274.115 166.6 276.363 167.526 278.022 169.179C279.681 170.833 280.616 173.078 280.621 175.421H154.168V81.0373C154.184 73.1811 157.319 65.6532 162.881 60.1097C168.444 54.5662 175.979 51.4611 183.83 51.4776Z" fill="#20378B"/>
<path d="M176.712 100.205L182.854 125.596L303 96.4889L296.858 71.0982C296.784 70.7878 296.632 70.5011 296.418 70.2649C296.203 70.0286 295.933 69.8504 295.631 69.7468C295.408 69.6684 295.173 69.6329 294.937 69.6422L225.487 33.656C225.08 33.4481 224.612 33.3925 224.168 33.4994C223.724 33.6063 223.332 33.8686 223.064 34.2389L189.593 80.9487L176.975 98.5626C176.952 98.5935 176.936 98.6289 176.928 98.6665C176.92 98.7041 176.92 98.7429 176.929 98.7804C176.672 99.2082 176.594 99.72 176.712 100.205Z" fill="#D1DBE0"/>
<path d="M177.035 98.6072L177.035 98.6072L177.035 98.6072Z" fill="#20378B" stroke="#20378B"/>
<path d="M212.946 101.966L212.946 101.966L215.621 102.263L235.47 104.463L235.536 103.867L235.47 104.463L248.628 105.921L248.628 105.921L249.405 106.008L249.648 106.035L249.841 105.884L266.26 93.0497L266.889 92.5581L270.767 89.5271L284.564 78.7439L284.764 78.588L284.791 78.3364L284.874 77.5798L284.874 77.579L289.781 33.2549L289.781 33.2542C289.866 32.4861 289.642 31.7159 289.16 31.1124C288.677 30.5089 287.975 30.1214 287.208 30.0349L287.206 30.0348L221.713 22.7743L221.712 22.7742C220.945 22.6903 220.175 22.9143 219.572 23.397C218.969 23.8798 218.582 24.5819 218.495 25.3495L218.495 25.3509L215.034 56.6166L215.034 56.6166L213.114 73.9508L213.711 74.0169L213.114 73.9508L211.397 89.4586L211.397 89.4587L210.601 96.66L210.601 96.6605L210.369 98.7461L210.369 98.7478C210.285 99.5161 210.51 100.286 210.993 100.889C211.476 101.493 212.178 101.88 212.946 101.966Z" fill="#BEE4F8" stroke="#20378B" stroke-width="1.2"/>
<path d="M231.01 62.517L259.379 65.6615L269.44 66.7763C269.884 66.8255 270.334 66.7867 270.763 66.6621C271.192 66.5374 271.593 66.3294 271.942 66.0499C272.291 65.7704 272.581 65.4249 272.796 65.033C273.012 64.6412 273.148 64.2107 273.197 63.7662C273.247 63.3217 273.208 62.8718 273.083 62.4423C272.959 62.0128 272.751 61.612 272.472 61.2628C272.192 60.9137 271.847 60.6231 271.455 60.4075C271.064 60.1919 270.634 60.0555 270.19 60.0063L257.676 58.6194L231.761 55.7438C230.864 55.6446 229.964 55.906 229.259 56.4706C228.555 57.0352 228.103 57.8568 228.003 58.7547C227.904 59.6525 228.164 60.5533 228.728 61.2588C229.292 61.9643 230.113 62.4169 231.01 62.517Z" fill="white"/>
<path d="M229.395 75.0756C229.468 75.0887 229.541 75.1018 229.616 75.109L262.548 78.7601L268.047 79.3709C268.944 79.4702 269.844 79.2087 270.549 78.6439C271.254 78.0791 271.705 77.2573 271.805 76.3592C271.904 75.4611 271.643 74.5603 271.078 73.855C270.514 73.1497 269.693 72.6976 268.795 72.5983L260.845 71.718L234.758 68.8252L230.368 68.3384C229.49 68.2404 228.608 68.4879 227.909 69.0286C227.21 69.5693 226.749 70.3607 226.622 71.2357C226.496 72.1107 226.715 73.0005 227.232 73.7171C227.749 74.4337 228.525 74.9209 229.395 75.0756Z" fill="white"/>
<path d="M225.667 86.2116C225.937 86.6599 226.307 87.04 226.747 87.3223C227.188 87.6046 227.687 87.7815 228.207 87.8392L241.705 89.3352L265.745 92.0005L265.751 91.9992L266.519 92.085L270.397 89.054C270.421 88.8237 270.422 88.5917 270.398 88.3614C270.316 87.5882 269.973 86.8662 269.426 86.3147C268.878 85.7632 268.159 85.4152 267.387 85.3285L264.047 84.9572L250.8 83.4901L241.268 82.4321L228.956 81.0666C228.325 80.9967 227.687 81.1048 227.114 81.3787C226.541 81.6526 226.056 82.0814 225.714 82.6167C225.372 83.1519 225.187 83.7721 225.178 84.4074C225.17 85.0427 225.339 85.6676 225.667 86.2116Z" fill="white"/>
<path d="M244.627 47.1655L251.685 47.9479L254.803 48.2944L259.512 48.816C260.41 48.9153 261.31 48.6538 262.015 48.089C262.72 47.5242 263.171 46.7023 263.271 45.8042C263.37 44.9061 263.108 44.0053 262.544 43.3C261.98 42.5947 261.158 42.1427 260.261 42.0433L245.378 40.3949C244.481 40.2951 243.581 40.556 242.876 41.1203C242.171 41.6847 241.719 42.5061 241.62 43.4039C241.52 44.3018 241.781 45.2025 242.345 45.9079C242.909 46.6133 243.729 47.0657 244.627 47.1655Z" fill="white"/>
<path d="M186.325 66.1643L186.325 66.1647L194.931 101.74L195.022 102.117L195.402 102.189L209.765 104.922L209.765 104.922L223.051 107.453L223.052 107.453L237.307 110.168L241.862 111.035L241.862 111.035C242.213 111.102 242.573 111.093 242.92 111.009C243.266 110.925 243.591 110.768 243.872 110.548L243.873 110.548L247.527 107.692L247.527 107.692L249.841 105.884L249.841 105.884L266.26 93.0494L266.565 92.8114L266.474 92.4357L256.034 49.2785C256.034 49.2782 256.034 49.2779 256.034 49.2776C255.904 48.7369 255.621 48.2452 255.218 47.8613C254.866 47.5222 254.433 47.2774 253.961 47.1494C253.489 47.0214 252.992 47.0144 252.516 47.1292L252.515 47.1293L188.472 62.6444L188.472 62.6445C187.721 62.827 187.073 63.3002 186.67 63.9602C186.268 64.6201 186.144 65.4129 186.325 66.1643Z" fill="#E60032" stroke="#20378B" stroke-width="1.2"/>
<path d="M206.641 94.3256C206.854 95.2032 207.407 95.9603 208.177 96.4307C208.947 96.9011 209.873 97.0464 210.75 96.8347L248.329 87.7308C249.206 87.5171 249.962 86.9642 250.432 86.1934C250.902 85.4226 251.048 84.4968 250.836 83.6189C250.827 83.5753 250.815 83.5324 250.8 83.4904C250.56 82.644 250.002 81.9234 249.243 81.4796C248.484 81.0358 247.582 80.9033 246.728 81.1098L209.149 90.2137C208.272 90.4269 207.515 90.9797 207.045 91.7506C206.575 92.5216 206.43 93.4477 206.641 94.3256Z" fill="white"/>
<path d="M209.877 104.333L223.164 106.864L251.308 100.046C252.186 99.8332 252.943 99.2805 253.413 98.5094C253.883 97.7383 254.028 96.8118 253.815 95.9338C253.603 95.0558 253.051 94.2982 252.28 93.8277C251.51 93.3571 250.584 93.2122 249.707 93.4247L212.128 102.529C211.342 102.717 210.65 103.181 210.177 103.837C210.064 103.993 209.963 104.159 209.877 104.333Z" fill="white"/>
<path d="M237.419 109.579L241.974 110.446C242.24 110.496 242.515 110.489 242.778 110.426C243.042 110.362 243.289 110.242 243.503 110.075L247.157 107.219L237.419 109.579Z" fill="white"/>
<path d="M214.213 75.2491C214.426 76.1267 214.979 76.8838 215.749 77.3542C216.52 77.8247 217.445 77.9699 218.322 77.7582L232.877 74.232C233.754 74.0184 234.51 73.4655 234.98 72.6947C235.45 71.9239 235.596 70.9981 235.385 70.1202C235.271 69.6484 235.057 69.2067 234.758 68.8254C234.355 68.3099 233.813 67.9213 233.195 67.706C232.578 67.4906 231.911 67.4577 231.276 67.6111L216.721 71.1372C215.843 71.3499 215.086 71.9025 214.616 72.6736C214.146 73.4447 214.001 74.3711 214.213 75.2491Z" fill="white"/>
<path d="M223.055 106.797L210.082 104.328L210.082 104.328L178.827 98.3756L178.824 98.3749C178.629 98.3362 178.427 98.3405 178.234 98.3876C177.973 98.4516 177.736 98.5889 177.55 98.7834C177.477 98.8622 177.412 98.9479 177.356 99.0393C177.168 99.354 177.111 99.7302 177.197 100.087L177.198 100.087L193.286 166.594C193.374 166.957 193.602 167.27 193.92 167.465C194.239 167.659 194.621 167.719 194.983 167.632L223.055 106.797ZM223.055 106.797L223.069 107.355L237.326 110.07L237.326 110.07L241.88 110.938L241.882 110.938C242.218 111.001 242.563 110.992 242.895 110.911C243.228 110.831 243.539 110.681 243.809 110.471L243.81 110.47L247.467 107.613L247.224 107.11L249.002 105.717L249.003 105.716L265.966 92.4642L266.354 92.3736L266.31 92.1931L270.706 88.757L284.584 77.9076L284.585 77.9075L294.141 70.4399L294.143 70.4382C294.211 70.3844 294.285 70.3384 294.363 70.3012L294.373 70.2966L294.382 70.2916C294.558 70.1988 294.753 70.1476 294.951 70.1419L294.957 70.1417C295.129 70.1349 295.302 70.1609 295.465 70.2183L295.469 70.2195C295.691 70.2958 295.89 70.4269 296.048 70.6008C296.206 70.7747 296.317 70.9857 296.372 71.2143L296.372 71.2156L312.46 137.723C312.548 138.086 312.487 138.469 312.293 138.788C312.099 139.106 311.786 139.335 311.424 139.423L194.984 167.632L223.055 106.797ZM296.858 71.0981C296.784 70.7876 296.632 70.501 296.418 70.2647C296.203 70.0284 295.933 69.8502 295.631 69.7466C295.408 69.6682 295.173 69.6328 294.937 69.6421C294.662 69.65 294.392 69.721 294.149 69.8495L296.858 71.0981ZM296.858 71.0981L312.946 137.606L296.858 71.0981ZM243.195 109.682C243.195 109.682 243.195 109.682 243.195 109.682L243.195 109.682Z" fill="white" stroke="#20378B"/>
<path d="M223.162 106.864L237.42 109.579L241.973 110.447C242.24 110.496 242.514 110.489 242.778 110.425C243.041 110.362 243.288 110.243 243.502 110.076L247.159 107.219L245.876 107.53L243.167 109.645C243.014 109.764 242.838 109.849 242.649 109.894C242.461 109.94 242.265 109.945 242.075 109.91L238.703 109.268L224.446 106.553L223.162 106.864ZM265.749 92.0015L265.888 92.5753L266.521 92.0832L265.749 92.0015ZM223.162 106.864L237.42 109.579L241.973 110.447C242.24 110.496 242.514 110.489 242.778 110.425C243.041 110.362 243.288 110.243 243.502 110.076L247.159 107.219L245.876 107.53L243.167 109.645C243.014 109.764 242.838 109.849 242.649 109.894C242.461 109.94 242.265 109.945 242.075 109.91L238.703 109.268L224.446 106.553L223.162 106.864ZM223.162 106.864L237.42 109.579L241.973 110.447C242.24 110.496 242.514 110.489 242.778 110.425C243.041 110.362 243.288 110.243 243.502 110.076L247.159 107.219L245.876 107.53L243.167 109.645C243.014 109.764 242.838 109.849 242.649 109.894C242.461 109.94 242.265 109.945 242.075 109.91L238.703 109.268L224.446 106.553L223.162 106.864ZM177.459 98.8213L177.529 98.8744C177.541 98.855 177.562 98.8376 177.577 98.8173C177.735 98.6531 177.931 98.5306 178.148 98.4608C178.364 98.391 178.595 98.3761 178.819 98.4175L209.878 104.33L223.162 106.864L237.42 109.579L241.973 110.447C242.24 110.496 242.514 110.489 242.778 110.425C243.041 110.362 243.288 110.243 243.502 110.076L247.159 107.219L245.876 107.53L243.167 109.645C243.014 109.764 242.838 109.849 242.649 109.894C242.461 109.94 242.265 109.945 242.075 109.91L238.703 109.268L224.446 106.553L210.176 103.837L178.921 97.8844C178.654 97.8316 178.38 97.8375 178.116 97.9018L177.459 98.8213ZM176.712 100.205L192.8 166.712C192.919 167.204 193.228 167.628 193.66 167.891C194.091 168.155 194.609 168.236 195.101 168.118L311.542 139.909C312.033 139.789 312.457 139.48 312.72 139.048C312.983 138.616 313.065 138.097 312.946 137.606L296.858 71.0981C296.784 70.7876 296.632 70.501 296.418 70.2647C296.203 70.0284 295.933 69.8502 295.631 69.7466C295.408 69.6682 295.173 69.6328 294.937 69.6421C294.662 69.65 294.392 69.721 294.149 69.8495C294.037 69.9029 293.931 69.9687 293.833 70.0459L284.277 77.5136L270.398 88.363L269 89.5L265.749 92.0015L265.745 92.0024L248.695 105.323L245.876 107.53L243.167 109.645C243.014 109.764 242.838 109.849 242.649 109.894C242.461 109.94 242.265 109.945 242.075 109.91L238.703 109.268L224.446 106.553L210.176 103.837L178.921 97.8844C178.654 97.8316 178.38 97.8375 178.116 97.9018C177.76 97.9887 177.437 98.176 177.185 98.4413C177.089 98.5455 177.003 98.6591 176.929 98.7803C176.672 99.208 176.594 99.7198 176.712 100.205ZM177.242 100.076C177.195 99.8802 177.192 99.676 177.233 99.4786C177.275 99.2812 177.36 99.0956 177.482 98.9354C177.493 98.9119 177.509 98.891 177.529 98.8744C177.541 98.855 177.562 98.8376 177.577 98.8173C177.735 98.6531 177.931 98.5306 178.148 98.4608C178.364 98.391 178.595 98.3761 178.819 98.4175L209.878 104.33L223.162 106.864L237.42 109.579L241.973 110.447C242.24 110.496 242.514 110.489 242.778 110.425C243.041 110.362 243.288 110.243 243.502 110.076L247.159 107.219L249.472 105.411L265.888 92.5753L266.521 92.0832L270.396 89.0536L284.195 78.2688L294.172 70.4721C294.323 70.3537 294.498 70.269 294.685 70.2237C294.737 70.2109 294.791 70.2022 294.844 70.1976C294.891 70.1891 294.938 70.1846 294.985 70.1841C295.145 70.1825 295.303 70.2084 295.454 70.2606C295.669 70.3355 295.862 70.463 296.015 70.6316C296.168 70.8001 296.277 71.0043 296.331 71.2256L312.42 137.733C312.462 137.908 312.469 138.088 312.442 138.266C312.414 138.443 312.352 138.613 312.259 138.766C312.165 138.919 312.043 139.052 311.898 139.158C311.753 139.264 311.589 139.34 311.414 139.382L194.973 167.591C194.622 167.675 194.252 167.617 193.943 167.428C193.635 167.239 193.415 166.935 193.33 166.584L177.242 100.076ZM223.162 106.864L237.42 109.579L241.973 110.447C242.24 110.496 242.514 110.489 242.778 110.425C243.041 110.362 243.288 110.243 243.502 110.076L247.159 107.219L245.876 107.53L243.167 109.645C243.014 109.764 242.838 109.849 242.649 109.894C242.461 109.94 242.265 109.945 242.075 109.91L238.703 109.268L224.446 106.553L223.162 106.864ZM223.162 106.864L237.42 109.579L241.973 110.447C242.24 110.496 242.514 110.489 242.778 110.425C243.041 110.362 243.288 110.243 243.502 110.076L247.159 107.219L245.876 107.53L243.167 109.645C243.014 109.764 242.838 109.849 242.649 109.894C242.461 109.94 242.265 109.945 242.075 109.91L238.703 109.268L224.446 106.553L223.162 106.864ZM223.162 106.864L237.42 109.579L241.973 110.447C242.24 110.496 242.514 110.489 242.778 110.425C243.041 110.362 243.288 110.243 243.502 110.076L247.159 107.219L245.876 107.53L243.167 109.645C243.014 109.764 242.838 109.849 242.649 109.894C242.461 109.94 242.265 109.945 242.075 109.91L238.703 109.268L224.446 106.553L223.162 106.864Z" fill="#20378B"/>
<path d="M281.194 126.842C280.932 125.752 281.112 124.603 281.696 123.646C282.279 122.689 283.218 122.003 284.306 121.738L299.003 118.178C300.09 117.918 301.236 118.101 302.189 118.685C303.143 119.27 303.826 120.208 304.089 121.296C304.352 122.383 304.173 123.531 303.593 124.487C303.012 125.443 302.077 126.13 300.991 126.397L286.294 129.957C285.205 130.219 284.057 130.039 283.101 129.455C282.145 128.871 281.459 127.932 281.194 126.842Z" fill="#E60032"/>
<mask id="path-23-inside-2_1092_11227" fill="white">
<path fill-rule="evenodd" clip-rule="evenodd" d="M112.161 117.471C113.917 119.228 116.298 120.217 118.782 120.219C121.265 120.217 123.646 119.228 125.402 117.471C127.158 115.713 128.146 113.331 128.149 110.845V15.0238C128.148 14.3334 127.873 13.6716 127.386 13.1834C126.898 12.6953 126.236 12.4207 125.547 12.4199H71.4269C70.737 12.4207 70.0757 12.6953 69.5879 13.1835C69.1001 13.6716 68.8258 14.3334 68.825 15.0238V39.5C68.8258 40.1903 69.1001 40.8521 69.5879 41.3403C70.0757 41.8284 70.737 42.103 71.4269 42.1038H107.854C108.268 42.1043 108.664 42.269 108.957 42.5619C109.25 42.8548 109.414 43.2519 109.415 43.6661V110.845C109.418 113.331 110.405 115.713 112.161 117.471Z"/>
</mask>
<path fill-rule="evenodd" clip-rule="evenodd" d="M112.161 117.471C113.917 119.228 116.298 120.217 118.782 120.219C121.265 120.217 123.646 119.228 125.402 117.471C127.158 115.713 128.146 113.331 128.149 110.845V15.0238C128.148 14.3334 127.873 13.6716 127.386 13.1834C126.898 12.6953 126.236 12.4207 125.547 12.4199H71.4269C70.737 12.4207 70.0757 12.6953 69.5879 13.1835C69.1001 13.6716 68.8258 14.3334 68.825 15.0238V39.5C68.8258 40.1903 69.1001 40.8521 69.5879 41.3403C70.0757 41.8284 70.737 42.103 71.4269 42.1038H107.854C108.268 42.1043 108.664 42.269 108.957 42.5619C109.25 42.8548 109.414 43.2519 109.415 43.6661V110.845C109.418 113.331 110.405 115.713 112.161 117.471Z" fill="#E60032"/>
<path d="M118.782 120.219L118.78 121.419L118.783 121.419L118.782 120.219ZM128.149 110.845L129.349 110.847V110.845H128.149ZM128.149 15.0238L129.349 15.0238L129.349 15.0224L128.149 15.0238ZM127.386 13.1834L128.234 12.3352L128.234 12.3352L127.386 13.1834ZM125.547 12.4199L125.548 11.2199H125.547V12.4199ZM71.4269 12.4199L71.4269 11.2199L71.4255 11.2199L71.4269 12.4199ZM69.5879 13.1835L70.4368 14.0317L70.4368 14.0317L69.5879 13.1835ZM68.825 15.0238L67.625 15.0224V15.0238H68.825ZM68.825 39.5L67.625 39.5L67.625 39.5014L68.825 39.5ZM71.4269 42.1038L71.4255 43.3038H71.4269V42.1038ZM107.854 42.1038L107.855 40.9038H107.854V42.1038ZM109.415 43.6661L110.615 43.6661L110.615 43.6648L109.415 43.6661ZM109.415 110.845L108.215 110.845L108.215 110.847L109.415 110.845ZM118.783 119.019C116.618 119.017 114.542 118.155 113.01 116.622L111.313 118.319C113.293 120.301 115.979 121.416 118.78 121.419L118.783 119.019ZM124.553 116.622C123.022 118.155 120.946 119.017 118.78 119.019L118.783 121.419C121.584 121.416 124.27 120.301 126.251 118.319L124.553 116.622ZM126.949 110.844C126.946 113.012 126.085 115.09 124.553 116.622L126.251 118.319C128.231 116.337 129.345 113.65 129.349 110.847L126.949 110.844ZM126.949 15.0238V110.845H129.349V15.0238H126.949ZM126.537 14.0317C126.8 14.295 126.948 14.6523 126.949 15.0251L129.349 15.0224C129.347 14.0145 128.947 13.0481 128.234 12.3352L126.537 14.0317ZM125.545 13.6199C125.917 13.6203 126.274 13.7683 126.537 14.0317L128.234 12.3352C127.522 11.6223 126.556 11.2211 125.548 11.2199L125.545 13.6199ZM71.4269 13.6199H125.547V11.2199H71.4269V13.6199ZM70.4368 14.0317C70.6999 13.7683 71.0565 13.6204 71.4283 13.6199L71.4255 11.2199C70.4176 11.2211 69.4515 11.6223 68.7391 12.3352L70.4368 14.0317ZM70.025 15.0252C70.0254 14.6523 70.1736 14.295 70.4368 14.0317L68.7391 12.3352C68.0267 13.0481 67.6261 14.0145 67.625 15.0224L70.025 15.0252ZM70.025 39.5V15.0238H67.625V39.5H70.025ZM70.4368 40.4921C70.1736 40.2287 70.0254 39.8714 70.025 39.4986L67.625 39.5014C67.6261 40.5092 68.0267 41.4756 68.7391 42.1885L70.4368 40.4921ZM71.4283 40.9038C71.0565 40.9034 70.6999 40.7554 70.4368 40.4921L68.7391 42.1885C69.4515 42.9014 70.4176 43.3026 71.4255 43.3038L71.4283 40.9038ZM107.854 40.9038H71.4269V43.3038H107.854V40.9038ZM109.806 41.7137C109.289 41.196 108.587 40.9046 107.855 40.9038L107.852 43.3038C107.948 43.3039 108.04 43.342 108.108 43.4101L109.806 41.7137ZM110.615 43.6648C110.614 42.9331 110.323 42.2314 109.806 41.7137L108.108 43.4101C108.176 43.4782 108.215 43.5707 108.215 43.6674L110.615 43.6648ZM110.615 110.845V43.6661H108.215V110.845H110.615ZM113.01 116.622C111.479 115.09 110.617 113.012 110.615 110.844L108.215 110.847C108.218 113.65 109.332 116.337 111.313 118.319L113.01 116.622Z" fill="#20378B" mask="url(#path-23-inside-2_1092_11227)"/>
<path d="M118.782 114.491C120.793 114.491 122.424 112.859 122.424 110.846C122.424 108.832 120.793 107.2 118.782 107.2C116.77 107.2 115.139 108.832 115.139 110.846C115.139 112.859 116.77 114.491 118.782 114.491Z" fill="white"/>
</svg>
