<?xml version="1.0" encoding="UTF-8"?>
<svg id="BIKE" xmlns="http://www.w3.org/2000/svg" viewBox="0 0 47.63 47.63">
  <defs>
    <style>
      .cls-1 {
        fill: #b6e6fa;
      }

      .cls-1, .cls-2, .cls-3 {
        stroke: #1e3791;
        stroke-linejoin: round;
        stroke-width: .57px;
      }

      .cls-2 {
        fill: #fff;
      }

      .cls-3 {
        fill: #e1e1e1;
      }

      .cls-4 {
        fill: #1e3791;
      }
    </style>
  </defs>
  <path class="cls-1" d="m16.19,29.5c-4.4,0-7.97,3.11-7.97,6.94,0,1.65.67,3.17,1.77,4.36l-1.86,3.22,3.76-1.74c1.24.69,2.71,1.1,4.3,1.1,4.4,0,7.97-3.11,7.97-6.94s-3.57-6.94-7.97-6.94Z"/>
  <path class="cls-2" d="m16.2,3.75c-5.63,0-10.2,3.98-10.2,8.88,0,2.11.85,4.05,2.27,5.57l-2.38,4.12,4.82-2.23c1.59.89,3.47,1.41,5.5,1.41,5.63,0,10.2-3.98,10.2-8.88S21.84,3.75,16.2,3.75Z"/>
  <path class="cls-3" d="m31.1,12.76c6.4,0,11.59,4.52,11.59,10.09,0,2.4-.97,4.6-2.58,6.33l2.62,4.6-5.39-2.45c-1.8,1.01-3.95,1.6-6.25,1.6-6.4,0-11.59-4.52-11.59-10.09s5.19-10.09,11.59-10.09Z"/>
  <path class="cls-4" d="m31.17,30.04c-.38,0-.71-.14-.98-.41-.28-.27-.41-.6-.41-.98s.14-.71.41-.98c.27-.27.6-.41.98-.41s.71.14.98.41c.27.27.41.6.41.98s-.14.71-.41.98-.6.41-.98.41Zm-1.32-13.54h2.62v2.41l-.56,6.75h-1.5l-.56-6.75v-2.41Z"/>
  <g>
    <circle class="cls-4" cx="13.92" cy="36.76" r=".82"/>
    <circle class="cls-4" cx="16.66" cy="36.76" r=".82"/>
    <circle class="cls-4" cx="19.41" cy="36.76" r=".82"/>
  </g>
  <path class="cls-4" d="m16.98,14.15h-1.71v-.92c0-.4.05-.7.14-.9.1-.2.3-.46.63-.78l1.1-1.1c.23-.25.35-.56.35-.94s-.12-.68-.36-.93c-.24-.25-.55-.37-.94-.37s-.7.12-.96.35-.41.55-.45.94h-1.83c.1-.9.45-1.6,1.05-2.11.6-.51,1.35-.76,2.24-.76s1.63.24,2.19.73.85,1.17.85,2.05c0,.6-.17,1.11-.5,1.51-.19.24-.34.41-.44.51s-.23.23-.4.39c-.17.16-.31.29-.42.41-.12.12-.21.21-.28.29-.18.22-.27.53-.27.94v.68Zm-.82,3.35c-.32,0-.59-.11-.82-.33-.23-.22-.35-.48-.35-.78s.11-.57.34-.79c.23-.22.5-.33.82-.33s.59.11.82.32c.23.22.35.48.35.79s-.11.57-.34.79c-.23.22-.5.33-.82.33Z"/>
</svg>